$MeshFormat
4.1 0 8
$EndMeshFormat
$PhysicalNames
3
1 2 "bc-top"
1 3 "bc-bot"
2 1 "vol"
$EndPhysicalNames
$Entities
18 26 8 0
1 0 0 0 0 
2 0.005 0 0 0 
3 0.005 0.001 0 0 
4 0 0.001 0 0 
5 0.01 0 0 0 
6 0.01 0.001 0 0 
10 0.005 0.011 0 0 
11 0 0.011 0 0 
12 0.01 0.011 0 0 
13 0.005 0.012 0 0 
14 0 0.012 0 0 
15 0.01 0.012 0 0 
16 0 0.006 0 0 
17 0.004500000000000001 0.005999999999999941 0 0 
18 0.005000000000000241 0.0055 0 0 
19 0.0055 0.006 0 0 
20 0.01 0.006 0 0 
21 0.00500000000000024 0.006500000000000001 0 0 
1 -9.99999999998398e-08 -1e-07 -1e-07 0.0050001 1e-07 1e-07 1 3 2 1 -2 
2 0.0049999 -1.000000000000566e-07 -1.000000000000542e-07 0.0050001 0.0010001 1.000000000000542e-07 0 2 2 -3 
3 -9.99999999998398e-08 0.0009999 -1e-07 0.0050001 0.0010001 1e-07 0 2 3 -4 
4 -1e-07 -9.999999999994822e-08 -1e-07 1e-07 0.0010001 1e-07 0 2 4 -1 
5 0.0049999 -1e-07 -1e-07 0.0100001 1e-07 1e-07 1 3 2 2 -5 
6 0.009999900000000001 -9.999999999994822e-08 -1e-07 0.0100001 0.0010001 1e-07 0 2 5 -6 
7 0.0049999 0.0009999 -1e-07 0.0100001 0.0010001 1e-07 0 2 6 -3 
14 -9.99999999998398e-08 0.0109999 -1e-07 0.0050001 0.0110001 1e-07 0 2 10 -11 
17 0.0049999 0.0109999 -1e-07 0.0100001 0.0110001 1e-07 0 2 12 -10 
18 0.0049999 0.0109999 -1e-07 0.0050001 0.0120001 1e-07 0 2 10 -13 
19 -9.99999999998398e-08 0.0119999 -1e-07 0.0050001 0.0120001 1e-07 1 2 2 13 -14 
20 -1e-07 0.0109999 -1e-07 1e-07 0.0120001 1e-07 0 2 14 -11 
21 0.009999900000000001 0.0109999 -1e-07 0.0100001 0.0120001 1e-07 0 2 12 -15 
22 0.0049999 0.0119999 -1e-07 0.0100001 0.0120001 1e-07 1 2 2 15 -13 
23 -1e-07 0.0009999000000000002 -1e-07 1e-07 0.0060001 1e-07 0 2 16 -4 
24 -9.99999999998398e-08 0.0059999 -1e-07 0.004500100000000001 0.0060001 1e-07 0 2 17 -16 
25 0.0044999 0.005499899999999999 -1e-07 0.005000100000000242 0.0060001 1e-07 0 2 17 -18 
26 0.0049999 0.0009999000000000002 -1e-07 0.0050001 0.0055001 1e-07 0 2 3 -18 
27 0.004999900000000241 0.005499899999999999 -1e-07 0.0055001 0.0060001 1e-07 0 2 18 -19 
28 0.005499899999999999 0.0059999 -1e-07 0.0100001 0.0060001 1e-07 0 2 20 -19 
29 0.009999900000000001 0.0009999000000000002 -1e-07 0.0100001 0.0060001 1e-07 0 2 6 -20 
30 -1e-07 0.0059999 -1e-07 1e-07 0.0110001 1e-07 0 2 11 -16 
31 0.0049999 0.0064999 -1e-07 0.0050001 0.0110001 1e-07 0 2 21 -10 
32 0.0044999 0.0059999 -1e-07 0.005000100000000241 0.006500100000000001 1e-07 0 2 21 -17 
33 0.00499990000000024 0.0059999 -1e-07 0.0055001 0.006500100000000001 1e-07 0 2 19 -21 
34 0.009999900000000001 0.0059999 -1e-07 0.0100001 0.0110001 1e-07 0 2 20 -12 
1 -9.99999999998398e-08 -1.000000000000566e-07 -1.000000000000542e-07 0.0050001 0.0010001 1.000000000000542e-07 1 1 4 1 2 3 4 
5 0.0049999 -1.000000000000566e-07 -1.000000000000542e-07 0.0100001 0.0010001 1.000000000000542e-07 1 1 4 5 6 7 -2 
9 -9.99999999998398e-08 0.0009999000000000002 -1e-07 0.005000100000000242 0.0060001 1e-07 1 1 5 -3 26 -25 24 23 
13 0.0049999 0.0009999000000000002 -1e-07 0.0100001 0.0060001 1e-07 1 1 5 -7 29 28 -27 -26 
17 -9.99999999998398e-08 0.0059999 -1e-07 0.005000100000000241 0.0110001 1e-07 1 1 5 -24 -32 31 14 30 
21 0.0049999 0.0059999 -1e-07 0.0100001 0.0110001 1e-07 1 1 5 -28 34 17 -31 -33 
25 -9.99999999998398e-08 0.0109999 -1e-07 0.0050001 0.0120001 1e-07 1 1 4 -14 18 19 20 
29 0.0049999 0.0109999 -1e-07 0.0100001 0.0120001 1e-07 1 1 4 -17 21 22 -18 
$EndEntities
$Nodes
46 90 1 90
0 1 0 1
1
0 0 0
0 2 0 1
2
0.005 0 0
0 3 0 1
3
0.005 0.001 0
0 4 0 1
4
0 0.001 0
0 5 0 1
5
0.01 0 0
0 6 0 1
6
0.01 0.001 0
0 10 0 1
7
0.005 0.011 0
0 11 0 1
8
0 0.011 0
0 12 0 1
9
0.01 0.011 0
0 13 0 1
10
0.005 0.012 0
0 14 0 1
11
0 0.012 0
0 15 0 1
12
0.01 0.012 0
0 16 0 1
13
0 0.006 0
0 17 0 1
14
0.004500000000000001 0.005999999999999941 0
0 18 0 1
15
0.005000000000000241 0.0055 0
0 19 0 1
16
0.0055 0.006 0
0 20 0 1
17
0.01 0.006 0
0 21 0 1
18
0.00500000000000024 0.006500000000000001 0
1 1 0 1
19
0.0025 0 0
1 3 0 1
20
0.0025 0.001 0
1 5 0 1
21
0.0075 0 0
1 7 0 1
22
0.007500000000000001 0.001 0
1 14 0 1
23
0.0025 0.011 0
1 17 0 1
24
0.007500000000000001 0.011 0
1 19 0 1
25
0.0025 0.012 0
1 22 0 1
26
0.007500000000000001 0.012 0
1 23 0 1
27
0 0.003500000000000001 0
1 24 0 3
28
29
30
0.003375000000000001 0.006 0
0.002250000000000001 0.006 0
0.001125 0.006 0
1 25 0 3
31
32
33
0.00453806023374438 0.0058086582838174 0
0.004646446609406812 0.005646446609406641 0
0.004808658283817623 0.005538060233744288 0
1 26 0 3
34
35
36
0.005 0.002124999999999999 0
0.005 0.003249999999999999 0
0.005 0.004375 0
1 27 0 3
37
38
39
0.005191341716182712 0.005538060233744426 0
0.005353553390593358 0.005646446609406811 0
0.005461939766255666 0.005808658283817511 0
1 28 0 3
40
41
42
0.008875000000000001 0.006 0
0.00775 0.006 0
0.006625 0.006 0
1 29 0 1
43
0.01 0.0035 0
1 30 0 1
44
0 0.008500000000000001 0
1 31 0 3
45
46
47
0.005 0.007625 0
0.005 0.008749999999999999 0
0.005 0.009874999999999998 0
1 32 0 3
48
49
50
0.004808658283817622 0.006461939766255712 0
0.004646446609406812 0.006353553390593359 0
0.00453806023374438 0.006191341716182601 0
1 33 0 3
51
52
53
0.005461939766255666 0.00619134171618249 0
0.005353553390593358 0.006353553390593189 0
0.005191341716182711 0.006461939766255574 0
1 34 0 1
54
0.01 0.008499999999999999 0
2 1 0 0
2 5 0 0
2 9 0 9
55
56
57
58
59
60
61
62
63
0.00340354517530824 0.00523149371286305 0
0.00226903011687216 0.004654329141908701 0
0.00113451505843608 0.00407716457095435 0
0.003484834957055019 0.00448483495705498 0
0.002323223304703346 0.00332322330470332 0
0.001161611652351673 0.00216161165235166 0
0.004231493712863081 0.004403545175308216 0
0.00365432914190872 0.003269030116872143 0
0.003077164570954361 0.002134515058436072 0
2 13 0 9
64
65
66
67
68
69
70
71
72
0.005768506287137033 0.00440354517530832 0
0.006345670858091356 0.003269030116872213 0
0.006922835429045678 0.002134515058436107 0
0.006515165042945019 0.004484834957055108 0
0.007676776695296679 0.003323223304703405 0
0.00883838834764834 0.002161611652351702 0
0.006596454824691749 0.005231493712863133 0
0.007730969883127834 0.004654329141908755 0
0.008865484941563917 0.004077164570954377 0
2 17 0 9
73
74
75
76
77
78
79
80
81
0.003403545175308285 0.00676850628713695 0
0.002269030116872191 0.0073456708580913 0
0.001134515058436095 0.007922835429045649 0
0.00348483495705511 0.007515165042945018 0
0.002323223304703407 0.008676776695296678 0
0.001161611652351704 0.009838388347648339 0
0.004231493712863217 0.007596454824691783 0
0.003654329141908811 0.008730969883127855 0
0.003077164570954406 0.009865484941563927 0
2 21 0 9
82
83
84
85
86
87
88
89
90
0.00659645482469175 0.006768506287136867 0
0.007730969883127834 0.007345670858091244 0
0.008865484941563917 0.007922835429045622 0
0.006515165042945019 0.007515165042944891 0
0.007676776695296678 0.008676776695296593 0
0.00883838834764834 0.009838388347648297 0
0.005768506287137033 0.00759645482469168 0
0.006345670858091355 0.008730969883127786 0
0.006922835429045678 0.009865484941563894 0
2 25 0 0
2 29 0 0
$EndNodes
$Elements
12 80 1 80
1 1 1 2
1 1 19 
2 19 2 
1 5 1 2
3 2 21 
4 21 5 
1 19 1 2
5 10 25 
6 25 11 
1 22 1 2
7 12 26 
8 26 10 
2 1 3 2
9 1 19 20 4 
10 19 2 3 20 
2 5 3 2
11 2 21 22 3 
12 21 5 6 22 
2 9 3 16
13 14 28 55 31 
14 28 29 56 55 
15 29 30 57 56 
16 30 13 27 57 
17 31 55 58 32 
18 55 56 59 58 
19 56 57 60 59 
20 57 27 4 60 
21 32 58 61 33 
22 58 59 62 61 
23 59 60 63 62 
24 60 4 20 63 
25 33 61 36 15 
26 61 62 35 36 
27 62 63 34 35 
28 63 20 3 34 
2 13 3 16
29 15 36 64 37 
30 36 35 65 64 
31 35 34 66 65 
32 34 3 22 66 
33 37 64 67 38 
34 64 65 68 67 
35 65 66 69 68 
36 66 22 6 69 
37 38 67 70 39 
38 67 68 71 70 
39 68 69 72 71 
40 69 6 43 72 
41 39 70 42 16 
42 70 71 41 42 
43 71 72 40 41 
44 72 43 17 40 
2 17 3 16
45 14 50 73 28 
46 28 73 74 29 
47 29 74 75 30 
48 30 75 44 13 
49 50 49 76 73 
50 73 76 77 74 
51 74 77 78 75 
52 75 78 8 44 
53 49 48 79 76 
54 76 79 80 77 
55 77 80 81 78 
56 78 81 23 8 
57 48 18 45 79 
58 79 45 46 80 
59 80 46 47 81 
60 81 47 7 23 
2 21 3 16
61 16 42 82 51 
62 42 41 83 82 
63 41 40 84 83 
64 40 17 54 84 
65 51 82 85 52 
66 82 83 86 85 
67 83 84 87 86 
68 84 54 9 87 
69 52 85 88 53 
70 85 86 89 88 
71 86 87 90 89 
72 87 9 24 90 
73 53 88 45 18 
74 88 89 46 45 
75 89 90 47 46 
76 90 24 7 47 
2 25 3 2
77 8 23 25 11 
78 23 7 10 25 
2 29 3 2
79 7 24 26 10 
80 24 9 12 26 
$EndElements
