$MeshFormat
4.1 0 8
$EndMeshFormat
$PhysicalNames
3
1 1 "bc-top"
1 2 "bc-bot"
2 3 "vol"
$EndPhysicalNames
$Entities
5 5 1 0
5 0.006666666666666667 0.006 0 0 
6 0 0 0 0 
7 0.01 0 0 0 
8 0 0.012 0 0 
9 0.01 0.012 0 0 
5 0.003333233333333333 0.004333233333333333 -1e-07 0.006666766666666667 0.007666766666666667 1e-07 0 2 5 -5 
6 -1.000000000002735e-07 -1e-07 -1e-07 0.0100001 1e-07 1e-07 1 2 2 6 -7 
7 -1e-07 -1.000000000002735e-07 -1e-07 1e-07 0.0120001 1e-07 0 2 8 -6 
8 0.009999900000000001 -1.000000000002735e-07 -1e-07 0.0100001 0.0120001 1e-07 0 2 7 -9 
9 -1.000000000002735e-07 0.0119999 -1e-07 0.0100001 0.0120001 1e-07 1 1 2 9 -8 
1 -1.000000000002735e-07 -1.000000000002735e-07 -1e-07 0.0100001 0.0120001 1e-07 1 3 5 6 8 9 7 -5 
$EndEntities
$Nodes
11 132 1 132
0 5 0 1
1
0.006666666666666667 0.006 0
0 6 0 1
2
0 0 0
0 7 0 1
3
0.01 0 0
0 8 0 1
4
0 0.012 0
0 9 0 1
5
0.01 0.012 0
1 5 0 8
6
7
8
9
10
11
12
13
0.006276740738531629 0.0070713126828109 0
0.005289413629444882 0.007641346255020347 0
0.004166666666666665 0.007443375672974063 0
0.003433845632023485 0.006570033572209445 0
0.003433845632023487 0.00542996642779055 0
0.004166666666666666 0.004556624327025936 0
0.005289413629444883 0.004358653744979653 0
0.006276740738531631 0.004928687317189102 0
1 6 0 8
14
15
16
17
18
19
20
21
0.001111111111111112 0 0
0.002222222222222224 0 0
0.003333333333333338 0 0
0.004444444444444452 0 0
0.005555555555555564 0 0
0.006666666666666671 0 0
0.007777777777777779 0 0
0.008888888888888887 0 0
1 7 0 9
22
23
24
25
26
27
28
29
30
0 0.0108 0
0 0.009600000000000001 0
0 0.008400000000000001 0
0 0.007200000000000002 0
0 0.006000000000000001 0
0 0.004800000000000001 0
0 0.003600000000000001 0
0 0.002400000000000001 0
0 0.0012 0
1 8 0 9
31
32
33
34
35
36
37
38
39
0.01 0.001199999999999999 0
0.01 0.002399999999999999 0
0.01 0.003599999999999999 0
0.01 0.004799999999999999 0
0.01 0.005999999999999999 0
0.01 0.007199999999999999 0
0.01 0.008399999999999999 0
0.01 0.009599999999999999 0
0.01 0.0108 0
1 9 0 8
40
41
42
43
44
45
46
47
0.008888888888888887 0.012 0
0.007777777777777776 0.012 0
0.006666666666666663 0.012 0
0.005555555555555548 0.012 0
0.004444444444444437 0.012 0
0.00333333333333333 0.012 0
0.002222222222222221 0.012 0
0.001111111111111113 0.012 0
2 1 0 85
48
49
50
51
52
53
54
55
56
57
58
59
60
61
62
63
64
65
66
67
68
69
70
71
72
73
74
75
76
77
78
79
80
81
82
83
84
85
86
87
88
89
90
91
92
93
94
95
96
97
98
99
100
101
102
103
104
105
106
107
108
109
110
111
112
113
114
115
116
117
118
119
120
121
122
123
124
125
126
127
128
129
130
131
132
0.007215266970002901 0.001030049228045915 0
0.007088979664165335 0.0110362915609396 0
0.002791576009738449 0.0109042081252428 0
0.00277777777777778 0.0009622504486493776 0
0.00496950395495835 0.01096106438493689 0
0.004988598299701177 0.0009599775634058193 0
0.003046386950477287 0.00432425263223137 0
0.003046386950477282 0.007675747367768626 0
0.008983166046902481 0.003000493064698921 0
0.008983134370664706 0.008999471988269683 0
0.006258093396029106 0.003760901992746523 0
0.006258093396029104 0.008239098007253478 0
0.003709233308737949 0.00349863006398758 0
0.003709233308737944 0.008501369936012419 0
0.002635139131739964 0.008720543828098601 0
0.00263760881322852 0.003279265621803454 0
0.007251882571096956 0.005125259786138345 0
0.00725266917441522 0.006870728722728873 0
0.002634456133969755 0.005999999999999998 0
0.0009873808130701905 0.0100471369829674 0
0.0009863641927506861 0.001952011890144586 0
0.001908341458691444 0.004165380347802284 0
0.001908341458691437 0.00783461965219771 0
0.005354440970285698 0.003214947675318993 0
0.006306084622804943 0.002693162318293102 0
0.005354440970285696 0.008785052324681009 0
0.006306084622804941 0.009306837681706899 0
0.00722224262073962 0.008877488971554295 0
0.007222012189576939 0.003121766888628361 0
0.003458381106622243 0.009728211300142325 0
0.003462843526559283 0.002483587044494261 0
0.009014468538996789 0.006642176963612349 0
0.001075156120252174 0.006672961347657203 0
0.001547356522396149 0.008865860467579766 0
0.001546412642218234 0.003132972938219888 0
0.005399217150776209 0.009956871723578037 0
0.005433127353316891 0.001994667192417188 0
0.009044664614165863 0.007851782212372904 0
0.008946809584534626 0.001769201413982886 0
0.009035699617755265 0.004152083660866716 0
0.009033871200777928 0.005351133294411232 0
0.009109109570376365 0.01020268130355151 0
0.001066762000454679 0.005351683239160787 0
0.002186298403581683 0.009886962607363233 0
0.003920251942416547 0.01095882364581368 0
0.002348899589112992 0.002047137889576828 0
0.006017451608933468 0.01102810831932205 0
0.006047333584453651 0.0009617119562318607 0
0.003888196365790084 0.0009277703621016252 0
0.007241259805832218 0.002095525067918776 0
0.007254584535335921 0.01001514256680451 0
0.008326198936141355 0.0008752241384850559 0
0.001685413191826184 0.01099985143474405 0
0.001710044247368039 0.000966766555913324 0
0.008238218487742466 0.01091542838332677 0
0.00795674180295876 0.005996262751285303 0
0.004438848580169453 0.002690819176590821 0
0.004509279959975793 0.009223666822682313 0
0.000860011356477914 0.004150109178692168 0
0.0008605182726163924 0.007871273169790737 0
0.00814310646046339 0.008415784101013636 0
0.008141579980527586 0.003581336338466175 0
0.008183370480750031 0.009600000000000001 0
0.008076175589155262 0.002533307151732185 0
0.007174556755855497 0.004181922289813083 0
0.007179594272553489 0.007818546555003159 0
0.002285525869003555 0.006792226989972163 0
0.002284126849037308 0.005211880441164165 0
0.0043490601580672 0.001740648883885942 0
0.008099055321495331 0.004731333020163476 0
0.008098540810592251 0.007265880217669371 0
0.006424786661478704 0.001785577753522241 0
0.006424786661478703 0.01021442224647776 0
0.004603423854265886 0.003743398486021599 0
0.004608557336759057 0.008250368715091603 0
0.000813890591233441 0.01116080089289085 0
0.0008138905912334427 0.0008391991071091528 0
0.009186109408766557 0.01116080089289085 0
0.009232379481912974 0.0007688851104935878 0
0.003349671165031364 0.001604562990133347 0
0.0006359834841146127 0.003 0
0.0006359834841146075 0.009000000000000001 0
0.004524272805402476 0.01015945806456007 0
0.007942081156933003 0.001646388128195424 0
0.001796566401418838 0.006004107431136331 0
$EndNodes
$Elements
3 235 1 235
1 6 1 9
1 2 14 
2 14 15 
3 15 16 
4 16 17 
5 17 18 
6 18 19 
7 19 20 
8 20 21 
9 21 3 
1 9 1 9
10 5 40 
11 40 41 
12 41 42 
13 42 43 
14 43 44 
15 44 45 
16 45 46 
17 46 47 
18 47 4 
2 1 2 217
19 50 91 77 
20 45 92 44 
21 98 110 102 
22 77 92 50 
23 98 102 49 
24 50 92 45 
25 44 92 52 
26 80 114 70 
27 69 115 90 
28 50 100 91 
29 93 101 51 
30 70 107 80 
31 90 106 69 
32 79 118 103 
33 53 95 84 
34 83 94 52 
35 103 117 88 
36 103 118 65 
37 64 117 103 
38 91 100 67 
39 81 91 67 
40 102 110 89 
41 68 93 82 
42 68 101 93 
43 95 119 84 
44 83 120 94 
45 1 103 65 
46 64 103 1 
47 51 127 93 
48 82 128 68 
49 67 129 81 
50 38 89 57 
51 57 85 37 
52 80 132 114 
53 115 132 90 
54 33 87 56 
55 79 88 35 
56 56 86 32 
57 26 90 80 
58 30 68 29 
59 23 67 22 
60 39 89 38 
61 33 56 32 
62 38 57 37 
63 36 85 79 
64 34 88 87 
65 34 87 33 
66 32 86 31 
67 69 106 82 
68 81 107 70 
69 61 77 62 
70 63 78 60 
71 26 80 25 
72 27 90 26 
73 36 79 35 
74 63 93 78 
75 37 85 36 
76 108 110 75 
77 71 84 72 
78 74 83 73 
79 71 72 58 
80 59 74 73 
81 35 88 34 
82 77 130 92 
83 12 71 58 
84 59 73 7 
85 12 58 13 
86 6 59 7 
87 76 111 109 
88 77 91 62 
89 20 48 19 
90 42 49 41 
91 43 94 42 
92 19 95 18 
93 8 61 55 
94 54 60 11 
95 61 62 55 
96 54 63 60 
97 16 51 15 
98 46 50 45 
99 17 96 16 
100 44 52 43 
101 18 53 17 
102 72 76 58 
103 59 75 74 
104 82 93 63 
105 42 94 49 
106 48 95 19 
107 16 96 51 
108 52 94 43 
109 18 95 53 
110 53 96 17 
111 8 55 9 
112 10 54 11 
113 13 64 1 
114 1 65 6 
115 9 66 10 
116 62 91 81 
117 72 97 76 
118 75 98 74 
119 62 81 70 
120 69 82 63 
121 62 70 55 
122 54 69 63 
123 78 127 116 
124 78 116 104 
125 75 110 98 
126 97 111 76 
127 106 128 82 
128 81 129 107 
129 47 100 46 
130 15 101 14 
131 41 102 40 
132 20 99 48 
133 93 127 78 
134 105 130 77 
135 80 107 25 
136 27 106 90 
137 21 99 20 
138 46 100 50 
139 51 101 15 
140 49 102 41 
141 88 117 87 
142 68 128 29 
143 23 129 67 
144 85 118 79 
145 79 103 88 
146 58 112 13 
147 6 113 59 
148 84 119 72 
149 74 120 83 
150 2 124 30 
151 22 123 4 
152 5 125 39 
153 83 105 73 
154 71 104 84 
155 13 112 64 
156 65 113 6 
157 61 105 77 
158 78 104 60 
159 55 114 9 
160 10 115 54 
161 9 114 66 
162 66 115 10 
163 4 123 47 
164 14 124 2 
165 40 125 5 
166 97 119 48 
167 49 120 98 
168 48 119 95 
169 94 120 49 
170 31 126 3 
171 3 126 21 
172 105 122 73 
173 71 121 104 
174 57 110 108 
175 61 122 105 
176 104 121 60 
177 28 106 27 
178 25 107 24 
179 57 108 85 
180 109 111 56 
181 89 110 57 
182 87 109 56 
183 92 130 52 
184 84 116 53 
185 56 111 86 
186 109 112 76 
187 75 113 108 
188 52 130 83 
189 28 128 106 
190 107 129 24 
191 66 132 115 
192 114 132 66 
193 59 113 75 
194 76 112 58 
195 86 126 31 
196 113 118 108 
197 109 117 112 
198 54 115 69 
199 70 114 55 
200 67 123 22 
201 30 124 68 
202 39 125 89 
203 53 116 96 
204 48 131 97 
205 8 122 61 
206 60 121 11 
207 90 132 80 
208 116 127 96 
209 72 119 97 
210 98 120 74 
211 73 122 7 
212 12 121 71 
213 11 121 12 
214 7 122 8 
215 99 131 48 
216 86 131 99 
217 29 128 28 
218 24 129 23 
219 101 124 14 
220 47 123 100 
221 102 125 40 
222 99 126 86 
223 104 116 84 
224 96 127 51 
225 100 123 67 
226 68 124 101 
227 89 125 102 
228 21 126 99 
229 111 131 86 
230 65 118 113 
231 112 117 64 
232 83 130 105 
233 108 118 85 
234 87 117 109 
235 97 131 111 
$EndElements
