$MeshFormat
4.1 0 8
$EndMeshFormat
$PhysicalNames
3
1 2 "bc-top"
1 3 "bc-bot"
2 1 "vol"
$EndPhysicalNames
$Entities
18 26 8 0
1 0 0 0 0 
2 0.005 0 0 0 
3 0.005 0.001 0 0 
4 0 0.001 0 0 
5 0.01 0 0 0 
6 0.01 0.001 0 0 
10 0.005 0.011 0 0 
11 0 0.011 0 0 
12 0.01 0.011 0 0 
13 0.005 0.012 0 0 
14 0 0.012 0 0 
15 0.01 0.012 0 0 
16 0 0.006 0 0 
17 0.003333333333333333 0.005999999999999941 0 0 
18 0.004999999999999763 0.004333333333333333 0 0 
19 0.006666666666666667 0.006 0 0 
20 0.01 0.006 0 0 
21 0.004999999999999763 0.007666666666666667 0 0 
1 -9.99999999998398e-08 -1e-07 -1e-07 0.0050001 1e-07 1e-07 1 3 2 1 -2 
2 0.0049999 -1.000000000000566e-07 -1.000000000000542e-07 0.0050001 0.0010001 1.000000000000542e-07 0 2 2 -3 
3 -9.99999999998398e-08 0.0009999 -1e-07 0.0050001 0.0010001 1e-07 0 2 3 -4 
4 -1e-07 -9.999999999994822e-08 -1e-07 1e-07 0.0010001 1e-07 0 2 4 -1 
5 0.0049999 -1e-07 -1e-07 0.0100001 1e-07 1e-07 1 3 2 2 -5 
6 0.009999900000000001 -9.999999999994822e-08 -1e-07 0.0100001 0.0010001 1e-07 0 2 5 -6 
7 0.0049999 0.0009999 -1e-07 0.0100001 0.0010001 1e-07 0 2 6 -3 
14 -9.99999999998398e-08 0.0109999 -1e-07 0.0050001 0.0110001 1e-07 0 2 10 -11 
17 0.0049999 0.0109999 -1e-07 0.0100001 0.0110001 1e-07 0 2 12 -10 
18 0.0049999 0.0109999 -1e-07 0.0050001 0.0120001 1e-07 0 2 10 -13 
19 -9.99999999998398e-08 0.0119999 -1e-07 0.0050001 0.0120001 1e-07 1 2 2 13 -14 
20 -1e-07 0.0109999 -1e-07 1e-07 0.0120001 1e-07 0 2 14 -11 
21 0.009999900000000001 0.0109999 -1e-07 0.0100001 0.0120001 1e-07 0 2 12 -15 
22 0.0049999 0.0119999 -1e-07 0.0100001 0.0120001 1e-07 1 2 2 15 -13 
23 -1e-07 0.0009999000000000002 -1e-07 1e-07 0.0060001 1e-07 0 2 16 -4 
24 -1.000000000000566e-07 0.0059999 -1e-07 0.003333433333333333 0.0060001 1e-07 0 2 17 -16 
25 0.003333233333333333 0.004333233333333333 -1e-07 0.005000099999999764 0.0060001 1e-07 0 2 17 -18 
26 0.0049999 0.0009999 -1e-07 0.0050001 0.004333433333333333 1e-07 0 2 3 -18 
27 0.004999899999999763 0.004333233333333333 -1e-07 0.006666766666666667 0.0060001 1e-07 0 2 18 -19 
28 0.006666566666666667 0.0059999 -1e-07 0.0100001 0.0060001 1e-07 0 2 20 -19 
29 0.009999900000000001 0.0009999000000000002 -1e-07 0.0100001 0.0060001 1e-07 0 2 6 -20 
30 -1e-07 0.0059999 -1e-07 1e-07 0.0110001 1e-07 0 2 11 -16 
31 0.0049999 0.007666566666666667 -1e-07 0.0050001 0.0110001 1e-07 0 2 21 -10 
32 0.003333233333333333 0.0059999 -1e-07 0.005000099999999764 0.007666766666666667 1e-07 0 2 21 -17 
33 0.004999899999999763 0.0059999 -1e-07 0.006666766666666667 0.007666766666666667 1e-07 0 2 19 -21 
34 0.009999900000000001 0.0059999 -1e-07 0.0100001 0.0110001 1e-07 0 2 20 -12 
1 -9.99999999998398e-08 -1.000000000000566e-07 -1.000000000000542e-07 0.0050001 0.0010001 1.000000000000542e-07 1 1 4 1 2 3 4 
5 0.0049999 -1.000000000000566e-07 -1.000000000000542e-07 0.0100001 0.0010001 1.000000000000542e-07 1 1 4 5 6 7 -2 
9 -9.99999999998398e-08 0.0009999000000000002 -1e-07 0.0050001 0.0060001 1e-07 1 1 5 -3 26 -25 24 23 
13 0.004999899999999763 0.0009999000000000002 -1e-07 0.0100001 0.0060001 1e-07 1 1 5 -7 29 28 -27 -26 
17 -9.99999999998398e-08 0.0059999 -1e-07 0.0050001 0.0110001 1e-07 1 1 5 -24 -32 31 14 30 
21 0.004999899999999763 0.0059999 -1e-07 0.0100001 0.0110001 1e-07 1 1 5 -28 34 17 -31 -33 
25 -9.99999999998398e-08 0.0109999 -1e-07 0.0050001 0.0120001 1e-07 1 1 4 -14 18 19 20 
29 0.0049999 0.0109999 -1e-07 0.0100001 0.0120001 1e-07 1 1 4 -17 21 22 -18 
$EndEntities
$Nodes
52 324 1 324
0 1 0 1
1
0 0 0
0 2 0 1
2
0.005 0 0
0 3 0 1
3
0.005 0.001 0
0 4 0 1
4
0 0.001 0
0 5 0 1
5
0.01 0 0
0 6 0 1
6
0.01 0.001 0
0 10 0 1
7
0.005 0.011 0
0 11 0 1
8
0 0.011 0
0 12 0 1
9
0.01 0.011 0
0 13 0 1
10
0.005 0.012 0
0 14 0 1
11
0 0.012 0
0 15 0 1
12
0.01 0.012 0
0 16 0 1
13
0 0.006 0
0 17 0 1
14
0.003333333333333333 0.005999999999999941 0
0 18 0 1
15
0.004999999999999763 0.004333333333333333 0
0 19 0 1
16
0.006666666666666667 0.006 0
0 20 0 1
17
0.01 0.006 0
0 21 0 1
18
0.004999999999999763 0.007666666666666667 0
1 1 0 3
19
20
21
0.0025 0 0
0.00125 0 0
0.00375 0 0
1 2 0 1
22
0.005 0.0005 0
1 3 0 3
23
24
25
0.0025 0.001 0
0.00375 0.001 0
0.00125 0.001 0
1 4 0 1
26
0 0.0005 0
1 5 0 3
27
28
29
0.0075 0 0
0.00625 0 0
0.008750000000000001 0 0
1 6 0 1
30
0.01 0.0005 0
1 7 0 3
31
32
33
0.007500000000000001 0.001 0
0.008750000000000001 0.001 0
0.00625 0.001 0
1 14 0 3
34
35
36
0.0025 0.011 0
0.00375 0.011 0
0.00125 0.011 0
1 17 0 3
37
38
39
0.007500000000000001 0.011 0
0.008750000000000001 0.011 0
0.00625 0.011 0
1 18 0 1
40
0.005 0.0115 0
1 19 0 3
41
42
43
0.0025 0.012 0
0.00375 0.012 0
0.00125 0.012 0
1 20 0 1
44
0 0.0115 0
1 21 0 1
45
0.01 0.0115 0
1 22 0 3
46
47
48
0.007500000000000001 0.012 0
0.008750000000000001 0.012 0
0.00625 0.012 0
1 23 0 3
49
50
51
0 0.003500000000000001 0
0 0.004750000000000001 0
0 0.00225 0
1 24 0 7
52
53
54
55
56
57
58
0.002500000000000001 0.006 0
0.00166666666666667 0.006 0
0.0008333333333333335 0.006 0
0.002916666666666667 0.006 0
0.002083333333333335 0.006 0
0.001250000000000002 0.006 0
0.0004166666666666667 0.006 0
1 25 0 7
59
60
61
62
63
64
65
0.003460200779147832 0.005362194279391573 0
0.003821488698022336 0.004821488698022506 0
0.004362194279391352 0.004460200779147924 0
0.00336535786599461 0.005674849463306483 0
0.003614217312829041 0.005074049611634071 0
0.004074049611633872 0.004614217312829174 0
0.004674849463306249 0.004365357865994656 0
1 26 0 7
66
67
68
69
70
71
72
0.005 0.001833333333333332 0
0.005 0.002666666666666663 0
0.005 0.003499999999999997 0
0.005 0.001416666666666666 0
0.005 0.002249999999999997 0
0.005 0.003083333333333329 0
0.005 0.003916666666666665 0
1 27 0 7
73
74
75
76
77
78
79
0.00563780572060832 0.004460200779147787 0
0.006178511301977495 0.004821488698022337 0
0.006539799220852122 0.005362194279391463 0
0.005325150536693344 0.004365357865994575 0
0.00592595038836588 0.004614217312829009 0
0.00638578268717086 0.005074049611633922 0
0.006634642134005378 0.005674849463306424 0
1 28 0 7
80
81
82
83
84
85
86
0.009166666666666668 0.006 0
0.008333333333333338 0.006 0
0.007500000000000003 0.006 0
0.009583333333333334 0.006 0
0.008750000000000003 0.006 0
0.007916666666666671 0.006 0
0.007083333333333336 0.006 0
1 29 0 3
87
88
89
0.01 0.0035 0
0.01 0.00225 0
0.01 0.00475 0
1 30 0 3
90
91
92
0 0.008500000000000001 0
0 0.00975 0
0 0.00725 0
1 31 0 7
93
94
95
96
97
98
99
0.005 0.008499999999999999 0
0.005 0.009333333333333331 0
0.005 0.01016666666666667 0
0.005 0.008083333333333333 0
0.005 0.008916666666666665 0
0.005 0.009749999999999998 0
0.005 0.01058333333333333 0
1 32 0 7
100
101
102
103
104
105
106
0.004362194279391353 0.007539799220852077 0
0.003821488698022336 0.007178511301977494 0
0.003460200779147832 0.006637805720608428 0
0.004674849463306249 0.007634642134005344 0
0.004074049611633873 0.007385782687170826 0
0.003614217312829042 0.006925950388365929 0
0.00336535786599461 0.006325150536693518 0
1 33 0 7
107
108
109
110
111
112
113
0.006539799220852122 0.006637805720608539 0
0.006178511301977495 0.007178511301977664 0
0.005637805720608319 0.007539799220852213 0
0.006634642134005378 0.006325150536693577 0
0.006385782687170859 0.006925950388366078 0
0.00592595038836588 0.007385782687170992 0
0.005325150536693343 0.007634642134005425 0
1 34 0 3
114
115
116
0.01 0.008499999999999999 0
0.01 0.00725 0
0.01 0.00975 0
2 1 0 3
117
118
119
0.0025 0.0005 0
0.00125 0.0005 0
0.00375 0.0005 0
2 5 0 3
120
121
122
0.0075 0.0005 0
0.00625 0.0005 0
0.008750000000000001 0.0005 0
2 9 0 49
123
124
125
126
127
128
129
130
131
132
133
134
135
136
137
138
139
140
141
142
143
144
145
146
147
148
149
150
151
152
153
154
155
156
157
158
159
160
161
162
163
164
165
166
167
168
169
170
171
0.002595150584360919 0.004896645709543679 0
0.001730100389573948 0.004431097139695785 0
0.000865050194786973 0.003965548569847892 0
0.00286611652351684 0.003866116523516877 0
0.001910744349011228 0.002910744349011251 0
0.000955372174505613 0.001955372174505625 0
0.003896645709543647 0.00359515058436094 0
0.003431097139695766 0.002730100389573959 0
0.002965548569847883 0.001865050194786979 0
0.00254757529218046 0.005448322854771839 0
0.003027675681754376 0.005129419994467626 0
0.002956466579087535 0.005561586159039161 0
0.001698383528120309 0.005215548569847893 0
0.002162625486967433 0.004663871424619732 0
0.002122979410150385 0.005331935712309866 0
0.0008491917640601533 0.004982774284923946 0
0.00129757529218046 0.004198322854771839 0
0.001273787646090231 0.00509916142738592 0
0.0004325250973934865 0.003732774284923947 0
0.0004245958820300764 0.004866387142461973 0
0.00273063355393888 0.004381381116530278 0
0.003343802610769588 0.004343802610769691 0
0.00317242543338396 0.004727715364082175 0
0.001820422369292588 0.003670920744353518 0
0.002388430436264034 0.003388430436264064 0
0.002275527961615734 0.004026150930441898 0
0.000910211184646293 0.002960460372176759 0
0.001433058261758421 0.002433058261758438 0
0.001365316776969441 0.003315690558265139 0
0.0004776860872528067 0.001477686087252812 0
0.0004551055923231466 0.00260523018608838 0
0.003381381116530244 0.003730633553938908 0
0.004129419994467499 0.004027675681754432 0
0.003727715364082058 0.004172425433384041 0
0.002670920744353497 0.002820422369292605 0
0.003663871424619707 0.00316262548696745 0
0.00302615093044187 0.003275527961615757 0
0.001960460372176748 0.001910211184646302 0
0.003198322854771824 0.002297575292180469 0
0.002315690558265123 0.002365316776969454 0
0.002732774284923942 0.00143252509739349 0
0.001605230186088374 0.001455105592323151 0
0.004448322854771824 0.003547575292180468 0
0.004561586159039096 0.003956466579087562 0
0.004215548569847883 0.00269838352812031 0
0.004331935712309854 0.003122979410150389 0
0.003982774284923942 0.001849191764060155 0
0.004099161427385912 0.002273787646090233 0
0.003866387142461971 0.001424595882030078 0
2 13 0 49
172
173
174
175
176
177
178
179
180
181
182
183
184
185
186
187
188
189
190
191
192
193
194
195
196
197
198
199
200
201
202
203
204
205
206
207
208
209
210
211
212
213
214
215
216
217
218
219
220
0.006103354290456242 0.003595150584360838 0
0.006568902860304163 0.002730100389573889 0
0.007034451430152081 0.001865050194786945 0
0.007133883476483125 0.003866116523516749 0
0.008089255650988753 0.002910744349011164 0
0.009044627825494376 0.001955372174505583 0
0.007404849415639095 0.004896645709543596 0
0.008269899610426066 0.004431097139695729 0
0.009134949805213032 0.003965548569847864 0
0.005551677145228121 0.003547575292180417 0
0.005870580005532281 0.004027675681754312 0
0.005438413840960733 0.003956466579087496 0
0.005784451430152081 0.002698383528120276 0
0.006336128575380202 0.003162625486967363 0
0.005668064287690101 0.003122979410150347 0
0.006017225715076041 0.001849191764060139 0
0.006801677145228122 0.002297575292180417 0
0.005900838572614061 0.002273787646090207 0
0.00726722571507604 0.001432525097393473 0
0.006133612857538021 0.001424595882030069 0
0.006618618883469683 0.003730633553938793 0
0.00665619738923031 0.004343802610769543 0
0.006272284635917781 0.004172425433383901 0
0.007329079255646458 0.002820422369292527 0
0.007611569563735939 0.003388430436263956 0
0.00697384906955807 0.00327552796161566 0
0.008039539627823229 0.001910211184646264 0
0.008566941738241563 0.002433058261758373 0
0.007684309441734843 0.002365316776969395 0
0.009522313912747188 0.001477686087252792 0
0.008394769813911615 0.001455105592323132 0
0.00726936644606111 0.004381381116530172 0
0.006972324318245609 0.005129419994467529 0
0.006827574566615985 0.004727715364082047 0
0.008179577630707409 0.003670920744353446 0
0.007837374513032581 0.004663871424619662 0
0.00772447203838426 0.00402615093044181 0
0.009089788815353704 0.002960460372176724 0
0.00870242470781955 0.004198322854771797 0
0.008634683223030556 0.003315690558265085 0
0.009567474902606517 0.003732774284923932 0
0.009544894407676852 0.002605230186088362 0
0.00745242470781955 0.005448322854771798 0
0.007043533420912464 0.00556158615903911 0
0.008301616471879701 0.005215548569847865 0
0.007877020589849626 0.005331935712309831 0
0.009150808235939851 0.004982774284923932 0
0.008726212353909777 0.005099161427385899 0
0.009575404117969925 0.004866387142461966 0
2 17 0 49
221
222
223
224
225
226
227
228
229
230
231
232
233
234
235
236
237
238
239
240
241
242
243
244
245
246
247
248
249
250
251
252
253
254
255
256
257
258
259
260
261
262
263
264
265
266
267
268
269
0.002595150584360875 0.007103354290456321 0
0.001730100389573919 0.007568902860304212 0
0.0008650501947869583 0.008034451430152106 0
0.002866116523516753 0.00813388347648312 0
0.001910744349011171 0.009089255650988743 0
0.0009553721745055844 0.01004462782549437 0
0.003896645709543515 0.008404849415639057 0
0.003431097139695677 0.009269899610426034 0
0.002965548569847838 0.01013494980521302 0
0.003027675681754354 0.006870580005532374 0
0.002547575292180438 0.00655167714522816 0
0.002956466579087524 0.00643841384096084 0
0.002162625486967397 0.007336128575380267 0
0.001698383528120294 0.006784451430152106 0
0.002122979410150366 0.006668064287690133 0
0.001297575292180439 0.007801677145228159 0
0.0008491917640601459 0.007017225715076053 0
0.00127378764609022 0.00690083857261408 0
0.0004325250973934791 0.008267225715076053 0
0.0004245958820300729 0.007133612857538027 0
0.003343802610769545 0.007656197389230307 0
0.002730633553938814 0.00761861888346972 0
0.003172425433383928 0.007272284635917825 0
0.002388430436263962 0.008611569563735932 0
0.001820422369292545 0.008329079255646478 0
0.00227552796161568 0.007973849069558099 0
0.001433058261758378 0.009566941738241559 0
0.0009102111846462713 0.009039539627823241 0
0.001365316776969408 0.008684309441734858 0
0.000477686087252792 0.01052231391274719 0
0.0004551055923231353 0.009394769813911619 0
0.004129419994467434 0.007972324318245566 0
0.003381381116530134 0.008269366446061088 0
0.003727715364082003 0.007827574566615958 0
0.003663871424619596 0.008837374513032546 0
0.002670920744353425 0.009179577630707389 0
0.003026150930441779 0.008724472038384239 0
0.003198322854771758 0.009702424707819526 0
0.001960460372176711 0.0100897888153537 0
0.002315690558265068 0.009634683223030543 0
0.002732774284923919 0.01056747490260651 0
0.001605230186088356 0.01054489440767685 0
0.004448322854771758 0.008452424707819529 0
0.004561586159039004 0.008043533420912435 0
0.004215548569847839 0.009301616471879683 0
0.004331935712309798 0.008877020589849606 0
0.003982774284923919 0.01015080823593984 0
0.004099161427385879 0.009726212353909762 0
0.00386638714246196 0.01057540411796992 0
2 21 0 49
270
271
272
273
274
275
276
277
278
279
280
281
282
283
284
285
286
287
288
289
290
291
292
293
294
295
296
297
298
299
300
301
302
303
304
305
306
307
308
309
310
311
312
313
314
315
316
317
318
0.007404849415639094 0.007103354290456404 0
0.008269899610426065 0.007568902860304269 0
0.009134949805213032 0.008034451430152134 0
0.007133883476483124 0.008133883476483247 0
0.008089255650988751 0.009089255650988831 0
0.009044627825494376 0.01004462782549442 0
0.006103354290456239 0.008404849415639159 0
0.006568902860304161 0.009269899610426104 0
0.007034451430152081 0.01013494980521305 0
0.007452424707819549 0.006551677145228202 0
0.006972324318245608 0.006870580005532471 0
0.007043533420912464 0.00643841384096089 0
0.008301616471879701 0.006784451430152135 0
0.007837374513032579 0.007336128575380336 0
0.007877020589849624 0.006668064287690168 0
0.009150808235939851 0.007017225715076067 0
0.008702424707819548 0.007801677145228202 0
0.008726212353909775 0.006900838572614101 0
0.009567474902606517 0.008267225715076067 0
0.009575404117969925 0.007133612857538034 0
0.007269366446061108 0.007618618883469826 0
0.006656197389230309 0.007656197389230455 0
0.006827574566615984 0.007272284635917952 0
0.008179577630707407 0.00832907925564655 0
0.007611569563735937 0.008611569563736038 0
0.007724472038384258 0.007973849069558187 0
0.009089788815353703 0.009039539627823275 0
0.008566941738241563 0.009566941738241623 0
0.008634683223030555 0.008684309441734912 0
0.009522313912747188 0.01052231391274721 0
0.009544894407676852 0.009394769813911637 0
0.006618618883469682 0.008269366446061204 0
0.005870580005532279 0.007972324318245686 0
0.006272284635917781 0.007827574566616098 0
0.007329079255646456 0.009179577630707467 0
0.0063361285753802 0.008837374513032632 0
0.006973849069558068 0.008724472038384336 0
0.008039539627823227 0.01008978881535373 0
0.006801677145228121 0.009702424707819578 0
0.007684309441734842 0.009634683223030601 0
0.00726722571507604 0.01056747490260653 0
0.008394769813911615 0.01054489440767687 0
0.00555167714522812 0.008452424707819579 0
0.005438413840960731 0.008043533420912501 0
0.00578445143015208 0.009301616471879718 0
0.0056680642876901 0.008877020589849648 0
0.00601722571507604 0.01015080823593986 0
0.005900838572614061 0.009726212353909788 0
0.00613361285753802 0.01057540411796993 0
2 25 0 3
319
320
321
0.0025 0.0115 0
0.00125 0.0115 0
0.00375 0.0115 0
2 29 0 3
322
323
324
0.007500000000000001 0.0115 0
0.00625 0.0115 0
0.008750000000000001 0.0115 0
$EndNodes
$Elements
12 80 1 80
1 1 8 2
1 1 19 20 
2 19 2 21 
1 5 8 2
3 2 27 28 
4 27 5 29 
1 19 8 2
5 10 41 42 
6 41 11 43 
1 22 8 2
7 12 46 47 
8 46 10 48 
2 1 10 2
9 1 19 23 4 20 117 25 26 118 
10 19 2 3 23 21 22 24 117 119 
2 5 10 2
11 2 27 31 3 28 120 33 22 121 
12 27 5 6 31 29 30 32 120 122 
2 9 10 16
13 14 52 123 59 55 132 133 62 134 
14 52 53 124 123 56 135 136 132 137 
15 53 54 125 124 57 138 139 135 140 
16 54 13 49 125 58 50 141 138 142 
17 59 123 126 60 133 143 144 63 145 
18 123 124 127 126 136 146 147 143 148 
19 124 125 128 127 139 149 150 146 151 
20 125 49 4 128 141 51 152 149 153 
21 60 126 129 61 144 154 155 64 156 
22 126 127 130 129 147 157 158 154 159 
23 127 128 131 130 150 160 161 157 162 
24 128 4 23 131 152 25 163 160 164 
25 61 129 68 15 155 165 72 65 166 
26 129 130 67 68 158 167 71 165 168 
27 130 131 66 67 161 169 70 167 170 
28 131 23 3 66 163 24 69 169 171 
2 13 10 16
29 15 68 172 73 72 181 182 76 183 
30 68 67 173 172 71 184 185 181 186 
31 67 66 174 173 70 187 188 184 189 
32 66 3 31 174 69 33 190 187 191 
33 73 172 175 74 182 192 193 77 194 
34 172 173 176 175 185 195 196 192 197 
35 173 174 177 176 188 198 199 195 200 
36 174 31 6 177 190 32 201 198 202 
37 74 175 178 75 193 203 204 78 205 
38 175 176 179 178 196 206 207 203 208 
39 176 177 180 179 199 209 210 206 211 
40 177 6 87 180 201 88 212 209 213 
41 75 178 82 16 204 214 86 79 215 
42 178 179 81 82 207 216 85 214 217 
43 179 180 80 81 210 218 84 216 219 
44 180 87 17 80 212 89 83 218 220 
2 17 10 16
45 14 102 221 52 106 230 231 55 232 
46 52 221 222 53 231 233 234 56 235 
47 53 222 223 54 234 236 237 57 238 
48 54 223 90 13 237 239 92 58 240 
49 102 101 224 221 105 241 242 230 243 
50 221 224 225 222 242 244 245 233 246 
51 222 225 226 223 245 247 248 236 249 
52 223 226 8 90 248 250 91 239 251 
53 101 100 227 224 104 252 253 241 254 
54 224 227 228 225 253 255 256 244 257 
55 225 228 229 226 256 258 259 247 260 
56 226 229 34 8 259 261 36 250 262 
57 100 18 93 227 103 96 263 252 264 
58 227 93 94 228 263 97 265 255 266 
59 228 94 95 229 265 98 267 258 268 
60 229 95 7 34 267 99 35 261 269 
2 21 10 16
61 16 82 270 107 86 279 280 110 281 
62 82 81 271 270 85 282 283 279 284 
63 81 80 272 271 84 285 286 282 287 
64 80 17 114 272 83 115 288 285 289 
65 107 270 273 108 280 290 291 111 292 
66 270 271 274 273 283 293 294 290 295 
67 271 272 275 274 286 296 297 293 298 
68 272 114 9 275 288 116 299 296 300 
69 108 273 276 109 291 301 302 112 303 
70 273 274 277 276 294 304 305 301 306 
71 274 275 278 277 297 307 308 304 309 
72 275 9 37 278 299 38 310 307 311 
73 109 276 93 18 302 312 96 113 313 
74 276 277 94 93 305 314 97 312 315 
75 277 278 95 94 308 316 98 314 317 
76 278 37 7 95 310 39 99 316 318 
2 25 10 2
77 8 34 41 11 36 319 43 44 320 
78 34 7 10 41 35 40 42 319 321 
2 29 10 2
79 7 37 46 10 39 322 48 40 323 
80 37 9 12 46 38 45 47 322 324 
$EndElements
