$MeshFormat
4.1 0 8
$EndMeshFormat
$PhysicalNames
3
1 1 "bc-top"
1 2 "bc-bot"
2 3 "vol"
$EndPhysicalNames
$Entities
5 5 1 0
5 0.0055 0.006 0 0 
6 0 0 0 0 
7 0.01 0 0 0 
8 0 0.012 0 0 
9 0.01 0.012 0 0 
5 0.0044999 0.005499899999999999 -1e-07 0.0055001 0.006500100000000001 1e-07 0 2 5 -5 
6 -1.000000000002735e-07 -1e-07 -1e-07 0.0100001 1e-07 1e-07 1 2 2 6 -7 
7 -1e-07 -1.000000000002735e-07 -1e-07 1e-07 0.0120001 1e-07 0 2 8 -6 
8 0.009999900000000001 -1.000000000002735e-07 -1e-07 0.0100001 0.0120001 1e-07 0 2 7 -9 
9 -1.000000000002735e-07 0.0119999 -1e-07 0.0100001 0.0120001 1e-07 1 1 2 9 -8 
1 -1.000000000002735e-07 -1.000000000002735e-07 -1e-07 0.0100001 0.0120001 1e-07 1 3 5 6 8 9 7 -5 
$EndEntities
$Nodes
11 815 1 815
0 5 0 1
1
0.0055 0.006 0
0 6 0 1
2
0 0 0
0 7 0 1
3
0.01 0 0
0 8 0 1
4
0 0.012 0
0 9 0 1
5
0.01 0.012 0
1 5 0 13
6
7
8
9
10
11
12
13
14
15
16
17
18
0.005311744900929367 0.006390915741234015 0
0.004888739533021843 0.006487463956090912 0
0.004549515566048791 0.00621694186955878 0
0.00454951556604879 0.005783058130441223 0
0.004888739533021839 0.005512536043909089 0
0.005311744900929364 0.005609084258765984 0
0.005450484433951209 0.006216941869558779 0
0.005111260466978158 0.006487463956090912 0
0.004688255099070633 0.006390915741234016 0
0.004500000000000001 0.006000000000000002 0
0.004688255099070631 0.005609084258765987 0
0.005111260466978154 0.005512536043909087 0
0.005450484433951209 0.00578305813044122 0
1 6 0 17
19
20
21
22
23
24
25
26
27
28
29
30
31
32
33
34
35
0.001111111111111112 0 0
0.002222222222222224 0 0
0.003333333333333338 0 0
0.004444444444444452 0 0
0.005555555555555564 0 0
0.006666666666666671 0 0
0.007777777777777779 0 0
0.008888888888888887 0 0
0.0005555555555555561 0 0
0.001666666666666668 0 0
0.002777777777777781 0 0
0.003888888888888895 0 0
0.005000000000000008 0 0
0.006111111111111118 0 0
0.007222222222222224 0 0
0.008333333333333333 0 0
0.009444444444444443 0 0
1 7 0 19
36
37
38
39
40
41
42
43
44
45
46
47
48
49
50
51
52
53
54
0 0.0108 0
0 0.009600000000000001 0
0 0.008400000000000001 0
0 0.007200000000000002 0
0 0.006000000000000001 0
0 0.004800000000000001 0
0 0.003600000000000001 0
0 0.002400000000000001 0
0 0.0012 0
0 0.0114 0
0 0.0102 0
0 0.009000000000000001 0
0 0.007800000000000001 0
0 0.006600000000000002 0
0 0.005400000000000001 0
0 0.004200000000000001 0
0 0.003000000000000001 0
0 0.0018 0
0 0.0005999999999999998 0
1 8 0 19
55
56
57
58
59
60
61
62
63
64
65
66
67
68
69
70
71
72
73
0.01 0.001199999999999999 0
0.01 0.002399999999999999 0
0.01 0.003599999999999999 0
0.01 0.004799999999999999 0
0.01 0.005999999999999999 0
0.01 0.007199999999999999 0
0.01 0.008399999999999999 0
0.01 0.009599999999999999 0
0.01 0.0108 0
0.01 0.0005999999999999994 0
0.01 0.001799999999999999 0
0.01 0.002999999999999999 0
0.01 0.004199999999999999 0
0.01 0.005399999999999999 0
0.01 0.006599999999999999 0
0.01 0.007799999999999999 0
0.01 0.008999999999999999 0
0.01 0.0102 0
0.01 0.0114 0
1 9 0 17
74
75
76
77
78
79
80
81
82
83
84
85
86
87
88
89
90
0.008888888888888887 0.012 0
0.007777777777777776 0.012 0
0.006666666666666663 0.012 0
0.005555555555555548 0.012 0
0.004444444444444437 0.012 0
0.00333333333333333 0.012 0
0.002222222222222221 0.012 0
0.001111111111111113 0.012 0
0.009444444444444445 0.012 0
0.008333333333333331 0.012 0
0.007222222222222219 0.012 0
0.006111111111111105 0.012 0
0.004999999999999992 0.012 0
0.003888888888888883 0.012 0
0.002777777777777776 0.012 0
0.001666666666666667 0.012 0
0.0005555555555555574 0.012 0
2 1 0 725
91
92
93
94
95
96
97
98
99
100
101
102
103
104
105
106
107
108
109
110
111
112
113
114
115
116
117
118
119
120
121
122
123
124
125
126
127
128
129
130
131
132
133
134
135
136
137
138
139
140
141
142
143
144
145
146
147
148
149
150
151
152
153
154
155
156
157
158
159
160
161
162
163
164
165
166
167
168
169
170
171
172
173
174
175
176
177
178
179
180
181
182
183
184
185
186
187
188
189
190
191
192
193
194
195
196
197
198
199
200
201
202
203
204
205
206
207
208
209
210
211
212
213
214
215
216
217
218
219
220
221
222
223
224
225
226
227
228
229
230
231
232
233
234
235
236
237
238
239
240
241
242
243
244
245
246
247
248
249
250
251
252
253
254
255
256
257
258
259
260
261
262
263
264
265
266
267
268
269
270
271
272
273
274
275
276
277
278
279
280
281
282
283
284
285
286
287
288
289
290
291
292
293
294
295
296
297
298
299
300
301
302
303
304
305
306
307
308
309
310
311
312
313
314
315
316
317
318
319
320
321
322
323
324
325
326
327
328
329
330
331
332
333
334
335
336
337
338
339
340
341
342
343
344
345
346
347
348
349
350
351
352
353
354
355
356
357
358
359
360
361
362
363
364
365
366
367
368
369
370
371
372
373
374
375
376
377
378
379
380
381
382
383
384
385
386
387
388
389
390
391
392
393
394
395
396
397
398
399
400
401
402
403
404
405
406
407
408
409
410
411
412
413
414
415
416
417
418
419
420
421
422
423
424
425
426
427
428
429
430
431
432
433
434
435
436
437
438
439
440
441
442
443
444
445
446
447
448
449
450
451
452
453
454
455
456
457
458
459
460
461
462
463
464
465
466
467
468
469
470
471
472
473
474
475
476
477
478
479
480
481
482
483
484
485
486
487
488
489
490
491
492
493
494
495
496
497
498
499
500
501
502
503
504
505
506
507
508
509
510
511
512
513
514
515
516
517
518
519
520
521
522
523
524
525
526
527
528
529
530
531
532
533
534
535
536
537
538
539
540
541
542
543
544
545
546
547
548
549
550
551
552
553
554
555
556
557
558
559
560
561
562
563
564
565
566
567
568
569
570
571
572
573
574
575
576
577
578
579
580
581
582
583
584
585
586
587
588
589
590
591
592
593
594
595
596
597
598
599
600
601
602
603
604
605
606
607
608
609
610
611
612
613
614
615
616
617
618
619
620
621
622
623
624
625
626
627
628
629
630
631
632
633
634
635
636
637
638
639
640
641
642
643
644
645
646
647
648
649
650
651
652
653
654
655
656
657
658
659
660
661
662
663
664
665
666
667
668
669
670
671
672
673
674
675
676
677
678
679
680
681
682
683
684
685
686
687
688
689
690
691
692
693
694
695
696
697
698
699
700
701
702
703
704
705
706
707
708
709
710
711
712
713
714
715
716
717
718
719
720
721
722
723
724
725
726
727
728
729
730
731
732
733
734
735
736
737
738
739
740
741
742
743
744
745
746
747
748
749
750
751
752
753
754
755
756
757
758
759
760
761
762
763
764
765
766
767
768
769
770
771
772
773
774
775
776
777
778
779
780
781
782
783
784
785
786
787
788
789
790
791
792
793
794
795
796
797
798
799
800
801
802
803
804
805
806
807
808
809
810
811
812
813
814
815
0.004472008763651014 0.006656525613004277 0
0.004472871929704057 0.005343284861913474 0
0.004827010914249429 0.005044408746897166 0
0.004826867053240595 0.006955559665589127 0
0.004361980777773047 0.007132360371850206 0
0.004362717209127822 0.004867477930162958 0
0.004784399409587586 0.004520815389322724 0
0.004262934090490675 0.004330850577541136 0
0.00478425269419366 0.007479152396427189 0
0.004249796355106833 0.007684136041780745 0
0.005762875571663943 0.005636085307871152 0
0.005764325092639847 0.006362739702174223 0
0.004173761225684007 0.006000000000000003 0
0.003834580047549958 0.007273300311088537 0
0.003833736788222277 0.004716997141514201 0
0.004713889567280559 0.003943190995258956 0
0.005385184141378088 0.004226133040558967 0
0.004712797108986267 0.008065905512775685 0
0.005385146491705095 0.007775376371919072 0
0.004068742566700954 0.003791137506117225 0
0.004062458432735339 0.00827243699731809 0
0.007218129640166085 0.0009447608980402413 0
0.007125171242952665 0.0110978435391185 0
0.00523870447032684 0.003533318326634206 0
0.005908504621288338 0.003781281767139334 0
0.005238516118998974 0.008468449326784576 0
0.005908841654438122 0.008219014002282773 0
0.009075716259751305 0.005444897944599472 0
0.002788842721878564 0.01114978219342783 0
0.002777777777777781 0.0009622504486493776 0
0.009168568258559016 0.007755625491015843 0
0.005784588380628001 0.003081065752275397 0
0.005093182008392925 0.002799633372771092 0
0.006473115961845395 0.003327941208875824 0
0.00655468169712504 0.004072577669247505 0
0.005799314495443684 0.008925952271854555 0
0.005095604968974246 0.009201830906820366 0
0.0009859447718817893 0.006527322819846793 0
0.006499549941389481 0.008625068851543457 0
0.00652356128671013 0.007872919624945636 0
0.0009794091595810043 0.004241356172234256 0
0.0009041182976551486 0.008931631936001969 0
0.007211725924714509 0.003624735184266568 0
0.005696809030334531 0.002291551928051039 0
0.005707568614469818 0.009710699031875634 0
0.005568996146083731 0.005206561958288921 0
0.005569246316290111 0.006793408524416756 0
0.004931055311931126 0.001993301403400041 0
0.004931596702058593 0.01000430324776512 0
0.007229829357303355 0.004473564076910986 0
0.008002755229909448 0.004036123918821497 0
0.007917412661785094 0.003162382731597592 0
0.006080278361175967 0.006762934807208304 0
0.006257746441023499 0.006279203216260717 0
0.006676681128586632 0.006719093828758588 0
0.006848671034665471 0.005995656604929993 0
0.007382581692002245 0.006651658585734635 0
0.006065619784629197 0.005246191968181222 0
0.007330201231986015 0.008158673431384956 0
0.007230370619059965 0.00913602051409361 0
0.004313874344231193 0.002524913990155207 0
0.004314368402682674 0.009474930831637573 0
0.001039230484541326 0.0018 0
0.009070380511780735 0.01023703774913407 0
0.00904864343713333 0.00184415315732613 0
0.004129915093860019 0.01029902056999894 0
0.003457778434424332 0.009732562687767163 0
0.004128717345244952 0.001699337521646339 0
0.003498040321560725 0.002234092300511773 0
0.007667971950710677 0.005895999550931527 0
0.008175349417618249 0.006597791623085124 0
0.005594559440006815 0.001472748324369702 0
0.005596442935717295 0.01052722761081227 0
0.007948490881487282 0.008827201722964827 0
0.005793219753309959 0.004747630587753738 0
0.005788991007655868 0.007251123786564706 0
0.007832344535859185 0.007359685963304303 0
0.00650330444385867 0.001800358116256186 0
0.006399581148889528 0.01033757041656221 0
0.00097303828186513 0.005385938081761191 0
0.001887797770003263 0.00593983418732996 0
0.001916119499606944 0.006951357664362128 0
0.002683944131414153 0.006394739887800909 0
0.002673040932002902 0.005545130971580754 0
0.002721493340310987 0.007248293652225634 0
0.00208324023600555 0.007829158958820418 0
0.002903165230623502 0.008100870154508959 0
0.003347759909609456 0.005962754749814747 0
0.002207113383864142 0.008700891495099485 0
0.002006237124109422 0.004878846455605725 0
0.001923875044476419 0.003800124217836092 0
0.002705037651652035 0.004218474941122929 0
0.0027908571986915 0.003394310101893614 0
0.001959548014837919 0.002782968805651517 0
0.0009893230247017184 0.007713557743881098 0
0.008137851291221984 0.009761365652239309 0
0.003398463957794398 0.006730883637501206 0
0.001718933482345083 0.01109550124429661 0
0.002449557793998449 0.01017082300247606 0
0.008800848392238348 0.003484229550272927 0
0.001091263620174867 0.01017106110980672 0
0.005255075733316628 0.00483225467801615 0
0.005254357933062718 0.007167773733273578 0
0.003369470533251045 0.005228705342656054 0
0.00829606195852416 0.0009407318103702269 0
0.007815989651514421 0.001988571601268584 0
0.007062796336910266 0.002572971283017666 0
0.0009720041687587685 0.00311643939454106 0
0.002132444907707494 0.001805234366921263 0
0.003635110599934114 0.003108801425963959 0
0.003795028239938108 0.008952860530576706 0
0.008042100301793913 0.005070829243648501 0
0.008232071406504289 0.01096195900899833 0
0.00893766871185875 0.008945322498568069 0
0.007135467114791355 0.005255416054251467 0
0.001678798618267409 0.0008974279709113037 0
0.007022700164428873 0.00732721303907391 0
0.006157096640605739 0.0008243789619258486 0
0.006124630274527061 0.01120570585560067 0
0.00338269690353618 0.003860356515258577 0
0.004736425819676469 0.001112582907941548 0
0.003831516613674252 0.0008494327682293497 0
0.004738054765937202 0.0108855233845428 0
0.003877362515501917 0.01118569033953893 0
0.006483152135128793 0.009490440165367719 0
0.004007866507743917 0.006749164057746651 0
0.003988631558774868 0.005221065025455508 0
0.006235376175662277 0.005745569146446969 0
0.006486928596795633 0.004769969020631158 0
0.004536462212052601 0.0087394023509855 0
0.004510583926144431 0.003283499269483441 0
0.008986903363948834 0.0044060134428904 0
0.003695428123325389 0.007872642133628838 0
0.002860293008613042 0.009068491236499068 0
0.009093571208318076 0.006585529969870166 0
0.006355097884759458 0.007275943964548284 0
0.008632281078023631 0.002676296529526683 0
0.003777624744535999 0.006317878281186877 0
0.003796704022781779 0.005675468415283137 0
0.006331776873784046 0.002628608493067592 0
0.007265336656030104 0.01016831798950122 0
0.003367046564664719 0.001484975338063065 0
0.003340691311932657 0.01050757575864178 0
0.002765088297094362 0.00261826958951732 0
0.005170313445520198 0.005240969137175462 0
0.005170191147308927 0.006759024324120877 0
0.005904064656197913 0.006004719474550613 0
0.0041962968605987 0.005604575286618669 0
0.004196155361532746 0.006388101964299318 0
0.002811253018442363 0.004882503083982812 0
0.001518437683142593 0.008388379399602753 0
0.001804786707357221 0.009328692948742258 0
0.006572935983668289 0.005360299606668033 0
0.009182728595732079 0.0008423294895484835 0
0.009182728595732076 0.01115767051045151 0
0.0007965295361363712 0.01117687594390666 0
0.0007658280427839687 0.0007794855941822606 0
0.008410941827638446 0.005919009666426958 0
0.009331304937424564 0.002859548899586668 0
0.008279480347237985 0.00803920998172235 0
0.003310626139920847 0.007445197977790636 0
0.003312594380663947 0.004520751419845652 0
0.003772140945922806 0.004244018632055358 0
0.003451728716095245 0.008426705075449844 0
0.005365461868035581 0.0007114733446814004 0
0.005363351523712898 0.01129057964695073 0
0.008545636059213971 0.007214918552730554 0
0.002870337133666369 0.00190946072901628 0
0.006021594130062857 0.007706524782849907 0
0.006037451234284424 0.004278125006634456 0
0.007517059645840253 0.001466666249654413 0
0.007159647047686546 0.001894464858762385 0
0.006860717042012378 0.001372559507148214 0
0.007439392994212344 0.002280771442143125 0
0.006783050390384468 0.002186664699636926 0
0.001465776091798344 0.002949704100096288 0
0.001005617326650047 0.00245821969727053 0
0.001499389249689623 0.002291484402825759 0
0.001947017447056342 0.005409340321467842 0
0.002339639028056162 0.005211988713593239 0
0.002280419351003082 0.005742482579455357 0
0.002654925401305745 0.009619657119487562 0
0.003159035721518687 0.009400526962133116 0
0.002953668114211391 0.00995169284512161 0
0.007748704031267197 0.01056513849924977 0
0.007701593973626044 0.009964841820870264 0
0.008184961348863137 0.01036166233061882 0
0.003399234873178494 0.01012006922320447 0
0.002895124552965553 0.01033919938055892 0
0.00158583769612441 0.001802617183460632 0
0.002045996461272707 0.00229410158628639 0
0.00749010449934768 0.002867677007307629 0
0.007866701156649758 0.002575477166433088 0
0.001489637702987276 0.005132392268683458 0
0.001430418025934197 0.005662886134545575 0
0.001436871270942526 0.006233578503588377 0
0.0009794915268734597 0.005956630450803991 0
0.004072847263039272 0.0031961503477237 0
0.004289663246422692 0.003537318387800333 0
0.003851926583317533 0.003449969466040592 0
0.004299460322393971 0.008505919674151794 0
0.004165745225995355 0.008846131440781103 0
0.003928743336336724 0.008612648763947399 0
0.009493451681974418 0.004603006721445199 0
0.009493451681974418 0.0040030067214452 0
0.00889387587809359 0.003945121496581663 0
0.009400424196119174 0.003542114775136463 0
0.00676795614937783 0.002950456245946745 0
0.007137261130812388 0.003098853233642117 0
0.006842420943279952 0.003476338196571196 0
0.008651225959142512 0.0105994983790662 0
0.008604115901501359 0.009999201700686688 0
0.008224135364769026 0.002332434065397633 0
0.008274846869904363 0.002919339630562138 0
0.001536281630353634 0.007771358351350758 0
0.001452721262154331 0.007332457704121613 0
0.001999679867806247 0.007390258311591273 0
0.004412229135187812 0.002904206629819324 0
0.003974492472082654 0.002816857708059583 0
0.004425415307367638 0.009107166591311536 0
0.00405469832131039 0.009213895681107139 0
0.007247853637545034 0.009652169251797415 0
0.006874244395579448 0.009829379077434469 0
0.006856761377094379 0.009313230339730664 0
0.007564569293249801 0.003393558957932081 0
0.0009876338982917543 0.007120440281863946 0
0.001451032135744367 0.006739340242104461 0
0.007401719532751016 0.005575707802591497 0
0.007588783708292634 0.005163122648949984 0
0.007855036126252294 0.005483414397290014 0
0.007195253949491384 0.01063308076430986 0
0.007678621324728477 0.01102990127405842 0
0.006832458902459816 0.01025294420303172 0
0.00644136664200916 0.009914005290964967 0
0.002408745071275893 0.004880674769794268 0
0.002742146975222633 0.005213817027781783 0
0.008608574529548368 0.008492266240145209 0
0.0087240243028985 0.007897417736369096 0
0.009053118485208882 0.008350473994791956 0
0.002285870950708708 0.006167287037565435 0
0.002300031815510549 0.006673048776081518 0
0.001901958634805103 0.006445595925846044 0
0.007176450698207444 0.007742943235229433 0
0.007427522350144029 0.007343449501189106 0
0.0075812728839226 0.00775917969734463 0
0.0004865191409325646 0.005692969040880596 0
0.0004929723859408942 0.006263661409923398 0
0.006854201549229822 0.00530785783045975 0
0.006529932290231961 0.005065134313649596 0
0.006811197855793494 0.005012692537441313 0
0.0005456318100874333 0.009885530554903363 0
0.0005456318100874333 0.01048553055490336 0
0.008113985614362633 0.008433205852343587 0
0.008443079796673015 0.008886262110766447 0
0.003010400420806179 0.005753942860697751 0
0.003015852020511804 0.006178747318807827 0
0.002678492531708527 0.005969935429690832 0
0.009468834355929375 0.008672661249284034 0
0.009584284129279509 0.008077812745507921 0
0.0004946615123508592 0.00805677887194055 0
0.0009467206611784339 0.008322594839941534 0
0.0004520591488275738 0.008665815968000985 0
0.001492823141845213 0.00456010131391999 0
0.0009762237207230672 0.004813647126997723 0
0.006858378977049493 0.004621766548771072 0
0.007182648236047355 0.004864490065581227 0
0.0004860020843793838 0.00275821969727053 0
0.0005196152422706629 0.002100000000000001 0
0.005524147743313293 0.004789942632884943 0
0.005320129937347358 0.004529193859287558 0
0.005589201947344024 0.004486881814156352 0
0.001253880353922156 0.008050968571741925 0
0.001211277990398871 0.00866000566780236 0
0.003041204044604276 0.006562811762651058 0
0.003059978649052692 0.00698958864486342 0
0.00270271873586257 0.006821516770013272 0
0.005319752212383906 0.007471575052596324 0
0.005521674470359292 0.007209448759919142 0
0.005587068749680481 0.007513250079241888 0
0.008537760001540367 0.00935334407540369 0
0.009004024611819744 0.009591180123851068 0
0.002314456348064227 0.00400929957947951 0
0.002355637387880728 0.004548660698364327 0
0.00196505608429292 0.004339485336720909 0
0.002127172250677835 0.009749757975609157 0
0.002332539857985132 0.009198592092620663 0
0.008043171086354632 0.009294283687602068 0
0.00306476701690561 0.01082867897603481 0
0.002619200257938507 0.01066030259795194 0
0.006404156079665283 0.005552934376557501 0
0.00671080350916688 0.005677978105799014 0
0.006542023605163874 0.005870612875688482 0
0.005711317687831256 0.004252129023596712 0
0.005915335493797191 0.004512877797194097 0
0.005905292568859362 0.007478824284707307 0
0.005703370310883976 0.007740950577384489 0
0.002318806419958965 0.007099825658293882 0
0.007635964829548633 0.004772196660279743 0
0.009031309811850071 0.004925455693744936 0
0.009537858129875652 0.005122448972299735 0
0.001447939606617594 0.003458281806188576 0
0.001941711529657169 0.003291546511743805 0
0.003725719735118566 0.003825747010687901 0
0.003508903751735147 0.003484578970611268 0
0.0009757066641698864 0.003678897783387658 0
0.001451642102028712 0.004020740195035174 0
0.000997690958915008 0.009551346522904347 0
0.0004520591488275738 0.009265815968000985 0
0.0004865191409325646 0.005092969040880596 0
0.0004897045797905017 0.004520678086117128 0
0.003373111933701927 0.006346819193657977 0
0.008055912441548584 0.007699447972513327 0
0.007804840789612 0.008098941706553653 0
0.009537858129875652 0.005722448972299736 0
0.00884046225757848 0.002260224843426406 0
0.008432316544323876 0.001916362379297357 0
0.005050703144825051 0.01108805151574676 0
0.004903897984078667 0.01164528982347536 0
0.00459124960519082 0.0114427616922714 0
0.004904953156240017 0.0003557366723407002 0
0.005050943843856025 0.0009120281263114748 0
0.00459043513206046 0.0005562914539707737 0
0.002084245638171766 0.01063316212338633 0
0.002253888102111823 0.01112264171886222 0
0.003177446973359374 0.008263787614979402 0
0.003156010862354143 0.008747598155974456 0
0.002881729119618272 0.008584680695504015 0
0.008752256517978261 0.006252269818148561 0
0.008743329043694875 0.005681953805513215 0
0.009084643734034691 0.006015213957234819 0
0.001970577852283652 0.01154775062214831 0
0.002505532472050392 0.01157489109671391 0
0.0004929723859408942 0.006863661409923397 0
0.0004897045797905017 0.003920678086117129 0
0.009546785604159037 0.006292764984935082 0
0.003333102618690241 0.01116773626648338 0
0.003605347924417623 0.01159284516976947 0
0.003061088027605947 0.01157489109671391 0
0.00805602580501929 0.001464651705819405 0
0.008672352697828744 0.001392442483848178 0
0.003582424973503795 0.0004247163841146753 0
0.003304647195726016 0.0009058416084393632 0
0.00305555555555556 0.0004811252243246888 0
0.001905621762987452 0.001351331168916284 0
0.002228288198022595 0.0009298392097803407 0
0.002455111342742637 0.001383742407785321 0
0.00235736612158396 0.003597217159864853 0
0.002747947425171767 0.003806392521508272 0
0.0004946615123508592 0.00745677887194055 0
0.002500000000000003 0.0004811252243246888 0
0.006773130725569502 0.007600066332009773 0
0.006926881259348073 0.008015796528165295 0
0.009584284129279509 0.007477812745507921 0
0.003354545048857622 0.007088040807645921 0
0.003016059740115917 0.007346745815008135 0
0.007497953708971932 0.0004723804490201202 0
0.006942398153416377 0.0004723804490201202 0
0.006895918954809664 0.01154892176955925 0
0.00745147451036522 0.01154892176955925 0
0.003572603093735402 0.007359249144439586 0
0.003616522002672178 0.007002091974294872 0
0.0009438965781556194 0.01067396852685669 0
0.0003982647680681852 0.01098843797195333 0
0.006330200542232205 0.001312368539091017 0
0.006687613140385912 0.0008845699299830445 0
0.003021255732626973 0.005386918157118404 0
0.003358615221430251 0.0055957300462354 0
0.009524321718566665 0.002122076578663064 0
0.009524321718566665 0.001522076578663064 0
0.006624900758739862 0.01115177469735959 0
0.006262105711708294 0.01077163813608144 0
0.006762376195921096 0.01071770697784036 0
0.008226521064716177 0.00549491945503773 0
0.008039456889174561 0.005907504608679242 0
0.00308677705111384 0.003627333308576096 0
0.003212983899312807 0.003251555763928786 0
0.009131069733438546 0.007170577730443004 0
0.009546785604159037 0.006892764984935082 0
0.002777972747892931 0.003006289845705467 0
0.003200099448514238 0.002863535507740639 0
0.001950510420244816 0.0004487139854556519 0
0.003341032456957496 0.004874728381250853 0
0.003573165584443112 0.004618874280679927 0
0.003601603660736661 0.004972851242085127 0
0.0005196152422706629 0.0015 0
0.007757095799345122 0.0009427463542052341 0
0.006520805146960336 0.004421273344939331 0
0.006892255527214197 0.004273070873079246 0
0.009535190255890367 0.01051851887456703 0
0.009535190255890367 0.009918518874567035 0
0.009189974187278946 0.002351851028456399 0
0.008981793007724097 0.002767922714556675 0
0.004816033590513424 0.008970616628902934 0
0.00470498668582846 0.00933838086922897 0
0.004801882967268678 0.003041566321127267 0
0.004703528176312059 0.00266227368146315 0
0.00428397121667536 0.000981007838085449 0
0.004137980529059352 0.0004247163841146753 0
0.004160903479973176 0.01159284516976947 0
0.004307708640719559 0.01103560686204087 0
0.00803691986815097 0.0004703659051851139 0
0.001415022296728098 0.01154775062214831 0
0.005840092915041305 0.01160285292780034 0
0.006395648470596862 0.01160285292780034 0
0.006411881653636205 0.0004121894809629243 0
0.005856326098080651 0.0004121894809629243 0
0.0004860020843793838 0.00335821969727053 0
0.008004924592141032 0.01148097950449916 0
0.002812329285467244 0.007674581903367297 0
0.002493202733314526 0.007965014556664689 0
0.002402366788158268 0.007538726305523026 0
0.003609026913717287 0.01084663304909036 0
0.008857102158886493 0.007485272021873199 0
0.008819603633766025 0.00690022426130036 0
0.002005950045610681 0.009014792221920871 0
0.002533703196238592 0.008884691365799276 0
0.003787164383658889 0.005996673348235007 0
0.003985232624232893 0.00583773420764157 0
0.003975692985110003 0.006158939140593439 0
0.003599281589169485 0.001167204053146207 0
0.00307241217122125 0.001223612893356221 0
0.002555139307243822 0.008400880824804221 0
0.002758145335047199 0.00455048901255287 0
0.006992069074728413 0.00562553632959073 0
0.009665652468712281 0.002629774449793333 0
0.009468834355929375 0.009272661249284034 0
0.001359014551404367 0.001348713985455652 0
0.002448766602400928 0.002211751978219292 0
0.002362318155966141 0.002700619197584418 0
0.008592475423706523 0.0004703659051851139 0
0.006402446417814719 0.002978274850971708 0
0.006697286605347155 0.002600789888042629 0
0.00462246482808116 0.002259107696777624 0
0.005012118660162026 0.002396467388085567 0
0.004622982552370634 0.009739617039701345 0
0.00501360083551642 0.009603067077292745 0
0.007684110955140974 0.009448693083166459 0
0.008560480147696588 0.01148097950449916 0
0.003131564309327543 0.002426180945014547 0
0.00356657546074742 0.002671446863237866 0
0.006216201470574126 0.008045966813614205 0
0.006511555614049805 0.008248994238244546 0
0.006204195797913802 0.008422041426913116 0
0.001405098551259975 0.01063328117705167 0
0.001770410707086658 0.01017094205614139 0
0.006513898829485217 0.003700259439061665 0
0.006231593159206688 0.003926929718193419 0
0.006190810291566866 0.003554611488007579 0
0.003043867277594107 0.004039415728190753 0
0.005459453539634223 0.01164528982347536 0
0.005460508711795572 0.0003557366723407002 0
0.003623378478016676 0.008689782803013274 0
0.003327660624275575 0.009010675883537888 0
0.007258321492688074 0.00594582807793076 0
0.003905957332895959 0.00237950314533349 0
0.006246561308342888 0.006012386181353843 0
0.006553208737844485 0.006137429910595356 0
0.00362640333718122 0.009342711609171935 0
0.003886073418553503 0.009603746759702367 0
0.003813378833402839 0.001966714911079056 0
0.004221295844738073 0.002112125755900773 0
0.003793846764142176 0.01001579162888305 0
0.004222141748271346 0.009886975700818257 0
0.003911184173498573 0.004969031083484855 0
0.003679051046012956 0.005224885184055781 0
0.003061923699553155 0.004701627251914232 0
0.003090361775846704 0.005055604213319432 0
0.007220777641008932 0.004049149630588778 0
0.006883203810919774 0.003848656426757037 0
0.003703165232769157 0.006740023847623929 0
0.003921223277646937 0.007011232184417594 0
0.006417540658821358 0.002214483304661889 0
0.008293145622628346 0.006258400644756041 0
0.008634460312968164 0.006591660796477645 0
0.006048931941932742 0.001636553220312945 0
0.006100056737096601 0.002045955022153613 0
0.005645684235170673 0.00188215012621037 0
0.00237520260676471 0.003088639453772565 0
0.006053574881679673 0.01002413472421892 0
0.005998012042303411 0.01043239901368724 0
0.005652005775093557 0.01011896332134395 0
0.003562692327072728 0.006140316515500812 0
0.003588044351165199 0.006524380959344041 0
0.004529886328588039 0.00184631946252319 0
0.004530755897959307 0.01015166190888203 0
0.002145176809934846 0.008265025226959951 0
0.008022427765851679 0.004553476581234999 0
0.007616292293606401 0.004254843997866241 0
0.003106895685272174 0.007773034066149797 0
0.003503027131623117 0.007658920055709737 0
0.003299296676974445 0.007986756144068899 0
0.003583087278016412 0.005452086878969595 0
0.003572231966195617 0.005819111582548942 0
0.001394954864689261 0.0004487139854556519 0
0.009591364297866039 0.001021164744774241 0
0.009591364297866039 0.0004211647447742413 0
0.00574399089911998 0.0112481427512757 0
0.00576127925432066 0.0007679261533036245 0
0.009591364297866039 0.01157883525522576 0
0.009591364297866039 0.01097883525522576 0
0.007639346056736648 0.00849293757717489 0
0.001661612195249907 0.008858536174172506 0
0.001862775533503367 0.008544635447351118 0
0.009035808742310483 0.0004211647447742413 0
0.002824057455722075 0.001435855588832829 0
0.002501391020686932 0.001857347547968772 0
0.009035808742310483 0.01157883525522576 0
0.005019737571452107 0.004676535033669436 0
0.005041043323783028 0.004938331712456658 0
0.004805705161918508 0.004782612068109945 0
0.005040612493151657 0.007061666699431353 0
0.005019305313628188 0.007323463064850383 0
0.004805559873717127 0.007217356031008158 0
0.001800838959574072 0.008108769179211585 0
0.005165943239359883 0.003166475849702649 0
0.005438885194510462 0.002940349562523244 0
0.005511646425477421 0.003307192039454801 0
0.005447459732208964 0.009063891589337462 0
0.00516706054398661 0.008835140116802472 0
0.005518915307221329 0.008697200799319566 0
0.008514501832871373 0.004738421343269451 0
0.008558908280772609 0.005257863594123987 0
0.005537310236296653 0.005622584783318568 0
0.005631437785831971 0.005818042653935576 0
0.005632162546319923 0.006181369851087111 0
0.005538034996784607 0.006376827721704119 0
0.0003982647680681852 0.01158843797195333 0
0.004361638395866399 0.006108470934779391 0
0.004361638395866398 0.005891529065220613 0
0.004511193747876424 0.005563171496177349 0
0.004680805731362948 0.005427910452911282 0
0.004680374148336429 0.006571994784547595 0
0.004510762164849903 0.006436733741281528 0
0.005084699592949377 0.00762726438417313 0
0.005048971800345681 0.007920640942347379 0
0.004748524901589963 0.007772528954601437 0
0.005049536854329324 0.004084662017908962 0
0.005084791775482837 0.004373474214940845 0
0.004749144488434072 0.00423200319229084 0
0.0003829140213919844 0.0003897427970911303 0
0.0003829140213919844 0.0009897427970911301 0
0.007589430750273623 0.008981611118529218 0
0.00596521789225049 0.00796276939256634 0
0.005646994073071608 0.007997195187100922 0
0.006914875586687748 0.008391871141464207 0
0.005972977927786381 0.004029703386886895 0
0.005646844381333213 0.004003707403849151 0
0.008003846976738716 0.006978738793194713 0
0.007607463113930715 0.007005672274519469 0
0.007778965554810247 0.006624725104409879 0
0.0009538203236237426 0.01158843797195333 0
0.007960083945847272 0.003599253325209545 0
0.007607240577311978 0.003830429551544032 0
0.005313932171132829 0.00214242666572554 0
0.005394995519363729 0.002545592650411065 0
0.005319582658264206 0.009857501139820377 0
0.005401586791722032 0.009456264969348 0
0.005412035939700179 0.005019408318152535 0
0.005681107949696845 0.00497709627302133 0
0.005411802124676414 0.006980591128845167 0
0.005679118661972989 0.007022266155490731 0
0.00093846957694754 0.0003897427970911303 0
0.005846546500958169 0.003431173759707366 0
0.005573604545807589 0.00365730004688677 0
0.005854078074940903 0.008572483137068664 0
0.005573678886718548 0.008343731664533675 0
0.004857803293131219 0.00672151181084002 0
0.004649437908445805 0.006806042639296702 0
0.004649941421976743 0.00519384680440532 0
0.004857875223635634 0.005278472395403128 0
0.005264019818887944 0.01026576542928869 0
0.00526280737596897 0.001733024863884872 0
0.005311831305352035 0.008121912849351823 0
0.005311944305852465 0.003879725683596586 0
0.003892667790778323 0.005448266720369323 0
0.006128852171236697 0.003204503480575611 0
0.005753441554956751 0.009318325651865095 0
0.005740698705481266 0.002686308840163218 0
0.00448129673204655 0.007875020777278214 0
0.004517024524650247 0.007581644219103967 0
0.004488411828885617 0.004137020786400046 0
0.004523666750039131 0.00442583298343193 0
0.007280285925522991 0.008647346972739282 0
0.006864960280224723 0.008880544682818533 0
0.003980116979459603 0.001274385144937844 0
0.00443257158246071 0.001405960214793943 0
0.008359130527011722 0.00332330614093526 0
0.008401801811073898 0.003760176734547212 0
0.006149432218416582 0.008775510561699007 0
0.0049762970188037 0.003738254660946581 0
0.004975656613992621 0.00826717741978013 0
0.00409822699867505 0.00479223753583858 0
0.004048335439356477 0.004523923859527669 0
0.004312825649809248 0.004599164253852047 0
0.004042188201328395 0.007478718176434641 0
0.004098280412661502 0.007202830341469371 0
0.00430588856643994 0.007408248206815475 0
0.006014292952059288 0.002460080210559316 0
0.006095360374799305 0.009600569598621676 0
0.006272577708386493 0.007789722203897771 0
0.005875828040306277 0.001148563643147776 0
0.004165838328595814 0.004060994041829181 0
0.004391316066990756 0.00386716425068809 0
0.004387627770860803 0.008169171255046888 0
0.004156127393921087 0.007978286519549418 0
0.004573116735983354 0.007305756384138697 0
0.004594423915506821 0.007043960018719667 0
0.004573558309357704 0.004694146659742842 0
0.004594864061688625 0.004955943338530062 0
0.005860536605122178 0.01086646673320647 0
0.003757093574415292 0.008349571036383967 0
0.007202640928215559 0.006989435812404272 0
0.004003638804680968 0.01074235545476894 0
0.004433984929898611 0.01059227197727087 0
0.002817712715380365 0.002263865159266801 0
0.001257731509240727 0.01113618859410163 0
0.006296066465704731 0.00417535133794098 0
0.004184923642758482 0.006940762214798429 0
0.004239937635697465 0.006702844835375464 0
0.004416994770712031 0.006894442992427242 0
0.007525276821356461 0.00627382906833308 0
0.007115626363333858 0.006323657595332315 0
0.009066076664831455 0.003171889224929797 0
0.009665652468712281 0.003229774449793333 0
0.004230751744239463 0.005282174943684491 0
0.004175674383951345 0.005044271477809233 0
0.00441779456941594 0.005105381396038216 0
0.007921660684164463 0.006246895587008325 0
0.004834825733997898 0.01044491331615396 0
0.004833740565803797 0.001552942155670795 0
0.009115686016432704 0.001343241323437307 0
0.006849690646507752 0.007023153433916249 0
0.007029631410294439 0.006685376207246611 0
0.004874644198235635 0.003408408798058824 0
0.004887489165525788 0.008603925838885038 0
0.005212694589418413 0.005036611907595806 0
0.004998662179884814 0.005142688942036314 0
0.004998529100274761 0.006857291994855003 0
0.005212274540185823 0.006963399028697227 0
0.0009025292636626473 0.00128974279709113 0
0.001222313330525688 0.0008384567825467822 0
0.003573578419710316 0.00814967360453934 0
0.005666785704464979 0.006578074113295489 0
0.005440495608609739 0.006592162132825385 0
0.005440370523506548 0.005407823108527453 0
0.005665935858873836 0.005421323633080037 0
0.001354452502506185 0.009130162442372114 0
0.006011035766831673 0.00632097145921747 0
0.006169012401099733 0.006521069011734511 0
0.005922301726907907 0.006562837254691264 0
0.00849482929692914 0.004221068680855949 0
0.005167248850827248 0.01070637549767753 0
0.005165492629841641 0.001292665616155626 0
0.005369654795801964 0.005223765547732192 0
0.005369718731799519 0.006776216424268816 0
0.009126554553756407 0.01069735412979279 0
0.00392044175631188 0.004017578069086291 0
0.003577418924729493 0.004052187573656968 0
0.005929419768969578 0.00499691127796748 0
0.005817307965356464 0.005226376963235072 0
0.006491351038259137 0.009057754508455588 0
0.001448025163766044 0.009749877029274491 0
0.005934634684415917 0.007007029296886505 0
0.005824762338733039 0.00677817166581253 0
0.006141233315286238 0.009208196218611138 0
0.003747881954954835 0.001592156429854702 0
0.006140074175052796 0.004758799804192448 0
0.006276274190712415 0.005008080494406189 0
0.006762676081626052 0.006357375216844291 0
0.006150497980145737 0.005495880557314096 0
0.00599912587366311 0.005690827227159061 0
0.005914247678146569 0.005441138638026187 0
0.006467213784805066 0.006499148522509652 0
0.003735303202896338 0.01040329816432036 0
0.004612236746712495 0.003613345132371199 0
0.004624629660519434 0.008402653931880591 0
0.006058182627206023 0.002854837122671494 0
0.006439329585734795 0.00757443179474696 0
0.006688899024594165 0.007301578501811097 0
0.003878943278030364 0.008072539565473463 0
0.003972612239216111 0.007778389087704791 0
0.00873939527712812 0.0008915306499593552 0
0.0063784797448813 0.006741014317983446 0
0.006515889506673045 0.006997518896653436 0
0.008716564735130989 0.003080263039899805 0
0.003765004085437673 0.007572971222358687 0
0.005240968024119147 0.006574970032677446 0
0.005029465340165385 0.006623244140105894 0
0.005029526489271019 0.005376752590542276 0
0.005241029173224781 0.005425026697970723 0
0.008707400001118182 0.01105981475972492 0
0.003432543443112722 0.001859533819287418 0
0.003118691849165544 0.001697218033539672 0
0.00836049273841611 0.006906355087907838 0
0.004017537518206741 0.004287434604798248 0
0.004102010934638331 0.006568633011022985 0
0.00433408206259188 0.006522313788651798 0
0.005480010654021198 0.001092110834525551 0
0.005479897229715097 0.0109089036288815 0
0.004334584395151379 0.005473930074266072 0
0.004092464209686784 0.005412820156037088 0
0.006217688122967713 0.007019439385878294 0
0.006072044446207663 0.007263533875556494 0
0.006262189915540029 0.004524047013632806 0
0.00583419487441888 0.006183729588362418 0
0.006080905548610707 0.006141961345405665 0
0.006319277884148744 0.005303245787424627 0
0.006069720415930095 0.00587514431049879 0
0.005833470113930928 0.005820402391210882 0
0.003892745626139958 0.006533521169466764 0
0.003347645642100063 0.004190553967552114 0
0.003008816016157991 0.00436961318048429 0
0.004184958293608376 0.00619405098214966 0
0.003986890053034372 0.006352990122743097 0
0.006188346007411158 0.007491234373699095 0
0.004372835463790768 0.006302521916929048 0
0.004185029043141353 0.005802287643309336 0
0.004372906213323745 0.005693816708529947 0
0.005702032328098956 0.006002359737275306 0
0.00399650044169024 0.005640021850950903 0
0.008188990297536579 0.007287302258017428 0
0.008412558203225978 0.007627064267226452 0
0.003802938867072542 0.004480507886784779 0
0.003184188727613547 0.002071776514764027 0
0.003542367663293377 0.004382385025950505 0
$EndNodes
$Elements
3 403 1 403
1 6 8 9
1 2 19 27 
2 19 20 28 
3 20 21 29 
4 21 22 30 
5 22 23 31 
6 23 24 32 
7 24 25 33 
8 25 26 34 
9 26 3 35 
1 9 8 9
10 5 74 82 
11 74 75 83 
12 75 76 84 
13 76 77 85 
14 77 78 86 
15 78 79 87 
16 79 80 88 
17 80 81 89 
18 81 4 90 
2 1 9 385
19 112 196 168 261 262 263 
20 196 197 168 264 265 262 
21 184 198 153 266 267 268 
22 171 180 174 269 270 271 
23 189 224 157 272 273 274 
24 203 231 186 275 276 277 
25 157 233 189 278 279 274 
26 153 199 184 280 281 268 
27 142 197 196 282 264 283 
28 170 180 171 284 269 285 
29 170 171 128 285 286 287 
30 200 221 110 288 289 290 
31 111 220 201 291 292 293 
32 58 222 57 294 295 67 
33 57 222 190 295 296 297 
34 124 197 133 298 299 300 
35 154 203 186 301 277 302 
36 196 227 142 303 304 283 
37 176 185 172 305 306 307 
38 151 221 200 308 288 309 
39 201 220 152 292 310 311 
40 150 231 215 312 313 314 
41 133 197 142 299 282 315 
42 172 185 128 306 316 317 
43 160 205 202 318 319 320 
44 113 231 203 321 275 322 
45 215 231 169 313 323 324 
46 180 240 174 325 326 270 
47 204 250 121 327 328 329 
48 171 173 172 330 331 332 
49 149 207 167 333 334 335 
50 40 170 128 336 287 337 
51 205 243 219 338 339 340 
52 37 191 36 341 342 46 
53 164 250 204 343 327 344 
54 174 178 173 345 346 347 
55 61 204 121 348 329 349 
56 38 185 132 350 351 352 
57 171 172 128 332 317 286 
58 131 180 170 353 284 354 
59 205 219 140 340 355 356 
60 153 198 43 267 357 358 
61 165 192 107 359 360 361 
62 185 241 132 362 363 351 
63 173 187 175 364 365 366 
64 109 193 166 367 368 369 
65 186 204 154 370 371 302 
66 171 174 173 271 347 330 
67 181 182 180 372 373 374 
68 189 242 224 375 376 272 
69 164 204 186 344 370 377 
70 189 233 119 279 378 379 
71 218 243 146 380 381 382 
72 107 260 165 383 384 361 
73 166 259 109 385 386 369 
74 173 175 172 366 387 331 
75 202 205 140 319 356 388 
76 118 222 58 389 294 390 
77 181 198 184 391 266 392 
78 110 210 200 393 394 290 
79 131 198 181 395 391 396 
80 132 191 37 397 341 398 
81 131 170 41 354 399 400 
82 178 187 173 401 364 346 
83 131 181 180 396 374 353 
84 167 250 149 402 403 335 
85 59 118 58 404 390 68 
86 155 227 196 405 303 406 
87 213 256 78 407 408 409 
88 22 255 211 410 411 412 
89 188 189 119 413 379 414 
90 177 254 224 415 416 417 
91 225 248 118 418 419 420 
92 80 188 119 421 414 422 
93 40 128 39 337 423 49 
94 42 131 41 424 400 51 
95 59 225 118 425 420 404 
96 119 214 79 426 427 428 
97 155 196 195 406 429 430 
98 21 212 120 431 432 433 
99 199 206 120 434 435 436 
100 181 183 182 437 438 372 
101 128 185 39 316 439 423 
102 21 120 20 433 440 29 
103 80 119 79 422 428 88 
104 130 207 149 441 333 442 
105 61 121 60 349 443 70 
106 187 251 175 444 445 365 
107 25 112 24 446 447 33 
108 76 113 75 448 449 84 
109 104 251 187 450 444 451 
110 191 246 36 452 453 342 
111 168 208 112 454 455 263 
112 174 194 178 456 457 345 
113 56 155 55 458 459 65 
114 113 209 169 460 461 462 
115 38 132 37 352 398 47 
116 41 170 40 399 336 50 
117 202 248 160 463 464 320 
118 200 210 183 394 465 466 
119 121 225 60 467 468 443 
120 183 234 200 469 470 466 
121 120 206 20 435 471 440 
122 194 252 105 472 473 474 
123 44 153 43 475 358 53 
124 195 196 112 429 261 476 
125 140 219 125 355 477 478 
126 63 154 62 479 480 72 
127 155 249 227 481 482 405 
128 152 220 127 310 483 484 
129 123 221 151 485 308 486 
130 169 231 113 323 321 462 
131 39 185 38 439 350 48 
132 211 212 22 487 488 412 
133 78 214 213 489 490 409 
134 25 195 112 491 476 446 
135 81 188 80 492 421 89 
136 77 209 76 493 494 85 
137 24 208 23 495 496 32 
138 42 198 131 497 395 424 
139 113 203 75 322 498 449 
140 175 177 176 499 500 501 
141 119 233 214 378 502 426 
142 121 257 225 503 504 467 
143 224 242 179 376 505 506 
144 228 229 103 507 508 509 
145 212 232 120 510 511 432 
146 177 224 179 417 506 512 
147 182 240 180 513 325 373 
148 146 243 205 381 338 514 
149 56 249 155 515 481 458 
150 62 204 61 516 348 71 
151 43 198 42 357 497 52 
152 153 206 199 517 434 280 
153 199 234 184 518 519 281 
154 26 195 25 520 491 34 
155 154 204 62 371 516 480 
156 124 230 197 521 522 298 
157 123 151 138 486 523 524 
158 139 152 127 525 484 526 
159 186 231 150 276 312 527 
160 75 203 74 498 528 83 
161 200 234 159 470 529 530 
162 117 130 129 531 532 533 
163 188 191 189 534 535 413 
164 124 125 115 536 537 538 
165 183 210 182 465 539 438 
166 78 256 77 408 540 86 
167 23 255 22 541 410 31 
168 224 254 201 416 542 543 
169 146 205 160 514 318 544 
170 151 200 159 309 530 545 
171 175 176 172 501 307 387 
172 144 218 146 546 382 547 
173 157 201 152 548 311 549 
174 151 159 158 545 550 551 
175 156 157 152 552 549 553 
176 105 217 194 554 555 474 
177 240 252 194 556 472 557 
178 133 140 125 558 478 559 
179 187 216 104 560 561 451 
180 197 230 168 522 562 265 
181 161 248 225 563 418 564 
182 162 168 134 565 566 567 
183 181 184 183 392 568 437 
184 135 169 163 569 570 571 
185 178 228 187 572 573 401 
186 151 158 138 551 574 523 
187 139 156 152 575 553 525 
188 177 179 176 512 576 500 
189 141 202 140 577 388 578 
190 177 251 223 579 580 581 
191 194 229 178 582 583 457 
192 20 206 19 471 584 28 
193 55 244 3 585 586 64 
194 77 256 209 540 587 493 
195 208 255 23 588 541 496 
196 5 245 63 589 590 73 
197 112 208 24 455 495 447 
198 76 209 113 494 460 448 
199 149 250 164 403 343 591 
200 179 242 241 505 592 593 
201 3 244 26 586 594 35 
202 120 258 199 595 596 436 
203 74 245 5 597 589 82 
204 124 133 125 300 559 536 
205 97 192 93 598 599 600 
206 94 193 99 601 602 603 
207 176 241 185 604 362 305 
208 114 123 122 605 606 607 
209 126 127 116 608 609 610 
210 202 222 118 611 389 612 
211 11 101 1 613 614 18 
212 1 102 6 615 616 12 
213 36 246 4 453 617 45 
214 8 103 9 618 619 15 
215 9 92 10 620 621 16 
216 7 91 8 622 623 14 
217 99 109 108 624 625 626 
218 106 107 97 627 628 629 
219 2 247 44 630 631 54 
220 164 186 150 377 527 632 
221 109 259 117 386 633 634 
222 130 149 129 442 635 532 
223 115 260 107 636 383 637 
224 175 251 177 445 579 499 
225 161 167 147 638 639 640 
226 4 246 81 617 641 90 
227 133 142 141 315 642 643 
228 123 138 134 524 644 645 
229 135 139 127 646 526 647 
230 136 192 165 648 359 649 
231 166 193 137 368 650 651 
232 79 214 78 427 489 87 
233 19 247 2 652 630 27 
234 114 122 115 607 653 654 
235 117 126 116 655 610 656 
236 7 94 91 657 658 622 
237 92 93 10 659 660 621 
238 135 163 139 571 661 646 
239 138 162 134 662 567 644 
240 22 212 21 488 431 30 
241 109 117 116 634 656 663 
242 114 115 107 654 637 664 
243 217 229 194 665 582 555 
244 133 141 140 643 578 558 
245 122 124 115 666 538 653 
246 126 135 127 667 647 608 
247 123 134 122 645 668 606 
248 118 248 202 419 463 612 
249 99 108 100 626 669 670 
250 98 106 97 671 629 672 
251 149 150 129 673 674 635 
252 158 212 211 675 487 676 
253 142 190 141 677 678 642 
254 149 164 150 591 632 673 
255 117 129 126 533 679 655 
256 106 114 107 680 664 627 
257 109 116 108 663 681 625 
258 96 105 98 682 683 684 
259 100 104 95 685 686 687 
260 168 230 134 562 688 566 
261 135 215 169 689 324 569 
262 117 259 130 633 690 531 
263 162 208 168 691 454 565 
264 98 110 106 692 693 671 
265 108 111 100 694 695 669 
266 94 99 95 603 696 697 
267 96 97 93 698 600 699 
268 169 209 163 461 700 570 
269 107 192 97 360 598 628 
270 99 193 109 602 367 624 
271 201 254 111 542 701 293 
272 167 207 147 334 702 639 
273 213 214 156 490 703 704 
274 60 225 59 468 425 69 
275 199 258 234 596 705 518 
276 188 246 191 706 452 534 
277 125 260 115 707 636 537 
278 95 216 91 708 709 710 
279 96 98 97 684 672 698 
280 99 100 95 670 687 696 
281 146 160 147 544 711 712 
282 178 229 228 583 507 572 
283 190 249 57 713 714 297 
284 92 217 96 715 716 717 
285 160 161 147 718 640 711 
286 139 213 156 719 704 575 
287 158 211 138 676 720 574 
288 155 244 55 721 585 459 
289 147 207 145 702 722 723 
290 114 221 123 724 485 605 
291 127 220 116 483 725 609 
292 192 235 93 726 727 599 
293 94 236 193 728 729 601 
294 94 95 91 697 710 658 
295 92 96 93 717 699 659 
296 153 247 206 730 731 517 
297 44 247 153 631 730 475 
298 223 254 177 732 415 581 
299 157 224 201 273 543 548 
300 102 137 6 733 734 616 
301 11 136 101 735 736 613 
302 241 242 132 592 737 363 
303 102 144 143 738 739 740 
304 141 222 202 741 611 577 
305 163 213 139 742 719 661 
306 138 211 162 720 743 662 
307 136 235 192 744 726 648 
308 193 236 137 729 745 650 
309 63 245 154 590 746 479 
310 110 253 210 747 748 393 
311 136 165 148 649 749 750 
312 150 215 129 314 751 674 
313 132 242 191 737 752 397 
314 143 166 137 753 651 754 
315 126 215 135 755 689 667 
316 158 232 212 756 510 675 
317 165 219 148 757 758 749 
318 146 147 145 712 723 759 
319 148 218 101 760 761 762 
320 129 215 126 751 755 679 
321 136 148 101 750 762 736 
322 144 146 145 547 759 763 
323 104 216 95 561 708 686 
324 214 233 156 502 764 703 
325 102 143 137 740 754 733 
326 96 217 105 716 554 682 
327 106 221 114 765 724 680 
328 116 220 108 725 766 681 
329 191 242 189 752 375 535 
330 122 230 124 767 521 666 
331 110 221 106 289 765 693 
332 108 220 111 766 291 694 
333 190 222 141 296 741 678 
334 130 226 207 768 769 441 
335 111 223 100 770 771 695 
336 195 244 155 772 721 430 
337 144 145 143 763 773 739 
338 207 226 145 769 774 722 
339 142 227 190 304 775 677 
340 100 223 104 771 776 685 
341 184 234 183 519 469 568 
342 134 230 122 688 767 668 
343 6 236 7 777 778 13 
344 10 235 11 779 780 17 
345 81 246 188 641 706 492 
346 26 244 195 594 772 520 
347 154 245 203 746 781 301 
348 57 249 56 714 515 66 
349 159 232 158 782 756 550 
350 156 233 157 764 278 552 
351 203 245 74 781 597 528 
352 232 258 120 783 595 511 
353 225 257 161 504 784 564 
354 98 253 110 785 747 692 
355 216 239 91 786 787 709 
356 7 236 94 778 728 657 
357 93 235 10 727 779 660 
358 162 255 208 788 588 691 
359 209 256 163 587 789 700 
360 92 238 217 790 791 715 
361 143 226 166 792 793 753 
362 165 260 219 384 794 757 
363 111 254 223 701 732 770 
364 174 240 194 326 557 456 
365 102 237 144 795 796 738 
366 179 241 176 593 604 576 
367 219 243 148 339 797 758 
368 145 226 143 774 792 773 
369 206 247 19 731 652 584 
370 218 237 101 798 799 761 
371 187 228 216 573 800 560 
372 11 235 136 780 744 735 
373 137 236 6 745 777 734 
374 210 252 182 801 802 539 
375 103 239 228 803 804 509 
376 160 248 161 464 563 718 
377 226 259 166 805 385 793 
378 148 243 218 797 380 760 
379 8 239 103 806 803 618 
380 91 239 8 787 806 623 
381 103 238 9 807 808 619 
382 9 238 92 808 790 620 
383 101 237 1 799 809 614 
384 1 237 102 809 795 615 
385 130 259 226 690 805 768 
386 182 252 240 802 556 513 
387 228 239 216 804 786 800 
388 229 238 103 810 807 508 
389 219 260 125 794 707 477 
390 167 257 250 811 812 402 
391 161 257 167 784 811 638 
392 144 237 218 796 798 546 
393 105 253 98 813 785 683 
394 217 238 229 791 810 665 
395 211 255 162 411 788 743 
396 163 256 213 789 407 742 
397 223 251 104 580 450 776 
398 227 249 190 482 713 775 
399 250 257 121 812 503 328 
400 159 258 232 814 783 782 
401 234 258 159 705 814 529 
402 252 253 105 815 813 473 
403 210 253 252 748 815 801 
$EndElements
