$MeshFormat
4.1 0 8
$EndMeshFormat
$PhysicalNames
3
1 2 "bc-top"
1 3 "bc-bot"
2 1 "vol"
$EndPhysicalNames
$Entities
18 26 8 0
1 0 0 0 0 
2 0.005 0 0 0 
3 0.005 0.001 0 0 
4 0 0.001 0 0 
5 0.01 0 0 0 
6 0.01 0.001 0 0 
10 0.005 0.011 0 0 
11 0 0.011 0 0 
12 0.01 0.011 0 0 
13 0.005 0.012 0 0 
14 0 0.012 0 0 
15 0.01 0.012 0 0 
16 0 0.006 0 0 
17 0.004500000000000001 0.005999999999999941 0 0 
18 0.005000000000000241 0.0055 0 0 
19 0.0055 0.006 0 0 
20 0.01 0.006 0 0 
21 0.00500000000000024 0.006500000000000001 0 0 
1 -9.99999999998398e-08 -1e-07 -1e-07 0.0050001 1e-07 1e-07 1 3 2 1 -2 
2 0.0049999 -1.000000000000566e-07 -1.000000000000542e-07 0.0050001 0.0010001 1.000000000000542e-07 0 2 2 -3 
3 -9.99999999998398e-08 0.0009999 -1e-07 0.0050001 0.0010001 1e-07 0 2 3 -4 
4 -1e-07 -9.999999999994822e-08 -1e-07 1e-07 0.0010001 1e-07 0 2 4 -1 
5 0.0049999 -1e-07 -1e-07 0.0100001 1e-07 1e-07 1 3 2 2 -5 
6 0.009999900000000001 -9.999999999994822e-08 -1e-07 0.0100001 0.0010001 1e-07 0 2 5 -6 
7 0.0049999 0.0009999 -1e-07 0.0100001 0.0010001 1e-07 0 2 6 -3 
14 -9.99999999998398e-08 0.0109999 -1e-07 0.0050001 0.0110001 1e-07 0 2 10 -11 
17 0.0049999 0.0109999 -1e-07 0.0100001 0.0110001 1e-07 0 2 12 -10 
18 0.0049999 0.0109999 -1e-07 0.0050001 0.0120001 1e-07 0 2 10 -13 
19 -9.99999999998398e-08 0.0119999 -1e-07 0.0050001 0.0120001 1e-07 1 2 2 13 -14 
20 -1e-07 0.0109999 -1e-07 1e-07 0.0120001 1e-07 0 2 14 -11 
21 0.009999900000000001 0.0109999 -1e-07 0.0100001 0.0120001 1e-07 0 2 12 -15 
22 0.0049999 0.0119999 -1e-07 0.0100001 0.0120001 1e-07 1 2 2 15 -13 
23 -1e-07 0.0009999000000000002 -1e-07 1e-07 0.0060001 1e-07 0 2 16 -4 
24 -9.99999999998398e-08 0.0059999 -1e-07 0.004500100000000001 0.0060001 1e-07 0 2 17 -16 
25 0.0044999 0.005499899999999999 -1e-07 0.005000100000000242 0.0060001 1e-07 0 2 17 -18 
26 0.0049999 0.0009999000000000002 -1e-07 0.0050001 0.0055001 1e-07 0 2 3 -18 
27 0.004999900000000241 0.005499899999999999 -1e-07 0.0055001 0.0060001 1e-07 0 2 18 -19 
28 0.005499899999999999 0.0059999 -1e-07 0.0100001 0.0060001 1e-07 0 2 20 -19 
29 0.009999900000000001 0.0009999000000000002 -1e-07 0.0100001 0.0060001 1e-07 0 2 6 -20 
30 -1e-07 0.0059999 -1e-07 1e-07 0.0110001 1e-07 0 2 11 -16 
31 0.0049999 0.0064999 -1e-07 0.0050001 0.0110001 1e-07 0 2 21 -10 
32 0.0044999 0.0059999 -1e-07 0.005000100000000241 0.006500100000000001 1e-07 0 2 21 -17 
33 0.00499990000000024 0.0059999 -1e-07 0.0055001 0.006500100000000001 1e-07 0 2 19 -21 
34 0.009999900000000001 0.0059999 -1e-07 0.0100001 0.0110001 1e-07 0 2 20 -12 
1 -9.99999999998398e-08 -1.000000000000566e-07 -1.000000000000542e-07 0.0050001 0.0010001 1.000000000000542e-07 1 1 4 1 2 3 4 
5 0.0049999 -1.000000000000566e-07 -1.000000000000542e-07 0.0100001 0.0010001 1.000000000000542e-07 1 1 4 5 6 7 -2 
9 -9.99999999998398e-08 0.0009999000000000002 -1e-07 0.005000100000000242 0.0060001 1e-07 1 1 5 -3 26 -25 24 23 
13 0.0049999 0.0009999000000000002 -1e-07 0.0100001 0.0060001 1e-07 1 1 5 -7 29 28 -27 -26 
17 -9.99999999998398e-08 0.0059999 -1e-07 0.005000100000000241 0.0110001 1e-07 1 1 5 -24 -32 31 14 30 
21 0.0049999 0.0059999 -1e-07 0.0100001 0.0110001 1e-07 1 1 5 -28 34 17 -31 -33 
25 -9.99999999998398e-08 0.0109999 -1e-07 0.0050001 0.0120001 1e-07 1 1 4 -14 18 19 20 
29 0.0049999 0.0109999 -1e-07 0.0100001 0.0120001 1e-07 1 1 4 -17 21 22 -18 
$EndEntities
$Nodes
52 252 1 252
0 1 0 1
1
0 0 0
0 2 0 1
2
0.005 0 0
0 3 0 1
3
0.005 0.001 0
0 4 0 1
4
0 0.001 0
0 5 0 1
5
0.01 0 0
0 6 0 1
6
0.01 0.001 0
0 10 0 1
7
0.005 0.011 0
0 11 0 1
8
0 0.011 0
0 12 0 1
9
0.01 0.011 0
0 13 0 1
10
0.005 0.012 0
0 14 0 1
11
0 0.012 0
0 15 0 1
12
0.01 0.012 0
0 16 0 1
13
0 0.006 0
0 17 0 1
14
0.004500000000000001 0.005999999999999941 0
0 18 0 1
15
0.005000000000000241 0.0055 0
0 19 0 1
16
0.0055 0.006 0
0 20 0 1
17
0.01 0.006 0
0 21 0 1
18
0.00500000000000024 0.006500000000000001 0
1 1 0 3
19
20
21
0.0025 0 0
0.00125 0 0
0.00375 0 0
1 2 0 1
22
0.005 0.0005 0
1 3 0 3
23
24
25
0.0025 0.001 0
0.00375 0.001 0
0.00125 0.001 0
1 4 0 1
26
0 0.0005 0
1 5 0 3
27
28
29
0.0075 0 0
0.00625 0 0
0.008750000000000001 0 0
1 6 0 1
30
0.01 0.0005 0
1 7 0 3
31
32
33
0.007500000000000001 0.001 0
0.008750000000000001 0.001 0
0.00625 0.001 0
1 14 0 3
34
35
36
0.0025 0.011 0
0.00375 0.011 0
0.00125 0.011 0
1 17 0 3
37
38
39
0.007500000000000001 0.011 0
0.008750000000000001 0.011 0
0.00625 0.011 0
1 18 0 1
40
0.005 0.0115 0
1 19 0 3
41
42
43
0.0025 0.012 0
0.00375 0.012 0
0.00125 0.012 0
1 20 0 1
44
0 0.0115 0
1 21 0 1
45
0.01 0.0115 0
1 22 0 3
46
47
48
0.007500000000000001 0.012 0
0.008750000000000001 0.012 0
0.00625 0.012 0
1 23 0 3
49
50
51
0 0.003500000000000001 0
0 0.004750000000000001 0
0 0.00225 0
1 24 0 7
52
53
54
55
56
57
58
0.003375000000000001 0.006 0
0.002250000000000001 0.006 0
0.001125 0.006 0
0.003937500000000001 0.006 0
0.002812500000000001 0.006 0
0.001687500000000001 0.006 0
0.0005624999999999996 0.006 0
1 25 0 7
59
60
61
62
63
64
65
0.00453806023374438 0.0058086582838174 0
0.004646446609406812 0.005646446609406641 0
0.004808658283817623 0.005538060233744288 0
0.00450960735979839 0.005902454838991906 0
0.004584265193848778 0.005722214883490124 0
0.004722214883490324 0.005584265193848643 0
0.004902454838992143 0.005509607359798344 0
1 26 0 7
66
67
68
69
70
71
72
0.005 0.002124999999999999 0
0.005 0.003249999999999999 0
0.005 0.004375 0
0.005 0.0015625 0
0.005 0.0026875 0
0.005 0.003812499999999999 0
0.005 0.0049375 0
1 27 0 7
73
74
75
76
77
78
79
0.005191341716182712 0.005538060233744426 0
0.005353553390593358 0.005646446609406811 0
0.005461939766255666 0.005808658283817511 0
0.00509754516100827 0.005509607359798426 0
0.005277785116509925 0.005584265193848811 0
0.005415734806151323 0.005722214883490274 0
0.005490392640201621 0.005902454838991965 0
1 28 0 7
80
81
82
83
84
85
86
0.008875000000000001 0.006 0
0.00775 0.006 0
0.006625 0.006 0
0.0094375 0.006 0
0.0083125 0.006 0
0.0071875 0.006 0
0.006062499999999999 0.006 0
1 29 0 3
87
88
89
0.01 0.0035 0
0.01 0.00225 0
0.01 0.00475 0
1 30 0 3
90
91
92
0 0.008500000000000001 0
0 0.00975 0
0 0.00725 0
1 31 0 7
93
94
95
96
97
98
99
0.005 0.007625 0
0.005 0.008749999999999999 0
0.005 0.009874999999999998 0
0.005 0.0070625 0
0.005 0.0081875 0
0.005 0.0093125 0
0.005 0.0104375 0
1 32 0 7
100
101
102
103
104
105
106
0.004808658283817622 0.006461939766255712 0
0.004646446609406812 0.006353553390593359 0
0.00453806023374438 0.006191341716182601 0
0.004902454838992142 0.006490392640201657 0
0.004722214883490324 0.006415734806151357 0
0.004584265193848778 0.006277785116509877 0
0.00450960735979839 0.006097545161008094 0
1 33 0 7
107
108
109
110
111
112
113
0.005461939766255666 0.00619134171618249 0
0.005353553390593358 0.006353553390593189 0
0.005191341716182711 0.006461939766255574 0
0.005490392640201621 0.006097545161008035 0
0.005415734806151323 0.006277785116509726 0
0.005277785116509925 0.006415734806151189 0
0.00509754516100827 0.006490392640201574 0
1 34 0 3
114
115
116
0.01 0.008499999999999999 0
0.01 0.00725 0
0.01 0.00975 0
2 1 0 1
117
0.0025 0.0005 0
2 5 0 1
118
0.0075 0.0005 0
2 9 0 33
119
120
121
122
123
124
125
126
127
128
129
130
131
132
133
134
135
136
137
138
139
140
141
142
143
144
145
146
147
148
149
150
151
0.00340354517530824 0.00523149371286305 0
0.00226903011687216 0.004654329141908701 0
0.00113451505843608 0.00407716457095435 0
0.003484834957055019 0.00448483495705498 0
0.002323223304703346 0.00332322330470332 0
0.001161611652351673 0.00216161165235166 0
0.004231493712863081 0.004403545175308216 0
0.00365432914190872 0.003269030116872143 0
0.003077164570954361 0.002134515058436072 0
0.00338927258765412 0.005615746856431525 0
0.00397080270452631 0.005520075998340225 0
0.002259515058436081 0.00532716457095435 0
0.0028362876460902 0.004942911427385874 0
0.00112975752921804 0.005038582285477175 0
0.00170177258765412 0.004365746856431525 0
0.0005672575292180401 0.003788582285477175 0
0.00344419006618163 0.004858164334959015 0
0.004065640783230916 0.005065640783230811 0
0.002296126710787753 0.00398877622330601 0
0.002904029130879183 0.00390402913087915 0
0.001148063355393877 0.003119388111653005 0
0.001742417478527509 0.00274241747852749 0
0.0005808058261758365 0.00158080582617583 0
0.00385816433495905 0.004444190066181598 0
0.004520075998340351 0.004970802704526251 0
0.002988776223306033 0.003296126710787732 0
0.003942911427385901 0.003836287646090179 0
0.002119388111653017 0.002148063355393866 0
0.00336574685643154 0.002701772587654108 0
0.00278858228547718 0.001567257529218036 0
0.004615746856431541 0.004389272587654107 0
0.00432716457095436 0.003259515058436071 0
0.004038582285477181 0.002129757529218036 0
2 13 0 33
152
153
154
155
156
157
158
159
160
161
162
163
164
165
166
167
168
169
170
171
172
173
174
175
176
177
178
179
180
181
182
183
184
0.005768506287137033 0.00440354517530832 0
0.006345670858091356 0.003269030116872213 0
0.006922835429045678 0.002134515058436107 0
0.006515165042945019 0.004484834957055108 0
0.007676776695296679 0.003323223304703405 0
0.00883838834764834 0.002161611652351702 0
0.006596454824691749 0.005231493712863133 0
0.007730969883127834 0.004654329141908755 0
0.008865484941563917 0.004077164570954377 0
0.005384253143568517 0.004389272587654159 0
0.005479924001659872 0.004970802704526373 0
0.005672835429045678 0.003259515058436106 0
0.006057088572614194 0.003836287646090266 0
0.005961417714522839 0.002129757529218053 0
0.006634253143568517 0.00270177258765416 0
0.00721141771452284 0.001567257529218053 0
0.006141835665041026 0.004444190066181714 0
0.005934359216769189 0.005065640783230959 0
0.007011223776694018 0.003296126710787809 0
0.007095970869120849 0.003904029130879256 0
0.00788061188834701 0.002148063355393904 0
0.00825758252147251 0.002742417478527554 0
0.009419194173824169 0.001580805826175851 0
0.006555809933818384 0.004858164334959121 0
0.006029197295473708 0.005520075998340322 0
0.007703873289212257 0.00398877622330608 0
0.007163712353909791 0.004942911427385944 0
0.008851936644606128 0.00311938811165304 0
0.008298227412345874 0.004365746856431566 0
0.009432742470781959 0.003788582285477188 0
0.006610727412345875 0.005615746856431567 0
0.007740484941563917 0.005327164570954378 0
0.008870242470781959 0.005038582285477189 0
2 17 0 33
185
186
187
188
189
190
191
192
193
194
195
196
197
198
199
200
201
202
203
204
205
206
207
208
209
210
211
212
213
214
215
216
217
0.003403545175308285 0.00676850628713695 0
0.002269030116872191 0.0073456708580913 0
0.001134515058436095 0.007922835429045649 0
0.00348483495705511 0.007515165042945018 0
0.002323223304703407 0.008676776695296678 0
0.001161611652351704 0.009838388347648339 0
0.004231493712863217 0.007596454824691783 0
0.003654329141908811 0.008730969883127855 0
0.003077164570954406 0.009865484941563927 0
0.003970802704526333 0.006479924001659775 0
0.003389272587654143 0.006384253143568475 0
0.002836287646090238 0.007057088572614126 0
0.002259515058436096 0.00667283542904565 0
0.001701772587654143 0.007634253143568475 0
0.001129757529218048 0.006961417714522825 0
0.0005672575292180477 0.008211417714522825 0
0.004065640783230961 0.006934359216769189 0
0.003444190066181697 0.007141835665040984 0
0.002904029130879258 0.008095970869120847 0
0.002296126710787799 0.00801122377669399 0
0.001742417478527555 0.009257582521472508 0
0.0011480633553939 0.008880611888346993 0
0.0005808058261758519 0.01041919417382417 0
0.004520075998340419 0.007029197295473748 0
0.003858164334959163 0.0075558099338184 0
0.003942911427386014 0.00816371235390982 0
0.002988776223306109 0.008703873289212266 0
0.003365746856431609 0.009298227412345891 0
0.002119388111653055 0.009851936644606133 0
0.002788582285477203 0.01043274247078196 0
0.004615746856431608 0.007610727412345891 0
0.004327164570954406 0.008740484941563927 0
0.004038582285477203 0.009870242470781963 0
2 21 0 33
218
219
220
221
222
223
224
225
226
227
228
229
230
231
232
233
234
235
236
237
238
239
240
241
242
243
244
245
246
247
248
249
250
0.00659645482469175 0.006768506287136867 0
0.007730969883127834 0.007345670858091244 0
0.008865484941563917 0.007922835429045622 0
0.006515165042945019 0.007515165042944891 0
0.007676776695296678 0.008676776695296593 0
0.00883838834764834 0.009838388347648297 0
0.005768506287137033 0.00759645482469168 0
0.006345670858091355 0.008730969883127786 0
0.006922835429045678 0.009865484941563894 0
0.006610727412345875 0.006384253143568434 0
0.006029197295473708 0.006479924001659678 0
0.007740484941563917 0.006672835429045622 0
0.007163712353909791 0.007057088572614056 0
0.008870242470781959 0.006961417714522811 0
0.008298227412345874 0.007634253143568433 0
0.009432742470781959 0.008211417714522811 0
0.006555809933818384 0.007141835665040879 0
0.005934359216769188 0.00693435921676904 0
0.007703873289212257 0.008011223776693919 0
0.007095970869120848 0.008095970869120743 0
0.008851936644606128 0.008880611888346959 0
0.008257582521472509 0.009257582521472445 0
0.009419194173824169 0.01041919417382415 0
0.006141835665041026 0.007555809933818286 0
0.005479924001659872 0.007029197295473627 0
0.007011223776694017 0.00870387328921219 0
0.006057088572614194 0.008163712353909733 0
0.007880611888347008 0.009851936644606095 0
0.006634253143568516 0.009298227412345839 0
0.007211417714522839 0.01043274247078195 0
0.005384253143568517 0.00761072741234584 0
0.005672835429045678 0.008740484941563893 0
0.005961417714522839 0.009870242470781946 0
2 25 0 1
251
0.0025 0.0115 0
2 29 0 1
252
0.007500000000000001 0.0115 0
$EndNodes
$Elements
12 80 1 80
1 1 8 2
1 1 19 20 
2 19 2 21 
1 5 8 2
3 2 27 28 
4 27 5 29 
1 19 8 2
5 10 41 42 
6 41 11 43 
1 22 8 2
7 12 46 47 
8 46 10 48 
2 1 16 2
9 1 19 23 4 20 117 25 26 
10 19 2 3 23 21 22 24 117 
2 5 16 2
11 2 27 31 3 28 118 33 22 
12 27 5 6 31 29 30 32 118 
2 9 16 16
13 14 52 119 59 55 128 129 62 
14 52 53 120 119 56 130 131 128 
15 53 54 121 120 57 132 133 130 
16 54 13 49 121 58 50 134 132 
17 59 119 122 60 129 135 136 63 
18 119 120 123 122 131 137 138 135 
19 120 121 124 123 133 139 140 137 
20 121 49 4 124 134 51 141 139 
21 60 122 125 61 136 142 143 64 
22 122 123 126 125 138 144 145 142 
23 123 124 127 126 140 146 147 144 
24 124 4 23 127 141 25 148 146 
25 61 125 68 15 143 149 72 65 
26 125 126 67 68 145 150 71 149 
27 126 127 66 67 147 151 70 150 
28 127 23 3 66 148 24 69 151 
2 13 16 16
29 15 68 152 73 72 161 162 76 
30 68 67 153 152 71 163 164 161 
31 67 66 154 153 70 165 166 163 
32 66 3 31 154 69 33 167 165 
33 73 152 155 74 162 168 169 77 
34 152 153 156 155 164 170 171 168 
35 153 154 157 156 166 172 173 170 
36 154 31 6 157 167 32 174 172 
37 74 155 158 75 169 175 176 78 
38 155 156 159 158 171 177 178 175 
39 156 157 160 159 173 179 180 177 
40 157 6 87 160 174 88 181 179 
41 75 158 82 16 176 182 86 79 
42 158 159 81 82 178 183 85 182 
43 159 160 80 81 180 184 84 183 
44 160 87 17 80 181 89 83 184 
2 17 16 16
45 14 102 185 52 106 194 195 55 
46 52 185 186 53 195 196 197 56 
47 53 186 187 54 197 198 199 57 
48 54 187 90 13 199 200 92 58 
49 102 101 188 185 105 201 202 194 
50 185 188 189 186 202 203 204 196 
51 186 189 190 187 204 205 206 198 
52 187 190 8 90 206 207 91 200 
53 101 100 191 188 104 208 209 201 
54 188 191 192 189 209 210 211 203 
55 189 192 193 190 211 212 213 205 
56 190 193 34 8 213 214 36 207 
57 100 18 93 191 103 96 215 208 
58 191 93 94 192 215 97 216 210 
59 192 94 95 193 216 98 217 212 
60 193 95 7 34 217 99 35 214 
2 21 16 16
61 16 82 218 107 86 227 228 110 
62 82 81 219 218 85 229 230 227 
63 81 80 220 219 84 231 232 229 
64 80 17 114 220 83 115 233 231 
65 107 218 221 108 228 234 235 111 
66 218 219 222 221 230 236 237 234 
67 219 220 223 222 232 238 239 236 
68 220 114 9 223 233 116 240 238 
69 108 221 224 109 235 241 242 112 
70 221 222 225 224 237 243 244 241 
71 222 223 226 225 239 245 246 243 
72 223 9 37 226 240 38 247 245 
73 109 224 93 18 242 248 96 113 
74 224 225 94 93 244 249 97 248 
75 225 226 95 94 246 250 98 249 
76 226 37 7 95 247 39 99 250 
2 25 16 2
77 8 34 41 11 36 251 43 44 
78 34 7 10 41 35 40 42 251 
2 29 16 2
79 7 37 46 10 39 252 48 40 
80 37 9 12 46 38 45 47 252 
$EndElements
