$MeshFormat
4.1 0 8
$EndMeshFormat
$PhysicalNames
3
2 2 "bc-top"
2 3 "bc-bot"
3 1 "vol"
$EndPhysicalNames
$Entities
36 70 42 8
1 0 0 0 0 
2 0.005 0 0 0 
3 0.005 0.001 0 0 
4 0 0.001 0 0 
5 0.01 0 0 0 
6 0.01 0.001 0 0 
10 0.005 0.011 0 0 
11 0 0.011 0 0 
12 0.01 0.011 0 0 
13 0.005 0.012 0 0 
14 0 0.012 0 0 
15 0.01 0.012 0 0 
16 0 0.006 0 0 
17 0.004500000000000001 0.005999999999999941 0 0 
18 0.005000000000000241 0.0055 0 0 
19 0.0055 0.006 0 0 
20 0.01 0.006 0 0 
21 0.00500000000000024 0.006500000000000001 0 0 
22 0 0 0.0005 0 
23 0.005 0 0.0005 0 
24 0.005 0.001 0.0005 0 
25 0 0.001 0.0005 0 
26 0.01 0 0.0005 0 
27 0.01 0.001 0.0005 0 
28 0 0.006 0.0005 0 
29 0.004500000000000001 0.005999999999999941 0.0005 0 
30 0.005000000000000241 0.0055 0.0005 0 
31 0.0055 0.006 0.0005 0 
32 0.01 0.006 0.0005 0 
33 0 0.011 0.0005 0 
34 0.005 0.011 0.0005 0 
35 0.00500000000000024 0.006500000000000001 0.0005 0 
36 0.01 0.011 0.0005 0 
37 0.005 0.012 0.0005 0 
38 0 0.012 0.0005 0 
39 0.01 0.012 0.0005 0 
1 -9.99999999998398e-08 -1e-07 -1e-07 0.0050001 1e-07 1e-07 0 2 1 -2 
2 0.0049999 -1.000000000000566e-07 -1.000000000000542e-07 0.0050001 0.0010001 1.000000000000542e-07 0 2 2 -3 
3 -9.99999999998398e-08 0.0009999 -1e-07 0.0050001 0.0010001 1e-07 0 2 3 -4 
4 -1e-07 -9.999999999994822e-08 -1e-07 1e-07 0.0010001 1e-07 0 2 4 -1 
5 0.0049999 -1e-07 -1e-07 0.0100001 1e-07 1e-07 0 2 2 -5 
6 0.009999900000000001 -9.999999999994822e-08 -1e-07 0.0100001 0.0010001 1e-07 0 2 5 -6 
7 0.0049999 0.0009999 -1e-07 0.0100001 0.0010001 1e-07 0 2 6 -3 
14 -9.99999999998398e-08 0.0109999 -1e-07 0.0050001 0.0110001 1e-07 0 2 10 -11 
17 0.0049999 0.0109999 -1e-07 0.0100001 0.0110001 1e-07 0 2 12 -10 
18 0.0049999 0.0109999 -1e-07 0.0050001 0.0120001 1e-07 0 2 10 -13 
19 -9.99999999998398e-08 0.0119999 -1e-07 0.0050001 0.0120001 1e-07 0 2 13 -14 
20 -1e-07 0.0109999 -1e-07 1e-07 0.0120001 1e-07 0 2 14 -11 
21 0.009999900000000001 0.0109999 -1e-07 0.0100001 0.0120001 1e-07 0 2 12 -15 
22 0.0049999 0.0119999 -1e-07 0.0100001 0.0120001 1e-07 0 2 15 -13 
23 -1e-07 0.0009999000000000002 -1e-07 1e-07 0.0060001 1e-07 0 2 16 -4 
24 -9.99999999998398e-08 0.0059999 -1e-07 0.004500100000000001 0.0060001 1e-07 0 2 17 -16 
25 0.0044999 0.005499899999999999 -1e-07 0.005000100000000242 0.0060001 1e-07 0 2 17 -18 
26 0.0049999 0.0009999000000000002 -1e-07 0.0050001 0.0055001 1e-07 0 2 3 -18 
27 0.004999900000000241 0.005499899999999999 -1e-07 0.0055001 0.0060001 1e-07 0 2 18 -19 
28 0.005499899999999999 0.0059999 -1e-07 0.0100001 0.0060001 1e-07 0 2 20 -19 
29 0.009999900000000001 0.0009999000000000002 -1e-07 0.0100001 0.0060001 1e-07 0 2 6 -20 
30 -1e-07 0.0059999 -1e-07 1e-07 0.0110001 1e-07 0 2 11 -16 
31 0.0049999 0.0064999 -1e-07 0.0050001 0.0110001 1e-07 0 2 21 -10 
32 0.0044999 0.0059999 -1e-07 0.005000100000000241 0.006500100000000001 1e-07 0 2 21 -17 
33 0.00499990000000024 0.0059999 -1e-07 0.0055001 0.006500100000000001 1e-07 0 2 19 -21 
34 0.009999900000000001 0.0059999 -1e-07 0.0100001 0.0110001 1e-07 0 2 20 -12 
35 -1e-07 -1e-07 -1.000000000000024e-07 1e-07 1e-07 0.0005001 0 2 1 -22 
36 0.0049999 -1.000000000000542e-07 -1.000000000000566e-07 0.0050001 1.000000000000542e-07 0.0005001000000000001 0 2 2 -23 
37 -9.99999999998398e-08 -1e-07 0.0004999000000000001 0.0050001 1e-07 0.0005001 0 2 22 -23 
38 0.0049999 0.0009999 -1.000000000000566e-07 0.0050001 0.0010001 0.0005001000000000001 0 2 3 -24 
39 0.0049999 -1.000000000000566e-07 0.0004999 0.0050001 0.0010001 0.0005001000000000001 0 2 23 -24 
40 -1e-07 0.0009999 -1.000000000000024e-07 1e-07 0.0010001 0.0005001 0 2 4 -25 
41 -9.99999999998398e-08 0.0009999 0.0004999000000000001 0.0050001 0.0010001 0.0005001 0 2 24 -25 
42 -1e-07 -9.999999999994822e-08 0.0004999000000000001 1e-07 0.0010001 0.0005001 0 2 25 -22 
43 0.009999900000000001 -1e-07 -1.000000000000024e-07 0.0100001 1e-07 0.0005001 0 2 5 -26 
44 0.0049999 -1e-07 0.0004999000000000001 0.0100001 1e-07 0.0005001 0 2 23 -26 
45 0.009999900000000001 0.0009999 -1.000000000000024e-07 0.0100001 0.0010001 0.0005001 0 2 6 -27 
46 0.009999900000000001 -9.999999999994822e-08 0.0004999000000000001 0.0100001 0.0010001 0.0005001 0 2 26 -27 
47 0.0049999 0.0009999 0.0004999000000000001 0.0100001 0.0010001 0.0005001 0 2 27 -24 
48 -1e-07 0.0059999 -1.000000000000024e-07 1e-07 0.0060001 0.0005001 0 2 16 -28 
49 -1e-07 0.0009999000000000002 0.0004999000000000001 1e-07 0.0060001 0.0005001 0 2 28 -25 
50 0.004499899999999941 0.005999899999999882 -1.00000000058983e-07 0.00450010000000006 0.0060001 0.0005001000000000589 0 2 17 -29 
51 -9.99999999998398e-08 0.0059999 0.0004999000000000001 0.004500100000000001 0.0060001 0.0005001 0 2 29 -28 
52 0.0049999 0.005499899999999758 -1.00000000241129e-07 0.005000100000000483 0.005500100000000241 0.0005001000000002411 0 2 18 -30 
53 0.0044999 0.005499899999999999 0.0004999000000000001 0.005000100000000242 0.0060001 0.0005001 0 2 29 -30 
54 0.0049999 0.0009999000000000002 0.0004999000000000001 0.0050001 0.0055001 0.0005001 0 2 24 -30 
55 0.005499899999999999 0.0059999 -1.000000000000024e-07 0.0055001 0.0060001 0.0005001 0 2 19 -31 
56 0.004999900000000241 0.005499899999999999 0.0004999000000000001 0.0055001 0.0060001 0.0005001 0 2 30 -31 
57 0.009999900000000001 0.0059999 -1.000000000000024e-07 0.0100001 0.0060001 0.0005001 0 2 20 -32 
58 0.005499899999999999 0.0059999 0.0004999000000000001 0.0100001 0.0060001 0.0005001 0 2 32 -31 
59 0.009999900000000001 0.0009999000000000002 0.0004999000000000001 0.0100001 0.0060001 0.0005001 0 2 27 -32 
60 -1e-07 0.0109999 -1.000000000000024e-07 1e-07 0.0110001 0.0005001 0 2 11 -33 
61 -1e-07 0.0059999 0.0004999000000000001 1e-07 0.0110001 0.0005001 0 2 33 -28 
62 0.0049999 0.0109999 -1.000000000000024e-07 0.0050001 0.0110001 0.0005001 0 2 10 -34 
63 -9.99999999998398e-08 0.0109999 0.0004999000000000001 0.0050001 0.0110001 0.0005001 0 2 34 -33 
64 0.0049999 0.00649989999999976 -1.000000002406953e-07 0.005000100000000481 0.006500100000000241 0.0005001000000002407 0 2 21 -35 
65 0.0049999 0.0064999 0.0004999000000000001 0.0050001 0.0110001 0.0005001 0 2 35 -34 
66 0.0044999 0.0059999 0.0004999000000000001 0.005000100000000241 0.006500100000000001 0.0005001 0 2 35 -29 
67 0.00499990000000024 0.0059999 0.0004999000000000001 0.0055001 0.006500100000000001 0.0005001 0 2 31 -35 
68 0.009999900000000001 0.0109999 -1.000000000000024e-07 0.0100001 0.0110001 0.0005001 0 2 12 -36 
69 0.0049999 0.0109999 0.0004999000000000001 0.0100001 0.0110001 0.0005001 0 2 36 -34 
70 0.009999900000000001 0.0059999 0.0004999000000000001 0.0100001 0.0110001 0.0005001 0 2 32 -36 
71 0.0049999 0.0119999 -1.000000000000024e-07 0.0050001 0.0120001 0.0005001 0 2 13 -37 
72 0.0049999 0.0109999 0.0004999000000000001 0.0050001 0.0120001 0.0005001 0 2 34 -37 
73 -1e-07 0.0119999 -1.000000000000024e-07 1e-07 0.0120001 0.0005001 0 2 14 -38 
74 -9.99999999998398e-08 0.0119999 0.0004999000000000001 0.0050001 0.0120001 0.0005001 0 2 37 -38 
75 -1e-07 0.0109999 0.0004999000000000001 1e-07 0.0120001 0.0005001 0 2 38 -33 
76 0.009999900000000001 0.0119999 -1.000000000000024e-07 0.0100001 0.0120001 0.0005001 0 2 15 -39 
77 0.009999900000000001 0.0109999 0.0004999000000000001 0.0100001 0.0120001 0.0005001 0 2 36 -39 
78 0.0049999 0.0119999 0.0004999000000000001 0.0100001 0.0120001 0.0005001 0 2 39 -37 
1 -9.99999999998398e-08 -1.000000000000566e-07 -1.000000000000542e-07 0.0050001 0.0010001 1.000000000000542e-07 0 4 1 2 3 4 
5 0.0049999 -1.000000000000566e-07 -1.000000000000542e-07 0.0100001 0.0010001 1.000000000000542e-07 0 4 5 6 7 -2 
9 -9.99999999998398e-08 0.0009999000000000002 -1e-07 0.005000100000000242 0.0060001 1e-07 0 5 -3 26 -25 24 23 
13 0.0049999 0.0009999000000000002 -1e-07 0.0100001 0.0060001 1e-07 0 5 -7 29 28 -27 -26 
17 -9.99999999998398e-08 0.0059999 -1e-07 0.005000100000000241 0.0110001 1e-07 0 5 -24 -32 31 14 30 
21 0.0049999 0.0059999 -1e-07 0.0100001 0.0110001 1e-07 0 5 -28 34 17 -31 -33 
25 -9.99999999998398e-08 0.0109999 -1e-07 0.0050001 0.0120001 1e-07 0 4 -14 18 19 20 
29 0.0049999 0.0109999 -1e-07 0.0100001 0.0120001 1e-07 0 4 -17 21 22 -18 
30 -9.99999999998398e-08 -1.000000000000542e-07 -1.000000000000566e-07 0.0050001 1.000000000000542e-07 0.0005001000000000001 1 3 4 35 37 -36 -1 
31 0.0049999 -1.000000000000566e-07 -1.000000000000566e-07 0.0050001 0.0010001 0.0005001000000000001 0 4 36 39 -38 -2 
32 -9.99999999998398e-08 0.0009999 -1.000000000000566e-07 0.0050001 0.0010001 0.0005001000000000001 0 4 38 41 -40 -3 
33 -1e-07 -9.999999999994822e-08 -1.000000000000024e-07 1e-07 0.0010001 0.0005001 0 4 40 42 -35 -4 
34 -9.99999999998398e-08 -1.000000000000566e-07 0.0004999 0.0050001 0.0010001 0.0005001000000000001 0 4 37 39 41 42 
35 0.0049999 -1.000000000000542e-07 -1.000000000000566e-07 0.0100001 1.000000000000542e-07 0.0005001000000000001 1 3 4 36 44 -43 -5 
36 0.009999900000000001 -9.999999999994822e-08 -1.000000000000024e-07 0.0100001 0.0010001 0.0005001 0 4 43 46 -45 -6 
37 0.0049999 0.0009999 -1.000000000000566e-07 0.0100001 0.0010001 0.0005001000000000001 0 4 45 47 -38 -7 
38 0.0049999 -1.000000000000566e-07 0.0004999 0.0100001 0.0010001 0.0005001000000000001 0 4 44 46 47 -39 
39 -1e-07 0.0009999000000000002 -1.000000000000024e-07 1e-07 0.0060001 0.0005001 0 4 48 49 -40 -23 
40 -1.000000000588204e-07 0.005999899999999882 -1.00000000058983e-07 0.00450010000000006 0.006000100000000059 0.0005001000000000589 0 4 50 51 -48 -24 
41 0.0044999 0.005499899999999999 -1.000000000000024e-07 0.005000100000000242 0.0060001 0.0005001 0 4 50 53 -52 -25 
42 0.004999899999999759 0.0009998999999997591 -1.00000000241129e-07 0.005000100000000483 0.005500100000000241 0.0005001000000002411 0 4 38 54 -52 -26 
43 -9.99999999998398e-08 0.0009999000000000002 0.0004999000000000001 0.005000100000000242 0.0060001 0.0005001 0 5 -41 54 -53 51 49 
44 0.004999900000000241 0.005499899999999999 -1.000000000000024e-07 0.0055001 0.0060001 0.0005001 0 4 52 56 -55 -27 
45 0.005499899999999999 0.0059999 -1.000000000000024e-07 0.0100001 0.0060001 0.0005001 0 4 57 58 -55 -28 
46 0.009999900000000001 0.0009999000000000002 -1.000000000000024e-07 0.0100001 0.0060001 0.0005001 0 4 45 59 -57 -29 
47 0.0049999 0.0009999000000000002 0.0004999000000000001 0.0100001 0.0060001 0.0005001 0 5 -47 59 58 -56 -54 
48 -1e-07 0.0059999 -1.000000000000024e-07 1e-07 0.0110001 0.0005001 0 4 60 61 -48 -30 
49 -9.99999999998398e-08 0.0109999 -1.000000000000024e-07 0.0050001 0.0110001 0.0005001 0 4 62 63 -60 -14 
50 0.00499989999999976 0.00649989999999976 -1.000000002406953e-07 0.005000100000000481 0.01100010000000024 0.0005001000000002407 0 4 64 65 -62 -31 
51 0.0044999 0.0059999 -1.000000000000024e-07 0.005000100000000241 0.006500100000000001 0.0005001 0 4 64 66 -50 -32 
52 -9.99999999998398e-08 0.0059999 0.0004999000000000001 0.005000100000000241 0.0110001 0.0005001 0 5 -51 -66 65 63 61 
53 0.00499990000000024 0.0059999 -1.000000000000024e-07 0.0055001 0.006500100000000001 0.0005001 0 4 55 67 -64 -33 
54 0.0049999 0.0109999 -1.000000000000024e-07 0.0100001 0.0110001 0.0005001 0 4 68 69 -62 -17 
55 0.009999900000000001 0.0059999 -1.000000000000024e-07 0.0100001 0.0110001 0.0005001 0 4 57 70 -68 -34 
56 0.0049999 0.0059999 0.0004999000000000001 0.0100001 0.0110001 0.0005001 0 5 -58 70 69 -65 -67 
57 0.0049999 0.0109999 -1.000000000000024e-07 0.0050001 0.0120001 0.0005001 0 4 62 72 -71 -18 
58 -9.99999999998398e-08 0.0119999 -1.000000000000024e-07 0.0050001 0.0120001 0.0005001 1 2 4 71 74 -73 -19 
59 -1e-07 0.0109999 -1.000000000000024e-07 1e-07 0.0120001 0.0005001 0 4 73 75 -60 -20 
60 -9.99999999998398e-08 0.0109999 0.0004999000000000001 0.0050001 0.0120001 0.0005001 0 4 -63 72 74 75 
61 0.009999900000000001 0.0109999 -1.000000000000024e-07 0.0100001 0.0120001 0.0005001 0 4 68 77 -76 -21 
62 0.0049999 0.0119999 -1.000000000000024e-07 0.0100001 0.0120001 0.0005001 1 2 4 76 78 -71 -22 
63 0.0049999 0.0109999 0.0004999000000000001 0.0100001 0.0120001 0.0005001 0 4 -69 77 78 -72 
1 -9.99999999998398e-08 -1.000000000000566e-07 -1.000000000000566e-07 0.0050001 0.0010001 0.0005001000000000001 1 1 6 -30 -31 -32 -33 -1 34 
2 0.0049999 -1.000000000000566e-07 -1.000000000000566e-07 0.0100001 0.0010001 0.0005001000000000001 1 1 6 -35 -36 -37 31 -5 38 
3 -1.000000002409664e-07 0.0009998999999997591 -1.00000000241129e-07 0.005000100000000483 0.006000100000000242 0.0005001000000002411 1 1 7 32 -39 -40 41 -42 -9 43 
4 0.004999899999999759 0.0009998999999997591 -1.00000000241129e-07 0.01000010000000024 0.006000100000000242 0.0005001000000002411 1 1 7 37 42 44 -45 -46 -13 47 
5 -1.000000002405327e-07 0.005999899999999701 -1.000000002406953e-07 0.005000100000000481 0.01100010000000024 0.0005001000000002407 1 1 7 40 -48 -49 -50 51 -17 52 
6 0.00499989999999976 0.00599989999999976 -1.000000002406953e-07 0.01000010000000024 0.01100010000000024 0.0005001000000002407 1 1 7 45 53 50 -54 -55 -21 56 
7 -9.99999999998398e-08 0.0109999 -1.000000000000024e-07 0.0050001 0.0120001 0.0005001 1 1 6 49 -57 -58 -59 -25 60 
8 0.0049999 0.0109999 -1.000000000000024e-07 0.0100001 0.0120001 0.0005001 1 1 6 54 -61 -62 57 -29 63 
$EndEntities
$Nodes
96 180 1 180
0 1 0 1
1
0 0 0
0 2 0 1
2
0.005 0 0
0 3 0 1
3
0.005 0.001 0
0 4 0 1
4
0 0.001 0
0 5 0 1
5
0.01 0 0
0 6 0 1
6
0.01 0.001 0
0 10 0 1
7
0.005 0.011 0
0 11 0 1
8
0 0.011 0
0 12 0 1
9
0.01 0.011 0
0 13 0 1
10
0.005 0.012 0
0 14 0 1
11
0 0.012 0
0 15 0 1
12
0.01 0.012 0
0 16 0 1
13
0 0.006 0
0 17 0 1
14
0.004500000000000001 0.005999999999999941 0
0 18 0 1
15
0.005000000000000241 0.0055 0
0 19 0 1
16
0.0055 0.006 0
0 20 0 1
17
0.01 0.006 0
0 21 0 1
18
0.00500000000000024 0.006500000000000001 0
0 22 0 1
19
0 0 0.0005
0 23 0 1
20
0.005 0 0.0005
0 24 0 1
21
0.005 0.001 0.0005
0 25 0 1
22
0 0.001 0.0005
0 26 0 1
23
0.01 0 0.0005
0 27 0 1
24
0.01 0.001 0.0005
0 28 0 1
25
0 0.006 0.0005
0 29 0 1
26
0.004500000000000001 0.005999999999999941 0.0005
0 30 0 1
27
0.005000000000000241 0.0055 0.0005
0 31 0 1
28
0.0055 0.006 0.0005
0 32 0 1
29
0.01 0.006 0.0005
0 33 0 1
30
0 0.011 0.0005
0 34 0 1
31
0.005 0.011 0.0005
0 35 0 1
32
0.00500000000000024 0.006500000000000001 0.0005
0 36 0 1
33
0.01 0.011 0.0005
0 37 0 1
34
0.005 0.012 0.0005
0 38 0 1
35
0 0.012 0.0005
0 39 0 1
36
0.01 0.012 0.0005
1 1 0 1
37
0.0025 0 0
1 3 0 1
38
0.0025 0.001 0
1 5 0 1
39
0.0075 0 0
1 7 0 1
40
0.007500000000000001 0.001 0
1 14 0 1
41
0.0025 0.011 0
1 17 0 1
42
0.007500000000000001 0.011 0
1 19 0 1
43
0.0025 0.012 0
1 22 0 1
44
0.007500000000000001 0.012 0
1 23 0 1
45
0 0.003500000000000001 0
1 24 0 3
46
47
48
0.003375000000000001 0.006 0
0.002250000000000001 0.006 0
0.001125 0.006 0
1 25 0 3
49
50
51
0.00453806023374438 0.0058086582838174 0
0.004646446609406812 0.005646446609406641 0
0.004808658283817623 0.005538060233744288 0
1 26 0 3
52
53
54
0.005 0.002124999999999999 0
0.005 0.003249999999999999 0
0.005 0.004375 0
1 27 0 3
55
56
57
0.005191341716182712 0.005538060233744426 0
0.005353553390593358 0.005646446609406811 0
0.005461939766255666 0.005808658283817511 0
1 28 0 3
58
59
60
0.008875000000000001 0.006 0
0.00775 0.006 0
0.006625 0.006 0
1 29 0 1
61
0.01 0.0035 0
1 30 0 1
62
0 0.008500000000000001 0
1 31 0 3
63
64
65
0.005 0.007625 0
0.005 0.008749999999999999 0
0.005 0.009874999999999998 0
1 32 0 3
66
67
68
0.004808658283817622 0.006461939766255712 0
0.004646446609406812 0.006353553390593359 0
0.00453806023374438 0.006191341716182601 0
1 33 0 3
69
70
71
0.005461939766255666 0.00619134171618249 0
0.005353553390593358 0.006353553390593189 0
0.005191341716182711 0.006461939766255574 0
1 34 0 1
72
0.01 0.008499999999999999 0
1 37 0 1
73
0.0025 0 0.0005
1 41 0 1
74
0.0025 0.001 0.0005
1 44 0 1
75
0.0075 0 0.0005
1 47 0 1
76
0.007500000000000001 0.001 0.0005
1 49 0 1
77
0 0.003500000000000001 0.0005
1 51 0 3
78
79
80
0.003375000000000001 0.006 0.0005
0.002250000000000001 0.006 0.0005
0.001125 0.006 0.0005
1 53 0 3
81
82
83
0.00453806023374438 0.0058086582838174 0.0005
0.004646446609406812 0.005646446609406641 0.0005
0.004808658283817623 0.005538060233744288 0.0005
1 54 0 3
84
85
86
0.005 0.002124999999999999 0.0005
0.005 0.003249999999999999 0.0005
0.005 0.004375 0.0005
1 56 0 3
87
88
89
0.005191341716182712 0.005538060233744426 0.0005
0.005353553390593358 0.005646446609406811 0.0005
0.005461939766255666 0.005808658283817511 0.0005
1 58 0 3
90
91
92
0.008875000000000001 0.006 0.0005
0.00775 0.006 0.0005
0.006625 0.006 0.0005
1 59 0 1
93
0.01 0.0035 0.0005
1 61 0 1
94
0 0.008500000000000001 0.0005
1 63 0 1
95
0.0025 0.011 0.0005
1 65 0 3
96
97
98
0.005 0.007625 0.0005
0.005 0.008749999999999999 0.0005
0.005 0.009874999999999998 0.0005
1 66 0 3
99
100
101
0.004808658283817622 0.006461939766255712 0.0005
0.004646446609406812 0.006353553390593359 0.0005
0.00453806023374438 0.006191341716182601 0.0005
1 67 0 3
102
103
104
0.005461939766255666 0.00619134171618249 0.0005
0.005353553390593358 0.006353553390593189 0.0005
0.005191341716182711 0.006461939766255574 0.0005
1 69 0 1
105
0.007500000000000001 0.011 0.0005
1 70 0 1
106
0.01 0.008499999999999999 0.0005
1 74 0 1
107
0.0025 0.012 0.0005
1 78 0 1
108
0.007500000000000001 0.012 0.0005
2 9 0 9
109
110
111
112
113
114
115
116
117
0.00340354517530824 0.00523149371286305 0
0.00226903011687216 0.004654329141908701 0
0.00113451505843608 0.00407716457095435 0
0.003484834957055019 0.00448483495705498 0
0.002323223304703346 0.00332322330470332 0
0.001161611652351673 0.00216161165235166 0
0.004231493712863081 0.004403545175308216 0
0.00365432914190872 0.003269030116872143 0
0.003077164570954361 0.002134515058436072 0
2 13 0 9
118
119
120
121
122
123
124
125
126
0.005768506287137033 0.00440354517530832 0
0.006345670858091356 0.003269030116872213 0
0.006922835429045678 0.002134515058436107 0
0.006515165042945019 0.004484834957055108 0
0.007676776695296679 0.003323223304703405 0
0.00883838834764834 0.002161611652351702 0
0.006596454824691749 0.005231493712863133 0
0.007730969883127834 0.004654329141908755 0
0.008865484941563917 0.004077164570954377 0
2 17 0 9
127
128
129
130
131
132
133
134
135
0.003403545175308285 0.00676850628713695 0
0.002269030116872191 0.0073456708580913 0
0.001134515058436095 0.007922835429045649 0
0.00348483495705511 0.007515165042945018 0
0.002323223304703407 0.008676776695296678 0
0.001161611652351704 0.009838388347648339 0
0.004231493712863217 0.007596454824691783 0
0.003654329141908811 0.008730969883127855 0
0.003077164570954406 0.009865484941563927 0
2 21 0 9
136
137
138
139
140
141
142
143
144
0.00659645482469175 0.006768506287136867 0
0.007730969883127834 0.007345670858091244 0
0.008865484941563917 0.007922835429045622 0
0.006515165042945019 0.007515165042944891 0
0.007676776695296678 0.008676776695296593 0
0.00883838834764834 0.009838388347648297 0
0.005768506287137033 0.00759645482469168 0
0.006345670858091355 0.008730969883127786 0
0.006922835429045678 0.009865484941563894 0
2 30 0 0
2 35 0 0
2 43 0 9
145
146
147
148
149
150
151
152
153
0.00340354517530824 0.00523149371286305 0.0005
0.00226903011687216 0.004654329141908701 0.0005
0.00113451505843608 0.00407716457095435 0.0005
0.003484834957055019 0.00448483495705498 0.0005
0.002323223304703346 0.00332322330470332 0.0005
0.001161611652351673 0.00216161165235166 0.0005
0.004231493712863081 0.004403545175308216 0.0005
0.00365432914190872 0.003269030116872143 0.0005
0.003077164570954361 0.002134515058436072 0.0005
2 47 0 9
154
155
156
157
158
159
160
161
162
0.005768506287137033 0.00440354517530832 0.0005
0.006345670858091356 0.003269030116872213 0.0005
0.006922835429045678 0.002134515058436107 0.0005
0.006515165042945019 0.004484834957055108 0.0005
0.007676776695296679 0.003323223304703405 0.0005
0.00883838834764834 0.002161611652351702 0.0005
0.006596454824691749 0.005231493712863133 0.0005
0.007730969883127834 0.004654329141908755 0.0005
0.008865484941563917 0.004077164570954377 0.0005
2 52 0 9
163
164
165
166
167
168
169
170
171
0.003403545175308285 0.00676850628713695 0.0005
0.002269030116872191 0.0073456708580913 0.0005
0.001134515058436095 0.007922835429045649 0.0005
0.00348483495705511 0.007515165042945018 0.0005
0.002323223304703407 0.008676776695296678 0.0005
0.001161611652351704 0.009838388347648339 0.0005
0.004231493712863217 0.007596454824691783 0.0005
0.003654329141908811 0.008730969883127855 0.0005
0.003077164570954406 0.009865484941563927 0.0005
2 56 0 9
172
173
174
175
176
177
178
179
180
0.00659645482469175 0.006768506287136867 0.0005
0.007730969883127834 0.007345670858091244 0.0005
0.008865484941563917 0.007922835429045622 0.0005
0.006515165042945019 0.007515165042944891 0.0005
0.007676776695296678 0.008676776695296593 0.0005
0.00883838834764834 0.009838388347648297 0.0005
0.005768506287137033 0.00759645482469168 0.0005
0.006345670858091355 0.008730969883127786 0.0005
0.006922835429045678 0.009865484941563894 0.0005
2 58 0 0
2 62 0 0
3 1 0 0
3 2 0 0
3 3 0 0
3 4 0 0
3 5 0 0
3 6 0 0
3 7 0 0
3 8 0 0
$EndNodes
$Elements
12 80 1 80
2 30 3 2
1 1 37 73 19 
2 37 2 20 73 
2 35 3 2
3 2 39 75 20 
4 39 5 23 75 
2 58 3 2
5 10 43 107 34 
6 43 11 35 107 
2 62 3 2
7 12 44 108 36 
8 44 10 34 108 
3 1 5 2
9 1 37 38 4 19 73 74 22 
10 37 2 3 38 73 20 21 74 
3 2 5 2
11 2 39 40 3 20 75 76 21 
12 39 5 6 40 75 23 24 76 
3 3 5 16
13 14 46 109 49 26 78 145 81 
14 46 47 110 109 78 79 146 145 
15 47 48 111 110 79 80 147 146 
16 48 13 45 111 80 25 77 147 
17 49 109 112 50 81 145 148 82 
18 109 110 113 112 145 146 149 148 
19 110 111 114 113 146 147 150 149 
20 111 45 4 114 147 77 22 150 
21 50 112 115 51 82 148 151 83 
22 112 113 116 115 148 149 152 151 
23 113 114 117 116 149 150 153 152 
24 114 4 38 117 150 22 74 153 
25 51 115 54 15 83 151 86 27 
26 115 116 53 54 151 152 85 86 
27 116 117 52 53 152 153 84 85 
28 117 38 3 52 153 74 21 84 
3 4 5 16
29 15 54 118 55 27 86 154 87 
30 54 53 119 118 86 85 155 154 
31 53 52 120 119 85 84 156 155 
32 52 3 40 120 84 21 76 156 
33 55 118 121 56 87 154 157 88 
34 118 119 122 121 154 155 158 157 
35 119 120 123 122 155 156 159 158 
36 120 40 6 123 156 76 24 159 
37 56 121 124 57 88 157 160 89 
38 121 122 125 124 157 158 161 160 
39 122 123 126 125 158 159 162 161 
40 123 6 61 126 159 24 93 162 
41 57 124 60 16 89 160 92 28 
42 124 125 59 60 160 161 91 92 
43 125 126 58 59 161 162 90 91 
44 126 61 17 58 162 93 29 90 
3 5 5 16
45 14 68 127 46 26 101 163 78 
46 46 127 128 47 78 163 164 79 
47 47 128 129 48 79 164 165 80 
48 48 129 62 13 80 165 94 25 
49 68 67 130 127 101 100 166 163 
50 127 130 131 128 163 166 167 164 
51 128 131 132 129 164 167 168 165 
52 129 132 8 62 165 168 30 94 
53 67 66 133 130 100 99 169 166 
54 130 133 134 131 166 169 170 167 
55 131 134 135 132 167 170 171 168 
56 132 135 41 8 168 171 95 30 
57 66 18 63 133 99 32 96 169 
58 133 63 64 134 169 96 97 170 
59 134 64 65 135 170 97 98 171 
60 135 65 7 41 171 98 31 95 
3 6 5 16
61 16 60 136 69 28 92 172 102 
62 60 59 137 136 92 91 173 172 
63 59 58 138 137 91 90 174 173 
64 58 17 72 138 90 29 106 174 
65 69 136 139 70 102 172 175 103 
66 136 137 140 139 172 173 176 175 
67 137 138 141 140 173 174 177 176 
68 138 72 9 141 174 106 33 177 
69 70 139 142 71 103 175 178 104 
70 139 140 143 142 175 176 179 178 
71 140 141 144 143 176 177 180 179 
72 141 9 42 144 177 33 105 180 
73 71 142 63 18 104 178 96 32 
74 142 143 64 63 178 179 97 96 
75 143 144 65 64 179 180 98 97 
76 144 42 7 65 180 105 31 98 
3 7 5 2
77 8 41 43 11 30 95 107 35 
78 41 7 10 43 95 31 34 107 
3 8 5 2
79 7 42 44 10 31 105 108 34 
80 42 9 12 44 105 33 36 108 
$EndElements
