$MeshFormat
4.1 0 8
$EndMeshFormat
$PhysicalNames
3
2 1 "bc-top"
2 2 "bc-bot"
3 3 "vol"
$EndPhysicalNames
$Entities
10 15 7 1
1 0 0 0.0005 0 
2 0 0 0 0 
3 0 0.012 0.0005 0 
4 0 0.012 0 0 
5 0.01 0 0 0 
6 0.01 0 0.0005 0 
7 0.01 0.012 0.0005 0 
8 0.006666666666666667 0.005999999999999999 0.0005 0 
9 0.01 0.012 0 0 
10 0.006666666666666667 0.005999999999999999 0 0 
1 -1e-07 -1e-07 -1.000000000000024e-07 1e-07 1e-07 0.0005001 0 2 2 -1 
2 -1e-07 -1.000000000002735e-07 0.0004999000000000001 1e-07 0.0120001 0.0005001 0 2 1 -3 
3 -1e-07 0.0119999 -1.000000000000024e-07 1e-07 0.0120001 0.0005001 0 2 4 -3 
4 -1e-07 -1.000000000002735e-07 -1e-07 1e-07 0.0120001 1e-07 0 2 2 -4 
5 -1.000000000002735e-07 -1e-07 -1e-07 0.0100001 1e-07 1e-07 0 2 2 -5 
6 0.009999900000000001 -1e-07 -1.000000000000024e-07 0.0100001 1e-07 0.0005001 0 2 5 -6 
7 -1.000000000002735e-07 -1e-07 0.0004999000000000001 0.0100001 1e-07 0.0005001 0 2 1 -6 
8 -1.000000000002735e-07 0.0119999 0.0004999000000000001 0.0100001 0.0120001 0.0005001 0 2 3 -7 
9 0.009999900000000001 -1.000000000002735e-07 0.0004999000000000001 0.0100001 0.0120001 0.0005001 0 2 6 -7 
10 0.003333233333333333 0.004333233333333333 0.0004999000000000001 0.006666766666666667 0.007666766666666667 0.0005001 0 2 8 -8 
11 -1.000000000002735e-07 0.0119999 -1e-07 0.0100001 0.0120001 1e-07 0 2 4 -9 
12 0.009999900000000001 0.0119999 -1.000000000000024e-07 0.0100001 0.0120001 0.0005001 0 2 9 -7 
13 0.009999900000000001 -1.000000000002735e-07 -1e-07 0.0100001 0.0120001 1e-07 0 2 5 -9 
14 0.003333233333333333 0.004333233333333333 -1e-07 0.006666766666666667 0.007666766666666667 1e-07 0 2 10 -10 
15 0.006666566666666667 0.005999899999999999 -1.000000000000024e-07 0.006666766666666667 0.0060001 0.0005001 0 2 10 -8 
1 -1e-07 -1.000000000002735e-07 -1.000000000000024e-07 1e-07 0.0120001 0.0005001 0 4 -1 4 3 -2 
2 -1.000000000002735e-07 -1e-07 -1.000000000000024e-07 0.0100001 1e-07 0.0005001 1 2 4 -5 1 7 -6 
3 -1.000000000002735e-07 -1.000000000002735e-07 0.0004999000000000001 0.0100001 0.0120001 0.0005001 0 5 -2 7 9 -8 -10 
4 -1.000000000002735e-07 0.0119999 -1.000000000000024e-07 0.0100001 0.0120001 0.0005001 1 1 4 -11 3 8 -12 
5 -1.000000000002735e-07 -1.000000000002735e-07 -1e-07 0.0100001 0.0120001 1e-07 0 5 -4 5 13 -11 -14 
6 0.009999900000000001 -1.000000000002735e-07 -1.000000000000024e-07 0.0100001 0.0120001 0.0005001 0 4 -6 13 12 -9 
7 0.003333233333333333 0.004333233333333333 -1.000000000000024e-07 0.006666766666666667 0.007666766666666667 0.0005001 0 4 -10 -15 14 15 
1 -1.000000000002735e-07 -1.000000000002735e-07 -1.000000000000024e-07 0.0100001 0.0120001 0.0005001 1 3 7 -1 -2 3 4 -5 6 -7 
$EndEntities
$Nodes
33 992 1 992
0 1 0 1
1
0 0 0.0005
0 2 0 1
2
0 0 0
0 3 0 1
3
0 0.012 0.0005
0 4 0 1
4
0 0.012 0
0 5 0 1
5
0.01 0 0
0 6 0 1
6
0.01 0 0.0005
0 7 0 1
7
0.01 0.012 0.0005
0 8 0 1
8
0.006666666666666667 0.005999999999999999 0.0005
0 9 0 1
9
0.01 0.012 0
0 10 0 1
10
0.006666666666666667 0.005999999999999999 0
1 1 0 1
11
0 0 0.00025
1 2 0 15
12
13
14
15
16
17
18
19
20
21
22
23
24
25
26
0 0.001499999999999999 0.0005
0 0.002999999999999999 0.0005
0 0.0045 0.0005
0 0.005999999999999999 0.0005
0 0.007499999999999999 0.0005
0 0.009000000000000001 0.0005
0 0.0105 0.0005
0 0.0007499999999999997 0.0005
0 0.002249999999999999 0.0005
0 0.003749999999999999 0.0005
0 0.005249999999999999 0.0005
0 0.006749999999999999 0.0005
0 0.00825 0.0005
0 0.009750000000000002 0.0005
0 0.01125 0.0005
1 3 0 1
27
0 0.012 0.00025
1 4 0 15
28
29
30
31
32
33
34
35
36
37
38
39
40
41
42
0 0.001499999999999999 0
0 0.002999999999999999 0
0 0.0045 0
0 0.005999999999999999 0
0 0.007499999999999999 0
0 0.009000000000000001 0
0 0.0105 0
0 0.0007499999999999997 0
0 0.002249999999999999 0
0 0.003749999999999999 0
0 0.005249999999999999 0
0 0.006749999999999999 0
0 0.00825 0
0 0.009750000000000002 0
0 0.01125 0
1 5 0 13
43
44
45
46
47
48
49
50
51
52
53
54
55
0.001428571428571426 0 0
0.00285714285714285 0 0
0.004285714285714274 0 0
0.005714285714285699 0 0
0.00714285714285713 0 0
0.008571428571428565 0 0
0.0007142857142857131 0 0
0.002142857142857138 0 0
0.003571428571428562 0 0
0.004999999999999986 0 0
0.006428571428571414 0 0
0.007857142857142847 0 0
0.009285714285714283 0 0
1 6 0 1
56
0.01 0 0.00025
1 7 0 13
57
58
59
60
61
62
63
64
65
66
67
68
69
0.001428571428571426 0 0.0005
0.00285714285714285 0 0.0005
0.004285714285714274 0 0.0005
0.005714285714285699 0 0.0005
0.00714285714285713 0 0.0005
0.008571428571428565 0 0.0005
0.0007142857142857131 0 0.0005
0.002142857142857138 0 0.0005
0.003571428571428562 0 0.0005
0.004999999999999986 0 0.0005
0.006428571428571414 0 0.0005
0.007857142857142847 0 0.0005
0.009285714285714283 0 0.0005
1 8 0 13
70
71
72
73
74
75
76
77
78
79
80
81
82
0.001428571428571426 0.012 0.0005
0.00285714285714285 0.012 0.0005
0.004285714285714274 0.012 0.0005
0.005714285714285699 0.012 0.0005
0.00714285714285713 0.012 0.0005
0.008571428571428565 0.012 0.0005
0.0007142857142857131 0.012 0.0005
0.002142857142857138 0.012 0.0005
0.003571428571428562 0.012 0.0005
0.004999999999999986 0.012 0.0005
0.006428571428571414 0.012 0.0005
0.007857142857142847 0.012 0.0005
0.009285714285714283 0.012 0.0005
1 9 0 15
83
84
85
86
87
88
89
90
91
92
93
94
95
96
97
0.01 0.001499999999999999 0.0005
0.01 0.002999999999999999 0.0005
0.01 0.0045 0.0005
0.01 0.005999999999999999 0.0005
0.01 0.007499999999999999 0.0005
0.01 0.009000000000000001 0.0005
0.01 0.0105 0.0005
0.01 0.0007499999999999997 0.0005
0.01 0.002249999999999999 0.0005
0.01 0.003749999999999999 0.0005
0.01 0.005249999999999999 0.0005
0.01 0.006749999999999999 0.0005
0.01 0.00825 0.0005
0.01 0.009750000000000002 0.0005
0.01 0.01125 0.0005
1 10 0 13
98
99
100
101
102
103
104
105
106
107
108
109
110
0.006039149669764557 0.007303052470780049 0.0005
0.004629131776739481 0.007624879853636374 0.0005
0.003498385220162637 0.006723139565195934 0.0005
0.003498385220162633 0.005276860434804072 0.0005
0.004629131776739471 0.004375120146363628 0.0005
0.006039149669764553 0.004696947529219948 0.0005
0.006501614779837366 0.006723139565195929 0.0005
0.005370868223260527 0.007624879853636372 0.0005
0.003960850330235448 0.007303052470780053 0.0005
0.003333333333333333 0.006000000000000004 0.0005
0.003960850330235442 0.004696947529219953 0.0005
0.005370868223260519 0.004375120146363626 0.0005
0.006501614779837364 0.005276860434804068 0.0005
1 11 0 13
111
112
113
114
115
116
117
118
119
120
121
122
123
0.001428571428571426 0.012 0
0.00285714285714285 0.012 0
0.004285714285714274 0.012 0
0.005714285714285699 0.012 0
0.00714285714285713 0.012 0
0.008571428571428565 0.012 0
0.0007142857142857131 0.012 0
0.002142857142857138 0.012 0
0.003571428571428562 0.012 0
0.004999999999999986 0.012 0
0.006428571428571414 0.012 0
0.007857142857142847 0.012 0
0.009285714285714283 0.012 0
1 12 0 1
124
0.01 0.012 0.00025
1 13 0 15
125
126
127
128
129
130
131
132
133
134
135
136
137
138
139
0.01 0.001499999999999999 0
0.01 0.002999999999999999 0
0.01 0.0045 0
0.01 0.005999999999999999 0
0.01 0.007499999999999999 0
0.01 0.009000000000000001 0
0.01 0.0105 0
0.01 0.0007499999999999997 0
0.01 0.002249999999999999 0
0.01 0.003749999999999999 0
0.01 0.005249999999999999 0
0.01 0.006749999999999999 0
0.01 0.00825 0
0.01 0.009750000000000002 0
0.01 0.01125 0
1 14 0 13
140
141
142
143
144
145
146
147
148
149
150
151
152
0.006039149669764557 0.007303052470780049 0
0.004629131776739481 0.007624879853636374 0
0.003498385220162637 0.006723139565195934 0
0.003498385220162633 0.005276860434804072 0
0.004629131776739471 0.004375120146363628 0
0.006039149669764553 0.004696947529219948 0
0.006501614779837366 0.006723139565195929 0
0.005370868223260527 0.007624879853636372 0
0.003960850330235448 0.007303052470780053 0
0.003333333333333333 0.006000000000000004 0
0.003960850330235442 0.004696947529219953 0
0.005370868223260519 0.004375120146363626 0
0.006501614779837364 0.005276860434804068 0
1 15 0 1
153
0.006666666666666667 0.005999999999999999 0.00025
2 1 0 15
154
155
156
157
158
159
160
161
162
163
164
165
166
167
168
0 0.0007499999999999997 0.00025
0 0.001499999999999999 0.00025
0 0.01125 0.00025
0 0.0105 0.00025
0 0.002249999999999999 0.00025
0 0.002999999999999999 0.00025
0 0.003749999999999999 0.00025
0 0.005249999999999999 0.00025
0 0.005999999999999999 0.00025
0 0.0045 0.00025
0 0.006749999999999999 0.00025
0 0.007499999999999999 0.00025
0 0.00825 0.00025
0 0.009000000000000001 0.00025
0 0.009750000000000002 0.00025
2 2 0 13
169
170
171
172
173
174
175
176
177
178
179
180
181
0.0007142857142857131 0 0.00025
0.001428571428571426 0 0.00025
0.009285714285714283 0 0.00025
0.008571428571428565 0 0.00025
0.002142857142857138 0 0.00025
0.003571428571428562 0 0.00025
0.00285714285714285 0 0.00025
0.004999999999999986 0 0.00025
0.005714285714285699 0 0.00025
0.004285714285714274 0 0.00025
0.006428571428571414 0 0.00025
0.00714285714285713 0 0.00025
0.007857142857142847 0 0.00025
2 3 0 245
182
183
184
185
186
187
188
189
190
191
192
193
194
195
196
197
198
199
200
201
202
203
204
205
206
207
208
209
210
211
212
213
214
215
216
217
218
219
220
221
222
223
224
225
226
227
228
229
230
231
232
233
234
235
236
237
238
239
240
241
242
243
244
245
246
247
248
249
250
251
252
253
254
255
256
257
258
259
260
261
262
263
264
265
266
267
268
269
270
271
272
273
274
275
276
277
278
279
280
281
282
283
284
285
286
287
288
289
290
291
292
293
294
295
296
297
298
299
300
301
302
303
304
305
306
307
308
309
310
311
312
313
314
315
316
317
318
319
320
321
322
323
324
325
326
327
328
329
330
331
332
333
334
335
336
337
338
339
340
341
342
343
344
345
346
347
348
349
350
351
352
353
354
355
356
357
358
359
360
361
362
363
364
365
366
367
368
369
370
371
372
373
374
375
376
377
378
379
380
381
382
383
384
385
386
387
388
389
390
391
392
393
394
395
396
397
398
399
400
401
402
403
404
405
406
407
408
409
410
411
412
413
414
415
416
417
418
419
420
421
422
423
424
425
426
0.003320375132317399 0.008159849736182088 0.0005
0.003320375132317388 0.003840150263817919 0.0005
0.006344924250093918 0.01092714741671674 0.0005
0.006284973112463552 0.001099880249838465 0.0005
0.002142857142857138 0.01076282085173652 0.0005
0.002142857142857139 0.00123717914826348 0.0005
0.008657555544340839 0.008267499641499008 0.0005
0.008740776797208361 0.0036888674258048 0.0005
0.004383888244012238 0.002927445940305497 0.0005
0.004396187740800901 0.009057677627923135 0.0005
0.002369706110005988 0.006000000000000004 0.0005
0.001196281826776267 0.008180716637104292 0.0005
0.001196281826776266 0.003819283362895712 0.0005
0.007526287466793982 0.007154814355062303 0.0005
0.007089519041815063 0.008420190611650715 0.0005
0.007973272786700441 0.009595816318575879 0.0005
0.008222873541031865 0.005916124798996744 0.0005
0.002976609526295308 0.009692758691354608 0.0005
0.004239182986551073 0.0104494550522199 0.0005
0.002974852455325493 0.002305116104106626 0.0005
0.00423684022525799 0.001547711341728408 0.0005
0.008818315655513723 0.002246056474497268 0.0005
0.00766206798507727 0.002944486736788085 0.0005
0.007555329797254721 0.004560021104695706 0.0005
0.001343369902748852 0.009682074410487792 0.0005
0.001343190609792748 0.00231770873190621 0.0005
0.007752941122972949 0.001301678660693444 0.0005
0.001196120174439597 0.005320469114699346 0.0005
0.001192575371285282 0.006714845806236523 0.0005
0.005376396233377474 0.002048339274661908 0.0005
0.005598480850560629 0.003356989957758154 0.0005
0.005418562389252323 0.009937923971484743 0.0005
0.007613649612033622 0.01075569173356358 0.0005
0.005727518614705393 0.008667685933891334 0.0005
0.008881343310433337 0.006967687759111611 0.0005
0.002337922884171504 0.007382123385169091 0.0005
0.002316345191769886 0.004586068715165455 0.0005
0.008903796027098988 0.00493300266589945 0.0005
0.006694574449100125 0.009717409330980496 0.0005
0.008853159460732354 0.01068956831654969 0.0005
0.008940484237902476 0.001078790521725533 0.0005
0.005179641914219798 0.0009391861732457563 0.0005
0.006482264863331623 0.002367676380211486 0.0005
0.005200533925179458 0.01106290528808428 0.0005
0.001032759405215087 0.001053308277075593 0.0005
0.001032759405215089 0.01094669172292441 0.0005
0.002275217568317659 0.008678694602997413 0.0005
0.002272818174814846 0.003317820707021957 0.0005
0.003213887650078154 0.01096924719892448 0.0005
0.003213887650078147 0.00103075280107551 0.0005
0.009057885625748089 0.00951781256727743 0.0005
0.006676775556522461 0.003689658566672607 0.0005
0.0005163797026075433 0.0005266541385377966 0.0005
0.0005163797026075433 0.001276654138537796 0.0005
0.001230665416893256 0.0005266541385377966 0.0005
0.0005163797026075443 0.0107233458614622 0.0005
0.0005163797026075443 0.0114733458614622 0.0005
0.001230665416893257 0.0114733458614622 0.0005
0.009470242118951238 0.0005393952608627665 0.0005
0.00875595640466552 0.0005393952608627665 0.0005
0.009470242118951238 0.001289395260862766 0.0005
0.008712294016080459 0.01134478415827485 0.0005
0.009426579730366178 0.01134478415827485 0.0005
0.009426579730366178 0.01059478415827485 0.0005
0.007096477066730325 0.006577407177531152 0.0005
0.006782718568279269 0.007228933412921176 0.0005
0.006797239733509637 0.004628484316957827 0.0005
0.007110998231960694 0.005280010552347853 0.0005
0.007444770103849266 0.005958062399498372 0.0005
0.007874580503912924 0.006535469577029523 0.0005
0.007889101669143294 0.005238072951846225 0.0005
0.0006715953048963739 0.001908854365953105 0.0005
0.0006715953048963739 0.002658854365953105 0.0005
0.001187975007503917 0.001685508504490902 0.0005
0.000598140913388133 0.003409641681447856 0.0005
0.000598140913388133 0.004159641681447856 0.0005
0.001269736218284507 0.003068496047400961 0.0005
0.0005980600872197986 0.004910234557349673 0.0005
0.0005980600872197986 0.005660234557349673 0.0005
0.001196201000607932 0.004569876238797529 0.0005
0.0005962876856426412 0.006357422903118261 0.0005
0.0005962876856426412 0.007107422903118261 0.0005
0.00119434777286244 0.006017657460467935 0.0005
0.0005981409133881333 0.007840358318552145 0.0005
0.0005981409133881333 0.008590358318552146 0.0005
0.001194428599030775 0.007447781221670408 0.0005
0.0006716849513744262 0.009341037205243896 0.0005
0.0006716849513744262 0.0100910372052439 0.0005
0.001269825864762559 0.008931395523796043 0.0005
0.001188064653981971 0.0103143830667061 0.0005
0.002499999999999994 0.0006185895741317398 0.0005
0.001785714285714282 0.0006185895741317398 0.0005
0.001587808274036113 0.001145243712669536 0.0005
0.00374980096789621 0.0005153764005377552 0.0005
0.003035515253610499 0.0005153764005377552 0.0005
0.002678372396467643 0.001133965974669495 0.0005
0.005446963814252748 0.0004695930866228782 0.0005
0.004732678099967035 0.0004695930866228782 0.0005
0.004708241069738894 0.001243448757487082 0.0005
0.004261277255486131 0.000773855670864204 0.0005
0.003725363937668068 0.001289232071401959 0.0005
0.006713915127660341 0.0005499401249192326 0.0005
0.005999629413374626 0.0005499401249192326 0.0005
0.005732307513341675 0.001019533211542111 0.0005
0.008162184847200757 0.0006508393303467219 0.0005
0.007447899132915039 0.0006508393303467219 0.0005
0.00701895711771825 0.001200779455265955 0.0005
0.008346712680437712 0.001190234591209489 0.0005
0.001785714285714282 0.01138141042586826 0.0005
0.002499999999999994 0.01138141042586826 0.0005
0.001587808274036113 0.01085475628733047 0.0005
0.003035515253610502 0.01148462359946224 0.0005
0.003749800967896214 0.01148462359946224 0.0005
0.002678372396467646 0.0108660340253305 0.0005
0.004743124105446866 0.01153145264404214 0.0005
0.005457409819732579 0.01153145264404214 0.0005
0.004719858455865265 0.01075618017015209 0.0005
0.004262448636132673 0.01122472752610995 0.0005
0.003726535318314613 0.01070935112557219 0.0005
0.006029604982189808 0.01146357370835837 0.0005
0.006743890696475524 0.01146357370835837 0.0005
0.005772729087636688 0.01099502635240051 0.0005
0.007378253377445376 0.01137784586678179 0.0005
0.008092539091731094 0.01137784586678179 0.0005
0.00697928693106377 0.01084141957514016 0.0005
0.008233404536382988 0.01072263002505664 0.0005
0.009409157827756861 0.002623028237248633 0.0005
0.009409157827756861 0.001873028237248634 0.0005
0.0088793999467081 0.0016624234981114 0.0005
0.009370388398604181 0.0040944337129024 0.0005
0.009370388398604181 0.003344433712902399 0.0005
0.008779546226361042 0.002967461950151034 0.0005
0.009451898013549495 0.005466501332949725 0.0005
0.009451898013549495 0.004716501332949725 0.0005
0.008822286412153674 0.004310935045852125 0.0005
0.009440671655216669 0.007233843879555805 0.0005
0.009440671655216669 0.006483843879555804 0.0005
0.008552108425732601 0.006441906279054177 0.0005
0.009111436770515933 0.005958062399498372 0.0005
0.008563334784065426 0.005424563732448097 0.0005
0.00932877777217042 0.008633749820749504 0.0005
0.00932877777217042 0.007883749820749504 0.0005
0.008769449427387088 0.007617593700305309 0.0005
0.009528942812874044 0.01000890628363871 0.0005
0.009528942812874044 0.009258906283638716 0.0005
0.008857720585044464 0.008892656104388219 0.0005
0.008955522543240221 0.01010369044191356 0.0005
0.005883334142234974 0.007985369202335692 0.0005
0.005178325195722437 0.008146282893763854 0.0005
0.007307903254304522 0.007787502483356509 0.0005
0.00656433435578981 0.007861621541215382 0.0005
0.006408518828260228 0.008543938272771025 0.0005
0.00397475345452844 0.007892364794909231 0.0005
0.003409380176240017 0.007441494650689011 0.0005
0.004512659758770191 0.008341278740779754 0.0005
0.00385828143655915 0.008608763682052611 0.0005
0.005061853177753147 0.008862681780907235 0.0005
0.002934045665084312 0.006361569782597968 0.0005
0.002934045665084311 0.005638430217402038 0.0005
0.002829149008244452 0.00777098656067559 0.0005
0.00291815405216707 0.007052631475182512 0.0005
0.002353814497088746 0.006691061692584547 0.0005
0.003409380176240011 0.004558505349310996 0.0005
0.00397475345452843 0.004107635205090773 0.0005
0.00290736520596626 0.004931464574984764 0.0005
0.002818360162043637 0.004213109489491687 0.0005
0.002343025650887937 0.005293034357582729 0.0005
0.005113806313650051 0.003866055052060891 0.0005
0.005818815260162591 0.004026968743489051 0.0005
0.003852131688164813 0.003383798102061708 0.0005
0.004506510010375855 0.003651283043334563 0.0005
0.004991184547286434 0.003142217949031826 0.0005
0.006357962613143507 0.004193303047946278 0.0005
0.007116052676888591 0.004124839835684156 0.0005
0.006137628203541546 0.003523324262215381 0.0005
0.003686398633548104 0.009375218159638873 0.0005
0.003148492329306353 0.008926304213768348 0.0005
0.002625913547306484 0.009185726647176011 0.0005
0.002797796350317529 0.00841927216958975 0.0005
0.002306570226244582 0.008030408994083253 0.0005
0.00314761379382144 0.003072633183962272 0.0005
0.003679370349668865 0.002616281022206061 0.0005
0.002796596653566117 0.003578985485419938 0.0005
0.002623835315070169 0.002811468405564291 0.0005
0.002294581683292366 0.003951944711093705 0.0005
0.006056568419176224 0.009827666651232619 0.0005
0.006519749349597022 0.01032227837384862 0.0005
0.00588174331967312 0.01043253569410074 0.0005
0.00530954815721589 0.01050041462978451 0.0005
0.007154112030566873 0.01023655053227204 0.0005
0.007117602993152286 0.001834677520452465 0.0005
0.006383618987897587 0.001733778315024976 0.0005
0.005278019073798636 0.001493762723953832 0.0005
0.005830684672920513 0.001574109762250187 0.0005
0.005929330548354548 0.002208007827436697 0.0005
0.001743113522802995 0.01022244763111216 0.0005
0.00215998971452208 0.0096874165509212 0.0005
0.002559733334576223 0.01022778977154556 0.0005
0.003095248588186731 0.01033100294513955 0.0005
0.002159021532559121 0.002311412418006418 0.0005
0.001743023876324943 0.001777443940084845 0.0005
0.002558854799091316 0.001771147626185052 0.0005
0.00309437005270182 0.001667934452591068 0.0005
0.007873537293077951 0.008343845126574861 0.0005
0.008091921505567409 0.007711156998280655 0.0005
0.008203815388613658 0.007061251057086957 0.0005
0.008315414165520639 0.008931657980037443 0.0005
0.007531395914257752 0.009008003465113297 0.0005
0.008515579206224266 0.009556814442926654 0.0005
0.008201422391142816 0.003316677081296443 0.0005
0.008240191820295496 0.002595271605642676 0.0005
0.00814805329723154 0.004124444265250253 0.0005
0.007608698891165996 0.003752253920741896 0.0005
0.008229562912176854 0.004746511885297578 0.0005
0.003605846340291741 0.001926413722917517 0.0005
0.004310364234635114 0.002237578641016953 0.0005
0.004806618229317732 0.001798025308195158 0.0005
0.004880142238694856 0.002487892607483703 0.0005
0.005487438541969052 0.002702664616210031 0.0005
0.004317685363675987 0.009753566340071518 0.0005
0.00360789625642319 0.01007110687178725 0.0005
0.004907375065026612 0.009497800799703939 0.0005
0.004828872687901698 0.01019368951185232 0.0005
0.005573040501978857 0.009302804952688037 0.0005
0.001781140740645635 0.006357422903118264 0.0005
0.001782913142222793 0.005660234557349675 0.0005
0.001756232683104742 0.004953268914932401 0.0005
0.001765249127728393 0.007048484595702807 0.0005
0.001735749697546963 0.008429705620050854 0.0005
0.001809293735533256 0.009180384506742603 0.0005
0.001767102355473886 0.007781420011136691 0.0005
0.001808004392303797 0.002817764719464083 0.0005
0.001734550000795556 0.003568552034958834 0.0005
0.001756313509273076 0.004202676039030583 0.0005
0.007333923617900283 0.009656612824778189 0.0005
0.006892046745457594 0.009068799971315607 0.0005
0.006211046531902759 0.009192547632435915 0.0005
0.007793461199367031 0.01017575402606973 0.0005
0.008413216123716398 0.01014269231756279 0.0005
0.007707504554025109 0.002123082698740765 0.0005
0.008285628389243335 0.001773867567595356 0.0005
0.007169421770799865 0.003317072651730346 0.0005
0.007072166424204446 0.002656081558499786 0.0005
0.006579520209927042 0.003028667473442046 0.0005
0.006040372856946126 0.00286233316898482 0.0005
2 4 0 13
427
428
429
430
431
432
433
434
435
436
437
438
439
0.0007142857142857131 0.012 0.00025
0.001428571428571426 0.012 0.00025
0.009285714285714283 0.012 0.00025
0.008571428571428565 0.012 0.00025
0.00285714285714285 0.012 0.00025
0.002142857142857138 0.012 0.00025
0.004285714285714274 0.012 0.00025
0.003571428571428562 0.012 0.00025
0.004999999999999986 0.012 0.00025
0.006428571428571414 0.012 0.00025
0.005714285714285699 0.012 0.00025
0.007857142857142847 0.012 0.00025
0.00714285714285713 0.012 0.00025
2 5 0 245
440
441
442
443
444
445
446
447
448
449
450
451
452
453
454
455
456
457
458
459
460
461
462
463
464
465
466
467
468
469
470
471
472
473
474
475
476
477
478
479
480
481
482
483
484
485
486
487
488
489
490
491
492
493
494
495
496
497
498
499
500
501
502
503
504
505
506
507
508
509
510
511
512
513
514
515
516
517
518
519
520
521
522
523
524
525
526
527
528
529
530
531
532
533
534
535
536
537
538
539
540
541
542
543
544
545
546
547
548
549
550
551
552
553
554
555
556
557
558
559
560
561
562
563
564
565
566
567
568
569
570
571
572
573
574
575
576
577
578
579
580
581
582
583
584
585
586
587
588
589
590
591
592
593
594
595
596
597
598
599
600
601
602
603
604
605
606
607
608
609
610
611
612
613
614
615
616
617
618
619
620
621
622
623
624
625
626
627
628
629
630
631
632
633
634
635
636
637
638
639
640
641
642
643
644
645
646
647
648
649
650
651
652
653
654
655
656
657
658
659
660
661
662
663
664
665
666
667
668
669
670
671
672
673
674
675
676
677
678
679
680
681
682
683
684
0.003320375132317399 0.008159849736182088 0
0.003320375132317388 0.003840150263817919 0
0.006344924250093918 0.01092714741671674 0
0.006284973112463552 0.001099880249838465 0
0.002142857142857138 0.01076282085173652 0
0.002142857142857139 0.00123717914826348 0
0.008657555544340839 0.008267499641499008 0
0.008740776797208361 0.0036888674258048 0
0.004383888244012238 0.002927445940305497 0
0.004396187740800901 0.009057677627923135 0
0.002369706110005988 0.006000000000000004 0
0.001196281826776267 0.008180716637104292 0
0.001196281826776266 0.003819283362895712 0
0.007526287466793982 0.007154814355062303 0
0.007089519041815063 0.008420190611650715 0
0.007973272786700441 0.009595816318575879 0
0.008222873541031865 0.005916124798996744 0
0.002976609526295308 0.009692758691354608 0
0.004239182986551073 0.0104494550522199 0
0.002974852455325493 0.002305116104106626 0
0.00423684022525799 0.001547711341728408 0
0.008818315655513723 0.002246056474497268 0
0.00766206798507727 0.002944486736788085 0
0.007555329797254721 0.004560021104695706 0
0.001343369902748852 0.009682074410487792 0
0.001343190609792748 0.00231770873190621 0
0.007752941122972949 0.001301678660693444 0
0.001196120174439597 0.005320469114699346 0
0.001192575371285282 0.006714845806236523 0
0.005376396233377474 0.002048339274661908 0
0.005598480850560629 0.003356989957758154 0
0.005418562389252323 0.009937923971484743 0
0.007613649612033622 0.01075569173356358 0
0.005727518614705393 0.008667685933891334 0
0.008881343310433337 0.006967687759111611 0
0.002337922884171504 0.007382123385169091 0
0.002316345191769886 0.004586068715165455 0
0.008903796027098988 0.00493300266589945 0
0.006694574449100125 0.009717409330980496 0
0.008853159460732354 0.01068956831654969 0
0.008940484237902476 0.001078790521725533 0
0.005179641914219798 0.0009391861732457563 0
0.006482264863331623 0.002367676380211486 0
0.005200533925179458 0.01106290528808428 0
0.001032759405215087 0.001053308277075593 0
0.001032759405215089 0.01094669172292441 0
0.002275217568317659 0.008678694602997413 0
0.002272818174814846 0.003317820707021957 0
0.003213887650078154 0.01096924719892448 0
0.003213887650078147 0.00103075280107551 0
0.009057885625748089 0.00951781256727743 0
0.006676775556522461 0.003689658566672607 0
0.0005163797026075433 0.001276654138537796 0
0.0005163797026075433 0.0005266541385377966 0
0.001230665416893256 0.0005266541385377966 0
0.0005163797026075443 0.0114733458614622 0
0.0005163797026075443 0.0107233458614622 0
0.001230665416893257 0.0114733458614622 0
0.00875595640466552 0.0005393952608627665 0
0.009470242118951238 0.0005393952608627665 0
0.009470242118951238 0.001289395260862766 0
0.009426579730366178 0.01134478415827485 0
0.008712294016080459 0.01134478415827485 0
0.009426579730366178 0.01059478415827485 0
0.006782718568279269 0.007228933412921176 0
0.007096477066730325 0.006577407177531152 0
0.007110998231960694 0.005280010552347853 0
0.006797239733509637 0.004628484316957827 0
0.007874580503912924 0.006535469577029523 0
0.007444770103849266 0.005958062399498372 0
0.007889101669143294 0.005238072951846225 0
0.0006715953048963739 0.002658854365953105 0
0.0006715953048963739 0.001908854365953105 0
0.001187975007503917 0.001685508504490902 0
0.000598140913388133 0.004159641681447856 0
0.000598140913388133 0.003409641681447856 0
0.001269736218284507 0.003068496047400961 0
0.0005980600872197986 0.005660234557349673 0
0.0005980600872197986 0.004910234557349673 0
0.001196201000607932 0.004569876238797529 0
0.0005962876856426412 0.007107422903118261 0
0.0005962876856426412 0.006357422903118261 0
0.00119434777286244 0.006017657460467935 0
0.0005981409133881333 0.008590358318552146 0
0.0005981409133881333 0.007840358318552145 0
0.001194428599030775 0.007447781221670408 0
0.0006716849513744262 0.0100910372052439 0
0.0006716849513744262 0.009341037205243896 0
0.001269825864762559 0.008931395523796043 0
0.001188064653981971 0.0103143830667061 0
0.001785714285714282 0.0006185895741317398 0
0.002499999999999994 0.0006185895741317398 0
0.001587808274036113 0.001145243712669536 0
0.003035515253610499 0.0005153764005377552 0
0.00374980096789621 0.0005153764005377552 0
0.002678372396467643 0.001133965974669495 0
0.004732678099967035 0.0004695930866228782 0
0.005446963814252748 0.0004695930866228782 0
0.004261277255486131 0.000773855670864204 0
0.004708241069738894 0.001243448757487082 0
0.003725363937668068 0.001289232071401959 0
0.005999629413374626 0.0005499401249192326 0
0.006713915127660341 0.0005499401249192326 0
0.005732307513341675 0.001019533211542111 0
0.007447899132915039 0.0006508393303467219 0
0.008162184847200757 0.0006508393303467219 0
0.00701895711771825 0.001200779455265955 0
0.008346712680437712 0.001190234591209489 0
0.002499999999999994 0.01138141042586826 0
0.001785714285714282 0.01138141042586826 0
0.001587808274036113 0.01085475628733047 0
0.003749800967896214 0.01148462359946224 0
0.003035515253610502 0.01148462359946224 0
0.002678372396467646 0.0108660340253305 0
0.005457409819732579 0.01153145264404214 0
0.004743124105446866 0.01153145264404214 0
0.004262448636132673 0.01122472752610995 0
0.004719858455865265 0.01075618017015209 0
0.003726535318314613 0.01070935112557219 0
0.006743890696475524 0.01146357370835837 0
0.006029604982189808 0.01146357370835837 0
0.005772729087636688 0.01099502635240051 0
0.008092539091731094 0.01137784586678179 0
0.007378253377445376 0.01137784586678179 0
0.00697928693106377 0.01084141957514016 0
0.008233404536382988 0.01072263002505664 0
0.009409157827756861 0.001873028237248634 0
0.009409157827756861 0.002623028237248633 0
0.0088793999467081 0.0016624234981114 0
0.009370388398604181 0.003344433712902399 0
0.009370388398604181 0.0040944337129024 0
0.008779546226361042 0.002967461950151034 0
0.009451898013549495 0.004716501332949725 0
0.009451898013549495 0.005466501332949725 0
0.008822286412153674 0.004310935045852125 0
0.009440671655216669 0.006483843879555804 0
0.009440671655216669 0.007233843879555805 0
0.009111436770515933 0.005958062399498372 0
0.008552108425732601 0.006441906279054177 0
0.008563334784065426 0.005424563732448097 0
0.00932877777217042 0.007883749820749504 0
0.00932877777217042 0.008633749820749504 0
0.008769449427387088 0.007617593700305309 0
0.009528942812874044 0.009258906283638716 0
0.009528942812874044 0.01000890628363871 0
0.008857720585044464 0.008892656104388219 0
0.008955522543240221 0.01010369044191356 0
0.005178325195722437 0.008146282893763854 0
0.005883334142234974 0.007985369202335692 0
0.00656433435578981 0.007861621541215382 0
0.007307903254304522 0.007787502483356509 0
0.006408518828260228 0.008543938272771025 0
0.003409380176240017 0.007441494650689011 0
0.00397475345452844 0.007892364794909231 0
0.00385828143655915 0.008608763682052611 0
0.004512659758770191 0.008341278740779754 0
0.005061853177753147 0.008862681780907235 0
0.002934045665084311 0.005638430217402038 0
0.002934045665084312 0.006361569782597968 0
0.00291815405216707 0.007052631475182512 0
0.002829149008244452 0.00777098656067559 0
0.002353814497088746 0.006691061692584547 0
0.00397475345452843 0.004107635205090773 0
0.003409380176240011 0.004558505349310996 0
0.002818360162043637 0.004213109489491687 0
0.00290736520596626 0.004931464574984764 0
0.002343025650887937 0.005293034357582729 0
0.005818815260162591 0.004026968743489051 0
0.005113806313650051 0.003866055052060891 0
0.004506510010375855 0.003651283043334563 0
0.003852131688164813 0.003383798102061708 0
0.004991184547286434 0.003142217949031826 0
0.007116052676888591 0.004124839835684156 0
0.006357962613143507 0.004193303047946278 0
0.006137628203541546 0.003523324262215381 0
0.003148492329306353 0.008926304213768348 0
0.003686398633548104 0.009375218159638873 0
0.002797796350317529 0.00841927216958975 0
0.002625913547306484 0.009185726647176011 0
0.002306570226244582 0.008030408994083253 0
0.003679370349668865 0.002616281022206061 0
0.00314761379382144 0.003072633183962272 0
0.002623835315070169 0.002811468405564291 0
0.002796596653566117 0.003578985485419938 0
0.002294581683292366 0.003951944711093705 0
0.00588174331967312 0.01043253569410074 0
0.006519749349597022 0.01032227837384862 0
0.006056568419176224 0.009827666651232619 0
0.00530954815721589 0.01050041462978451 0
0.007154112030566873 0.01023655053227204 0
0.006383618987897587 0.001733778315024976 0
0.007117602993152286 0.001834677520452465 0
0.005830684672920513 0.001574109762250187 0
0.005278019073798636 0.001493762723953832 0
0.005929330548354548 0.002208007827436697 0
0.002559733334576223 0.01022778977154556 0
0.00215998971452208 0.0096874165509212 0
0.001743113522802995 0.01022244763111216 0
0.003095248588186731 0.01033100294513955 0
0.002558854799091316 0.001771147626185052 0
0.001743023876324943 0.001777443940084845 0
0.002159021532559121 0.002311412418006418 0
0.00309437005270182 0.001667934452591068 0
0.008091921505567409 0.007711156998280655 0
0.007873537293077951 0.008343845126574861 0
0.008203815388613658 0.007061251057086957 0
0.007531395914257752 0.009008003465113297 0
0.008315414165520639 0.008931657980037443 0
0.008515579206224266 0.009556814442926654 0
0.008240191820295496 0.002595271605642676 0
0.008201422391142816 0.003316677081296443 0
0.007608698891165996 0.003752253920741896 0
0.00814805329723154 0.004124444265250253 0
0.008229562912176854 0.004746511885297578 0
0.004310364234635114 0.002237578641016953 0
0.003605846340291741 0.001926413722917517 0
0.004880142238694856 0.002487892607483703 0
0.004806618229317732 0.001798025308195158 0
0.005487438541969052 0.002702664616210031 0
0.00360789625642319 0.01007110687178725 0
0.004317685363675987 0.009753566340071518 0
0.004828872687901698 0.01019368951185232 0
0.004907375065026612 0.009497800799703939 0
0.005573040501978857 0.009302804952688037 0
0.001782913142222793 0.005660234557349675 0
0.001781140740645635 0.006357422903118264 0
0.001756232683104742 0.004953268914932401 0
0.001765249127728393 0.007048484595702807 0
0.001809293735533256 0.009180384506742603 0
0.001735749697546963 0.008429705620050854 0
0.001767102355473886 0.007781420011136691 0
0.001734550000795556 0.003568552034958834 0
0.001808004392303797 0.002817764719464083 0
0.001756313509273076 0.004202676039030583 0
0.006892046745457594 0.009068799971315607 0
0.007333923617900283 0.009656612824778189 0
0.006211046531902759 0.009192547632435915 0
0.007793461199367031 0.01017575402606973 0
0.008413216123716398 0.01014269231756279 0
0.008285628389243335 0.001773867567595356 0
0.007707504554025109 0.002123082698740765 0
0.007169421770799865 0.003317072651730346 0
0.007072166424204446 0.002656081558499786 0
0.006579520209927042 0.003028667473442046 0
0.006040372856946126 0.00286233316898482 0
2 6 0 15
685
686
687
688
689
690
691
692
693
694
695
696
697
698
699
0.01 0.0007499999999999997 0.00025
0.01 0.001499999999999999 0.00025
0.01 0.01125 0.00025
0.01 0.0105 0.00025
0.01 0.002999999999999999 0.00025
0.01 0.002249999999999999 0.00025
0.01 0.003749999999999999 0.00025
0.01 0.0045 0.00025
0.01 0.005249999999999999 0.00025
0.01 0.005999999999999999 0.00025
0.01 0.006749999999999999 0.00025
0.01 0.007499999999999999 0.00025
0.01 0.00825 0.00025
0.01 0.009750000000000002 0.00025
0.01 0.009000000000000001 0.00025
2 7 0 13
700
701
702
703
704
705
706
707
708
709
710
711
712
0.006501614779837364 0.005276860434804068 0.00025
0.006501614779837366 0.006723139565195929 0.00025
0.006039149669764557 0.007303052470780049 0.00025
0.006039149669764553 0.004696947529219948 0.00025
0.004629131776739481 0.007624879853636374 0.00025
0.005370868223260526 0.007624879853636373 0.00025
0.003498385220162637 0.006723139565195934 0.00025
0.003960850330235448 0.007303052470780053 0.00025
0.003498385220162633 0.005276860434804072 0.00025
0.003333333333333333 0.006000000000000004 0.00025
0.00462913177673947 0.004375120146363629 0.00025
0.003960850330235441 0.004696947529219953 0.00025
0.005370868223260519 0.004375120146363626 0.00025
3 1 0 280
713
714
715
716
717
718
719
720
721
722
723
724
725
726
727
728
729
730
731
732
733
734
735
736
737
738
739
740
741
742
743
744
745
746
747
748
749
750
751
752
753
754
755
756
757
758
759
760
761
762
763
764
765
766
767
768
769
770
771
772
773
774
775
776
777
778
779
780
781
782
783
784
785
786
787
788
789
790
791
792
793
794
795
796
797
798
799
800
801
802
803
804
805
806
807
808
809
810
811
812
813
814
815
816
817
818
819
820
821
822
823
824
825
826
827
828
829
830
831
832
833
834
835
836
837
838
839
840
841
842
843
844
845
846
847
848
849
850
851
852
853
854
855
856
857
858
859
860
861
862
863
864
865
866
867
868
869
870
871
872
873
874
875
876
877
878
879
880
881
882
883
884
885
886
887
888
889
890
891
892
893
894
895
896
897
898
899
900
901
902
903
904
905
906
907
908
909
910
911
912
913
914
915
916
917
918
919
920
921
922
923
924
925
926
927
928
929
930
931
932
933
934
935
936
937
938
939
940
941
942
943
944
945
946
947
948
949
950
951
952
953
954
955
956
957
958
959
960
961
962
963
964
965
966
967
968
969
970
971
972
973
974
975
976
977
978
979
980
981
982
983
984
985
986
987
988
989
990
991
992
0.002771833148020122 0.01055126179846236 0.0002513915498932099
0.009605548388513326 0.009590930874848963 0.0002497743269012318
0.0004477899675829507 0.009727358136829265 0.00025
0.003452248264311758 0.0003435842670251702 0.0002500000000000001
0.00674403460107507 0.00681928894194745 0.00025
0.009331717007130707 0.009554371721063198 0.0001248871634506159
0.009802774194256663 0.01004546543742448 0.0001248871634506159
0.009802774194256663 0.009295465437424481 0.0001248871634506159
0.009802774194256663 0.009295465437424481 0.0003748871634506159
0.009802774194256663 0.01004546543742448 0.0003748871634506159
0.009331717007130707 0.009554371721063198 0.0003748871634506159
0.002992860399049138 0.01076025449869342 0.0003756957749466049
0.00245734514543863 0.01065704132509944 0.0003756957749466049
0.002874221337157715 0.01012201024490848 0.0003756957749466049
0.002992860399049138 0.01076025449869342 0.000125695774946605
0.002874221337157715 0.01012201024490848 0.000125695774946605
0.00245734514543863 0.01065704132509944 0.000125695774946605
0.003154695560727304 0.0001717921335125851 0.000125
0.003868981275013015 0.0001717921335125851 0.000125
0.003154695560727304 0.0001717921335125851 0.000375
0.003868981275013015 0.0001717921335125851 0.000375
0.009057885625748089 0.00951781256727743 0.00025
0.009528942812874044 0.01000890628363871 0.00025
0.0006716849513744262 0.0100910372052439 0.00025
0.0002238949837914753 0.01011367906841463 0.000125
0.0002238949837914753 0.01011367906841463 0.000375
0.0008955799351659015 0.009704716273658529 0.000375
0.001343369902748852 0.009682074410487792 0.00025
0.0008955799351659015 0.009704716273658529 0.000125
0.0002238949837914753 0.009363679068414633 0.000375
0.0002238949837914753 0.009363679068414633 0.000125
0.006782718568279269 0.007228933412921176 0.00025
0.007135161033934526 0.006987051648504877 0.000125
0.006391592135419814 0.00706117070636375 0.000125
0.006391592135419814 0.00706117070636375 0.000375
0.002142857142857138 0.01076282085173652 0.00025
0.002559733334576223 0.01022778977154556 0.00025
0.007526287466793982 0.007154814355062303 0.00025
0.007135161033934526 0.006987051648504877 0.000375
0.006705350633870869 0.006409644470973724 0.000375
0.002976609526295308 0.009692758691354608 0.00025
0.0006716849513744262 0.009341037205243896 0.00025
0.006705350633870869 0.006409644470973724 0.000125
0.003213887650078154 0.01096924719892448 0.00025
0.003095248588186731 0.01033100294513955 0.00025
0.007096477066730325 0.006577407177531152 0.00025
0.007973272786700441 0.009595816318575879 0.00025
0.007531395914257752 0.009008003465113297 0.00025
0.007873537293077951 0.008343845126574861 0.00025
0.008315414165520639 0.008931657980037443 0.00025
0.002337922884171504 0.007382123385169091 0.00025
0.001765249127728393 0.007048484595702807 0.00025
0.001767102355473886 0.007781420011136691 0.00025
0.001785714285714282 0.01138141042586826 0.00025
0.002499999999999994 0.01138141042586826 0.00025
0.002499999999999994 0.0006185895741317398 0.00025
0.002142857142857139 0.00123717914826348 0.00025
0.001785714285714282 0.0006185895741317398 0.00025
0.009370388398604181 0.003344433712902399 0.00025
0.009370388398604181 0.0040944337129024 0.00025
0.008740776797208361 0.0036888674258048 0.00025
0.007089519041815063 0.008420190611650715 0.00025
0.005113806313650051 0.003866055052060891 0.00025
0.005818815260162591 0.004026968743489051 0.00025
0.005598480850560629 0.003356989957758154 0.00025
0.00932877777217042 0.008633749820749504 0.00025
0.008657555544340839 0.008267499641499008 0.00025
0.001781140740645635 0.006357422903118264 0.00025
0.002353814497088746 0.006691061692584547 0.00025
0.0006715953048963739 0.002658854365953105 0.00025
0.0006715953048963739 0.001908854365953105 0.00025
0.007110998231960694 0.005280010552347853 0.00025
0.006797239733509637 0.004628484316957827 0.00025
0.000598140913388133 0.003409641681447856 0.00025
0.001196281826776266 0.003819283362895712 0.00025
0.001269736218284507 0.003068496047400961 0.00025
0.001808004392303797 0.002817764719464083 0.00025
0.002272818174814846 0.003317820707021957 0.00025
0.002623835315070169 0.002811468405564291 0.00025
0.001756232683104742 0.004953268914932401 0.00025
0.002316345191769886 0.004586068715165455 0.00025
0.001756313509273076 0.004202676039030583 0.00025
0.002625913547306484 0.009185726647176011 0.00025
0.001809293735533256 0.009180384506742603 0.00025
0.002275217568317659 0.008678694602997413 0.00025
0.004708241069738894 0.001243448757487082 0.00025
0.004732678099967035 0.0004695930866228782 0.00025
0.005179641914219798 0.0009391861732457563 0.00025
0.004719858455865265 0.01075618017015209 0.00025
0.004743124105446866 0.01153145264404214 0.00025
0.005200533925179458 0.01106290528808428 0.00025
0.002369706110005988 0.006000000000000004 0.00025
0.008779546226361042 0.002967461950151034 0.00025
0.001194428599030775 0.007447781221670408 0.00025
0.001192575371285282 0.006714845806236523 0.00025
0.008285628389243335 0.001773867567595356 0.00025
0.008818315655513723 0.002246056474497268 0.00025
0.008240191820295496 0.002595271605642676 0.00025
0.00932877777217042 0.007883749820749504 0.00025
0.005418562389252323 0.009937923971484743 0.00025
0.005573040501978857 0.009302804952688037 0.00025
0.006056568419176224 0.009827666651232619 0.00025
0.006519749349597022 0.01032227837384862 0.00025
0.00588174331967312 0.01043253569410074 0.00025
0.006344924250093918 0.01092714741671674 0.00025
0.002343025650887937 0.005293034357582729 0.00025
0.001782913142222793 0.005660234557349675 0.00025
0.001743113522802995 0.01022244763111216 0.00025
0.00215998971452208 0.0096874165509212 0.00025
0.001343190609792748 0.00231770873190621 0.00025
0.009409157827756861 0.002623028237248633 0.00025
0.003679370349668865 0.002616281022206061 0.00025
0.004383888244012238 0.002927445940305497 0.00025
0.003852131688164813 0.003383798102061708 0.00025
0.002558854799091316 0.001771147626185052 0.00025
0.001743023876324943 0.001777443940084845 0.00025
0.00290736520596626 0.004931464574984764 0.00025
0.002934045665084311 0.005638430217402038 0.00025
0.004396187740800901 0.009057677627923135 0.00025
0.003686398633548104 0.009375218159638873 0.00025
0.00385828143655915 0.008608763682052611 0.00025
0.005727518614705393 0.008667685933891334 0.00025
0.005178325195722437 0.008146282893763854 0.00025
0.005883334142234974 0.007985369202335692 0.00025
0.001196281826776267 0.008180716637104292 0.00025
0.001269825864762559 0.008931395523796043 0.00025
0.0005981409133881333 0.008590358318552146 0.00025
0.003320375132317399 0.008159849736182088 0.00025
0.003148492329306353 0.008926304213768348 0.00025
0.00314761379382144 0.003072633183962272 0.00025
0.003320375132317388 0.003840150263817919 0.00025
0.007307903254304522 0.007787502483356509 0.00025
0.008091921505567409 0.007711156998280655 0.00025
0.006383618987897587 0.001733778315024976 0.00025
0.006284973112463552 0.001099880249838465 0.00025
0.00701895711771825 0.001200779455265955 0.00025
0.008881343310433337 0.006967687759111611 0.00025
0.009440671655216669 0.006483843879555804 0.00025
0.008552108425732601 0.006441906279054177 0.00025
0.001196201000607932 0.004569876238797529 0.00025
0.001196120174439597 0.005320469114699346 0.00025
0.005061853177753147 0.008862681780907235 0.00025
0.00291815405216707 0.007052631475182512 0.00025
0.009409157827756861 0.001873028237248634 0.00025
0.000598140913388133 0.004159641681447856 0.00025
0.0005980600872197986 0.004910234557349673 0.00025
0.004991184547286434 0.003142217949031826 0.00025
0.004512659758770191 0.008341278740779754 0.00025
0.0005981409133881333 0.007840358318552145 0.00025
0.0005962876856426412 0.007107422903118261 0.00025
0.006211046531902759 0.009192547632435915 0.00025
0.006694574449100125 0.009717409330980496 0.00025
0.009528942812874044 0.009258906283638716 0.00025
0.002678372396467646 0.0108660340253305 0.00025
0.0005962876856426412 0.006357422903118261 0.00025
0.002934045665084312 0.006361569782597968 0.00025
0.005376396233377474 0.002048339274661908 0.00025
0.005487438541969052 0.002702664616210031 0.00025
0.004880142238694856 0.002487892607483703 0.00025
0.00119434777286244 0.006017657460467935 0.00025
0.007116052676888591 0.004124839835684156 0.00025
0.006676775556522461 0.003689658566672607 0.00025
0.007169421770799865 0.003317072651730346 0.00025
0.002974852455325493 0.002305116104106626 0.00025
0.008162184847200757 0.0006508393303467219 0.00025
0.007447899132915039 0.0006508393303467219 0.00025
0.008092539091731094 0.01137784586678179 0.00025
0.007378253377445376 0.01137784586678179 0.00025
0.006029604982189808 0.01146357370835837 0.00025
0.006743890696475524 0.01146357370835837 0.00025
0.007555329797254721 0.004560021104695706 0.00025
0.00656433435578981 0.007861621541215382 0.00025
0.006408518828260228 0.008543938272771025 0.00025
0.008203815388613658 0.007061251057086957 0.00025
0.008769449427387088 0.007617593700305309 0.00025
0.001734550000795556 0.003568552034958834 0.00025
0.004317685363675987 0.009753566340071518 0.00025
0.004239182986551073 0.0104494550522199 0.00025
0.00360789625642319 0.01007110687178725 0.00025
0.004907375065026612 0.009497800799703939 0.00025
0.001735749697546963 0.008429705620050854 0.00025
0.005772729087636688 0.01099502635240051 0.00025
0.00530954815721589 0.01050041462978451 0.00025
0.006713915127660341 0.0005499401249192326 0.00025
0.008563334784065426 0.005424563732448097 0.00025
0.009451898013549495 0.005466501332949725 0.00025
0.008903796027098988 0.00493300266589945 0.00025
0.006892046745457594 0.009068799971315607 0.00025
0.00766206798507727 0.002944486736788085 0.00025
0.007072166424204446 0.002656081558499786 0.00025
0.007707504554025109 0.002123082698740765 0.00025
0.003605846340291741 0.001926413722917517 0.00025
0.004310364234635114 0.002237578641016953 0.00025
0.003726535318314613 0.01070935112557219 0.00025
0.003749800967896214 0.01148462359946224 0.00025
0.0005980600872197986 0.005660234557349673 0.00025
0.00423684022525799 0.001547711341728408 0.00025
0.007117602993152286 0.001834677520452465 0.00025
0.007752941122972949 0.001301678660693444 0.00025
0.006482264863331623 0.002367676380211486 0.00025
0.00814805329723154 0.004124444265250253 0.00025
0.007608698891165996 0.003752253920741896 0.00025
0.008201422391142816 0.003316677081296443 0.00025
0.007613649612033622 0.01075569173356358 0.00025
0.007333923617900283 0.009656612824778189 0.00025
0.00397475345452844 0.007892364794909231 0.00025
0.003409380176240017 0.007441494650689011 0.00025
0.003409380176240011 0.004558505349310996 0.00025
0.00397475345452843 0.004107635205090773 0.00025
0.004828872687901698 0.01019368951185232 0.00025
0.002306570226244582 0.008030408994083253 0.00025
0.002796596653566117 0.003578985485419938 0.00025
0.008857720585044464 0.008892656104388219 0.00025
0.004506510010375855 0.003651283043334563 0.00025
0.002797796350317529 0.00841927216958975 0.00025
0.004806618229317732 0.001798025308195158 0.00025
0.003725363937668068 0.001289232071401959 0.00025
0.004261277255486131 0.000773855670864204 0.00025
0.004262448636132673 0.01122472752610995 0.00025
0.00697928693106377 0.01084141957514016 0.00025
0.008712294016080459 0.01134478415827485 0.00025
0.002159021532559121 0.002311412418006418 0.00025
0.0005163797026075433 0.001276654138537796 0.00025
0.001032759405215087 0.001053308277075593 0.00025
0.0005163797026075433 0.0005266541385377966 0.00025
0.008515579206224266 0.009556814442926654 0.00025
0.002829149008244452 0.00777098656067559 0.00025
0.002818360162043637 0.004213109489491687 0.00025
0.005446963814252748 0.0004695930866228782 0.00025
0.009470242118951238 0.0005393952608627665 0.00025
0.009470242118951238 0.001289395260862766 0.00025
0.008940484237902476 0.001078790521725533 0.00025
0.007444770103849266 0.005958062399498372 0.00025
0.007889101669143294 0.005238072951846225 0.00025
0.006357962613143507 0.004193303047946278 0.00025
0.001032759405215089 0.01094669172292441 0.00025
0.0005163797026075443 0.0114733458614622 0.00025
0.001230665416893257 0.0114733458614622 0.00025
0.001230665416893256 0.0005266541385377966 0.00025
0.005457409819732579 0.01153145264404214 0.00025
0.007154112030566873 0.01023655053227204 0.00025
0.009426579730366178 0.01059478415827485 0.00025
0.0005163797026075443 0.0107233458614622 0.00025
0.00875595640466552 0.0005393952608627665 0.00025
0.002294581683292366 0.003951944711093705 0.00025
0.005999629413374626 0.0005499401249192326 0.00025
0.006137628203541546 0.003523324262215381 0.00025
0.008222873541031865 0.005916124798996744 0.00025
0.009440671655216669 0.007233843879555805 0.00025
0.009111436770515933 0.005958062399498372 0.00025
0.003035515253610502 0.01148462359946224 0.00025
0.005732307513341675 0.001019533211542111 0.00025
0.005278019073798636 0.001493762723953832 0.00025
0.009426579730366178 0.01134478415827485 0.00025
0.008853159460732354 0.01068956831654969 0.00025
0.005929330548354548 0.002208007827436697 0.00025
0.006040372856946126 0.00286233316898482 0.00025
0.001188064653981971 0.0103143830667061 0.00025
0.001187975007503917 0.001685508504490902 0.00025
0.005830684672920513 0.001574109762250187 0.00025
0.006579520209927042 0.003028667473442046 0.00025
0.008822286412153674 0.004310935045852125 0.00025
0.008229562912176854 0.004746511885297578 0.00025
0.009451898013549495 0.004716501332949725 0.00025
0.007793461199367031 0.01017575402606973 0.00025
0.007874580503912924 0.006535469577029523 0.00025
0.001587808274036113 0.01085475628733047 0.00025
0.008233404536382988 0.01072263002505664 0.00025
0.001587808274036113 0.001145243712669536 0.00025
0.008346712680437712 0.001190234591209489 0.00025
0.003213887650078147 0.00103075280107551 0.00025
0.00309437005270182 0.001667934452591068 0.00025
0.002678372396467643 0.001133965974669495 0.00025
0.0088793999467081 0.0016624234981114 0.00025
0.003035515253610499 0.0005153764005377552 0.00025
0.008413216123716398 0.01014269231756279 0.00025
0.008955522543240221 0.01010369044191356 0.00025
0.003333067957194952 0.0006871685340503403 0.000375
0.003333067957194952 0.0006871685340503403 0.000125
0.003844544244784874 0.0009456478043767891 0.000125
$EndNodes
$Elements
3 476 1 476
2 2 9 14
1 2 43 1 49 169 11 
2 1 43 57 169 170 63 
3 62 5 6 171 56 69 
4 5 62 48 171 172 55 
5 43 44 57 50 173 170 
6 44 45 58 51 174 175 
7 57 44 58 173 175 64 
8 60 45 46 176 52 177 
9 58 45 59 174 178 65 
10 45 60 59 176 66 178 
11 61 46 47 179 53 180 
12 61 60 46 67 177 179 
13 62 47 48 181 54 172 
14 62 61 47 68 180 181 
2 4 9 14
15 4 3 70 27 76 427 
16 70 111 4 428 117 427 
17 75 7 9 82 124 429 
18 9 116 75 123 430 429 
19 70 71 112 77 431 432 
20 70 112 111 432 118 428 
21 71 72 113 78 433 434 
22 112 71 113 431 434 119 
23 113 72 73 433 79 435 
24 74 114 73 436 437 80 
25 73 114 113 437 120 435 
26 75 115 74 438 439 81 
27 74 115 114 439 121 436 
28 75 116 115 430 122 438 
3 1 11 448
29 490 130 131 714 583 138 584 718 719 720 
30 88 232 89 714 326 325 96 721 722 723 
31 230 199 186 713 380 379 295 724 725 726 
32 488 444 457 713 553 635 638 727 728 729 
33 44 58 45 716 175 174 51 730 731 732 
34 45 58 59 716 174 65 178 731 733 732 
35 131 130 88 714 138 699 698 719 721 720 
36 89 131 88 714 688 698 96 722 721 719 
37 89 232 490 714 325 734 735 722 718 723 
38 34 206 18 715 736 269 157 737 738 739 
39 34 464 206 715 526 740 736 737 739 741 
40 17 33 18 715 167 168 25 742 738 743 
41 453 98 140 717 744 702 504 745 746 747 
42 457 444 186 713 635 748 749 728 725 729 
43 131 89 490 714 688 735 584 719 718 722 
44 33 34 18 715 41 157 168 743 738 737 
45 195 98 453 717 247 744 750 751 745 747 
46 8 140 98 717 701 702 104 752 747 746 
47 457 186 199 713 749 379 753 728 726 725 
48 17 464 33 715 754 527 167 742 743 741 
49 464 17 206 715 754 268 740 741 739 742 
50 10 140 8 717 146 701 153 755 752 746 
51 199 230 488 713 380 756 757 726 727 724 
52 488 457 199 713 638 753 757 727 726 728 
53 195 453 10 717 750 505 758 751 755 745 
54 10 8 195 717 153 246 758 755 751 752 
55 455 197 196 446 759 389 760 647 761 762 
56 475 451 468 217 670 525 667 763 764 765 
57 70 186 444 71 290 748 766 77 767 291 
58 187 44 57 445 768 173 273 769 770 531 
59 111 444 112 70 549 548 118 428 432 766 
60 447 84 85 189 771 92 772 773 311 312 
61 454 455 196 446 646 760 774 644 761 647 
62 212 144 145 470 775 151 776 777 607 608 
63 88 446 130 129 778 581 699 697 137 580 
64 188 196 197 446 385 389 388 779 762 761 
65 468 475 217 192 667 763 764 780 343 781 
66 465 13 29 12 782 159 511 783 158 20 
67 103 10 205 145 700 784 248 703 785 152 
68 452 13 465 194 786 782 516 787 788 256 
69 465 459 487 229 641 622 672 789 790 791 
70 218 209 476 194 408 792 793 415 794 261 
71 486 199 206 228 795 378 796 797 411 359 
72 45 460 223 481 538 798 799 536 800 539 
73 200 483 72 225 801 802 299 298 296 803 
74 475 468 450 192 667 665 601 781 804 780 
75 189 84 203 447 312 308 313 773 805 771 
76 468 217 193 210 764 412 806 807 267 409 
77 208 204 203 461 421 392 422 808 809 810 
78 446 88 87 129 778 95 811 580 696 697 
79 213 220 215 471 367 418 405 812 813 814 
80 471 220 442 213 814 815 625 812 816 367 
81 220 213 184 442 367 369 368 815 817 816 
82 188 88 87 446 322 95 323 779 811 778 
83 209 476 192 218 792 818 407 408 348 793 
84 476 450 467 192 606 664 666 818 819 804 
85 84 447 85 126 771 772 92 689 691 569 
86 70 444 112 71 766 548 432 77 431 767 
87 44 187 57 58 768 273 173 175 64 272 
88 445 43 44 57 530 50 531 770 173 170 
89 444 206 457 186 820 821 635 748 749 377 
90 465 13 12 207 782 20 783 822 253 254 
91 203 447 126 461 805 569 823 809 567 571 
92 448 201 190 183 824 363 825 826 351 362 
93 459 465 445 187 641 640 639 827 769 828 
94 192 476 101 218 818 829 340 348 346 793 
95 192 143 476 450 830 605 818 804 606 597 
96 449 191 199 182 831 357 832 833 358 337 
97 215 98 99 473 329 105 330 834 835 836 
98 217 451 468 193 765 525 764 412 806 837 
99 468 217 210 192 764 409 807 780 406 343 
100 28 29 12 465 36 158 155 512 783 511 
101 13 452 465 29 786 516 782 159 511 515 
102 464 17 33 193 754 167 527 838 839 266 
103 468 467 450 192 522 664 665 780 804 819 
104 33 451 464 193 523 528 527 839 838 837 
105 449 457 440 182 616 615 594 833 840 841 
106 98 141 99 473 705 704 105 836 835 587 
107 201 448 441 183 824 610 842 362 843 826 
108 454 196 195 446 774 331 844 644 845 761 
109 98 141 473 140 705 587 836 702 588 147 
110 443 482 185 466 630 846 847 546 848 631 
111 216 474 128 456 849 575 850 851 577 578 
112 452 476 467 209 673 666 519 852 853 792 
113 453 454 195 446 590 844 750 643 845 644 
114 188 195 196 446 386 331 385 779 761 845 
115 215 99 191 473 330 336 338 834 854 835 
116 209 452 476 194 852 673 792 261 794 787 
117 475 100 217 192 855 342 763 781 343 339 
118 203 126 83 461 823 690 309 809 856 567 
119 30 14 452 467 163 857 514 518 519 858 
120 467 14 452 209 858 857 519 853 852 259 
121 447 84 203 126 771 308 805 569 823 689 
122 448 144 212 470 609 775 859 611 777 608 
123 144 212 145 102 775 776 151 710 712 349 
124 145 102 212 103 712 349 776 703 350 109 
125 99 141 449 473 704 595 860 835 596 587 
126 14 452 209 194 857 852 259 257 261 787 
127 468 193 32 210 806 861 520 807 862 267 
128 471 220 215 478 814 418 813 627 863 864 
129 490 232 130 714 734 865 583 718 720 723 
130 220 471 442 478 814 625 815 864 626 627 
131 452 14 13 194 857 21 786 787 256 257 
132 186 444 230 713 748 866 295 725 724 729 
133 15 468 32 210 867 520 164 262 862 807 
134 194 13 465 207 256 782 788 258 822 254 
135 100 475 450 192 855 601 868 339 804 781 
136 17 464 206 193 754 740 268 266 270 838 
137 447 127 85 126 570 692 772 569 691 134 
138 211 190 212 469 399 353 400 869 870 871 
139 467 210 192 468 872 406 819 522 780 807 
140 476 209 192 467 792 407 818 666 819 853 
141 449 191 99 473 831 336 860 596 835 854 
142 491 463 233 462 612 873 874 681 875 651 
143 457 449 199 182 616 832 753 841 358 833 
144 459 448 441 201 620 610 621 876 842 824 
145 47 62 466 61 181 877 544 180 878 68 
146 75 115 472 74 438 563 879 81 880 439 
147 73 442 74 184 881 882 80 301 302 817 
148 10 103 205 8 700 248 784 153 249 110 
149 205 145 10 463 785 152 784 883 506 507 
150 473 98 454 215 836 884 591 834 885 329 
151 193 468 32 451 806 520 861 837 524 525 
152 126 203 83 84 823 309 690 689 91 308 
153 195 188 216 474 386 324 387 886 849 887 
154 62 47 466 48 181 544 877 172 545 54 
155 100 450 143 192 868 597 709 339 830 804 
156 229 465 194 487 789 788 414 790 888 672 
157 210 467 192 209 872 819 406 264 407 853 
158 458 449 200 199 660 889 890 891 402 832 
159 215 471 191 213 813 892 338 405 403 812 
160 486 206 193 228 796 270 893 797 410 411 
161 213 225 442 483 370 894 816 895 561 803 
162 191 200 449 199 401 889 831 357 832 402 
163 185 61 443 466 283 896 847 848 546 878 
164 198 477 86 219 897 898 320 321 314 899 
165 478 220 215 454 864 418 863 674 885 900 
166 98 473 454 140 836 591 884 702 589 588 
167 204 208 224 462 421 372 424 901 902 903 
168 143 192 476 101 830 818 605 708 829 340 
169 448 201 460 190 824 904 654 825 905 363 
170 453 98 454 140 744 884 590 504 589 702 
171 458 113 488 230 556 551 558 906 756 907 
172 14 30 31 467 163 38 161 858 517 518 
173 467 15 14 209 908 22 858 853 259 260 
174 190 201 460 202 363 904 905 397 909 396 
175 29 14 452 30 160 857 515 37 514 163 
176 462 208 482 466 903 910 682 680 631 911 
177 482 224 208 462 912 372 910 682 903 902 
178 444 488 230 713 553 756 866 729 724 727 
179 33 17 16 193 167 24 166 839 265 266 
180 29 14 13 452 160 21 159 515 786 857 
181 193 32 33 451 861 40 839 837 523 524 
182 463 189 204 447 913 391 914 652 915 773 
183 74 472 75 214 880 879 81 304 305 916 
184 115 75 472 116 438 879 563 122 562 430 
185 47 443 61 466 542 896 180 544 878 546 
186 478 455 220 454 675 917 864 674 900 646 
187 215 471 478 473 813 627 863 834 676 663 
188 142 141 440 99 148 593 592 707 918 704 
189 99 440 142 100 918 592 707 106 706 919 
190 143 441 144 101 603 602 150 708 711 920 
191 183 102 144 101 345 710 921 344 711 108 
192 213 191 200 471 403 401 404 812 922 892 
193 98 215 196 454 329 333 332 884 774 885 
194 212 448 470 469 859 611 777 870 658 656 
195 486 193 217 228 893 412 923 797 361 410 
196 195 454 98 196 844 884 247 331 332 774 
197 459 229 441 487 791 924 621 622 623 790 
198 208 204 461 462 421 810 808 903 649 901 
199 483 442 213 471 561 816 895 628 812 625 
200 213 225 184 442 370 303 369 816 817 894 
201 446 490 232 130 585 734 925 581 865 583 
202 454 195 98 453 844 247 884 590 744 750 
203 144 190 212 102 926 353 775 710 349 352 
204 16 32 193 210 165 861 265 263 267 862 
205 462 461 208 466 649 808 903 680 911 679 
206 182 199 486 228 358 795 927 360 797 359 
207 468 15 32 31 867 164 520 521 39 162 
208 15 32 16 210 164 165 23 262 263 862 
209 211 202 190 469 398 397 399 869 871 928 
210 126 83 461 125 690 856 567 133 566 686 
211 190 144 212 448 926 775 353 825 859 609 
212 460 231 59 202 929 275 930 909 281 282 
213 72 230 458 200 294 906 931 299 890 300 
214 458 113 230 72 556 907 906 931 294 433 
215 442 220 214 184 815 371 932 817 306 368 
216 475 486 451 217 619 669 670 763 765 923 
217 142 475 450 100 599 601 598 706 868 855 
218 449 458 457 199 660 659 616 832 753 891 
219 206 444 457 464 820 635 821 740 636 637 
220 186 206 457 199 377 821 749 379 753 378 
221 75 9 479 116 429 501 933 430 502 123 
222 187 465 207 201 828 822 382 383 381 934 
223 459 465 187 201 641 828 827 876 383 934 
224 99 182 440 100 334 840 918 106 919 335 
225 144 190 102 183 926 352 710 921 345 351 
226 208 185 224 482 288 373 372 910 912 846 
227 482 208 185 466 910 288 846 631 848 911 
228 28 2 484 226 35 493 492 935 936 937 
229 183 144 441 101 921 602 843 344 920 711 
230 15 467 468 210 908 522 867 262 807 872 
231 31 15 14 467 162 22 161 517 858 908 
232 144 448 190 183 609 825 926 921 351 826 
233 454 215 478 473 885 863 674 591 676 834 
234 201 448 460 459 824 654 904 876 655 620 
235 483 458 72 113 557 931 802 555 433 556 
236 483 200 72 458 801 299 802 557 931 890 
237 232 455 490 446 938 648 734 925 585 647 
238 195 453 446 474 750 643 845 886 582 645 
239 188 195 446 474 386 845 779 887 582 886 
240 32 193 33 16 861 839 40 165 166 265 
241 100 182 475 217 335 939 855 342 763 341 
242 465 459 229 201 641 791 789 934 365 876 
243 207 465 229 201 822 789 413 381 365 934 
244 486 457 464 206 618 636 668 796 740 821 
245 199 486 206 457 795 796 378 753 821 618 
246 218 441 476 101 940 604 793 346 829 920 
247 59 460 223 45 930 798 279 178 799 538 
248 460 59 223 202 930 279 798 909 280 281 
249 196 220 197 455 417 416 389 760 759 917 
250 46 45 223 481 52 799 941 537 800 536 
251 5 222 125 480 942 943 132 499 500 944 
252 10 205 463 198 784 883 506 945 946 252 
253 10 205 198 8 784 252 945 153 250 249 
254 208 62 61 466 286 68 287 911 878 877 
255 142 450 143 100 598 597 149 706 709 868 
256 192 143 100 101 830 709 339 340 107 708 
257 145 463 233 491 507 873 947 613 874 612 
258 449 440 141 99 594 593 595 860 704 918 
259 485 111 4 227 497 117 495 948 949 950 
260 15 467 210 209 908 872 262 260 264 853 
261 448 144 441 183 609 602 610 826 843 921 
262 43 484 2 226 494 493 49 951 937 936 
263 225 72 73 483 296 79 297 803 952 802 
264 449 191 182 99 831 337 833 860 334 336 
265 487 452 465 194 671 516 672 888 788 787 
266 451 486 464 193 669 668 528 837 838 893 
267 442 73 74 114 881 80 882 560 436 437 
268 442 74 115 114 882 439 559 560 121 436 
269 214 184 74 442 306 302 304 932 882 817 
270 220 442 214 478 815 932 371 864 953 626 
271 89 479 9 131 954 501 687 688 139 503 
272 220 196 215 454 417 333 418 900 885 774 
273 440 449 182 99 594 833 840 918 334 860 
274 34 485 4 227 496 495 42 955 949 948 
275 62 222 5 480 241 942 171 956 499 944 
276 227 111 4 70 950 117 949 239 427 428 
277 204 461 447 203 810 571 915 392 805 809 
278 471 215 191 473 813 338 892 663 854 834 
279 487 218 194 229 957 415 888 790 414 366 
280 204 463 447 462 914 652 915 901 650 651 
281 60 185 61 443 284 283 67 958 896 847 
282 233 145 491 470 947 613 874 959 614 607 
283 125 6 222 5 685 240 943 132 942 56 
284 61 185 208 466 283 288 287 878 911 848 
285 10 198 463 456 945 946 506 509 510 960 
286 190 448 212 469 825 859 353 871 870 656 
287 188 87 216 474 323 317 324 887 849 961 
288 196 220 455 454 417 917 760 774 646 900 
289 48 62 5 480 172 171 55 498 499 956 
290 4 3 18 227 27 26 156 949 237 238 
291 2 28 1 226 35 154 11 937 234 935 
292 86 216 128 456 318 850 694 962 577 851 
293 216 86 198 456 318 320 319 851 960 962 
294 193 486 217 451 893 923 412 837 765 669 
295 46 61 443 60 179 896 541 177 958 67 
296 46 61 47 443 179 180 53 541 542 896 
297 31 15 467 468 162 908 517 521 522 867 
298 471 191 449 473 892 831 662 663 596 854 
299 113 112 488 230 119 552 551 907 756 963 
300 189 463 204 205 913 914 391 393 394 883 
301 189 203 204 447 313 392 391 773 915 805 
302 218 487 194 476 957 888 415 793 794 624 
303 441 143 476 101 603 605 604 920 829 708 
304 232 88 130 714 326 699 865 723 720 721 
305 477 198 86 456 897 320 898 579 962 960 
306 456 86 477 128 962 898 579 577 573 694 
307 222 5 6 62 942 56 240 241 69 171 
308 4 3 227 70 27 238 949 427 239 76 
309 43 2 1 226 49 11 169 951 234 937 
310 232 197 455 446 390 759 938 925 647 762 
311 443 223 469 481 964 965 632 543 633 800 
312 9 75 479 7 429 933 501 124 966 82 
313 221 75 7 479 243 82 244 967 966 933 
314 71 113 230 112 434 907 293 431 963 119 
315 475 142 440 100 599 592 600 855 919 706 
316 6 125 222 83 685 943 240 90 242 686 
317 200 449 458 471 889 660 890 922 661 662 
318 57 43 1 226 170 169 63 236 234 951 
319 469 212 211 482 870 400 869 634 968 969 
320 449 200 191 471 889 401 831 662 892 922 
321 212 145 233 470 776 947 356 777 959 607 
322 485 34 206 227 496 736 970 948 271 955 
323 201 441 229 183 842 924 365 362 364 843 
324 226 28 465 484 935 512 971 936 513 492 
325 87 474 128 216 961 575 695 317 850 849 
326 183 441 218 101 843 940 347 344 346 920 
327 34 4 18 227 42 156 157 955 237 949 
328 465 229 194 207 789 414 788 822 258 413 
329 486 440 457 182 617 615 618 927 841 840 
330 206 486 193 464 796 893 270 740 838 668 
331 469 223 185 211 965 285 972 869 375 374 
332 1 28 12 226 154 155 19 234 235 935 
333 463 204 233 462 914 423 873 651 875 901 
334 113 71 230 72 434 293 907 433 294 78 
335 470 491 233 482 614 874 959 684 973 683 
336 182 475 440 100 939 600 840 335 919 855 
337 446 232 88 130 925 326 778 581 699 865 
338 446 87 474 129 811 961 582 580 576 696 
339 460 448 190 469 654 825 905 657 871 656 
340 87 188 446 474 323 779 811 961 582 887 
341 89 479 7 9 954 966 97 687 124 501 
342 479 89 7 221 954 97 966 967 244 245 
343 202 460 190 469 909 905 397 928 871 657 
344 442 472 214 478 564 916 932 626 953 629 
345 463 477 189 447 653 974 913 652 773 574 
346 115 472 74 442 563 880 439 559 882 564 
347 205 233 103 145 355 354 248 785 703 947 
348 229 459 441 201 791 621 924 365 842 876 
349 205 204 233 463 394 423 355 883 873 914 
350 452 487 476 194 671 624 673 787 794 888 
351 197 232 188 446 390 327 388 762 779 925 
352 199 486 457 182 795 618 753 358 841 927 
353 60 45 223 46 176 799 278 177 941 52 
354 469 470 212 482 658 777 870 634 969 684 
355 219 189 205 477 316 393 395 899 975 974 
356 477 85 86 219 976 93 898 899 314 315 
357 88 188 232 446 322 327 326 778 925 779 
358 455 220 214 478 917 371 977 675 953 864 
359 453 195 10 456 750 758 505 508 509 978 
360 483 113 73 114 555 435 952 554 437 120 
361 470 233 212 482 959 356 777 684 969 973 
362 206 34 18 227 736 157 269 271 237 955 
363 474 87 128 129 961 695 575 576 136 696 
364 28 226 465 12 935 971 512 155 783 235 
365 461 204 447 462 810 915 571 649 650 901 
366 217 182 486 228 341 927 923 361 797 360 
367 45 60 223 59 176 278 799 178 279 66 
368 472 214 74 442 916 304 880 564 882 932 
369 225 213 200 483 370 404 298 803 801 895 
370 212 145 103 233 776 703 350 356 354 947 
371 477 85 189 447 976 311 974 574 773 772 
372 72 113 73 483 433 435 79 802 952 555 
373 85 477 86 127 976 898 93 692 693 572 
374 486 475 182 217 619 939 927 923 341 763 
375 227 111 444 485 950 549 979 948 550 497 
376 485 34 464 206 496 526 529 970 740 736 
377 220 455 214 197 917 977 371 416 419 759 
378 226 465 12 207 971 783 235 255 253 822 
379 469 185 482 211 972 846 634 869 968 375 
380 219 85 189 477 315 311 316 899 974 976 
381 482 491 233 462 683 874 973 682 875 681 
382 483 213 200 471 895 404 801 628 922 812 
383 75 472 221 214 879 980 243 305 307 916 
384 75 479 472 116 933 565 879 430 562 502 
385 229 441 487 218 924 623 790 366 957 940 
386 57 187 445 226 273 769 770 236 981 274 
387 111 227 444 70 950 979 549 428 766 239 
388 186 444 227 70 748 979 292 290 239 766 
389 198 10 8 195 945 153 250 251 246 758 
390 223 443 469 185 964 632 965 285 972 847 
391 223 460 469 481 798 657 965 800 633 539 
392 222 62 466 480 241 877 982 944 547 956 
393 477 127 85 447 572 692 976 574 772 570 
394 230 458 199 488 906 891 380 756 757 558 
395 460 459 489 231 655 642 540 929 983 984 
396 233 205 463 145 355 883 873 947 507 785 
397 202 211 223 469 398 374 280 928 965 869 
398 218 441 487 476 940 623 957 793 624 604 
399 466 62 48 480 877 172 545 547 498 956 
400 43 445 484 226 530 532 494 951 936 981 
401 472 455 214 478 677 977 916 629 953 675 
402 189 205 477 463 393 975 974 913 653 883 
403 442 225 73 483 894 297 881 561 952 803 
404 444 186 230 71 748 295 866 767 293 291 
405 187 489 44 445 985 533 768 769 531 535 
406 198 10 195 456 945 758 251 960 978 509 
407 445 43 57 226 530 170 770 981 236 951 
408 201 231 460 202 384 929 904 396 909 282 
409 458 230 199 200 906 380 891 890 402 300 
410 226 445 465 187 981 640 971 274 828 769 
411 444 227 206 186 979 271 820 748 377 292 
412 225 442 73 184 894 881 297 303 301 817 
413 86 216 87 128 318 317 94 694 695 850 
414 216 195 474 456 387 886 849 851 578 978 
415 222 208 203 461 289 422 310 986 809 808 
416 444 488 112 230 553 552 548 866 963 756 
417 489 187 44 231 985 768 533 983 987 277 
418 477 86 127 128 898 693 572 573 135 694 
419 469 185 443 482 972 847 632 634 630 846 
420 445 489 459 187 535 642 639 769 827 985 
421 486 475 440 182 619 600 617 927 840 939 
422 445 226 465 484 981 971 640 532 513 936 
423 227 444 206 485 979 820 271 948 970 550 
424 230 112 444 71 963 548 866 293 767 431 
425 187 44 231 58 768 987 277 272 276 175 
426 479 75 472 221 933 879 565 967 980 243 
427 232 455 221 490 938 988 328 734 989 648 
428 224 211 212 482 376 400 426 912 969 968 
429 205 477 198 219 975 897 252 395 321 899 
430 203 83 222 461 309 242 310 809 986 856 
431 222 62 208 466 241 286 289 982 911 877 
432 224 212 233 482 426 356 425 912 973 969 
433 460 459 231 201 655 984 929 904 384 876 
434 457 458 488 199 659 558 638 753 757 891 
435 466 461 222 480 679 986 982 547 944 568 
436 187 489 459 231 985 642 827 277 984 983 
437 483 200 458 471 801 890 557 628 661 922 
438 229 441 218 183 924 940 366 364 347 843 
439 195 453 474 456 750 645 886 978 578 508 
440 46 223 443 481 941 964 541 537 543 800 
441 461 125 222 480 566 943 986 568 944 500 
442 221 89 232 490 245 325 328 989 734 735 
443 460 223 469 202 798 965 657 909 928 280 
444 483 73 442 114 952 881 561 554 560 437 
445 455 232 221 197 938 328 988 759 420 390 
446 204 224 233 462 424 425 423 901 875 902 
447 125 222 83 461 943 242 686 566 856 986 
448 482 233 224 462 973 425 912 682 902 875 
449 187 207 465 226 382 822 828 274 971 255 
450 477 205 198 463 975 252 897 653 946 883 
451 444 485 464 206 550 529 637 820 740 970 
452 214 455 221 197 977 988 307 419 420 759 
453 211 224 185 482 376 373 375 968 846 912 
454 222 208 461 466 289 808 986 982 679 911 
455 459 187 231 201 827 277 984 876 384 383 
456 455 214 221 472 977 307 988 677 980 916 
457 198 477 463 456 897 653 946 960 510 579 
458 195 216 198 456 387 319 251 978 960 851 
459 60 223 185 443 278 285 284 958 847 964 
460 443 60 223 46 958 278 964 541 941 177 
461 89 479 131 490 954 503 688 735 584 586 
462 455 221 490 479 988 989 648 678 586 967 
463 479 455 221 472 678 988 967 565 980 677 
464 44 489 231 716 533 983 987 730 990 991 
465 89 479 490 221 954 586 735 245 989 967 
466 44 231 58 716 987 276 175 730 732 990 
467 33 464 34 715 527 526 41 743 737 741 
468 489 44 45 716 533 51 534 991 731 730 
469 195 8 98 717 246 104 247 751 747 752 
470 231 59 58 716 275 65 276 990 732 733 
471 140 10 453 717 146 505 504 746 745 755 
472 17 18 206 715 25 269 268 742 739 738 
473 716 231 460 489 990 929 992 991 540 983 
474 460 231 716 59 929 990 992 930 733 275 
475 460 45 716 489 538 731 992 540 991 534 
476 716 45 460 59 731 538 992 733 930 178 
$EndElements
