$MeshFormat
4.1 0 8
$EndMeshFormat
$PhysicalNames
3
2 1 "bc-top"
2 2 "bc-bot"
3 3 "vol"
$EndPhysicalNames
$Entities
10 15 7 1
1 0 0 0.0005 0 
2 0 0 0 0 
3 0 0.012 0.0005 0 
4 0 0.012 0 0 
5 0.01 0 0 0 
6 0.01 0 0.0005 0 
7 0.01 0.012 0.0005 0 
8 0.0055 0.005999999999999999 0.0005 0 
9 0.01 0.012 0 0 
10 0.0055 0.005999999999999999 0 0 
1 -1e-07 -1e-07 -1.000000000000024e-07 1e-07 1e-07 0.0005001 0 2 2 -1 
2 -1e-07 -1.000000000002735e-07 0.0004999000000000001 1e-07 0.0120001 0.0005001 0 2 1 -3 
3 -1e-07 0.0119999 -1.000000000000024e-07 1e-07 0.0120001 0.0005001 0 2 4 -3 
4 -1e-07 -1.000000000002735e-07 -1e-07 1e-07 0.0120001 1e-07 0 2 2 -4 
5 -1.000000000002735e-07 -1e-07 -1e-07 0.0100001 1e-07 1e-07 0 2 2 -5 
6 0.009999900000000001 -1e-07 -1.000000000000024e-07 0.0100001 1e-07 0.0005001 0 2 5 -6 
7 -1.000000000002735e-07 -1e-07 0.0004999000000000001 0.0100001 1e-07 0.0005001 0 2 1 -6 
8 -1.000000000002735e-07 0.0119999 0.0004999000000000001 0.0100001 0.0120001 0.0005001 0 2 3 -7 
9 0.009999900000000001 -1.000000000002735e-07 0.0004999000000000001 0.0100001 0.0120001 0.0005001 0 2 6 -7 
10 0.0044999 0.005499899999999999 0.0004999000000000001 0.0055001 0.006500100000000001 0.0005001 0 2 8 -8 
11 -1.000000000002735e-07 0.0119999 -1e-07 0.0100001 0.0120001 1e-07 0 2 4 -9 
12 0.009999900000000001 0.0119999 -1.000000000000024e-07 0.0100001 0.0120001 0.0005001 0 2 9 -7 
13 0.009999900000000001 -1.000000000002735e-07 -1e-07 0.0100001 0.0120001 1e-07 0 2 5 -9 
14 0.0044999 0.005499899999999999 -1e-07 0.0055001 0.006500100000000001 1e-07 0 2 10 -10 
15 0.005499899999999999 0.005999899999999999 -1.000000000000024e-07 0.0055001 0.0060001 0.0005001 0 2 10 -8 
1 -1e-07 -1.000000000002735e-07 -1.000000000000024e-07 1e-07 0.0120001 0.0005001 0 4 -1 4 3 -2 
2 -1.000000000002735e-07 -1e-07 -1.000000000000024e-07 0.0100001 1e-07 0.0005001 1 2 4 -5 1 7 -6 
3 -1.000000000002735e-07 -1.000000000002735e-07 0.0004999000000000001 0.0100001 0.0120001 0.0005001 0 5 -2 7 9 -8 -10 
4 -1.000000000002735e-07 0.0119999 -1.000000000000024e-07 0.0100001 0.0120001 0.0005001 1 1 4 -11 3 8 -12 
5 -1.000000000002735e-07 -1.000000000002735e-07 -1e-07 0.0100001 0.0120001 1e-07 0 5 -4 5 13 -11 -14 
6 0.009999900000000001 -1.000000000002735e-07 -1.000000000000024e-07 0.0100001 0.0120001 0.0005001 0 4 -6 13 12 -9 
7 0.0044999 0.005499899999999999 -1.000000000000024e-07 0.0055001 0.006500100000000001 0.0005001 0 4 -10 -15 14 15 
1 -1.000000000002735e-07 -1.000000000002735e-07 -1.000000000000024e-07 0.0100001 0.0120001 0.0005001 1 3 7 -1 -2 3 4 -5 6 -7 
$EndEntities
$Nodes
26 333 1 333
0 1 0 1
1
0 0 0.0005
0 2 0 1
2
0 0 0
0 3 0 1
3
0 0.012 0.0005
0 4 0 1
4
0 0.012 0
0 5 0 1
5
0.01 0 0
0 6 0 1
6
0.01 0 0.0005
0 7 0 1
7
0.01 0.012 0.0005
0 8 0 1
8
0.0055 0.005999999999999999 0.0005
0 9 0 1
9
0.01 0.012 0
0 10 0 1
10
0.0055 0.005999999999999999 0
1 2 0 7
11
12
13
14
15
16
17
0 0.001499999999999999 0.0005
0 0.002999999999999999 0.0005
0 0.0045 0.0005
0 0.005999999999999999 0.0005
0 0.007499999999999999 0.0005
0 0.009000000000000001 0.0005
0 0.0105 0.0005
1 4 0 7
18
19
20
21
22
23
24
0 0.001499999999999999 0
0 0.002999999999999999 0
0 0.0045 0
0 0.005999999999999999 0
0 0.007499999999999999 0
0 0.009000000000000001 0
0 0.0105 0
1 5 0 6
25
26
27
28
29
30
0.001428571428571426 0 0
0.00285714285714285 0 0
0.004285714285714274 0 0
0.005714285714285699 0 0
0.00714285714285713 0 0
0.008571428571428565 0 0
1 7 0 6
31
32
33
34
35
36
0.001428571428571426 0 0.0005
0.00285714285714285 0 0.0005
0.004285714285714274 0 0.0005
0.005714285714285699 0 0.0005
0.00714285714285713 0 0.0005
0.008571428571428565 0 0.0005
1 8 0 6
37
38
39
40
41
42
0.001428571428571426 0.012 0.0005
0.00285714285714285 0.012 0.0005
0.004285714285714274 0.012 0.0005
0.005714285714285699 0.012 0.0005
0.00714285714285713 0.012 0.0005
0.008571428571428565 0.012 0.0005
1 9 0 7
43
44
45
46
47
48
49
0.01 0.001499999999999999 0.0005
0.01 0.002999999999999999 0.0005
0.01 0.0045 0.0005
0.01 0.005999999999999999 0.0005
0.01 0.007499999999999999 0.0005
0.01 0.009000000000000001 0.0005
0.01 0.0105 0.0005
1 10 0 6
50
51
52
53
54
55
0.005311744900929367 0.006390915741234015 0.0005
0.004888739533021844 0.006487463956090912 0.0005
0.004549515566048792 0.006216941869558781 0.0005
0.00454951556604879 0.005783058130441223 0.0005
0.004888739533021842 0.005512536043909088 0.0005
0.005311744900929367 0.005609084258765985 0.0005
1 11 0 6
56
57
58
59
60
61
0.001428571428571426 0.012 0
0.00285714285714285 0.012 0
0.004285714285714274 0.012 0
0.005714285714285699 0.012 0
0.00714285714285713 0.012 0
0.008571428571428565 0.012 0
1 13 0 7
62
63
64
65
66
67
68
0.01 0.001499999999999999 0
0.01 0.002999999999999999 0
0.01 0.0045 0
0.01 0.005999999999999999 0
0.01 0.007499999999999999 0
0.01 0.009000000000000001 0
0.01 0.0105 0
1 14 0 6
69
70
71
72
73
74
0.005311744900929367 0.006390915741234015 0
0.004888739533021844 0.006487463956090912 0
0.004549515566048792 0.006216941869558781 0
0.00454951556604879 0.005783058130441223 0
0.004888739533021842 0.005512536043909088 0
0.005311744900929367 0.005609084258765985 0
2 2 0 0
2 3 0 123
75
76
77
78
79
80
81
82
83
84
85
86
87
88
89
90
91
92
93
94
95
96
97
98
99
100
101
102
103
104
105
106
107
108
109
110
111
112
113
114
115
116
117
118
119
120
121
122
123
124
125
126
127
128
129
130
131
132
133
134
135
136
137
138
139
140
141
142
143
144
145
146
147
148
149
150
151
152
153
154
155
156
157
158
159
160
161
162
163
164
165
166
167
168
169
170
171
172
173
174
175
176
177
178
179
180
181
182
183
184
185
186
187
188
189
190
191
192
193
194
195
196
197
0.004484848550313721 0.006645979485796044 0.0005
0.004443488775275899 0.005345929323627181 0.0005
0.005159629982373425 0.006744762293418919 0.0005
0.005183855423731714 0.005194476756792439 0.0005
0.005749596399221233 0.005635070318852069 0.0005
0.005810979363788125 0.006401075303231769 0.0005
0.004173761225684006 0.006000000000000004 0.0005
0.006599306854795838 0.01076090356981198 0.0005
0.006453297868775908 0.001396061783927248 0.0005
0.003698787315100216 0.01078981329471031 0.0005
0.003571428571428562 0.001237179148263479 0.0005
0.008803569323699318 0.003676445706784723 0.0005
0.008797378120215124 0.008310900399475157 0.0005
0.001216817650863064 0.008043049487268571 0.0005
0.001190761284798786 0.003695736144052397 0.0005
0.005140726161727788 0.01065169576698451 0.0005
0.004324205913157843 0.009720305741425883 0.0005
0.003242548634855502 0.009620306542154289 0.0005
0.00388996372476642 0.008790707135592409 0.0005
0.004821500736475127 0.008844749720952666 0.0005
0.004387744258633406 0.008063436304896875 0.0005
0.003511401247344283 0.00795815613815631 0.0005
0.005243798993541448 0.007982380195595912 0.0005
0.005675820084171413 0.008814663308479256 0.0005
0.006091544302492768 0.008084634809697722 0.0005
0.006542474031988924 0.008824806635291635 0.0005
0.00698363914821158 0.008044982851753304 0.0005
0.006503129618395974 0.007229304356079024 0.0005
0.007435665603780534 0.00722974013399756 0.0005
0.006989785239068675 0.006482235552534457 0.0005
0.00798683889212337 0.006368805748541871 0.0005
0.007376296549212806 0.005670169364465506 0.0005
0.008215003951561748 0.005591743839369705 0.0005
0.00241307821634755 0.01054050663462282 0.0005
0.007707700886501944 0.004839652958935842 0.0005
0.0067780319075182 0.00490078635309679 0.0005
0.007164418008295963 0.004083687172438956 0.0005
0.006276799776122985 0.004134547986021038 0.0005
0.006655739887583968 0.003343669896563335 0.0005
0.00577755742983843 0.003422439485499179 0.0005
0.005461734103296943 0.004148440717693072 0.0005
0.004947019490622467 0.003505016403817429 0.0005
0.005233503441888681 0.00271123887400123 0.0005
0.004666447472124857 0.004269365196577839 0.0005
0.004135016804761485 0.003610904766921354 0.0005
0.003794636856201747 0.004423928369126621 0.0005
0.003231917664210418 0.003651136937631085 0.0005
0.002900611204013808 0.004471365018492656 0.0005
0.003336253334341125 0.005166016236045816 0.0005
0.002553621492736929 0.005252546887302299 0.0005
0.0031300336876352 0.005952749887973053 0.0005
0.002215385292303973 0.00605996247704541 0.0005
0.001828692210226007 0.005345566675616475 0.0005
0.00275823449568797 0.006749629869828917 0.0005
0.003658512265762274 0.002812720967786414 0.0005
0.002726963832510041 0.002813481696428242 0.0005
0.005958966366858588 0.00472747340046219 0.0005
0.00108321779481048 0.00232892763955172 0.0005
0.007640989270505889 0.008930739161069226 0.0005
0.008763206562788695 0.00961743230395019 0.0005
0.001804459677498921 0.006958548958388847 0.0005
0.002445636096017063 0.007727137484427893 0.0005
0.004077571665205558 0.007430703723467401 0.0005
0.005781396176820016 0.007359618974048771 0.0005
0.004696037934595344 0.007451824367681035 0.0005
0.00502236985334013 0.001114431323186597 0.0005
0.007699987120504498 0.003145617403134158 0.0005
0.008758862081379035 0.002409723487197792 0.0005
0.001322500271922902 0.009531771859763345 0.0005
0.007629302189266897 0.001945982358215419 0.0005
0.003535031245263753 0.006553965045787367 0.0005
0.006649862301270356 0.005794181953235886 0.0005
0.002935751798467645 0.008627089700604882 0.0005
0.007691146276944049 0.01013907819356906 0.0005
0.002308908374500191 0.00159830721076911 0.0005
0.00609941863175621 0.009650939490448707 0.0005
0.008869775461652454 0.007042393675620964 0.0005
0.003395708350364336 0.00720917234468766 0.0005
0.006120198820284219 0.00255643128252743 0.0005
0.006042169802449875 0.006864943538542887 0.0005
0.004379789306319639 0.002102371784751357 0.0005
0.004364917558276123 0.004842287475780413 0.0005
0.008822505310940998 0.00496790236561324 0.0005
0.008723905928596431 0.001136604172929496 0.0005
0.008776051304804392 0.01089926932275377 0.0005
0.005212334305457676 0.009536470805658205 0.0005
0.004802107395410728 0.00478424522190279 0.0005
0.00232330859553329 0.003709633864767168 0.0005
0.0009641395195764194 0.001085446970064166 0.0005
0.001263792608418069 0.01082704974417 0.0005
0.002412026587583552 0.009362984408397567 0.0005
0.003708972688484832 0.005691792863551683 0.0005
0.004460240948477781 0.002896540407638926 0.0005
0.007945489520873117 0.007911751244383243 0.0005
0.003959692464251418 0.005235495216906225 0.0005
0.001275446937468434 0.006003780537770656 0.0005
0.005613150434792939 0.001898712903393465 0.0005
0.00195769882592653 0.004519818007348654 0.0005
0.006139705878361983 0.005377508170567096 0.0005
0.006061500356462021 0.005984922886195309 0.0005
0.005297194007744439 0.004706270710648615 0.0005
0.005631968155963716 0.005207536997755658 0.0005
0.004815554143127938 0.006950255788293018 0.0005
0.005208046025106335 0.007196808469488088 0.0005
0.005552327708577856 0.006826354053327406 0.0005
0.003264521576324447 0.002098879201047831 0.0005
0.004088186787169883 0.006400252901560993 0.0005
0.004022940030793964 0.006861668513328673 0.0005
0.004167086143948989 0.005611255106905263 0.0005
0.006377179721977396 0.006444642811760597 0.0005
0.006987943858825398 0.002566464751780128 0.0005
0.0008593448531660837 0.006901075796685615 0.0005
0.006948601345769848 0.009574484712745123 0.0005
0.007704158340184986 0.0008957296630144326 0.0005
0.004419390464807305 0.007068086375713235 0.0005
0.002125505490878173 0.008537719004980446 0.0005
0.007966335133691195 0.004047409447051153 0.0005
0.001042099876403293 0.005010816894131362 0.0005
0.007756158030165994 0.01115985021722696 0.0005
0.008860568482649165 0.006030139263349759 0.0005
0.001800079743418026 0.003011787602174918 0.0005
0.003727197126847534 0.006119752139774621 0.0005
0.004818665623831049 0.005151573549455736 0.0005
2 4 0 0
2 5 0 123
198
199
200
201
202
203
204
205
206
207
208
209
210
211
212
213
214
215
216
217
218
219
220
221
222
223
224
225
226
227
228
229
230
231
232
233
234
235
236
237
238
239
240
241
242
243
244
245
246
247
248
249
250
251
252
253
254
255
256
257
258
259
260
261
262
263
264
265
266
267
268
269
270
271
272
273
274
275
276
277
278
279
280
281
282
283
284
285
286
287
288
289
290
291
292
293
294
295
296
297
298
299
300
301
302
303
304
305
306
307
308
309
310
311
312
313
314
315
316
317
318
319
320
0.004484848550313721 0.006645979485796044 0
0.004443488775275899 0.005345929323627181 0
0.005159629982373425 0.006744762293418919 0
0.005183855423731714 0.005194476756792439 0
0.005749596399221233 0.005635070318852069 0
0.005810979363788125 0.006401075303231769 0
0.004173761225684006 0.006000000000000004 0
0.006599306854795838 0.01076090356981198 0
0.006453297868775908 0.001396061783927248 0
0.003698787315100216 0.01078981329471031 0
0.003571428571428562 0.001237179148263479 0
0.008803569323699318 0.003676445706784723 0
0.008797378120215124 0.008310900399475157 0
0.001216817650863064 0.008043049487268571 0
0.001190761284798786 0.003695736144052397 0
0.005140726161727788 0.01065169576698451 0
0.004324205913157843 0.009720305741425883 0
0.003242548634855502 0.009620306542154289 0
0.00388996372476642 0.008790707135592409 0
0.004821500736475127 0.008844749720952666 0
0.004387744258633406 0.008063436304896875 0
0.003511401247344283 0.00795815613815631 0
0.005243798993541448 0.007982380195595912 0
0.005675820084171413 0.008814663308479256 0
0.006091544302492768 0.008084634809697722 0
0.006542474031988924 0.008824806635291635 0
0.00698363914821158 0.008044982851753304 0
0.006503129618395974 0.007229304356079024 0
0.007435665603780534 0.00722974013399756 0
0.006989785239068675 0.006482235552534457 0
0.00798683889212337 0.006368805748541871 0
0.007376296549212806 0.005670169364465506 0
0.008215003951561748 0.005591743839369705 0
0.00241307821634755 0.01054050663462282 0
0.007707700886501944 0.004839652958935842 0
0.0067780319075182 0.00490078635309679 0
0.007164418008295963 0.004083687172438956 0
0.006276799776122985 0.004134547986021038 0
0.006655739887583968 0.003343669896563335 0
0.00577755742983843 0.003422439485499179 0
0.005461734103296943 0.004148440717693072 0
0.004947019490622467 0.003505016403817429 0
0.005233503441888681 0.00271123887400123 0
0.004666447472124857 0.004269365196577839 0
0.004135016804761485 0.003610904766921354 0
0.003794636856201747 0.004423928369126621 0
0.003231917664210418 0.003651136937631085 0
0.002900611204013808 0.004471365018492656 0
0.003336253334341125 0.005166016236045816 0
0.002553621492736929 0.005252546887302299 0
0.0031300336876352 0.005952749887973053 0
0.002215385292303973 0.00605996247704541 0
0.001828692210226007 0.005345566675616475 0
0.00275823449568797 0.006749629869828917 0
0.003658512265762274 0.002812720967786414 0
0.002726963832510041 0.002813481696428242 0
0.005958966366858588 0.00472747340046219 0
0.00108321779481048 0.00232892763955172 0
0.007640989270505889 0.008930739161069226 0
0.008763206562788695 0.00961743230395019 0
0.001804459677498921 0.006958548958388847 0
0.002445636096017063 0.007727137484427893 0
0.004077571665205558 0.007430703723467401 0
0.005781396176820016 0.007359618974048771 0
0.004696037934595344 0.007451824367681035 0
0.00502236985334013 0.001114431323186597 0
0.007699987120504498 0.003145617403134158 0
0.008758862081379035 0.002409723487197792 0
0.001322500271922902 0.009531771859763345 0
0.007629302189266897 0.001945982358215419 0
0.003535031245263753 0.006553965045787367 0
0.006649862301270356 0.005794181953235886 0
0.002935751798467645 0.008627089700604882 0
0.007691146276944049 0.01013907819356906 0
0.002308908374500191 0.00159830721076911 0
0.00609941863175621 0.009650939490448707 0
0.008869775461652454 0.007042393675620964 0
0.003395708350364336 0.00720917234468766 0
0.006120198820284219 0.00255643128252743 0
0.006042169802449875 0.006864943538542887 0
0.004379789306319639 0.002102371784751357 0
0.004364917558276123 0.004842287475780413 0
0.008822505310940998 0.00496790236561324 0
0.008723905928596431 0.001136604172929496 0
0.008776051304804392 0.01089926932275377 0
0.005212334305457676 0.009536470805658205 0
0.004802107395410728 0.00478424522190279 0
0.00232330859553329 0.003709633864767168 0
0.0009641395195764194 0.001085446970064166 0
0.001263792608418069 0.01082704974417 0
0.002412026587583552 0.009362984408397567 0
0.003708972688484832 0.005691792863551683 0
0.004460240948477781 0.002896540407638926 0
0.007945489520873117 0.007911751244383243 0
0.003959692464251418 0.005235495216906225 0
0.001275446937468434 0.006003780537770656 0
0.005613150434792939 0.001898712903393465 0
0.00195769882592653 0.004519818007348654 0
0.006139705878361983 0.005377508170567096 0
0.006061500356462021 0.005984922886195309 0
0.005297194007744439 0.004706270710648615 0
0.005631968155963716 0.005207536997755658 0
0.004815554143127938 0.006950255788293018 0
0.005208046025106335 0.007196808469488088 0
0.005552327708577856 0.006826354053327406 0
0.003264521576324447 0.002098879201047831 0
0.004088186787169883 0.006400252901560993 0
0.004022940030793964 0.006861668513328673 0
0.004167086143948989 0.005611255106905263 0
0.006377179721977396 0.006444642811760597 0
0.006987943858825398 0.002566464751780128 0
0.0008593448531660837 0.006901075796685615 0
0.006948601345769848 0.009574484712745123 0
0.007704158340184986 0.0008957296630144326 0
0.004419390464807305 0.007068086375713235 0
0.002125505490878173 0.008537719004980446 0
0.007966335133691195 0.004047409447051153 0
0.001042099876403293 0.005010816894131362 0
0.007756158030165994 0.01115985021722696 0
0.008860568482649165 0.006030139263349759 0
0.001800079743418026 0.003011787602174918 0
0.003727197126847534 0.006119752139774621 0
0.004818665623831049 0.005151573549455736 0
2 7 0 7
321
322
323
324
325
326
327
0.005111260466978156 0.005512536043909088 0.0002467040395983376
0.005418986402554117 0.005727144004143652 0.0002518784762606083
0.005111260466978158 0.006487463956090912 0.0002532959604016624
0.004500000000095495 0.006000009772166456 0.0002500535379252851
0.005435311421763533 0.006245975539601425 0.0002514673765256553
0.004688254602977062 0.006390915345612078 0.0002525513078481454
0.004688253863804444 0.005609085243861093 0.0002474535769445634
3 1 0 6
328
329
330
331
332
333
0.0004408334239743008 0.009677257286587783 0.00025
0.004006841611808729 0.007786681768459216 0.0002651855437304469
0.001890463435444675 0.004009972649548934 0.0002458182466396716
0.0007773683337328943 0.006344665801102 0.0002582909318180346
0.007781312076171905 0.01165827906813507 0.0002503174764929484
0.0048873624757772 0.009894283426225855 0.0002457351488273955
$EndNodes
$Elements
3 940 1 940
2 2 2 14
1 2 31 1 
2 31 2 25 
3 36 5 6 
4 5 36 30 
5 31 25 26 
6 26 27 32 
7 31 26 32 
8 28 34 27 
9 32 27 33 
10 27 34 33 
11 34 28 29 
12 36 29 30 
13 34 29 35 
14 29 36 35 
2 4 2 14
15 4 3 56 
16 3 37 56 
17 7 9 61 
18 7 61 42 
19 37 38 57 
20 56 37 57 
21 38 39 58 
22 57 38 58 
23 58 39 40 
24 41 59 40 
25 40 59 58 
26 42 60 41 
27 41 60 59 
28 42 61 60 
3 1 4 912
29 193 41 42 332 
30 316 61 60 332 
31 170 14 186 331 
32 309 21 293 331 
33 96 218 95 329 
34 213 214 283 333 
35 285 295 212 330 
36 160 91 90 333 
37 42 41 60 332 
38 61 42 60 332 
39 162 89 172 330 
40 260 219 137 329 
41 219 218 96 329 
42 8 79 322 202 
43 91 214 213 333 
44 24 266 143 328 
45 143 17 24 328 
46 95 260 137 329 
47 322 10 8 202 
48 176 55 322 321 
49 322 321 74 299 
50 202 8 79 297 
51 183 327 306 53 
52 306 324 183 53 
53 325 8 10 297 
54 17 16 23 328 
55 295 172 89 330 
56 79 322 202 299 
57 325 80 174 203 
58 323 300 77 200 
59 177 326 300 51 
60 285 212 162 330 
61 24 17 23 328 
62 21 309 186 331 
63 300 177 51 323 
64 14 170 293 331 
65 306 166 183 81 
66 260 95 218 329 
67 321 322 176 299 
68 177 198 326 75 
69 203 325 10 297 
70 80 174 8 325 
71 198 177 326 300 
72 325 174 8 297 
73 326 198 181 75 
74 96 137 219 329 
75 95 137 96 329 
76 183 306 327 76 
77 203 174 325 297 
78 312 177 189 75 
79 302 323 77 200 
80 177 312 198 75 
81 90 91 213 333 
82 202 10 8 297 
83 300 312 198 177 
84 177 300 77 323 
85 302 80 325 203 
86 50 179 325 302 
87 304 326 181 52 
88 306 199 327 76 
89 325 179 80 302 
90 197 161 320 78 
91 326 198 304 181 
92 78 284 320 201 
93 161 284 320 78 
94 181 324 304 52 
95 166 306 204 81 
96 160 90 283 333 
97 79 202 297 296 
98 183 324 306 81 
99 174 79 8 297 
100 179 50 323 302 
101 197 199 279 76 
102 70 300 323 200 
103 77 51 177 323 
104 322 79 176 299 
105 212 295 89 330 
106 300 198 70 326 
107 162 212 89 330 
108 80 302 277 203 
109 71 198 304 326 
110 21 14 293 331 
111 326 177 75 51 
112 75 181 326 52 
113 161 118 284 175 
114 21 186 14 331 
115 302 179 80 277 
116 320 199 279 197 
117 312 189 182 75 
118 179 154 80 277 
119 199 197 327 76 
120 193 61 316 332 
121 182 198 312 75 
122 218 219 260 329 
123 201 321 78 299 
124 77 179 323 302 
125 289 306 204 166 
126 312 177 262 189 
127 198 182 181 75 
128 200 302 323 69 
129 77 300 301 200 
130 177 312 262 300 
131 197 199 327 320 
132 179 50 77 323 
133 79 202 296 299 
134 181 204 324 81 
135 324 204 306 81 
136 176 78 321 299 
137 325 302 203 69 
138 277 184 102 154 
139 179 80 50 325 
140 77 301 302 200 
141 175 201 284 78 
142 161 284 78 175 
143 204 181 324 304 
144 55 176 78 321 
145 166 204 196 81 
146 321 201 74 299 
147 203 184 277 80 
148 78 175 201 299 
149 79 174 173 297 
150 260 312 262 189 
151 53 183 327 76 
152 183 169 306 76 
153 154 184 80 277 
154 239 241 115 238 
155 306 199 72 327 
156 182 304 198 181 
157 279 120 118 156 
158 161 320 279 197 
159 300 77 301 177 
160 322 74 202 299 
161 246 289 248 166 
162 80 184 174 203 
163 55 79 176 322 
164 239 241 116 115 
165 277 302 179 261 
166 284 320 279 161 
167 175 78 176 299 
168 179 138 154 277 
169 260 189 182 312 
170 114 238 239 115 
171 71 304 204 324 
172 52 181 324 81 
173 295 285 172 330 
174 204 319 289 196 
175 172 285 162 330 
176 196 204 181 81 
177 175 176 131 299 
178 115 116 239 114 
179 199 306 169 76 
180 118 116 241 115 
181 327 320 73 197 
182 290 252 167 119 
183 306 166 169 183 
184 156 197 279 76 
185 94 218 97 95 
186 197 320 73 321 
187 193 42 61 332 
188 261 222 138 225 
189 116 290 167 119 
190 235 114 115 238 
191 175 241 284 298 
192 242 119 120 121 
193 319 181 204 304 
194 169 279 199 76 
195 196 289 204 166 
196 242 239 241 116 
197 203 184 174 297 
198 120 242 241 118 
199 242 252 119 121 
200 243 242 120 121 
201 125 126 248 124 
202 98 97 217 221 
203 279 169 120 156 
204 242 290 239 116 
205 122 120 246 123 
206 90 213 283 333 
207 139 262 218 220 
208 296 176 79 299 
209 277 102 138 154 
210 242 243 244 121 
211 233 296 173 269 
212 247 248 249 124 
213 116 241 242 118 
214 221 97 217 220 
215 218 217 97 220 
216 177 300 262 301 
217 77 302 178 179 
218 214 160 283 333 
219 120 119 242 118 
220 121 120 245 122 
221 245 243 120 121 
222 233 146 106 269 
223 296 131 176 299 
224 241 175 115 298 
225 184 146 174 297 
226 279 161 118 284 
227 114 239 117 116 
228 194 46 157 317 
229 246 123 125 124 
230 252 242 244 121 
231 238 114 239 237 
232 181 319 204 196 
233 131 233 112 254 
234 138 97 222 261 
235 116 167 290 117 
236 204 306 72 324 
237 81 183 324 53 
238 243 245 244 121 
239 173 233 131 296 
240 243 242 241 120 
241 268 181 319 304 
242 182 268 304 181 
243 146 173 174 297 
244 312 305 198 182 
245 93 218 94 95 
246 114 115 112 235 
247 126 249 248 124 
248 184 277 102 307 
249 217 94 97 98 
250 119 116 242 118 
251 218 94 97 217 
252 78 320 197 321 
253 222 102 224 99 
254 102 222 224 225 
255 252 129 119 121 
256 292 246 120 169 
257 317 46 151 194 
258 98 99 97 221 
259 238 235 114 237 
260 145 248 319 196 
261 278 167 117 290 
262 252 290 242 119 
263 117 239 290 116 
264 268 251 248 145 
265 248 124 246 125 
266 120 241 279 118 
267 221 99 97 222 
268 321 78 320 201 
269 120 246 245 122 
270 246 245 243 120 
271 178 220 261 301 
272 254 296 131 233 
273 222 102 138 225 
274 102 138 99 222 
275 298 115 241 238 
276 242 290 116 119 
277 106 233 269 229 
278 110 146 106 233 
279 97 221 222 220 
280 309 170 186 331 
281 233 112 235 234 
282 316 41 193 332 
283 196 289 248 319 
284 248 128 126 125 
285 305 304 198 182 
286 220 139 262 301 
287 278 117 171 240 
288 297 173 79 296 
289 124 248 246 247 
290 241 175 284 118 
291 178 302 261 179 
292 252 278 290 167 
293 319 181 145 196 
294 115 254 235 238 
295 239 114 117 237 
296 228 106 227 229 
297 123 120 246 169 
298 112 254 233 235 
299 309 293 170 331 
300 201 175 284 298 
301 233 173 146 269 
302 138 178 97 261 
303 220 178 139 301 
304 112 113 114 235 
305 131 112 115 254 
306 247 172 122 124 
307 105 226 151 228 
308 197 279 161 156 
309 289 196 248 166 
310 214 91 160 333 
311 169 279 120 292 
312 123 246 122 124 
313 109 110 106 233 
314 233 106 232 229 
315 172 245 247 122 
316 104 184 102 307 
317 104 105 106 227 
318 235 236 114 237 
319 298 201 175 299 
320 85 33 208 140 
321 97 218 139 95 
322 111 233 112 110 
323 175 298 299 254 
324 252 129 167 119 
325 241 120 279 243 
326 175 118 241 115 
327 125 123 246 166 
328 175 115 298 254 
329 251 249 248 126 
330 216 94 218 217 
331 147 216 270 215 
332 278 85 140 155 
333 184 203 277 307 
334 34 35 29 83 
335 138 97 99 222 
336 96 218 93 95 
337 262 177 139 189 
338 121 245 285 122 
339 147 216 215 93 
340 247 127 249 250 
341 127 250 247 172 
342 83 29 34 206 
343 29 28 34 206 
344 233 131 112 110 
345 220 222 97 261 
346 23 16 266 328 
347 208 33 27 140 
348 109 106 107 230 
349 38 37 57 231 
350 216 217 214 94 
351 245 121 285 244 
352 28 140 206 263 
353 82 90 40 205 
354 205 90 40 59 
355 91 214 207 213 
356 110 173 146 233 
357 90 59 58 40 
358 128 248 126 251 
359 140 27 208 263 
360 260 262 218 139 
361 84 207 58 213 
362 292 246 243 120 
363 149 286 31 163 
364 128 248 145 125 
365 94 216 218 93 
366 102 99 101 224 
367 246 247 122 124 
368 254 112 115 235 
369 139 95 260 137 
370 125 246 248 166 
371 218 97 139 220 
372 184 203 307 297 
373 166 289 306 169 
374 212 13 19 89 
375 16 143 266 328 
376 66 87 48 210 
377 246 247 245 122 
378 260 139 189 262 
379 161 279 118 156 
380 278 252 180 129 
381 254 115 298 238 
382 86 64 63 209 
383 113 112 234 235 
384 91 216 94 93 
385 246 166 169 289 
386 237 117 239 240 
387 260 312 182 305 
388 233 173 131 110 
389 91 215 216 93 
390 139 260 189 137 
391 179 138 277 261 
392 105 107 106 230 
393 299 131 175 254 
394 227 105 106 228 
395 102 307 277 225 
396 59 205 90 213 
397 305 268 304 182 
398 59 90 58 213 
399 58 40 39 90 
400 146 307 297 184 
401 115 175 131 254 
402 169 156 279 76 
403 60 205 41 59 
404 32 33 208 85 
405 219 270 259 147 
406 40 205 41 82 
407 205 40 41 59 
408 233 111 112 234 
409 49 134 257 67 
410 49 257 68 67 
411 66 87 47 48 
412 232 106 230 229 
413 234 264 113 236 
414 19 13 12 89 
415 237 153 236 114 
416 258 249 251 126 
417 172 247 127 124 
418 87 133 134 256 
419 117 278 171 155 
420 294 278 171 240 
421 35 83 188 311 
422 62 142 44 265 
423 44 43 142 62 
424 127 247 249 124 
425 172 285 245 122 
426 172 192 295 89 
427 140 28 206 34 
428 140 34 206 83 
429 236 114 113 235 
430 264 113 111 234 
431 16 211 266 88 
432 173 131 176 296 
433 232 109 106 233 
434 258 293 249 126 
435 296 297 173 269 
436 220 178 261 97 
437 121 252 253 244 
438 243 279 292 120 
439 26 31 32 149 
440 249 293 250 127 
441 84 58 39 90 
442 90 84 58 213 
443 109 111 110 233 
444 32 27 208 33 
445 273 160 90 283 
446 215 214 207 91 
447 309 22 21 186 
448 44 63 62 265 
449 134 49 48 67 
450 79 173 176 296 
451 147 259 219 96 
452 99 98 223 221 
453 101 224 223 256 
454 101 100 133 223 
455 16 15 211 88 
456 237 117 153 114 
457 23 16 211 266 
458 239 117 290 240 
459 6 62 158 43 
460 128 152 251 136 
461 36 5 30 281 
462 126 128 251 135 
463 138 277 261 225 
464 58 57 207 84 
465 319 268 248 145 
466 182 260 305 275 
467 245 172 247 295 
468 91 207 215 92 
469 32 208 149 85 
470 9 49 159 68 
471 117 278 290 240 
472 225 104 102 307 
473 48 210 67 66 
474 221 223 99 222 
475 65 157 317 280 
476 76 197 327 54 
477 106 228 230 229 
478 278 129 167 252 
479 130 252 121 129 
480 85 278 140 208 
481 249 126 127 124 
482 208 278 140 263 
483 13 212 19 20 
484 45 44 86 63 
485 64 86 63 45 
486 106 146 104 269 
487 189 260 182 137 
488 178 77 177 301 
489 22 16 211 23 
490 22 16 15 211 
491 205 150 90 273 
492 317 46 157 65 
493 145 251 248 128 
494 252 303 278 180 
495 327 53 76 54 
496 73 72 199 327 
497 320 73 199 327 
498 96 218 216 93 
499 97 178 139 220 
500 38 37 231 108 
501 56 57 37 231 
502 299 296 131 254 
503 170 14 293 192 
504 157 65 64 280 
505 143 16 266 88 
506 38 58 84 57 
507 171 83 140 294 
508 301 77 302 178 
509 317 274 151 65 
510 41 316 60 332 
511 46 66 151 47 
512 255 19 18 132 
513 231 207 57 84 
514 65 46 157 64 
515 285 162 121 122 
516 68 159 9 282 
517 259 275 219 152 
518 219 147 216 270 
519 259 251 275 152 
520 226 168 151 291 
521 45 157 46 64 
522 259 96 152 219 
523 274 66 151 65 
524 215 92 147 93 
525 96 216 147 93 
526 31 26 25 149 
527 272 25 26 149 
528 313 143 88 190 
529 256 134 87 210 
530 181 182 268 145 
531 207 84 91 213 
532 95 260 218 139 
533 157 109 107 230 
534 315 14 13 192 
535 218 216 219 96 
536 285 121 253 244 
537 307 225 104 227 
538 212 132 19 255 
539 46 317 151 65 
540 148 134 133 256 
541 139 177 262 301 
542 182 260 275 137 
543 223 224 99 222 
544 212 132 89 19 
545 271 257 148 256 
546 226 105 151 103 
547 231 38 84 57 
548 181 268 319 145 
549 236 113 234 235 
550 135 128 251 136 
551 141 264 265 267 
552 58 38 84 39 
553 7 159 42 61 
554 66 46 151 65 
555 86 141 264 265 
556 9 49 7 159 
557 109 111 233 234 
558 307 146 297 269 
559 286 18 2 163 
560 127 192 250 172 
561 153 114 113 236 
562 302 178 261 301 
563 19 12 11 132 
564 27 34 140 33 
565 269 227 106 229 
566 147 219 216 96 
567 113 112 111 234 
568 214 215 216 91 
569 305 275 268 182 
570 231 165 143 288 
571 258 259 211 135 
572 216 91 94 214 
573 62 6 158 5 
574 5 158 62 281 
575 230 109 106 232 
576 177 139 178 301 
577 24 4 17 287 
578 256 257 134 210 
579 83 29 311 35 
580 293 249 126 127 
581 210 48 134 87 
582 117 237 153 240 
583 28 27 140 263 
584 150 90 82 205 
585 203 10 325 69 
586 8 50 80 325 
587 297 146 173 269 
588 215 91 92 93 
589 89 12 19 132 
590 82 193 271 316 
591 199 292 279 169 
592 82 316 41 193 
593 227 106 104 269 
594 224 101 168 256 
595 303 85 278 180 
596 29 83 311 206 
597 233 232 109 234 
598 259 135 136 88 
599 286 31 25 149 
600 272 286 25 149 
601 295 285 245 172 
602 141 142 144 267 
603 184 104 146 307 
604 278 171 140 294 
605 171 278 140 155 
606 285 172 162 122 
607 179 178 138 261 
608 129 180 278 155 
609 13 315 192 89 
610 228 226 151 274 
611 315 13 212 89 
612 199 306 292 169 
613 11 18 19 132 
614 286 272 255 132 
615 228 105 106 230 
616 14 315 293 192 
617 98 217 160 221 
618 208 32 149 26 
619 90 91 84 213 
620 250 295 247 172 
621 196 145 248 125 
622 96 147 259 136 
623 232 280 109 314 
624 251 268 275 145 
625 317 107 105 230 
626 3 17 287 164 
627 3 17 4 287 
628 27 32 208 26 
629 210 257 134 67 
630 141 113 111 264 
631 277 102 225 138 
632 20 14 315 21 
633 20 14 13 315 
634 213 205 90 273 
635 286 149 132 163 
636 99 98 100 223 
637 144 188 83 311 
638 159 7 9 61 
639 61 9 159 282 
640 91 84 207 92 
641 284 279 241 118 
642 1 2 18 163 
643 289 169 246 292 
644 36 6 5 158 
645 5 36 158 281 
646 267 144 206 311 
647 253 195 272 130 
648 86 63 265 209 
649 223 133 101 256 
650 168 226 151 103 
651 153 308 83 276 
652 280 64 86 209 
653 206 140 294 263 
654 187 205 271 310 
655 36 35 188 311 
656 215 207 231 92 
657 126 251 258 135 
658 227 105 226 104 
659 34 27 140 28 
660 160 273 90 150 
661 170 126 258 135 
662 275 260 219 137 
663 82 193 148 271 
664 289 292 306 169 
665 167 278 117 155 
666 48 210 134 67 
667 209 86 264 265 
668 248 196 125 166 
669 182 275 268 145 
670 211 135 186 258 
671 121 285 253 162 
672 226 102 224 225 
673 96 259 152 136 
674 192 315 295 89 
675 212 295 315 89 
676 223 98 150 221 
677 258 211 309 186 
678 210 151 66 87 
679 134 148 257 256 
680 217 160 214 94 
681 152 259 251 136 
682 18 11 1 163 
683 217 98 160 94 
684 291 256 168 210 
685 224 99 101 223 
686 99 100 101 223 
687 153 237 236 276 
688 38 231 84 108 
689 15 21 186 14 
690 21 15 186 22 
691 166 246 169 123 
692 258 293 126 170 
693 147 288 215 270 
694 208 272 26 149 
695 180 85 278 155 
696 68 159 257 49 
697 159 49 134 257 
698 148 257 271 282 
699 142 86 44 265 
700 212 20 13 315 
701 129 278 167 155 
702 308 153 83 185 
703 36 29 311 30 
704 291 151 226 274 
705 192 250 293 127 
706 308 83 144 185 
707 266 211 313 88 
708 151 66 87 47 
709 21 14 315 293 
710 271 193 282 316 
711 31 286 2 163 
712 62 158 142 265 
713 158 142 43 62 
714 187 82 148 271 
715 230 280 109 232 
716 225 104 226 102 
717 195 255 272 132 
718 87 256 168 133 
719 307 104 146 269 
720 157 64 86 280 
721 191 109 280 314 
722 237 153 240 276 
723 259 258 251 135 
724 141 86 142 265 
725 142 141 265 267 
726 256 168 224 291 
727 252 130 121 253 
728 63 86 265 44 
729 197 54 78 321 
730 64 157 86 45 
731 206 140 83 294 
732 211 22 309 186 
733 288 165 143 190 
734 10 322 74 202 
735 231 37 287 164 
736 151 210 66 274 
737 159 68 257 282 
738 79 55 8 322 
739 291 151 210 168 
740 17 287 143 24 
741 266 287 24 143 
742 317 157 107 230 
743 158 144 142 267 
744 160 150 98 221 
745 280 86 191 314 
746 105 227 226 228 
747 321 320 73 201 
748 151 105 228 317 
749 198 71 70 326 
750 135 251 259 136 
751 52 326 75 51 
752 37 231 108 164 
753 287 56 37 231 
754 294 140 278 263 
755 206 308 144 267 
756 133 168 101 256 
757 318 255 272 195 
758 104 225 226 227 
759 143 313 88 266 
760 133 100 187 223 
761 105 151 194 317 
762 3 56 287 4 
763 287 37 3 164 
764 303 149 180 130 
765 160 217 214 283 
766 195 253 272 318 
767 193 271 282 148 
768 283 160 217 221 
769 187 273 205 310 
770 206 144 83 311 
771 29 36 311 35 
772 41 316 205 60 
773 295 250 192 172 
774 31 2 1 163 
775 56 3 287 37 
776 287 17 143 164 
777 135 259 211 88 
778 316 82 41 205 
779 231 84 92 207 
780 253 162 130 121 
781 316 271 82 205 
782 187 271 256 310 
783 314 264 111 234 
784 90 213 273 283 
785 143 313 288 190 
786 101 103 102 224 
787 231 288 215 165 
788 204 72 71 324 
789 81 324 52 53 
790 288 147 215 165 
791 105 228 317 230 
792 256 87 168 210 
793 265 62 158 281 
794 150 100 98 223 
795 113 264 308 236 
796 257 159 148 134 
797 255 18 286 132 
798 104 307 227 269 
799 85 303 149 180 
800 180 252 130 129 
801 105 194 107 317 
802 163 18 132 286 
803 293 126 170 127 
804 152 251 145 128 
805 85 303 278 208 
806 88 136 259 190 
807 205 187 271 82 
808 149 286 132 272 
809 258 170 135 186 
810 88 259 313 190 
811 158 265 267 142 
812 148 187 256 133 
813 165 215 231 92 
814 168 87 151 210 
815 170 258 309 186 
816 266 288 231 143 
817 271 187 256 148 
818 92 165 215 147 
819 144 158 188 311 
820 256 187 310 223 
821 214 91 94 160 
822 314 280 86 209 
823 182 137 275 152 
824 158 267 311 144 
825 313 259 270 147 
826 264 191 86 314 
827 293 258 309 170 
828 273 187 205 150 
829 135 211 186 88 
830 303 253 272 130 
831 54 55 78 321 
832 201 73 321 74 
833 283 273 160 221 
834 251 152 145 275 
835 159 257 148 282 
836 308 83 206 144 
837 83 276 308 206 
838 255 195 212 132 
839 86 141 191 264 
840 195 212 132 89 
841 151 291 210 274 
842 18 163 132 11 
843 252 180 130 303 
844 308 144 141 185 
845 294 153 83 276 
846 211 15 186 88 
847 308 264 141 267 
848 286 31 2 25 
849 200 323 70 69 
850 256 187 223 133 
851 194 157 107 317 
852 165 231 143 108 
853 191 109 157 280 
854 51 77 50 323 
855 264 111 191 314 
856 15 211 186 22 
857 86 191 157 280 
858 272 195 132 149 
859 195 255 212 318 
860 171 153 83 294 
861 265 158 267 281 
862 137 219 275 152 
863 191 141 111 264 
864 153 171 117 240 
865 275 182 152 145 
866 236 113 153 308 
867 137 96 219 152 
868 84 231 92 108 
869 272 195 149 130 
870 187 150 82 205 
871 144 308 141 267 
872 282 193 61 316 
873 313 270 288 147 
874 141 185 113 308 
875 264 113 308 141 
876 193 159 148 282 
877 105 104 103 226 
878 314 111 109 234 
879 86 264 314 209 
880 295 250 315 192 
881 313 211 259 88 
882 109 232 314 234 
883 293 170 192 127 
884 150 273 223 221 
885 288 266 313 143 
886 109 157 280 230 
887 149 208 303 85 
888 303 252 253 130 
889 318 285 212 162 
890 151 228 274 317 
891 136 147 259 190 
892 147 313 259 190 
893 224 103 102 226 
894 158 311 36 188 
895 287 266 231 143 
896 276 236 153 308 
897 153 294 240 276 
898 267 158 311 281 
899 147 165 288 190 
900 224 103 168 101 
901 150 160 273 221 
902 104 102 103 226 
903 143 231 287 164 
904 281 30 36 311 
905 294 153 240 171 
906 143 108 231 164 
907 185 153 113 308 
908 109 191 111 314 
909 253 285 318 162 
910 150 187 100 223 
911 250 192 293 315 
912 42 159 193 61 
913 147 288 313 190 
914 276 83 294 206 
915 231 108 165 92 
916 226 224 168 291 
917 149 303 272 130 
918 157 317 280 230 
919 61 159 193 282 
920 195 253 162 130 
921 187 273 310 223 
922 195 162 212 89 
923 272 208 303 149 
924 311 158 36 281 
925 162 212 318 195 
926 103 224 168 226 
927 187 150 273 223 
928 162 318 253 195 
929 17 143 16 328 
930 24 23 266 328 
931 323 325 302 50 
932 302 325 323 69 
933 324 327 306 72 
934 324 306 327 53 
935 326 323 300 51 
936 300 323 326 70 
937 327 321 197 73 
938 197 321 327 54 
939 326 324 304 71 
940 326 304 324 52 
$EndElements
