$MeshFormat
4.1 0 8
$EndMeshFormat
$PhysicalNames
3
2 1 "bc-bot"
2 2 "bc-top"
3 3 "vol"
$EndPhysicalNames
$Entities
2 3 3 1
1 -1.224646799147353e-18 0.012 0.005 0 
2 -1.224646799147353e-18 0 0.005 0 
1 -0.0050001 0.0119999 -0.0050001 0.0050001 0.0120001 0.0050001 0 2 1 -1 
2 -1.000000000012246e-07 -1.000000000002735e-07 0.0049999 9.999999999877534e-08 0.0120001 0.0050001 0 2 2 -1 
3 -0.0050001 -1e-07 -0.0050001 0.0050001 1e-07 0.0050001 0 2 2 -2 
1 -0.0050001 -1.000000000002735e-07 -0.0050001 0.0050001 0.0120001 0.0050001 0 4 -1 -2 3 2 
2 -0.0050001 0.0119999 -0.0050001 0.0050001 0.0120001 0.0050001 1 2 1 1 
3 -0.0050001 -1e-07 -0.0050001 0.0050001 1e-07 0.0050001 1 1 1 3 
1 -0.0050001 -1.000000000002735e-07 -0.0050001 0.0050001 0.0120001 0.0050001 1 3 3 1 2 -3 
$EndEntities
$Nodes
9 217 1 217
0 1 0 1
1
-1.224646799147353e-18 0.012 0.005
0 2 0 1
2
-1.224646799147353e-18 0 0.005
1 1 0 15
3
4
5
6
7
8
9
10
11
12
13
14
15
16
17
0.001913417161825444 0.012 0.004619397662556436
0.003535533905932731 0.012 0.003535533905932744
0.004619397662556429 0.012 0.001913417161825461
0.005 0.012 1.695950706916419e-17
0.004619397662556444 0.012 -0.001913417161825426
0.003535533905932758 0.012 -0.003535533905932717
0.001913417161825478 0.012 -0.004619397662556422
3.613946018757869e-17 0.012 -0.005
-0.001913417161825411 0.012 -0.00461939766255645
-0.003535533905932715 0.012 -0.00353553390593276
-0.004619397662556425 0.012 -0.001913417161825472
-0.005 0.012 -2.312294559186364e-17
-0.004619397662556442 0.012 0.00191341716182543
-0.003535533905932745 0.012 0.003535533905932731
-0.001913417161825452 0.012 0.004619397662556432
1 2 0 5
18
19
20
21
22
-1.224646799147353e-18 0.001999999999999999 0.005
-1.224646799147353e-18 0.003999999999999999 0.005
-1.224646799147353e-18 0.006 0.005
-1.224646799147353e-18 0.008 0.005
-1.224646799147353e-18 0.01 0.005
1 3 0 15
23
24
25
26
27
28
29
30
31
32
33
34
35
36
37
0.001913417161825444 0 0.004619397662556436
0.003535533905932731 0 0.003535533905932744
0.004619397662556429 0 0.001913417161825461
0.005 0 1.695950706916419e-17
0.004619397662556444 0 -0.001913417161825426
0.003535533905932758 0 -0.003535533905932717
0.001913417161825478 0 -0.004619397662556422
3.613946018757869e-17 0 -0.005
-0.001913417161825411 0 -0.00461939766255645
-0.003535533905932715 0 -0.00353553390593276
-0.004619397662556425 0 -0.001913417161825472
-0.005 0 -2.312294559186364e-17
-0.004619397662556442 0 0.00191341716182543
-0.003535533905932745 0 0.003535533905932731
-0.001913417161825452 0 0.004619397662556432
2 1 0 97
38
39
40
41
42
43
44
45
46
47
48
49
50
51
52
53
54
55
56
57
58
59
60
61
62
63
64
65
66
67
68
69
70
71
72
73
74
75
76
77
78
79
80
81
82
83
84
85
86
87
88
89
90
91
92
93
94
95
96
97
98
99
100
101
102
103
104
105
106
107
108
109
110
111
112
113
114
115
116
117
118
119
120
121
122
123
124
125
126
127
128
129
130
131
132
133
134
0.004903926402016156 0.01031320202911043 -0.0009754516100806214
0.001077609146920104 0.002067983804134917 -0.004882495112795724
-0.004903926402016148 0.001686797970889576 -0.0009754516100806651
-0.00277785116509798 0.01031320202910973 -0.004157348061512747
0.004938618734167545 0.002006967817669809 0.0007810537744159197
-0.004903926402016157 0.01031320202911042 0.0009754516100806197
0.0010771381427705 0.009933046886612448 -0.004882599043684513
-0.002797647691404247 0.001548871761223712 -0.004144052050201649
0.00210239717993953 0.007096486347437907 0.004536510343621219
-0.001703675492999734 0.005000056799615044 0.004700796721253974
0.004157348061512742 0.001686797970894656 -0.002777851165097988
0.004176952858243688 0.01065091761953895 0.002748283977322921
-0.004157348061512735 0.001686797970893391 0.002777851165097998
0.001705872210923194 0.002999999999999999 0.004700000000000002
-0.00170587221092333 0.009000000000000001 0.004699999999999952
-0.001703710676709638 0.006996077507933107 0.004700783969729474
-0.003198217741861214 0.005999992576198808 0.003843358332974452
-0.003201034629087706 0.004508053304698913 0.003841012536217674
-0.004307396612363379 0.005009761091662713 0.002538963257670438
-0.00430678212615452 0.00698313838051515 0.002540005456261059
-0.004909668910142028 0.005993019264602622 0.0009461243009165327
-0.004908741776858854 0.004543004204751464 0.0009509227981916223
-0.004943222601521536 0.005017150272376938 -0.0007513656312386534
-0.004943315589070049 0.006973528181613349 -0.0007507536126167025
-0.004408924310424199 0.005997921422125283 -0.00235825919375935
-0.004409490504152136 0.007952735016720634 -0.002357200350795864
-0.003370698365644046 0.00697635228605117 -0.00369301943236758
-0.003369544103727559 0.005023208030939692 -0.003694072621516101
-0.001942935570731482 0.005726463122450702 -0.004607059948382084
-0.001943259970548195 0.00434221693285983 -0.004606923125782003
-0.0003000308664063796 0.00502643120194659 -0.00499099002996434
-0.0003014567321581453 0.00697794964285554 -0.004990904110342788
0.001378942321908735 0.00600340953679237 -0.004806091767002472
0.001380380169576043 0.004052186196869416 -0.004805678993382852
0.002901621888003821 0.005029074658738083 -0.004071927113671995
0.002900471678529383 0.00698108464745454 -0.004072746498623372
0.004091756679068837 0.006005861743113156 -0.002873591355655074
0.004090588265751509 0.007956257965696129 -0.002875254360938536
0.004815025817207829 0.006982585603369943 -0.001347414702169334
0.004815596080052928 0.005030461105282564 -0.001345375186993902
0.004988697654487813 0.006008331714984827 0.0003359995715887029
0.004988846823662589 0.007482793339338887 0.0003337774258869186
0.004589618661438267 0.006585751905561771 0.001983784399217216
0.004588412088811885 0.005023572532326446 0.001986573558478255
0.00289931636250957 0.008931153904981644 -0.004073569028515937
0.003656094838950795 0.006006525078360562 0.003410714078986593
0.003656223493081549 0.007976811406511009 0.003410576163735177
0.003654723043382383 0.004037797303597075 0.003412183974549119
0.002182545327166146 0.009068794844026245 0.004498499293638405
0.002902857844453077 0.003078016440266446 -0.004071046098350795
-0.004943190245625734 0.008930688645986279 -0.0007515784693234607
-0.004409347811893976 0.009905925659681339 -0.002357467258255311
0.002213023287155641 0.005028908274550603 0.004483584272711605
0.003313845002238889 0.001840065601200847 0.003744119562879415
0.004090116879955054 0.0099078170089305 -0.002875924878766262
-0.003196450297410356 0.007996095062228167 0.0038448284091992
-0.004312716349773388 0.008958043842971468 0.002529916537437018
-0.001703710676709638 0.003003922492066892 0.004700783969729474
-0.004909408265366785 0.007655456460674252 0.0009474758487414303
0.001378586593957119 0.007952714120320309 -0.004806193816624722
0.004092008296063548 0.004056613969981947 -0.002873233040487161
0.004830127666862338 0.002952869984842163 -0.00129223323042359
0.004988011048264388 0.004035405200388247 0.0003460430354629415
-0.0009788193914251927 0.0102754922471404 -0.004903255306321507
-0.001913417161824798 0.008626404058220479 -0.004619397662556704
-0.0009397294049481483 0.001570600252666872 -0.004910896928818177
-0.004166036187429458 0.001619284710277336 -0.002764804239910708
-0.00462431322833531 0.003188451369165448 -0.001901506551722362
-0.004905662451790892 0.002373777066879588 0.0009666829413458039
0.00490022817084899 0.01047051905775118 0.0009938631060754622
-0.003200717279081434 0.009978235573527439 0.003841276988110795
-0.002821517342445758 0.001307550843115828 0.004127837192317282
0.004562807884354246 0.003165969190043925 0.00204469660597232
-0.003535533905932598 0.00321544312685698 -0.003535533905932878
0.004619517056892874 0.008797138109704608 0.001913128892959333
-0.003446771395561926 0.008752993826441676 -0.003622121884577615
-0.000187967955452821 0.003264717983908881 -0.004996465555542526
-0.000188722538514867 0.008737388297559526 -0.004996437110927797
0.004773603728565126 0.008685575420982269 -0.0014875172075069
0.002777851165098036 0.001382856984153089 -0.00415734806151271
0.002777851165098036 0.01062240971281944 -0.00415734806151271
-0.004367082297309341 0.003491253113099251 0.002434870059885614
0.002777851165098005 0.01062172000153944 0.00415734806151273
-0.004915182316026673 0.01059879017701567 -0.0009170511437311846
0.004373054770549028 0.001510625163841333 0.002424127053967757
0.004903926402016157 0.001327682062134107 -0.0009754516100806203
-0.004213144385712535 0.01059950466723823 0.002692473655421525
-0.004985674586446579 0.003160866539297447 -0.0003782180826728657
-0.001454577538134233 0.001475981660617558 0.004783743741626986
-0.001564896375236419 0.01027981448348291 0.004748799778341041
0.001510126377949435 0.001591095068401661 0.004766499588022779
0.001496628422755934 0.0107747266299856 0.004770755009869935
0.003414941645643929 0.009406831505568534 0.003652146431462837
-0.004247221811508059 0.004568392012347765 -0.002638390964934916
0.004999692409646833 0.009119555430643436 5.54599758370675e-05
-0.003491158206434588 0.002820822357439029 0.003579359492652901
-0.001914184040459434 0.002664448739298628 -0.004619079936443014
2 2 0 25
135
136
137
138
139
140
141
142
143
144
145
146
147
148
149
150
151
152
153
154
155
156
157
158
159
0.002747103829134461 0.012 -0.001736869114533524
-0.002672671475943574 0.012 0.001785821986401728
0.001876011349584362 0.012 0.002344046073754606
-0.001902160914263374 0.012 -0.00282809742492455
0.003258259712549153 0.012 0.0007840870563530164
0.0005967831098843694 0.012 -0.003270044007792842
-0.0006270972879468598 0.012 0.003152630961100258
-0.003438057871356735 0.012 -0.0006899142436705707
0.002106520661450201 0.012 -0.003152630961100248
0.0009171406719848353 0.012 -0.001383994752304555
-0.0006737253241410548 0.012 -0.002133508066570889
-0.0008486564242975511 0.012 -0.0003308651112545655
0.0005634535208527659 0.012 0.000855870204790508
-0.00105574521318384 0.012 0.001547893468160816
0.001892409438553588 0.012 -6.102065453425285e-06
-0.0007397116867516326 0.012 -0.003718781775593657
-0.003105791308780317 0.012 -0.002068050771252224
0.0007271307176366582 0.012 0.003543813265643066
-0.002106520661450184 0.012 0.003152630961100254
0.003503434128558729 0.012 -0.0005744602570918682
0.003322300657655668 0.012 0.002144271049466457
-0.003718781775593649 0.012 0.000739711686751645
-0.002197409943737617 0.012 0.00043709201401244
0.0002967506173886172 0.012 0.00228885079468985
-0.002027633631096108 0.012 -0.00126889060061006
2 3 0 25
160
161
162
163
164
165
166
167
168
169
170
171
172
173
174
175
176
177
178
179
180
181
182
183
184
0.002747103829134461 0 -0.001736869114533524
-0.002672671475943574 0 0.001785821986401728
0.001876011349584362 0 0.002344046073754606
-0.001902160914263374 0 -0.00282809742492455
0.003258259712549153 0 0.0007840870563530164
0.0005967831098843694 0 -0.003270044007792842
-0.0006270972879468598 0 0.003152630961100258
-0.003438057871356735 0 -0.0006899142436705707
0.002106520661450201 0 -0.003152630961100248
0.0009171406719848353 0 -0.001383994752304555
-0.0006737253241410548 0 -0.002133508066570889
-0.0008486564242975511 0 -0.0003308651112545655
0.0005634535208527659 0 0.000855870204790508
-0.00105574521318384 0 0.001547893468160816
0.001892409438553588 0 -6.102065453425285e-06
-0.0007397116867516326 0 -0.003718781775593657
-0.003105791308780317 0 -0.002068050771252224
0.0007271307176366582 0 0.003543813265643066
-0.002106520661450184 0 0.003152630961100254
0.003503434128558729 0 -0.0005744602570918682
0.003322300657655668 0 0.002144271049466457
-0.003718781775593649 0 0.000739711686751645
-0.002197409943737617 0 0.00043709201401244
0.0002967506173886172 0 0.00228885079468985
-0.002027633631096108 0 -0.00126889060061006
3 1 0 33
185
186
187
188
189
190
191
192
193
194
195
196
197
198
199
200
201
202
203
204
205
206
207
208
209
210
211
212
213
214
215
216
217
1.298935728240498e-07 0.004917397415445361 -1.350876829842029e-07
-0.001223846280462966 0.008443979053545788 0.0005785716779685625
0.001679642428572391 0.007636664055941622 -0.0006898347380529363
-0.002049252314316268 0.00282767319949891 -0.0004096028294581353
-0.0004529232689578313 0.002826977267282876 0.002052399174763827
-0.0003769360762719209 0.009109237130646573 -0.002120490765086502
0.0002793813275005049 0.002755771380192899 -0.002163421083570955
-0.002216169095579974 0.00599653584847034 0.001143614219687711
0.002235458784652551 0.002991744818989216 0.0001165347271126061
0.001107977451799655 0.009422623598868326 0.001698525036804878
-0.001590949278328855 0.006641895412870903 -0.001545178969042873
0.0003522974523083238 0.006696522393899258 0.002231934622971953
0.001140429672175625 0.005610823816406123 -0.002239762815647305
0.002455547930380652 0.005528208621892638 0.0006028145962835151
-0.002518097417743213 0.009962564066575218 -0.0004562614484719447
0.002589338189718252 0.009823873907025441 -0.000806957179312584
-0.001591468596394688 0.004335178941368012 -0.002227329831777607
-0.001052408033647229 0.009851669877643021 0.002406619748008044
-0.002267008339274765 0.001786949281103755 -0.002072805538165854
4.628637010023375e-05 0.00205844963432361 -2.001915309500561e-05
-0.002365705414507133 0.003822740802507258 0.001544382648118896
0.002549828538036566 0.007662809763687715 0.001429241781940619
-0.002885636987776599 0.001734924208181087 0.0009526771985846763
0.001238473129677783 0.004482884346553143 0.002372346242695332
0.0004401484273146306 0.01010908252689369 -0.0003091883279956612
0.001462741638696125 0.01005742178055142 -0.00259034298648152
0.001070239495747477 0.007677174722672694 -0.00272347643307302
-0.000863901059208981 0.004841084768808651 0.00271675770420058
0.001072129356010049 0.001764812637060142 0.002724219461469316
-0.003056500564869746 0.007933382678646596 -0.0007290397960393632
-0.002820622873536701 0.004821420632608707 -0.0005420048092384595
-0.00159845103545775 0.007546762121961745 0.002488802386812996
0.002730036777765459 0.004540881875229373 -0.001279581741194878
$EndNodes
$Elements
3 799 1 799
2 2 2 64
1 3 152 1 
2 1 141 17 
3 1 152 141 
4 4 137 3 
5 137 152 3 
6 5 155 4 
7 4 155 137 
8 6 139 5 
9 139 155 5 
10 7 154 6 
11 6 154 139 
12 8 135 7 
13 135 154 7 
14 9 143 8 
15 8 143 135 
16 10 140 9 
17 140 143 9 
18 11 150 10 
19 10 150 140 
20 12 138 11 
21 138 150 11 
22 13 151 12 
23 12 151 138 
24 14 142 13 
25 142 151 13 
26 15 156 14 
27 14 156 142 
28 16 136 15 
29 136 156 15 
30 17 153 16 
31 16 153 136 
32 141 153 17 
33 143 144 135 
34 144 149 135 
35 149 154 135 
36 136 153 148 
37 148 157 136 
38 136 157 156 
39 139 149 137 
40 137 155 139 
41 137 149 147 
42 147 158 137 
43 137 158 152 
44 145 150 138 
45 138 159 145 
46 151 159 138 
47 139 154 149 
48 140 144 143 
49 140 145 144 
50 140 150 145 
51 148 153 141 
52 141 158 148 
53 152 158 141 
54 142 159 151 
55 156 157 142 
56 157 159 142 
57 145 146 144 
58 146 147 144 
59 147 149 144 
60 145 159 146 
61 146 148 147 
62 146 157 148 
63 146 159 157 
64 148 158 147 
2 3 2 64
65 23 2 177 
66 2 37 166 
67 2 166 177 
68 24 23 162 
69 162 23 177 
70 25 24 180 
71 24 162 180 
72 26 25 164 
73 164 25 180 
74 27 26 179 
75 26 164 179 
76 28 27 160 
77 160 27 179 
78 29 28 168 
79 28 160 168 
80 30 29 165 
81 165 29 168 
82 31 30 175 
83 30 165 175 
84 32 31 163 
85 163 31 175 
86 33 32 176 
87 32 163 176 
88 34 33 167 
89 167 33 176 
90 35 34 181 
91 34 167 181 
92 36 35 161 
93 161 35 181 
94 37 36 178 
95 36 161 178 
96 166 37 178 
97 168 160 169 
98 169 160 174 
99 174 160 179 
100 161 173 178 
101 173 161 182 
102 161 181 182 
103 164 162 174 
104 162 164 180 
105 162 172 174 
106 172 162 183 
107 162 177 183 
108 170 163 175 
109 163 170 184 
110 176 163 184 
111 164 174 179 
112 165 168 169 
113 165 169 170 
114 165 170 175 
115 173 166 178 
116 166 173 183 
117 177 166 183 
118 167 176 184 
119 181 167 182 
120 182 167 184 
121 170 169 171 
122 171 169 172 
123 172 169 174 
124 170 171 184 
125 171 172 173 
126 171 173 182 
127 171 182 184 
128 173 172 183 
3 1 4 671
129 180 122 164 193 
130 139 107 194 200 
131 168 160 117 191 
132 180 122 193 213 
133 136 124 199 202 
134 49 155 139 194 
135 150 145 138 190 
136 48 191 160 193 
137 112 194 107 200 
138 138 159 151 199 
139 124 94 199 202 
140 48 117 160 191 
141 180 193 164 213 
142 139 107 49 194 
143 160 179 123 193 
144 151 41 138 199 
145 113 190 199 214 
146 41 190 138 199 
147 101 140 150 190 
148 191 193 48 217 
149 107 112 49 194 
150 186 187 185 195 
151 74 76 187 217 
152 74 187 75 211 
153 87 191 48 217 
154 185 187 186 196 
155 186 199 94 202 
156 113 195 190 214 
157 113 190 41 199 
158 194 200 112 206 
159 150 140 145 190 
160 94 199 186 214 
161 68 191 71 197 
162 190 195 69 211 
163 200 210 75 211 
164 180 164 162 213 
165 74 197 187 211 
166 74 76 75 187 
167 170 191 175 203 
168 74 75 73 211 
169 76 198 187 217 
170 68 191 197 201 
171 48 87 117 191 
172 109 189 178 207 
173 74 187 197 217 
174 187 200 75 211 
175 175 191 103 203 
176 160 191 169 193 
177 145 146 159 199 
178 186 190 187 195 
179 195 197 69 211 
180 178 189 173 207 
181 68 114 71 191 
182 152 158 194 202 
183 69 115 190 211 
184 116 79 132 200 
185 140 190 101 210 
186 145 190 146 199 
187 123 48 160 193 
188 73 197 74 211 
189 132 112 107 200 
190 186 214 192 216 
191 133 189 109 207 
192 178 126 166 189 
193 145 146 190 209 
194 71 191 87 197 
195 116 187 79 200 
196 129 22 152 194 
197 157 136 199 202 
198 175 165 103 191 
199 68 114 191 201 
200 72 71 87 197 
201 155 137 139 194 
202 178 166 173 189 
203 186 202 94 216 
204 187 195 190 211 
205 109 126 178 189 
206 185 192 186 195 
207 186 192 185 196 
208 132 112 200 206 
209 185 195 187 197 
210 87 197 191 217 
211 157 136 156 199 
212 170 165 175 191 
213 49 137 155 194 
214 40 188 167 203 
215 168 169 160 191 
216 133 205 189 207 
217 163 175 45 203 
218 170 175 163 203 
219 82 75 210 211 
220 72 197 87 217 
221 168 117 165 191 
222 167 188 184 203 
223 152 194 22 202 
224 187 194 186 196 
225 43 124 94 199 
226 96 214 186 216 
227 96 186 94 216 
228 115 210 190 211 
229 68 197 66 201 
230 122 110 193 213 
231 96 94 186 214 
232 146 199 190 209 
233 161 178 173 207 
234 187 197 195 211 
235 151 89 41 199 
236 199 202 186 209 
237 96 192 214 216 
238 187 190 186 209 
239 83 206 198 208 
240 167 188 40 207 
241 61 192 58 215 
242 140 145 190 210 
243 58 192 61 214 
244 187 196 185 198 
245 116 76 79 187 
246 76 77 78 198 
247 116 75 187 200 
248 66 68 69 197 
249 137 129 152 194 
250 167 182 184 207 
251 134 103 191 203 
252 179 160 174 193 
253 167 184 188 207 
254 61 214 192 215 
255 116 75 76 187 
256 66 197 195 201 
257 165 117 39 191 
258 49 112 130 194 
259 57 192 96 216 
260 152 141 158 202 
261 160 169 174 193 
262 198 206 196 208 
263 123 179 42 193 
264 113 102 190 195 
265 77 198 76 217 
266 75 200 92 210 
267 169 193 191 204 
268 69 190 102 195 
269 188 205 125 207 
270 48 193 99 217 
271 184 182 171 188 
272 57 96 94 216 
273 125 205 188 215 
274 66 69 195 197 
275 99 48 123 193 
276 175 103 45 203 
277 83 196 206 208 
278 110 198 193 208 
279 68 70 69 197 
280 122 91 110 213 
281 139 194 149 200 
282 194 196 187 206 
283 182 173 204 207 
284 49 130 120 194 
285 157 148 136 202 
286 89 113 41 199 
287 42 179 164 193 
288 171 170 203 204 
289 182 188 184 207 
290 187 186 194 209 
291 191 201 134 203 
292 145 209 190 210 
293 183 172 173 189 
294 191 203 170 204 
295 188 189 185 205 
296 133 95 109 189 
297 105 201 188 203 
298 166 183 173 189 
299 189 204 173 207 
300 185 191 197 217 
301 87 48 98 217 
302 62 214 61 215 
303 86 21 194 196 
304 180 91 122 213 
305 189 193 185 208 
306 126 166 189 213 
307 164 122 42 193 
308 189 185 193 204 
309 187 185 197 198 
310 22 194 21 202 
311 130 194 112 206 
312 167 176 40 203 
313 171 188 182 204 
314 184 188 171 203 
315 182 204 188 207 
316 110 81 100 198 
317 140 101 44 210 
318 49 120 137 194 
319 137 152 158 194 
320 156 121 142 199 
321 184 171 170 203 
322 65 195 62 201 
323 120 129 137 194 
324 190 186 199 214 
325 126 109 95 189 
326 126 18 166 213 
327 126 189 18 213 
328 185 189 188 204 
329 185 193 191 217 
330 115 44 210 211 
331 69 115 102 190 
332 83 198 81 208 
333 89 113 199 214 
334 171 182 173 204 
335 114 134 191 201 
336 68 71 70 197 
337 131 65 62 201 
338 193 204 172 213 
339 168 165 169 191 
340 70 69 197 211 
341 196 198 187 206 
342 39 103 165 191 
343 185 191 188 201 
344 113 64 195 214 
345 59 205 125 215 
346 190 195 186 214 
347 82 75 92 210 
348 107 139 154 200 
349 95 189 133 205 
350 74 77 76 217 
351 185 188 191 204 
352 105 188 201 215 
353 113 63 64 214 
354 62 201 195 215 
355 191 185 197 201 
356 108 94 124 202 
357 62 195 214 215 
358 91 85 110 213 
359 110 100 193 198 
360 174 193 172 213 
361 68 67 114 201 
362 187 200 194 206 
363 131 201 62 215 
364 88 199 43 214 
365 107 154 38 200 
366 187 198 197 217 
367 171 203 188 204 
368 40 176 104 203 
369 50 133 109 207 
370 189 205 95 212 
371 40 188 125 207 
372 174 193 169 204 
373 152 22 141 202 
374 105 188 40 203 
375 145 144 209 210 
376 83 196 46 206 
377 183 172 189 213 
378 193 208 189 213 
379 105 111 201 203 
380 158 148 147 202 
381 103 114 134 191 
382 86 21 22 194 
383 73 72 74 197 
384 39 117 87 191 
385 90 196 83 208 
386 174 164 179 193 
387 172 193 174 204 
388 186 194 202 216 
389 188 205 185 215 
390 181 167 40 207 
391 194 200 187 209 
392 86 22 129 194 
393 195 197 185 201 
394 53 212 54 216 
395 21 52 202 216 
396 147 202 148 209 
397 53 196 212 216 
398 190 199 186 209 
399 93 94 108 216 
400 86 46 21 196 
401 120 86 129 194 
402 115 97 44 211 
403 191 193 185 204 
404 125 40 105 188 
405 18 189 19 213 
406 188 204 189 207 
407 113 64 102 195 
408 98 48 99 217 
409 186 196 194 216 
410 158 147 194 202 
411 166 183 189 213 
412 134 45 103 203 
413 62 64 63 214 
414 114 67 134 201 
415 189 204 193 213 
416 149 200 194 209 
417 106 125 205 207 
418 53 47 54 212 
419 185 205 189 212 
420 78 77 100 198 
421 94 202 108 216 
422 54 212 192 216 
423 136 108 124 202 
424 173 189 172 204 
425 125 188 105 215 
426 126 95 18 189 
427 142 89 151 199 
428 105 201 131 215 
429 137 149 139 194 
430 90 46 83 196 
431 155 49 120 137 
432 197 198 185 217 
433 54 55 56 192 
434 74 197 72 217 
435 54 55 192 212 
436 85 83 81 208 
437 166 18 177 213 
438 84 46 86 206 
439 188 203 191 204 
440 55 56 192 205 
441 65 64 62 195 
442 185 205 192 215 
443 154 135 38 200 
444 193 198 100 217 
445 86 194 130 206 
446 96 192 58 214 
447 134 201 111 203 
448 55 205 192 212 
449 188 185 201 215 
450 192 196 186 216 
451 95 205 55 212 
452 72 70 71 197 
453 60 61 58 215 
454 194 202 147 209 
455 185 192 205 212 
456 193 198 185 208 
457 77 100 198 217 
458 84 86 130 206 
459 165 170 169 191 
460 169 191 170 204 
461 57 94 93 216 
462 87 71 39 191 
463 185 196 192 212 
464 89 63 113 214 
465 56 59 192 205 
466 186 195 192 214 
467 20 53 196 212 
468 80 78 198 206 
469 41 113 102 190 
470 55 95 133 205 
471 192 195 185 215 
472 189 205 188 207 
473 59 106 125 205 
474 192 214 195 215 
475 62 195 64 214 
476 162 174 172 213 
477 42 122 110 193 
478 142 151 159 199 
479 70 197 73 211 
480 162 91 180 213 
481 19 208 189 212 
482 54 192 57 216 
483 97 210 44 211 
484 105 111 131 201 
485 33 40 167 176 
486 188 201 191 203 
487 107 38 132 200 
488 19 18 95 189 
489 70 72 73 197 
490 192 205 59 215 
491 136 153 108 202 
492 96 88 43 214 
493 123 42 99 193 
494 60 62 61 215 
495 54 56 57 192 
496 114 103 39 191 
497 142 157 156 199 
498 185 189 208 212 
499 185 198 196 208 
500 193 185 198 217 
501 72 87 98 217 
502 56 59 58 192 
503 73 75 82 211 
504 150 101 10 140 
505 116 92 75 200 
506 21 196 53 216 
507 66 69 102 195 
508 92 200 135 210 
509 79 112 132 206 
510 96 58 61 214 
511 58 192 59 215 
512 78 100 81 198 
513 97 82 210 211 
514 80 198 83 206 
515 172 204 189 213 
516 51 208 85 213 
517 80 79 78 206 
518 39 71 114 191 
519 186 202 194 209 
520 22 21 52 202 
521 196 208 20 212 
522 66 102 64 195 
523 56 58 57 192 
524 176 167 184 203 
525 195 201 185 215 
526 142 121 89 199 
527 146 147 148 209 
528 124 108 136 153 
529 135 92 38 200 
530 19 189 95 212 
531 156 43 121 199 
532 101 102 115 190 
533 171 169 170 204 
534 176 163 32 203 
535 81 83 80 198 
536 51 18 19 213 
537 140 144 145 210 
538 104 105 40 203 
539 20 196 90 208 
540 40 33 104 176 
541 84 83 46 206 
542 130 86 120 194 
543 100 99 193 217 
544 66 195 65 201 
545 57 58 96 192 
546 143 140 118 210 
547 41 102 101 190 
548 31 175 45 163 
549 185 208 196 212 
550 135 143 92 210 
551 92 143 118 210 
552 20 47 53 212 
553 100 99 42 193 
554 30 103 175 165 
555 119 205 133 207 
556 69 97 115 211 
557 104 176 32 203 
558 53 21 20 196 
559 62 63 61 214 
560 166 18 2 177 
561 147 149 137 194 
562 20 208 19 212 
563 149 194 147 209 
564 91 51 85 213 
565 181 40 106 207 
566 123 179 160 27 
567 50 119 133 207 
568 140 44 118 210 
569 97 82 44 210 
570 20 46 90 196 
571 93 54 57 216 
572 144 135 200 210 
573 142 14 121 156 
574 144 200 209 210 
575 21 53 52 216 
576 38 154 7 135 
577 65 66 64 195 
578 45 175 31 103 
579 158 147 137 194 
580 130 112 84 206 
581 59 119 106 205 
582 168 29 165 117 
583 192 212 196 216 
584 9 118 143 140 
585 148 153 136 202 
586 146 157 159 199 
587 110 100 42 193 
588 70 97 69 211 
589 70 73 97 211 
590 138 11 150 41 
591 81 80 78 198 
592 181 182 167 207 
593 47 95 55 212 
594 154 6 107 38 
595 161 50 36 178 
596 67 111 134 201 
597 68 66 67 201 
598 40 34 167 181 
599 145 144 146 209 
600 127 141 22 202 
601 140 101 10 44 
602 74 72 98 217 
603 136 15 156 124 
604 40 125 106 207 
605 49 120 4 155 
606 32 163 45 203 
607 45 134 111 203 
608 140 9 118 44 
609 165 29 39 117 
610 179 42 26 123 
611 20 90 19 208 
612 159 157 142 199 
613 135 7 38 92 
614 149 154 139 200 
615 60 125 105 215 
616 141 127 153 202 
617 18 128 177 213 
618 100 77 99 217 
619 26 164 42 179 
620 21 46 20 196 
621 60 59 125 215 
622 54 47 55 212 
623 92 135 8 143 
624 89 199 88 214 
625 148 158 141 202 
626 105 104 111 203 
627 109 36 50 178 
628 45 104 32 203 
629 30 39 103 165 
630 118 92 8 143 
631 119 106 205 207 
632 136 16 124 153 
633 11 101 150 41 
634 160 123 27 48 
635 166 2 18 126 
636 166 177 183 213 
637 161 173 182 207 
638 53 93 52 216 
639 139 6 107 154 
640 88 121 43 199 
641 155 120 4 137 
642 132 38 116 200 
643 171 173 172 204 
644 60 58 59 215 
645 1 22 141 152 
646 53 54 93 216 
647 131 111 65 201 
648 56 119 59 205 
649 144 200 149 209 
650 60 105 131 215 
651 149 144 135 200 
652 97 73 82 211 
653 153 148 141 202 
654 184 170 163 203 
655 40 34 181 106 
656 161 181 35 207 
657 131 62 60 215 
658 41 138 12 151 
659 153 127 108 202 
660 47 19 95 212 
661 149 135 154 200 
662 63 89 88 214 
663 67 65 111 201 
664 121 88 89 199 
665 127 22 52 202 
666 162 180 91 24 
667 177 23 162 213 
668 84 80 83 206 
669 85 90 83 208 
670 38 92 116 200 
671 112 79 80 206 
672 177 128 23 213 
673 12 41 151 89 
674 181 106 35 207 
675 124 16 108 153 
676 55 119 56 205 
677 156 14 121 43 
678 118 82 92 210 
679 172 169 171 204 
680 128 2 18 177 
681 43 156 15 124 
682 180 25 164 122 
683 183 162 172 213 
684 128 91 23 213 
685 90 51 19 208 
686 55 133 119 205 
687 144 143 135 210 
688 162 23 91 213 
689 112 80 84 206 
690 45 111 104 203 
691 90 85 51 208 
692 47 20 19 212 
693 172 174 169 204 
694 44 82 118 210 
695 50 161 35 207 
696 8 7 135 92 
697 184 163 176 203 
698 119 50 106 207 
699 141 22 1 127 
700 143 144 140 210 
701 74 98 77 217 
702 37 166 178 126 
703 91 23 162 24 
704 42 164 25 122 
705 140 10 9 44 
706 30 29 39 165 
707 127 52 108 202 
708 98 99 77 217 
709 1 22 152 129 
710 35 106 50 207 
711 28 160 27 48 
712 128 18 51 213 
713 147 146 144 209 
714 63 88 61 214 
715 66 65 67 201 
716 31 45 32 163 
717 136 16 15 124 
718 33 32 104 176 
719 180 122 91 24 
720 2 166 37 126 
721 42 164 26 25 
722 151 13 12 89 
723 181 34 35 106 
724 107 5 6 139 
725 88 96 61 214 
726 36 50 161 35 
727 17 153 141 127 
728 161 182 181 207 
729 120 3 4 137 
730 1 17 141 127 
731 144 149 147 209 
732 154 7 6 38 
733 51 91 128 213 
734 101 10 11 150 
735 16 17 108 153 
736 33 40 34 167 
737 178 109 37 126 
738 13 14 121 142 
739 162 183 177 213 
740 17 108 153 127 
741 15 14 156 43 
742 122 180 25 24 
743 138 12 11 41 
744 175 31 103 30 
745 26 179 123 27 
746 23 2 128 177 
747 49 4 5 155 
748 152 3 1 129 
749 109 36 178 37 
750 28 29 168 117 
751 8 9 118 143 
752 199 145 138 159 
753 199 138 145 190 
754 200 79 206 187 
755 200 206 79 132 
756 202 157 209 199 
757 202 209 157 148 
758 146 209 157 199 
759 146 157 209 148 
760 124 156 199 43 
761 124 199 156 136 
762 129 137 3 120 
763 3 137 129 152 
764 213 164 174 193 
765 213 174 164 162 
766 211 200 190 187 
767 211 190 200 210 
768 209 190 200 187 
769 209 200 190 210 
770 208 110 213 193 
771 208 213 110 85 
772 160 117 28 168 
773 28 117 160 48 
774 210 115 101 44 
775 210 101 115 190 
776 196 86 206 194 
777 196 206 86 46 
778 216 194 21 196 
779 216 21 194 202 
780 150 41 190 138 
781 190 41 150 101 
782 43 214 94 96 
783 94 214 43 199 
784 89 142 13 121 
785 13 142 89 151 
786 206 78 187 79 
787 206 187 78 198 
788 76 187 78 79 
789 76 78 187 198 
790 108 216 52 93 
791 52 216 108 202 
792 81 208 110 85 
793 110 208 81 198 
794 178 50 207 161 
795 178 207 50 109 
796 139 49 5 155 
797 139 5 49 107 
798 19 213 208 51 
799 208 213 19 189 
$EndElements
