$MeshFormat
4.1 0 8
$EndMeshFormat
$PhysicalNames
3
2 1 "bc-bot"
2 2 "bc-top"
3 3 "vol"
$EndPhysicalNames
$Entities
17 32 22 5
1 0 0 0 0 
2 -0.00175 0 -0.00175 0 
3 0.00175 0 -0.00175 0 
4 0.00175 0 0.00175 0 
5 -0.00175 0 0.00175 0 
6 -0.003535533905932737 0 -0.003535533905932737 0 
7 0.003535533905932737 0 -0.003535533905932737 0 
8 0.003535533905932737 0 0.003535533905932737 0 
9 -0.003535533905932737 0 0.003535533905932737 0 
10 -0.00175 0.012 -0.00175 0 
11 0.00175 0.012 -0.00175 0 
12 0.00175 0.012 0.00175 0 
13 -0.00175 0.012 0.00175 0 
14 0.003535533905932737 0.012 -0.003535533905932737 0 
15 -0.003535533905932737 0.012 -0.003535533905932737 0 
16 0.003535533905932737 0.012 0.003535533905932737 0 
17 -0.003535533905932737 0.012 0.003535533905932737 0 
1 -0.0017501 -1e-07 -0.0017501 0.0017501 1e-07 -0.0017499 0 2 2 -3 
2 0.0017499 -1e-07 -0.0017501 0.0017501 1e-07 0.0017501 0 2 3 -4 
3 -0.0017501 -1e-07 0.0017499 0.0017501 1e-07 0.0017501 0 2 4 -5 
4 -0.0017501 -1e-07 -0.0017501 -0.0017499 1e-07 0.0017501 0 2 5 -2 
5 -0.003535633905932738 -1e-07 -0.0050001 0.003535633905932739 1e-07 -0.003535433905932735 0 2 6 -7 
6 0.003535433905932737 -1e-07 -0.003535633905932738 0.0050001 1e-07 0.003535633905932736 0 2 7 -8 
7 -0.003535633905932736 -1e-07 0.003535433905932737 0.003535633905932738 1e-07 0.0050001 0 2 8 -9 
8 -0.0050001 -1e-07 -0.003535633905932733 -0.003535433905932737 1e-07 0.003535633905932737 0 2 9 -6 
9 -0.003535633905932737 -1e-07 -0.003535633905932737 -0.0017499 1e-07 -0.0017499 0 2 2 -6 
10 0.0017499 -1e-07 -0.003535633905932737 0.003535633905932737 1e-07 -0.0017499 0 2 3 -7 
11 0.0017499 -1e-07 0.0017499 0.003535633905932737 1e-07 0.003535633905932737 0 2 4 -8 
12 -0.003535633905932737 -1e-07 0.0017499 -0.0017499 1e-07 0.003535633905932737 0 2 5 -9 
13 -0.0017501 -1.000000000002735e-07 -0.0017501 -0.0017499 0.0120001 -0.0017499 0 2 2 -10 
14 0.0017499 -1.000000000002735e-07 -0.0017501 0.0017501 0.0120001 -0.0017499 0 2 3 -11 
15 -0.0017501 0.0119999 -0.0017501 0.0017501 0.0120001 -0.0017499 0 2 10 -11 
16 0.0017499 -1.000000000002735e-07 0.0017499 0.0017501 0.0120001 0.0017501 0 2 4 -12 
17 0.0017499 0.0119999 -0.0017501 0.0017501 0.0120001 0.0017501 0 2 11 -12 
18 -0.0017501 -1.000000000002735e-07 0.0017499 -0.0017499 0.0120001 0.0017501 0 2 5 -13 
19 -0.0017501 0.0119999 0.0017499 0.0017501 0.0120001 0.0017501 0 2 12 -13 
20 -0.0017501 0.0119999 -0.0017501 -0.0017499 0.0120001 0.0017501 0 2 13 -10 
21 0.003535433905932737 -1.000000000002735e-07 -0.003535633905932737 0.003535633905932737 0.0120001 -0.003535433905932737 0 2 7 -14 
22 0.0017499 0.0119999 -0.003535633905932737 0.003535633905932737 0.0120001 -0.0017499 0 2 11 -14 
23 -0.003535633905932737 -1.000000000002735e-07 -0.003535633905932737 -0.003535433905932737 0.0120001 -0.003535433905932737 0 2 6 -15 
24 -0.003535633905932738 0.0119999 -0.0050001 0.003535633905932739 0.0120001 -0.003535433905932735 0 2 15 -14 
25 -0.003535633905932737 0.0119999 -0.003535633905932737 -0.0017499 0.0120001 -0.0017499 0 2 10 -15 
26 0.003535433905932737 -1.000000000002735e-07 0.003535433905932737 0.003535633905932737 0.0120001 0.003535633905932737 0 2 8 -16 
27 0.0017499 0.0119999 0.0017499 0.003535633905932737 0.0120001 0.003535633905932737 0 2 12 -16 
28 0.003535433905932737 0.0119999 -0.003535633905932738 0.0050001 0.0120001 0.003535633905932736 0 2 14 -16 
29 -0.003535633905932737 -1.000000000002735e-07 0.003535433905932737 -0.003535433905932737 0.0120001 0.003535633905932737 0 2 9 -17 
30 -0.003535633905932737 0.0119999 0.0017499 -0.0017499 0.0120001 0.003535633905932737 0 2 13 -17 
31 -0.003535633905932736 0.0119999 0.003535433905932737 0.003535633905932738 0.0120001 0.0050001 0 2 16 -17 
32 -0.0050001 0.0119999 -0.003535633905932733 -0.003535433905932737 0.0120001 0.003535633905932737 0 2 17 -15 
14 -0.0017501 -1e-07 -0.0017501 0.0017501 1e-07 0.0017501 1 1 4 1 2 3 4 
16 -0.003535633905932738 -1e-07 -0.0050001 0.003535633905932739 1e-07 -0.0017499 1 1 4 1 10 -5 -9 
18 0.0017499 -1e-07 -0.003535633905932738 0.0050001 1e-07 0.003535633905932738 1 1 4 2 11 -6 -10 
20 -0.003535633905932738 -1e-07 0.0017499 0.003535633905932738 1e-07 0.0050001 1 1 4 3 12 -7 -11 
22 -0.0050001 -1e-07 -0.003535633905932737 -0.0017499 1e-07 0.003535633905932737 1 1 4 4 9 -8 -12 
23 -0.0017501 -1.000000000002735e-07 -0.0017501 0.0017501 0.0120001 -0.0017499 0 4 13 15 -14 -1 
24 0.0017499 -1.000000000002735e-07 -0.0017501 0.0017501 0.0120001 0.0017501 0 4 14 17 -16 -2 
25 -0.0017501 -1.000000000002735e-07 0.0017499 0.0017501 0.0120001 0.0017501 0 4 16 19 -18 -3 
26 -0.0017501 -1.000000000002735e-07 -0.0017501 -0.0017499 0.0120001 0.0017501 0 4 18 20 -13 -4 
27 -0.0017501 0.0119999 -0.0017501 0.0017501 0.0120001 0.0017501 1 2 4 15 17 19 20 
28 0.0017499 -1.000000000002735e-07 -0.003535633905932737 0.003535633905932737 0.0120001 -0.0017499 0 4 14 22 -21 -10 
29 -0.003535633905932738 -1.000000000002735e-07 -0.0050001 0.003535633905932739 0.0120001 -0.003535433905932735 0 4 23 24 -21 -5 
30 -0.003535633905932737 -1.000000000002735e-07 -0.003535633905932737 -0.0017499 0.0120001 -0.0017499 0 4 13 25 -23 -9 
31 -0.003535633905932738 0.0119999 -0.0050001 0.003535633905932739 0.0120001 -0.0017499 1 2 4 15 22 -24 -25 
32 0.0017499 -1.000000000002735e-07 0.0017499 0.003535633905932737 0.0120001 0.003535633905932737 0 4 16 27 -26 -11 
33 0.003535433905932737 -1.000000000002735e-07 -0.003535633905932738 0.0050001 0.0120001 0.003535633905932736 0 4 21 28 -26 -6 
34 0.0017499 0.0119999 -0.003535633905932738 0.0050001 0.0120001 0.003535633905932738 1 2 4 17 27 -28 -22 
35 -0.003535633905932737 -1.000000000002735e-07 0.0017499 -0.0017499 0.0120001 0.003535633905932737 0 4 18 30 -29 -12 
36 -0.003535633905932736 -1.000000000002735e-07 0.003535433905932737 0.003535633905932738 0.0120001 0.0050001 0 4 26 31 -29 -7 
37 -0.003535633905932738 0.0119999 0.0017499 0.003535633905932738 0.0120001 0.0050001 1 2 4 19 30 -31 -27 
38 -0.0050001 -1.000000000002735e-07 -0.003535633905932733 -0.003535433905932737 0.0120001 0.003535633905932737 0 4 29 32 -23 -8 
39 -0.0050001 0.0119999 -0.003535633905932737 -0.0017499 0.0120001 0.003535633905932737 1 2 4 20 25 -32 -30 
1 -0.0017501 -1.000000000002735e-07 -0.0017501 0.0017501 0.0120001 0.0017501 1 3 6 23 24 25 26 14 -27 
2 -0.003535633905932738 -1.000000000002735e-07 -0.0050001 0.003535633905932739 0.0120001 -0.0017499 1 3 6 -23 -28 29 30 -16 31 
3 0.0017499 -1.000000000002735e-07 -0.003535633905932738 0.0050001 0.0120001 0.003535633905932738 1 3 6 -24 -32 33 28 -18 34 
4 -0.003535633905932738 -1.000000000002735e-07 0.0017499 0.003535633905932738 0.0120001 0.0050001 1 3 6 -25 -35 36 32 -20 37 
5 -0.0050001 -1.000000000002735e-07 -0.003535633905932737 -0.0017499 0.0120001 0.003535633905932737 1 3 6 -26 -30 38 35 -22 39 
$EndEntities
$Nodes
75 623 1 623
0 2 0 1
1
-0.00175 0 -0.00175
0 3 0 1
2
0.00175 0 -0.00175
0 4 0 1
3
0.00175 0 0.00175
0 5 0 1
4
-0.00175 0 0.00175
0 6 0 1
5
-0.003535533905932737 0 -0.003535533905932737
0 7 0 1
6
0.003535533905932737 0 -0.003535533905932737
0 8 0 1
7
0.003535533905932737 0 0.003535533905932737
0 9 0 1
8
-0.003535533905932737 0 0.003535533905932737
0 10 0 1
9
-0.00175 0.012 -0.00175
0 11 0 1
10
0.00175 0.012 -0.00175
0 12 0 1
11
0.00175 0.012 0.00175
0 13 0 1
12
-0.00175 0.012 0.00175
0 14 0 1
13
0.003535533905932737 0.012 -0.003535533905932737
0 15 0 1
14
-0.003535533905932737 0.012 -0.003535533905932737
0 16 0 1
15
0.003535533905932737 0.012 0.003535533905932737
0 17 0 1
16
-0.003535533905932737 0.012 0.003535533905932737
1 1 0 3
17
18
19
-0.000875 0 -0.00175
0 0 -0.00175
0.0008749999999999999 0 -0.00175
1 2 0 3
20
21
22
0.00175 0 -0.000875
0.00175 0 0
0.00175 0 0.0008749999999999999
1 3 0 3
23
24
25
0.000875 0 0.00175
0 0 0.00175
-0.0008749999999999999 0 0.00175
1 4 0 3
26
27
28
-0.00175 0 0.000875
-0.00175 0 0
-0.00175 0 -0.0008749999999999999
1 5 0 3
29
30
31
-0.001913417161825445 0 -0.004619397662556435
3.828568698926949e-18 0 -0.004999999999999999
0.001913417161825452 0 -0.004619397662556432
1 6 0 3
32
33
34
0.004619397662556432 0 -0.001913417161825451
0.004999999999999999 0 -9.184850993605148e-19
0.004619397662556434 0 0.001913417161825446
1 7 0 3
35
36
37
0.001913417161825452 0 0.004619397662556432
1.224646799147353e-18 0 0.004999999999999999
-0.001913417161825445 0 0.004619397662556435
1 8 0 3
38
39
40
-0.004619397662556432 0 0.00191341716182545
-0.004999999999999999 0 2.526607749037151e-18
-0.004619397662556435 0 -0.001913417161825445
1 9 0 3
41
42
43
-0.002196383476483184 0 -0.002196383476483184
-0.002642766952966369 0 -0.002642766952966369
-0.003089150429449553 0 -0.003089150429449553
1 10 0 3
44
45
46
0.002196383476483184 0 -0.002196383476483184
0.002642766952966369 0 -0.002642766952966369
0.003089150429449553 0 -0.003089150429449553
1 11 0 3
47
48
49
0.002196383476483184 0 0.002196383476483184
0.002642766952966369 0 0.002642766952966369
0.003089150429449553 0 0.003089150429449553
1 12 0 3
50
51
52
-0.002196383476483184 0 0.002196383476483184
-0.002642766952966369 0 0.002642766952966369
-0.003089150429449553 0 0.003089150429449553
1 13 0 5
53
54
55
56
57
-0.00175 0.002 -0.00175
-0.00175 0.004 -0.00175
-0.00175 0.006 -0.00175
-0.00175 0.008 -0.00175
-0.00175 0.01 -0.00175
1 14 0 5
58
59
60
61
62
0.00175 0.002 -0.00175
0.00175 0.004 -0.00175
0.00175 0.006 -0.00175
0.00175 0.008 -0.00175
0.00175 0.01 -0.00175
1 15 0 3
63
64
65
-0.000875 0.012 -0.00175
0 0.012 -0.00175
0.0008749999999999999 0.012 -0.00175
1 16 0 5
66
67
68
69
70
0.00175 0.002 0.00175
0.00175 0.004 0.00175
0.00175 0.006 0.00175
0.00175 0.008 0.00175
0.00175 0.01 0.00175
1 17 0 3
71
72
73
0.00175 0.012 -0.000875
0.00175 0.012 0
0.00175 0.012 0.0008749999999999999
1 18 0 5
74
75
76
77
78
-0.00175 0.002 0.00175
-0.00175 0.004 0.00175
-0.00175 0.006 0.00175
-0.00175 0.008 0.00175
-0.00175 0.01 0.00175
1 19 0 3
79
80
81
0.000875 0.012 0.00175
0 0.012 0.00175
-0.0008749999999999999 0.012 0.00175
1 20 0 3
82
83
84
-0.00175 0.012 0.000875
-0.00175 0.012 0
-0.00175 0.012 -0.0008749999999999999
1 21 0 5
85
86
87
88
89
0.003535533905932737 0.002 -0.003535533905932737
0.003535533905932737 0.004 -0.003535533905932737
0.003535533905932737 0.006 -0.003535533905932737
0.003535533905932737 0.008 -0.003535533905932737
0.003535533905932737 0.01 -0.003535533905932737
1 22 0 3
90
91
92
0.002196383476483184 0.012 -0.002196383476483184
0.002642766952966369 0.012 -0.002642766952966369
0.003089150429449553 0.012 -0.003089150429449553
1 23 0 5
93
94
95
96
97
-0.003535533905932737 0.002 -0.003535533905932737
-0.003535533905932737 0.004 -0.003535533905932737
-0.003535533905932737 0.006 -0.003535533905932737
-0.003535533905932737 0.008 -0.003535533905932737
-0.003535533905932737 0.01 -0.003535533905932737
1 24 0 3
98
99
100
-0.001913417161825445 0.012 -0.004619397662556435
3.828568698926949e-18 0.012 -0.004999999999999999
0.001913417161825452 0.012 -0.004619397662556432
1 25 0 3
101
102
103
-0.002196383476483184 0.012 -0.002196383476483184
-0.002642766952966369 0.012 -0.002642766952966369
-0.003089150429449553 0.012 -0.003089150429449553
1 26 0 5
104
105
106
107
108
0.003535533905932737 0.002 0.003535533905932737
0.003535533905932737 0.004 0.003535533905932737
0.003535533905932737 0.006 0.003535533905932737
0.003535533905932737 0.008 0.003535533905932737
0.003535533905932737 0.01 0.003535533905932737
1 27 0 3
109
110
111
0.002196383476483184 0.012 0.002196383476483184
0.002642766952966369 0.012 0.002642766952966369
0.003089150429449553 0.012 0.003089150429449553
1 28 0 3
112
113
114
0.004619397662556432 0.012 -0.001913417161825451
0.004999999999999999 0.012 -9.184850993605148e-19
0.004619397662556434 0.012 0.001913417161825446
1 29 0 5
115
116
117
118
119
-0.003535533905932737 0.002 0.003535533905932737
-0.003535533905932737 0.004 0.003535533905932737
-0.003535533905932737 0.006 0.003535533905932737
-0.003535533905932737 0.008 0.003535533905932737
-0.003535533905932737 0.01 0.003535533905932737
1 30 0 3
120
121
122
-0.002196383476483184 0.012 0.002196383476483184
-0.002642766952966369 0.012 0.002642766952966369
-0.003089150429449553 0.012 0.003089150429449553
1 31 0 3
123
124
125
0.001913417161825452 0.012 0.004619397662556432
1.224646799147353e-18 0.012 0.004999999999999999
-0.001913417161825445 0.012 0.004619397662556435
1 32 0 3
126
127
128
-0.004619397662556432 0.012 0.00191341716182545
-0.004999999999999999 0.012 2.526607749037151e-18
-0.004619397662556435 0.012 -0.001913417161825445
2 14 0 9
129
130
131
132
133
134
135
136
137
-0.0008750000000000001 0 -0.0008749999999999999
-0.000875 0 6.050235337530717e-20
-0.0008749999999999999 0 0.0008749999999999999
-6.050235337530717e-20 0 -0.0008749999999999998
-6.050235337530717e-20 0 6.050235337530717e-20
-6.050235337530717e-20 0 0.000875
0.0008749999999999997 0 -0.0008749999999999997
0.0008749999999999998 0 6.050235337530717e-20
0.0008749999999999997 0 0.0008749999999999999
2 16 0 9
138
139
140
141
142
143
144
145
146
-0.001134604290456362 0 -0.002467349415639109
-0.001394208580912723 0 -0.003184698831278218
-0.001653812871369084 0 -0.003902048246917327
6.654626103042168e-19 0 -0.002562500000000001
1.358430582349959e-18 0 -0.003375
2.430869314765628e-18 0 -0.004187500000000001
0.001134604290456362 0 -0.002467349415639108
0.001394208580912725 0 -0.003184698831278217
0.001653812871369088 0 -0.003902048246917326
2 18 0 9
147
148
149
150
151
152
153
154
155
0.002467349415639108 0 -0.001134604290456363
0.003184698831278216 0 -0.001394208580912726
0.003902048246917324 0 -0.001653812871369088
0.0025625 0 -1.922017098749189e-19
0.003375 0 -2.897358833720503e-19
0.0041875 0 1.548310293735706e-19
0.002467349415639108 0 0.001134604290456361
0.003184698831278217 0 0.001394208580912723
0.003902048246917326 0 0.001653812871369085
2 20 0 9
156
157
158
159
160
161
162
163
164
0.001134604290456363 0 0.002467349415639108
0.001394208580912726 0 0.003184698831278216
0.001653812871369088 0 0.003902048246917324
2.687421348216285e-19 0 0.0025625
4.428167332654695e-19 0 0.003375
7.479024546655805e-20 0 0.0041875
-0.001134604290456361 0 0.002467349415639109
-0.001394208580912723 0 0.003184698831278218
-0.001653812871369085 0 0.003902048246917326
2 22 0 9
165
166
167
168
169
170
171
172
173
-0.002467349415639108 0 0.001134604290456363
-0.003184698831278216 0 0.001394208580912724
-0.003902048246917324 0 0.001653812871369086
-0.002562499999999999 0 7.883603293407561e-20
-0.003374999999999999 0 4.249389968913822e-19
-0.004187499999999999 0 3.915712004787622e-19
-0.002467349415639108 0 -0.001134604290456362
-0.003184698831278216 0 -0.001394208580912724
-0.003902048246917325 0 -0.001653812871369086
2 23 0 15
174
175
176
177
178
179
180
181
182
183
184
185
186
187
188
-0.000875 0.002 -0.00175
-0.000875 0.004 -0.00175
-0.000875 0.006 -0.00175
-0.000875 0.008 -0.00175
-0.000875 0.01 -0.00175
0 0.002 -0.00175
0 0.004 -0.00175
0 0.006 -0.00175
0 0.008 -0.00175
0 0.01 -0.00175
0.0008749999999999999 0.002 -0.00175
0.0008749999999999999 0.004 -0.00175
0.0008749999999999999 0.006 -0.00175
0.0008749999999999999 0.008 -0.00175
0.0008749999999999999 0.01 -0.00175
2 24 0 15
189
190
191
192
193
194
195
196
197
198
199
200
201
202
203
0.00175 0.002 -0.000875
0.00175 0.004 -0.000875
0.00175 0.006 -0.000875
0.00175 0.008 -0.000875
0.00175 0.01 -0.000875
0.00175 0.002 0
0.00175 0.004 0
0.00175 0.006 0
0.00175 0.008 0
0.00175 0.01 0
0.00175 0.002 0.0008749999999999999
0.00175 0.004 0.0008749999999999999
0.00175 0.006 0.0008749999999999999
0.00175 0.008 0.0008749999999999999
0.00175 0.01 0.0008749999999999999
2 25 0 15
204
205
206
207
208
209
210
211
212
213
214
215
216
217
218
0.000875 0.002 0.00175
0.000875 0.004 0.00175
0.000875 0.006 0.00175
0.000875 0.008 0.00175
0.000875 0.01 0.00175
0 0.002 0.00175
0 0.004 0.00175
0 0.006 0.00175
0 0.008 0.00175
0 0.01 0.00175
-0.0008749999999999999 0.002 0.00175
-0.0008749999999999999 0.004 0.00175
-0.0008749999999999999 0.006 0.00175
-0.0008749999999999999 0.008 0.00175
-0.0008749999999999999 0.01 0.00175
2 26 0 15
219
220
221
222
223
224
225
226
227
228
229
230
231
232
233
-0.00175 0.002 0.000875
-0.00175 0.004 0.000875
-0.00175 0.006 0.000875
-0.00175 0.008 0.000875
-0.00175 0.01 0.000875
-0.00175 0.002 0
-0.00175 0.004 0
-0.00175 0.006 0
-0.00175 0.008 0
-0.00175 0.01 0
-0.00175 0.002 -0.0008749999999999999
-0.00175 0.004 -0.0008749999999999999
-0.00175 0.006 -0.0008749999999999999
-0.00175 0.008 -0.0008749999999999999
-0.00175 0.01 -0.0008749999999999999
2 27 0 9
234
235
236
237
238
239
240
241
242
-0.0008750000000000001 0.012 -0.0008749999999999999
-0.000875 0.012 6.050235337530717e-20
-0.0008749999999999999 0.012 0.0008749999999999999
-6.050235337530717e-20 0.012 -0.0008749999999999998
-6.050235337530717e-20 0.012 6.050235337530717e-20
-6.050235337530717e-20 0.012 0.000875
0.0008749999999999997 0.012 -0.0008749999999999997
0.0008749999999999998 0.012 6.050235337530717e-20
0.0008749999999999997 0.012 0.0008749999999999999
2 28 0 15
243
244
245
246
247
248
249
250
251
252
253
254
255
256
257
0.002196383476483184 0.002 -0.002196383476483184
0.002196383476483184 0.004 -0.002196383476483184
0.002196383476483184 0.006 -0.002196383476483184
0.002196383476483184 0.008 -0.002196383476483184
0.002196383476483184 0.01 -0.002196383476483184
0.002642766952966369 0.002 -0.002642766952966369
0.002642766952966369 0.004 -0.002642766952966369
0.002642766952966369 0.006 -0.002642766952966369
0.002642766952966369 0.008 -0.002642766952966369
0.002642766952966369 0.01 -0.002642766952966369
0.003089150429449553 0.002 -0.003089150429449553
0.003089150429449553 0.004 -0.003089150429449553
0.003089150429449553 0.006 -0.003089150429449553
0.003089150429449553 0.008 -0.003089150429449553
0.003089150429449553 0.01 -0.003089150429449553
2 29 0 15
258
259
260
261
262
263
264
265
266
267
268
269
270
271
272
-0.001913417161825445 0.002 -0.004619397662556435
-0.001913417161825445 0.004 -0.004619397662556435
-0.001913417161825445 0.006 -0.004619397662556435
-0.001913417161825445 0.008 -0.004619397662556435
-0.001913417161825445 0.01 -0.004619397662556435
3.828568698926949e-18 0.002 -0.004999999999999999
3.828568698926949e-18 0.004 -0.004999999999999999
3.828568698926949e-18 0.006 -0.004999999999999999
3.828568698926949e-18 0.008 -0.004999999999999999
3.828568698926949e-18 0.01 -0.004999999999999999
0.001913417161825452 0.002 -0.004619397662556432
0.001913417161825452 0.004 -0.004619397662556432
0.001913417161825452 0.006 -0.004619397662556432
0.001913417161825452 0.008 -0.004619397662556432
0.001913417161825452 0.01 -0.004619397662556432
2 30 0 15
273
274
275
276
277
278
279
280
281
282
283
284
285
286
287
-0.002196383476483184 0.002 -0.002196383476483184
-0.002196383476483184 0.004 -0.002196383476483184
-0.002196383476483184 0.006 -0.002196383476483184
-0.002196383476483184 0.008 -0.002196383476483184
-0.002196383476483184 0.01 -0.002196383476483184
-0.002642766952966369 0.002 -0.002642766952966369
-0.002642766952966369 0.004 -0.002642766952966369
-0.002642766952966369 0.006 -0.002642766952966369
-0.002642766952966369 0.008 -0.002642766952966369
-0.002642766952966369 0.01 -0.002642766952966369
-0.003089150429449553 0.002 -0.003089150429449553
-0.003089150429449553 0.004 -0.003089150429449553
-0.003089150429449553 0.006 -0.003089150429449553
-0.003089150429449553 0.008 -0.003089150429449553
-0.003089150429449553 0.01 -0.003089150429449553
2 31 0 9
288
289
290
291
292
293
294
295
296
-0.001134604290456362 0.012 -0.002467349415639109
-0.001394208580912723 0.012 -0.003184698831278218
-0.001653812871369084 0.012 -0.003902048246917327
6.654626103042168e-19 0.012 -0.002562500000000001
1.358430582349959e-18 0.012 -0.003375
2.430869314765628e-18 0.012 -0.004187500000000001
0.001134604290456362 0.012 -0.002467349415639108
0.001394208580912725 0.012 -0.003184698831278217
0.001653812871369088 0.012 -0.003902048246917326
2 32 0 15
297
298
299
300
301
302
303
304
305
306
307
308
309
310
311
0.002196383476483184 0.002 0.002196383476483184
0.002196383476483184 0.004 0.002196383476483184
0.002196383476483184 0.006 0.002196383476483184
0.002196383476483184 0.008 0.002196383476483184
0.002196383476483184 0.01 0.002196383476483184
0.002642766952966369 0.002 0.002642766952966369
0.002642766952966369 0.004 0.002642766952966369
0.002642766952966369 0.006 0.002642766952966369
0.002642766952966369 0.008 0.002642766952966369
0.002642766952966369 0.01 0.002642766952966369
0.003089150429449553 0.002 0.003089150429449553
0.003089150429449553 0.004 0.003089150429449553
0.003089150429449553 0.006 0.003089150429449553
0.003089150429449553 0.008 0.003089150429449553
0.003089150429449553 0.01 0.003089150429449553
2 33 0 15
312
313
314
315
316
317
318
319
320
321
322
323
324
325
326
0.004619397662556432 0.002 -0.001913417161825451
0.004619397662556432 0.004 -0.001913417161825451
0.004619397662556432 0.006 -0.001913417161825451
0.004619397662556432 0.008 -0.001913417161825451
0.004619397662556432 0.01 -0.001913417161825451
0.004999999999999999 0.002 -9.184850993605148e-19
0.004999999999999999 0.004 -9.184850993605148e-19
0.004999999999999999 0.006 -9.184850993605148e-19
0.004999999999999999 0.008 -9.184850993605148e-19
0.004999999999999999 0.01 -9.184850993605148e-19
0.004619397662556434 0.002 0.001913417161825446
0.004619397662556434 0.004 0.001913417161825446
0.004619397662556434 0.006 0.001913417161825446
0.004619397662556434 0.008 0.001913417161825446
0.004619397662556434 0.01 0.001913417161825446
2 34 0 9
327
328
329
330
331
332
333
334
335
0.002467349415639108 0.012 -0.001134604290456363
0.003184698831278216 0.012 -0.001394208580912726
0.003902048246917324 0.012 -0.001653812871369088
0.0025625 0.012 -1.922017098749189e-19
0.003375 0.012 -2.897358833720503e-19
0.0041875 0.012 1.548310293735706e-19
0.002467349415639108 0.012 0.001134604290456361
0.003184698831278217 0.012 0.001394208580912723
0.003902048246917326 0.012 0.001653812871369085
2 35 0 15
336
337
338
339
340
341
342
343
344
345
346
347
348
349
350
-0.002196383476483184 0.002 0.002196383476483184
-0.002196383476483184 0.004 0.002196383476483184
-0.002196383476483184 0.006 0.002196383476483184
-0.002196383476483184 0.008 0.002196383476483184
-0.002196383476483184 0.01 0.002196383476483184
-0.002642766952966369 0.002 0.002642766952966369
-0.002642766952966369 0.004 0.002642766952966369
-0.002642766952966369 0.006 0.002642766952966369
-0.002642766952966369 0.008 0.002642766952966369
-0.002642766952966369 0.01 0.002642766952966369
-0.003089150429449553 0.002 0.003089150429449553
-0.003089150429449553 0.004 0.003089150429449553
-0.003089150429449553 0.006 0.003089150429449553
-0.003089150429449553 0.008 0.003089150429449553
-0.003089150429449553 0.01 0.003089150429449553
2 36 0 15
351
352
353
354
355
356
357
358
359
360
361
362
363
364
365
0.001913417161825452 0.002 0.004619397662556432
0.001913417161825452 0.004 0.004619397662556432
0.001913417161825452 0.006 0.004619397662556432
0.001913417161825452 0.008 0.004619397662556432
0.001913417161825452 0.01 0.004619397662556432
1.224646799147353e-18 0.002 0.004999999999999999
1.224646799147353e-18 0.004 0.004999999999999999
1.224646799147353e-18 0.006 0.004999999999999999
1.224646799147353e-18 0.008 0.004999999999999999
1.224646799147353e-18 0.01 0.004999999999999999
-0.001913417161825445 0.002 0.004619397662556435
-0.001913417161825445 0.004 0.004619397662556435
-0.001913417161825445 0.006 0.004619397662556435
-0.001913417161825445 0.008 0.004619397662556435
-0.001913417161825445 0.01 0.004619397662556435
2 37 0 9
366
367
368
369
370
371
372
373
374
0.001134604290456363 0.012 0.002467349415639108
0.001394208580912726 0.012 0.003184698831278216
0.001653812871369088 0.012 0.003902048246917324
2.687421348216285e-19 0.012 0.0025625
4.428167332654695e-19 0.012 0.003375
7.479024546655805e-20 0.012 0.0041875
-0.001134604290456361 0.012 0.002467349415639109
-0.001394208580912723 0.012 0.003184698831278218
-0.001653812871369085 0.012 0.003902048246917326
2 38 0 15
375
376
377
378
379
380
381
382
383
384
385
386
387
388
389
-0.004619397662556432 0.002 0.00191341716182545
-0.004619397662556432 0.004 0.00191341716182545
-0.004619397662556432 0.006 0.00191341716182545
-0.004619397662556432 0.008 0.00191341716182545
-0.004619397662556432 0.01 0.00191341716182545
-0.004999999999999999 0.002 2.526607749037151e-18
-0.004999999999999999 0.004 2.526607749037151e-18
-0.004999999999999999 0.006 2.526607749037151e-18
-0.004999999999999999 0.008 2.526607749037151e-18
-0.004999999999999999 0.01 2.526607749037151e-18
-0.004619397662556435 0.002 -0.001913417161825445
-0.004619397662556435 0.004 -0.001913417161825445
-0.004619397662556435 0.006 -0.001913417161825445
-0.004619397662556435 0.008 -0.001913417161825445
-0.004619397662556435 0.01 -0.001913417161825445
2 39 0 9
390
391
392
393
394
395
396
397
398
-0.002467349415639108 0.012 0.001134604290456363
-0.003184698831278216 0.012 0.001394208580912724
-0.003902048246917324 0.012 0.001653812871369086
-0.002562499999999999 0.012 7.883603293407561e-20
-0.003374999999999999 0.012 4.249389968913822e-19
-0.004187499999999999 0.012 3.915712004787622e-19
-0.002467349415639108 0.012 -0.001134604290456362
-0.003184698831278216 0.012 -0.001394208580912724
-0.003902048246917325 0.012 -0.001653812871369086
3 1 0 45
399
400
401
402
403
404
405
406
407
408
409
410
411
412
413
414
415
416
417
418
419
420
421
422
423
424
425
426
427
428
429
430
431
432
433
434
435
436
437
438
439
440
441
442
443
-0.0008750000000000001 0.002 -0.0008749999999999999
-0.0008750000000000001 0.004 -0.0008749999999999999
-0.0008750000000000001 0.006 -0.0008749999999999999
-0.0008750000000000001 0.008 -0.0008749999999999999
-0.0008750000000000001 0.01 -0.0008749999999999999
-0.000875 0.002 6.050235337530717e-20
-0.000875 0.004 6.050235337530717e-20
-0.000875 0.006 6.050235337530717e-20
-0.000875 0.008 6.050235337530717e-20
-0.000875 0.01 6.050235337530717e-20
-0.0008749999999999999 0.002 0.0008749999999999999
-0.0008749999999999999 0.004 0.0008749999999999999
-0.0008749999999999999 0.006 0.0008749999999999999
-0.0008749999999999999 0.008 0.0008749999999999999
-0.0008749999999999999 0.01 0.0008749999999999999
-6.050235337530717e-20 0.002 -0.0008749999999999998
-6.050235337530717e-20 0.004 -0.0008749999999999998
-6.050235337530717e-20 0.006 -0.0008749999999999998
-6.050235337530717e-20 0.008 -0.0008749999999999998
-6.050235337530717e-20 0.01 -0.0008749999999999998
-6.050235337530717e-20 0.002 6.050235337530717e-20
-6.050235337530717e-20 0.004 6.050235337530717e-20
-6.050235337530717e-20 0.006 6.050235337530717e-20
-6.050235337530717e-20 0.008 6.050235337530717e-20
-6.050235337530717e-20 0.01 6.050235337530717e-20
-6.050235337530717e-20 0.002 0.000875
-6.050235337530717e-20 0.004 0.000875
-6.050235337530717e-20 0.006 0.000875
-6.050235337530717e-20 0.008 0.000875
-6.050235337530717e-20 0.01 0.000875
0.0008749999999999997 0.002 -0.0008749999999999997
0.0008749999999999997 0.004 -0.0008749999999999997
0.0008749999999999997 0.006 -0.0008749999999999997
0.0008749999999999997 0.008 -0.0008749999999999997
0.0008749999999999997 0.01 -0.0008749999999999997
0.0008749999999999998 0.002 6.050235337530717e-20
0.0008749999999999998 0.004 6.050235337530717e-20
0.0008749999999999998 0.006 6.050235337530717e-20
0.0008749999999999998 0.008 6.050235337530717e-20
0.0008749999999999998 0.01 6.050235337530717e-20
0.0008749999999999997 0.002 0.0008749999999999999
0.0008749999999999997 0.004 0.0008749999999999999
0.0008749999999999997 0.006 0.0008749999999999999
0.0008749999999999997 0.008 0.0008749999999999999
0.0008749999999999997 0.01 0.0008749999999999999
3 2 0 45
444
445
446
447
448
449
450
451
452
453
454
455
456
457
458
459
460
461
462
463
464
465
466
467
468
469
470
471
472
473
474
475
476
477
478
479
480
481
482
483
484
485
486
487
488
-0.001134604290456362 0.002 -0.002467349415639109
-0.001134604290456362 0.004 -0.002467349415639109
-0.001134604290456362 0.006 -0.002467349415639109
-0.001134604290456362 0.008 -0.002467349415639109
-0.001134604290456362 0.01 -0.002467349415639109
-0.001394208580912723 0.002 -0.003184698831278218
-0.001394208580912723 0.004 -0.003184698831278218
-0.001394208580912723 0.006 -0.003184698831278218
-0.001394208580912723 0.008 -0.003184698831278218
-0.001394208580912723 0.01 -0.003184698831278218
-0.001653812871369084 0.002 -0.003902048246917327
-0.001653812871369084 0.004 -0.003902048246917327
-0.001653812871369084 0.006 -0.003902048246917327
-0.001653812871369084 0.008 -0.003902048246917327
-0.001653812871369084 0.01 -0.003902048246917327
6.654626103042168e-19 0.002 -0.002562500000000001
6.654626103042168e-19 0.004 -0.002562500000000001
6.654626103042168e-19 0.006 -0.002562500000000001
6.654626103042168e-19 0.008 -0.002562500000000001
6.654626103042168e-19 0.01 -0.002562500000000001
1.358430582349959e-18 0.002 -0.003375
1.358430582349959e-18 0.004 -0.003375
1.358430582349959e-18 0.006 -0.003375
1.358430582349959e-18 0.008 -0.003375
1.358430582349959e-18 0.01 -0.003375
2.430869314765628e-18 0.002 -0.004187500000000001
2.430869314765628e-18 0.004 -0.004187500000000001
2.430869314765628e-18 0.006 -0.004187500000000001
2.430869314765628e-18 0.008 -0.004187500000000001
2.430869314765628e-18 0.01 -0.004187500000000001
0.001134604290456362 0.002 -0.002467349415639108
0.001134604290456362 0.004 -0.002467349415639108
0.001134604290456362 0.006 -0.002467349415639108
0.001134604290456362 0.008 -0.002467349415639108
0.001134604290456362 0.01 -0.002467349415639108
0.001394208580912725 0.002 -0.003184698831278217
0.001394208580912725 0.004 -0.003184698831278217
0.001394208580912725 0.006 -0.003184698831278217
0.001394208580912725 0.008 -0.003184698831278217
0.001394208580912725 0.01 -0.003184698831278217
0.001653812871369088 0.002 -0.003902048246917326
0.001653812871369088 0.004 -0.003902048246917326
0.001653812871369088 0.006 -0.003902048246917326
0.001653812871369088 0.008 -0.003902048246917326
0.001653812871369088 0.01 -0.003902048246917326
3 3 0 45
489
490
491
492
493
494
495
496
497
498
499
500
501
502
503
504
505
506
507
508
509
510
511
512
513
514
515
516
517
518
519
520
521
522
523
524
525
526
527
528
529
530
531
532
533
0.002467349415639108 0.002 -0.001134604290456363
0.002467349415639108 0.004 -0.001134604290456363
0.002467349415639108 0.006 -0.001134604290456363
0.002467349415639108 0.008 -0.001134604290456363
0.002467349415639108 0.01 -0.001134604290456363
0.003184698831278216 0.002 -0.001394208580912726
0.003184698831278216 0.004 -0.001394208580912726
0.003184698831278216 0.006 -0.001394208580912726
0.003184698831278216 0.008 -0.001394208580912726
0.003184698831278216 0.01 -0.001394208580912726
0.003902048246917324 0.002 -0.001653812871369088
0.003902048246917324 0.004 -0.001653812871369088
0.003902048246917324 0.006 -0.001653812871369088
0.003902048246917324 0.008 -0.001653812871369088
0.003902048246917324 0.01 -0.001653812871369088
0.0025625 0.002 -1.922017098749189e-19
0.0025625 0.004 -1.922017098749189e-19
0.0025625 0.006 -1.922017098749189e-19
0.0025625 0.008 -1.922017098749189e-19
0.0025625 0.01 -1.922017098749189e-19
0.003375 0.002 -2.897358833720503e-19
0.003375 0.004 -2.897358833720503e-19
0.003375 0.006 -2.897358833720503e-19
0.003375 0.008 -2.897358833720503e-19
0.003375 0.01 -2.897358833720503e-19
0.0041875 0.002 1.548310293735706e-19
0.0041875 0.004 1.548310293735706e-19
0.0041875 0.006 1.548310293735706e-19
0.0041875 0.008 1.548310293735706e-19
0.0041875 0.01 1.548310293735706e-19
0.002467349415639108 0.002 0.001134604290456361
0.002467349415639108 0.004 0.001134604290456361
0.002467349415639108 0.006 0.001134604290456361
0.002467349415639108 0.008 0.001134604290456361
0.002467349415639108 0.01 0.001134604290456361
0.003184698831278217 0.002 0.001394208580912723
0.003184698831278217 0.004 0.001394208580912723
0.003184698831278217 0.006 0.001394208580912723
0.003184698831278217 0.008 0.001394208580912723
0.003184698831278217 0.01 0.001394208580912723
0.003902048246917326 0.002 0.001653812871369085
0.003902048246917326 0.004 0.001653812871369085
0.003902048246917326 0.006 0.001653812871369085
0.003902048246917326 0.008 0.001653812871369085
0.003902048246917326 0.01 0.001653812871369085
3 4 0 45
534
535
536
537
538
539
540
541
542
543
544
545
546
547
548
549
550
551
552
553
554
555
556
557
558
559
560
561
562
563
564
565
566
567
568
569
570
571
572
573
574
575
576
577
578
0.001134604290456363 0.002 0.002467349415639108
0.001134604290456363 0.004 0.002467349415639108
0.001134604290456363 0.006 0.002467349415639108
0.001134604290456363 0.008 0.002467349415639108
0.001134604290456363 0.01 0.002467349415639108
0.001394208580912726 0.002 0.003184698831278216
0.001394208580912726 0.004 0.003184698831278216
0.001394208580912726 0.006 0.003184698831278216
0.001394208580912726 0.008 0.003184698831278216
0.001394208580912726 0.01 0.003184698831278216
0.001653812871369088 0.002 0.003902048246917324
0.001653812871369088 0.004 0.003902048246917324
0.001653812871369088 0.006 0.003902048246917324
0.001653812871369088 0.008 0.003902048246917324
0.001653812871369088 0.01 0.003902048246917324
2.687421348216285e-19 0.002 0.0025625
2.687421348216285e-19 0.004 0.0025625
2.687421348216285e-19 0.006 0.0025625
2.687421348216285e-19 0.008 0.0025625
2.687421348216285e-19 0.01 0.0025625
4.428167332654695e-19 0.002 0.003375
4.428167332654695e-19 0.004 0.003375
4.428167332654695e-19 0.006 0.003375
4.428167332654695e-19 0.008 0.003375
4.428167332654695e-19 0.01 0.003375
7.479024546655805e-20 0.002 0.0041875
7.479024546655805e-20 0.004 0.0041875
7.479024546655805e-20 0.006 0.0041875
7.479024546655805e-20 0.008 0.0041875
7.479024546655805e-20 0.01 0.0041875
-0.001134604290456361 0.002 0.002467349415639109
-0.001134604290456361 0.004 0.002467349415639109
-0.001134604290456361 0.006 0.002467349415639109
-0.001134604290456361 0.008 0.002467349415639109
-0.001134604290456361 0.01 0.002467349415639109
-0.001394208580912723 0.002 0.003184698831278218
-0.001394208580912723 0.004 0.003184698831278218
-0.001394208580912723 0.006 0.003184698831278218
-0.001394208580912723 0.008 0.003184698831278218
-0.001394208580912723 0.01 0.003184698831278218
-0.001653812871369085 0.002 0.003902048246917326
-0.001653812871369085 0.004 0.003902048246917326
-0.001653812871369085 0.006 0.003902048246917326
-0.001653812871369085 0.008 0.003902048246917326
-0.001653812871369085 0.01 0.003902048246917326
3 5 0 45
579
580
581
582
583
584
585
586
587
588
589
590
591
592
593
594
595
596
597
598
599
600
601
602
603
604
605
606
607
608
609
610
611
612
613
614
615
616
617
618
619
620
621
622
623
-0.002467349415639108 0.002 0.001134604290456363
-0.002467349415639108 0.004 0.001134604290456363
-0.002467349415639108 0.006 0.001134604290456363
-0.002467349415639108 0.008 0.001134604290456363
-0.002467349415639108 0.01 0.001134604290456363
-0.003184698831278216 0.002 0.001394208580912724
-0.003184698831278216 0.004 0.001394208580912724
-0.003184698831278216 0.006 0.001394208580912724
-0.003184698831278216 0.008 0.001394208580912724
-0.003184698831278216 0.01 0.001394208580912724
-0.003902048246917324 0.002 0.001653812871369086
-0.003902048246917324 0.004 0.001653812871369086
-0.003902048246917324 0.006 0.001653812871369086
-0.003902048246917324 0.008 0.001653812871369086
-0.003902048246917324 0.01 0.001653812871369086
-0.002562499999999999 0.002 7.883603293407561e-20
-0.002562499999999999 0.004 7.883603293407561e-20
-0.002562499999999999 0.006 7.883603293407561e-20
-0.002562499999999999 0.008 7.883603293407561e-20
-0.002562499999999999 0.01 7.883603293407561e-20
-0.003374999999999999 0.002 4.249389968913822e-19
-0.003374999999999999 0.004 4.249389968913822e-19
-0.003374999999999999 0.006 4.249389968913822e-19
-0.003374999999999999 0.008 4.249389968913822e-19
-0.003374999999999999 0.01 4.249389968913822e-19
-0.004187499999999999 0.002 3.915712004787622e-19
-0.004187499999999999 0.004 3.915712004787622e-19
-0.004187499999999999 0.006 3.915712004787622e-19
-0.004187499999999999 0.008 3.915712004787622e-19
-0.004187499999999999 0.01 3.915712004787622e-19
-0.002467349415639108 0.002 -0.001134604290456362
-0.002467349415639108 0.004 -0.001134604290456362
-0.002467349415639108 0.006 -0.001134604290456362
-0.002467349415639108 0.008 -0.001134604290456362
-0.002467349415639108 0.01 -0.001134604290456362
-0.003184698831278216 0.002 -0.001394208580912724
-0.003184698831278216 0.004 -0.001394208580912724
-0.003184698831278216 0.006 -0.001394208580912724
-0.003184698831278216 0.008 -0.001394208580912724
-0.003184698831278216 0.01 -0.001394208580912724
-0.003902048246917325 0.002 -0.001653812871369086
-0.003902048246917325 0.004 -0.001653812871369086
-0.003902048246917325 0.006 -0.001653812871369086
-0.003902048246917325 0.008 -0.001653812871369086
-0.003902048246917325 0.01 -0.001653812871369086
$EndNodes
$Elements
15 640 1 640
2 14 3 16
1 1 17 129 28 
2 28 129 130 27 
3 27 130 131 26 
4 26 131 25 4 
5 17 18 132 129 
6 129 132 133 130 
7 130 133 134 131 
8 131 134 24 25 
9 18 19 135 132 
10 132 135 136 133 
11 133 136 137 134 
12 134 137 23 24 
13 19 2 20 135 
14 135 20 21 136 
15 136 21 22 137 
16 137 22 3 23 
2 16 3 16
17 1 17 138 41 
18 41 138 139 42 
19 42 139 140 43 
20 43 140 29 5 
21 17 18 141 138 
22 138 141 142 139 
23 139 142 143 140 
24 140 143 30 29 
25 18 19 144 141 
26 141 144 145 142 
27 142 145 146 143 
28 143 146 31 30 
29 19 2 44 144 
30 144 44 45 145 
31 145 45 46 146 
32 146 46 6 31 
2 18 3 16
33 2 20 147 44 
34 44 147 148 45 
35 45 148 149 46 
36 46 149 32 6 
37 20 21 150 147 
38 147 150 151 148 
39 148 151 152 149 
40 149 152 33 32 
41 21 22 153 150 
42 150 153 154 151 
43 151 154 155 152 
44 152 155 34 33 
45 22 3 47 153 
46 153 47 48 154 
47 154 48 49 155 
48 155 49 7 34 
2 20 3 16
49 3 23 156 47 
50 47 156 157 48 
51 48 157 158 49 
52 49 158 35 7 
53 23 24 159 156 
54 156 159 160 157 
55 157 160 161 158 
56 158 161 36 35 
57 24 25 162 159 
58 159 162 163 160 
59 160 163 164 161 
60 161 164 37 36 
61 25 4 50 162 
62 162 50 51 163 
63 163 51 52 164 
64 164 52 8 37 
2 22 3 16
65 4 26 165 50 
66 50 165 166 51 
67 51 166 167 52 
68 52 167 38 8 
69 26 27 168 165 
70 165 168 169 166 
71 166 169 170 167 
72 167 170 39 38 
73 27 28 171 168 
74 168 171 172 169 
75 169 172 173 170 
76 170 173 40 39 
77 28 1 41 171 
78 171 41 42 172 
79 172 42 43 173 
80 173 43 5 40 
2 27 3 16
81 9 84 234 63 
82 84 83 235 234 
83 83 82 236 235 
84 82 12 81 236 
85 63 234 237 64 
86 234 235 238 237 
87 235 236 239 238 
88 236 81 80 239 
89 64 237 240 65 
90 237 238 241 240 
91 238 239 242 241 
92 239 80 79 242 
93 65 240 71 10 
94 240 241 72 71 
95 241 242 73 72 
96 242 79 11 73 
2 31 3 16
97 9 63 288 101 
98 101 288 289 102 
99 102 289 290 103 
100 103 290 98 14 
101 63 64 291 288 
102 288 291 292 289 
103 289 292 293 290 
104 290 293 99 98 
105 64 65 294 291 
106 291 294 295 292 
107 292 295 296 293 
108 293 296 100 99 
109 65 10 90 294 
110 294 90 91 295 
111 295 91 92 296 
112 296 92 13 100 
2 34 3 16
113 10 71 327 90 
114 90 327 328 91 
115 91 328 329 92 
116 92 329 112 13 
117 71 72 330 327 
118 327 330 331 328 
119 328 331 332 329 
120 329 332 113 112 
121 72 73 333 330 
122 330 333 334 331 
123 331 334 335 332 
124 332 335 114 113 
125 73 11 109 333 
126 333 109 110 334 
127 334 110 111 335 
128 335 111 15 114 
2 37 3 16
129 11 79 366 109 
130 109 366 367 110 
131 110 367 368 111 
132 111 368 123 15 
133 79 80 369 366 
134 366 369 370 367 
135 367 370 371 368 
136 368 371 124 123 
137 80 81 372 369 
138 369 372 373 370 
139 370 373 374 371 
140 371 374 125 124 
141 81 12 120 372 
142 372 120 121 373 
143 373 121 122 374 
144 374 122 16 125 
2 39 3 16
145 12 82 390 120 
146 120 390 391 121 
147 121 391 392 122 
148 122 392 126 16 
149 82 83 393 390 
150 390 393 394 391 
151 391 394 395 392 
152 392 395 127 126 
153 83 84 396 393 
154 393 396 397 394 
155 394 397 398 395 
156 395 398 128 127 
157 84 9 101 396 
158 396 101 102 397 
159 397 102 103 398 
160 398 103 14 128 
3 1 5 96
161 129 17 1 28 399 174 53 229 
162 399 174 53 229 400 175 54 230 
163 400 175 54 230 401 176 55 231 
164 401 176 55 231 402 177 56 232 
165 402 177 56 232 403 178 57 233 
166 403 178 57 233 234 63 9 84 
167 130 129 28 27 404 399 229 224 
168 404 399 229 224 405 400 230 225 
169 405 400 230 225 406 401 231 226 
170 406 401 231 226 407 402 232 227 
171 407 402 232 227 408 403 233 228 
172 408 403 233 228 235 234 84 83 
173 131 130 27 26 409 404 224 219 
174 409 404 224 219 410 405 225 220 
175 410 405 225 220 411 406 226 221 
176 411 406 226 221 412 407 227 222 
177 412 407 227 222 413 408 228 223 
178 413 408 228 223 236 235 83 82 
179 25 131 26 4 214 409 219 74 
180 214 409 219 74 215 410 220 75 
181 215 410 220 75 216 411 221 76 
182 216 411 221 76 217 412 222 77 
183 217 412 222 77 218 413 223 78 
184 218 413 223 78 81 236 82 12 
185 132 18 17 129 414 179 174 399 
186 414 179 174 399 415 180 175 400 
187 415 180 175 400 416 181 176 401 
188 416 181 176 401 417 182 177 402 
189 417 182 177 402 418 183 178 403 
190 418 183 178 403 237 64 63 234 
191 133 132 129 130 419 414 399 404 
192 419 414 399 404 420 415 400 405 
193 420 415 400 405 421 416 401 406 
194 421 416 401 406 422 417 402 407 
195 422 417 402 407 423 418 403 408 
196 423 418 403 408 238 237 234 235 
197 134 133 130 131 424 419 404 409 
198 424 419 404 409 425 420 405 410 
199 425 420 405 410 426 421 406 411 
200 426 421 406 411 427 422 407 412 
201 427 422 407 412 428 423 408 413 
202 428 423 408 413 239 238 235 236 
203 24 134 131 25 209 424 409 214 
204 209 424 409 214 210 425 410 215 
205 210 425 410 215 211 426 411 216 
206 211 426 411 216 212 427 412 217 
207 212 427 412 217 213 428 413 218 
208 213 428 413 218 80 239 236 81 
209 135 19 18 132 429 184 179 414 
210 429 184 179 414 430 185 180 415 
211 430 185 180 415 431 186 181 416 
212 431 186 181 416 432 187 182 417 
213 432 187 182 417 433 188 183 418 
214 433 188 183 418 240 65 64 237 
215 136 135 132 133 434 429 414 419 
216 434 429 414 419 435 430 415 420 
217 435 430 415 420 436 431 416 421 
218 436 431 416 421 437 432 417 422 
219 437 432 417 422 438 433 418 423 
220 438 433 418 423 241 240 237 238 
221 137 136 133 134 439 434 419 424 
222 439 434 419 424 440 435 420 425 
223 440 435 420 425 441 436 421 426 
224 441 436 421 426 442 437 422 427 
225 442 437 422 427 443 438 423 428 
226 443 438 423 428 242 241 238 239 
227 23 137 134 24 204 439 424 209 
228 204 439 424 209 205 440 425 210 
229 205 440 425 210 206 441 426 211 
230 206 441 426 211 207 442 427 212 
231 207 442 427 212 208 443 428 213 
232 208 443 428 213 79 242 239 80 
233 20 2 19 135 189 58 184 429 
234 189 58 184 429 190 59 185 430 
235 190 59 185 430 191 60 186 431 
236 191 60 186 431 192 61 187 432 
237 192 61 187 432 193 62 188 433 
238 193 62 188 433 71 10 65 240 
239 21 20 135 136 194 189 429 434 
240 194 189 429 434 195 190 430 435 
241 195 190 430 435 196 191 431 436 
242 196 191 431 436 197 192 432 437 
243 197 192 432 437 198 193 433 438 
244 198 193 433 438 72 71 240 241 
245 22 21 136 137 199 194 434 439 
246 199 194 434 439 200 195 435 440 
247 200 195 435 440 201 196 436 441 
248 201 196 436 441 202 197 437 442 
249 202 197 437 442 203 198 438 443 
250 203 198 438 443 73 72 241 242 
251 3 22 137 23 66 199 439 204 
252 66 199 439 204 67 200 440 205 
253 67 200 440 205 68 201 441 206 
254 68 201 441 206 69 202 442 207 
255 69 202 442 207 70 203 443 208 
256 70 203 443 208 11 73 242 79 
3 2 5 96
257 1 17 138 41 53 174 444 273 
258 53 174 444 273 54 175 445 274 
259 54 175 445 274 55 176 446 275 
260 55 176 446 275 56 177 447 276 
261 56 177 447 276 57 178 448 277 
262 57 178 448 277 9 63 288 101 
263 41 138 139 42 273 444 449 278 
264 273 444 449 278 274 445 450 279 
265 274 445 450 279 275 446 451 280 
266 275 446 451 280 276 447 452 281 
267 276 447 452 281 277 448 453 282 
268 277 448 453 282 101 288 289 102 
269 42 139 140 43 278 449 454 283 
270 278 449 454 283 279 450 455 284 
271 279 450 455 284 280 451 456 285 
272 280 451 456 285 281 452 457 286 
273 281 452 457 286 282 453 458 287 
274 282 453 458 287 102 289 290 103 
275 43 140 29 5 283 454 258 93 
276 283 454 258 93 284 455 259 94 
277 284 455 259 94 285 456 260 95 
278 285 456 260 95 286 457 261 96 
279 286 457 261 96 287 458 262 97 
280 287 458 262 97 103 290 98 14 
281 17 18 141 138 174 179 459 444 
282 174 179 459 444 175 180 460 445 
283 175 180 460 445 176 181 461 446 
284 176 181 461 446 177 182 462 447 
285 177 182 462 447 178 183 463 448 
286 178 183 463 448 63 64 291 288 
287 138 141 142 139 444 459 464 449 
288 444 459 464 449 445 460 465 450 
289 445 460 465 450 446 461 466 451 
290 446 461 466 451 447 462 467 452 
291 447 462 467 452 448 463 468 453 
292 448 463 468 453 288 291 292 289 
293 139 142 143 140 449 464 469 454 
294 449 464 469 454 450 465 470 455 
295 450 465 470 455 451 466 471 456 
296 451 466 471 456 452 467 472 457 
297 452 467 472 457 453 468 473 458 
298 453 468 473 458 289 292 293 290 
299 140 143 30 29 454 469 263 258 
300 454 469 263 258 455 470 264 259 
301 455 470 264 259 456 471 265 260 
302 456 471 265 260 457 472 266 261 
303 457 472 266 261 458 473 267 262 
304 458 473 267 262 290 293 99 98 
305 18 19 144 141 179 184 474 459 
306 179 184 474 459 180 185 475 460 
307 180 185 475 460 181 186 476 461 
308 181 186 476 461 182 187 477 462 
309 182 187 477 462 183 188 478 463 
310 183 188 478 463 64 65 294 291 
311 141 144 145 142 459 474 479 464 
312 459 474 479 464 460 475 480 465 
313 460 475 480 465 461 476 481 466 
314 461 476 481 466 462 477 482 467 
315 462 477 482 467 463 478 483 468 
316 463 478 483 468 291 294 295 292 
317 142 145 146 143 464 479 484 469 
318 464 479 484 469 465 480 485 470 
319 465 480 485 470 466 481 486 471 
320 466 481 486 471 467 482 487 472 
321 467 482 487 472 468 483 488 473 
322 468 483 488 473 292 295 296 293 
323 143 146 31 30 469 484 268 263 
324 469 484 268 263 470 485 269 264 
325 470 485 269 264 471 486 270 265 
326 471 486 270 265 472 487 271 266 
327 472 487 271 266 473 488 272 267 
328 473 488 272 267 293 296 100 99 
329 19 2 44 144 184 58 243 474 
330 184 58 243 474 185 59 244 475 
331 185 59 244 475 186 60 245 476 
332 186 60 245 476 187 61 246 477 
333 187 61 246 477 188 62 247 478 
334 188 62 247 478 65 10 90 294 
335 144 44 45 145 474 243 248 479 
336 474 243 248 479 475 244 249 480 
337 475 244 249 480 476 245 250 481 
338 476 245 250 481 477 246 251 482 
339 477 246 251 482 478 247 252 483 
340 478 247 252 483 294 90 91 295 
341 145 45 46 146 479 248 253 484 
342 479 248 253 484 480 249 254 485 
343 480 249 254 485 481 250 255 486 
344 481 250 255 486 482 251 256 487 
345 482 251 256 487 483 252 257 488 
346 483 252 257 488 295 91 92 296 
347 146 46 6 31 484 253 85 268 
348 484 253 85 268 485 254 86 269 
349 485 254 86 269 486 255 87 270 
350 486 255 87 270 487 256 88 271 
351 487 256 88 271 488 257 89 272 
352 488 257 89 272 296 92 13 100 
3 3 5 96
353 2 20 147 44 58 189 489 243 
354 58 189 489 243 59 190 490 244 
355 59 190 490 244 60 191 491 245 
356 60 191 491 245 61 192 492 246 
357 61 192 492 246 62 193 493 247 
358 62 193 493 247 10 71 327 90 
359 44 147 148 45 243 489 494 248 
360 243 489 494 248 244 490 495 249 
361 244 490 495 249 245 491 496 250 
362 245 491 496 250 246 492 497 251 
363 246 492 497 251 247 493 498 252 
364 247 493 498 252 90 327 328 91 
365 45 148 149 46 248 494 499 253 
366 248 494 499 253 249 495 500 254 
367 249 495 500 254 250 496 501 255 
368 250 496 501 255 251 497 502 256 
369 251 497 502 256 252 498 503 257 
370 252 498 503 257 91 328 329 92 
371 46 149 32 6 253 499 312 85 
372 253 499 312 85 254 500 313 86 
373 254 500 313 86 255 501 314 87 
374 255 501 314 87 256 502 315 88 
375 256 502 315 88 257 503 316 89 
376 257 503 316 89 92 329 112 13 
377 20 21 150 147 189 194 504 489 
378 189 194 504 489 190 195 505 490 
379 190 195 505 490 191 196 506 491 
380 191 196 506 491 192 197 507 492 
381 192 197 507 492 193 198 508 493 
382 193 198 508 493 71 72 330 327 
383 147 150 151 148 489 504 509 494 
384 489 504 509 494 490 505 510 495 
385 490 505 510 495 491 506 511 496 
386 491 506 511 496 492 507 512 497 
387 492 507 512 497 493 508 513 498 
388 493 508 513 498 327 330 331 328 
389 148 151 152 149 494 509 514 499 
390 494 509 514 499 495 510 515 500 
391 495 510 515 500 496 511 516 501 
392 496 511 516 501 497 512 517 502 
393 497 512 517 502 498 513 518 503 
394 498 513 518 503 328 331 332 329 
395 149 152 33 32 499 514 317 312 
396 499 514 317 312 500 515 318 313 
397 500 515 318 313 501 516 319 314 
398 501 516 319 314 502 517 320 315 
399 502 517 320 315 503 518 321 316 
400 503 518 321 316 329 332 113 112 
401 21 22 153 150 194 199 519 504 
402 194 199 519 504 195 200 520 505 
403 195 200 520 505 196 201 521 506 
404 196 201 521 506 197 202 522 507 
405 197 202 522 507 198 203 523 508 
406 198 203 523 508 72 73 333 330 
407 150 153 154 151 504 519 524 509 
408 504 519 524 509 505 520 525 510 
409 505 520 525 510 506 521 526 511 
410 506 521 526 511 507 522 527 512 
411 507 522 527 512 508 523 528 513 
412 508 523 528 513 330 333 334 331 
413 151 154 155 152 509 524 529 514 
414 509 524 529 514 510 525 530 515 
415 510 525 530 515 511 526 531 516 
416 511 526 531 516 512 527 532 517 
417 512 527 532 517 513 528 533 518 
418 513 528 533 518 331 334 335 332 
419 152 155 34 33 514 529 322 317 
420 514 529 322 317 515 530 323 318 
421 515 530 323 318 516 531 324 319 
422 516 531 324 319 517 532 325 320 
423 517 532 325 320 518 533 326 321 
424 518 533 326 321 332 335 114 113 
425 22 3 47 153 199 66 297 519 
426 199 66 297 519 200 67 298 520 
427 200 67 298 520 201 68 299 521 
428 201 68 299 521 202 69 300 522 
429 202 69 300 522 203 70 301 523 
430 203 70 301 523 73 11 109 333 
431 153 47 48 154 519 297 302 524 
432 519 297 302 524 520 298 303 525 
433 520 298 303 525 521 299 304 526 
434 521 299 304 526 522 300 305 527 
435 522 300 305 527 523 301 306 528 
436 523 301 306 528 333 109 110 334 
437 154 48 49 155 524 302 307 529 
438 524 302 307 529 525 303 308 530 
439 525 303 308 530 526 304 309 531 
440 526 304 309 531 527 305 310 532 
441 527 305 310 532 528 306 311 533 
442 528 306 311 533 334 110 111 335 
443 155 49 7 34 529 307 104 322 
444 529 307 104 322 530 308 105 323 
445 530 308 105 323 531 309 106 324 
446 531 309 106 324 532 310 107 325 
447 532 310 107 325 533 311 108 326 
448 533 311 108 326 335 111 15 114 
3 4 5 96
449 3 23 156 47 66 204 534 297 
450 66 204 534 297 67 205 535 298 
451 67 205 535 298 68 206 536 299 
452 68 206 536 299 69 207 537 300 
453 69 207 537 300 70 208 538 301 
454 70 208 538 301 11 79 366 109 
455 47 156 157 48 297 534 539 302 
456 297 534 539 302 298 535 540 303 
457 298 535 540 303 299 536 541 304 
458 299 536 541 304 300 537 542 305 
459 300 537 542 305 301 538 543 306 
460 301 538 543 306 109 366 367 110 
461 48 157 158 49 302 539 544 307 
462 302 539 544 307 303 540 545 308 
463 303 540 545 308 304 541 546 309 
464 304 541 546 309 305 542 547 310 
465 305 542 547 310 306 543 548 311 
466 306 543 548 311 110 367 368 111 
467 49 158 35 7 307 544 351 104 
468 307 544 351 104 308 545 352 105 
469 308 545 352 105 309 546 353 106 
470 309 546 353 106 310 547 354 107 
471 310 547 354 107 311 548 355 108 
472 311 548 355 108 111 368 123 15 
473 23 24 159 156 204 209 549 534 
474 204 209 549 534 205 210 550 535 
475 205 210 550 535 206 211 551 536 
476 206 211 551 536 207 212 552 537 
477 207 212 552 537 208 213 553 538 
478 208 213 553 538 79 80 369 366 
479 156 159 160 157 534 549 554 539 
480 534 549 554 539 535 550 555 540 
481 535 550 555 540 536 551 556 541 
482 536 551 556 541 537 552 557 542 
483 537 552 557 542 538 553 558 543 
484 538 553 558 543 366 369 370 367 
485 157 160 161 158 539 554 559 544 
486 539 554 559 544 540 555 560 545 
487 540 555 560 545 541 556 561 546 
488 541 556 561 546 542 557 562 547 
489 542 557 562 547 543 558 563 548 
490 543 558 563 548 367 370 371 368 
491 158 161 36 35 544 559 356 351 
492 544 559 356 351 545 560 357 352 
493 545 560 357 352 546 561 358 353 
494 546 561 358 353 547 562 359 354 
495 547 562 359 354 548 563 360 355 
496 548 563 360 355 368 371 124 123 
497 24 25 162 159 209 214 564 549 
498 209 214 564 549 210 215 565 550 
499 210 215 565 550 211 216 566 551 
500 211 216 566 551 212 217 567 552 
501 212 217 567 552 213 218 568 553 
502 213 218 568 553 80 81 372 369 
503 159 162 163 160 549 564 569 554 
504 549 564 569 554 550 565 570 555 
505 550 565 570 555 551 566 571 556 
506 551 566 571 556 552 567 572 557 
507 552 567 572 557 553 568 573 558 
508 553 568 573 558 369 372 373 370 
509 160 163 164 161 554 569 574 559 
510 554 569 574 559 555 570 575 560 
511 555 570 575 560 556 571 576 561 
512 556 571 576 561 557 572 577 562 
513 557 572 577 562 558 573 578 563 
514 558 573 578 563 370 373 374 371 
515 161 164 37 36 559 574 361 356 
516 559 574 361 356 560 575 362 357 
517 560 575 362 357 561 576 363 358 
518 561 576 363 358 562 577 364 359 
519 562 577 364 359 563 578 365 360 
520 563 578 365 360 371 374 125 124 
521 25 4 50 162 214 74 336 564 
522 214 74 336 564 215 75 337 565 
523 215 75 337 565 216 76 338 566 
524 216 76 338 566 217 77 339 567 
525 217 77 339 567 218 78 340 568 
526 218 78 340 568 81 12 120 372 
527 162 50 51 163 564 336 341 569 
528 564 336 341 569 565 337 342 570 
529 565 337 342 570 566 338 343 571 
530 566 338 343 571 567 339 344 572 
531 567 339 344 572 568 340 345 573 
532 568 340 345 573 372 120 121 373 
533 163 51 52 164 569 341 346 574 
534 569 341 346 574 570 342 347 575 
535 570 342 347 575 571 343 348 576 
536 571 343 348 576 572 344 349 577 
537 572 344 349 577 573 345 350 578 
538 573 345 350 578 373 121 122 374 
539 164 52 8 37 574 346 115 361 
540 574 346 115 361 575 347 116 362 
541 575 347 116 362 576 348 117 363 
542 576 348 117 363 577 349 118 364 
543 577 349 118 364 578 350 119 365 
544 578 350 119 365 374 122 16 125 
3 5 5 96
545 4 26 165 50 74 219 579 336 
546 74 219 579 336 75 220 580 337 
547 75 220 580 337 76 221 581 338 
548 76 221 581 338 77 222 582 339 
549 77 222 582 339 78 223 583 340 
550 78 223 583 340 12 82 390 120 
551 50 165 166 51 336 579 584 341 
552 336 579 584 341 337 580 585 342 
553 337 580 585 342 338 581 586 343 
554 338 581 586 343 339 582 587 344 
555 339 582 587 344 340 583 588 345 
556 340 583 588 345 120 390 391 121 
557 51 166 167 52 341 584 589 346 
558 341 584 589 346 342 585 590 347 
559 342 585 590 347 343 586 591 348 
560 343 586 591 348 344 587 592 349 
561 344 587 592 349 345 588 593 350 
562 345 588 593 350 121 391 392 122 
563 52 167 38 8 346 589 375 115 
564 346 589 375 115 347 590 376 116 
565 347 590 376 116 348 591 377 117 
566 348 591 377 117 349 592 378 118 
567 349 592 378 118 350 593 379 119 
568 350 593 379 119 122 392 126 16 
569 26 27 168 165 219 224 594 579 
570 219 224 594 579 220 225 595 580 
571 220 225 595 580 221 226 596 581 
572 221 226 596 581 222 227 597 582 
573 222 227 597 582 223 228 598 583 
574 223 228 598 583 82 83 393 390 
575 165 168 169 166 579 594 599 584 
576 579 594 599 584 580 595 600 585 
577 580 595 600 585 581 596 601 586 
578 581 596 601 586 582 597 602 587 
579 582 597 602 587 583 598 603 588 
580 583 598 603 588 390 393 394 391 
581 166 169 170 167 584 599 604 589 
582 584 599 604 589 585 600 605 590 
583 585 600 605 590 586 601 606 591 
584 586 601 606 591 587 602 607 592 
585 587 602 607 592 588 603 608 593 
586 588 603 608 593 391 394 395 392 
587 167 170 39 38 589 604 380 375 
588 589 604 380 375 590 605 381 376 
589 590 605 381 376 591 606 382 377 
590 591 606 382 377 592 607 383 378 
591 592 607 383 378 593 608 384 379 
592 593 608 384 379 392 395 127 126 
593 27 28 171 168 224 229 609 594 
594 224 229 609 594 225 230 610 595 
595 225 230 610 595 226 231 611 596 
596 226 231 611 596 227 232 612 597 
597 227 232 612 597 228 233 613 598 
598 228 233 613 598 83 84 396 393 
599 168 171 172 169 594 609 614 599 
600 594 609 614 599 595 610 615 600 
601 595 610 615 600 596 611 616 601 
602 596 611 616 601 597 612 617 602 
603 597 612 617 602 598 613 618 603 
604 598 613 618 603 393 396 397 394 
605 169 172 173 170 599 614 619 604 
606 599 614 619 604 600 615 620 605 
607 600 615 620 605 601 616 621 606 
608 601 616 621 606 602 617 622 607 
609 602 617 622 607 603 618 623 608 
610 603 618 623 608 394 397 398 395 
611 170 173 40 39 604 619 385 380 
612 604 619 385 380 605 620 386 381 
613 605 620 386 381 606 621 387 382 
614 606 621 387 382 607 622 388 383 
615 607 622 388 383 608 623 389 384 
616 608 623 389 384 395 398 128 127 
617 28 1 41 171 229 53 273 609 
618 229 53 273 609 230 54 274 610 
619 230 54 274 610 231 55 275 611 
620 231 55 275 611 232 56 276 612 
621 232 56 276 612 233 57 277 613 
622 233 57 277 613 84 9 101 396 
623 171 41 42 172 609 273 278 614 
624 609 273 278 614 610 274 279 615 
625 610 274 279 615 611 275 280 616 
626 611 275 280 616 612 276 281 617 
627 612 276 281 617 613 277 282 618 
628 613 277 282 618 396 101 102 397 
629 172 42 43 173 614 278 283 619 
630 614 278 283 619 615 279 284 620 
631 615 279 284 620 616 280 285 621 
632 616 280 285 621 617 281 286 622 
633 617 281 286 622 618 282 287 623 
634 618 282 287 623 397 102 103 398 
635 173 43 5 40 619 283 93 385 
636 619 283 93 385 620 284 94 386 
637 620 284 94 386 621 285 95 387 
638 621 285 95 387 622 286 96 388 
639 622 286 96 388 623 287 97 389 
640 623 287 97 389 398 103 14 128 
$EndElements
