$MeshFormat
2.2 0 8
$EndMeshFormat
$PhysicalNames
3
0 1 "bc-top"
0 2 "bc-bot"
3 3 "vol"
$EndPhysicalNames
$Nodes
230
1 0 0.006 0
2 0 -0.006 0
3 3.67394039744206e-19 -8.998558695971146e-35 0.006
4 3.67394039744206e-19 -8.998558695971146e-35 -0.006
5 0.001552914270615127 -3.803542981718123e-19 -0.00579555495773441
6 0.003000000000000005 -7.347880794884132e-19 -0.005196152422706629
7 0.004242640687119295 -1.039147267482594e-18 -0.004242640687119274
8 0.005196152422706641 -1.272690286469891e-18 -0.002999999999999984
9 0.005795554957734414 -1.419501565654405e-18 -0.001552914270615109
10 0.006 -1.469576158976824e-18 1.451763539562543e-17
11 0.005795554957734407 -1.419501565654403e-18 0.001552914270615137
12 0.005196152422706627 -1.272690286469887e-18 0.00300000000000001
13 0.004242640687119279 -1.03914726748259e-18 0.004242640687119292
14 0.002999999999999994 -7.347880794884104e-19 0.005196152422706636
15 0.001552914270615125 -3.803542981718118e-19 0.00579555495773441
16 -0.001249685680475555 0.00041968554284572 -0.005853387886099864
17 0.0005462877486402511 0.001065028703495218 -0.005879394829097368
18 -0.0004087417926370646 0.001767249950660313 -0.005719244509447289
19 -0.001249685680475556 -0.0004196855428457174 0.005853387886099864
20 0.0005462877486402504 -0.001065028703495216 0.005879394829097368
21 -0.0004087417926370666 -0.001767249950660311 0.00571924450944729
22 0.003758586441217089 0.001708940824091973 -0.004353452563615562
23 0.002254078913414706 0.001477959343063255 -0.00536048173510098
24 0.003758586441217076 -0.001708940824091976 0.004353452563615572
25 0.002254078913414695 -0.001477959343063257 0.005360481735100984
26 0.001244644586366841 -0.005351922709179234 0.002409934266447807
27 0.002674549651986219 -0.005195158362429962 0.001362759607683772
28 0.001438493124186156 -0.005781603582201339 0.0007097869750466011
29 -0.0004994680809113885 -0.004523664246548814 -0.003909858491128119
30 -0.0001405829592697899 -0.00328937542524678 -0.005015998977606108
31 -0.001812570667254305 -0.003756847673391038 -0.004312850928926901
32 0.005264918646921482 0.002810249665793596 -0.0006189737128549608
33 0.004407172217014746 0.004050464887170995 0.0004129978781642708
34 0.004018099768872904 0.0043297409676517 -0.001052719051039752
35 0.003082878478943154 -0.00441047402070439 0.002653974226845619
36 0.001244644586366854 0.005351922709179232 -0.002409934266447802
37 0.002674549651986229 0.00519515836242996 -0.001362759607683764
38 0.001438493124186155 0.005781603582201339 -0.0007097869750465959
39 -0.0004994680809113922 0.004523664246548812 0.00390985849112812
40 -0.0001405829592697942 0.00328937542524678 0.005015998977606108
41 -0.001812570667254309 0.003756847673391036 0.004312850928926901
42 -0.003282843713240257 -0.003869649850669471 -0.003201366456320279
43 -0.004408651260068098 -0.003764676352692082 -0.001546287821390641
44 -0.003103990089966248 -0.004844941920806179 -0.001700524420702701
45 0.003082878478943164 0.004410474020704388 -0.00265397422684561
46 -0.004608538439945532 -0.002602277142306848 -0.002826575157707947
47 -0.004989087376945937 -0.003191018317376739 0.0009625015549934641
48 -0.003697148865045244 -0.004515182088397113 0.001394353247320258
49 -0.004572153222086639 -0.003885166572895153 -2.99268210957537e-05
50 0.005330442384775085 0.002025813769239489 -0.001866135727902181
51 0.005791307949918063 0.001234158856302072 -0.0009682996161452311
52 -0.003282843713240255 0.003869649850669473 0.003201366456320278
53 -0.00440865126006809 0.003764676352692091 0.001546287821390641
54 -0.003103990089966241 0.004844941920806183 0.001700524420702701
55 0.005264918646921474 -0.002810249665793604 0.0006189737128549808
56 0.004407172217014746 -0.004050464887170996 -0.000412997878164255
57 0.004018099768872895 -0.004329740967651706 0.001052719051039765
58 -0.00460853843994553 0.002602277142306851 0.002826575157707946
59 -0.002000762713111836 -0.005254392940903139 0.00209482777058369
60 -0.002940514996310652 -0.004420857132859828 0.00279452925683639
61 0.003383876154553909 0.002513410229580094 0.00426991231625236
62 0.002423150006440345 0.003668867950756758 0.004082615828877126
63 0.003511266958628687 0.003433158406639005 0.003447379831142252
64 0.005330442384775077 -0.002025813769239492 0.001866135727902202
65 0.005791307949918059 -0.001234158856302072 0.0009682996161452572
66 -0.005357845633278117 0.0009076375417130586 -0.002543557403094275
67 -0.005826476489527805 -0.0001755104559285618 -0.001421748148175158
68 -0.005367865587568838 -0.0009131774044135251 -0.002520342449323672
69 -0.0008590870175100033 0.004965992635798775 -0.003255900280650207
70 -0.0002702978623824834 0.005731851098495115 -0.00175294667639144
71 -0.002000762713111825 0.005254392940903144 -0.002094827770583688
72 -0.005454619993032483 -0.002389914018900081 -0.0007317319959351205
73 0.00338387615455392 -0.002513410229580093 -0.004269912316252351
74 0.002423150006440351 -0.003668867950756761 -0.00408261582887712
75 0.003511266958628691 -0.00343315840663901 -0.003447379831142242
76 -0.0008590870175100155 -0.004965992635798772 0.00325590028065021
77 -0.0002702978623824911 -0.005731851098495115 0.001752946676391442
78 -0.005357845633278117 -0.0009076375417130549 0.002543557403094276
79 -0.005826476489527804 0.0001755104559285684 0.001421748148175159
80 -0.005367865587568838 0.000913177404413524 0.002520342449323672
81 -0.005454619993032477 0.002389914018900091 0.0007317319959351212
82 0.004614922853989025 -0.003185915286422123 0.002133642622247604
83 -0.001994090112406842 -0.005616817620627098 0.0006891766393416219
84 0.001182434456287827 -0.004557221347055598 0.003719352410100994
85 -0.003497909533286685 -0.004869860849282629 -0.0002215495555545088
86 0.00259537729965529 -0.003319381734223875 0.004271501091529173
87 0.005151954711620193 -0.001966066910849181 -0.00236472906513166
88 0.005612126572333831 -0.00118317719958127 -0.001761853299936051
89 0.001182434456287839 0.004557221347055599 -0.003719352410100989
90 0.002595377299655297 0.003319381734223877 -0.004271501091529168
91 0.004614922853989035 0.003185915286422119 -0.002133642622247589
92 0.002484428723603643 -0.004706212320671253 -0.002771133253760143
93 -0.004989087376945933 0.003191018317376745 -0.0009625015549934639
94 -0.003697148865045235 0.00451518208839712 -0.001394353247320257
95 -0.004572153222086633 0.00388516657289516 2.992682109575501e-05
96 0.005314220371836162 0.002580677202884595 0.001048411662503457
97 0.005828665524399948 0.001344643348862891 0.0004675387353260431
98 0.002484428723603641 0.00470621232067125 0.002771133253760151
99 -0.003569359174067662 -0.001744406887165585 0.00449630066816136
100 -0.002612773761244746 -0.003650143185582473 0.00398118926921301
101 -0.004457506079623223 -0.002829861736904682 0.002850003877212245
102 -0.0001711728843667479 -0.002052654536678512 -0.005635362383796688
103 -0.0003270193621567915 -0.0007929920116677596 -0.005938368631720811
104 -0.001223161538823323 -0.001099417782233814 -0.005770195524421286
105 0.001080683716795545 -0.002336645051106811 -0.005419613695586708
106 0.0008160784290908372 -0.00122676623460899 -0.005816275492374473
107 0.004853978825876327 -0.001637687795223541 0.003123598604705818
108 0.003919809004103852 -0.003059619537374516 0.003357651807120941
109 0.002031340388413416 -0.001181361137214363 -0.005520692174888944
110 -0.003676932041481807 0.000350454073567068 0.004728356237070625
111 -0.003150065673834713 0.002237975215216047 0.004590049366467308
112 -0.002376289429984436 0.0008571478424413701 0.005442292359028717
113 -0.001525828695062366 0.002225304709956417 0.005359091876537486
114 -0.003676932041481807 -0.0003504540735670622 -0.004728356237070625
115 -0.003150065673834714 -0.002237975215216044 -0.00459004936646731
116 -0.002376289429984436 -0.000857147842441367 -0.005442292359028717
117 -0.001525828695062367 -0.002225304709956417 -0.005359091876537486
118 0.005314220371836162 -0.002580677202884602 -0.001048411662503436
119 0.00582866552439995 -0.001344643348862891 -0.0004675387353260168
120 -0.006 6.063858597689163e-18 4.497931115688973e-19
121 -0.005650781485856951 -0.001613120158618972 0.001210996264632316
122 -0.005650781485856948 0.001613120158618978 -0.001210996264632316
123 0.001007829350223869 -0.004378958203380507 -0.00397605395510095
124 0.0003624239677792988 -0.005280455602739237 -0.00282585164067028
125 0.004853978825876341 0.001637687795223536 -0.0031235986047058
126 0.003919809004103864 0.003059619537374513 -0.00335765180712093
127 0.001084637116610939 0.002384499268708962 -0.005397937158099966
128 0.001084637116610935 -0.002384499268708963 0.005397937158099966
129 -0.003569359174067662 0.00174440688716559 -0.004496300668161359
130 -0.002612773761244738 0.003650143185582478 -0.00398118926921301
131 -0.004457506079623218 0.002829861736904688 -0.002850003877212245
132 0.005151954711620185 0.001966066910849176 0.002364729065131682
133 0.005612126572333824 0.001183177199581266 0.001761853299936077
134 0.001007829350223869 0.004378958203380503 0.003976053955100953
135 0.0003624239677792976 0.005280455602739235 0.002825851640670283
136 0.003259738406925639 0.004836232175531971 0.001408887455676711
137 0.004280383022724101 0.003581975456561884 0.002201765883867667
138 -0.00196563283500749 0.002858767605934043 -0.004895276839281162
139 -0.001965632835007495 -0.002858767605934038 0.004895276839281162
140 0.003259738406925642 -0.004836232175531972 -0.0014088874556767
141 0.004280383022724105 -0.003581975456561888 -0.002201765883867653
142 0.0009597796933690611 0.003630683223222251 -0.00467941901017732
143 -0.0004571337240723592 0.00284114780584859 -0.005264874918137892
144 -0.0006519315654431292 0.003963551938231255 -0.004457044005495361
145 0.0009597796933690528 -0.00363068322322225 0.004679419010177321
146 0.00134860778125569 0.003347406309695846 0.0047933420543651
147 0.001348607781255696 -0.003347406309695847 -0.004793342054365098
148 -0.0004571337240723658 -0.002841147805848587 0.005264874918137894
149 -0.0006519315654431368 -0.003963551938231251 0.004457044005495364
150 -0.001659990978255981 -0.005091211895606108 -0.00270628738055433
151 -0.001659990978255979 0.005091211895606107 0.002706287380554331
152 0.004434511600409191 -0.001971663221170664 -0.003528122873160634
153 0.003010275988783869 0.005190112419049244 3.116968049422611e-05
154 0.003010275988783866 -0.005190112419049246 -3.116968049421625e-05
155 -0.001878678382019818 0.001761214702489624 -0.005419288727191585
156 -0.001878678382019821 -0.00176121470248962 0.005419288727191585
157 -0.002940514996310643 0.004420857132859835 -0.002794529256836389
158 0.002031340388413407 0.001181361137214362 0.005520692174888947
159 0.001080683716795539 0.002336645051106812 0.005419613695586709
160 0.002407733272177083 0.002454561665124445 0.004917107637844931
161 -0.001994090112406838 0.005616817620627101 -0.0006891766393416207
162 0.004434511600409177 0.001971663221170662 0.003528122873160651
163 -0.00279422327013043 0.000581139428420953 -0.005277745094393644
164 -0.0001711728843667511 0.002052654536678511 0.005635362383796688
165 -0.00279422327013043 -0.0005811394284209498 0.005277745094393644
166 0.002407733272177092 -0.002454561665124444 -0.004917107637844927
167 -0.003497909533286679 0.004869860849282632 0.0002215495555545092
168 -0.001901184543578584 -0.005614220554658276 -0.0009306045856916936
169 -0.0003237478711510193 -0.005811243045571107 -0.001457615031901984
170 -0.001901184543578573 0.00561422055465828 0.0009306045856916946
171 -0.0003237478711510204 0.005811243045571107 0.001457615031901987
172 0.005511683684468363 0.001002487015361846 -0.002148572257662319
173 0.005511683684468353 -0.001002487015361852 0.002148572257662343
174 0.00152514757875175 -0.005693915606123918 -0.001119486459661823
175 0.001525147578751752 0.005693915606123917 0.001119486459661829
176 -0.004719722658511115 0.001518506510984401 -0.003379105799295837
177 -0.004694483438936406 0.0002936721192638128 -0.003724994218508119
178 0.0008160784290908328 0.001226766234608992 0.005816275492374473
179 -0.004719722658511116 -0.001518506510984396 0.003379105799295837
180 -0.004694483438936406 -0.0002936721192638075 0.003724994218508119
181 0.003457178215821804 0.001318661560356591 0.004723245756181346
182 0.003457178215821819 -0.001318661560356591 -0.004723245756181335
183 -0.004558885534473221 -0.001286055417758475 -0.003682746820788105
184 -0.00455888553447322 0.001286055417758478 0.003682746820788105
185 -0.001223161538823324 0.001099417782233815 0.005770195524421286
186 0.000538066951769848 -0.0005197465512638079 -0.005953179610751089
187 -0.0003270193621567922 0.0007929920116677593 0.005938368631720811
188 0.0005380669517698455 0.0005197465512638085 0.005953179610751089
189 -1.301042606982605e-18 2.818925648462312e-18 1.127570259384925e-17
190 0.0001162296310957064 -0.0005287981097994425 -0.002966922021117965
191 0.0001162296310957051 0.0005287981097994435 0.002966922021117977
192 0.002818724931191735 0.0007226867232507036 -0.0008096519552969422
193 0.002904849769701409 -0.0008944597701889604 0.00137675486155222
194 -0.002453764776258715 0.0004311580527882731 -0.001705834270597299
195 -0.002453764776258709 -0.0004311580527882764 0.001705834270597318
196 -0.001461945864297561 -0.002368651632446411 -0.001167966135121347
197 -0.001461945864297568 0.002368651632446407 0.001167966135121367
198 0.001556916020292901 -0.00236660156475881 -0.001050067137855193
199 0.001484016390830841 0.002434365705715986 0.001183324714739397
200 0.0004886653745083372 0.002258974854187211 -0.001916338117427607
201 0.0001620991606555866 -0.002279870528926932 0.00223784382507338
202 0.002462875203678459 -0.0008033171302699424 -0.002612996748920973
203 0.002034149271163983 0.001334993435925266 0.003189427845246559
204 -0.001847586264576835 0.002801966779044067 -0.001252249725058925
205 0.0001101390689578423 -0.002745436969264345 -0.002706733434443453
206 0.0003735314637351699 0.00259106876186423 0.0031146060050396
207 0.003659481163722759 -0.001238676098116899 -0.0008982763106438775
208 -0.0007321975507925097 0.001424578985528728 -0.003559478916594971
209 -5.179984323274829e-06 -0.003620263151056183 0.0002612794877956838
210 0.002040510687440374 -0.003003819510125918 0.001102137487980145
211 -0.001493745372206548 -0.0007282772627269063 0.00359019292642843
212 -0.002077532771286049 -0.002745306671913839 0.001134689755616082
213 -1.058571571045754e-05 0.003671188770469494 -0.0001097119269264346
214 0.001803215028636403 -0.0008584718283550671 0.003289816308239013
215 0.003619702421365093 0.001312194137913679 0.001058894627325795
216 -0.003395332788360577 0.001263264613445136 0.0003192963819976709
217 -0.003395332788360574 -0.001263264613445144 -0.0003192963819976509
218 0.002326228796992991 0.002896335949269646 -0.0008278682120985155
219 0.002255145362032077 0.001355859226187747 -0.002816677274700905
220 -0.001869947551197241 0.001214458996318947 0.002878026665403171
221 -0.001956719865179678 -0.001270913544177535 -0.003011887667903113
222 0.0005821438849269758 0.0002043322214448917 -0.004421821808131863
223 0.000582143884926975 -0.0002043322214448894 0.004421821808131868
224 0.001344370391185224 -0.00144657460263653 -0.00388974675796182
225 0.001454721035276482 0.0004665811162861025 0.00149270372435861
226 0.0004120049590849405 0.001427890222105 0.004270146039396436
227 -0.0004412576706047933 -0.001104126018891151 -0.004363136813785995
228 0.00117739198197024 4.501472287847552e-05 -0.001494760346520379
229 0.002169230049413608 -0.002523892928951464 -0.002779235346506561
230 0.004354817386168159 -0.0002865658070275965 0.0005733225854260634
$EndNodes
$Elements
730
1 15 2 1 3 1
2 15 2 2 4 2
3 4 2 3 1 172 9 192 207
4 4 2 3 1 50 172 51 192
5 4 2 3 1 190 200 194 228
6 4 2 3 1 51 172 9 192
7 4 2 3 1 197 135 206 213
8 4 2 3 1 190 194 189 228
9 4 2 3 1 196 198 190 228
10 4 2 3 1 50 125 172 192
11 4 2 3 1 192 199 218 228
12 4 2 3 1 196 169 205 209
13 4 2 3 1 148 211 21 223
14 4 2 3 1 163 208 194 221
15 4 2 3 1 167 197 95 204
16 4 2 3 1 151 197 135 206
17 4 2 3 1 169 150 196 205
18 4 2 3 1 190 198 196 205
19 4 2 3 1 194 200 190 208
20 4 2 3 1 189 194 190 196
21 4 2 3 1 129 204 194 208
22 4 2 3 1 189 198 193 210
23 4 2 3 1 172 8 9 207
24 4 2 3 1 193 192 207 228
25 4 2 3 1 53 95 167 197
26 4 2 3 1 49 85 43 196
27 4 2 3 1 191 195 189 201
28 4 2 3 1 116 163 221 227
29 4 2 3 1 174 198 205 209
30 4 2 3 1 208 221 163 227
31 4 2 3 1 189 193 201 210
32 4 2 3 1 189 196 190 228
33 4 2 3 1 99 195 211 212
34 4 2 3 1 189 201 198 210
35 4 2 3 1 194 197 189 204
36 4 2 3 1 196 209 189 212
37 4 2 3 1 172 192 8 207
38 4 2 3 1 194 200 189 228
39 4 2 3 1 32 50 192 218
40 4 2 3 1 189 201 193 225
41 4 2 3 1 51 32 50 192
42 4 2 3 1 163 129 194 208
43 4 2 3 1 189 191 197 220
44 4 2 3 1 16 208 163 227
45 4 2 3 1 49 85 196 212
46 4 2 3 1 56 207 198 210
47 4 2 3 1 190 196 194 221
48 4 2 3 1 193 207 198 228
49 4 2 3 1 55 207 56 210
50 4 2 3 1 195 196 189 212
51 4 2 3 1 148 201 211 223
52 4 2 3 1 125 192 50 219
53 4 2 3 1 62 199 63 203
54 4 2 3 1 16 163 116 227
55 4 2 3 1 63 203 199 215
56 4 2 3 1 193 198 189 228
57 4 2 3 1 95 204 197 216
58 4 2 3 1 189 198 196 228
59 4 2 3 1 114 163 194 221
60 4 2 3 1 189 195 191 220
61 4 2 3 1 200 218 199 228
62 4 2 3 1 197 200 189 204
63 4 2 3 1 172 125 8 192
64 4 2 3 1 197 199 189 213
65 4 2 3 1 198 201 189 209
66 4 2 3 1 197 189 200 213
67 4 2 3 1 195 201 191 211
68 4 2 3 1 199 206 135 213
69 4 2 3 1 194 189 197 216
70 4 2 3 1 189 196 195 217
71 4 2 3 1 211 220 185 226
72 4 2 3 1 200 204 197 213
73 4 2 3 1 174 205 124 209
74 4 2 3 1 189 200 199 228
75 4 2 3 1 12 193 203 215
76 4 2 3 1 189 209 201 212
77 4 2 3 1 167 170 197 204
78 4 2 3 1 95 197 53 216
79 4 2 3 1 49 196 43 217
80 4 2 3 1 193 225 192 228
81 4 2 3 1 53 167 54 197
82 4 2 3 1 44 43 85 196
83 4 2 3 1 51 192 9 230
84 4 2 3 1 191 189 197 225
85 4 2 3 1 196 198 189 209
86 4 2 3 1 185 223 211 226
87 4 2 3 1 41 151 39 206
88 4 2 3 1 41 197 151 206
89 4 2 3 1 130 204 129 208
90 4 2 3 1 62 199 203 206
91 4 2 3 1 189 197 195 220
92 4 2 3 1 56 140 154 210
93 4 2 3 1 32 91 50 218
94 4 2 3 1 153 199 213 218
95 4 2 3 1 129 114 163 194
96 4 2 3 1 201 209 198 210
97 4 2 3 1 194 195 189 216
98 4 2 3 1 189 195 194 217
99 4 2 3 1 49 212 196 217
100 4 2 3 1 55 193 207 210
101 4 2 3 1 200 204 144 208
102 4 2 3 1 195 189 201 212
103 4 2 3 1 56 198 140 210
104 4 2 3 1 193 210 108 214
105 4 2 3 1 194 189 200 204
106 4 2 3 1 148 128 201 223
107 4 2 3 1 189 225 193 228
108 4 2 3 1 199 200 189 213
109 4 2 3 1 99 211 100 212
110 4 2 3 1 85 168 196 212
111 4 2 3 1 197 204 170 213
112 4 2 3 1 195 197 189 216
113 4 2 3 1 189 194 196 217
114 4 2 3 1 168 169 196 209
115 4 2 3 1 12 193 13 203
116 4 2 3 1 124 205 169 209
117 4 2 3 1 91 125 50 219
118 4 2 3 1 197 206 41 220
119 4 2 3 1 86 108 210 214
120 4 2 3 1 197 204 194 216
121 4 2 3 1 168 169 150 196
122 4 2 3 1 33 215 199 218
123 4 2 3 1 131 194 129 204
124 4 2 3 1 8 202 192 219
125 4 2 3 1 184 195 80 220
126 4 2 3 1 167 170 54 197
127 4 2 3 1 44 85 168 196
128 4 2 3 1 196 212 195 217
129 4 2 3 1 127 200 142 208
130 4 2 3 1 139 148 201 211
131 4 2 3 1 148 21 128 223
132 4 2 3 1 142 200 127 219
133 4 2 3 1 192 202 8 207
134 4 2 3 1 185 187 223 226
135 4 2 3 1 189 199 197 225
136 4 2 3 1 175 153 199 213
137 4 2 3 1 100 211 201 212
138 4 2 3 1 168 209 196 212
139 4 2 3 1 51 32 192 215
140 4 2 3 1 68 183 194 221
141 4 2 3 1 99 101 195 212
142 4 2 3 1 9 192 207 230
143 4 2 3 1 197 206 199 213
144 4 2 3 1 13 203 193 214
145 4 2 3 1 31 196 150 205
146 4 2 3 1 100 139 201 211
147 4 2 3 1 56 141 198 207
148 4 2 3 1 151 135 39 206
149 4 2 3 1 33 199 136 218
150 4 2 3 1 189 191 201 225
151 4 2 3 1 194 204 131 216
152 4 2 3 1 33 137 199 215
153 4 2 3 1 51 215 192 230
154 4 2 3 1 151 197 170 213
155 4 2 3 1 129 131 176 194
156 4 2 3 1 179 99 101 195
157 4 2 3 1 196 205 31 221
158 4 2 3 1 93 131 204 216
159 4 2 3 1 113 185 220 226
160 4 2 3 1 63 199 137 215
161 4 2 3 1 175 199 135 213
162 4 2 3 1 62 98 63 199
163 4 2 3 1 167 161 170 204
164 4 2 3 1 92 205 198 229
165 4 2 3 1 136 33 137 199
166 4 2 3 1 78 179 101 195
167 4 2 3 1 131 66 176 194
168 4 2 3 1 151 170 171 213
169 4 2 3 1 130 144 204 208
170 4 2 3 1 195 216 80 220
171 4 2 3 1 136 175 153 199
172 4 2 3 1 113 220 206 226
173 4 2 3 1 139 148 149 201
174 4 2 3 1 12 203 162 215
175 4 2 3 1 101 195 212 217
176 4 2 3 1 112 185 211 220
177 4 2 3 1 154 209 28 210
178 4 2 3 1 144 200 69 204
179 4 2 3 1 55 56 57 210
180 4 2 3 1 192 215 32 218
181 4 2 3 1 128 145 148 201
182 4 2 3 1 174 124 169 209
183 4 2 3 1 86 210 201 214
184 4 2 3 1 127 200 208 219
185 4 2 3 1 127 219 208 222
186 4 2 3 1 58 216 197 220
187 4 2 3 1 191 220 211 226
188 4 2 3 1 68 194 217 221
189 4 2 3 1 98 199 62 206
190 4 2 3 1 101 212 47 217
191 4 2 3 1 19 185 187 223
192 4 2 3 1 8 192 125 219
193 4 2 3 1 46 43 196 217
194 4 2 3 1 58 53 197 216
195 4 2 3 1 170 204 161 213
196 4 2 3 1 180 195 184 220
197 4 2 3 1 56 141 140 198
198 4 2 3 1 46 217 196 221
199 4 2 3 1 177 129 176 194
200 4 2 3 1 99 179 180 195
201 4 2 3 1 44 42 43 196
202 4 2 3 1 54 52 53 197
203 4 2 3 1 130 131 129 204
204 4 2 3 1 202 222 6 224
205 4 2 3 1 162 203 63 215
206 4 2 3 1 169 124 150 205
207 4 2 3 1 190 224 202 229
208 4 2 3 1 136 199 153 218
209 4 2 3 1 85 83 168 212
210 4 2 3 1 153 213 38 218
211 4 2 3 1 52 197 41 220
212 4 2 3 1 64 55 193 230
213 4 2 3 1 43 42 46 196
214 4 2 3 1 52 58 53 197
215 4 2 3 1 58 197 52 220
216 4 2 3 1 69 204 200 213
217 4 2 3 1 98 135 199 206
218 4 2 3 1 55 82 193 210
219 4 2 3 1 128 214 201 223
220 4 2 3 1 64 55 82 193
221 4 2 3 1 70 69 200 213
222 4 2 3 1 99 100 101 212
223 4 2 3 1 31 42 150 196
224 4 2 3 1 41 52 151 197
225 4 2 3 1 144 142 200 208
226 4 2 3 1 154 174 28 209
227 4 2 3 1 183 177 194 221
228 4 2 3 1 83 209 168 212
229 4 2 3 1 195 216 194 217
230 4 2 3 1 145 86 201 214
231 4 2 3 1 190 205 224 229
232 4 2 3 1 12 13 162 203
233 4 2 3 1 70 204 69 213
234 4 2 3 1 194 204 200 208
235 4 2 3 1 211 223 191 226
236 4 2 3 1 19 211 185 223
237 4 2 3 1 31 42 196 221
238 4 2 3 1 42 46 196 221
239 4 2 3 1 32 215 33 218
240 4 2 3 1 45 218 200 219
241 4 2 3 1 59 76 209 212
242 4 2 3 1 129 177 114 194
243 4 2 3 1 122 194 131 216
244 4 2 3 1 121 195 101 217
245 4 2 3 1 208 219 190 222
246 4 2 3 1 100 139 149 201
247 4 2 3 1 190 202 198 229
248 4 2 3 1 151 54 170 197
249 4 2 3 1 44 168 150 196
250 4 2 3 1 108 193 82 210
251 4 2 3 1 145 201 128 214
252 4 2 3 1 93 204 95 216
253 4 2 3 1 90 200 142 219
254 4 2 3 1 180 195 110 211
255 4 2 3 1 31 221 205 227
256 4 2 3 1 31 205 30 227
257 4 2 3 1 55 207 193 230
258 4 2 3 1 113 41 206 220
259 4 2 3 1 6 202 219 222
260 4 2 3 1 201 209 76 212
261 4 2 3 1 175 38 153 213
262 4 2 3 1 93 122 131 216
263 4 2 3 1 121 101 47 217
264 4 2 3 1 160 146 62 203
265 4 2 3 1 45 200 90 219
266 4 2 3 1 86 84 201 210
267 4 2 3 1 141 198 207 229
268 4 2 3 1 190 198 205 229
269 4 2 3 1 110 211 195 220
270 4 2 3 1 98 135 175 199
271 4 2 3 1 110 195 180 220
272 4 2 3 1 70 200 36 213
273 4 2 3 1 99 195 180 211
274 4 2 3 1 42 44 150 196
275 4 2 3 1 54 151 52 197
276 4 2 3 1 71 204 70 213
277 4 2 3 1 51 97 215 230
278 4 2 3 1 59 76 77 209
279 4 2 3 1 146 203 160 226
280 4 2 3 1 64 193 173 230
281 4 2 3 1 79 216 195 217
282 4 2 3 1 67 194 216 217
283 4 2 3 1 110 180 184 220
284 4 2 3 1 177 68 183 194
285 4 2 3 1 184 180 80 195
286 4 2 3 1 77 201 26 209
287 4 2 3 1 113 206 40 226
288 4 2 3 1 100 201 76 212
289 4 2 3 1 70 71 69 204
290 4 2 3 1 190 198 202 228
291 4 2 3 1 130 144 69 204
292 4 2 3 1 191 211 201 223
293 4 2 3 1 114 194 177 221
294 4 2 3 1 31 30 117 227
295 4 2 3 1 171 175 135 213
296 4 2 3 1 148 145 149 201
297 4 2 3 1 51 9 10 230
298 4 2 3 1 76 201 77 209
299 4 2 3 1 38 36 37 218
300 4 2 3 1 113 185 112 220
301 4 2 3 1 89 144 142 200
302 4 2 3 1 126 91 218 219
303 4 2 3 1 190 221 208 227
304 4 2 3 1 142 90 89 200
305 4 2 3 1 78 101 121 195
306 4 2 3 1 131 122 66 194
307 4 2 3 1 198 207 193 210
308 4 2 3 1 201 211 195 212
309 4 2 3 1 174 140 92 198
310 4 2 3 1 36 213 200 218
311 4 2 3 1 117 221 31 227
312 4 2 3 1 140 198 141 229
313 4 2 3 1 76 100 149 201
314 4 2 3 1 89 90 45 200
315 4 2 3 1 51 97 32 215
316 4 2 3 1 144 143 142 208
317 4 2 3 1 8 7 202 219
318 4 2 3 1 86 84 145 201
319 4 2 3 1 55 57 82 210
320 4 2 3 1 70 69 36 200
321 4 2 3 1 191 206 197 220
322 4 2 3 1 190 208 200 219
323 4 2 3 1 62 203 146 206
324 4 2 3 1 45 36 200 218
325 4 2 3 1 137 63 98 199
326 4 2 3 1 79 195 121 217
327 4 2 3 1 67 194 122 216
328 4 2 3 1 201 214 193 225
329 4 2 3 1 121 79 78 195
330 4 2 3 1 67 66 122 194
331 4 2 3 1 38 213 36 218
332 4 2 3 1 64 107 173 193
333 4 2 3 1 86 108 35 210
334 4 2 3 1 194 208 190 221
335 4 2 3 1 190 219 200 228
336 4 2 3 1 13 193 107 214
337 4 2 3 1 90 142 127 219
338 4 2 3 1 45 126 218 219
339 4 2 3 1 33 136 153 218
340 4 2 3 1 203 215 193 225
341 4 2 3 1 152 207 202 229
342 4 2 3 1 191 214 201 225
343 4 2 3 1 190 219 202 222
344 4 2 3 1 55 118 56 207
345 4 2 3 1 113 41 40 206
346 4 2 3 1 183 114 177 221
347 4 2 3 1 26 209 201 210
348 4 2 3 1 196 205 198 209
349 4 2 3 1 179 78 180 195
350 4 2 3 1 176 66 177 194
351 4 2 3 1 29 31 150 205
352 4 2 3 1 136 98 175 199
353 4 2 3 1 145 128 86 214
354 4 2 3 1 77 76 26 201
355 4 2 3 1 96 33 32 215
356 4 2 3 1 126 125 91 219
357 4 2 3 1 153 38 37 218
358 4 2 3 1 30 205 147 224
359 4 2 3 1 114 116 163 221
360 4 2 3 1 64 65 55 230
361 4 2 3 1 143 127 142 208
362 4 2 3 1 13 107 24 214
363 4 2 3 1 19 112 185 211
364 4 2 3 1 98 134 135 206
365 4 2 3 1 173 193 12 230
366 4 2 3 1 190 222 202 224
367 4 2 3 1 30 147 105 224
368 4 2 3 1 138 130 129 208
369 4 2 3 1 86 35 84 210
370 4 2 3 1 205 224 30 227
371 4 2 3 1 159 146 160 226
372 4 2 3 1 45 36 89 200
373 4 2 3 1 198 207 202 228
374 4 2 3 1 146 206 203 226
375 4 2 3 1 191 201 214 223
376 4 2 3 1 152 87 207 229
377 4 2 3 1 182 73 202 224
378 4 2 3 1 141 207 87 229
379 4 2 3 1 158 203 14 223
380 4 2 3 1 190 205 196 221
381 4 2 3 1 200 213 199 218
382 4 2 3 1 162 63 137 215
383 4 2 3 1 163 155 129 208
384 4 2 3 1 92 123 205 229
385 4 2 3 1 148 156 21 211
386 4 2 3 1 82 108 107 193
387 4 2 3 1 154 57 56 210
388 4 2 3 1 49 47 212 217
389 4 2 3 1 64 82 107 193
390 4 2 3 1 137 98 136 199
391 4 2 3 1 180 78 80 195
392 4 2 3 1 177 66 68 194
393 4 2 3 1 134 98 62 206
394 4 2 3 1 62 63 61 203
395 4 2 3 1 56 118 141 207
396 4 2 3 1 30 224 105 227
397 4 2 3 1 68 194 67 217
398 4 2 3 1 80 195 79 216
399 4 2 3 1 193 215 12 230
400 4 2 3 1 27 154 28 210
401 4 2 3 1 102 30 105 227
402 4 2 3 1 99 180 110 211
403 4 2 3 1 147 224 205 229
404 4 2 3 1 140 92 198 229
405 4 2 3 1 192 215 199 225
406 4 2 3 1 45 90 126 219
407 4 2 3 1 94 95 93 204
408 4 2 3 1 71 161 204 213
409 4 2 3 1 182 202 6 224
410 4 2 3 1 16 222 208 227
411 4 2 3 1 167 95 94 204
412 4 2 3 1 201 210 193 214
413 4 2 3 1 158 203 223 226
414 4 2 3 1 60 100 76 212
415 4 2 3 1 61 63 162 203
416 4 2 3 1 190 202 219 228
417 4 2 3 1 144 89 69 200
418 4 2 3 1 80 78 79 195
419 4 2 3 1 68 66 67 194
420 4 2 3 1 13 12 107 193
421 4 2 3 1 71 70 161 213
422 4 2 3 1 59 209 83 212
423 4 2 3 1 191 195 211 220
424 4 2 3 1 199 215 192 218
425 4 2 3 1 84 26 201 210
426 4 2 3 1 36 69 89 200
427 4 2 3 1 173 107 12 193
428 4 2 3 1 9 8 88 207
429 4 2 3 1 202 224 73 229
430 4 2 3 1 191 206 203 225
431 4 2 3 1 202 207 192 228
432 4 2 3 1 8 125 7 219
433 4 2 3 1 127 23 219 222
434 4 2 3 1 92 123 124 205
435 4 2 3 1 163 16 155 208
436 4 2 3 1 100 99 139 211
437 4 2 3 1 60 76 59 212
438 4 2 3 1 181 162 13 203
439 4 2 3 1 193 214 203 225
440 4 2 3 1 160 62 61 203
441 4 2 3 1 108 86 24 214
442 4 2 3 1 29 150 124 205
443 4 2 3 1 7 6 202 219
444 4 2 3 1 196 217 194 221
445 4 2 3 1 83 59 77 209
446 4 2 3 1 113 164 185 226
447 4 2 3 1 28 209 26 210
448 4 2 3 1 139 156 148 211
449 4 2 3 1 109 6 222 224
450 4 2 3 1 149 145 84 201
451 4 2 3 1 16 116 104 227
452 4 2 3 1 147 205 123 229
453 4 2 3 1 206 220 191 226
454 4 2 3 1 19 187 3 223
455 4 2 3 1 21 211 19 223
456 4 2 3 1 152 141 87 229
457 4 2 3 1 130 138 144 208
458 4 2 3 1 6 219 23 222
459 4 2 3 1 76 84 26 201
460 4 2 3 1 113 40 164 226
461 4 2 3 1 45 37 36 218
462 4 2 3 1 33 96 137 215
463 4 2 3 1 197 216 195 220
464 4 2 3 1 64 173 65 230
465 4 2 3 1 34 32 33 218
466 4 2 3 1 203 206 199 225
467 4 2 3 1 133 11 12 230
468 4 2 3 1 203 214 14 223
469 4 2 3 1 182 166 73 224
470 4 2 3 1 5 109 6 222
471 4 2 3 1 158 160 203 226
472 4 2 3 1 112 211 110 220
473 4 2 3 1 15 158 14 223
474 4 2 3 1 9 119 10 230
475 4 2 3 1 14 181 13 203
476 4 2 3 1 51 10 97 230
477 4 2 3 1 99 110 165 211
478 4 2 3 1 112 165 110 211
479 4 2 3 1 192 193 215 225
480 4 2 3 1 13 14 203 214
481 4 2 3 1 119 207 55 230
482 4 2 3 1 87 88 8 207
483 4 2 3 1 193 207 192 230
484 4 2 3 1 9 207 119 230
485 4 2 3 1 27 28 26 210
486 4 2 3 1 126 91 45 218
487 4 2 3 1 127 208 18 222
488 4 2 3 1 93 131 94 204
489 4 2 3 1 69 157 130 204
490 4 2 3 1 65 119 55 230
491 4 2 3 1 74 147 123 229
492 4 2 3 1 35 108 82 210
493 4 2 3 1 199 215 203 225
494 4 2 3 1 133 12 215 230
495 4 2 3 1 205 221 190 227
496 4 2 3 1 158 159 160 226
497 4 2 3 1 202 207 198 229
498 4 2 3 1 155 138 129 208
499 4 2 3 1 173 12 11 230
500 4 2 3 1 166 224 147 229
501 4 2 3 1 182 6 109 224
502 4 2 3 1 67 216 120 217
503 4 2 3 1 79 120 216 217
504 4 2 3 1 70 36 38 213
505 4 2 3 1 130 157 131 204
506 4 2 3 1 71 157 69 204
507 4 2 3 1 149 84 76 201
508 4 2 3 1 12 162 132 215
509 4 2 3 1 208 222 190 227
510 4 2 3 1 106 102 105 227
511 4 2 3 1 34 91 32 218
512 4 2 3 1 193 192 215 230
513 4 2 3 1 187 185 164 226
514 4 2 3 1 181 14 158 203
515 4 2 3 1 182 73 152 202
516 4 2 3 1 166 147 74 229
517 4 2 3 1 18 208 16 222
518 4 2 3 1 161 167 94 204
519 4 2 3 1 96 32 97 215
520 4 2 3 1 182 7 6 202
521 4 2 3 1 18 127 143 208
522 4 2 3 1 84 35 26 210
523 4 2 3 1 49 48 85 212
524 4 2 3 1 174 169 2 209
525 4 2 3 1 168 2 169 209
526 4 2 3 1 52 41 111 220
527 4 2 3 1 88 119 9 207
528 4 2 3 1 73 224 166 229
529 4 2 3 1 116 221 117 227
530 4 2 3 1 101 100 60 212
531 4 2 3 1 17 127 18 222
532 4 2 3 1 29 30 31 205
533 4 2 3 1 111 58 52 220
534 4 2 3 1 20 128 21 223
535 4 2 3 1 19 165 112 211
536 4 2 3 1 190 224 205 227
537 4 2 3 1 73 152 202 229
538 4 2 3 1 47 48 49 212
539 4 2 3 1 106 105 224 227
540 4 2 3 1 62 146 134 206
541 4 2 3 1 7 125 22 219
542 4 2 3 1 41 39 40 206
543 4 2 3 1 77 26 28 209
544 4 2 3 1 111 184 58 220
545 4 2 3 1 158 160 181 203
546 4 2 3 1 113 111 41 220
547 4 2 3 1 30 123 147 205
548 4 2 3 1 90 127 23 219
549 4 2 3 1 133 12 132 215
550 4 2 3 1 153 34 33 218
551 4 2 3 1 158 223 178 226
552 4 2 3 1 140 141 92 229
553 4 2 3 1 83 2 168 209
554 4 2 3 1 118 55 119 207
555 4 2 3 1 106 109 222 224
556 4 2 3 1 152 75 141 229
557 4 2 3 1 106 222 186 227
558 4 2 3 1 7 152 8 202
559 4 2 3 1 16 4 222 227
560 4 2 3 1 85 48 83 212
561 4 2 3 1 7 22 6 219
562 4 2 3 1 137 132 162 215
563 4 2 3 1 182 152 7 202
564 4 2 3 1 21 156 19 211
565 4 2 3 1 174 2 28 209
566 4 2 3 1 16 103 4 227
567 4 2 3 1 171 170 1 213
568 4 2 3 1 106 224 222 227
569 4 2 3 1 101 48 47 212
570 4 2 3 1 188 223 187 226
571 4 2 3 1 181 61 162 203
572 4 2 3 1 1 170 161 213
573 4 2 3 1 161 70 1 213
574 4 2 3 1 30 102 117 227
575 4 2 3 1 2 83 77 209
576 4 2 3 1 106 5 186 222
577 4 2 3 1 5 106 109 222
578 4 2 3 1 154 27 57 210
579 4 2 3 1 15 188 178 223
580 4 2 3 1 171 1 175 213
581 4 2 3 1 31 115 42 221
582 4 2 3 1 42 115 46 221
583 4 2 3 1 81 95 53 216
584 4 2 3 1 49 43 72 217
585 4 2 3 1 178 158 15 223
586 4 2 3 1 112 111 113 220
587 4 2 3 1 191 223 203 226
588 4 2 3 1 120 67 122 216
589 4 2 3 1 79 121 120 217
590 4 2 3 1 192 219 202 228
591 4 2 3 1 128 25 86 214
592 4 2 3 1 39 135 134 206
593 4 2 3 1 159 40 146 226
594 4 2 3 1 143 144 138 208
595 4 2 3 1 182 109 166 224
596 4 2 3 1 46 72 43 217
597 4 2 3 1 58 81 53 216
598 4 2 3 1 92 74 123 229
599 4 2 3 1 94 131 157 204
600 4 2 3 1 46 115 183 221
601 4 2 3 1 110 184 111 220
602 4 2 3 1 27 26 35 210
603 4 2 3 1 104 116 117 227
604 4 2 3 1 6 23 5 222
605 4 2 3 1 191 214 203 223
606 4 2 3 1 71 161 94 204
607 4 2 3 1 25 15 14 223
608 4 2 3 1 175 1 38 213
609 4 2 3 1 87 141 118 207
610 4 2 3 1 6 22 23 219
611 4 2 3 1 40 206 146 226
612 4 2 3 1 17 16 4 222
613 4 2 3 1 57 35 82 210
614 4 2 3 1 178 188 187 226
615 4 2 3 1 155 16 18 208
616 4 2 3 1 117 115 31 221
617 4 2 3 1 20 19 3 223
618 4 2 3 1 1 70 38 213
619 4 2 3 1 181 160 61 203
620 4 2 3 1 106 186 103 227
621 4 2 3 1 203 214 191 225
622 4 2 3 1 16 104 103 227
623 4 2 3 1 156 139 99 211
624 4 2 3 1 48 59 83 212
625 4 2 3 1 29 123 30 205
626 4 2 3 1 112 110 111 220
627 4 2 3 1 126 22 125 219
628 4 2 3 1 141 75 92 229
629 4 2 3 1 77 28 2 209
630 4 2 3 1 178 223 188 226
631 4 2 3 1 46 68 72 217
632 4 2 3 1 81 58 80 216
633 4 2 3 1 93 95 81 216
634 4 2 3 1 49 72 47 217
635 4 2 3 1 45 91 34 218
636 4 2 3 1 203 206 191 226
637 4 2 3 1 187 188 3 223
638 4 2 3 1 25 214 128 223
639 4 2 3 1 13 24 14 214
640 4 2 3 1 17 18 16 222
641 4 2 3 1 25 24 86 214
642 4 2 3 1 20 21 19 223
643 4 2 3 1 37 34 153 218
644 4 2 3 1 73 75 152 229
645 4 2 3 1 101 60 48 212
646 4 2 3 1 105 147 166 224
647 4 2 3 1 133 215 97 230
648 4 2 3 1 29 124 123 205
649 4 2 3 1 156 99 165 211
650 4 2 3 1 116 115 117 221
651 4 2 3 1 25 14 214 223
652 4 2 3 1 115 114 183 221
653 4 2 3 1 74 73 166 229
654 4 2 3 1 22 90 23 219
655 4 2 3 1 155 18 143 208
656 4 2 3 1 126 90 22 219
657 4 2 3 1 132 137 96 215
658 4 2 3 1 158 178 159 226
659 4 2 3 1 45 34 37 218
660 4 2 3 1 115 116 114 221
661 4 2 3 1 134 146 40 206
662 4 2 3 1 19 156 165 211
663 4 2 3 1 72 68 67 217
664 4 2 3 1 81 80 79 216
665 4 2 3 1 39 134 40 206
666 4 2 3 1 35 57 27 210
667 4 2 3 1 11 133 97 230
668 4 2 3 1 106 105 109 224
669 4 2 3 1 122 93 81 216
670 4 2 3 1 47 72 121 217
671 4 2 3 1 187 164 178 226
672 4 2 3 1 157 71 94 204
673 4 2 3 1 102 106 103 227
674 4 2 3 1 48 60 59 212
675 4 2 3 1 120 121 72 217
676 4 2 3 1 120 122 81 216
677 4 2 3 1 159 164 40 226
678 4 2 3 1 25 14 24 214
679 4 2 3 1 67 120 72 217
680 4 2 3 1 81 79 120 216
681 4 2 3 1 143 138 155 208
682 4 2 3 1 11 97 10 230
683 4 2 3 1 118 119 88 207
684 4 2 3 1 133 96 97 215
685 4 2 3 1 173 11 65 230
686 4 2 3 1 23 127 17 222
687 4 2 3 1 25 128 20 223
688 4 2 3 1 166 109 105 224
689 4 2 3 1 4 186 5 222
690 4 2 3 1 3 188 15 223
691 4 2 3 1 222 224 190 227
692 4 2 3 1 87 118 88 207
693 4 2 3 1 23 17 5 222
694 4 2 3 1 25 20 15 223
695 4 2 3 1 10 119 65 230
696 4 2 3 1 92 75 74 229
697 4 2 3 1 133 132 96 215
698 4 2 3 1 74 75 73 229
699 4 2 3 1 10 65 11 230
700 4 2 3 1 104 117 102 227
701 4 2 3 1 159 178 164 226
702 4 2 3 1 103 104 102 227
703 4 2 3 1 17 4 5 222
704 4 2 3 1 15 20 3 223
705 4 2 3 1 213 151 135 171
706 4 2 3 1 213 135 151 197
707 4 2 3 1 218 50 219 91
708 4 2 3 1 218 219 50 192
709 4 2 3 1 205 174 92 198
710 4 2 3 1 205 92 174 124
711 4 2 3 1 218 228 219 192
712 4 2 3 1 219 228 218 200
713 4 2 3 1 210 140 209 198
714 4 2 3 1 210 209 140 154
715 4 2 3 1 174 209 140 198
716 4 2 3 1 174 140 209 154
717 4 2 3 1 80 220 58 184
718 4 2 3 1 58 220 80 216
719 4 2 3 1 221 68 46 217
720 4 2 3 1 221 46 68 183
721 4 2 3 1 228 225 199 189
722 4 2 3 1 228 199 225 192
723 4 2 3 1 214 107 108 193
724 4 2 3 1 214 108 107 24
725 4 2 3 1 225 206 197 191
726 4 2 3 1 225 197 206 199
727 4 2 3 1 207 152 8 87
728 4 2 3 1 207 8 152 202
729 4 2 3 1 227 4 186 103
730 4 2 3 1 227 186 4 222
$EndElements
