$MeshFormat
2.2 0 8
$EndMeshFormat
$PhysicalNames
3
0 1 "bc-top"
0 2 "bc-bot"
3 3 "vol"
$EndPhysicalNames
$Nodes
997
1 -0.0018 -0.0018 -0.0018
2 -0.0018 -0.0018 0
3 -0.0018 -0.0018 0.0018
4 -0.0018 0 -0.0018
5 -0.0018 0 0
6 -0.0018 0 0.0018
7 -0.0018 0.0018 -0.0018
8 -0.0018 0.0018 0
9 -0.0018 0.0018 0.0018
10 0 -0.0018 -0.0018
11 0 -0.0018 0
12 0 -0.0018 0.0018
13 0 0 -0.0018
14 0 0 0
15 0 0 0.0018
16 0 0.0018 -0.0018
17 0 0.0018 0
18 0 0.0018 0.0018
19 0.0018 -0.0018 -0.0018
20 0.0018 -0.0018 0
21 0.0018 -0.0018 0.0018
22 0.0018 0 -0.0018
23 0.0018 0 0
24 0.0018 0 0.0018
25 0.0018 0.0018 -0.0018
26 0.0018 0.0018 0
27 0.0018 0.0018 0.0018
28 -0.002886751345948129 -0.002886751345948129 -0.002886751345948129
29 -0.003535533905932737 -0.003535533905932737 0
30 -0.002886751345948129 -0.002886751345948129 0.002886751345948129
31 -0.003535533905932737 0 -0.003535533905932737
32 -0.005 0 0
33 -0.003535533905932737 0 0.003535533905932737
34 -0.002886751345948129 0.002886751345948129 -0.002886751345948129
35 -0.003535533905932737 0.003535533905932737 0
36 -0.002886751345948129 0.002886751345948129 0.002886751345948129
37 0 -0.003535533905932737 -0.003535533905932737
38 0 -0.005 0
39 0 -0.003535533905932737 0.003535533905932737
40 0 0 -0.005
41 0 0 0.005
42 0 0.003535533905932737 -0.003535533905932737
43 0 0.005 0
44 0 0.003535533905932737 0.003535533905932737
45 0.002886751345948129 -0.002886751345948129 -0.002886751345948129
46 0.003535533905932737 -0.003535533905932737 0
47 0.002886751345948129 -0.002886751345948129 0.002886751345948129
48 0.003535533905932737 0 -0.003535533905932737
49 0.005 0 0
50 0.003535533905932737 0 0.003535533905932737
51 0.002886751345948129 0.002886751345948129 -0.002886751345948129
52 0.003535533905932737 0.003535533905932737 0
53 0.002886751345948129 0.002886751345948129 0.002886751345948129
54 -0.0018 -0.0018 -0.001200000000001385
55 -0.0018 -0.0018 -0.0006000000000014976
56 -0.001200000000001385 -0.0018 0
57 -0.0006000000000014976 -0.0018 0
58 0 -0.0018 -0.0005999999999984991
59 0 -0.0018 -0.001199999999998519
60 -0.0005999999999984991 -0.0018 -0.0018
61 -0.001199999999998519 -0.0018 -0.0018
62 -0.001200000000001385 0 -0.0018
63 -0.0006000000000014976 0 -0.0018
64 0 0 -0.001200000000001385
65 0 0 -0.0006000000000014976
66 -0.0005999999999984991 0 0
67 -0.001199999999998519 0 0
68 -0.0018 0 -0.0005999999999984991
69 -0.0018 0 -0.001199999999998519
70 0 -0.001200000000001385 -0.0018
71 0 -0.0006000000000014976 -0.0018
72 -0.0018 -0.0005999999999984991 -0.0018
73 -0.0018 -0.001199999999998519 -0.0018
74 0 -0.001200000000001385 0
75 0 -0.0006000000000014976 0
76 -0.0018 -0.001200000000001385 0
77 -0.0018 -0.0006000000000014976 0
78 -0.0018 -0.0018 0.0005999999999984991
79 -0.0018 -0.0018 0.001199999999998519
80 -0.001200000000001385 -0.0018 0.0018
81 -0.0006000000000014976 -0.0018 0.0018
82 0 -0.0018 0.001200000000001385
83 0 -0.0018 0.0006000000000014976
84 0 0 0.0005999999999984991
85 0 0 0.001199999999998519
86 -0.0005999999999984991 0 0.0018
87 -0.001199999999998519 0 0.0018
88 -0.0018 0 0.001200000000001385
89 -0.0018 0 0.0006000000000014976
90 0 -0.001200000000001385 0.0018
91 0 -0.0006000000000014976 0.0018
92 -0.0018 -0.001200000000001385 0.0018
93 -0.0018 -0.0006000000000014976 0.0018
94 -0.001200000000001385 0.0018 -0.0018
95 -0.0006000000000014976 0.0018 -0.0018
96 0 0.0018 -0.001200000000001385
97 0 0.0018 -0.0006000000000014976
98 -0.0005999999999984991 0.0018 0
99 -0.001199999999998519 0.0018 0
100 -0.0018 0.0018 -0.0005999999999984991
101 -0.0018 0.0018 -0.001199999999998519
102 0 0.0005999999999984991 -0.0018
103 0 0.001199999999998519 -0.0018
104 -0.0018 0.001200000000001385 -0.0018
105 -0.0018 0.0006000000000014976 -0.0018
106 0 0.0005999999999984991 0
107 0 0.001199999999998519 0
108 -0.0018 0.0005999999999984991 0
109 -0.0018 0.001199999999998519 0
110 0 0.0018 0.0005999999999984991
111 0 0.0018 0.001199999999998519
112 -0.0005999999999984991 0.0018 0.0018
113 -0.001199999999998519 0.0018 0.0018
114 -0.0018 0.0018 0.001200000000001385
115 -0.0018 0.0018 0.0006000000000014976
116 0 0.0005999999999984991 0.0018
117 0 0.001199999999998519 0.0018
118 -0.0018 0.0005999999999984991 0.0018
119 -0.0018 0.001199999999998519 0.0018
120 0.0005999999999984991 -0.0018 0
121 0.001199999999998519 -0.0018 0
122 0.0018 -0.0018 -0.0005999999999984991
123 0.0018 -0.0018 -0.001199999999998519
124 0.001200000000001385 -0.0018 -0.0018
125 0.0006000000000014976 -0.0018 -0.0018
126 0.0005999999999984991 0 -0.0018
127 0.001199999999998519 0 -0.0018
128 0.0018 0 -0.001200000000001385
129 0.0018 0 -0.0006000000000014976
130 0.001200000000001385 0 0
131 0.0006000000000014976 0 0
132 0.0018 -0.001200000000001385 -0.0018
133 0.0018 -0.0006000000000014976 -0.0018
134 0.0018 -0.001200000000001385 0
135 0.0018 -0.0006000000000014976 0
136 0.0005999999999984991 -0.0018 0.0018
137 0.001199999999998519 -0.0018 0.0018
138 0.0018 -0.0018 0.001200000000001385
139 0.0018 -0.0018 0.0006000000000014976
140 0.0018 0 0.0005999999999984991
141 0.0018 0 0.001199999999998519
142 0.001200000000001385 0 0.0018
143 0.0006000000000014976 0 0.0018
144 0.0018 -0.001200000000001385 0.0018
145 0.0018 -0.0006000000000014976 0.0018
146 0.0005999999999984991 0.0018 -0.0018
147 0.001199999999998519 0.0018 -0.0018
148 0.0018 0.0018 -0.001200000000001385
149 0.0018 0.0018 -0.0006000000000014976
150 0.001200000000001385 0.0018 0
151 0.0006000000000014976 0.0018 0
152 0.0018 0.0005999999999984991 -0.0018
153 0.0018 0.001199999999998519 -0.0018
154 0.0018 0.0005999999999984991 0
155 0.0018 0.001199999999998519 0
156 0.0018 0.0018 0.0005999999999984991
157 0.0018 0.0018 0.001199999999998519
158 0.001200000000001385 0.0018 0.0018
159 0.0006000000000014976 0.0018 0.0018
160 0.0018 0.0005999999999984991 0.0018
161 0.0018 0.001199999999998519 0.0018
162 -0.001994513038475073 0.003242060898514473 -0.003242060898514473
163 -0.001018618557530307 0.003461388177758665 -0.003461388177758665
164 0 0.004330127020972021 -0.002499999996449596
165 0 0.004829629132313571 -0.001294095222272327
166 -0.001294095228773301 0.004829629130571641 0
167 -0.002500000003038447 0.004330127017167945 0
168 -0.003461388176988074 0.003461388176988074 -0.001018618562767421
169 -0.00324206089676951 0.00324206089676951 -0.001994513044147911
170 0 0.002378511301975912 -0.002378511301975912
171 0 0.002957022603953492 -0.002957022603953492
172 -0.002524500897299968 0.002524500897299968 -0.002524500897299968
173 -0.002162250448650309 0.002162250448650309 -0.002162250448650309
174 0 0.002866666666663871 0
175 0 0.003933333333330255 0
176 -0.002378511301975912 0.002378511301975912 0
177 -0.002957022603953492 0.002957022603953492 0
178 0 0.004829629130571641 0.001294095228773301
179 0 0.004330127017167945 0.002500000003038447
180 -0.001018618562767421 0.003461388176988074 0.003461388176988074
181 -0.001994513044147911 0.00324206089676951 0.00324206089676951
182 -0.003242060898465351 0.003242060898465351 0.001994513038634766
183 -0.003461388177842105 0.003461388177842105 0.001018618556963224
184 0 0.002378511301975912 0.002378511301975912
185 0 0.002957022603953492 0.002957022603953492
186 -0.002162250448648106 0.002162250448648106 0.002162250448648106
187 -0.002524500897297793 0.002524500897297793 0.002524500897297793
188 0.001018618562767421 0.003461388176988074 -0.003461388176988074
189 0.001994513044147911 0.00324206089676951 -0.00324206089676951
190 0.003242060898465351 0.003242060898465351 -0.001994513038634766
191 0.003461388177842105 0.003461388177842105 -0.001018618556963224
192 0.002499999996449596 0.004330127020972021 0
193 0.001294095222272327 0.004829629132313571 0
194 0.002162250448648106 0.002162250448648106 -0.002162250448648106
195 0.002524500897297793 0.002524500897297793 -0.002524500897297793
196 0.002378511301975912 0.002378511301975912 0
197 0.002957022603953492 0.002957022603953492 0
198 0.003461388176988074 0.003461388176988074 0.001018618562767421
199 0.00324206089676951 0.00324206089676951 0.001994513044147911
200 0.001994513038475073 0.003242060898514473 0.003242060898514473
201 0.001018618557530307 0.003461388177758665 0.003461388177758665
202 0.002162250448648106 0.002162250448648106 0.002162250448648106
203 0.002524500897297793 0.002524500897297793 0.002524500897297793
204 -0.003242060898465351 -0.003242060898465351 -0.001994513038634766
205 -0.003461388177842105 -0.003461388177842105 -0.001018618556963224
206 -0.002499999996449596 -0.004330127020972021 0
207 -0.001294095222272327 -0.004829629132313571 0
208 0 -0.004829629130571641 -0.001294095228773301
209 0 -0.004330127017167945 -0.002500000003038447
210 -0.001018618562767421 -0.003461388176988074 -0.003461388176988074
211 -0.001994513044147911 -0.00324206089676951 -0.00324206089676951
212 0 -0.002957022603956203 -0.002957022603956203
213 0 -0.002378511301978907 -0.002378511301978907
214 -0.002162250448648106 -0.002162250448648106 -0.002162250448648106
215 -0.002524500897297793 -0.002524500897297793 -0.002524500897297793
216 0 -0.003933333333336326 0
217 0 -0.002866666666669631 0
218 -0.002957022603956203 -0.002957022603956203 0
219 -0.002378511301978907 -0.002378511301978907 0
220 -0.003461388176988074 -0.003461388176988074 0.001018618562767421
221 -0.00324206089676951 -0.00324206089676951 0.001994513044147911
222 -0.001994513038475073 -0.003242060898514473 0.003242060898514473
223 -0.001018618557530307 -0.003461388177758665 0.003461388177758665
224 0 -0.004330127020972021 0.002499999996449596
225 0 -0.004829629132313571 0.001294095222272327
226 0 -0.002957022603956203 0.002957022603956203
227 0 -0.002378511301978907 0.002378511301978907
228 -0.002524500897299968 -0.002524500897299968 0.002524500897299968
229 -0.002162250448650309 -0.002162250448650309 0.002162250448650309
230 0.001294095228773301 -0.004829629130571641 0
231 0.002500000003038447 -0.004330127017167945 0
232 0.003461388176988074 -0.003461388176988074 -0.001018618562767421
233 0.00324206089676951 -0.00324206089676951 -0.001994513044147911
234 0.001994513038475073 -0.003242060898514473 -0.003242060898514473
235 0.001018618557530307 -0.003461388177758665 -0.003461388177758665
236 0.002524500897299968 -0.002524500897299968 -0.002524500897299968
237 0.002162250448650309 -0.002162250448650309 -0.002162250448650309
238 0.002957022603956203 -0.002957022603956203 0
239 0.002378511301978907 -0.002378511301978907 0
240 0.001018618562767421 -0.003461388176988074 0.003461388176988074
241 0.001994513044147911 -0.00324206089676951 0.00324206089676951
242 0.003242060898465351 -0.003242060898465351 0.001994513038634766
243 0.003461388177842105 -0.003461388177842105 0.001018618556963224
244 0.002524500897299968 -0.002524500897299968 0.002524500897299968
245 0.002162250448650309 -0.002162250448650309 0.002162250448650309
246 0 -0.002499999996449596 0.004330127020972021
247 0 -0.001294095222272327 0.004829629132313571
248 -0.001294095228773301 0 0.004829629130571641
249 -0.002500000003038447 0 0.004330127017167945
250 -0.003461388176988074 -0.001018618562767421 0.003461388176988074
251 -0.00324206089676951 -0.001994513044147911 0.00324206089676951
252 0 0 0.002866666666663871
253 0 0 0.003933333333330255
254 -0.002378511301975912 0 0.002378511301975912
255 -0.002957022603953492 0 0.002957022603953492
256 0 0.001294095228773301 0.004829629130571641
257 0 0.002500000003038447 0.004330127017167945
258 -0.003242060898514473 0.001994513038475073 0.003242060898514473
259 -0.003461388177758665 0.001018618557530307 0.003461388177758665
260 0.003242060898514473 -0.001994513038475073 0.003242060898514473
261 0.003461388177758665 -0.001018618557530307 0.003461388177758665
262 0.002499999996449596 0 0.004330127020972021
263 0.001294095222272327 0 0.004829629132313571
264 0.002378511301975912 0 0.002378511301975912
265 0.002957022603953492 0 0.002957022603953492
266 0.003461388176988074 0.001018618562767421 0.003461388176988074
267 0.00324206089676951 0.001994513044147911 0.00324206089676951
268 -0.003242060898514473 -0.001994513038475073 -0.003242060898514473
269 -0.003461388177758665 -0.001018618557530307 -0.003461388177758665
270 -0.002499999996449596 0 -0.004330127020972021
271 -0.001294095222272327 0 -0.004829629132313571
272 0 -0.001294095228773301 -0.004829629130571641
273 0 -0.002500000003038447 -0.004330127017167945
274 0 0 -0.003933333333336326
275 0 0 -0.002866666666669631
276 -0.002957022603956203 0 -0.002957022603956203
277 -0.002378511301978907 0 -0.002378511301978907
278 -0.003461388176988074 0.001018618562767421 -0.003461388176988074
279 -0.00324206089676951 0.001994513044147911 -0.00324206089676951
280 0 0.002499999996449596 -0.004330127020972021
281 0 0.001294095222272327 -0.004829629132313571
282 0.001294095228773301 0 -0.004829629130571641
283 0.002500000003038447 0 -0.004330127017167945
284 0.003461388176988074 -0.001018618562767421 -0.003461388176988074
285 0.00324206089676951 -0.001994513044147911 -0.00324206089676951
286 0.002957022603956203 0 -0.002957022603956203
287 0.002378511301978907 0 -0.002378511301978907
288 0.003242060898514473 0.001994513038475073 -0.003242060898514473
289 0.003461388177758665 0.001018618557530307 -0.003461388177758665
290 0.004330127020972021 0 -0.002499999996449596
291 0.004829629132313571 0 -0.001294095222272327
292 0.004829629130571641 -0.001294095228773301 0
293 0.004330127017167945 -0.002500000003038447 0
294 0.002866666666663871 0 0
295 0.003933333333330255 0 0
296 0.004829629130571641 0 0.001294095228773301
297 0.004330127017167945 0 0.002500000003038447
298 0.004330127020972021 0.002499999996449596 0
299 0.004829629132313571 0.001294095222272327 0
300 -0.004330127020972021 -0.002499999996449596 0
301 -0.004829629132313571 -0.001294095222272327 0
302 -0.004829629130571641 0 -0.001294095228773301
303 -0.004330127017167945 0 -0.002500000003038447
304 -0.003933333333336326 0 0
305 -0.002866666666669631 0 0
306 -0.004330127020972021 0 0.002499999996449596
307 -0.004829629132313571 0 0.001294095222272327
308 -0.004829629130571641 0.001294095228773301 0
309 -0.004330127017167945 0.002500000003038447 0
310 -0.001199999999999474 -0.0018 -0.001200000000000429
311 -0.0005999999999994983 -0.0018 -0.001199999999999474
312 -0.001200000000000429 -0.0018 -0.0006000000000004979
313 -0.0006000000000004979 -0.0018 -0.0005999999999994985
314 -0.001200000000000429 0 -0.001199999999999474
315 -0.001199999999999474 0 -0.0005999999999994983
316 -0.0006000000000004979 0 -0.001200000000000429
317 -0.0005999999999994985 0 -0.0006000000000004979
318 -0.0005999999999994987 -0.001200000000000429 -0.0018
319 -0.0006000000000004979 -0.0006000000000004979 -0.0018
320 -0.001199999999999474 -0.001199999999999474 -0.0018
321 -0.00120000000000043 -0.0005999999999994983 -0.0018
322 0 -0.001200000000001385 -0.0005999999999994986
323 0 -0.0006000000000014974 -0.0006000000000004979
324 0 -0.001200000000001385 -0.001199999999999474
325 0 -0.0006000000000014974 -0.00120000000000043
326 -0.001200000000000429 -0.001200000000001385 0
327 -0.001199999999999474 -0.0006000000000014974 0
328 -0.0006000000000004979 -0.001200000000001385 0
329 -0.0005999999999994986 -0.0006000000000014974 0
330 -0.0018 -0.001199999999999474 -0.001200000000000429
331 -0.0018 -0.0005999999999994983 -0.001199999999999474
332 -0.0018 -0.001200000000000429 -0.0006000000000004979
333 -0.0018 -0.0006000000000004979 -0.0005999999999994985
334 -0.001200000000001385 -0.0018 0.0005999999999994986
335 -0.0006000000000014974 -0.0018 0.0006000000000004979
336 -0.001200000000001385 -0.0018 0.001199999999999474
337 -0.0006000000000014974 -0.0018 0.00120000000000043
338 -0.0005999999999984991 0 0.0005999999999994987
339 -0.0005999999999984991 0 0.001199999999999474
340 -0.001199999999998518 0 0.0006000000000004978
341 -0.001199999999998519 0 0.001200000000000429
342 0 -0.001200000000001385 0.001200000000000429
343 0 -0.0006000000000014974 0.001199999999999474
344 0 -0.001200000000001385 0.0006000000000004979
345 0 -0.0006000000000014974 0.0005999999999994986
346 -0.001200000000000429 -0.001200000000001385 0.0018
347 -0.001199999999999474 -0.0006000000000014974 0.0018
348 -0.0006000000000004979 -0.001200000000001385 0.0018
349 -0.0005999999999994986 -0.0006000000000014974 0.0018
350 -0.0018 -0.001200000000001385 0.0005999999999994986
351 -0.0018 -0.0006000000000014974 0.0006000000000004979
352 -0.0018 -0.001200000000001385 0.001199999999999474
353 -0.0018 -0.0006000000000014974 0.00120000000000043
354 -0.001200000000000429 0.0018 -0.001199999999999474
355 -0.001199999999999474 0.0018 -0.0005999999999994983
356 -0.0006000000000004979 0.0018 -0.001200000000000429
357 -0.0005999999999994985 0.0018 -0.0006000000000004979
358 -0.001200000000001385 0.000600000000000498 -0.0018
359 -0.001200000000001385 0.001200000000000429 -0.0018
360 -0.0006000000000014977 0.0005999999999994987 -0.0018
361 -0.0006000000000014974 0.001199999999999474 -0.0018
362 0 0.0005999999999984991 -0.001200000000001385
363 0 0.001199999999998519 -0.001200000000001385
364 0 0.0005999999999984991 -0.0006000000000014974
365 0 0.001199999999998519 -0.0006000000000014974
366 -0.0005999999999984991 0.0005999999999984991 0
367 -0.0005999999999984991 0.001199999999998519 0
368 -0.001199999999998519 0.0005999999999984991 0
369 -0.001199999999998519 0.001199999999998519 0
370 -0.0018 0.0005999999999994987 -0.0005999999999984991
371 -0.0018 0.001199999999999474 -0.0005999999999984991
372 -0.0018 0.0006000000000004978 -0.001199999999998518
373 -0.0018 0.001200000000000429 -0.001199999999998519
374 -0.0005999999999984991 0.0018 0.0005999999999994987
375 -0.0005999999999984991 0.0018 0.001199999999999474
376 -0.001199999999998518 0.0018 0.0006000000000004978
377 -0.001199999999998519 0.0018 0.001200000000000429
378 0 0.0005999999999984991 0.0005999999999984991
379 0 0.001199999999998519 0.0005999999999984991
380 0 0.0005999999999984991 0.001199999999998519
381 0 0.001199999999998519 0.001199999999998519
382 -0.0005999999999984991 0.0005999999999984991 0.0018
383 -0.0005999999999984991 0.001199999999998519 0.0018
384 -0.001199999999998519 0.0005999999999984991 0.0018
385 -0.001199999999998519 0.001199999999998519 0.0018
386 -0.0018 0.0005999999999984991 0.001200000000001385
387 -0.0018 0.001199999999998519 0.001200000000001385
388 -0.0018 0.0005999999999984991 0.0006000000000014974
389 -0.0018 0.001199999999998519 0.0006000000000014974
390 0.0005999999999994987 -0.0018 -0.0005999999999984991
391 0.001199999999999474 -0.0018 -0.0005999999999984991
392 0.0006000000000004978 -0.0018 -0.001199999999998518
393 0.001200000000000429 -0.0018 -0.001199999999998519
394 0.0005999999999994986 0 -0.001200000000001385
395 0.0006000000000004979 0 -0.0006000000000014974
396 0.001199999999999474 0 -0.001200000000001385
397 0.00120000000000043 0 -0.0006000000000014974
398 0.001200000000000429 -0.001200000000001385 -0.0018
399 0.001199999999999474 -0.0006000000000014974 -0.0018
400 0.0006000000000004979 -0.001200000000001385 -0.0018
401 0.0005999999999994986 -0.0006000000000014974 -0.0018
402 0.0018 -0.001200000000001385 -0.0005999999999994986
403 0.0018 -0.0006000000000014974 -0.0006000000000004979
404 0.0018 -0.001200000000001385 -0.001199999999999474
405 0.0018 -0.0006000000000014974 -0.00120000000000043
406 0.0005999999999994986 -0.001200000000001385 0
407 0.0006000000000004979 -0.0006000000000014974 0
408 0.001199999999999474 -0.001200000000001385 0
409 0.00120000000000043 -0.0006000000000014974 0
410 0.0005999999999984991 -0.0018 0.001200000000001385
411 0.001199999999998519 -0.0018 0.001200000000001385
412 0.0005999999999984991 -0.0018 0.0006000000000014974
413 0.001199999999998519 -0.0018 0.0006000000000014974
414 0.001200000000001385 0 0.0005999999999984991
415 0.001200000000001385 0 0.001199999999998519
416 0.0006000000000014974 0 0.0005999999999984991
417 0.0006000000000014974 0 0.001199999999998519
418 0.0018 -0.001200000000001385 0.001200000000000429
419 0.0018 -0.0006000000000014974 0.001199999999999474
420 0.0018 -0.001200000000001385 0.0006000000000004979
421 0.0018 -0.0006000000000014974 0.0005999999999994986
422 0.0005999999999994986 -0.001200000000001385 0.0018
423 0.0006000000000004979 -0.0006000000000014974 0.0018
424 0.001199999999999474 -0.001200000000001385 0.0018
425 0.00120000000000043 -0.0006000000000014974 0.0018
426 0.0005999999999994986 0.0018 -0.001200000000001385
427 0.0006000000000004979 0.0018 -0.0006000000000014974
428 0.001199999999999474 0.0018 -0.001200000000001385
429 0.00120000000000043 0.0018 -0.0006000000000014974
430 0.0005999999999984991 0.0005999999999984991 -0.0018
431 0.0005999999999984991 0.001199999999998519 -0.0018
432 0.001199999999998519 0.0005999999999984991 -0.0018
433 0.001199999999998519 0.001199999999998519 -0.0018
434 0.0018 0.0005999999999984991 -0.001200000000001385
435 0.0018 0.001199999999998519 -0.001200000000001385
436 0.0018 0.0005999999999984991 -0.0006000000000014974
437 0.0018 0.001199999999998519 -0.0006000000000014974
438 0.001200000000001385 0.0005999999999984991 0
439 0.001200000000001385 0.001199999999998519 0
440 0.0006000000000014974 0.0005999999999984991 0
441 0.0006000000000014974 0.001199999999998519 0
442 0.001200000000001385 0.0018 0.0005999999999984991
443 0.001200000000001385 0.0018 0.001199999999998519
444 0.0006000000000014974 0.0018 0.0005999999999984991
445 0.0006000000000014974 0.0018 0.001199999999998519
446 0.0018 0.0005999999999984991 0.0005999999999984991
447 0.0018 0.001199999999998519 0.0005999999999984991
448 0.0018 0.0005999999999984991 0.001199999999998519
449 0.0018 0.001199999999998519 0.001199999999998519
450 0.001200000000001385 0.0005999999999984991 0.0018
451 0.001200000000001385 0.001199999999998519 0.0018
452 0.0006000000000014974 0.0005999999999984991 0.0018
453 0.0006000000000014974 0.001199999999998519 0.0018
454 -0.00227335595526582 0.003829321792329047 -0.002273355957929001
455 -0.002445993749971501 0.004202032000524976 -0.001166208232548722
456 -0.001166208230747771 0.004202032002117518 -0.002445993748094301
457 -0.001260123114674183 0.004671635631904933 -0.001260123112469583
458 -0.001464837679493225 0.002280686966171534 -0.002280686966171534
459 -0.00172967535898465 0.002761373932343229 -0.002761373932343229
460 -0.0007395395191780684 0.002353796059252064 -0.002353796059252064
461 -0.0008790790383544387 0.002907592118505063 -0.002907592118505063
462 0 0.002643375673655018 -0.001633333332149547
463 0 0.003486751347312248 -0.002066666664298943
464 0 0.002809876377435148 -0.0008313650740911132
465 0 0.0038197527548728 -0.001062730148181383
466 -0.0008313650762561057 0.002809876376854505 0
467 -0.001062730152514367 0.003819752753711514 0
468 -0.00163333333434392 0.002643375672386993 0
469 -0.002066666668690555 0.003486751344776198 0
470 -0.0023537960589952 0.0023537960589952 -0.0007395395209217745
471 -0.002907592117991336 0.002907592117991336 -0.0008790790418448489
472 -0.002280686965589879 0.002280686965589879 -0.00146483768138226
473 -0.00276137393117992 0.00276137393117992 -0.001729675362765587
474 -0.001260123116733867 0.004671635630877203 0.001260123114219986
475 -0.001166208234514719 0.004202032000056616 0.002445993749838754
476 -0.002445993752456962 0.004202031999829868 0.001166208229840326
477 -0.002273355959936613 0.003829321791329889 0.002273355954941224
478 0 0.002809876376854505 0.0008313650762561057
479 0 0.003819752753711514 0.001062730152514367
480 0 0.002643375672386993 0.00163333333434392
481 0 0.003486751344776198 0.002066666668690555
482 -0.0007395395209209901 0.002353796058994341 0.002353796058994341
483 -0.0008790790418440747 0.002907592117990487 0.002907592117990487
484 -0.001464837681380729 0.002280686965588288 0.002280686965588288
485 -0.001729675362764076 0.002761373931178349 0.002761373931178349
486 -0.002280686966153568 0.002280686966153568 0.001464837679544925
487 -0.00276137393230891 0.00276137393230891 0.001729675359089601
488 -0.002353796059279017 0.002353796059279017 0.0007395395189882569
489 -0.00290759211855984 0.00290759211855984 0.0008790790379756095
490 0.001166208233015899 0.004202032002873054 -0.002445993745714939
491 0.001260123112702408 0.004671635633052088 -0.001260123110188527
492 0.00227335595834649 0.003829321793217909 -0.0022733559533511
493 0.002445993748333146 0.004202032002646306 -0.001166208228341505
494 0.0007395395209209901 0.002353796058994341 -0.002353796058994341
495 0.0008790790418440747 0.002907592117990487 -0.002907592117990487
496 0.001464837681380729 0.002280686965588288 -0.002280686965588288
497 0.001729675362764076 0.002761373931178349 -0.002761373931178349
498 0.002280686966153568 0.002280686966153568 -0.001464837679544925
499 0.002761373932308911 0.002761373932308911 -0.001729675359089601
500 0.002353796059279018 0.002353796059279018 -0.0007395395189882569
501 0.002907592118559841 0.002907592118559841 -0.0008790790379756095
502 0.001633333332149547 0.002643375673655018 0
503 0.002066666664298943 0.003486751347312248 0
504 0.0008313650740911132 0.002809876377435148 0
505 0.001062730148181383 0.0038197527548728 0
506 0.00244599374545602 0.004202032002474296 0.001166208234995746
507 0.002273355952788917 0.003829321792329047 0.002273355960405905
508 0.001260123110201313 0.004671635631904934 0.001260123116942454
509 0.001166208228300748 0.004202032000168199 0.002445993752609781
510 0.002353796058994341 0.002353796058994341 0.0007395395209209901
511 0.002907592117990487 0.002907592117990487 0.0008790790418440747
512 0.002280686965588288 0.002280686965588288 0.001464837681380729
513 0.002761373931178349 0.002761373931178349 0.001729675362764076
514 0.001464837679491693 0.002280686966169942 0.002280686966169942
515 0.001729675358983139 0.002761373932341658 0.002761373932341658
516 0.0007395395191772844 0.002353796059251205 0.002353796059251205
517 0.0008790790383536646 0.002907592118504214 0.002907592118504214
518 -0.0022733559579031 -0.003829321792273899 -0.002273355955384614
519 -0.001166208232541798 -0.004202032000490177 -0.002445993750034587
520 -0.002445993748137315 -0.004202032002212747 -0.001166208230314427
521 -0.001260123112481702 -0.004671635631964647 -0.001260123114440691
522 -0.0008790790418441241 -0.00290759211799242 -0.00290759211799242
523 -0.0007395395209210451 -0.002353796058996475 -0.002353796058996475
524 -0.001729675362764137 -0.002761373931179375 -0.002761373931179375
525 -0.001464837681380797 -0.002280686965589421 -0.002280686965589421
526 0 -0.003819752753717022 -0.001062730152515473
527 0 -0.002809876376859905 -0.0008313650762573079
528 0 -0.003486751344780567 -0.002066666668692614
529 0 -0.002643375672391451 -0.001633333334346169
530 -0.002066666664301001 -0.003486751347316617 0
531 -0.001633333332151796 -0.002643375673659477 0
532 -0.00106273014818249 -0.003819752754878309 0
533 -0.0008313650740923155 -0.002809876377440548 0
534 -0.002761373932309936 -0.002761373932309936 -0.001729675359089662
535 -0.002280686966154702 -0.002280686966154702 -0.001464837679544992
536 -0.002907592118561772 -0.002907592118561772 -0.000879079037975659
537 -0.002353796059281152 -0.002353796059281152 -0.0007395395189883115
538 -0.002445993745651853 -0.004202032002907855 0.001166208233022823
539 -0.001260123110422018 -0.004671635632992374 0.00126012311269029
540 -0.002273355953232307 -0.003829321793273055 0.002273355958372391
541 -0.00116620822877485 -0.004202032002551077 0.002445993748290132
542 0 -0.003486751347316617 0.002066666664301001
543 0 -0.002643375673659477 0.001633333332151796
544 0 -0.003819752754878309 0.00106273014818249
545 0 -0.002809876377440548 0.0008313650740923155
546 -0.001729675358984712 -0.002761373932344255 0.002761373932344255
547 -0.001464837679493293 -0.002280686966172667 0.002280686966172667
548 -0.0008790790383544888 -0.002907592118506995 0.002907592118506995
549 -0.0007395395191781237 -0.002353796059254198 0.002353796059254198
550 -0.002907592117993269 -0.002907592117993269 0.0008790790418448984
551 -0.002353796058997335 -0.002353796058997335 0.0007395395209218292
552 -0.002761373931180947 -0.002761373931180947 0.001729675362765648
553 -0.002280686965591013 -0.002280686965591013 0.001464837681382328
554 0.001260123114453478 -0.004671635630817491 -0.001260123116721747
555 0.002445993749775668 -0.004202032000091416 -0.001166208234521643
556 0.001166208230273669 -0.004202031999734638 -0.002445993752413949
557 0.00227335595482243 -0.003829321791385036 -0.002273355959962514
558 0.001729675358984712 -0.002761373932344255 -0.002761373932344255
559 0.001464837679493293 -0.002280686966172667 -0.002280686966172667
560 0.0008790790383544888 -0.002907592118506995 -0.002907592118506995
561 0.0007395395191781237 -0.002353796059254198 -0.002353796059254198
562 0.002907592117993269 -0.002907592117993269 -0.0008790790418448984
563 0.002353796058997335 -0.002353796058997335 -0.0007395395209218292
564 0.002761373931180947 -0.002761373931180947 -0.001729675362765648
565 0.002280686965591013 -0.002280686965591013 -0.001464837681382328
566 0.001062730152515473 -0.003819752753717022 0
567 0.0008313650762573079 -0.002809876376859905 0
568 0.002066666668692614 -0.003486751344780567 0
569 0.001633333334346169 -0.002643375672391451 0
570 0.00116620823498882 -0.004202032002439494 0.002445993745519108
571 0.002273355960380003 -0.0038293217922739 0.00227335595290771
572 0.001260123116954573 -0.004671635631964646 0.00126012310996782
573 0.002445993752652794 -0.004202032000263429 0.001166208227867404
574 0.002761373932311507 -0.002761373932311507 0.001729675359091173
575 0.002280686966156294 -0.002280686966156294 0.001464837679546523
576 0.002907592118562621 -0.002907592118562621 0.0008790790379764331
577 0.002353796059282011 -0.002353796059282011 0.0007395395189890957
578 0.0008790790418448984 -0.002907592117993269 0.002907592117993269
579 0.0007395395209218292 -0.002353796058997335 0.002353796058997335
580 0.001729675362765648 -0.002761373931180947 0.002761373931180947
581 0.001464837681382328 -0.002280686965591013 0.002280686965591013
582 -0.00227335595526582 -0.002273355957929001 0.003829321792329047
583 -0.002445993749971501 -0.001166208232548722 0.004202032000524976
584 -0.001166208230747771 -0.002445993748094301 0.004202032002117517
585 -0.001260123114674183 -0.001260123112469583 0.004671635631904933
586 0 -0.00163333333215165 0.002643375673657244
587 0 -0.002066666664300848 0.003486751347314264
588 0 -0.0008313650740921976 0.002809876377436384
589 0 -0.001062730148182366 0.003819752754873919
590 -0.0008313650762561057 0 0.002809876376854505
591 -0.001062730152514367 0 0.003819752753711514
592 -0.00163333333434392 0 0.002643375672386993
593 -0.002066666668690555 0 0.003486751344776198
594 -0.002280686965589879 -0.00146483768138417 0.002280686965589879
595 -0.00276137393117992 -0.001729675362766542 0.00276137393117992
596 -0.002353796058995201 -0.0007395395209237733 0.002353796058995201
597 -0.002907592117991335 -0.000879079041845848 0.002907592117991334
598 -0.001260123116721747 0.001260123114453478 0.004671635630817491
599 -0.001166208234521643 0.002445993749775668 0.004202032000091416
600 -0.002445993752413949 0.001166208230273669 0.004202031999734638
601 -0.002273355959962515 0.002273355954822431 0.003829321791385036
602 0 0.0008313650762561057 0.002809876376854505
603 0 0.001062730152514367 0.003819752753711514
604 0 0.00163333333434392 0.002643375672386993
605 0 0.002066666668690555 0.003486751344776198
606 -0.002353796059251205 0.0007395395191752854 0.002353796059251205
607 -0.002907592118504214 0.0008790790383526652 0.002907592118504214
608 -0.002280686966169942 0.001464837679489783 0.002280686966169942
609 -0.002761373932341658 0.001729675358982184 0.002761373932341658
610 0.001166208233022823 -0.002445993745651853 0.004202032002907855
611 0.00126012311269029 -0.001260123110422019 0.004671635632992375
612 0.002273355958372391 -0.002273355953232307 0.003829321793273055
613 0.002445993748290132 -0.00116620822877485 0.004202032002551077
614 0.002280686966171534 -0.001464837679493225 0.002280686966171534
615 0.002761373932343229 -0.00172967535898465 0.002761373932343229
616 0.002353796059252064 -0.0007395395191780684 0.002353796059252064
617 0.002907592118505063 -0.0008790790383544387 0.002907592118505063
618 0.001633333332149547 0 0.002643375673655018
619 0.002066666664298943 0 0.003486751347312248
620 0.0008313650740911132 0 0.002809876377435148
621 0.001062730148181383 0 0.0038197527548728
622 0.00244599374545602 0.001166208234995746 0.004202032002474296
623 0.002273355952788917 0.002273355960405905 0.003829321792329047
624 0.001260123110201313 0.001260123116942454 0.004671635631904934
625 0.001166208228300748 0.002445993752609781 0.004202032000168199
626 0.002353796058994341 0.0007395395209209901 0.002353796058994341
627 0.002907592117990487 0.0008790790418440747 0.002907592117990487
628 0.002280686965588288 0.001464837681380729 0.002280686965588288
629 0.002761373931178349 0.001729675362764076 0.002761373931178349
630 -0.002273355957929001 -0.00227335595526582 -0.003829321792329047
631 -0.001166208232548722 -0.002445993749971501 -0.004202032000524976
632 -0.002445993748094301 -0.001166208230747771 -0.004202032002117517
633 -0.001260123112469583 -0.001260123114674183 -0.004671635631904933
634 -0 -0.001062730152516473 -0.003819752753717022
635 -0 -0.0008313650762593067 -0.002809876376859905
636 -0 -0.002066666668693569 -0.003486751344780567
637 -0 -0.00163333333434808 -0.002643375672391451
638 -0.002066666664301001 0 -0.003486751347316617
639 -0.001633333332151796 0 -0.002643375673659477
640 -0.00106273014818249 0 -0.003819752754878309
641 -0.0008313650740923155 0 -0.002809876377440548
642 -0.002761373932342685 -0.001729675358982245 -0.002761373932342685
643 -0.002280686966171077 -0.001464837679489851 -0.002280686966171077
644 -0.002907592118506147 -0.0008790790383527149 -0.002907592118506147
645 -0.002353796059253339 -0.0007395395191753405 -0.002353796059253339
646 -0.002445993745651853 0.001166208233022823 -0.004202032002907855
647 -0.001260123110422019 0.00126012311269029 -0.004671635632992375
648 -0.002273355953232307 0.002273355958372391 -0.003829321793273055
649 -0.00116620822877485 0.002445993748290132 -0.004202032002551077
650 0 0.002066666664298141 -0.003486751347314603
651 0 0.001633333332147782 -0.002643375673657251
652 0 0.001062730148180508 -0.003819752754877189
653 0 0.000831365074089232 -0.002809876377439311
654 -0.002907592117993269 0.0008790790418458981 -0.002907592117993269
655 -0.002353796058997336 0.000739539520923828 -0.002353796058997336
656 -0.002761373931180947 0.001729675362766603 -0.002761373931180947
657 -0.002280686965591013 0.001464837681384238 -0.002280686965591013
658 0.001260123114453478 -0.001260123116721747 -0.004671635630817491
659 0.002445993749775668 -0.001166208234521643 -0.004202032000091416
660 0.001166208230273669 -0.002445993752413949 -0.004202031999734638
661 0.002273355954822431 -0.002273355959962515 -0.003829321791385036
662 0.002907592117993269 -0.0008790790418458981 -0.002907592117993269
663 0.002353796058997336 -0.000739539520923828 -0.002353796058997336
664 0.002761373931180947 -0.001729675362766603 -0.002761373931180947
665 0.002280686965591013 -0.001464837681384238 -0.002280686965591013
666 0.001062730152515473 0 -0.003819752753717022
667 0.0008313650762573079 0 -0.002809876376859905
668 0.002066666668692614 0 -0.003486751344780567
669 0.001633333334346169 0 -0.002643375672391451
670 0.001166208234995746 0.00244599374545602 -0.004202032002474296
671 0.002273355960405905 0.002273355952788917 -0.003829321792329047
672 0.001260123116942454 0.001260123110201313 -0.004671635631904934
673 0.002445993752609781 0.001166208228300748 -0.004202032000168199
674 0.002761373932342685 0.001729675358982245 -0.002761373932342685
675 0.002280686966171077 0.001464837679489851 -0.002280686966171077
676 0.002907592118506147 0.0008790790383527149 -0.002907592118506147
677 0.002353796059253339 0.0007395395191753405 -0.002353796059253339
678 0.004202032001238054 -0.00116620823474978 -0.002445993747697062
679 0.004671635631353473 -0.001260123116830529 -0.001260123112357659
680 0.003829321790370032 -0.002273355959485779 -0.002273355957008876
681 0.004202031999288735 -0.002445993752212542 -0.001166208232302758
682 0.002643375673657244 0 -0.00163333333215165
683 0.003486751347314264 0 -0.002066666664300848
684 0.002809876377436384 0 -0.0008313650740921976
685 0.003819752754873919 0 -0.001062730148182366
686 0.002643375672389219 -0.001633333334347934 0
687 0.003486751344778214 -0.002066666668693416 0
688 0.00280987637685574 -0.0008313650762591892 0
689 0.003819752753712633 -0.001062730152516349 0
690 0.004671635631428664 -0.001260123114577521 0.001260123114331909
691 0.004202032000936079 -0.00116620823051271 0.002445993750235994
692 0.004202032001066109 -0.002445993750215922 0.00116620823008629
693 0.003829321793288903 -0.002273355955716653 0.002273355955861349
694 0.002809876376854505 0 0.0008313650762561057
695 0.003819752753711514 0 0.001062730152514367
696 0.002643375672386993 0 0.00163333333434392
697 0.003486751344776198 0 0.002066666668690555
698 0.003829321795176924 0.00227335595412653 -0.002273355954271226
699 0.004202032003882547 0.002445993746092106 -0.00116620822858747
700 0.004202032003752516 0.001166208229013889 -0.002445993746112179
701 0.004671635633603548 0.001260123110546063 -0.00126012311030045
702 0.002809876377435148 0.0008313650740891141 0
703 0.003819752754872801 0.001062730148180384 0
704 0.002643375673655018 0.001633333332147636 0
705 0.003486751347312248 0.002066666664297988 0
706 0.004202032001238054 0.002445993747697061 0.001166208234749781
707 0.003829321790370032 0.002273355957008876 0.00227335595948578
708 0.004671635631353473 0.001260123112357659 0.001260123116830529
709 0.004202031999288736 0.001166208232302758 0.002445993752212542
710 -0.003829321794232914 -0.002273355953683141 -0.00227335595630474
711 -0.004202032001369639 -0.001166208228539789 -0.002445993750431827
712 -0.004202032003448988 -0.002445993745896275 -0.001166208230560392
713 -0.004671635632516108 -0.001260123110325356 -0.001260123114552615
714 -0.003819752753717022 0 -0.001062730152515473
715 -0.002809876376859905 0 -0.0008313650762573079
716 -0.003486751344780567 0 -0.002066666668692614
717 -0.002643375672391451 0 -0.001633333334346169
718 -0.003486751347316617 -0.002066666664301001 0
719 -0.002643375673659477 -0.001633333332151796 0
720 -0.003819752754878309 -0.00106273014818249 0
721 -0.002809876377440548 -0.0008313650740923155 0
722 -0.004202032001671615 -0.002445993747892893 0.001166208232776858
723 -0.004671635632440913 -0.001260123112578365 0.001260123112578365
724 -0.003829321791314041 -0.002273355957452266 0.002273355957452266
725 -0.004202032001671613 -0.001166208232776859 0.002445993747892893
726 -0.0034867513473146 0 0.002066666664299096
727 -0.002643375673657251 0 0.001633333332149693
728 -0.003819752754877189 0 0.001062730148181508
729 -0.002809876377439312 0 0.0008313650740912308
730 -0.004671635630266029 0.001260123116609823 -0.001260123116609823
731 -0.004202031998855175 0.002445993752016709 -0.001166208234275679
732 -0.004202031998855175 0.001166208234275679 -0.002445993752016709
733 -0.003829321789426022 0.002273355959042391 -0.002273355959042388
734 -0.003819752753715902 0.001062730152514491 0
735 -0.002809876376858668 0.0008313650762562233 0
736 -0.003486751344778551 0.00206666666869071 0
737 -0.002643375672389224 0.001633333334344066 0
738 -0.004202032003318958 0.001166208230986812 0.002445993745916347
739 -0.003829321794232914 0.002273355956160044 0.002273355953827836
740 -0.004671635632516107 0.001260123114798227 0.001260123110079745
741 -0.004202032001499669 0.002445993750411754 0.001166208228113369
742 -0.001199999999999792 -0.001200000000000111 -0.00120000000000011
743 -0.001200000000000111 -0.0006000000000001642 -0.001199999999999793
744 -0.0005999999999998314 -0.001200000000000747 -0.001199999999999792
745 -0.0006000000000001647 -0.000600000000000831 -0.001200000000000111
746 -0.00120000000000011 -0.001200000000000747 -0.0006000000000001643
747 -0.001199999999999793 -0.0006000000000008307 -0.0005999999999998314
748 -0.0006000000000001647 -0.001200000000001065 -0.0005999999999998314
749 -0.0005999999999998314 -0.0006000000000011639 -0.0006000000000001649
750 -0.001200000000000429 -0.001200000000001384 0.0005999999999998315
751 -0.001199999999999474 -0.0006000000000014971 0.0006000000000001645
752 -0.0006000000000004978 -0.001200000000001384 0.0006000000000001644
753 -0.0005999999999994984 -0.0006000000000014972 0.0005999999999998318
754 -0.001200000000000429 -0.001200000000001384 0.001199999999999792
755 -0.001199999999999474 -0.000600000000001497 0.001200000000000111
756 -0.0006000000000004977 -0.001200000000001384 0.001200000000000111
757 -0.0005999999999994985 -0.0006000000000014972 0.001199999999999793
758 -0.001200000000000429 0.0005999999999998314 -0.001199999999999474
759 -0.00120000000000043 0.001199999999999792 -0.001199999999999474
760 -0.001199999999999474 0.0005999999999991652 -0.000599999999999498
761 -0.001199999999999474 0.001199999999999155 -0.000599999999999498
762 -0.0006000000000004977 0.0005999999999991651 -0.001200000000000428
763 -0.0006000000000004977 0.001199999999999155 -0.001200000000000429
764 -0.0005999999999994984 0.0005999999999988322 -0.0006000000000004977
765 -0.0005999999999994985 0.001199999999998837 -0.0006000000000004977
766 -0.0005999999999984991 0.0005999999999984989 0.0005999999999994983
767 -0.0005999999999984989 0.001199999999998518 0.0005999999999994985
768 -0.0005999999999984991 0.0005999999999984989 0.001199999999999474
769 -0.0005999999999984989 0.001199999999998518 0.001199999999999474
770 -0.001199999999998518 0.0005999999999984989 0.0006000000000004975
771 -0.001199999999998518 0.001199999999998518 0.0006000000000004975
772 -0.001199999999998519 0.0005999999999984989 0.001200000000000429
773 -0.001199999999998519 0.001199999999998518 0.001200000000000429
774 0.0005999999999998318 -0.001200000000001384 -0.0005999999999994986
775 0.0006000000000001649 -0.0006000000000014976 -0.0006000000000004978
776 0.001199999999999792 -0.001200000000001384 -0.0005999999999994986
777 0.001200000000000111 -0.0006000000000014971 -0.0006000000000004979
778 0.0006000000000001649 -0.001200000000001384 -0.001199999999999473
779 0.0005999999999998316 -0.0006000000000014974 -0.001200000000000429
780 0.00120000000000011 -0.001200000000001385 -0.001199999999999474
781 0.001199999999999792 -0.0006000000000014972 -0.001200000000000429
782 0.0005999999999994985 -0.001200000000001384 0.001200000000000429
783 0.0006000000000004979 -0.000600000000001497 0.001199999999999474
784 0.001199999999999474 -0.001200000000001384 0.001200000000000429
785 0.001200000000000429 -0.0006000000000014972 0.001199999999999474
786 0.0005999999999994984 -0.001200000000001384 0.0006000000000004978
787 0.0006000000000004979 -0.0006000000000014972 0.0005999999999994984
788 0.001199999999999473 -0.001200000000001384 0.0006000000000004977
789 0.001200000000000429 -0.0006000000000014972 0.0005999999999994985
790 0.0005999999999994982 0.0005999999999984989 -0.001200000000001385
791 0.0005999999999994983 0.001199999999998518 -0.001200000000001385
792 0.0006000000000004977 0.0005999999999984989 -0.0006000000000014971
793 0.0006000000000004977 0.001199999999998518 -0.0006000000000014976
794 0.001199999999999473 0.0005999999999984989 -0.001200000000001385
795 0.001199999999999474 0.001199999999998518 -0.001200000000001385
796 0.00120000000000043 0.0005999999999984989 -0.0006000000000014971
797 0.00120000000000043 0.001199999999998518 -0.0006000000000014976
798 0.001200000000001385 0.0005999999999984987 0.0005999999999984991
799 0.001200000000001385 0.001199999999998518 0.0005999999999984989
800 0.001200000000001385 0.0005999999999984989 0.001199999999998519
801 0.001200000000001385 0.001199999999998518 0.001199999999998518
802 0.0006000000000014971 0.0005999999999984988 0.0005999999999984991
803 0.0006000000000014971 0.001199999999998518 0.0005999999999984989
804 0.0006000000000014971 0.0005999999999984989 0.001199999999998518
805 0.0006000000000014976 0.001199999999998518 0.001199999999998519
806 -0.001557785318422187 0.002476440597442134 -0.001557785319309276
807 -0.001915570636844123 0.003152881194885255 -0.001915570638619259
808 -0.00161533124998949 0.002600677333506647 -0.0007887360775158699
809 -0.002030662499980237 0.003401354667014972 -0.0009774721550323481
810 -0.0007887360769162195 0.002600677334037493 -0.001615331249364394
811 -0.0009774721538320474 0.003401354668076664 -0.002030662498729089
812 -0.0008200410382240351 0.002757211877299325 -0.0008200410374898348
813 -0.001040082076448965 0.003714423754600865 -0.001040082074979565
814 -0.0008200410389096272 0.002757211876956421 0.0008200410380723332
815 -0.001040082077821455 0.003714423753915389 0.001040082076145867
816 -0.0007887360781699726 0.002600677333349913 0.001615331249944648
817 -0.0009774721563421236 0.003401354666702126 0.002030662499891154
818 -0.001615331250816746 0.00260067733327433 0.0007887360766131742
819 -0.002030662501636307 0.003401354666550962 0.0009774721532265274
820 -0.001557785319976741 0.002476440597107937 0.001557785318312885
821 -0.00191557063995626 0.003152881194218021 0.001915570636626636
822 0.0007887360776710306 0.002600677334288718 -0.001615331248571313
823 0.0009774721553432438 0.003401354668579755 -0.002030662497142582
824 0.0008200410375671381 0.002757211877681376 -0.0008200410367298438
825 0.001040082075134483 0.003714423755365312 -0.001040082073458896
826 0.001557785319447333 0.002476440597737271 -0.001557785317783477
827 0.001915570638896498 0.003152881195476703 -0.001915570635566874
828 0.001615331249443412 0.002600677334213135 -0.0007887360761142316
829 0.002030662498887735 0.003401354668428586 -0.0009774721522276479
830 0.001615331248485013 0.002600677334155808 0.0007887360783303159
831 0.002030662496969968 0.003401354668313913 0.0009774721566628071
832 0.001557785317596089 0.002476440597440992 0.001557785320133174
833 0.001915570635192084 0.003152881194884124 0.00191557064026912
834 0.0008200410367341089 0.002757211877299001 0.0008200410389791577
835 0.001040082073467419 0.003714423754600542 0.001040082077960512
836 0.0007887360761006485 0.00260067733338711 0.001615331250867688
837 0.0009774721522004754 0.003401354666776512 0.002030662501738187
838 -0.001915570638601738 -0.003152881194849807 -0.001915570636923067
839 -0.001557785319300456 -0.002476440597425171 -0.001557785318461598
840 -0.0009774721550276329 -0.003401354666994743 -0.002030662500023216
841 -0.0007887360775134972 -0.00260067733349812 -0.001615331250011574
842 -0.002030662498758686 -0.003401354668143122 -0.0009774721535430525
843 -0.001615331249379786 -0.002600677334072312 -0.0007887360767717066
844 -0.001040082074988157 -0.003714423754645138 -0.001040082076293817
845 -0.0008200410374944551 -0.002757211877323699 -0.0008200410381467857
846 -0.002030662497102626 -0.003401354668607151 0.0009774721553488777
847 -0.001615331248552532 -0.00260067733430463 0.0007887360776744034
848 -0.001040082073615672 -0.003714423755330636 0.001040082075127519
849 -0.000820041036808865 -0.002757211877666607 0.0008200410375642885
850 -0.00191557063548961 -0.003152881195517056 0.001915570638915697
851 -0.001557785317745903 -0.002476440597759371 0.00155778531945799
852 -0.000977472152517562 -0.003401354668369301 0.00203066249886116
853 -0.0007887360762597449 -0.002600677334185704 0.00161533124943132
854 0.001040082076302641 -0.003714423753880693 -0.001040082077814486
855 0.0008200410381513513 -0.002757211876941643 -0.000820041038906774
856 0.002030662499851189 -0.003401354666729507 -0.0009774721563477527
857 0.001615331249925862 -0.002600677333365814 -0.0007887360781733425
858 0.0009774721535164375 -0.003401354666491657 -0.002030662501609724
859 0.0007887360767586843 -0.002600677333246887 -0.001615331250804651
860 0.001915570636549365 -0.003152881194258359 -0.001915570639975451
861 0.001557785318275306 -0.002476440597130026 -0.001557785319987393
862 0.000977472156659208 -0.003401354668294907 0.002030662497014126
863 0.0007887360783290704 -0.002600677334148514 0.001615331248508286
864 0.001915570640253782 -0.003152881194850948 0.00191557063527321
865 0.001557785320126558 -0.002476440597426319 0.001557785317637706
866 0.001040082077969707 -0.003714423754645478 0.001040082073312873
867 0.0008200410389843846 -0.002757211877324035 0.0008200410366574663
868 0.002030662501768962 -0.003401354666844196 0.0009774721519125969
869 0.001615331250884269 -0.002600677333423156 0.0007887360759572637
870 -0.001557785318422261 -0.001557785319311372 0.002476440597443016
871 -0.001915570636844191 -0.001915570638620639 0.003152881194886051
872 -0.001615331249989547 -0.0007887360775176255 0.002600677333507162
873 -0.002030662499980288 -0.0009774721550333972 0.003401354667015437
874 -0.0007887360769162723 -0.00161533124936656 0.002600677334039128
875 -0.0009774721538320958 -0.002030662498730793 0.003401354668078147
876 -0.0008200410382240719 -0.0008200410374912883 0.002757211877300263
877 -0.001040082076448998 -0.00104008207498061 0.003714423754601712
878 -0.0008200410389055872 0.0008200410381494974 0.002757211876936518
879 -0.001040082077813375 0.001040082076301196 0.003714423753875581
880 -0.0007887360781722808 0.001615331249922982 0.002600677333361513
881 -0.0009774721563467394 0.002030662499848779 0.003401354666725326
882 -0.001615331250802409 0.0007887360767562894 0.002600677333242587
883 -0.002030662501607632 0.0009774721535147567 0.003401354666487474
884 -0.001557785319985375 0.001557785318272014 0.00247644059712632
885 -0.001915570639973527 0.001915570636546804 0.003152881194254784
886 0.0007887360776739576 -0.001615331248552412 0.002600677334302577
887 0.0009774721553484683 -0.002030662497102504 0.003401354668605056
888 0.0008200410375634405 -0.0008200410368087679 0.002757211877662748
889 0.001040082075126741 -0.001040082073615573 0.003714423755326695
890 0.001557785319457151 -0.00155778531774581 0.002476440597757688
891 0.001915570638914929 -0.001915570635489518 0.003152881195515408
892 0.001615331249429731 -0.0007887360762596688 0.002600677334182532
893 0.002030662498859704 -0.0009774721525174872 0.00340135466836619
894 0.001615331248485013 0.0007887360783303159 0.002600677334155808
895 0.002030662496969968 0.0009774721566628071 0.003401354668313913
896 0.001557785317596089 0.001557785320133174 0.002476440597440992
897 0.001915570635192084 0.00191557064026912 0.003152881194884124
898 0.0008200410367341089 0.0008200410389791577 0.002757211877299001
899 0.001040082073467419 0.001040082077960512 0.003714423754600542
900 0.0007887360761006485 0.001615331250867688 0.00260067733338711
901 0.0009774721522004754 0.002030662501738187 0.003401354666776512
902 -0.001915570638619007 -0.001915570636843551 -0.003152881194886572
903 -0.001557785319309091 -0.001557785318421363 -0.002476440597443553
904 -0.000977472155032249 -0.002030662499981477 -0.003401354667017941
905 -0.0007887360775158058 -0.001615331249991182 -0.00260067733350972
906 -0.00203066249873001 -0.0009774721538316153 -0.003401354668079635
907 -0.001615331249365449 -0.0007887360769154878 -0.002600677334040568
908 -0.001040082074980078 -0.001040082076449812 -0.003714423754605332
909 -0.0008200410374904162 -0.0008200410382252825 -0.002757211877303795
910 -0.002030662497102606 0.0009774721553488432 -0.003401354668606737
911 -0.001615331248552509 0.0007887360776746629 -0.002600677334304173
912 -0.001040082073615657 0.001040082075126491 -0.003714423755329851
913 -0.0008200410368088467 0.0008200410375628532 -0.002757211877665737
914 -0.00191557063548957 0.001915570638915298 -0.003152881195516303
915 -0.001557785317745857 0.001557785319457836 -0.002476440597758537
916 -0.0009774721525175286 0.002030662498859488 -0.003401354668367875
917 -0.000788736076259708 0.001615331249429188 -0.002600677334184128
918 0.001040082076302641 -0.001040082077815485 -0.003714423753880693
919 0.0008200410381513513 -0.0008200410389087727 -0.002757211876941643
920 0.002030662499851189 -0.0009774721563487526 -0.003401354666729507
921 0.001615331249925862 -0.0007887360781753412 -0.002600677333365814
922 0.0009774721535164375 -0.002030662501610679 -0.003401354666491657
923 0.0007887360767586843 -0.001615331250806562 -0.002600677333246887
924 0.001915570636549366 -0.001915570639976406 -0.003152881194258359
925 0.001557785318275306 -0.001557785319989304 -0.002476440597130026
926 0.0009774721566632352 0.002030662496969171 -0.003401354668316074
927 0.0007887360783307784 0.001615331248483256 -0.002600677334157924
928 0.001915570640269922 0.001915570635191254 -0.003152881194885829
929 0.001557785320134045 0.001557785317594304 -0.002476440597442728
930 0.001040082077961312 0.001040082073466538 -0.003714423754604559
931 0.0008200410389800237 0.0008200410367322261 -0.002757211877302933
932 0.002030662501739681 0.0009774721521995688 -0.003401354666779691
933 0.001615331250869317 0.0007887360760987429 -0.002600677333390342
934 0.002600677333096661 -0.001615331250739331 -0.000788736077434342
935 0.003401354666192724 -0.002030662501476317 -0.000977472154868793
936 0.002757211877117317 -0.0008200410389449567 -0.0008200410374533328
937 0.003714423754234881 -0.001040082077887931 -0.001040082074905683
938 0.002476440596790846 -0.001557785319830345 -0.001557785319003436
939 0.003152881193580812 -0.001915570639658542 -0.001915570638006636
940 0.002600677333746434 -0.0007887360782513488 -0.001615331249233535
941 0.003401354667492269 -0.0009774721565008076 -0.002030662498465678
942 0.002476440597762968 -0.001557785318573923 0.001557785318620771
943 0.003152881195525957 -0.00191557063714574 0.00191557063724121
944 0.002600677333644196 -0.0007887360768389549 0.001615331250077712
945 0.003401354667289508 -0.0009774721536760561 0.002030662500156618
946 0.002600677333688658 -0.001615331250073765 0.0007887360766957788
947 0.003401354667377206 -0.002030662500145206 0.000977472153391108
948 0.002757211877141504 -0.0008200410381939339 0.0008200410381099806
949 0.0037144237542842 -0.001040082076385902 0.001040082076220815
950 0.002600677334583458 0.0007887360763364 -0.001615331248705227
951 0.003401354669167488 0.000977472152674937 -0.00203066249740876
952 0.002476440598391118 0.001557785318040095 -0.001557785318090984
953 0.003152881196783463 0.001915570636082911 -0.001915570636181007
954 0.002757211877866076 0.0008200410368470452 -0.0008200410367679234
955 0.003714423755733738 0.001040082073696269 -0.001040082073534206
956 0.002600677334625683 0.001615331248695153 -0.0007887360761966297
957 0.003401354669253159 0.002030662497393088 -0.0009774721523919919
958 0.002757211877115178 0.0008200410374508916 0.0008200410389418481
959 0.003714423754232902 0.001040082074903984 0.001040082077885897
960 0.002600677333743726 0.001615331249230113 0.0007887360782483267
961 0.003401354667489753 0.002030662498463041 0.0009774721564988313
962 0.002600677333093954 0.000788736077432652 0.001615331250735274
963 0.003401354666190207 0.0009774721548674822 0.002030662501473361
964 0.002476440596787985 0.001557785319000829 0.001557785319826464
965 0.003152881193578115 0.001915570638004435 0.001915570639655705
966 -0.003152881196155817 -0.001915570635788432 -0.001915570637536484
967 -0.002476440598078177 -0.001557785317893803 -0.001557785318768306
968 -0.00340135466758105 -0.0009774721523596265 -0.002030662500288042
969 -0.002600677333791274 -0.0007887360761794938 -0.001615331250143987
970 -0.003401354668967284 -0.002030662497264659 -0.0009774721537070289
971 -0.002600677334484392 -0.001615331248632773 -0.0007887360768536952
972 -0.003714423755012781 -0.001040082073550593 -0.001040082076368433
973 -0.00275721187750752 -0.0008200410367756735 -0.000820041038184094
974 -0.003401354667782577 -0.002030662498596631 0.000977472155184533
975 -0.002600677333892094 -0.001615331249299523 0.0007887360775920087
976 -0.003714423754962208 -0.00104008207505322 0.001040082075052207
977 -0.002757211877481918 -0.0008200410375276284 0.0008200410375262114
978 -0.003152881194210292 -0.001915570638302876 0.001915570638301563
979 -0.002476440597105532 -0.001557785319152511 0.00155778531915049
980 -0.003401354667781562 -0.0009774721551855348 0.002030662498594979
981 -0.002600677333890973 -0.0007887360775937114 0.001615331249297415
982 -0.003714423753512266 0.001040082077739508 -0.001040082077739854
983 -0.002757211876756952 0.0008200410388693638 -0.0008200410388694482
984 -0.003401354665903918 0.002030662501343865 -0.000977472156183744
985 -0.002600677332952157 0.00161533125067138 -0.0007887360780913181
986 -0.003401354665904932 0.0009774721561840753 -0.002030662501344877
987 -0.002600677332953278 0.0007887360780922807 -0.001615331250672216
988 -0.003152881192951594 0.001915570639361956 -0.001915570639361994
989 -0.002476440596476189 0.001557785319681167 -0.001557785319680639
990 -0.003401354668878766 0.0009774721539902442 0.002030662497276991
991 -0.00260067733443902 0.0007887360769940608 0.001615331248638588
992 -0.00315288119615432 0.001915570637438632 0.00191557063588478
993 -0.002476440598076515 0.001557785318717967 0.001557785317942474
994 -0.003714423755011218 0.001040082076531131 0.001040082073386476
995 -0.002757211877505785 0.0008200410382645123 0.0008200410366936838
996 -0.003401354667665908 0.002030662500272975 0.0009774721520756148
997 -0.00260067733383259 0.001615331250135145 0.0007887360760382447
$EndNodes
$Elements
866
1 15 2 2 39 38
2 15 2 1 44 43
3 5 2 3 1 1 54 310 61 73 330 742 320
4 5 2 3 1 73 330 742 320 72 331 743 321
5 5 2 3 1 72 331 743 321 4 69 314 62
6 5 2 3 1 61 310 311 60 320 742 744 318
7 5 2 3 1 320 742 744 318 321 743 745 319
8 5 2 3 1 321 743 745 319 62 314 316 63
9 5 2 3 1 60 311 59 10 318 744 324 70
10 5 2 3 1 318 744 324 70 319 745 325 71
11 5 2 3 1 319 745 325 71 63 316 64 13
12 5 2 3 1 54 55 312 310 330 332 746 742
13 5 2 3 1 330 332 746 742 331 333 747 743
14 5 2 3 1 331 333 747 743 69 68 315 314
15 5 2 3 1 310 312 313 311 742 746 748 744
16 5 2 3 1 742 746 748 744 743 747 749 745
17 5 2 3 1 743 747 749 745 314 315 317 316
18 5 2 3 1 311 313 58 59 744 748 322 324
19 5 2 3 1 744 748 322 324 745 749 323 325
20 5 2 3 1 745 749 323 325 316 317 65 64
21 5 2 3 1 55 2 56 312 332 76 326 746
22 5 2 3 1 332 76 326 746 333 77 327 747
23 5 2 3 1 333 77 327 747 68 5 67 315
24 5 2 3 1 312 56 57 313 746 326 328 748
25 5 2 3 1 746 326 328 748 747 327 329 749
26 5 2 3 1 747 327 329 749 315 67 66 317
27 5 2 3 1 313 57 11 58 748 328 74 322
28 5 2 3 1 748 328 74 322 749 329 75 323
29 5 2 3 1 749 329 75 323 317 66 14 65
30 5 2 3 2 2 78 334 56 76 350 750 326
31 5 2 3 2 76 350 750 326 77 351 751 327
32 5 2 3 2 77 351 751 327 5 89 340 67
33 5 2 3 2 56 334 335 57 326 750 752 328
34 5 2 3 2 326 750 752 328 327 751 753 329
35 5 2 3 2 327 751 753 329 67 340 338 66
36 5 2 3 2 57 335 83 11 328 752 344 74
37 5 2 3 2 328 752 344 74 329 753 345 75
38 5 2 3 2 329 753 345 75 66 338 84 14
39 5 2 3 2 78 79 336 334 350 352 754 750
40 5 2 3 2 350 352 754 750 351 353 755 751
41 5 2 3 2 351 353 755 751 89 88 341 340
42 5 2 3 2 334 336 337 335 750 754 756 752
43 5 2 3 2 750 754 756 752 751 755 757 753
44 5 2 3 2 751 755 757 753 340 341 339 338
45 5 2 3 2 335 337 82 83 752 756 342 344
46 5 2 3 2 752 756 342 344 753 757 343 345
47 5 2 3 2 753 757 343 345 338 339 85 84
48 5 2 3 2 79 3 80 336 352 92 346 754
49 5 2 3 2 352 92 346 754 353 93 347 755
50 5 2 3 2 353 93 347 755 88 6 87 341
51 5 2 3 2 336 80 81 337 754 346 348 756
52 5 2 3 2 754 346 348 756 755 347 349 757
53 5 2 3 2 755 347 349 757 341 87 86 339
54 5 2 3 2 337 81 12 82 756 348 90 342
55 5 2 3 2 756 348 90 342 757 349 91 343
56 5 2 3 2 757 349 91 343 339 86 15 85
57 5 2 3 3 314 62 4 69 758 358 105 372
58 5 2 3 3 758 358 105 372 759 359 104 373
59 5 2 3 3 759 359 104 373 354 94 7 101
60 5 2 3 3 315 314 69 68 760 758 372 370
61 5 2 3 3 760 758 372 370 761 759 373 371
62 5 2 3 3 761 759 373 371 355 354 101 100
63 5 2 3 3 67 315 68 5 368 760 370 108
64 5 2 3 3 368 760 370 108 369 761 371 109
65 5 2 3 3 369 761 371 109 99 355 100 8
66 5 2 3 3 316 63 62 314 762 360 358 758
67 5 2 3 3 762 360 358 758 763 361 359 759
68 5 2 3 3 763 361 359 759 356 95 94 354
69 5 2 3 3 317 316 314 315 764 762 758 760
70 5 2 3 3 764 762 758 760 765 763 759 761
71 5 2 3 3 765 763 759 761 357 356 354 355
72 5 2 3 3 66 317 315 67 366 764 760 368
73 5 2 3 3 366 764 760 368 367 765 761 369
74 5 2 3 3 367 765 761 369 98 357 355 99
75 5 2 3 3 64 13 63 316 362 102 360 762
76 5 2 3 3 362 102 360 762 363 103 361 763
77 5 2 3 3 363 103 361 763 96 16 95 356
78 5 2 3 3 65 64 316 317 364 362 762 764
79 5 2 3 3 364 362 762 764 365 363 763 765
80 5 2 3 3 365 363 763 765 97 96 356 357
81 5 2 3 3 14 65 317 66 106 364 764 366
82 5 2 3 3 106 364 764 366 107 365 765 367
83 5 2 3 3 107 365 765 367 17 97 357 98
84 5 2 3 4 14 66 338 84 106 366 766 378
85 5 2 3 4 106 366 766 378 107 367 767 379
86 5 2 3 4 107 367 767 379 17 98 374 110
87 5 2 3 4 84 338 339 85 378 766 768 380
88 5 2 3 4 378 766 768 380 379 767 769 381
89 5 2 3 4 379 767 769 381 110 374 375 111
90 5 2 3 4 85 339 86 15 380 768 382 116
91 5 2 3 4 380 768 382 116 381 769 383 117
92 5 2 3 4 381 769 383 117 111 375 112 18
93 5 2 3 4 66 67 340 338 366 368 770 766
94 5 2 3 4 366 368 770 766 367 369 771 767
95 5 2 3 4 367 369 771 767 98 99 376 374
96 5 2 3 4 338 340 341 339 766 770 772 768
97 5 2 3 4 766 770 772 768 767 771 773 769
98 5 2 3 4 767 771 773 769 374 376 377 375
99 5 2 3 4 339 341 87 86 768 772 384 382
100 5 2 3 4 768 772 384 382 769 773 385 383
101 5 2 3 4 769 773 385 383 375 377 113 112
102 5 2 3 4 67 5 89 340 368 108 388 770
103 5 2 3 4 368 108 388 770 369 109 389 771
104 5 2 3 4 369 109 389 771 99 8 115 376
105 5 2 3 4 340 89 88 341 770 388 386 772
106 5 2 3 4 770 388 386 772 771 389 387 773
107 5 2 3 4 771 389 387 773 376 115 114 377
108 5 2 3 4 341 88 6 87 772 386 118 384
109 5 2 3 4 772 386 118 384 773 387 119 385
110 5 2 3 4 773 387 119 385 377 114 9 113
111 5 2 3 5 390 58 11 120 774 322 74 406
112 5 2 3 5 774 322 74 406 775 323 75 407
113 5 2 3 5 775 323 75 407 395 65 14 131
114 5 2 3 5 391 390 120 121 776 774 406 408
115 5 2 3 5 776 774 406 408 777 775 407 409
116 5 2 3 5 777 775 407 409 397 395 131 130
117 5 2 3 5 122 391 121 20 402 776 408 134
118 5 2 3 5 402 776 408 134 403 777 409 135
119 5 2 3 5 403 777 409 135 129 397 130 23
120 5 2 3 5 392 59 58 390 778 324 322 774
121 5 2 3 5 778 324 322 774 779 325 323 775
122 5 2 3 5 779 325 323 775 394 64 65 395
123 5 2 3 5 393 392 390 391 780 778 774 776
124 5 2 3 5 780 778 774 776 781 779 775 777
125 5 2 3 5 781 779 775 777 396 394 395 397
126 5 2 3 5 123 393 391 122 404 780 776 402
127 5 2 3 5 404 780 776 402 405 781 777 403
128 5 2 3 5 405 781 777 403 128 396 397 129
129 5 2 3 5 125 10 59 392 400 70 324 778
130 5 2 3 5 400 70 324 778 401 71 325 779
131 5 2 3 5 401 71 325 779 126 13 64 394
132 5 2 3 5 124 125 392 393 398 400 778 780
133 5 2 3 5 398 400 778 780 399 401 779 781
134 5 2 3 5 399 401 779 781 127 126 394 396
135 5 2 3 5 19 124 393 123 132 398 780 404
136 5 2 3 5 132 398 780 404 133 399 781 405
137 5 2 3 5 133 399 781 405 22 127 396 128
138 5 2 3 6 410 82 12 136 782 342 90 422
139 5 2 3 6 782 342 90 422 783 343 91 423
140 5 2 3 6 783 343 91 423 417 85 15 143
141 5 2 3 6 411 410 136 137 784 782 422 424
142 5 2 3 6 784 782 422 424 785 783 423 425
143 5 2 3 6 785 783 423 425 415 417 143 142
144 5 2 3 6 138 411 137 21 418 784 424 144
145 5 2 3 6 418 784 424 144 419 785 425 145
146 5 2 3 6 419 785 425 145 141 415 142 24
147 5 2 3 6 412 83 82 410 786 344 342 782
148 5 2 3 6 786 344 342 782 787 345 343 783
149 5 2 3 6 787 345 343 783 416 84 85 417
150 5 2 3 6 413 412 410 411 788 786 782 784
151 5 2 3 6 788 786 782 784 789 787 783 785
152 5 2 3 6 789 787 783 785 414 416 417 415
153 5 2 3 6 139 413 411 138 420 788 784 418
154 5 2 3 6 420 788 784 418 421 789 785 419
155 5 2 3 6 421 789 785 419 140 414 415 141
156 5 2 3 6 120 11 83 412 406 74 344 786
157 5 2 3 6 406 74 344 786 407 75 345 787
158 5 2 3 6 407 75 345 787 131 14 84 416
159 5 2 3 6 121 120 412 413 408 406 786 788
160 5 2 3 6 408 406 786 788 409 407 787 789
161 5 2 3 6 409 407 787 789 130 131 416 414
162 5 2 3 6 20 121 413 139 134 408 788 420
163 5 2 3 6 134 408 788 420 135 409 789 421
164 5 2 3 6 135 409 789 421 23 130 414 140
165 5 2 3 7 394 126 13 64 790 430 102 362
166 5 2 3 7 790 430 102 362 791 431 103 363
167 5 2 3 7 791 431 103 363 426 146 16 96
168 5 2 3 7 395 394 64 65 792 790 362 364
169 5 2 3 7 792 790 362 364 793 791 363 365
170 5 2 3 7 793 791 363 365 427 426 96 97
171 5 2 3 7 131 395 65 14 440 792 364 106
172 5 2 3 7 440 792 364 106 441 793 365 107
173 5 2 3 7 441 793 365 107 151 427 97 17
174 5 2 3 7 396 127 126 394 794 432 430 790
175 5 2 3 7 794 432 430 790 795 433 431 791
176 5 2 3 7 795 433 431 791 428 147 146 426
177 5 2 3 7 397 396 394 395 796 794 790 792
178 5 2 3 7 796 794 790 792 797 795 791 793
179 5 2 3 7 797 795 791 793 429 428 426 427
180 5 2 3 7 130 397 395 131 438 796 792 440
181 5 2 3 7 438 796 792 440 439 797 793 441
182 5 2 3 7 439 797 793 441 150 429 427 151
183 5 2 3 7 128 22 127 396 434 152 432 794
184 5 2 3 7 434 152 432 794 435 153 433 795
185 5 2 3 7 435 153 433 795 148 25 147 428
186 5 2 3 7 129 128 396 397 436 434 794 796
187 5 2 3 7 436 434 794 796 437 435 795 797
188 5 2 3 7 437 435 795 797 149 148 428 429
189 5 2 3 7 23 129 397 130 154 436 796 438
190 5 2 3 7 154 436 796 438 155 437 797 439
191 5 2 3 7 155 437 797 439 26 149 429 150
192 5 2 3 8 23 130 414 140 154 438 798 446
193 5 2 3 8 154 438 798 446 155 439 799 447
194 5 2 3 8 155 439 799 447 26 150 442 156
195 5 2 3 8 140 414 415 141 446 798 800 448
196 5 2 3 8 446 798 800 448 447 799 801 449
197 5 2 3 8 447 799 801 449 156 442 443 157
198 5 2 3 8 141 415 142 24 448 800 450 160
199 5 2 3 8 448 800 450 160 449 801 451 161
200 5 2 3 8 449 801 451 161 157 443 158 27
201 5 2 3 8 130 131 416 414 438 440 802 798
202 5 2 3 8 438 440 802 798 439 441 803 799
203 5 2 3 8 439 441 803 799 150 151 444 442
204 5 2 3 8 414 416 417 415 798 802 804 800
205 5 2 3 8 798 802 804 800 799 803 805 801
206 5 2 3 8 799 803 805 801 442 444 445 443
207 5 2 3 8 415 417 143 142 800 804 452 450
208 5 2 3 8 800 804 452 450 801 805 453 451
209 5 2 3 8 801 805 453 451 443 445 159 158
210 5 2 3 8 131 14 84 416 440 106 378 802
211 5 2 3 8 440 106 378 802 441 107 379 803
212 5 2 3 8 441 107 379 803 151 17 110 444
213 5 2 3 8 416 84 85 417 802 378 380 804
214 5 2 3 8 802 378 380 804 803 379 381 805
215 5 2 3 8 803 379 381 805 444 110 111 445
216 5 2 3 8 417 85 15 143 804 380 116 452
217 5 2 3 8 804 380 116 452 805 381 117 453
218 5 2 3 8 805 381 117 453 445 111 18 159
219 5 2 3 9 354 94 7 101 806 458 173 472
220 5 2 3 9 806 458 173 472 807 459 172 473
221 5 2 3 9 807 459 172 473 454 162 34 169
222 5 2 3 9 355 354 101 100 808 806 472 470
223 5 2 3 9 808 806 472 470 809 807 473 471
224 5 2 3 9 809 807 473 471 455 454 169 168
225 5 2 3 9 99 355 100 8 468 808 470 176
226 5 2 3 9 468 808 470 176 469 809 471 177
227 5 2 3 9 469 809 471 177 167 455 168 35
228 5 2 3 9 356 95 94 354 810 460 458 806
229 5 2 3 9 810 460 458 806 811 461 459 807
230 5 2 3 9 811 461 459 807 456 163 162 454
231 5 2 3 9 357 356 354 355 812 810 806 808
232 5 2 3 9 812 810 806 808 813 811 807 809
233 5 2 3 9 813 811 807 809 457 456 454 455
234 5 2 3 9 98 357 355 99 466 812 808 468
235 5 2 3 9 466 812 808 468 467 813 809 469
236 5 2 3 9 467 813 809 469 166 457 455 167
237 5 2 3 9 96 16 95 356 462 170 460 810
238 5 2 3 9 462 170 460 810 463 171 461 811
239 5 2 3 9 463 171 461 811 164 42 163 456
240 5 2 3 9 97 96 356 357 464 462 810 812
241 5 2 3 9 464 462 810 812 465 463 811 813
242 5 2 3 9 465 463 811 813 165 164 456 457
243 5 2 3 9 17 97 357 98 174 464 812 466
244 5 2 3 9 174 464 812 466 175 465 813 467
245 5 2 3 9 175 465 813 467 43 165 457 166
246 5 2 3 10 17 98 374 110 174 466 814 478
247 5 2 3 10 174 466 814 478 175 467 815 479
248 5 2 3 10 175 467 815 479 43 166 474 178
249 5 2 3 10 110 374 375 111 478 814 816 480
250 5 2 3 10 478 814 816 480 479 815 817 481
251 5 2 3 10 479 815 817 481 178 474 475 179
252 5 2 3 10 111 375 112 18 480 816 482 184
253 5 2 3 10 480 816 482 184 481 817 483 185
254 5 2 3 10 481 817 483 185 179 475 180 44
255 5 2 3 10 98 99 376 374 466 468 818 814
256 5 2 3 10 466 468 818 814 467 469 819 815
257 5 2 3 10 467 469 819 815 166 167 476 474
258 5 2 3 10 374 376 377 375 814 818 820 816
259 5 2 3 10 814 818 820 816 815 819 821 817
260 5 2 3 10 815 819 821 817 474 476 477 475
261 5 2 3 10 375 377 113 112 816 820 484 482
262 5 2 3 10 816 820 484 482 817 821 485 483
263 5 2 3 10 817 821 485 483 475 477 181 180
264 5 2 3 10 99 8 115 376 468 176 488 818
265 5 2 3 10 468 176 488 818 469 177 489 819
266 5 2 3 10 469 177 489 819 167 35 183 476
267 5 2 3 10 376 115 114 377 818 488 486 820
268 5 2 3 10 818 488 486 820 819 489 487 821
269 5 2 3 10 819 489 487 821 476 183 182 477
270 5 2 3 10 377 114 9 113 820 486 186 484
271 5 2 3 10 820 486 186 484 821 487 187 485
272 5 2 3 10 821 487 187 485 477 182 36 181
273 5 2 3 11 426 146 16 96 822 494 170 462
274 5 2 3 11 822 494 170 462 823 495 171 463
275 5 2 3 11 823 495 171 463 490 188 42 164
276 5 2 3 11 427 426 96 97 824 822 462 464
277 5 2 3 11 824 822 462 464 825 823 463 465
278 5 2 3 11 825 823 463 465 491 490 164 165
279 5 2 3 11 151 427 97 17 504 824 464 174
280 5 2 3 11 504 824 464 174 505 825 465 175
281 5 2 3 11 505 825 465 175 193 491 165 43
282 5 2 3 11 428 147 146 426 826 496 494 822
283 5 2 3 11 826 496 494 822 827 497 495 823
284 5 2 3 11 827 497 495 823 492 189 188 490
285 5 2 3 11 429 428 426 427 828 826 822 824
286 5 2 3 11 828 826 822 824 829 827 823 825
287 5 2 3 11 829 827 823 825 493 492 490 491
288 5 2 3 11 150 429 427 151 502 828 824 504
289 5 2 3 11 502 828 824 504 503 829 825 505
290 5 2 3 11 503 829 825 505 192 493 491 193
291 5 2 3 11 148 25 147 428 498 194 496 826
292 5 2 3 11 498 194 496 826 499 195 497 827
293 5 2 3 11 499 195 497 827 190 51 189 492
294 5 2 3 11 149 148 428 429 500 498 826 828
295 5 2 3 11 500 498 826 828 501 499 827 829
296 5 2 3 11 501 499 827 829 191 190 492 493
297 5 2 3 11 26 149 429 150 196 500 828 502
298 5 2 3 11 196 500 828 502 197 501 829 503
299 5 2 3 11 197 501 829 503 52 191 493 192
300 5 2 3 12 26 150 442 156 196 502 830 510
301 5 2 3 12 196 502 830 510 197 503 831 511
302 5 2 3 12 197 503 831 511 52 192 506 198
303 5 2 3 12 156 442 443 157 510 830 832 512
304 5 2 3 12 510 830 832 512 511 831 833 513
305 5 2 3 12 511 831 833 513 198 506 507 199
306 5 2 3 12 157 443 158 27 512 832 514 202
307 5 2 3 12 512 832 514 202 513 833 515 203
308 5 2 3 12 513 833 515 203 199 507 200 53
309 5 2 3 12 150 151 444 442 502 504 834 830
310 5 2 3 12 502 504 834 830 503 505 835 831
311 5 2 3 12 503 505 835 831 192 193 508 506
312 5 2 3 12 442 444 445 443 830 834 836 832
313 5 2 3 12 830 834 836 832 831 835 837 833
314 5 2 3 12 831 835 837 833 506 508 509 507
315 5 2 3 12 443 445 159 158 832 836 516 514
316 5 2 3 12 832 836 516 514 833 837 517 515
317 5 2 3 12 833 837 517 515 507 509 201 200
318 5 2 3 12 151 17 110 444 504 174 478 834
319 5 2 3 12 504 174 478 834 505 175 479 835
320 5 2 3 12 505 175 479 835 193 43 178 508
321 5 2 3 12 444 110 111 445 834 478 480 836
322 5 2 3 12 834 478 480 836 835 479 481 837
323 5 2 3 12 835 479 481 837 508 178 179 509
324 5 2 3 12 445 111 18 159 836 480 184 516
325 5 2 3 12 836 480 184 516 837 481 185 517
326 5 2 3 12 837 481 185 517 509 179 44 201
327 5 2 3 13 28 204 518 211 215 534 838 524
328 5 2 3 13 215 534 838 524 214 535 839 525
329 5 2 3 13 214 535 839 525 1 54 310 61
330 5 2 3 13 211 518 519 210 524 838 840 522
331 5 2 3 13 524 838 840 522 525 839 841 523
332 5 2 3 13 525 839 841 523 61 310 311 60
333 5 2 3 13 210 519 209 37 522 840 528 212
334 5 2 3 13 522 840 528 212 523 841 529 213
335 5 2 3 13 523 841 529 213 60 311 59 10
336 5 2 3 13 204 205 520 518 534 536 842 838
337 5 2 3 13 534 536 842 838 535 537 843 839
338 5 2 3 13 535 537 843 839 54 55 312 310
339 5 2 3 13 518 520 521 519 838 842 844 840
340 5 2 3 13 838 842 844 840 839 843 845 841
341 5 2 3 13 839 843 845 841 310 312 313 311
342 5 2 3 13 519 521 208 209 840 844 526 528
343 5 2 3 13 840 844 526 528 841 845 527 529
344 5 2 3 13 841 845 527 529 311 313 58 59
345 5 2 3 13 205 29 206 520 536 218 530 842
346 5 2 3 13 536 218 530 842 537 219 531 843
347 5 2 3 13 537 219 531 843 55 2 56 312
348 5 2 3 13 520 206 207 521 842 530 532 844
349 5 2 3 13 842 530 532 844 843 531 533 845
350 5 2 3 13 843 531 533 845 312 56 57 313
351 5 2 3 13 521 207 38 208 844 532 216 526
352 5 2 3 13 844 532 216 526 845 533 217 527
353 5 2 3 13 845 533 217 527 313 57 11 58
354 5 2 3 14 29 220 538 206 218 550 846 530
355 5 2 3 14 218 550 846 530 219 551 847 531
356 5 2 3 14 219 551 847 531 2 78 334 56
357 5 2 3 14 206 538 539 207 530 846 848 532
358 5 2 3 14 530 846 848 532 531 847 849 533
359 5 2 3 14 531 847 849 533 56 334 335 57
360 5 2 3 14 207 539 225 38 532 848 544 216
361 5 2 3 14 532 848 544 216 533 849 545 217
362 5 2 3 14 533 849 545 217 57 335 83 11
363 5 2 3 14 220 221 540 538 550 552 850 846
364 5 2 3 14 550 552 850 846 551 553 851 847
365 5 2 3 14 551 553 851 847 78 79 336 334
366 5 2 3 14 538 540 541 539 846 850 852 848
367 5 2 3 14 846 850 852 848 847 851 853 849
368 5 2 3 14 847 851 853 849 334 336 337 335
369 5 2 3 14 539 541 224 225 848 852 542 544
370 5 2 3 14 848 852 542 544 849 853 543 545
371 5 2 3 14 849 853 543 545 335 337 82 83
372 5 2 3 14 221 30 222 540 552 228 546 850
373 5 2 3 14 552 228 546 850 553 229 547 851
374 5 2 3 14 553 229 547 851 79 3 80 336
375 5 2 3 14 540 222 223 541 850 546 548 852
376 5 2 3 14 850 546 548 852 851 547 549 853
377 5 2 3 14 851 547 549 853 336 80 81 337
378 5 2 3 14 541 223 39 224 852 548 226 542
379 5 2 3 14 852 548 226 542 853 549 227 543
380 5 2 3 14 853 549 227 543 337 81 12 82
381 5 2 3 15 554 208 38 230 854 526 216 566
382 5 2 3 15 854 526 216 566 855 527 217 567
383 5 2 3 15 855 527 217 567 390 58 11 120
384 5 2 3 15 555 554 230 231 856 854 566 568
385 5 2 3 15 856 854 566 568 857 855 567 569
386 5 2 3 15 857 855 567 569 391 390 120 121
387 5 2 3 15 232 555 231 46 562 856 568 238
388 5 2 3 15 562 856 568 238 563 857 569 239
389 5 2 3 15 563 857 569 239 122 391 121 20
390 5 2 3 15 556 209 208 554 858 528 526 854
391 5 2 3 15 858 528 526 854 859 529 527 855
392 5 2 3 15 859 529 527 855 392 59 58 390
393 5 2 3 15 557 556 554 555 860 858 854 856
394 5 2 3 15 860 858 854 856 861 859 855 857
395 5 2 3 15 861 859 855 857 393 392 390 391
396 5 2 3 15 233 557 555 232 564 860 856 562
397 5 2 3 15 564 860 856 562 565 861 857 563
398 5 2 3 15 565 861 857 563 123 393 391 122
399 5 2 3 15 235 37 209 556 560 212 528 858
400 5 2 3 15 560 212 528 858 561 213 529 859
401 5 2 3 15 561 213 529 859 125 10 59 392
402 5 2 3 15 234 235 556 557 558 560 858 860
403 5 2 3 15 558 560 858 860 559 561 859 861
404 5 2 3 15 559 561 859 861 124 125 392 393
405 5 2 3 15 45 234 557 233 236 558 860 564
406 5 2 3 15 236 558 860 564 237 559 861 565
407 5 2 3 15 237 559 861 565 19 124 393 123
408 5 2 3 16 570 224 39 240 862 542 226 578
409 5 2 3 16 862 542 226 578 863 543 227 579
410 5 2 3 16 863 543 227 579 410 82 12 136
411 5 2 3 16 571 570 240 241 864 862 578 580
412 5 2 3 16 864 862 578 580 865 863 579 581
413 5 2 3 16 865 863 579 581 411 410 136 137
414 5 2 3 16 242 571 241 47 574 864 580 244
415 5 2 3 16 574 864 580 244 575 865 581 245
416 5 2 3 16 575 865 581 245 138 411 137 21
417 5 2 3 16 572 225 224 570 866 544 542 862
418 5 2 3 16 866 544 542 862 867 545 543 863
419 5 2 3 16 867 545 543 863 412 83 82 410
420 5 2 3 16 573 572 570 571 868 866 862 864
421 5 2 3 16 868 866 862 864 869 867 863 865
422 5 2 3 16 869 867 863 865 413 412 410 411
423 5 2 3 16 243 573 571 242 576 868 864 574
424 5 2 3 16 576 868 864 574 577 869 865 575
425 5 2 3 16 577 869 865 575 139 413 411 138
426 5 2 3 16 230 38 225 572 566 216 544 866
427 5 2 3 16 566 216 544 866 567 217 545 867
428 5 2 3 16 567 217 545 867 120 11 83 412
429 5 2 3 16 231 230 572 573 568 566 866 868
430 5 2 3 16 568 566 866 868 569 567 867 869
431 5 2 3 16 569 567 867 869 121 120 412 413
432 5 2 3 16 46 231 573 243 238 568 868 576
433 5 2 3 16 238 568 868 576 239 569 869 577
434 5 2 3 16 239 569 869 577 20 121 413 139
435 5 2 3 17 3 80 346 92 229 547 870 594
436 5 2 3 17 229 547 870 594 228 546 871 595
437 5 2 3 17 228 546 871 595 30 222 582 251
438 5 2 3 17 92 346 347 93 594 870 872 596
439 5 2 3 17 594 870 872 596 595 871 873 597
440 5 2 3 17 595 871 873 597 251 582 583 250
441 5 2 3 17 93 347 87 6 596 872 592 254
442 5 2 3 17 596 872 592 254 597 873 593 255
443 5 2 3 17 597 873 593 255 250 583 249 33
444 5 2 3 17 80 81 348 346 547 549 874 870
445 5 2 3 17 547 549 874 870 546 548 875 871
446 5 2 3 17 546 548 875 871 222 223 584 582
447 5 2 3 17 346 348 349 347 870 874 876 872
448 5 2 3 17 870 874 876 872 871 875 877 873
449 5 2 3 17 871 875 877 873 582 584 585 583
450 5 2 3 17 347 349 86 87 872 876 590 592
451 5 2 3 17 872 876 590 592 873 877 591 593
452 5 2 3 17 873 877 591 593 583 585 248 249
453 5 2 3 17 81 12 90 348 549 227 586 874
454 5 2 3 17 549 227 586 874 548 226 587 875
455 5 2 3 17 548 226 587 875 223 39 246 584
456 5 2 3 17 348 90 91 349 874 586 588 876
457 5 2 3 17 874 586 588 876 875 587 589 877
458 5 2 3 17 875 587 589 877 584 246 247 585
459 5 2 3 17 349 91 15 86 876 588 252 590
460 5 2 3 17 876 588 252 590 877 589 253 591
461 5 2 3 17 877 589 253 591 585 247 41 248
462 5 2 3 18 382 86 15 116 878 590 252 602
463 5 2 3 18 878 590 252 602 879 591 253 603
464 5 2 3 18 879 591 253 603 598 248 41 256
465 5 2 3 18 383 382 116 117 880 878 602 604
466 5 2 3 18 880 878 602 604 881 879 603 605
467 5 2 3 18 881 879 603 605 599 598 256 257
468 5 2 3 18 112 383 117 18 482 880 604 184
469 5 2 3 18 482 880 604 184 483 881 605 185
470 5 2 3 18 483 881 605 185 180 599 257 44
471 5 2 3 18 384 87 86 382 882 592 590 878
472 5 2 3 18 882 592 590 878 883 593 591 879
473 5 2 3 18 883 593 591 879 600 249 248 598
474 5 2 3 18 385 384 382 383 884 882 878 880
475 5 2 3 18 884 882 878 880 885 883 879 881
476 5 2 3 18 885 883 879 881 601 600 598 599
477 5 2 3 18 113 385 383 112 484 884 880 482
478 5 2 3 18 484 884 880 482 485 885 881 483
479 5 2 3 18 485 885 881 483 181 601 599 180
480 5 2 3 18 118 6 87 384 606 254 592 882
481 5 2 3 18 606 254 592 882 607 255 593 883
482 5 2 3 18 607 255 593 883 259 33 249 600
483 5 2 3 18 119 118 384 385 608 606 882 884
484 5 2 3 18 608 606 882 884 609 607 883 885
485 5 2 3 18 609 607 883 885 258 259 600 601
486 5 2 3 18 9 119 385 113 186 608 884 484
487 5 2 3 18 186 608 884 484 187 609 885 485
488 5 2 3 18 187 609 885 485 36 258 601 181
489 5 2 3 19 12 136 422 90 227 579 886 586
490 5 2 3 19 227 579 886 586 226 578 887 587
491 5 2 3 19 226 578 887 587 39 240 610 246
492 5 2 3 19 90 422 423 91 586 886 888 588
493 5 2 3 19 586 886 888 588 587 887 889 589
494 5 2 3 19 587 887 889 589 246 610 611 247
495 5 2 3 19 91 423 143 15 588 888 620 252
496 5 2 3 19 588 888 620 252 589 889 621 253
497 5 2 3 19 589 889 621 253 247 611 263 41
498 5 2 3 19 136 137 424 422 579 581 890 886
499 5 2 3 19 579 581 890 886 578 580 891 887
500 5 2 3 19 578 580 891 887 240 241 612 610
501 5 2 3 19 422 424 425 423 886 890 892 888
502 5 2 3 19 886 890 892 888 887 891 893 889
503 5 2 3 19 887 891 893 889 610 612 613 611
504 5 2 3 19 423 425 142 143 888 892 618 620
505 5 2 3 19 888 892 618 620 889 893 619 621
506 5 2 3 19 889 893 619 621 611 613 262 263
507 5 2 3 19 137 21 144 424 581 245 614 890
508 5 2 3 19 581 245 614 890 580 244 615 891
509 5 2 3 19 580 244 615 891 241 47 260 612
510 5 2 3 19 424 144 145 425 890 614 616 892
511 5 2 3 19 890 614 616 892 891 615 617 893
512 5 2 3 19 891 615 617 893 612 260 261 613
513 5 2 3 19 425 145 24 142 892 616 264 618
514 5 2 3 19 892 616 264 618 893 617 265 619
515 5 2 3 19 893 617 265 619 613 261 50 262
516 5 2 3 20 450 142 24 160 894 618 264 626
517 5 2 3 20 894 618 264 626 895 619 265 627
518 5 2 3 20 895 619 265 627 622 262 50 266
519 5 2 3 20 451 450 160 161 896 894 626 628
520 5 2 3 20 896 894 626 628 897 895 627 629
521 5 2 3 20 897 895 627 629 623 622 266 267
522 5 2 3 20 158 451 161 27 514 896 628 202
523 5 2 3 20 514 896 628 202 515 897 629 203
524 5 2 3 20 515 897 629 203 200 623 267 53
525 5 2 3 20 452 143 142 450 898 620 618 894
526 5 2 3 20 898 620 618 894 899 621 619 895
527 5 2 3 20 899 621 619 895 624 263 262 622
528 5 2 3 20 453 452 450 451 900 898 894 896
529 5 2 3 20 900 898 894 896 901 899 895 897
530 5 2 3 20 901 899 895 897 625 624 622 623
531 5 2 3 20 159 453 451 158 516 900 896 514
532 5 2 3 20 516 900 896 514 517 901 897 515
533 5 2 3 20 517 901 897 515 201 625 623 200
534 5 2 3 20 116 15 143 452 602 252 620 898
535 5 2 3 20 602 252 620 898 603 253 621 899
536 5 2 3 20 603 253 621 899 256 41 263 624
537 5 2 3 20 117 116 452 453 604 602 898 900
538 5 2 3 20 604 602 898 900 605 603 899 901
539 5 2 3 20 605 603 899 901 257 256 624 625
540 5 2 3 20 18 117 453 159 184 604 900 516
541 5 2 3 20 184 604 900 516 185 605 901 517
542 5 2 3 20 185 605 901 517 44 257 625 201
543 5 2 3 21 630 268 28 211 902 642 215 524
544 5 2 3 21 902 642 215 524 903 643 214 525
545 5 2 3 21 903 643 214 525 320 73 1 61
546 5 2 3 21 631 630 211 210 904 902 524 522
547 5 2 3 21 904 902 524 522 905 903 525 523
548 5 2 3 21 905 903 525 523 318 320 61 60
549 5 2 3 21 273 631 210 37 636 904 522 212
550 5 2 3 21 636 904 522 212 637 905 523 213
551 5 2 3 21 637 905 523 213 70 318 60 10
552 5 2 3 21 632 269 268 630 906 644 642 902
553 5 2 3 21 906 644 642 902 907 645 643 903
554 5 2 3 21 907 645 643 903 321 72 73 320
555 5 2 3 21 633 632 630 631 908 906 902 904
556 5 2 3 21 908 906 902 904 909 907 903 905
557 5 2 3 21 909 907 903 905 319 321 320 318
558 5 2 3 21 272 633 631 273 634 908 904 636
559 5 2 3 21 634 908 904 636 635 909 905 637
560 5 2 3 21 635 909 905 637 71 319 318 70
561 5 2 3 21 270 31 269 632 638 276 644 906
562 5 2 3 21 638 276 644 906 639 277 645 907
563 5 2 3 21 639 277 645 907 62 4 72 321
564 5 2 3 21 271 270 632 633 640 638 906 908
565 5 2 3 21 640 638 906 908 641 639 907 909
566 5 2 3 21 641 639 907 909 63 62 321 319
567 5 2 3 21 40 271 633 272 274 640 908 634
568 5 2 3 21 274 640 908 634 275 641 909 635
569 5 2 3 21 275 641 909 635 13 63 319 71
570 5 2 3 22 646 278 31 270 910 654 276 638
571 5 2 3 22 910 654 276 638 911 655 277 639
572 5 2 3 22 911 655 277 639 358 105 4 62
573 5 2 3 22 647 646 270 271 912 910 638 640
574 5 2 3 22 912 910 638 640 913 911 639 641
575 5 2 3 22 913 911 639 641 360 358 62 63
576 5 2 3 22 281 647 271 40 652 912 640 274
577 5 2 3 22 652 912 640 274 653 913 641 275
578 5 2 3 22 653 913 641 275 102 360 63 13
579 5 2 3 22 648 279 278 646 914 656 654 910
580 5 2 3 22 914 656 654 910 915 657 655 911
581 5 2 3 22 915 657 655 911 359 104 105 358
582 5 2 3 22 649 648 646 647 916 914 910 912
583 5 2 3 22 916 914 910 912 917 915 911 913
584 5 2 3 22 917 915 911 913 361 359 358 360
585 5 2 3 22 280 649 647 281 650 916 912 652
586 5 2 3 22 650 916 912 652 651 917 913 653
587 5 2 3 22 651 917 913 653 103 361 360 102
588 5 2 3 22 162 34 279 648 459 172 656 914
589 5 2 3 22 459 172 656 914 458 173 657 915
590 5 2 3 22 458 173 657 915 94 7 104 359
591 5 2 3 22 163 162 648 649 461 459 914 916
592 5 2 3 22 461 459 914 916 460 458 915 917
593 5 2 3 22 460 458 915 917 95 94 359 361
594 5 2 3 22 42 163 649 280 171 461 916 650
595 5 2 3 22 171 461 916 650 170 460 917 651
596 5 2 3 22 170 460 917 651 16 95 361 103
597 5 2 3 23 40 272 658 282 274 634 918 666
598 5 2 3 23 274 634 918 666 275 635 919 667
599 5 2 3 23 275 635 919 667 13 71 401 126
600 5 2 3 23 282 658 659 283 666 918 920 668
601 5 2 3 23 666 918 920 668 667 919 921 669
602 5 2 3 23 667 919 921 669 126 401 399 127
603 5 2 3 23 283 659 284 48 668 920 662 286
604 5 2 3 23 668 920 662 286 669 921 663 287
605 5 2 3 23 669 921 663 287 127 399 133 22
606 5 2 3 23 272 273 660 658 634 636 922 918
607 5 2 3 23 634 636 922 918 635 637 923 919
608 5 2 3 23 635 637 923 919 71 70 400 401
609 5 2 3 23 658 660 661 659 918 922 924 920
610 5 2 3 23 918 922 924 920 919 923 925 921
611 5 2 3 23 919 923 925 921 401 400 398 399
612 5 2 3 23 659 661 285 284 920 924 664 662
613 5 2 3 23 920 924 664 662 921 925 665 663
614 5 2 3 23 921 925 665 663 399 398 132 133
615 5 2 3 23 273 37 235 660 636 212 560 922
616 5 2 3 23 636 212 560 922 637 213 561 923
617 5 2 3 23 637 213 561 923 70 10 125 400
618 5 2 3 23 660 235 234 661 922 560 558 924
619 5 2 3 23 922 560 558 924 923 561 559 925
620 5 2 3 23 923 561 559 925 400 125 124 398
621 5 2 3 23 661 234 45 285 924 558 236 664
622 5 2 3 23 924 558 236 664 925 559 237 665
623 5 2 3 23 925 559 237 665 398 124 19 132
624 5 2 3 24 42 280 670 188 171 650 926 495
625 5 2 3 24 171 650 926 495 170 651 927 494
626 5 2 3 24 170 651 927 494 16 103 431 146
627 5 2 3 24 188 670 671 189 495 926 928 497
628 5 2 3 24 495 926 928 497 494 927 929 496
629 5 2 3 24 494 927 929 496 146 431 433 147
630 5 2 3 24 189 671 288 51 497 928 674 195
631 5 2 3 24 497 928 674 195 496 929 675 194
632 5 2 3 24 496 929 675 194 147 433 153 25
633 5 2 3 24 280 281 672 670 650 652 930 926
634 5 2 3 24 650 652 930 926 651 653 931 927
635 5 2 3 24 651 653 931 927 103 102 430 431
636 5 2 3 24 670 672 673 671 926 930 932 928
637 5 2 3 24 926 930 932 928 927 931 933 929
638 5 2 3 24 927 931 933 929 431 430 432 433
639 5 2 3 24 671 673 289 288 928 932 676 674
640 5 2 3 24 928 932 676 674 929 933 677 675
641 5 2 3 24 929 933 677 675 433 432 152 153
642 5 2 3 24 281 40 282 672 652 274 666 930
643 5 2 3 24 652 274 666 930 653 275 667 931
644 5 2 3 24 653 275 667 931 102 13 126 430
645 5 2 3 24 672 282 283 673 930 666 668 932
646 5 2 3 24 930 666 668 932 931 667 669 933
647 5 2 3 24 931 667 669 933 430 126 127 432
648 5 2 3 24 673 283 48 289 932 668 286 676
649 5 2 3 24 932 668 286 676 933 669 287 677
650 5 2 3 24 933 669 287 677 432 127 22 152
651 5 2 3 25 20 122 402 134 239 563 934 686
652 5 2 3 25 239 563 934 686 238 562 935 687
653 5 2 3 25 238 562 935 687 46 232 681 293
654 5 2 3 25 134 402 403 135 686 934 936 688
655 5 2 3 25 686 934 936 688 687 935 937 689
656 5 2 3 25 687 935 937 689 293 681 679 292
657 5 2 3 25 135 403 129 23 688 936 684 294
658 5 2 3 25 688 936 684 294 689 937 685 295
659 5 2 3 25 689 937 685 295 292 679 291 49
660 5 2 3 25 122 123 404 402 563 565 938 934
661 5 2 3 25 563 565 938 934 562 564 939 935
662 5 2 3 25 562 564 939 935 232 233 680 681
663 5 2 3 25 402 404 405 403 934 938 940 936
664 5 2 3 25 934 938 940 936 935 939 941 937
665 5 2 3 25 935 939 941 937 681 680 678 679
666 5 2 3 25 403 405 128 129 936 940 682 684
667 5 2 3 25 936 940 682 684 937 941 683 685
668 5 2 3 25 937 941 683 685 679 678 290 291
669 5 2 3 25 123 19 132 404 565 237 665 938
670 5 2 3 25 565 237 665 938 564 236 664 939
671 5 2 3 25 564 236 664 939 233 45 285 680
672 5 2 3 25 404 132 133 405 938 665 663 940
673 5 2 3 25 938 665 663 940 939 664 662 941
674 5 2 3 25 939 664 662 941 680 285 284 678
675 5 2 3 25 405 133 22 128 940 663 287 682
676 5 2 3 25 940 663 287 682 941 662 286 683
677 5 2 3 25 941 662 286 683 678 284 48 290
678 5 2 3 26 21 138 418 144 245 575 942 614
679 5 2 3 26 245 575 942 614 244 574 943 615
680 5 2 3 26 244 574 943 615 47 242 693 260
681 5 2 3 26 144 418 419 145 614 942 944 616
682 5 2 3 26 614 942 944 616 615 943 945 617
683 5 2 3 26 615 943 945 617 260 693 691 261
684 5 2 3 26 145 419 141 24 616 944 696 264
685 5 2 3 26 616 944 696 264 617 945 697 265
686 5 2 3 26 617 945 697 265 261 691 297 50
687 5 2 3 26 138 139 420 418 575 577 946 942
688 5 2 3 26 575 577 946 942 574 576 947 943
689 5 2 3 26 574 576 947 943 242 243 692 693
690 5 2 3 26 418 420 421 419 942 946 948 944
691 5 2 3 26 942 946 948 944 943 947 949 945
692 5 2 3 26 943 947 949 945 693 692 690 691
693 5 2 3 26 419 421 140 141 944 948 694 696
694 5 2 3 26 944 948 694 696 945 949 695 697
695 5 2 3 26 945 949 695 697 691 690 296 297
696 5 2 3 26 139 20 134 420 577 239 686 946
697 5 2 3 26 577 239 686 946 576 238 687 947
698 5 2 3 26 576 238 687 947 243 46 293 692
699 5 2 3 26 420 134 135 421 946 686 688 948
700 5 2 3 26 946 686 688 948 947 687 689 949
701 5 2 3 26 947 687 689 949 692 293 292 690
702 5 2 3 26 421 135 23 140 948 688 294 694
703 5 2 3 26 948 688 294 694 949 689 295 695
704 5 2 3 26 949 689 295 695 690 292 49 296
705 5 2 3 27 434 128 22 152 950 682 287 677
706 5 2 3 27 950 682 287 677 951 683 286 676
707 5 2 3 27 951 683 286 676 700 290 48 289
708 5 2 3 27 435 434 152 153 952 950 677 675
709 5 2 3 27 952 950 677 675 953 951 676 674
710 5 2 3 27 953 951 676 674 698 700 289 288
711 5 2 3 27 148 435 153 25 498 952 675 194
712 5 2 3 27 498 952 675 194 499 953 674 195
713 5 2 3 27 499 953 674 195 190 698 288 51
714 5 2 3 27 436 129 128 434 954 684 682 950
715 5 2 3 27 954 684 682 950 955 685 683 951
716 5 2 3 27 955 685 683 951 701 291 290 700
717 5 2 3 27 437 436 434 435 956 954 950 952
718 5 2 3 27 956 954 950 952 957 955 951 953
719 5 2 3 27 957 955 951 953 699 701 700 698
720 5 2 3 27 149 437 435 148 500 956 952 498
721 5 2 3 27 500 956 952 498 501 957 953 499
722 5 2 3 27 501 957 953 499 191 699 698 190
723 5 2 3 27 154 23 129 436 702 294 684 954
724 5 2 3 27 702 294 684 954 703 295 685 955
725 5 2 3 27 703 295 685 955 299 49 291 701
726 5 2 3 27 155 154 436 437 704 702 954 956
727 5 2 3 27 704 702 954 956 705 703 955 957
728 5 2 3 27 705 703 955 957 298 299 701 699
729 5 2 3 27 26 155 437 149 196 704 956 500
730 5 2 3 27 196 704 956 500 197 705 957 501
731 5 2 3 27 197 705 957 501 52 298 699 191
732 5 2 3 28 446 140 23 154 958 694 294 702
733 5 2 3 28 958 694 294 702 959 695 295 703
734 5 2 3 28 959 695 295 703 708 296 49 299
735 5 2 3 28 447 446 154 155 960 958 702 704
736 5 2 3 28 960 958 702 704 961 959 703 705
737 5 2 3 28 961 959 703 705 706 708 299 298
738 5 2 3 28 156 447 155 26 510 960 704 196
739 5 2 3 28 510 960 704 196 511 961 705 197
740 5 2 3 28 511 961 705 197 198 706 298 52
741 5 2 3 28 448 141 140 446 962 696 694 958
742 5 2 3 28 962 696 694 958 963 697 695 959
743 5 2 3 28 963 697 695 959 709 297 296 708
744 5 2 3 28 449 448 446 447 964 962 958 960
745 5 2 3 28 964 962 958 960 965 963 959 961
746 5 2 3 28 965 963 959 961 707 709 708 706
747 5 2 3 28 157 449 447 156 512 964 960 510
748 5 2 3 28 512 964 960 510 513 965 961 511
749 5 2 3 28 513 965 961 511 199 707 706 198
750 5 2 3 28 160 24 141 448 626 264 696 962
751 5 2 3 28 626 264 696 962 627 265 697 963
752 5 2 3 28 627 265 697 963 266 50 297 709
753 5 2 3 28 161 160 448 449 628 626 962 964
754 5 2 3 28 628 626 962 964 629 627 963 965
755 5 2 3 28 629 627 963 965 267 266 709 707
756 5 2 3 28 27 161 449 157 202 628 964 512
757 5 2 3 28 202 628 964 512 203 629 965 513
758 5 2 3 28 203 629 965 513 53 267 707 199
759 5 2 3 29 710 204 28 268 966 534 215 642
760 5 2 3 29 966 534 215 642 967 535 214 643
761 5 2 3 29 967 535 214 643 330 54 1 73
762 5 2 3 29 711 710 268 269 968 966 642 644
763 5 2 3 29 968 966 642 644 969 967 643 645
764 5 2 3 29 969 967 643 645 331 330 73 72
765 5 2 3 29 303 711 269 31 716 968 644 276
766 5 2 3 29 716 968 644 276 717 969 645 277
767 5 2 3 29 717 969 645 277 69 331 72 4
768 5 2 3 29 712 205 204 710 970 536 534 966
769 5 2 3 29 970 536 534 966 971 537 535 967
770 5 2 3 29 971 537 535 967 332 55 54 330
771 5 2 3 29 713 712 710 711 972 970 966 968
772 5 2 3 29 972 970 966 968 973 971 967 969
773 5 2 3 29 973 971 967 969 333 332 330 331
774 5 2 3 29 302 713 711 303 714 972 968 716
775 5 2 3 29 714 972 968 716 715 973 969 717
776 5 2 3 29 715 973 969 717 68 333 331 69
777 5 2 3 29 300 29 205 712 718 218 536 970
778 5 2 3 29 718 218 536 970 719 219 537 971
779 5 2 3 29 719 219 537 971 76 2 55 332
780 5 2 3 29 301 300 712 713 720 718 970 972
781 5 2 3 29 720 718 970 972 721 719 971 973
782 5 2 3 29 721 719 971 973 77 76 332 333
783 5 2 3 29 32 301 713 302 304 720 972 714
784 5 2 3 29 304 720 972 714 305 721 973 715
785 5 2 3 29 305 721 973 715 5 77 333 68
786 5 2 3 30 722 220 29 300 974 550 218 718
787 5 2 3 30 974 550 218 718 975 551 219 719
788 5 2 3 30 975 551 219 719 350 78 2 76
789 5 2 3 30 723 722 300 301 976 974 718 720
790 5 2 3 30 976 974 718 720 977 975 719 721
791 5 2 3 30 977 975 719 721 351 350 76 77
792 5 2 3 30 307 723 301 32 728 976 720 304
793 5 2 3 30 728 976 720 304 729 977 721 305
794 5 2 3 30 729 977 721 305 89 351 77 5
795 5 2 3 30 724 221 220 722 978 552 550 974
796 5 2 3 30 978 552 550 974 979 553 551 975
797 5 2 3 30 979 553 551 975 352 79 78 350
798 5 2 3 30 725 724 722 723 980 978 974 976
799 5 2 3 30 980 978 974 976 981 979 975 977
800 5 2 3 30 981 979 975 977 353 352 350 351
801 5 2 3 30 306 725 723 307 726 980 976 728
802 5 2 3 30 726 980 976 728 727 981 977 729
803 5 2 3 30 727 981 977 729 88 353 351 89
804 5 2 3 30 251 30 221 724 595 228 552 978
805 5 2 3 30 595 228 552 978 594 229 553 979
806 5 2 3 30 594 229 553 979 92 3 79 352
807 5 2 3 30 250 251 724 725 597 595 978 980
808 5 2 3 30 597 595 978 980 596 594 979 981
809 5 2 3 30 596 594 979 981 93 92 352 353
810 5 2 3 30 33 250 725 306 255 597 980 726
811 5 2 3 30 255 597 980 726 254 596 981 727
812 5 2 3 30 254 596 981 727 6 93 353 88
813 5 2 3 31 32 302 730 308 304 714 982 734
814 5 2 3 31 304 714 982 734 305 715 983 735
815 5 2 3 31 305 715 983 735 5 68 370 108
816 5 2 3 31 308 730 731 309 734 982 984 736
817 5 2 3 31 734 982 984 736 735 983 985 737
818 5 2 3 31 735 983 985 737 108 370 371 109
819 5 2 3 31 309 731 168 35 736 984 471 177
820 5 2 3 31 736 984 471 177 737 985 470 176
821 5 2 3 31 737 985 470 176 109 371 100 8
822 5 2 3 31 302 303 732 730 714 716 986 982
823 5 2 3 31 714 716 986 982 715 717 987 983
824 5 2 3 31 715 717 987 983 68 69 372 370
825 5 2 3 31 730 732 733 731 982 986 988 984
826 5 2 3 31 982 986 988 984 983 987 989 985
827 5 2 3 31 983 987 989 985 370 372 373 371
828 5 2 3 31 731 733 169 168 984 988 473 471
829 5 2 3 31 984 988 473 471 985 989 472 470
830 5 2 3 31 985 989 472 470 371 373 101 100
831 5 2 3 31 303 31 278 732 716 276 654 986
832 5 2 3 31 716 276 654 986 717 277 655 987
833 5 2 3 31 717 277 655 987 69 4 105 372
834 5 2 3 31 732 278 279 733 986 654 656 988
835 5 2 3 31 986 654 656 988 987 655 657 989
836 5 2 3 31 987 655 657 989 372 105 104 373
837 5 2 3 31 733 279 34 169 988 656 172 473
838 5 2 3 31 988 656 172 473 989 657 173 472
839 5 2 3 31 989 657 173 472 373 104 7 101
840 5 2 3 32 33 306 738 259 255 726 990 607
841 5 2 3 32 255 726 990 607 254 727 991 606
842 5 2 3 32 254 727 991 606 6 88 386 118
843 5 2 3 32 259 738 739 258 607 990 992 609
844 5 2 3 32 607 990 992 609 606 991 993 608
845 5 2 3 32 606 991 993 608 118 386 387 119
846 5 2 3 32 258 739 182 36 609 992 487 187
847 5 2 3 32 609 992 487 187 608 993 486 186
848 5 2 3 32 608 993 486 186 119 387 114 9
849 5 2 3 32 306 307 740 738 726 728 994 990
850 5 2 3 32 726 728 994 990 727 729 995 991
851 5 2 3 32 727 729 995 991 88 89 388 386
852 5 2 3 32 738 740 741 739 990 994 996 992
853 5 2 3 32 990 994 996 992 991 995 997 993
854 5 2 3 32 991 995 997 993 386 388 389 387
855 5 2 3 32 739 741 183 182 992 996 489 487
856 5 2 3 32 992 996 489 487 993 997 488 486
857 5 2 3 32 993 997 488 486 387 389 115 114
858 5 2 3 32 307 32 308 740 728 304 734 994
859 5 2 3 32 728 304 734 994 729 305 735 995
860 5 2 3 32 729 305 735 995 89 5 108 388
861 5 2 3 32 740 308 309 741 994 734 736 996
862 5 2 3 32 994 734 736 996 995 735 737 997
863 5 2 3 32 995 735 737 997 388 108 109 389
864 5 2 3 32 741 309 35 183 996 736 177 489
865 5 2 3 32 996 736 177 489 997 737 176 488
866 5 2 3 32 997 737 176 488 389 109 8 115
$EndElements
