$MeshFormat
4.1 0 8
$EndMeshFormat
$PhysicalNames
3
2 1 "bc-top"
2 2 "bc-bot"
3 3 "vol"
$EndPhysicalNames
$Entities
10 15 7 1
1 0 0 0.002 0 
2 0 0 0 0 
3 0 0.035 0.002 0 
4 0 0.035 0 0 
5 0.025 0 0 0 
6 0.025 0 0.002 0 
7 0.025 0.035 0.002 0 
8 0.015625 0.0175 0.002 0 
9 0.025 0.035 0 0 
10 0.015625 0.0175 0 0 
1 -1e-07 -1e-07 -1.000000000000566e-07 1e-07 1e-07 0.0020001 0 2 2 -1 
2 -1e-07 -9.999999999940612e-08 0.0019999 1e-07 0.03500010000000001 0.0020001 0 2 1 -3 
3 -1e-07 0.0349999 -1.000000000000566e-07 1e-07 0.03500010000000001 0.0020001 0 2 4 -3 
4 -1e-07 -9.999999999940612e-08 -1e-07 1e-07 0.03500010000000001 1e-07 0 2 2 -4 
5 -9.999999999940612e-08 -1e-07 -1e-07 0.0250001 1e-07 1e-07 0 2 2 -5 
6 0.0249999 -1e-07 -1.000000000000566e-07 0.0250001 1e-07 0.0020001 0 2 5 -6 
7 -9.999999999940612e-08 -1e-07 0.0019999 0.0250001 1e-07 0.0020001 0 2 1 -6 
8 -9.999999999940612e-08 0.0349999 0.0019999 0.0250001 0.03500010000000001 0.0020001 0 2 3 -7 
9 0.0249999 -9.999999999940612e-08 0.0019999 0.0250001 0.03500010000000001 0.0020001 0 2 6 -7 
10 0.009374900000000002 0.0143749 0.0019999 0.0156251 0.0206251 0.0020001 0 2 8 -8 
11 -9.999999999940612e-08 0.0349999 -1e-07 0.0250001 0.03500010000000001 1e-07 0 2 4 -9 
12 0.0249999 0.0349999 -1.000000000000566e-07 0.0250001 0.03500010000000001 0.0020001 0 2 9 -7 
13 0.0249999 -9.999999999940612e-08 -1e-07 0.0250001 0.03500010000000001 1e-07 0 2 5 -9 
14 0.009374900000000002 0.0143749 -1e-07 0.0156251 0.0206251 1e-07 0 2 10 -10 
15 0.0156249 0.0174999 -1.000000000000566e-07 0.0156251 0.0175001 0.0020001 0 2 10 -8 
1 -1e-07 -9.999999999940612e-08 -1.000000000000566e-07 1e-07 0.03500010000000001 0.0020001 0 4 -1 4 3 -2 
2 -9.999999999940612e-08 -1e-07 -1.000000000000566e-07 0.0250001 1e-07 0.0020001 1 2 4 -5 1 7 -6 
3 -9.999999999940612e-08 -9.999999999940612e-08 0.0019999 0.0250001 0.03500010000000001 0.0020001 0 5 -2 7 9 -8 -10 
4 -9.999999999940612e-08 0.0349999 -1.000000000000566e-07 0.0250001 0.03500010000000001 0.0020001 1 1 4 -11 3 8 -12 
5 -9.999999999940612e-08 -9.999999999940612e-08 -1e-07 0.0250001 0.03500010000000001 1e-07 0 5 -4 5 13 -11 -14 
6 0.0249999 -9.999999999940612e-08 -1.000000000000566e-07 0.0250001 0.03500010000000001 0.0020001 0 4 -6 13 12 -9 
7 0.009374900000000002 0.0143749 -1.000000000000566e-07 0.0156251 0.0206251 0.0020001 0 4 -10 -15 14 15 
1 -9.999999999940612e-08 -9.999999999940612e-08 -1.000000000000566e-07 0.0250001 0.03500010000000001 0.0020001 1 3 7 -1 -2 3 4 -5 6 -7 
$EndEntities
$Nodes
33 990 1 990
0 1 0 1
1
0 0 0.002
0 2 0 1
2
0 0 0
0 3 0 1
3
0 0.035 0.002
0 4 0 1
4
0 0.035 0
0 5 0 1
5
0.025 0 0
0 6 0 1
6
0.025 0 0.002
0 7 0 1
7
0.025 0.035 0.002
0 8 0 1
8
0.015625 0.0175 0.002
0 9 0 1
9
0.025 0.035 0
0 10 0 1
10
0.015625 0.0175 0
1 1 0 1
11
0 0 0.001
1 2 0 13
12
13
14
15
16
17
18
19
20
21
22
23
24
0 0.004999999999999988 0.002
0 0.009999999999999981 0.002
0 0.01499999999999997 0.002
0 0.01999999999999997 0.002
0 0.02499999999999998 0.002
0 0.03 0.002
0 0.002499999999999994 0.002
0 0.007499999999999985 0.002
0 0.01249999999999998 0.002
0 0.01749999999999997 0.002
0 0.02249999999999998 0.002
0 0.02749999999999999 0.002
0 0.0325 0.002
1 3 0 1
25
0 0.035 0.001
1 4 0 13
26
27
28
29
30
31
32
33
34
35
36
37
38
0 0.004999999999999988 0
0 0.009999999999999981 0
0 0.01499999999999997 0
0 0.01999999999999997 0
0 0.02499999999999998 0
0 0.03 0
0 0.002499999999999994 0
0 0.007499999999999985 0
0 0.01249999999999998 0
0 0.01749999999999997 0
0 0.02249999999999998 0
0 0.02749999999999999 0
0 0.0325 0
1 5 0 9
39
40
41
42
43
44
45
46
47
0.005000000000000006 0 0
0.01000000000000002 0 0
0.01500000000000002 0 0
0.02000000000000002 0 0
0.002500000000000003 0 0
0.007500000000000012 0 0
0.01250000000000002 0 0
0.01750000000000002 0 0
0.02250000000000001 0 0
1 6 0 1
48
0.025 0 0.001
1 7 0 9
49
50
51
52
53
54
55
56
57
0.005000000000000006 0 0.002
0.01000000000000002 0 0.002
0.01500000000000002 0 0.002
0.02000000000000002 0 0.002
0.002500000000000003 0 0.002
0.007500000000000012 0 0.002
0.01250000000000002 0 0.002
0.01750000000000002 0 0.002
0.02250000000000001 0 0.002
1 8 0 9
58
59
60
61
62
63
64
65
66
0.005000000000000006 0.035 0.002
0.01000000000000002 0.035 0.002
0.01500000000000002 0.035 0.002
0.02000000000000002 0.035 0.002
0.002500000000000003 0.035 0.002
0.007500000000000012 0.035 0.002
0.01250000000000002 0.035 0.002
0.01750000000000002 0.035 0.002
0.02250000000000001 0.035 0.002
1 9 0 13
67
68
69
70
71
72
73
74
75
76
77
78
79
0.025 0.004999999999999988 0.002
0.025 0.009999999999999981 0.002
0.025 0.01499999999999997 0.002
0.025 0.01999999999999997 0.002
0.025 0.02499999999999998 0.002
0.025 0.03 0.002
0.025 0.002499999999999994 0.002
0.025 0.007499999999999985 0.002
0.025 0.01249999999999998 0.002
0.025 0.01749999999999997 0.002
0.025 0.02249999999999998 0.002
0.025 0.02749999999999999 0.002
0.025 0.0325 0.002
1 10 0 13
80
81
82
83
84
85
86
87
88
89
90
91
92
0.01444840563080855 0.01994322338271259 0.002
0.01180462208138653 0.0205466497255682 0.002
0.00968447228780495 0.01885588668474239 0.002
0.009684472287804932 0.01614411331525765 0.002
0.01180462208138651 0.01445335027443181 0.002
0.01444840563080854 0.01505677661728741 0.002
0.01531552771219506 0.01885588668474237 0.002
0.01319537791861349 0.0205466497255682 0.002
0.01055159436919147 0.0199432233827126 0.002
0.009375000000000001 0.01750000000000002 0.002
0.01055159436919145 0.01505677661728742 0.002
0.01319537791861348 0.0144533502744318 0.002
0.01531552771219506 0.01614411331525763 0.002
1 11 0 9
93
94
95
96
97
98
99
100
101
0.005000000000000006 0.035 0
0.01000000000000002 0.035 0
0.01500000000000002 0.035 0
0.02000000000000002 0.035 0
0.002500000000000003 0.035 0
0.007500000000000012 0.035 0
0.01250000000000002 0.035 0
0.01750000000000002 0.035 0
0.02250000000000001 0.035 0
1 12 0 1
102
0.025 0.035 0.001
1 13 0 13
103
104
105
106
107
108
109
110
111
112
113
114
115
0.025 0.004999999999999988 0
0.025 0.009999999999999981 0
0.025 0.01499999999999997 0
0.025 0.01999999999999997 0
0.025 0.02499999999999998 0
0.025 0.03 0
0.025 0.002499999999999994 0
0.025 0.007499999999999985 0
0.025 0.01249999999999998 0
0.025 0.01749999999999997 0
0.025 0.02249999999999998 0
0.025 0.02749999999999999 0
0.025 0.0325 0
1 14 0 13
116
117
118
119
120
121
122
123
124
125
126
127
128
0.01444840563080855 0.01994322338271259 0
0.01180462208138653 0.0205466497255682 0
0.00968447228780495 0.01885588668474239 0
0.009684472287804932 0.01614411331525765 0
0.01180462208138651 0.01445335027443181 0
0.01444840563080854 0.01505677661728741 0
0.01531552771219506 0.01885588668474237 0
0.01319537791861349 0.0205466497255682 0
0.01055159436919147 0.0199432233827126 0
0.009375000000000001 0.01750000000000002 0
0.01055159436919145 0.01505677661728742 0
0.01319537791861348 0.0144533502744318 0
0.01531552771219506 0.01614411331525763 0
1 15 0 1
129
0.015625 0.0175 0.001
2 1 0 25
130
131
132
133
134
135
136
137
138
139
140
141
142
143
144
145
146
147
148
149
150
151
152
153
154
0 0.007499999999999984 0.001
0 0.002499999999999994 0.001
0 0.01249999999999998 0.001
0 0.001249999999999997 0.0015
0 0.001249999999999997 0.0005
0 0.003749999999999991 0.0015
0 0.003749999999999991 0.0005
0 0.0325 0.001
0 0.03 0.001
0 0.008749999999999983 0.0015
0 0.006249999999999986 0.0015
0 0.004999999999999988 0.001
0 0.006249999999999986 0.0005
0 0.01374999999999997 0.0015
0 0.01124999999999998 0.0015
0 0.009999999999999981 0.001
0 0.008749999999999983 0.0005
0 0.01124999999999998 0.0005
0 0.01749999999999997 0.001
0 0.01499999999999997 0.001
0 0.01374999999999997 0.0005
0 0.02249999999999998 0.001
0 0.01999999999999997 0.001
0 0.02749999999999999 0.001
0 0.02499999999999998 0.001
2 2 0 13
155
156
157
158
159
160
161
162
163
164
165
166
167
0.02250000000000001 0 0.001
0.002500000000000003 0 0.001
0.005000000000000006 0 0.001
0.02375000000000001 0 0.0015
0.02375000000000001 0 0.0005
0.02125000000000001 0 0.0005
0.02125000000000001 0 0.0015
0.007500000000000012 0 0.001
0.01500000000000002 0 0.001
0.01250000000000002 0 0.001
0.01000000000000002 0 0.001
0.01750000000000002 0 0.001
0.02000000000000002 0 0.001
2 3 0 235
168
169
170
171
172
173
174
175
176
177
178
179
180
181
182
183
184
185
186
187
188
189
190
191
192
193
194
195
196
197
198
199
200
201
202
203
204
205
206
207
208
209
210
211
212
213
214
215
216
217
218
219
220
221
222
223
224
225
226
227
228
229
230
231
232
233
234
235
236
237
238
239
240
241
242
243
244
245
246
247
248
249
250
251
252
253
254
255
256
257
258
259
260
261
262
263
264
265
266
267
268
269
270
271
272
273
274
275
276
277
278
279
280
281
282
283
284
285
286
287
288
289
290
291
292
293
294
295
296
297
298
299
300
301
302
303
304
305
306
307
308
309
310
311
312
313
314
315
316
317
318
319
320
321
322
323
324
325
326
327
328
329
330
331
332
333
334
335
336
337
338
339
340
341
342
343
344
345
346
347
348
349
350
351
352
353
354
355
356
357
358
359
360
361
362
363
364
365
366
367
368
369
370
371
372
373
374
375
376
377
378
379
380
381
382
383
384
385
386
387
388
389
390
391
392
393
394
395
396
397
398
399
400
401
402
0.01366965235433022 0.022617468134335 0.002
0.0136696523543302 0.01238253186566499 0.002
0.01085153500481859 0.0233856916885422 0.002
0.01085153500481854 0.01161430831145781 0.002
0.01292145921466466 0.02574751242619159 0.002
0.00933146974009259 0.02663231973655237 0.002
0.01292145921466462 0.009252487573808392 0.002
0.009331469740092534 0.008367680263447624 0.002
0.01706510417988186 0.0131443469967542 0.002
0.01706510417988188 0.02185565300324577 0.002
0.006975976394781643 0.01763782521523111 0.002
0.007133158039968179 0.01453186659526371 0.002
0.00698812704173865 0.02064574065638626 0.002
0.02066987298107782 0.007499999999999985 0.002
0.0206698729810778 0.02749999999999999 0.002
0.01183187408937391 0.02955393690688847 0.002
0.01183187408937385 0.00544606309311151 0.002
0.02123455391506851 0.01749999999999998 0.002
0.004674538169556638 0.02716103890904787 0.002
0.004674538169556606 0.007838961090952121 0.002
0.007416356006144591 0.03078117358577405 0.002
0.007416356006144566 0.004218826414225938 0.002
0.02095619241748977 0.01299591981105998 0.002
0.02095619241748979 0.02200408018893997 0.002
0.01614581042553961 0.007193711115890937 0.002
0.01614581042553965 0.02780628888410903 0.002
0.003937769694218656 0.01226843199333678 0.002
0.003922655761071636 0.02320576092122115 0.002
0.003633142776157249 0.01651711524389175 0.002
0.007570602825715957 0.01139221348354216 0.002
0.007543912003819896 0.02371641987749249 0.002
0.003751952527975015 0.01966456765951893 0.002
0.01806849648129253 0.01025478518380675 0.002
0.01810628064910184 0.00350149481819257 0.002
0.01806849648129254 0.02474521481619321 0.002
0.01810628064910186 0.03149850518180742 0.002
0.01688606282627094 0.01562663377293957 0.002
0.01688606282627095 0.01937336622706042 0.002
0.01550550240247358 0.01043994799532867 0.002
0.01550550240247359 0.0245600520046713 0.002
0.009408878047938824 0.01362717039599063 0.002
0.009495146305641281 0.02126796735320512 0.002
0.003660254037844388 0.03133974596215561 0.002
0.003660254037844382 0.003660254037844376 0.002
0.01807981081751118 0.01749999999999999 0.002
0.01467141686599378 0.03153415858473559 0.002
0.0146714168659937 0.003465841415264393 0.002
0.02186818869631135 0.003100046796313251 0.002
0.02186818869631136 0.03189995320368674 0.002
0.01898877241885875 0.01964260247568167 0.002
0.01898877241885873 0.0153573975243183 0.002
0.001830127018922191 0.001830127018922188 0.002
0.001830127018922191 0.004330127018922182 0.002
0.004330127018922194 0.001830127018922188 0.002
0.001830127018922194 0.0306698729810778 0.002
0.001830127018922194 0.03316987298107781 0.002
0.004330127018922197 0.03316987298107781 0.002
0.02343409434815568 0.001550023398156626 0.002
0.02093409434815569 0.001550023398156626 0.002
0.02343409434815568 0.004050023398156619 0.002
0.02093409434815569 0.03344997660184337 0.002
0.02343409434815568 0.03344997660184337 0.002
0.02343409434815568 0.03094997660184337 0.002
0.01625553141313547 0.01843668311353021 0.002
0.01566723422853975 0.0196582948048865 0.002
0.01566723422853974 0.01534170519511349 0.002
0.01625553141313547 0.01656331688646979 0.002
0.01748293682189106 0.01656331688646978 0.002
0.01685240540875559 0.01749999999999999 0.002
0.01748293682189107 0.01843668311353021 0.002
0.002337269084778303 0.006419480545476055 0.002
0.002337269084778303 0.00891948054547605 0.002
0.004167396103700494 0.005749607564398249 0.002
0.001968884847109328 0.01113421599666838 0.002
0.001968884847109328 0.01363421599666838 0.002
0.004306153931887631 0.01005369654214445 0.002
0.001816571388078624 0.01575855762194586 0.002
0.001816571388078624 0.01825855762194586 0.002
0.003785456235187952 0.01439277361861426 0.002
0.001961327880535818 0.02160288046061056 0.002
0.001961327880535818 0.02410288046061057 0.002
0.001875976263987507 0.01983228382975945 0.002
0.003837304144523325 0.02143516429037004 0.002
0.003692547652066132 0.01809084145170534 0.002
0.002337269084778319 0.02608051945452393 0.002
0.002337269084778319 0.02858051945452393 0.002
0.004298596965314137 0.02518339991513451 0.002
0.004167396103700513 0.02925039243560174 0.002
0.008708178003072293 0.002109413207112969 0.002
0.006208178003072286 0.002109413207112969 0.002
0.005538305021994474 0.003939540226035157 0.002
0.01483570843299686 0.001732920707632196 0.002
0.01233570843299686 0.001732920707632196 0.002
0.009624115047759211 0.004832444753668724 0.002
0.01091593704468694 0.002723031546555755 0.002
0.01325164547768378 0.004455952254187951 0.002
0.01905314032455093 0.001750747409096285 0.002
0.01655314032455093 0.001750747409096285 0.002
0.01638884875754777 0.003483668116728482 0.002
0.01998723467270659 0.003300770807252911 0.002
0.006208178003072298 0.03289058679288703 0.002
0.008708178003072303 0.03289058679288703 0.002
0.00553830502199449 0.03106045977396483 0.002
0.0123357084329969 0.03326707929236779 0.002
0.0148357084329969 0.03326707929236779 0.002
0.009624115047759247 0.03016755524633126 0.002
0.01091593704468696 0.03227696845344424 0.002
0.01325164547768385 0.03054404774581203 0.002
0.01655314032455094 0.03324925259090371 0.002
0.01905314032455094 0.03324925259090371 0.002
0.01638884875754782 0.03151633188327151 0.002
0.01998723467270661 0.03169922919274708 0.002
0.02283493649053891 0.008749999999999983 0.002
0.02283493649053891 0.006249999999999986 0.002
0.02126903083869459 0.005300023398156618 0.002
0.02297809620874489 0.01399795990552997 0.002
0.02297809620874489 0.01149795990552998 0.002
0.0208130326992838 0.01024795990552998 0.002
0.02311727695753426 0.01874999999999998 0.002
0.02311727695753426 0.01624999999999997 0.002
0.02109537316627914 0.01524795990552998 0.002
0.02297809620874489 0.02350204009446998 0.002
0.02297809620874489 0.02100204009446997 0.002
0.02109537316627915 0.01975204009446998 0.002
0.0228349364905389 0.02875 0.002
0.0228349364905389 0.02624999999999999 0.002
0.02081303269928379 0.02475204009446998 0.002
0.02126903083869458 0.02969997660184337 0.002
0.01405902899256939 0.0212803457585238 0.002
0.01273713721785838 0.0215820589299516 0.002
0.01575675490534521 0.02089943819297918 0.002
0.01536737826710605 0.02223656056879039 0.002
0.01697558350307642 0.0206145096151531 0.002
0.0106498841935139 0.02090730853938666 0.002
0.009589809296723116 0.02006192701897375 0.002
0.0122605936795744 0.0230015799114386 0.002
0.01132807854310256 0.0219661707070552 0.002
0.01017334065522993 0.02232682952087366 0.002
0.008330224341293296 0.01824685594998675 0.002
0.008330224341293288 0.01689096926524438 0.002
0.0083362996647718 0.01975081367056433 0.002
0.006982051718260147 0.01914178293580869 0.002
0.008241636673689965 0.02095685400479569 0.002
0.009546675167871877 0.01488564185562414 0.002
0.01060675006466267 0.01404026033521122 0.002
0.007054567217374911 0.01608484590524741 0.002
0.008408815163886555 0.01533798995526068 0.002
0.008271018043953502 0.01407951849562717 0.002
0.01273713721785835 0.0134179410700484 0.002
0.01405902899256937 0.0137196542414762 0.002
0.01132807854310252 0.01303382929294481 0.002
0.01226059367957437 0.0119984200885614 0.002
0.01013020652637868 0.01262073935372422 0.002
0.01536737826710603 0.01276343943120959 0.002
0.0157567549053452 0.0141005618070208 0.002
0.0169755835030764 0.01438549038484688 0.002
0.01329555578449744 0.02418249028026329 0.002
0.01188649710974162 0.02456660205736689 0.002
0.0145875773784019 0.02358876006950315 0.002
0.01421348080856913 0.02515378221543144 0.002
0.01628530329117774 0.02320785250395854 0.002
0.01188649710974158 0.0104333979426331 0.002
0.01329555578449741 0.01081750971973669 0.002
0.0142134808085691 0.009846217784568533 0.002
0.01458757737840189 0.01141123993049683 0.002
0.01628530329117772 0.01179214749604143 0.002
0.01112646447737863 0.02618991608137198 0.002
0.01009150237245559 0.02500900571254728 0.002
0.008437690871956243 0.02517436980702243 0.002
0.009197723504319241 0.02355105578301735 0.002
0.008519529154730587 0.02249219361534881 0.002
0.01009150237245554 0.009990994287452716 0.002
0.01112646447737858 0.008810083918628007 0.002
0.00921106891526725 0.01150326089749998 0.002
0.008451036282904245 0.009879946873494892 0.002
0.008489740436827391 0.01250969193976639 0.002
0.01237666665201928 0.02765072466654003 0.002
0.01058167191473325 0.02809312832172042 0.002
0.01453363482010215 0.02677690065515031 0.002
0.01398884225745678 0.02868011289549875 0.002
0.01582565641400662 0.02618317044439017 0.002
0.00837391287311859 0.02870674666116321 0.002
0.006045447087850615 0.02897110624741096 0.002
0.007003003954824614 0.02689667932280012 0.002
0.006109225086688267 0.02543872939327018 0.002
0.01058167191473319 0.006906871678279566 0.002
0.01237666665201924 0.007349275333459951 0.002
0.01398884225745673 0.006319887104501223 0.002
0.01453363482010211 0.008223099344849664 0.002
0.01582565641400659 0.008816829555609805 0.002
0.00837391287311855 0.00629325333883678 0.002
0.006045447087850586 0.00602889375258903 0.002
0.00700300395482457 0.008103320677199873 0.002
0.006122570497636282 0.009615587287247139 0.002
0.01756680033058719 0.01169956609028048 0.002
0.01951234444939115 0.01162535249743336 0.002
0.01901064829868582 0.01307013340390709 0.002
0.01997248241817425 0.01417665866768914 0.002
0.0180269382993703 0.01425087226053625 0.002
0.01678699944188305 0.01034736658956771 0.002
0.01793741762256484 0.01549201564862894 0.002
0.01951234444939116 0.02337464750256659 0.002
0.01756680033058721 0.02330043390971949 0.002
0.01901064829868583 0.02192986659609288 0.002
0.01802693829937031 0.02074912773946372 0.002
0.01997248241817427 0.02082334133231082 0.002
0.01678699944188307 0.02465263341043226 0.002
0.01793741762256485 0.01950798435137104 0.002
0.005304559585469446 0.01707747022956143 0.002
0.005383150408062714 0.01552449091957773 0.002
0.005370039784856832 0.02015515415795259 0.002
0.005363964461378328 0.01865119643737502 0.002
0.005535463867093417 0.01340014929430025 0.002
0.005754186259967307 0.01183032273843947 0.002
0.007351880432842068 0.01296204003940294 0.002
0.007266019522779273 0.02218108026693938 0.002
0.005733283882445766 0.02346109039935682 0.002
0.005455391401405143 0.02192575078880371 0.002
0.01936918473118517 0.00887739259190337 0.002
0.01710715345341607 0.008724248149848846 0.002
0.01840784170330871 0.007346855557945461 0.002
0.01712604553732072 0.005347602967041754 0.002
0.01938807681508983 0.005500747409096278 0.002
0.01936918473118517 0.0261226074080966 0.002
0.01710715345341609 0.02627575185015112 0.002
0.01840784170330872 0.02765314444205452 0.002
0.01938807681508983 0.0294992525909037 0.002
0.01712604553732075 0.02965239703295823 0.002
0.01540861364576672 0.02967022373442231 0.002
0.01540861364576666 0.005329776265577665 0.002
0.02011166316696362 0.01642869876215914 0.002
0.02011166316696363 0.01857130123784082 0.002
0.01853429161818496 0.01857130123784083 0.002
0.01965718236628985 0.01749999999999998 0.002
0.01853429161818496 0.01642869876215915 0.002
2 4 0 13
403
404
405
406
407
408
409
410
411
412
413
414
415
0.02250000000000001 0.035 0.001
0.002500000000000003 0.035 0.001
0.005000000000000006 0.035 0.001
0.02375000000000001 0.035 0.0005
0.02375000000000001 0.035 0.0015
0.02125000000000001 0.035 0.0015
0.02125000000000001 0.035 0.0005
0.007500000000000012 0.035 0.001
0.01500000000000002 0.035 0.001
0.01250000000000002 0.035 0.001
0.01000000000000002 0.035 0.001
0.02000000000000002 0.035 0.001
0.01750000000000002 0.035 0.001
2 5 0 235
416
417
418
419
420
421
422
423
424
425
426
427
428
429
430
431
432
433
434
435
436
437
438
439
440
441
442
443
444
445
446
447
448
449
450
451
452
453
454
455
456
457
458
459
460
461
462
463
464
465
466
467
468
469
470
471
472
473
474
475
476
477
478
479
480
481
482
483
484
485
486
487
488
489
490
491
492
493
494
495
496
497
498
499
500
501
502
503
504
505
506
507
508
509
510
511
512
513
514
515
516
517
518
519
520
521
522
523
524
525
526
527
528
529
530
531
532
533
534
535
536
537
538
539
540
541
542
543
544
545
546
547
548
549
550
551
552
553
554
555
556
557
558
559
560
561
562
563
564
565
566
567
568
569
570
571
572
573
574
575
576
577
578
579
580
581
582
583
584
585
586
587
588
589
590
591
592
593
594
595
596
597
598
599
600
601
602
603
604
605
606
607
608
609
610
611
612
613
614
615
616
617
618
619
620
621
622
623
624
625
626
627
628
629
630
631
632
633
634
635
636
637
638
639
640
641
642
643
644
645
646
647
648
649
650
0.01366965235433022 0.02261746813433501 0
0.0136696523543302 0.01238253186566499 0
0.01085153500481859 0.0233856916885422 0
0.01085153500481854 0.01161430831145781 0
0.01292145921466465 0.0257475124261916 0
0.009331469740092576 0.02663231973655236 0
0.01292145921466462 0.009252487573808392 0
0.009331469740092534 0.008367680263447624 0
0.01706510417988186 0.01314434699675419 0
0.01706510417988188 0.02185565300324578 0
0.006975976394781645 0.01763782521523111 0
0.007133158039968179 0.01453186659526371 0
0.006988127041738653 0.02064574065638626 0
0.02066987298107782 0.007499999999999985 0
0.0206698729810778 0.02749999999999999 0
0.01183187408937388 0.02955393690688847 0
0.01183187408937385 0.00544606309311151 0
0.02123455391506851 0.01749999999999998 0
0.004674538169556629 0.02716103890904786 0
0.004674538169556606 0.007838961090952121 0
0.00741635600614458 0.03078117358577405 0
0.007416356006144566 0.004218826414225938 0
0.02095619241748977 0.01299591981105998 0
0.02095619241748978 0.02200408018893997 0
0.01614581042553961 0.007193711115890937 0
0.01614581042553963 0.02780628888410905 0
0.003937769694218656 0.01226843199333678 0
0.003922655761071638 0.02320576092122115 0
0.003633142776157249 0.01651711524389175 0
0.007570602825715957 0.01139221348354216 0
0.00754391200381989 0.02371641987749249 0
0.003751952527975019 0.01966456765951892 0
0.01806849648129253 0.01025478518380675 0
0.01810628064910184 0.00350149481819257 0
0.01806849648129254 0.02474521481619322 0
0.01810628064910185 0.03149850518180742 0
0.01688606282627094 0.01562663377293957 0
0.01688606282627095 0.01937336622706043 0
0.01550550240247361 0.02456005200467131 0
0.01550550240247358 0.01043994799532867 0
0.009408878047938824 0.01362717039599063 0
0.009495146305641277 0.02126796735320513 0
0.003660254037844388 0.03133974596215561 0
0.003660254037844382 0.003660254037844376 0
0.01812781179939926 0.0175 0
0.01467141686599372 0.0315341585847356 0
0.0146714168659937 0.003465841415264393 0
0.02186818869631135 0.003100046796313251 0
0.02186818869631136 0.03189995320368674 0
0.01899562970198562 0.01964260247568169 0
0.0189956297019856 0.0153573975243183 0
0.001830127018922191 0.004330127018922182 0
0.001830127018922191 0.001830127018922188 0
0.004330127018922194 0.001830127018922188 0
0.001830127018922194 0.03316987298107781 0
0.001830127018922194 0.0306698729810778 0
0.004330127018922197 0.03316987298107781 0
0.02093409434815569 0.001550023398156626 0
0.02343409434815568 0.001550023398156626 0
0.02343409434815568 0.004050023398156619 0
0.02343409434815568 0.03344997660184337 0
0.02093409434815569 0.03344997660184337 0
0.02343409434815568 0.03094997660184337 0
0.01566723422853975 0.01965829480488651 0
0.01625553141313547 0.01843668311353022 0
0.01625553141313547 0.01656331688646978 0
0.01566723422853974 0.01534170519511349 0
0.01687640589969963 0.0175 0
0.0175069373128351 0.01656331688646978 0
0.01750693731283511 0.01843668311353022 0
0.002337269084778303 0.00891948054547605 0
0.002337269084778303 0.006419480545476055 0
0.004167396103700494 0.005749607564398249 0
0.001968884847109328 0.01363421599666838 0
0.001968884847109328 0.01113421599666838 0
0.004306153931887631 0.01005369654214445 0
0.001816571388078625 0.01825855762194586 0
0.001816571388078625 0.01575855762194586 0
0.003785456235187953 0.01439277361861426 0
0.001961327880535819 0.02410288046061056 0
0.001961327880535819 0.02160288046061056 0
0.003837304144523329 0.02143516429037003 0
0.00187597626398751 0.01983228382975944 0
0.003692547652066135 0.01809084145170533 0
0.002337269084778314 0.02858051945452393 0
0.002337269084778314 0.02608051945452392 0
0.004298596965314133 0.02518339991513451 0
0.004167396103700509 0.02925039243560174 0
0.006208178003072286 0.002109413207112969 0
0.008708178003072293 0.002109413207112969 0
0.005538305021994474 0.003939540226035157 0
0.01233570843299686 0.001732920707632196 0
0.01483570843299686 0.001732920707632196 0
0.01091593704468694 0.002723031546555755 0
0.009624115047759211 0.004832444753668724 0
0.01325164547768378 0.004455952254187951 0
0.01655314032455093 0.001750747409096285 0
0.01905314032455093 0.001750747409096285 0
0.01638884875754777 0.003483668116728482 0
0.01998723467270659 0.003300770807252911 0
0.0087081780030723 0.03289058679288703 0
0.006208178003072293 0.03289058679288703 0
0.005538305021994485 0.03106045977396483 0
0.01483570843299687 0.0332670792923678 0
0.01233570843299687 0.0332670792923678 0
0.01091593704468695 0.03227696845344424 0
0.009624115047759228 0.03016755524633126 0
0.0132516454776838 0.03054404774581203 0
0.01905314032455093 0.03324925259090371 0
0.01655314032455094 0.03324925259090371 0
0.01638884875754779 0.03151633188327151 0
0.01998723467270661 0.03169922919274708 0
0.02283493649053891 0.006249999999999986 0
0.02283493649053891 0.008749999999999983 0
0.02126903083869459 0.005300023398156618 0
0.02297809620874489 0.01149795990552998 0
0.02297809620874489 0.01399795990552997 0
0.0208130326992838 0.01024795990552998 0
0.02311727695753426 0.01624999999999998 0
0.02311727695753426 0.01874999999999998 0
0.02109537316627914 0.01524795990552998 0
0.02297809620874489 0.02100204009446997 0
0.02297809620874489 0.02350204009446998 0
0.02109537316627915 0.01975204009446998 0
0.0228349364905389 0.02624999999999999 0
0.0228349364905389 0.02875 0
0.02081303269928379 0.02475204009446998 0
0.02126903083869458 0.02969997660184337 0
0.01273713721785838 0.0215820589299516 0
0.01405902899256939 0.0212803457585238 0
0.01536737826710605 0.0222365605687904 0
0.01575675490534521 0.02089943819297919 0
0.01697558350307642 0.02061450961515311 0
0.009589809296723113 0.02006192701897376 0
0.0106498841935139 0.02090730853938667 0
0.01132807854310256 0.0219661707070552 0
0.01226059367957441 0.0230015799114386 0
0.01017334065522993 0.02232682952087366 0
0.008330224341293289 0.01689096926524438 0
0.008330224341293296 0.01824685594998675 0
0.006982051718260149 0.01914178293580869 0
0.008336299664771802 0.01975081367056433 0
0.008241636673689965 0.0209568540047957 0
0.01060675006466267 0.01404026033521122 0
0.009546675167871877 0.01488564185562414 0
0.008408815163886555 0.01533798995526068 0
0.007054567217374912 0.01608484590524741 0
0.008271018043953502 0.01407951849562717 0
0.01405902899256937 0.0137196542414762 0
0.01273713721785835 0.0134179410700484 0
0.01226059367957437 0.0119984200885614 0
0.01132807854310252 0.01303382929294481 0
0.01013020652637868 0.01262073935372422 0
0.0157567549053452 0.0141005618070208 0
0.01536737826710603 0.01276343943120959 0
0.0169755835030764 0.01438549038484688 0
0.01188649710974162 0.0245666020573669 0
0.01329555578449744 0.0241824902802633 0
0.01421348080856913 0.02515378221543145 0
0.01458757737840191 0.02358876006950316 0
0.01628530329117774 0.02320785250395855 0
0.01329555578449741 0.01081750971973669 0
0.01188649710974158 0.0104333979426331 0
0.01458757737840189 0.01141123993049683 0
0.0142134808085691 0.009846217784568533 0
0.01628530329117772 0.01179214749604143 0
0.01009150237245558 0.02500900571254728 0
0.01112646447737861 0.02618991608137198 0
0.009197723504319239 0.02355105578301734 0
0.008437690871956234 0.02517436980702243 0
0.008519529154730584 0.02249219361534881 0
0.01112646447737858 0.008810083918628007 0
0.01009150237245554 0.009990994287452716 0
0.008451036282904245 0.009879946873494892 0
0.00921106891526725 0.01150326089749998 0
0.008489740436827391 0.01250969193976639 0
0.01058167191473323 0.02809312832172042 0
0.01237666665201926 0.02765072466654004 0
0.01398884225745675 0.02868011289549876 0
0.01453363482010214 0.02677690065515032 0
0.01582565641400662 0.02618317044439018 0
0.008373912873118578 0.02870674666116321 0
0.007003003954824602 0.02689667932280011 0
0.006045447087850604 0.02897110624741096 0
0.00610922508668826 0.02543872939327018 0
0.01237666665201924 0.007349275333459951 0
0.01058167191473319 0.006906871678279566 0
0.01453363482010211 0.008223099344849664 0
0.01398884225745673 0.006319887104501223 0
0.01582565641400659 0.008816829555609805 0
0.00837391287311855 0.00629325333883678 0
0.00700300395482457 0.008103320677199873 0
0.006045447087850586 0.00602889375258903 0
0.006122570497636282 0.009615587287247139 0
0.01901064829868582 0.01307013340390709 0
0.01951234444939115 0.01162535249743336 0
0.01756680033058719 0.01169956609028047 0
0.01803036694093373 0.01425087226053625 0
0.01997591105973769 0.01417665866768914 0
0.01678699944188305 0.01034736658956771 0
0.01794084626412827 0.01549201564862893 0
0.01901064829868583 0.02192986659609288 0
0.01756680033058721 0.0233004339097195 0
0.01951234444939116 0.02337464750256659 0
0.0199759110597377 0.02082334133231083 0
0.01803036694093375 0.02074912773946374 0
0.01678699944188307 0.02465263341043226 0
0.01794084626412829 0.01950798435137106 0
0.005383150408062714 0.01552449091957773 0
0.005304559585469448 0.01707747022956143 0
0.005363964461378332 0.01865119643737502 0
0.005370039784856836 0.02015515415795259 0
0.005535463867093417 0.01340014929430025 0
0.007351880432842068 0.01296204003940294 0
0.005754186259967307 0.01183032273843947 0
0.005455391401405146 0.0219257507888037 0
0.005733283882445765 0.02346109039935682 0
0.007266019522779272 0.02218108026693938 0
0.01936918473118517 0.008877392591903368 0
0.01840784170330871 0.007346855557945461 0
0.01710715345341607 0.008724248149848844 0
0.01938807681508983 0.005500747409096278 0
0.01712604553732072 0.005347602967041754 0
0.01936918473118517 0.02612260740809661 0
0.01840784170330871 0.02765314444205452 0
0.01710715345341608 0.02627575185015114 0
0.01712604553732074 0.02965239703295823 0
0.01938807681508983 0.0294992525909037 0
0.01540861364576667 0.02967022373442232 0
0.01540861364576666 0.005329776265577665 0
0.02011509180852706 0.01642869876215914 0
0.02011509180852707 0.01857130123784084 0
0.01968118285723389 0.01749999999999999 0
0.01856172075069244 0.01857130123784084 0
0.01856172075069243 0.01642869876215915 0
2 6 0 25
651
652
653
654
655
656
657
658
659
660
661
662
663
664
665
666
667
668
669
670
671
672
673
674
675
0.025 0.007499999999999984 0.001
0.025 0.002499999999999994 0.001
0.025 0.01249999999999998 0.001
0.025 0.001249999999999997 0.0005
0.025 0.001249999999999997 0.0015
0.025 0.003749999999999991 0.0005
0.025 0.003749999999999991 0.0015
0.025 0.0325 0.001
0.025 0.03 0.001
0.025 0.006249999999999986 0.0015
0.025 0.008749999999999983 0.0015
0.025 0.006249999999999986 0.0005
0.025 0.004999999999999988 0.001
0.025 0.01124999999999998 0.0015
0.025 0.01374999999999997 0.0015
0.025 0.008749999999999983 0.0005
0.025 0.009999999999999981 0.001
0.025 0.01124999999999998 0.0005
0.025 0.01499999999999997 0.001
0.025 0.01749999999999997 0.001
0.025 0.01374999999999997 0.0005
0.025 0.01999999999999997 0.001
0.025 0.02249999999999998 0.001
0.025 0.02499999999999998 0.001
0.025 0.02749999999999999 0.001
2 7 0 41
676
677
678
679
680
681
682
683
684
685
686
687
688
689
690
691
692
693
694
695
696
697
698
699
700
701
702
703
704
705
706
707
708
709
710
711
712
713
714
715
716
0.01319537791861348 0.0144533502744318 0.001002214213990867
0.01055159436919145 0.01505677661728742 0.001002214213990867
0.01531552771219506 0.01614411331525764 0.0009977857860091334
0.01055159436919147 0.0199432233827126 0.0009977857860091338
0.009375000000000001 0.01750000000000003 0.0009977857860091329
0.01531552771219506 0.01885588668474237 0.001002214213990866
0.01319537791861349 0.0205466497255682 0.001002214213990867
0.0155466497255682 0.01680462208138652 0.0004988928930045667
0.0155466497255682 0.01680462208138652 0.001498892893004567
0.0155466497255682 0.01819537791861348 0.001501107106995433
0.0155466497255682 0.01819537791861348 0.0005011071069954331
0.0149432233827126 0.01944840563080854 0.001501107106995433
0.01494322338271259 0.01555159436919146 0.001498892893004567
0.0149432233827126 0.01944840563080854 0.0005011071069954331
0.01494322338271259 0.01555159436919146 0.0004988928930045667
0.01250000000000001 0.020625 0.001501107106995433
0.01385588668474238 0.02031552771219506 0.001501107106995433
0.01444840563080855 0.01994322338271259 0.001
0.01385588668474238 0.02031552771219506 0.0005011071069954333
0.01005677661728742 0.01944840563080856 0.001498892893004567
0.01114411331525764 0.02031552771219507 0.001498892893004567
0.01180462208138653 0.0205466497255682 0.001
0.01114411331525764 0.02031552771219507 0.0004988928930045669
0.01250000000000001 0.020625 0.0005011071069954333
0.009453350274431796 0.01680462208138654 0.001498892893004566
0.009453350274431806 0.0181953779186135 0.001498892893004566
0.00968447228780495 0.01885588668474239 0.001
0.01005677661728742 0.01944840563080856 0.0004988928930045669
0.009453350274431806 0.0181953779186135 0.0004988928930045665
0.01114411331525762 0.01468447228780495 0.001501107106995433
0.01005677661728739 0.01555159436919147 0.001501107106995433
0.009684472287804932 0.01614411331525765 0.001
0.01005677661728739 0.01555159436919147 0.0005011071069954333
0.009453350274431796 0.01680462208138654 0.0004988928930045665
0.01385588668474237 0.01468447228780494 0.001501107106995434
0.01249999999999999 0.014375 0.001501107106995434
0.01180462208138651 0.01445335027443181 0.001
0.01249999999999999 0.014375 0.0005011071069954335
0.01114411331525762 0.01468447228780495 0.0005011071069954333
0.01444840563080854 0.01505677661728741 0.001
0.01385588668474237 0.01468447228780494 0.0005011071069954335
3 1 0 274
717
718
719
720
721
722
723
724
725
726
727
728
729
730
731
732
733
734
735
736
737
738
739
740
741
742
743
744
745
746
747
748
749
750
751
752
753
754
755
756
757
758
759
760
761
762
763
764
765
766
767
768
769
770
771
772
773
774
775
776
777
778
779
780
781
782
783
784
785
786
787
788
789
790
791
792
793
794
795
796
797
798
799
800
801
802
803
804
805
806
807
808
809
810
811
812
813
814
815
816
817
818
819
820
821
822
823
824
825
826
827
828
829
830
831
832
833
834
835
836
837
838
839
840
841
842
843
844
845
846
847
848
849
850
851
852
853
854
855
856
857
858
859
860
861
862
863
864
865
866
867
868
869
870
871
872
873
874
875
876
877
878
879
880
881
882
883
884
885
886
887
888
889
890
891
892
893
894
895
896
897
898
899
900
901
902
903
904
905
906
907
908
909
910
911
912
913
914
915
916
917
918
919
920
921
922
923
924
925
926
927
928
929
930
931
932
933
934
935
936
937
938
939
940
941
942
943
944
945
946
947
948
949
950
951
952
953
954
955
956
957
958
959
960
961
962
963
964
965
966
967
968
969
970
971
972
973
974
975
976
977
978
979
980
981
982
983
984
985
986
987
988
989
990
0.01586009519807991 0.002561906281207852 0.0008968601953700874
0.001968884847109328 0.01238421599666838 0.0015
0.01810628064910184 0.00350149481819257 0.001
0.01655314032455093 0.001750747409096285 0.001
0.01543004759903997 0.001280953140603926 0.001448430097685044
0.01698318792359087 0.003031700549700211 0.0004484300976850437
0.01698318792359087 0.003031700549700211 0.001448430097685044
0.02283493649053891 0.007499999999999984 0.0005
0.02283493649053891 0.007499999999999984 0.0015
0.02343409434815568 0.002800023398156623 0.0015
0.02343409434815568 0.002800023398156623 0.0005
0.02218409434815568 0.001550023398156626 0.0015
0.02218409434815569 0.03344997660184337 0.0015
0.002337269084778303 0.007669480545476053 0.0015
0.002337269084778303 0.007669480545476053 0.0005
0.01543004759903997 0.001280953140603926 0.0004484300976850437
0.001968884847109328 0.01238421599666838 0.0005
0.02297809620874489 0.01274795990552998 0.0015
0.02218409434815568 0.001550023398156626 0.0005
0.02297809620874489 0.01274795990552998 0.0005
0.001830127018922191 0.003080127018922185 0.0005
0.02218409434815568 0.03344997660184337 0.0005
0.001830127018922191 0.003080127018922185 0.0015
0.01610079526923301 0.0191146264559014 0.001501107106995433
0.01566723422853975 0.0196582948048865 0.001
0.01688606282627095 0.01937336622706043 0.001
0.01610079526923301 0.0191146264559014 0.0005011071069954331
0.016100795269233 0.0158853735440986 0.001498892893004567
0.016100795269233 0.0158853735440986 0.0004988928930045667
0.01566723422853974 0.01534170519511349 0.001
0.01688606282627094 0.01562663377293957 0.001
0.01526575603203681 0.003013873848236122 0.0004484300976850437
0.01625553141313547 0.01656331688646978 0.001
0.01625553141313547 0.01843668311353022 0.001
0.009980236208565134 0.01434197350663902 0.0005011071069954333
0.01060675006466267 0.01404026033521122 0.001
0.009408878047938824 0.01362717039599063 0.001
0.009980236208565134 0.01434197350663902 0.001501107106995433
0.009546675167871877 0.01488564185562414 0.001
0.01343251513647186 0.0215820589299516 0.0005011071069954333
0.01273713721785838 0.0215820589299516 0.001
0.01343251513647184 0.01341794107004839 0.0005011071069954335
0.01273713721785835 0.0134179410700484 0.001
0.008408815163886555 0.01533798995526068 0.001
0.00825407901998409 0.01601593329763187 0.001498892893004566
0.01002337033741638 0.02060559536795886 0.001498892893004567
0.0106498841935139 0.02090730853938666 0.001
0.01343251513647184 0.01341794107004839 0.001501107106995434
0.0136696523543302 0.01238253186566499 0.001
0.01343251513647186 0.0215820589299516 0.001501107106995433
0.01366965235433022 0.022617468134335 0.001
0.01405902899256937 0.0137196542414762 0.001
0.01405902899256939 0.0212803457585238 0.001
0.01526575603203681 0.003013873848236122 0.001448430097685044
0.01002337033741637 0.02060559536795887 0.0004988928930045669
0.009495146305641279 0.02126796735320512 0.001
0.008175488197390824 0.01756891260761557 0.0004988928930045665
0.008330224341293296 0.01824685594998675 0.001
0.008175488197390822 0.01756891260761557 0.001498892893004566
0.00825407901998409 0.01601593329763187 0.0004988928930045665
0.0169755835030764 0.01438549038484688 0.001
0.01575675490534521 0.02089943819297918 0.001
0.01697558350307642 0.0206145096151531 0.001
0.009589809296723116 0.02006192701897375 0.001
0.007133158039968179 0.01453186659526371 0.001
0.003660254037844382 0.003660254037844376 0.001
0.004330127018922194 0.001830127018922188 0.001
0.002500000000000003 0.001249999999999997 0.0005
0.002500000000000003 0.001249999999999997 0.0015
0.0208130326992838 0.01024795990552998 0.001
0.01951234444939115 0.01162535249743336 0.001
0.01806849648129253 0.01025478518380675 0.001
0.01936918473118517 0.008877392591903368 0.001
0.01936918473118517 0.0261226074080966 0.001
0.02081303269928379 0.02475204009446998 0.001
0.01806849648129254 0.02474521481619322 0.001
0.01951234444939116 0.0233746475025666 0.001
0.01748293682189107 0.01843668311353021 0.001
0.01748293682189106 0.01656331688646978 0.001
0.006975976394781644 0.01763782521523111 0.001
0.01997248241817427 0.02082334133231082 0.001
0.02109537316627915 0.01975204009446997 0.001
0.01899220106042218 0.01964260247568168 0.001
0.02011509180852707 0.01857130123784084 0.001
0.01997591105973769 0.01417665866768914 0.001
0.02011509180852706 0.01642869876215914 0.001
0.01899220106042217 0.0153573975243183 0.001
0.001968884847109328 0.01363421599666838 0.001
0.003937769694218656 0.01226843199333678 0.001
0.0157567549053452 0.0141005618070208 0.001
0.01536737826710603 0.01276343943120959 0.001
0.01536737826710605 0.02223656056879039 0.001
0.007054567217374912 0.01608484590524741 0.001
0.02297809620874489 0.01149795990552998 0.001
0.001961327880535819 0.02160288046061056 0.001
0.00187597626398751 0.01983228382975944 0.001
0.003751952527975017 0.01966456765951892 0.001
0.003837304144523326 0.02143516429037004 0.001
0.01685240540875559 0.01749999999999999 0.001
0.02186818869631136 0.03189995320368674 0.001
0.02343409434815568 0.03344997660184337 0.001
0.001816571388078625 0.01825855762194586 0.001
0.003692547652066132 0.01809084145170534 0.001
0.02283493649053891 0.008749999999999983 0.001
0.01013020652637868 0.01262073935372422 0.001
0.01793741762256484 0.01549201564862893 0.001
0.01793741762256485 0.01950798435137105 0.001
0.002337269084778303 0.00891948054547605 0.001
0.01132807854310256 0.0219661707070552 0.001
0.0122605936795744 0.0230015799114386 0.001
0.01132807854310252 0.01303382929294481 0.001
0.01226059367957437 0.0119984200885614 0.001
0.02375000000000001 0.001249999999999997 0.001
0.02283493649053891 0.006249999999999986 0.001
0.01550550240247358 0.01043994799532867 0.001
0.01628530329117772 0.01179214749604143 0.001
0.01458757737840189 0.01141123993049683 0.001
0.0155055024024736 0.0245600520046713 0.001
0.01458757737840191 0.02358876006950315 0.001
0.01628530329117774 0.02320785250395854 0.001
0.02095619241748977 0.01299591981105998 0.001
0.01638884875754777 0.003483668116728482 0.001
0.004674538169556606 0.007838961090952121 0.001
0.009624115047759211 0.004832444753668724 0.001
0.008708178003072293 0.002109413207112969 0.001
0.007416356006144566 0.004218826414225938 0.001
0.009624115047759233 0.03016755524633126 0.001
0.008708178003072303 0.03289058679288703 0.001
0.007416356006144586 0.03078117358577405 0.001
0.02066987298107782 0.007499999999999985 0.001
0.002337269084778314 0.02608051945452392 0.001
0.002337269084778314 0.02858051945452393 0.001
0.02311727695753426 0.01624999999999997 0.001
0.02123455391506851 0.01749999999999998 0.001
0.02311727695753426 0.01874999999999998 0.001
0.004674538169556633 0.02716103890904787 0.001
0.01810381130845522 0.01749999999999999 0.001
0.02297809620874489 0.02350204009446998 0.001
0.0228349364905389 0.02624999999999999 0.001
0.01706510417988188 0.02185565300324578 0.001
0.01706510417988186 0.0131443469967542 0.001
0.01582565641400659 0.008816829555609805 0.001
0.0142134808085691 0.009846217784568533 0.001
0.01582565641400661 0.02618317044439018 0.001
0.01421348080856912 0.02515378221543145 0.001
0.001968884847109328 0.01113421599666838 0.001
0.004306153931887631 0.01005369654214445 0.001
0.00536396446137833 0.01865119643737502 0.001
0.005370039784856834 0.02015515415795259 0.001
0.006982051718260147 0.01914178293580869 0.001
0.02095619241748978 0.02200408018893997 0.001
0.0206698729810778 0.02749999999999999 0.001
0.008271018043953502 0.01407951849562717 0.001
0.01017334065522993 0.02232682952087366 0.001
0.0228349364905389 0.02875 0.001
0.00837391287311855 0.00629325333883678 0.001
0.00700300395482457 0.008103320677199873 0.001
0.009331469740092534 0.008367680263447624 0.001
0.006045447087850609 0.02897110624741096 0.001
0.008373912873118583 0.02870674666116321 0.001
0.009331469740092583 0.02663231973655236 0.001
0.007003003954824609 0.02689667932280011 0.001
0.01453363482010211 0.008223099344849664 0.001
0.01237666665201924 0.007349275333459951 0.001
0.01292145921466462 0.009252487573808392 0.001
0.01453363482010214 0.02677690065515032 0.001
0.01398884225745677 0.02868011289549876 0.001
0.01237666665201928 0.02765072466654004 0.001
0.01292145921466466 0.02574751242619159 0.001
0.006208178003072286 0.002109413207112969 0.001
0.006208178003072298 0.03289058679288703 0.001
0.01085153500481859 0.0233856916885422 0.001
0.01085153500481854 0.01161430831145781 0.001
0.005535463867093417 0.01340014929430025 0.001
0.005383150408062714 0.01552449091957773 0.001
0.01905314032455093 0.03324925259090371 0.001
0.01655314032455094 0.03324925259090371 0.001
0.01810628064910186 0.03149850518180742 0.001
0.01905314032455093 0.001750747409096285 0.001
0.01803036694093373 0.01425087226053625 0.001
0.0083362996647718 0.01975081367056433 0.001
0.006988127041738651 0.02064574065638626 0.001
0.01802693829937031 0.02074912773946373 0.001
0.01840784170330871 0.007346855557945461 0.001
0.01712604553732072 0.005347602967041754 0.001
0.01614581042553961 0.007193711115890937 0.001
0.01840784170330872 0.02765314444205452 0.001
0.01712604553732075 0.02965239703295823 0.001
0.01614581042553963 0.02780628888410904 0.001
0.01009150237245554 0.009990994287452716 0.001
0.01188649710974158 0.0104333979426331 0.001
0.01009150237245559 0.02500900571254728 0.001
0.01188649710974162 0.0245666020573669 0.001
0.01112646447737862 0.02618991608137198 0.001
0.008241636673689967 0.02095685400479569 0.001
0.001816571388078625 0.01575855762194586 0.001
0.003633142776157249 0.01651711524389175 0.001
0.02126903083869459 0.005300023398156618 0.001
0.02343409434815568 0.004050023398156619 0.001
0.02186818869631135 0.003100046796313251 0.001
0.01938807681508983 0.005500747409096278 0.001
0.01938807681508983 0.0294992525909037 0.001
0.02343409434815568 0.03094997660184337 0.001
0.001961327880535819 0.02410288046061056 0.001
0.003922655761071637 0.02320576092122115 0.001
0.01091593704468696 0.03227696845344424 0.001
0.01183187408937389 0.02955393690688847 0.001
0.01183187408937385 0.00544606309311151 0.001
0.01091593704468694 0.002723031546555755 0.001
0.006045447087850586 0.00602889375258903 0.001
0.008489740436827391 0.01250969193976639 0.001
0.004330127018922197 0.03316987298107781 0.001
0.001830127018922194 0.03316987298107781 0.001
0.003660254037844388 0.03133974596215561 0.001
0.01329555578449741 0.01081750971973669 0.001
0.01329555578449744 0.0241824902802633 0.001
0.01998723467270659 0.003300770807252911 0.001
0.02126903083869458 0.02969997660184337 0.001
0.01998723467270661 0.03169922919274708 0.001
0.009197723504319241 0.02355105578301734 0.001
0.008519529154730587 0.02249219361534881 0.001
0.01968118285723389 0.01749999999999999 0.001
0.018558292109129 0.01857130123784083 0.001
0.01855829210912899 0.01642869876215915 0.001
0.01710715345341607 0.008724248149848844 0.001
0.01710715345341608 0.02627575185015113 0.001
0.01233570843299686 0.001732920707632196 0.001
0.01483570843299686 0.001732920707632196 0.001
0.02109537316627914 0.01524795990552998 0.001
0.02297809620874489 0.01399795990552997 0.001
0.02297809620874489 0.02100204009446997 0.001
0.007543912003819893 0.02371641987749249 0.001
0.006109225086688262 0.02543872939327018 0.001
0.008437690871956236 0.02517436980702243 0.001
0.008451036282904245 0.009879946873494892 0.001
0.006122570497636282 0.009615587287247139 0.001
0.007570602825715957 0.01139221348354216 0.001
0.01678699944188306 0.02465263341043226 0.001
0.01678699944188305 0.01034736658956771 0.001
0.01112646447737858 0.008810083918628007 0.001
0.005455391401405144 0.02192575078880371 0.001
0.005304559585469447 0.01707747022956143 0.001
0.003785456235187952 0.01439277361861426 0.001
0.0146714168659937 0.003465841415264393 0.001
0.001830127018922194 0.0306698729810778 0.001
0.01398884225745673 0.006319887104501223 0.001
0.005754186259967307 0.01183032273843947 0.001
0.01325164547768378 0.004455952254187951 0.001
0.01325164547768381 0.03054404774581203 0.001
0.0148357084329969 0.03326707929236779 0.001
0.0123357084329969 0.03326707929236779 0.001
0.01467141686599375 0.03153415858473559 0.001
0.004167396103700509 0.02925039243560174 0.001
0.01901064829868582 0.01307013340390709 0.001
0.01756680033058719 0.01169956609028047 0.001
0.01756680033058721 0.0233004339097195 0.001
0.01901064829868583 0.02192986659609287 0.001
0.00921106891526725 0.01150326089749998 0.001
0.01058167191473324 0.02809312832172042 0.001
0.01058167191473319 0.006906871678279566 0.001
0.004298596965314132 0.02518339991513451 0.001
0.007266019522779274 0.02218108026693938 0.001
0.007351880432842068 0.01296204003940294 0.001
0.00553830502199449 0.03106045977396483 0.001
0.005733283882445763 0.02346109039935682 0.001
0.005538305021994474 0.003939540226035157 0.001
0.02093409434815569 0.03344997660184337 0.001
0.004167396103700494 0.005749607564398249 0.001
0.02093409434815569 0.001550023398156626 0.001
0.01540861364576668 0.02967022373442232 0.001
0.01540861364576666 0.005329776265577665 0.001
0.01638884875754782 0.03151633188327151 0.001
0.001830127018922191 0.004330127018922182 0.001
0.002337269084778303 0.006419480545476055 0.001
$EndNodes
$Elements
3 475 1 475
2 2 9 12
1 39 1 2 156 11 43 
2 49 1 39 53 156 157 
3 5 6 155 48 158 159 
4 42 5 155 47 159 160 
5 6 52 155 57 161 158 
6 49 39 40 157 44 162 
7 41 51 40 163 164 45 
8 49 40 50 162 165 54 
9 40 51 50 164 55 165 
10 42 51 41 166 163 46 
11 51 42 52 166 167 56 
12 52 42 155 167 160 161 
2 4 9 12
13 93 4 3 97 25 404 
14 58 93 3 405 404 62 
15 9 403 7 406 407 102 
16 7 403 61 407 408 66 
17 96 403 9 409 406 101 
18 59 93 58 410 405 63 
19 60 95 59 411 412 64 
20 59 94 93 413 98 410 
21 95 94 59 99 413 412 
22 60 61 96 65 414 415 
23 96 95 60 100 411 415 
24 61 403 96 408 409 414 
3 1 11 451
25 132 14 13 194 143 20 144 718 241 242 
26 51 201 449 717 265 719 720 721 722 723 
27 651 104 103 429 666 110 662 724 528 529 
28 651 181 67 68 725 281 660 661 74 280 
29 6 652 215 67 655 726 225 73 227 657 
30 103 5 652 463 109 654 656 475 727 474 
31 6 155 52 215 158 161 57 225 226 728 
32 61 7 216 403 66 229 228 408 729 407 
33 130 13 12 187 139 19 140 730 238 239 
34 27 26 435 130 33 487 486 146 731 142 
35 449 41 51 717 512 163 720 722 721 732 
36 27 28 132 442 34 150 147 490 733 489 
37 190 68 653 69 284 664 734 283 665 75 
38 5 155 463 42 159 735 474 47 473 160 
39 438 105 653 104 532 671 736 531 668 111 
40 459 26 2 131 467 32 468 737 134 136 
41 9 403 96 464 406 409 101 476 477 738 
42 211 1 12 131 219 18 220 739 135 133 
43 205 681 116 453 740 689 741 742 479 743 
44 678 204 85 452 744 233 688 745 746 747 
45 41 449 462 717 512 514 508 732 748 722 
46 681 80 205 116 687 232 740 689 741 693 
47 121 678 85 452 690 688 715 482 746 745 
48 678 8 204 452 684 234 744 745 747 749 
49 681 205 8 453 740 231 685 743 750 742 
50 84 677 456 208 705 751 752 312 753 754 
51 456 120 677 84 559 714 751 752 705 712 
52 208 677 456 83 754 751 753 311 755 706 
53 682 117 81 416 699 697 691 756 757 544 
54 676 84 120 417 711 712 713 758 565 759 
55 179 119 680 83 760 709 761 314 700 707 
56 10 8 678 452 129 684 683 481 745 749 
57 681 8 10 453 685 129 686 743 480 750 
58 677 119 456 83 708 560 751 706 755 707 
59 81 117 679 209 697 698 696 301 762 763 
60 676 169 84 417 764 316 711 758 759 765 
61 81 168 682 416 297 766 691 757 756 767 
62 85 676 121 417 710 716 715 768 564 758 
63 416 80 682 116 769 692 756 545 694 693 
64 214 201 51 717 266 265 259 770 721 723 
65 117 457 679 209 550 771 698 763 762 772 
66 680 118 426 82 704 555 773 701 774 702 
67 179 680 178 83 761 775 313 314 307 700 
68 427 119 426 680 561 554 562 776 773 709 
69 676 85 169 417 710 317 764 758 765 768 
70 682 168 80 416 766 296 692 756 769 767 
71 204 176 85 452 323 322 233 747 746 777 
72 116 177 205 453 778 300 741 479 742 779 
73 209 118 457 679 780 549 772 762 771 703 
74 680 427 119 179 776 561 709 761 760 781 
75 211 459 39 131 782 469 783 739 784 737 
76 209 118 679 82 780 703 762 302 695 702 
77 39 2 1 131 43 11 156 784 133 134 
78 49 211 39 131 221 783 157 785 784 739 
79 2 39 459 131 43 469 468 134 737 784 
80 118 426 119 680 555 554 125 704 709 773 
81 438 181 200 448 786 386 787 611 788 789 
82 202 430 191 450 790 791 369 792 793 639 
83 680 82 178 83 701 306 775 700 307 89 
84 205 212 8 453 237 236 231 742 750 794 
85 212 204 8 452 235 234 236 795 749 747 
86 49 39 1 131 157 156 53 785 133 784 
87 426 680 82 178 773 701 774 796 306 775 
88 1 211 49 131 219 221 53 133 785 739 
89 217 439 185 465 797 798 399 799 800 620 
90 190 218 185 466 365 398 288 801 802 803 
91 121 10 678 452 128 683 690 482 745 481 
92 80 205 8 681 232 231 86 687 685 740 
93 442 14 132 194 804 143 733 805 718 242 
94 176 85 121 417 322 715 806 807 564 768 
95 80 416 177 116 769 808 298 693 778 545 
96 426 680 178 179 773 775 796 809 313 761 
97 204 85 8 678 233 92 234 744 684 688 
98 116 681 10 453 689 686 122 479 480 743 
99 190 653 68 104 734 664 284 810 667 668 
100 447 443 15 199 497 811 812 813 249 814 
101 212 10 8 453 815 129 236 794 750 480 
102 212 8 10 452 236 129 815 795 481 749 
103 403 7 216 464 407 229 729 738 816 817 
104 447 15 444 199 812 818 499 813 819 249 
105 84 85 169 676 91 317 316 711 764 710 
106 168 80 81 682 296 87 297 766 691 692 
107 208 84 677 83 312 705 754 311 706 90 
108 190 68 181 104 284 280 285 810 820 667 
109 456 171 84 208 821 318 752 753 312 320 
110 121 676 120 417 716 713 127 564 565 758 
111 416 682 117 116 756 699 544 545 123 694 
112 176 204 218 452 323 368 366 777 822 747 
113 217 205 177 453 375 300 372 823 779 742 
114 120 119 456 677 126 560 559 714 751 708 
115 13 435 130 27 824 731 139 145 146 486 
116 170 117 416 81 825 544 826 304 757 697 
117 84 171 120 417 318 827 712 759 565 828 
118 680 426 427 179 773 562 776 761 781 809 
119 85 176 169 417 322 321 317 768 765 807 
120 416 80 177 168 769 298 808 767 299 296 
121 121 85 176 452 715 322 806 482 777 746 
122 80 177 205 116 298 300 232 693 741 778 
123 120 456 171 84 559 821 827 712 318 752 
124 155 6 652 215 158 655 829 728 726 225 
125 155 652 5 463 829 654 159 735 474 727 
126 67 181 651 103 281 725 660 663 662 830 
127 206 169 176 455 332 321 333 831 832 833 
128 416 454 207 425 575 834 835 546 836 576 
129 651 181 68 104 725 280 661 666 667 820 
130 653 190 438 104 734 837 736 668 531 810 
131 449 201 462 717 719 838 514 722 748 723 
132 435 13 130 187 824 139 731 839 730 239 
133 14 442 132 28 804 733 143 149 150 489 
134 432 437 40 189 510 505 509 840 841 842 
135 431 188 94 436 843 844 521 522 516 845 
136 438 190 181 104 837 285 786 531 820 810 
137 181 438 104 429 786 531 820 846 529 533 
138 455 169 176 417 833 321 832 579 807 765 
139 416 177 207 168 808 328 835 767 326 299 
140 434 16 17 30 847 23 848 501 153 154 
141 185 70 105 433 286 670 849 850 534 851 
142 30 17 434 31 153 848 501 37 500 138 
143 16 434 17 186 847 848 23 252 253 852 
144 81 170 117 209 304 825 697 301 763 305 
145 453 212 10 460 794 815 480 485 483 853 
146 452 10 212 460 481 815 795 484 853 483 
147 71 439 430 107 854 542 855 674 540 538 
148 116 416 177 425 545 808 778 547 856 546 
149 176 121 424 417 806 569 857 807 570 564 
150 192 455 174 206 858 859 356 357 331 831 
151 441 207 420 454 860 861 595 596 574 834 
152 27 435 442 194 486 491 490 862 805 863 
153 217 212 205 453 400 237 375 823 742 794 
154 212 218 204 452 402 368 235 795 747 822 
155 426 428 447 199 556 627 626 864 813 865 
156 426 178 180 199 796 309 866 864 378 379 
157 103 181 651 429 830 725 662 528 724 846 
158 71 439 191 430 854 867 289 855 791 542 
159 430 191 71 182 791 289 855 868 293 294 
160 104 651 181 429 666 725 820 529 846 724 
161 171 84 169 417 318 316 319 828 765 759 
162 168 81 170 416 297 304 303 767 826 757 
163 456 179 208 83 869 315 753 755 311 314 
164 457 117 418 209 550 551 553 772 870 763 
165 72 430 108 107 871 541 659 675 114 540 
166 189 423 187 175 872 873 359 358 360 874 
167 188 434 421 173 875 598 876 349 877 878 
168 174 440 432 422 879 604 880 881 601 603 
169 441 172 183 420 882 344 883 595 884 885 
170 9 7 403 464 102 407 406 476 738 817 
171 39 40 437 189 44 505 504 886 842 841 
172 94 188 93 436 844 887 98 516 517 845 
173 117 170 416 418 825 826 544 551 552 888 
174 419 120 171 417 567 827 889 566 828 565 
175 196 194 427 179 246 890 891 377 781 380 
176 61 203 60 451 277 276 65 892 893 894 
177 51 201 52 449 265 264 56 720 895 719 
178 176 466 452 218 896 616 777 366 822 803 
179 430 202 191 182 790 369 791 868 294 391 
180 190 181 200 438 285 386 363 837 787 786 
181 438 181 448 429 786 789 611 533 634 846 
182 450 430 191 439 639 791 793 619 867 542 
183 82 118 426 180 702 555 774 308 866 897 
184 428 426 180 199 556 866 898 865 378 864 
185 59 93 188 58 410 887 269 63 268 405 
186 453 425 217 465 548 899 823 623 799 621 
187 442 132 27 194 733 147 490 805 862 718 
188 185 70 69 105 286 76 287 849 669 670 
189 181 440 201 192 900 901 390 388 389 902 
190 451 430 193 441 643 903 904 642 905 640 
191 171 175 419 174 339 906 889 329 907 340 
192 418 173 170 420 908 335 888 572 909 910 
193 428 209 118 457 911 780 557 558 549 772 
194 435 27 13 194 486 145 824 863 241 862 
195 176 424 455 417 857 581 832 807 579 570 
196 177 416 207 425 808 835 328 856 836 546 
197 120 456 419 171 559 568 567 827 889 821 
198 444 15 14 196 818 21 912 913 244 245 
199 424 121 176 452 569 806 857 571 777 482 
200 177 116 425 453 778 547 856 779 548 479 
201 215 429 103 463 914 528 915 916 475 530 
202 449 440 201 429 638 901 719 637 917 635 
203 193 203 430 451 395 918 903 904 643 894 
204 119 179 456 83 760 869 560 707 755 314 
205 217 425 439 465 899 617 797 799 620 621 
206 218 190 176 466 365 364 366 803 896 801 
207 72 7 464 216 79 817 919 230 816 229 
208 443 16 15 195 920 22 811 921 247 248 
209 188 431 94 183 843 521 844 273 922 923 
210 189 40 432 184 841 509 840 261 924 925 
211 421 436 434 188 597 599 598 876 875 845 
212 423 189 187 437 872 359 873 606 926 842 
213 456 197 171 208 927 341 821 753 320 343 
214 458 58 3 210 928 62 929 930 223 224 
215 171 169 174 417 319 330 329 828 931 765 
216 420 168 170 416 932 303 909 573 826 767 
217 215 449 429 463 933 637 914 916 530 515 
218 430 203 216 464 918 279 934 543 816 935 
219 180 118 209 82 897 780 310 308 302 702 
220 189 50 40 184 256 165 841 261 925 262 
221 59 188 94 183 269 844 413 274 922 273 
222 71 430 72 107 855 871 78 674 675 540 
223 195 15 443 199 247 811 921 250 814 249 
224 457 418 198 209 553 936 937 772 338 870 
225 185 217 465 460 399 799 800 938 649 939 
226 466 218 185 460 803 398 802 650 938 940 
227 15 444 199 196 818 819 249 245 251 913 
228 117 457 118 679 550 549 124 698 703 771 
229 443 447 428 199 497 627 631 814 865 813 
230 181 192 200 448 388 387 386 789 788 941 
231 202 441 430 450 942 640 790 792 639 641 
232 679 81 209 82 696 301 762 695 302 88 
233 419 174 417 171 907 931 566 889 828 329 
234 420 170 418 416 909 888 572 573 552 826 
235 71 430 182 72 855 868 293 78 292 871 
236 40 49 189 39 162 257 841 44 886 157 
237 455 169 174 206 833 330 859 831 331 332 
238 207 416 420 454 835 573 861 834 574 575 
239 51 40 214 41 164 943 259 163 944 45 
240 433 190 185 466 945 288 850 646 802 801 
241 185 465 439 433 800 620 798 850 539 647 
242 105 190 185 433 946 288 849 534 850 945 
243 439 70 185 433 947 286 798 539 850 851 
244 13 435 194 187 824 863 241 239 243 839 
245 449 215 429 201 933 914 637 719 917 267 
246 464 430 203 451 543 918 935 527 894 643 
247 58 458 3 93 928 929 62 405 404 472 
248 105 70 106 433 670 672 112 534 535 851 
249 212 185 218 460 401 398 402 853 940 938 
250 217 185 212 460 399 401 400 939 853 938 
251 132 13 27 194 144 145 147 718 862 241 
252 28 15 14 444 148 21 149 493 912 818 
253 446 421 434 198 585 598 600 948 949 950 
254 175 445 187 197 951 952 360 342 361 953 
255 29 16 443 30 151 920 496 36 495 154 
256 16 29 443 15 151 496 920 22 811 152 
257 464 72 216 430 919 230 816 543 934 871 
258 207 441 450 454 860 641 954 834 622 596 
259 200 455 192 206 955 858 387 367 357 831 
260 174 423 419 422 956 588 907 881 578 587 
261 172 170 173 420 325 335 334 885 910 909 
262 428 195 199 180 957 250 865 898 378 385 
263 174 455 440 422 859 605 879 881 603 580 
264 207 172 441 420 327 882 860 861 595 885 
265 426 178 196 179 796 376 958 809 377 313 
266 170 418 117 209 888 551 825 305 763 870 
267 181 215 103 67 282 915 830 281 663 227 
268 187 423 445 175 873 589 952 360 951 874 
269 443 15 29 447 811 152 496 497 498 812 
270 442 14 194 196 804 242 805 959 246 244 
271 169 455 174 417 833 859 330 765 931 579 
272 416 207 420 168 835 861 573 767 932 326 
273 96 61 60 451 414 65 415 524 893 892 
274 449 52 51 42 895 56 720 513 166 167 
275 41 449 51 42 512 720 163 46 166 513 
276 201 214 462 717 266 960 838 723 748 770 
277 458 3 17 210 929 24 961 930 222 223 
278 444 29 15 447 492 152 818 499 812 498 
279 440 174 432 192 879 880 604 902 962 356 
280 172 441 183 193 882 883 344 346 347 905 
281 445 194 187 197 963 243 952 953 361 381 
282 173 434 421 198 878 598 877 336 950 949 
283 40 432 184 462 509 924 925 507 964 511 
284 431 94 183 461 521 922 923 523 965 520 
285 188 186 434 173 350 852 875 349 878 351 
286 423 437 187 435 606 926 873 607 839 608 
287 452 218 466 460 822 803 616 484 650 940 
288 217 453 465 460 823 623 799 939 649 485 
289 213 59 60 95 271 64 272 966 411 412 
290 426 447 444 199 626 499 625 864 819 813 
291 426 178 199 196 796 379 864 958 251 376 
292 106 71 439 70 673 854 537 672 947 77 
293 71 106 439 107 673 537 854 674 538 113 
294 213 183 94 461 275 922 967 968 520 965 
295 214 40 184 462 943 925 263 960 964 507 
296 184 50 40 214 262 165 925 263 943 260 
297 94 59 183 213 413 274 922 967 275 271 
298 41 40 214 462 45 943 944 508 960 507 
299 458 17 434 210 961 848 503 930 969 222 
300 49 40 189 50 162 841 257 54 256 165 
301 188 94 93 59 844 98 887 269 410 413 
302 4 3 458 93 25 929 470 97 472 404 
303 178 82 426 180 306 774 796 309 866 308 
304 212 218 452 460 402 822 795 853 484 940 
305 453 217 212 460 823 400 794 485 853 939 
306 652 155 215 463 829 728 726 727 916 735 
307 196 427 426 179 891 562 958 377 809 781 
308 194 427 442 196 890 628 805 246 959 891 
309 28 15 444 29 148 818 493 35 492 152 
310 4 3 17 458 25 24 137 470 961 929 
311 439 70 71 191 947 77 854 867 289 290 
312 444 14 442 196 912 804 494 913 959 244 
313 174 419 417 422 907 566 931 881 577 578 
314 168 420 170 172 932 909 303 324 325 885 
315 185 69 190 105 287 283 288 849 946 669 
316 170 198 418 209 337 936 888 305 870 338 
317 435 445 442 194 609 630 491 863 805 963 
318 176 438 200 424 970 787 362 857 971 610 
319 425 450 177 439 618 972 856 617 973 619 
320 440 181 201 429 900 390 901 635 917 846 
321 193 203 182 430 395 394 393 903 868 918 
322 17 31 4 458 138 38 137 961 470 471 
323 418 173 198 170 908 336 936 888 337 335 
324 464 72 430 108 919 871 543 478 541 659 
325 176 200 206 455 362 367 333 832 831 955 
326 454 450 207 425 622 954 834 576 836 618 
327 175 419 445 171 906 590 951 339 974 889 
328 60 96 451 95 415 524 893 411 525 100 
329 72 9 464 7 658 476 919 79 817 102 
330 9 72 464 108 658 919 476 115 478 659 
331 424 438 200 448 610 787 971 612 788 611 
332 191 177 202 450 371 370 369 793 792 972 
333 428 426 118 180 556 555 557 898 897 866 
334 17 458 434 31 961 503 848 138 500 471 
335 434 17 186 210 848 253 852 969 255 222 
336 448 181 192 440 789 388 941 636 902 900 
337 441 202 430 193 942 790 640 905 903 392 
338 429 215 103 181 914 915 528 846 830 282 
339 444 442 427 196 494 628 624 913 891 959 
340 95 213 94 461 966 967 99 519 520 968 
341 94 59 213 95 413 271 967 99 966 412 
342 40 51 214 50 164 259 943 165 260 55 
343 183 188 421 173 273 876 975 345 877 349 
344 432 423 189 175 602 872 840 976 358 874 
345 16 443 434 195 920 502 847 248 977 921 
346 176 466 438 424 896 614 970 857 610 613 
347 425 217 439 177 899 797 617 856 973 372 
348 456 179 197 208 869 382 927 753 343 315 
349 181 215 201 429 282 267 390 846 917 914 
350 203 216 182 430 279 295 394 918 868 934 
351 428 457 198 209 558 937 978 911 338 772 
352 445 456 171 419 591 821 974 590 889 568 
353 466 176 452 424 896 777 616 613 571 857 
354 14 444 442 28 912 494 804 149 489 493 
355 425 217 177 453 899 372 856 548 779 823 
356 70 439 106 433 947 537 672 851 535 539 
357 174 455 422 417 859 580 881 931 577 579 
358 172 207 168 420 327 326 324 885 932 861 
359 209 428 118 180 911 557 780 310 897 898 
360 427 194 197 179 890 381 979 781 382 380 
361 433 105 190 438 534 946 945 536 837 532 
362 185 191 70 439 291 290 286 798 947 867 
363 432 423 437 189 602 606 510 840 842 872 
364 421 431 436 188 592 522 597 876 845 843 
365 187 423 435 445 873 607 839 952 609 589 
366 441 202 207 450 942 374 860 641 954 792 
367 455 200 192 448 955 387 858 615 941 788 
368 175 423 419 174 874 588 906 340 907 956 
369 173 418 421 420 908 582 877 910 583 572 
370 192 455 440 174 858 605 902 356 879 859 
371 207 172 193 441 327 346 348 860 905 882 
372 443 16 434 30 920 847 502 495 501 154 
373 430 72 216 182 871 230 934 868 295 292 
374 69 653 190 105 665 734 283 669 946 671 
375 180 198 428 195 383 978 898 385 957 384 
376 466 433 190 438 646 945 801 614 837 536 
377 439 217 185 191 797 399 798 867 291 373 
378 173 186 434 198 351 852 878 336 949 352 
379 16 434 186 195 847 852 252 248 254 977 
380 423 174 432 422 956 880 602 587 601 881 
381 172 173 183 420 334 345 344 885 884 910 
382 179 119 456 427 760 560 869 781 563 561 
383 194 435 445 187 863 609 963 243 952 839 
384 58 458 188 210 928 980 268 224 270 930 
385 198 434 446 195 949 600 948 384 981 977 
386 188 93 436 458 887 517 845 980 518 472 
387 437 211 39 189 982 783 504 842 886 258 
388 200 176 424 455 362 857 971 955 581 832 
389 450 177 207 425 972 328 954 618 836 856 
390 195 428 199 443 957 865 250 921 814 631 
391 184 432 174 192 924 880 354 355 356 962 
392 183 431 441 420 923 594 883 884 595 593 
393 188 93 458 58 887 472 980 268 928 405 
394 177 207 202 450 328 374 370 972 792 954 
395 200 424 448 455 971 612 788 955 615 581 
396 440 448 181 429 636 789 900 635 846 634 
397 202 193 182 430 392 393 391 790 868 903 
398 194 445 427 197 963 629 890 381 979 953 
399 426 444 427 196 625 624 562 958 891 913 
400 211 437 39 459 982 504 783 782 469 506 
401 653 190 105 438 734 946 671 736 532 837 
402 421 446 418 198 585 584 582 950 936 948 
403 198 446 428 195 948 633 978 384 957 981 
404 211 437 187 189 982 926 240 258 359 842 
405 188 458 436 434 980 518 845 875 599 503 
406 457 418 446 198 553 584 586 937 948 936 
407 175 189 432 184 358 840 976 353 924 261 
408 421 431 188 183 592 843 876 975 273 923 
409 199 444 426 196 819 625 864 251 958 913 
410 445 175 171 197 951 339 974 953 341 342 
411 39 211 49 189 783 221 157 886 257 258 
412 445 194 427 442 963 890 629 630 628 805 
413 443 446 434 195 632 600 502 921 977 981 
414 193 202 207 441 392 374 348 905 860 942 
415 455 448 192 440 615 941 858 605 902 636 
416 203 464 61 216 935 983 277 279 228 816 
417 433 185 465 460 850 800 647 648 649 938 
418 466 185 433 460 802 850 646 650 648 938 
419 173 421 418 198 877 582 908 336 936 950 
420 423 419 445 175 588 590 589 874 951 906 
421 437 435 459 211 608 488 506 982 782 984 
422 188 458 434 210 980 503 875 270 969 930 
423 174 423 432 175 956 602 880 340 976 874 
424 183 421 420 173 975 583 884 345 910 877 
425 209 198 428 180 338 978 911 310 898 383 
426 215 52 201 449 226 264 267 933 719 895 
427 464 203 61 451 935 277 983 527 892 894 
428 197 456 171 445 927 821 341 953 974 591 
429 214 51 41 717 259 163 944 770 732 721 
430 435 437 187 211 608 926 839 984 240 982 
431 434 188 210 186 875 270 969 852 255 350 
432 198 186 434 195 352 852 949 384 977 254 
433 215 449 463 42 933 515 916 985 473 513 
434 443 428 446 195 631 633 632 921 981 957 
435 179 456 197 427 869 927 382 781 979 563 
436 438 176 200 190 970 362 787 837 363 364 
437 450 191 177 439 793 371 972 619 973 867 
438 103 215 463 652 915 916 475 656 727 726 
439 461 451 193 441 526 904 986 644 905 642 
440 201 192 440 462 389 902 901 838 645 987 
441 440 192 432 462 902 962 604 645 511 987 
442 461 193 183 441 986 347 965 644 883 905 
443 201 440 449 462 901 638 719 838 514 645 
444 451 213 193 203 988 396 904 894 395 278 
445 428 457 446 198 558 586 633 978 948 937 
446 451 60 213 203 893 272 988 894 278 276 
447 216 61 403 464 228 408 729 816 738 983 
448 214 41 462 717 944 508 960 770 748 732 
449 466 190 176 438 801 364 896 614 970 837 
450 439 217 191 177 797 373 867 973 371 372 
451 449 215 52 42 933 226 895 513 167 985 
452 61 96 464 451 414 477 983 892 527 524 
453 103 215 652 67 915 726 656 663 657 227 
454 184 432 175 174 924 976 353 354 340 880 
455 421 183 420 431 975 884 583 592 593 923 
456 456 427 445 197 563 629 591 927 953 979 
457 463 155 215 42 735 728 916 473 985 160 
458 211 12 459 131 220 989 782 739 737 135 
459 60 451 213 95 893 988 272 411 966 525 
460 459 12 26 131 989 141 467 737 136 135 
461 192 184 432 462 355 924 962 987 511 964 
462 461 183 431 441 965 923 523 644 594 883 
463 184 192 214 462 355 397 263 964 960 987 
464 193 461 183 213 986 965 347 396 275 968 
465 96 403 61 464 409 408 414 477 983 738 
466 155 52 215 42 161 226 728 160 985 167 
467 192 201 214 462 389 266 397 987 960 838 
468 213 451 193 461 988 904 396 968 986 526 
469 95 451 213 461 525 988 966 519 968 526 
470 652 5 6 155 654 48 655 829 158 159 
471 12 187 435 130 238 839 990 140 731 730 
472 435 187 12 211 839 238 990 984 220 240 
473 12 459 435 211 989 488 990 220 984 782 
474 26 435 12 459 487 990 141 467 989 488 
475 12 435 26 130 990 487 141 140 142 731 
$EndElements
