$MeshFormat
4.1 0 8
$EndMeshFormat
$PhysicalNames
3
2 2 "bc-top"
2 3 "bc-bot"
3 1 "vol"
$EndPhysicalNames
$Entities
36 70 42 8
1 0 0 0 0 
2 0.0125 0 0 0 
3 0.0125 0.005000000000000001 0 0 
4 0 0.005000000000000001 0 0 
5 0.025 0 0 0 
6 0.025 0.005000000000000001 0 0 
10 0.0125 0.03 0 0 
11 0 0.03 0 0 
12 0.025 0.03 0 0 
13 0.0125 0.035 0 0 
14 0 0.035 0 0 
15 0.025 0.035 0 0 
16 0 0.0175 0 0 
17 0.009375000000000001 0.01749999999999975 0 0 
18 0.01250000000000011 0.014375 0 0 
19 0.015625 0.0175 0 0 
20 0.025 0.0175 0 0 
21 0.01250000000000011 0.020625 0 0 
22 0 0 0.001 0 
23 0.0125 0 0.001 0 
24 0.0125 0.005000000000000001 0.001 0 
25 0 0.005000000000000001 0.001 0 
26 0.025 0 0.001 0 
27 0.025 0.005000000000000001 0.001 0 
28 0 0.0175 0.001 0 
29 0.009375000000000001 0.01749999999999975 0.001 0 
30 0.01250000000000011 0.014375 0.001 0 
31 0.015625 0.0175 0.001 0 
32 0.025 0.0175 0.001 0 
33 0 0.03 0.001 0 
34 0.0125 0.03 0.001 0 
35 0.01250000000000011 0.020625 0.001 0 
36 0.025 0.03 0.001 0 
37 0.0125 0.035 0.001 0 
38 0 0.035 0.001 0 
39 0.025 0.035 0.001 0 
1 -1.000000000002735e-07 -1e-07 -1e-07 0.0125001 1e-07 1e-07 0 2 1 -2 
2 0.0124999 -9.99999999998398e-08 -1e-07 0.0125001 0.005000100000000001 1e-07 0 2 2 -3 
3 -1.000000000002735e-07 0.004999900000000001 -1e-07 0.0125001 0.005000100000000001 1e-07 0 2 3 -4 
4 -1e-07 -9.99999999998398e-08 -1e-07 1e-07 0.005000100000000001 1e-07 0 2 4 -1 
5 0.0124999 -1e-07 -1e-07 0.0250001 1e-07 1e-07 0 2 2 -5 
6 0.0249999 -9.99999999998398e-08 -1e-07 0.0250001 0.005000100000000001 1e-07 0 2 5 -6 
7 0.0124999 0.004999900000000001 -1e-07 0.0250001 0.005000100000000001 1e-07 0 2 6 -3 
14 -1.000000000002735e-07 0.0299999 -1e-07 0.0125001 0.0300001 1e-07 0 2 10 -11 
17 0.0124999 0.0299999 -1e-07 0.0250001 0.0300001 1e-07 0 2 12 -10 
18 0.0124999 0.0299999 -1e-07 0.0125001 0.03500010000000001 1e-07 0 2 10 -13 
19 -1.000000000002735e-07 0.0349999 -1e-07 0.0125001 0.03500010000000001 1e-07 0 2 13 -14 
20 -1e-07 0.0299999 -1e-07 1e-07 0.03500010000000001 1e-07 0 2 14 -11 
21 0.0249999 0.0299999 -1e-07 0.0250001 0.03500010000000001 1e-07 0 2 12 -15 
22 0.0124999 0.0349999 -1e-07 0.0250001 0.03500010000000001 1e-07 0 2 15 -13 
23 -1e-07 0.004999900000000001 -1e-07 1e-07 0.0175001 1e-07 0 2 16 -4 
24 -1.000000000002735e-07 0.0174999 -1e-07 0.009375100000000001 0.0175001 1e-07 0 2 17 -16 
25 0.009374900000000002 0.0143749 -1e-07 0.01250010000000011 0.0175001 1e-07 0 2 17 -18 
26 0.0124999 0.004999900000000001 -1e-07 0.0125001 0.0143751 1e-07 0 2 3 -18 
27 0.01249990000000011 0.0143749 -1e-07 0.0156251 0.0175001 1e-07 0 2 18 -19 
28 0.0156249 0.0174999 -1e-07 0.0250001 0.0175001 1e-07 0 2 20 -19 
29 0.0249999 0.004999900000000001 -1e-07 0.0250001 0.0175001 1e-07 0 2 6 -20 
30 -1e-07 0.0174999 -1e-07 1e-07 0.0300001 1e-07 0 2 11 -16 
31 0.0124999 0.0206249 -1e-07 0.0125001 0.0300001 1e-07 0 2 21 -10 
32 0.009374900000000002 0.0174999 -1e-07 0.01250010000000011 0.0206251 1e-07 0 2 21 -17 
33 0.01249990000000011 0.0174999 -1e-07 0.0156251 0.0206251 1e-07 0 2 19 -21 
34 0.0249999 0.0174999 -1e-07 0.0250001 0.0300001 1e-07 0 2 20 -12 
35 -1e-07 -1e-07 -9.999999999994822e-08 1e-07 1e-07 0.0010001 0 2 1 -22 
36 0.0124999 -1e-07 -9.999999999994822e-08 0.0125001 1e-07 0.0010001 0 2 2 -23 
37 -1.000000000002735e-07 -1e-07 0.0009999 0.0125001 1e-07 0.0010001 0 2 22 -23 
38 0.0124999 0.004999900000000001 -9.999999999994822e-08 0.0125001 0.005000100000000001 0.0010001 0 2 3 -24 
39 0.0124999 -9.99999999998398e-08 0.0009999 0.0125001 0.005000100000000001 0.0010001 0 2 23 -24 
40 -1e-07 0.004999900000000001 -9.999999999994822e-08 1e-07 0.005000100000000001 0.0010001 0 2 4 -25 
41 -1.000000000002735e-07 0.004999900000000001 0.0009999 0.0125001 0.005000100000000001 0.0010001 0 2 24 -25 
42 -1e-07 -9.99999999998398e-08 0.0009999 1e-07 0.005000100000000001 0.0010001 0 2 25 -22 
43 0.0249999 -1e-07 -9.999999999994822e-08 0.0250001 1e-07 0.0010001 0 2 5 -26 
44 0.0124999 -1e-07 0.0009999 0.0250001 1e-07 0.0010001 0 2 23 -26 
45 0.0249999 0.004999900000000001 -9.999999999994822e-08 0.0250001 0.005000100000000001 0.0010001 0 2 6 -27 
46 0.0249999 -9.99999999998398e-08 0.0009999 0.0250001 0.005000100000000001 0.0010001 0 2 26 -27 
47 0.0124999 0.004999900000000001 0.0009999 0.0250001 0.005000100000000001 0.0010001 0 2 27 -24 
48 -1e-07 0.0174999 -9.999999999994822e-08 1e-07 0.0175001 0.0010001 0 2 16 -28 
49 -1e-07 0.004999900000000001 0.0009999 1e-07 0.0175001 0.0010001 0 2 28 -25 
50 0.009374899999999752 0.0174998999999995 -1.000000002497484e-07 0.009375100000000251 0.0175001 0.00100010000000025 0 2 17 -29 
51 -1.000000000002735e-07 0.0174999 0.0009999 0.009375100000000001 0.0175001 0.0010001 0 2 29 -28 
52 0.0124999 0.01437489999999989 -1.000000001118379e-07 0.01250010000000022 0.01437510000000011 0.001000100000000112 0 2 18 -30 
53 0.009374900000000002 0.0143749 0.0009999 0.01250010000000011 0.0175001 0.0010001 0 2 29 -30 
54 0.0124999 0.004999900000000001 0.0009999 0.0125001 0.0143751 0.0010001 0 2 24 -30 
55 0.0156249 0.0174999 -9.999999999994822e-08 0.0156251 0.0175001 0.0010001 0 2 19 -31 
56 0.01249990000000011 0.0143749 0.0009999 0.0156251 0.0175001 0.0010001 0 2 30 -31 
57 0.0249999 0.0174999 -9.999999999994822e-08 0.0250001 0.0175001 0.0010001 0 2 20 -32 
58 0.0156249 0.0174999 0.0009999 0.0250001 0.0175001 0.0010001 0 2 32 -31 
59 0.0249999 0.004999900000000001 0.0009999 0.0250001 0.0175001 0.0010001 0 2 27 -32 
60 -1e-07 0.0299999 -9.999999999994822e-08 1e-07 0.0300001 0.0010001 0 2 11 -33 
61 -1e-07 0.0174999 0.0009999 1e-07 0.0300001 0.0010001 0 2 33 -28 
62 0.0124999 0.0299999 -9.999999999994822e-08 0.0125001 0.0300001 0.0010001 0 2 10 -34 
63 -1.000000000002735e-07 0.0299999 0.0009999 0.0125001 0.0300001 0.0010001 0 2 34 -33 
64 0.0124999 0.02062489999999989 -1.000000001109705e-07 0.01250010000000022 0.02062510000000011 0.001000100000000111 0 2 21 -35 
65 0.0124999 0.0206249 0.0009999 0.0125001 0.0300001 0.0010001 0 2 35 -34 
66 0.009374900000000002 0.0174999 0.0009999 0.01250010000000011 0.0206251 0.0010001 0 2 35 -29 
67 0.01249990000000011 0.0174999 0.0009999 0.0156251 0.0206251 0.0010001 0 2 31 -35 
68 0.0249999 0.0299999 -9.999999999994822e-08 0.0250001 0.0300001 0.0010001 0 2 12 -36 
69 0.0124999 0.0299999 0.0009999 0.0250001 0.0300001 0.0010001 0 2 36 -34 
70 0.0249999 0.0174999 0.0009999 0.0250001 0.0300001 0.0010001 0 2 32 -36 
71 0.0124999 0.0349999 -9.999999999994822e-08 0.0125001 0.03500010000000001 0.0010001 0 2 13 -37 
72 0.0124999 0.0299999 0.0009999 0.0125001 0.03500010000000001 0.0010001 0 2 34 -37 
73 -1e-07 0.0349999 -9.999999999994822e-08 1e-07 0.03500010000000001 0.0010001 0 2 14 -38 
74 -1.000000000002735e-07 0.0349999 0.0009999 0.0125001 0.03500010000000001 0.0010001 0 2 37 -38 
75 -1e-07 0.0299999 0.0009999 1e-07 0.03500010000000001 0.0010001 0 2 38 -33 
76 0.0249999 0.0349999 -9.999999999994822e-08 0.0250001 0.03500010000000001 0.0010001 0 2 15 -39 
77 0.0249999 0.0299999 0.0009999 0.0250001 0.03500010000000001 0.0010001 0 2 36 -39 
78 0.0124999 0.0349999 0.0009999 0.0250001 0.03500010000000001 0.0010001 0 2 39 -37 
1 -1.000000000002735e-07 -9.99999999998398e-08 -1e-07 0.0125001 0.005000100000000001 1e-07 0 4 1 2 3 4 
5 0.0124999 -9.99999999998398e-08 -1e-07 0.0250001 0.005000100000000001 1e-07 0 4 5 6 7 -2 
9 -1.000000000002735e-07 0.004999900000000001 -1e-07 0.01250010000000011 0.0175001 1e-07 0 5 -3 26 -25 24 23 
13 0.0124999 0.004999900000000001 -1e-07 0.0250001 0.0175001 1e-07 0 5 -7 29 28 -27 -26 
17 -1.000000000002735e-07 0.0174999 -1e-07 0.01250010000000011 0.0300001 1e-07 0 5 -24 -32 31 14 30 
21 0.0124999 0.0174999 -1e-07 0.0250001 0.0300001 1e-07 0 5 -28 34 17 -31 -33 
25 -1.000000000002735e-07 0.0299999 -1e-07 0.0125001 0.03500010000000001 1e-07 0 4 -14 18 19 20 
29 0.0124999 0.0299999 -1e-07 0.0250001 0.03500010000000001 1e-07 0 4 -17 21 22 -18 
30 -1.000000000002735e-07 -1e-07 -9.999999999994822e-08 0.0125001 1e-07 0.0010001 1 3 4 35 37 -36 -1 
31 0.0124999 -9.99999999998398e-08 -9.999999999994822e-08 0.0125001 0.005000100000000001 0.0010001 0 4 36 39 -38 -2 
32 -1.000000000002735e-07 0.004999900000000001 -9.999999999994822e-08 0.0125001 0.005000100000000001 0.0010001 0 4 38 41 -40 -3 
33 -1e-07 -9.99999999998398e-08 -9.999999999994822e-08 1e-07 0.005000100000000001 0.0010001 0 4 40 42 -35 -4 
34 -1.000000000002735e-07 -9.99999999998398e-08 0.0009999 0.0125001 0.005000100000000001 0.0010001 0 4 37 39 41 42 
35 0.0124999 -1e-07 -9.999999999994822e-08 0.0250001 1e-07 0.0010001 1 3 4 36 44 -43 -5 
36 0.0249999 -9.99999999998398e-08 -9.999999999994822e-08 0.0250001 0.005000100000000001 0.0010001 0 4 43 46 -45 -6 
37 0.0124999 0.004999900000000001 -9.999999999994822e-08 0.0250001 0.005000100000000001 0.0010001 0 4 45 47 -38 -7 
38 0.0124999 -9.99999999998398e-08 0.0009999 0.0250001 0.005000100000000001 0.0010001 0 4 44 46 47 -39 
39 -1e-07 0.004999900000000001 -9.999999999994822e-08 1e-07 0.0175001 0.0010001 0 4 48 49 -40 -23 
40 -1.000000002500737e-07 0.0174998999999995 -1.000000002497484e-07 0.009375100000000251 0.01750010000000025 0.00100010000000025 0 4 50 51 -48 -24 
41 0.009374900000000002 0.0143749 -9.999999999994822e-08 0.01250010000000011 0.0175001 0.0010001 0 4 50 53 -52 -25 
42 0.01249989999999989 0.004999899999999889 -1.000000001118379e-07 0.01250010000000022 0.01437510000000011 0.001000100000000112 0 4 38 54 -52 -26 
43 -1.000000000002735e-07 0.004999900000000001 0.0009999 0.01250010000000011 0.0175001 0.0010001 0 5 -41 54 -53 51 49 
44 0.01249990000000011 0.0143749 -9.999999999994822e-08 0.0156251 0.0175001 0.0010001 0 4 52 56 -55 -27 
45 0.0156249 0.0174999 -9.999999999994822e-08 0.0250001 0.0175001 0.0010001 0 4 57 58 -55 -28 
46 0.0249999 0.004999900000000001 -9.999999999994822e-08 0.0250001 0.0175001 0.0010001 0 4 45 59 -57 -29 
47 0.0124999 0.004999900000000001 0.0009999 0.0250001 0.0175001 0.0010001 0 5 -47 59 58 -56 -54 
48 -1e-07 0.0174999 -9.999999999994822e-08 1e-07 0.0300001 0.0010001 0 4 60 61 -48 -30 
49 -1.000000000002735e-07 0.0299999 -9.999999999994822e-08 0.0125001 0.0300001 0.0010001 0 4 62 63 -60 -14 
50 0.01249989999999989 0.02062489999999989 -1.000000001109705e-07 0.01250010000000022 0.03000010000000011 0.001000100000000111 0 4 64 65 -62 -31 
51 0.009374900000000002 0.0174999 -9.999999999994822e-08 0.01250010000000011 0.0206251 0.0010001 0 4 64 66 -50 -32 
52 -1.000000000002735e-07 0.0174999 0.0009999 0.01250010000000011 0.0300001 0.0010001 0 5 -51 -66 65 63 61 
53 0.01249990000000011 0.0174999 -9.999999999994822e-08 0.0156251 0.0206251 0.0010001 0 4 55 67 -64 -33 
54 0.0124999 0.0299999 -9.999999999994822e-08 0.0250001 0.0300001 0.0010001 0 4 68 69 -62 -17 
55 0.0249999 0.0174999 -9.999999999994822e-08 0.0250001 0.0300001 0.0010001 0 4 57 70 -68 -34 
56 0.0124999 0.0174999 0.0009999 0.0250001 0.0300001 0.0010001 0 5 -58 70 69 -65 -67 
57 0.0124999 0.0299999 -9.999999999994822e-08 0.0125001 0.03500010000000001 0.0010001 0 4 62 72 -71 -18 
58 -1.000000000002735e-07 0.0349999 -9.999999999994822e-08 0.0125001 0.03500010000000001 0.0010001 1 2 4 71 74 -73 -19 
59 -1e-07 0.0299999 -9.999999999994822e-08 1e-07 0.03500010000000001 0.0010001 0 4 73 75 -60 -20 
60 -1.000000000002735e-07 0.0299999 0.0009999 0.0125001 0.03500010000000001 0.0010001 0 4 -63 72 74 75 
61 0.0249999 0.0299999 -9.999999999994822e-08 0.0250001 0.03500010000000001 0.0010001 0 4 68 77 -76 -21 
62 0.0124999 0.0349999 -9.999999999994822e-08 0.0250001 0.03500010000000001 0.0010001 1 2 4 76 78 -71 -22 
63 0.0124999 0.0299999 0.0009999 0.0250001 0.03500010000000001 0.0010001 0 4 -69 77 78 -72 
1 -1.000000000002735e-07 -9.99999999998398e-08 -9.999999999994822e-08 0.0125001 0.005000100000000001 0.0010001 1 1 6 -30 -31 -32 -33 -1 34 
2 0.0124999 -9.99999999998398e-08 -9.999999999994822e-08 0.0250001 0.005000100000000001 0.0010001 1 1 6 -35 -36 -37 31 -5 38 
3 -1.000000002500737e-07 0.004999899999999751 -1.000000002497484e-07 0.01250010000000036 0.01750010000000025 0.00100010000000025 1 1 7 32 -39 -40 41 -42 -9 43 
4 0.01249989999999989 0.004999899999999889 -1.000000001118379e-07 0.02500010000000011 0.01750010000000011 0.001000100000000112 1 1 7 37 42 44 -45 -46 -13 47 
5 -1.000000002500737e-07 0.0174998999999995 -1.000000002497484e-07 0.01250010000000036 0.03000010000000025 0.00100010000000025 1 1 7 40 -48 -49 -50 51 -17 52 
6 0.01249989999999989 0.01749989999999989 -1.000000001109705e-07 0.02500010000000011 0.03000010000000011 0.001000100000000111 1 1 7 45 53 50 -54 -55 -21 56 
7 -1.000000000002735e-07 0.0299999 -9.999999999994822e-08 0.0125001 0.03500010000000001 0.0010001 1 1 6 49 -57 -58 -59 -25 60 
8 0.0124999 0.0299999 -9.999999999994822e-08 0.0250001 0.03500010000000001 0.0010001 1 1 6 54 -61 -62 57 -29 63 
$EndEntities
$Nodes
156 972 1 972
0 1 0 1
1
0 0 0
0 2 0 1
2
0.0125 0 0
0 3 0 1
3
0.0125 0.005000000000000001 0
0 4 0 1
4
0 0.005000000000000001 0
0 5 0 1
5
0.025 0 0
0 6 0 1
6
0.025 0.005000000000000001 0
0 10 0 1
7
0.0125 0.03 0
0 11 0 1
8
0 0.03 0
0 12 0 1
9
0.025 0.03 0
0 13 0 1
10
0.0125 0.035 0
0 14 0 1
11
0 0.035 0
0 15 0 1
12
0.025 0.035 0
0 16 0 1
13
0 0.0175 0
0 17 0 1
14
0.009375000000000001 0.01749999999999975 0
0 18 0 1
15
0.01250000000000011 0.014375 0
0 19 0 1
16
0.015625 0.0175 0
0 20 0 1
17
0.025 0.0175 0
0 21 0 1
18
0.01250000000000011 0.020625 0
0 22 0 1
19
0 0 0.001
0 23 0 1
20
0.0125 0 0.001
0 24 0 1
21
0.0125 0.005000000000000001 0.001
0 25 0 1
22
0 0.005000000000000001 0.001
0 26 0 1
23
0.025 0 0.001
0 27 0 1
24
0.025 0.005000000000000001 0.001
0 28 0 1
25
0 0.0175 0.001
0 29 0 1
26
0.009375000000000001 0.01749999999999975 0.001
0 30 0 1
27
0.01250000000000011 0.014375 0.001
0 31 0 1
28
0.015625 0.0175 0.001
0 32 0 1
29
0.025 0.0175 0.001
0 33 0 1
30
0 0.03 0.001
0 34 0 1
31
0.0125 0.03 0.001
0 35 0 1
32
0.01250000000000011 0.020625 0.001
0 36 0 1
33
0.025 0.03 0.001
0 37 0 1
34
0.0125 0.035 0.001
0 38 0 1
35
0 0.035 0.001
0 39 0 1
36
0.025 0.035 0.001
1 1 0 3
37
38
39
0.006250000000000005 0 0
0.003125000000000002 0 0
0.009375000000000003 0 0
1 2 0 1
40
0.0125 0.0025 0
1 3 0 3
41
42
43
0.006249999999999996 0.005000000000000001 0
0.009374999999999998 0.005000000000000001 0
0.003124999999999998 0.005000000000000001 0
1 4 0 1
44
0 0.0025 0
1 5 0 3
45
46
47
0.01875000000000001 0 0
0.015625 0 0
0.02187500000000001 0 0
1 6 0 1
48
0.025 0.0025 0
1 7 0 3
49
50
51
0.01875 0.005000000000000001 0
0.021875 0.005000000000000001 0
0.015625 0.005000000000000001 0
1 14 0 3
52
53
54
0.006249999999999996 0.03 0
0.009374999999999998 0.03 0
0.003124999999999998 0.03 0
1 17 0 3
55
56
57
0.01875 0.03 0
0.021875 0.03 0
0.015625 0.03 0
1 18 0 1
58
0.0125 0.0325 0
1 19 0 3
59
60
61
0.006249999999999996 0.035 0
0.009374999999999998 0.035 0
0.003124999999999998 0.035 0
1 20 0 1
62
0 0.0325 0
1 21 0 1
63
0.025 0.0325 0
1 22 0 3
64
65
66
0.01875 0.035 0
0.021875 0.035 0
0.015625 0.035 0
1 23 0 3
67
68
69
0 0.01125 0
0 0.014375 0
0 0.008124999999999999 0
1 24 0 7
70
71
72
73
74
75
76
0.007031250000000005 0.0175 0
0.004687500000000005 0.0175 0
0.002343750000000002 0.0175 0
0.008203125000000004 0.0175 0
0.005859375000000005 0.0175 0
0.003515625000000003 0.0175 0
0.001171875000000001 0.0175 0
1 25 0 7
77
78
79
80
81
82
83
0.009612876460902241 0.01630411427385907 0
0.01029029130879208 0.015290291308792 0
0.01130411427385917 0.0146128764609022 0
0.009435045998739908 0.01689034274369959 0
0.00990165746155457 0.01576384302181371 0
0.0107638430218138 0.01490165746155451 0
0.0118903427436997 0.01443504599873989 0
1 26 0 7
84
85
86
87
88
89
90
0.0125 0.007343749999999996 0
0.0125 0.009687499999999998 0
0.0125 0.01203125 0
0.0125 0.006171874999999999 0
0.0125 0.008515624999999997 0
0.0125 0.010859375 0
0.0125 0.013203125 0
1 27 0 7
91
92
93
94
95
96
97
0.01369588572614098 0.01461287646090226 0
0.014709708691208 0.01529029130879208 0
0.01538712353909778 0.01630411427385912 0
0.0131096572563005 0.01443504599873992 0
0.01423615697818632 0.01490165746155459 0
0.01509834253844548 0.01576384302181378 0
0.0155649540012601 0.01689034274369961 0
1 28 0 7
98
99
100
101
102
103
104
0.02265625000000001 0.0175 0
0.0203125 0.0175 0
0.01796875 0.0175 0
0.02382812500000001 0.0175 0
0.02148437500000001 0.0175 0
0.019140625 0.0175 0
0.016796875 0.0175 0
1 29 0 3
105
106
107
0.025 0.01125000000000001 0
0.025 0.008125000000000004 0
0.025 0.014375 0
1 30 0 3
108
109
110
0 0.02375 0
0 0.026875 0
0 0.020625 0
1 31 0 7
111
112
113
114
115
116
117
0.0125 0.02296875 0
0.0125 0.0253125 0
0.0125 0.02765625 0
0.0125 0.021796875 0
0.0125 0.024140625 0
0.0125 0.026484375 0
0.0125 0.028828125 0
1 32 0 7
118
119
120
121
122
123
124
0.01130411427385917 0.0203871235390978 0
0.01029029130879208 0.019709708691208 0
0.009612876460902239 0.01869588572614093 0
0.01189034274369969 0.02056495400126012 0
0.0107638430218138 0.02009834253844549 0
0.00990165746155457 0.01923615697818629 0
0.009435045998739908 0.01810965725630042 0
1 33 0 7
125
126
127
128
129
130
131
0.01538712353909778 0.01869588572614088 0
0.014709708691208 0.01970970869120792 0
0.01369588572614098 0.02038712353909774 0
0.0155649540012601 0.01810965725630039 0
0.01509834253844548 0.01923615697818622 0
0.01423615697818631 0.02009834253844542 0
0.0131096572563005 0.02056495400126008 0
1 34 0 3
132
133
134
0.025 0.02375000000000001 0
0.025 0.020625 0
0.025 0.026875 0
1 35 0 1
135
0 0 0.0005
1 36 0 1
136
0.0125 0 0.0005
1 37 0 3
137
138
139
0.006250000000000005 0 0.001
0.003125000000000002 0 0.001
0.009375000000000003 0 0.001
1 38 0 1
140
0.0125 0.005000000000000001 0.0005
1 39 0 1
141
0.0125 0.0025 0.001
1 40 0 1
142
0 0.005000000000000001 0.0005
1 41 0 3
143
144
145
0.006249999999999996 0.005000000000000001 0.001
0.009374999999999998 0.005000000000000001 0.001
0.003124999999999998 0.005000000000000001 0.001
1 42 0 1
146
0 0.0025 0.001
1 43 0 1
147
0.025 0 0.0005
1 44 0 3
148
149
150
0.01875000000000001 0 0.001
0.015625 0 0.001
0.02187500000000001 0 0.001
1 45 0 1
151
0.025 0.005000000000000001 0.0005
1 46 0 1
152
0.025 0.0025 0.001
1 47 0 3
153
154
155
0.01875 0.005000000000000001 0.001
0.021875 0.005000000000000001 0.001
0.015625 0.005000000000000001 0.001
1 48 0 1
156
0 0.0175 0.0005
1 49 0 3
157
158
159
0 0.01125 0.001
0 0.014375 0.001
0 0.008124999999999999 0.001
1 50 0 1
160
0.009375000000000001 0.01749999999999975 0.0005
1 51 0 7
161
162
163
164
165
166
167
0.007031250000000005 0.0175 0.001
0.004687500000000005 0.0175 0.001
0.002343750000000002 0.0175 0.001
0.008203125000000004 0.0175 0.001
0.005859375000000005 0.0175 0.001
0.003515625000000003 0.0175 0.001
0.001171875000000001 0.0175 0.001
1 52 0 1
168
0.01250000000000011 0.014375 0.0005
1 53 0 7
169
170
171
172
173
174
175
0.009612876460902241 0.01630411427385907 0.001
0.01029029130879208 0.015290291308792 0.001
0.01130411427385917 0.0146128764609022 0.001
0.009435045998739908 0.01689034274369959 0.001
0.00990165746155457 0.01576384302181371 0.001
0.0107638430218138 0.01490165746155451 0.001
0.0118903427436997 0.01443504599873989 0.001
1 54 0 7
176
177
178
179
180
181
182
0.0125 0.007343749999999996 0.001
0.0125 0.009687499999999998 0.001
0.0125 0.01203125 0.001
0.0125 0.006171874999999999 0.001
0.0125 0.008515624999999997 0.001
0.0125 0.010859375 0.001
0.0125 0.013203125 0.001
1 55 0 1
183
0.015625 0.0175 0.0005
1 56 0 7
184
185
186
187
188
189
190
0.01369588572614098 0.01461287646090226 0.001
0.014709708691208 0.01529029130879208 0.001
0.01538712353909778 0.01630411427385912 0.001
0.0131096572563005 0.01443504599873992 0.001
0.01423615697818632 0.01490165746155459 0.001
0.01509834253844548 0.01576384302181378 0.001
0.0155649540012601 0.01689034274369961 0.001
1 57 0 1
191
0.025 0.0175 0.0005
1 58 0 7
192
193
194
195
196
197
198
0.02265625000000001 0.0175 0.001
0.0203125 0.0175 0.001
0.01796875 0.0175 0.001
0.02382812500000001 0.0175 0.001
0.02148437500000001 0.0175 0.001
0.019140625 0.0175 0.001
0.016796875 0.0175 0.001
1 59 0 3
199
200
201
0.025 0.01125000000000001 0.001
0.025 0.008125000000000004 0.001
0.025 0.014375 0.001
1 60 0 1
202
0 0.03 0.0005
1 61 0 3
203
204
205
0 0.02375 0.001
0 0.026875 0.001
0 0.020625 0.001
1 62 0 1
206
0.0125 0.03 0.0005
1 63 0 3
207
208
209
0.006249999999999996 0.03 0.001
0.009374999999999998 0.03 0.001
0.003124999999999998 0.03 0.001
1 64 0 1
210
0.01250000000000011 0.020625 0.0005
1 65 0 7
211
212
213
214
215
216
217
0.0125 0.02296875 0.001
0.0125 0.0253125 0.001
0.0125 0.02765625 0.001
0.0125 0.021796875 0.001
0.0125 0.024140625 0.001
0.0125 0.026484375 0.001
0.0125 0.028828125 0.001
1 66 0 7
218
219
220
221
222
223
224
0.01130411427385917 0.0203871235390978 0.001
0.01029029130879208 0.019709708691208 0.001
0.009612876460902239 0.01869588572614093 0.001
0.01189034274369969 0.02056495400126012 0.001
0.0107638430218138 0.02009834253844549 0.001
0.00990165746155457 0.01923615697818629 0.001
0.009435045998739908 0.01810965725630042 0.001
1 67 0 7
225
226
227
228
229
230
231
0.01538712353909778 0.01869588572614088 0.001
0.014709708691208 0.01970970869120792 0.001
0.01369588572614098 0.02038712353909774 0.001
0.0155649540012601 0.01810965725630039 0.001
0.01509834253844548 0.01923615697818622 0.001
0.01423615697818631 0.02009834253844542 0.001
0.0131096572563005 0.02056495400126008 0.001
1 68 0 1
232
0.025 0.03 0.0005
1 69 0 3
233
234
235
0.01875 0.03 0.001
0.021875 0.03 0.001
0.015625 0.03 0.001
1 70 0 3
236
237
238
0.025 0.02375000000000001 0.001
0.025 0.020625 0.001
0.025 0.026875 0.001
1 71 0 1
239
0.0125 0.035 0.0005
1 72 0 1
240
0.0125 0.0325 0.001
1 73 0 1
241
0 0.035 0.0005
1 74 0 3
242
243
244
0.006249999999999996 0.035 0.001
0.009374999999999998 0.035 0.001
0.003124999999999998 0.035 0.001
1 75 0 1
245
0 0.0325 0.001
1 76 0 1
246
0.025 0.035 0.0005
1 77 0 1
247
0.025 0.0325 0.001
1 78 0 3
248
249
250
0.01875 0.035 0.001
0.021875 0.035 0.001
0.015625 0.035 0.001
2 1 0 3
251
252
253
0.00625 0.0025 0
0.003125 0.0025 0
0.009375000000000001 0.0025 0
2 5 0 3
254
255
256
0.01875 0.0025 0
0.015625 0.0025 0
0.021875 0.0025 0
2 9 0 49
257
258
259
260
261
262
263
264
265
266
267
268
269
270
271
272
273
274
275
276
277
278
279
280
281
282
283
284
285
286
287
288
289
290
291
292
293
294
295
296
297
298
299
300
301
302
303
304
305
0.007209657345676664 0.0150405857053943 0
0.004806438230451111 0.01377705713692953 0
0.002403219115225554 0.01251352856846476 0
0.00771771848159402 0.012717718481594 0
0.005145145654396014 0.010145145654396 0
0.002572572827198005 0.007572572827197997 0
0.01004058570539432 0.01220965734567665 0
0.008777057136929544 0.009806438230451096 0
0.00751352856846477 0.007403219115225545 0
0.007120453672838335 0.01627029285269715 0
0.008411266903289452 0.01567234998962668 0
0.008277749835789123 0.01658031779819837 0
0.004746969115225558 0.01563852856846477 0
0.006008047788063887 0.01440882142116192 0
0.005933711394031946 0.01595441071058096 0
0.002373484557612778 0.01500676428423238 0
0.003604828672838332 0.01314529285269715 0
0.003560226836419168 0.01532264642634857 0
0.001201609557612776 0.01188176428423238 0
0.001186742278806389 0.01469088214211619 0
0.007463687913635342 0.01387915209349415 0
0.009004004895193049 0.014004004895193 0
0.008682672687594956 0.01482149755765393 0
0.004975791942423562 0.01196110139566276 0
0.006431432067995017 0.011431432067995 0
0.006219739928029452 0.01292012674457846 0
0.00248789597121178 0.01004305069783138 0
0.00385885924079701 0.008858859240796997 0
0.003731843956817671 0.01100207604674707 0
0.001286286413599002 0.006286286413598999 0
0.001243947985605889 0.009084025348915689 0
0.008879152093494169 0.01246368791363532 0
0.01067234998962675 0.01341126690328942 0
0.009821497557653986 0.01368267268759492 0
0.006961101395662779 0.009975791942423548 0
0.009408821421161931 0.01100804778806387 0
0.007920126744578475 0.01121973992802944 0
0.005043050697831388 0.007487895971211771 0
0.008145292852697158 0.008604828672838322 0
0.006002076046747084 0.008731843956817659 0
0.006881764284232383 0.006201609557612773 0
0.004084025348915693 0.006243947985605886 0
0.01127029285269716 0.01212045367283832 0
0.0115803177981984 0.01327774983578911 0
0.01063852856846477 0.009746969115225547 0
0.01095441071058097 0.01093371139403194 0
0.01000676428423239 0.007373484557612771 0
0.01032264642634858 0.008560226836419159 0
0.009690882142116192 0.006186742278806385 0
2 13 0 49
306
307
308
309
310
311
312
313
314
315
316
317
318
319
320
321
322
323
324
325
326
327
328
329
330
331
332
333
334
335
336
337
338
339
340
341
342
343
344
345
346
347
348
349
350
351
352
353
354
0.01495941429460574 0.0122096573456767 0
0.01622294286307049 0.009806438230451128 0
0.01748647143153524 0.007403219115225561 0
0.017282281518406 0.01271771848159406 0
0.01985485434560401 0.01014514565439604 0
0.02242742717280201 0.007572572827198015 0
0.01779034265432334 0.01504058570539434 0
0.0201935617695489 0.01377705713692956 0
0.02259678088477445 0.01251352856846478 0
0.01372970714730287 0.01212045367283835 0
0.01432765001037336 0.01341126690328948 0
0.01341968220180168 0.01327774983578914 0
0.01436147143153525 0.009746969115225563 0
0.01559117857883812 0.01100804778806391 0
0.01404558928941906 0.01093371139403196 0
0.01499323571576762 0.007373484557612778 0
0.01685470714730287 0.008604828672838346 0
0.01467735357365144 0.008560226836419171 0
0.01811823571576762 0.006201609557612781 0
0.01530911785788381 0.00618674227880639 0
0.01612084790650587 0.01246368791363538 0
0.015995995104807 0.01400400489519307 0
0.01517850244234609 0.01368267268759498 0
0.01803889860433725 0.009975791942423583 0
0.018568567932005 0.01143143206799505 0
0.01707987325542156 0.01121973992802948 0
0.01995694930216863 0.007487895971211788 0
0.02114114075920301 0.008858859240797027 0
0.01899792395325294 0.008731843956817685 0
0.023713713586401 0.006286286413599008 0
0.02091597465108431 0.006243947985605894 0
0.01753631208636467 0.0138791520934942 0
0.01658873309671056 0.01567234998962673 0
0.01631732731240507 0.01482149755765399 0
0.02002420805757645 0.0119611013956628 0
0.01899195221193612 0.01440882142116195 0
0.01878026007197056 0.0129201267445785 0
0.02251210402878823 0.0100430506978314 0
0.02139517132716167 0.01314529285269717 0
0.02126815604318234 0.0110020760467471 0
0.02379839044238723 0.01188176428423239 0
0.02375605201439412 0.009084025348915701 0
0.01787954632716167 0.01627029285269717 0
0.01672225016421089 0.01658031779819839 0
0.02025303088477445 0.01563852856846478 0
0.01906628860596806 0.01595441071058098 0
0.02262651544238723 0.01500676428423239 0
0.02143977316358084 0.01532264642634859 0
0.02381325772119362 0.0146908821421162 0
2 17 0 49
355
356
357
358
359
360
361
362
363
364
365
366
367
368
369
370
371
372
373
374
375
376
377
378
379
380
381
382
383
384
385
386
387
388
389
390
391
392
393
394
395
396
397
398
399
400
401
402
403
0.007209657345676685 0.0199594142946057 0
0.004806438230451125 0.02122294286307046 0
0.002403219115225562 0.02248647143153523 0
0.007717718481594063 0.022282281518406 0
0.005145145654396045 0.024854854345604 0
0.002572572827198022 0.027427427172802 0
0.01004058570539438 0.02279034265432335 0
0.008777057136929587 0.0251935617695489 0
0.007513528568464792 0.02759678088477445 0
0.008411266903289463 0.01932765001037332 0
0.007120453672838345 0.01872970714730285 0
0.008277749835789126 0.01841968220180163 0
0.006008047788063905 0.02059117857883808 0
0.004746969115225565 0.01936147143153523 0
0.005933711394031955 0.01904558928941904 0
0.003604828672838344 0.02185470714730285 0
0.002373484557612782 0.01999323571576762 0
0.003560226836419174 0.01967735357365142 0
0.001201609557612782 0.02311823571576761 0
0.001186742278806391 0.02030911785788381 0
0.009004004895193072 0.020995995104807 0
0.007463687913635374 0.02112084790650585 0
0.008682672687594973 0.02017850244234607 0
0.006431432067995054 0.023568567932005 0
0.004975791942423585 0.02303889860433723 0
0.00621973992802948 0.02207987325542154 0
0.003858859240797033 0.026141140759203 0
0.002487895971211792 0.02495694930216862 0
0.003731843956817689 0.02399792395325292 0
0.001286286413599011 0.028713713586401 0
0.001243947985605896 0.02591597465108431 0
0.01067234998962678 0.02158873309671058 0
0.008879152093494221 0.02253631208636467 0
0.009821497557654012 0.02131732731240508 0
0.009408821421161983 0.02399195221193613 0
0.006961101395662816 0.02502420805757645 0
0.007920126744578518 0.02378026007197056 0
0.008145292852697189 0.02639517132716167 0
0.005043050697831408 0.02751210402878822 0
0.006002076046747112 0.02626815604318234 0
0.006881764284232394 0.02879839044238722 0
0.004084025348915703 0.02875605201439412 0
0.01127029285269719 0.02287954632716167 0
0.01158031779819844 0.02172225016421089 0
0.01063852856846479 0.02525303088477445 0
0.01095441071058099 0.02406628860596806 0
0.0100067642842324 0.02762651544238722 0
0.01032264642634859 0.02643977316358084 0
0.009690882142116199 0.02881325772119361 0
2 21 0 49
404
405
406
407
408
409
410
411
412
413
414
415
416
417
418
419
420
421
422
423
424
425
426
427
428
429
430
431
432
433
434
435
436
437
438
439
440
441
442
443
444
445
446
447
448
449
450
451
452
0.01779034265432334 0.01995941429460566 0
0.0201935617695489 0.02122294286307044 0
0.02259678088477445 0.02248647143153523 0
0.017282281518406 0.02228228151840594 0
0.019854854345604 0.02485485434560396 0
0.02242742717280201 0.02742742717280199 0
0.01495941429460574 0.0227903426543233 0
0.01622294286307049 0.02519356176954887 0
0.01748647143153524 0.02759678088477444 0
0.01787954632716167 0.01872970714730283 0
0.01658873309671056 0.01932765001037327 0
0.01672225016421089 0.01841968220180161 0
0.02025303088477445 0.01936147143153522 0
0.01899195221193612 0.02059117857883805 0
0.01906628860596806 0.01904558928941903 0
0.02262651544238723 0.01999323571576761 0
0.02139517132716167 0.02185470714730283 0
0.02143977316358084 0.01967735357365142 0
0.02379839044238723 0.02311823571576762 0
0.02381325772119362 0.02030911785788381 0
0.01753631208636467 0.0211208479065058 0
0.015995995104807 0.02099599510480693 0
0.01631732731240507 0.02017850244234601 0
0.02002420805757645 0.0230388986043372 0
0.018568567932005 0.02356856793200495 0
0.01878026007197056 0.0220798732554215 0
0.02251210402878823 0.02495694930216861 0
0.02114114075920301 0.02614114075920297 0
0.02126815604318234 0.0239979239532529 0
0.023713713586401 0.02871371358640099 0
0.02375605201439411 0.02591597465108431 0
0.01612084790650587 0.02253631208636462 0
0.01432765001037336 0.02158873309671052 0
0.01517850244234609 0.02131732731240502 0
0.01803889860433725 0.02502420805757642 0
0.01559117857883811 0.02399195221193608 0
0.01707987325542156 0.02378026007197052 0
0.01995694930216863 0.02751210402878821 0
0.01685470714730287 0.02639517132716165 0
0.01899792395325293 0.02626815604318231 0
0.01811823571576762 0.02879839044238722 0
0.02091597465108431 0.02875605201439411 0
0.01372970714730287 0.02287954632716165 0
0.01341968220180168 0.02172225016421086 0
0.01436147143153525 0.02525303088477443 0
0.01404558928941906 0.02406628860596804 0
0.01499323571576762 0.02762651544238722 0
0.01467735357365143 0.02643977316358083 0
0.01530911785788381 0.02881325772119361 0
2 25 0 3
453
454
455
0.006249999999999996 0.0325 0
0.003124999999999998 0.0325 0
0.009374999999999998 0.0325 0
2 29 0 3
456
457
458
0.01875 0.0325 0
0.015625 0.0325 0
0.021875 0.0325 0
2 30 0 3
459
460
461
0.006250000000000005 0 0.0005
0.003125000000000002 0 0.0005
0.009375000000000003 0 0.0005
2 31 0 1
462
0.0125 0.0025 0.0005
2 32 0 3
463
464
465
0.006249999999999996 0.005000000000000001 0.0005
0.009374999999999998 0.005000000000000001 0.0005
0.003124999999999998 0.005000000000000001 0.0005
2 33 0 1
466
0 0.0025 0.0005
2 34 0 3
467
468
469
0.00625 0.0025 0.001
0.003125 0.0025 0.001
0.009375000000000001 0.0025 0.001
2 35 0 3
470
471
472
0.01875000000000001 0 0.0005
0.015625 0 0.0005
0.02187500000000001 0 0.0005
2 36 0 1
473
0.025 0.0025 0.0005
2 37 0 3
474
475
476
0.01875 0.005000000000000001 0.0005
0.021875 0.005000000000000001 0.0005
0.015625 0.005000000000000001 0.0005
2 38 0 3
477
478
479
0.01875 0.0025 0.001
0.015625 0.0025 0.001
0.021875 0.0025 0.001
2 39 0 3
480
481
482
0 0.01125 0.0005
0 0.014375 0.0005
0 0.008124999999999999 0.0005
2 40 0 7
483
484
485
486
487
488
489
0.007031250000000005 0.0175 0.0005
0.008203125000000004 0.0175 0.0005
0.004687500000000005 0.0175 0.0005
0.005859375000000005 0.0175 0.0005
0.002343750000000002 0.0175 0.0005
0.003515625000000004 0.0175 0.0005
0.001171875000000001 0.0175 0.0005
2 41 0 7
490
491
492
493
494
495
496
0.009612876460902241 0.01630411427385907 0.0005
0.00943504599873991 0.01689034274369959 0.0005
0.01029029130879208 0.015290291308792 0.0005
0.009901657461554568 0.01576384302181371 0.0005
0.01130411427385917 0.0146128764609022 0.0005
0.0107638430218138 0.01490165746155451 0.0005
0.0118903427436997 0.01443504599873989 0.0005
2 42 0 7
497
498
499
500
501
502
503
0.0125 0.007343749999999996 0.0005
0.0125 0.006171874999999999 0.0005
0.0125 0.009687499999999998 0.0005
0.0125 0.008515624999999997 0.0005
0.0125 0.01203125 0.0005
0.0125 0.010859375 0.0005
0.0125 0.013203125 0.0005
2 43 0 49
504
505
506
507
508
509
510
511
512
513
514
515
516
517
518
519
520
521
522
523
524
525
526
527
528
529
530
531
532
533
534
535
536
537
538
539
540
541
542
543
544
545
546
547
548
549
550
551
552
0.007209657345676664 0.0150405857053943 0.001
0.004806438230451111 0.01377705713692953 0.001
0.002403219115225554 0.01251352856846476 0.001
0.00771771848159402 0.012717718481594 0.001
0.005145145654396014 0.010145145654396 0.001
0.002572572827198005 0.007572572827197997 0.001
0.01004058570539432 0.01220965734567665 0.001
0.008777057136929544 0.009806438230451096 0.001
0.00751352856846477 0.007403219115225545 0.001
0.007120453672838334 0.01627029285269715 0.001
0.008411266903289452 0.01567234998962668 0.001
0.008277749835789123 0.01658031779819837 0.001
0.004746969115225558 0.01563852856846477 0.001
0.006008047788063887 0.01440882142116192 0.001
0.005933711394031946 0.01595441071058096 0.001
0.002373484557612778 0.01500676428423238 0.001
0.003604828672838332 0.01314529285269715 0.001
0.003560226836419168 0.01532264642634858 0.001
0.001201609557612776 0.01188176428423238 0.001
0.001186742278806389 0.01469088214211619 0.001
0.007463687913635342 0.01387915209349415 0.001
0.009004004895193049 0.014004004895193 0.001
0.008682672687594956 0.01482149755765393 0.001
0.004975791942423563 0.01196110139566277 0.001
0.006431432067995017 0.011431432067995 0.001
0.006219739928029452 0.01292012674457846 0.001
0.00248789597121178 0.01004305069783138 0.001
0.00385885924079701 0.008858859240796999 0.001
0.003731843956817671 0.01100207604674707 0.001
0.001286286413599002 0.006286286413598999 0.001
0.001243947985605889 0.009084025348915691 0.001
0.008879152093494169 0.01246368791363532 0.001
0.01067234998962674 0.01341126690328942 0.001
0.009821497557653986 0.01368267268759492 0.001
0.006961101395662779 0.009975791942423548 0.001
0.009408821421161929 0.01100804778806387 0.001
0.007920126744578473 0.01121973992802944 0.001
0.005043050697831388 0.007487895971211771 0.001
0.008145292852697158 0.008604828672838322 0.001
0.006002076046747084 0.008731843956817659 0.001
0.006881764284232383 0.006201609557612773 0.001
0.004084025348915693 0.006243947985605886 0.001
0.01127029285269716 0.01212045367283832 0.001
0.0115803177981984 0.01327774983578911 0.001
0.01063852856846477 0.009746969115225547 0.001
0.01095441071058097 0.01093371139403194 0.001
0.01000676428423239 0.007373484557612771 0.001
0.01032264642634858 0.008560226836419159 0.001
0.009690882142116192 0.006186742278806385 0.001
2 44 0 7
553
554
555
556
557
558
559
0.01369588572614098 0.01461287646090226 0.0005
0.01310965725630049 0.01443504599873992 0.0005
0.014709708691208 0.01529029130879208 0.0005
0.01423615697818632 0.01490165746155459 0.0005
0.01538712353909778 0.01630411427385912 0.0005
0.01509834253844548 0.01576384302181378 0.0005
0.0155649540012601 0.01689034274369961 0.0005
2 45 0 7
560
561
562
563
564
565
566
0.02265625000000001 0.0175 0.0005
0.02382812500000001 0.0175 0.0005
0.0203125 0.0175 0.0005
0.02148437500000001 0.0175 0.0005
0.01796875 0.0175 0.0005
0.01914062500000001 0.0175 0.0005
0.016796875 0.0175 0.0005
2 46 0 3
567
568
569
0.025 0.01125000000000001 0.0005
0.025 0.008125000000000004 0.0005
0.025 0.014375 0.0005
2 47 0 49
570
571
572
573
574
575
576
577
578
579
580
581
582
583
584
585
586
587
588
589
590
591
592
593
594
595
596
597
598
599
600
601
602
603
604
605
606
607
608
609
610
611
612
613
614
615
616
617
618
0.01495941429460574 0.0122096573456767 0.001
0.01622294286307049 0.009806438230451128 0.001
0.01748647143153524 0.007403219115225561 0.001
0.017282281518406 0.01271771848159406 0.001
0.01985485434560401 0.01014514565439604 0.001
0.02242742717280201 0.007572572827198015 0.001
0.01779034265432334 0.01504058570539434 0.001
0.0201935617695489 0.01377705713692956 0.001
0.02259678088477445 0.01251352856846478 0.001
0.01372970714730287 0.01212045367283835 0.001
0.01432765001037336 0.01341126690328948 0.001
0.01341968220180168 0.01327774983578914 0.001
0.01436147143153525 0.009746969115225563 0.001
0.01559117857883812 0.01100804778806391 0.001
0.01404558928941906 0.01093371139403196 0.001
0.01499323571576762 0.007373484557612778 0.001
0.01685470714730287 0.008604828672838344 0.001
0.01467735357365144 0.008560226836419171 0.001
0.01811823571576762 0.006201609557612781 0.001
0.01530911785788381 0.00618674227880639 0.001
0.01612084790650587 0.01246368791363538 0.001
0.015995995104807 0.01400400489519307 0.001
0.01517850244234609 0.01368267268759498 0.001
0.01803889860433725 0.009975791942423581 0.001
0.018568567932005 0.01143143206799505 0.001
0.01707987325542156 0.01121973992802948 0.001
0.01995694930216863 0.007487895971211788 0.001
0.02114114075920301 0.008858859240797025 0.001
0.01899792395325294 0.008731843956817685 0.001
0.023713713586401 0.006286286413599008 0.001
0.02091597465108431 0.006243947985605894 0.001
0.01753631208636467 0.0138791520934942 0.001
0.01658873309671056 0.01567234998962673 0.001
0.01631732731240507 0.01482149755765399 0.001
0.02002420805757645 0.0119611013956628 0.001
0.01899195221193612 0.01440882142116195 0.001
0.01878026007197056 0.0129201267445785 0.001
0.02251210402878823 0.0100430506978314 0.001
0.02139517132716167 0.01314529285269717 0.001
0.02126815604318234 0.0110020760467471 0.001
0.02379839044238723 0.01188176428423239 0.001
0.02375605201439412 0.009084025348915701 0.001
0.01787954632716167 0.01627029285269717 0.001
0.01672225016421089 0.01658031779819839 0.001
0.02025303088477445 0.01563852856846478 0.001
0.01906628860596806 0.01595441071058098 0.001
0.02262651544238723 0.01500676428423239 0.001
0.02143977316358084 0.01532264642634859 0.001
0.02381325772119362 0.0146908821421162 0.001
2 48 0 3
619
620
621
0 0.02375 0.0005
0 0.026875 0.0005
0 0.020625 0.0005
2 49 0 3
622
623
624
0.006249999999999996 0.03 0.0005
0.009374999999999998 0.03 0.0005
0.003124999999999998 0.03 0.0005
2 50 0 7
625
626
627
628
629
630
631
0.0125 0.02296875 0.0005
0.0125 0.021796875 0.0005
0.0125 0.0253125 0.0005
0.0125 0.024140625 0.0005
0.0125 0.02765625 0.0005
0.0125 0.026484375 0.0005
0.0125 0.028828125 0.0005
2 51 0 7
632
633
634
635
636
637
638
0.01130411427385917 0.0203871235390978 0.0005
0.01189034274369969 0.02056495400126012 0.0005
0.01029029130879208 0.019709708691208 0.0005
0.0107638430218138 0.02009834253844549 0.0005
0.009612876460902241 0.01869588572614093 0.0005
0.00990165746155457 0.01923615697818629 0.0005
0.00943504599873991 0.01810965725630042 0.0005
2 52 0 49
639
640
641
642
643
644
645
646
647
648
649
650
651
652
653
654
655
656
657
658
659
660
661
662
663
664
665
666
667
668
669
670
671
672
673
674
675
676
677
678
679
680
681
682
683
684
685
686
687
0.007209657345676685 0.0199594142946057 0.001
0.004806438230451125 0.02122294286307046 0.001
0.002403219115225562 0.02248647143153523 0.001
0.007717718481594063 0.022282281518406 0.001
0.005145145654396045 0.024854854345604 0.001
0.002572572827198022 0.027427427172802 0.001
0.01004058570539438 0.02279034265432335 0.001
0.008777057136929587 0.0251935617695489 0.001
0.007513528568464792 0.02759678088477445 0.001
0.008411266903289463 0.01932765001037332 0.001
0.007120453672838345 0.01872970714730285 0.001
0.008277749835789126 0.01841968220180163 0.001
0.006008047788063905 0.02059117857883808 0.001
0.004746969115225565 0.01936147143153523 0.001
0.005933711394031955 0.01904558928941904 0.001
0.003604828672838344 0.02185470714730285 0.001
0.002373484557612782 0.01999323571576762 0.001
0.003560226836419173 0.01967735357365143 0.001
0.001201609557612782 0.02311823571576762 0.001
0.001186742278806391 0.02030911785788381 0.001
0.009004004895193072 0.020995995104807 0.001
0.007463687913635374 0.02112084790650585 0.001
0.008682672687594973 0.02017850244234607 0.001
0.006431432067995054 0.023568567932005 0.001
0.004975791942423585 0.02303889860433723 0.001
0.00621973992802948 0.02207987325542154 0.001
0.003858859240797033 0.026141140759203 0.001
0.002487895971211792 0.02495694930216862 0.001
0.003731843956817688 0.02399792395325293 0.001
0.001286286413599011 0.028713713586401 0.001
0.001243947985605896 0.02591597465108431 0.001
0.01067234998962678 0.02158873309671058 0.001
0.008879152093494221 0.02253631208636468 0.001
0.009821497557654012 0.02131732731240508 0.001
0.009408821421161983 0.02399195221193613 0.001
0.006961101395662816 0.02502420805757645 0.001
0.007920126744578518 0.02378026007197056 0.001
0.008145292852697189 0.02639517132716167 0.001
0.005043050697831408 0.02751210402878822 0.001
0.006002076046747112 0.02626815604318234 0.001
0.006881764284232394 0.02879839044238722 0.001
0.004084025348915703 0.02875605201439412 0.001
0.01127029285269719 0.02287954632716167 0.001
0.01158031779819844 0.02172225016421089 0.001
0.01063852856846479 0.02525303088477445 0.001
0.01095441071058099 0.02406628860596806 0.001
0.0100067642842324 0.02762651544238722 0.001
0.01032264642634859 0.02643977316358084 0.001
0.009690882142116199 0.02881325772119361 0.001
2 53 0 7
688
689
690
691
692
693
694
0.01538712353909778 0.01869588572614088 0.0005
0.0155649540012601 0.01810965725630039 0.0005
0.014709708691208 0.01970970869120792 0.0005
0.01509834253844548 0.01923615697818622 0.0005
0.01369588572614098 0.02038712353909774 0.0005
0.01423615697818632 0.02009834253844542 0.0005
0.0131096572563005 0.02056495400126008 0.0005
2 54 0 3
695
696
697
0.01875 0.03 0.0005
0.021875 0.03 0.0005
0.015625 0.03 0.0005
2 55 0 3
698
699
700
0.025 0.02375000000000001 0.0005
0.025 0.020625 0.0005
0.025 0.026875 0.0005
2 56 0 49
701
702
703
704
705
706
707
708
709
710
711
712
713
714
715
716
717
718
719
720
721
722
723
724
725
726
727
728
729
730
731
732
733
734
735
736
737
738
739
740
741
742
743
744
745
746
747
748
749
0.01779034265432334 0.01995941429460566 0.001
0.0201935617695489 0.02122294286307044 0.001
0.02259678088477445 0.02248647143153523 0.001
0.017282281518406 0.02228228151840594 0.001
0.019854854345604 0.02485485434560396 0.001
0.02242742717280201 0.02742742717280199 0.001
0.01495941429460574 0.0227903426543233 0.001
0.01622294286307049 0.02519356176954887 0.001
0.01748647143153524 0.02759678088477444 0.001
0.01787954632716167 0.01872970714730283 0.001
0.01658873309671056 0.01932765001037327 0.001
0.01672225016421089 0.01841968220180161 0.001
0.02025303088477445 0.01936147143153522 0.001
0.01899195221193612 0.02059117857883805 0.001
0.01906628860596806 0.01904558928941903 0.001
0.02262651544238723 0.01999323571576761 0.001
0.02139517132716167 0.02185470714730283 0.001
0.02143977316358084 0.01967735357365142 0.001
0.02379839044238723 0.02311823571576762 0.001
0.02381325772119362 0.02030911785788381 0.001
0.01753631208636467 0.0211208479065058 0.001
0.015995995104807 0.02099599510480693 0.001
0.01631732731240507 0.02017850244234601 0.001
0.02002420805757645 0.0230388986043372 0.001
0.018568567932005 0.02356856793200495 0.001
0.01878026007197056 0.0220798732554215 0.001
0.02251210402878823 0.02495694930216861 0.001
0.021141140759203 0.02614114075920297 0.001
0.02126815604318234 0.0239979239532529 0.001
0.023713713586401 0.02871371358640099 0.001
0.02375605201439411 0.02591597465108431 0.001
0.01612084790650587 0.02253631208636462 0.001
0.01432765001037336 0.02158873309671052 0.001
0.01517850244234609 0.02131732731240502 0.001
0.01803889860433724 0.02502420805757642 0.001
0.01559117857883811 0.02399195221193608 0.001
0.01707987325542156 0.02378026007197052 0.001
0.01995694930216863 0.02751210402878821 0.001
0.01685470714730287 0.02639517132716165 0.001
0.01899792395325293 0.02626815604318231 0.001
0.01811823571576762 0.02879839044238722 0.001
0.02091597465108431 0.02875605201439411 0.001
0.01372970714730287 0.02287954632716165 0.001
0.01341968220180168 0.02172225016421086 0.001
0.01436147143153525 0.02525303088477443 0.001
0.01404558928941906 0.02406628860596804 0.001
0.01499323571576762 0.02762651544238722 0.001
0.01467735357365143 0.02643977316358083 0.001
0.01530911785788381 0.02881325772119361 0.001
2 57 0 1
750
0.0125 0.0325 0.0005
2 58 0 3
751
752
753
0.006249999999999996 0.035 0.0005
0.009374999999999998 0.035 0.0005
0.003124999999999998 0.035 0.0005
2 59 0 1
754
0 0.0325 0.0005
2 60 0 3
755
756
757
0.006249999999999996 0.0325 0.001
0.003124999999999998 0.0325 0.001
0.009374999999999998 0.0325 0.001
2 61 0 1
758
0.025 0.0325 0.0005
2 62 0 3
759
760
761
0.01875 0.035 0.0005
0.021875 0.035 0.0005
0.015625 0.035 0.0005
2 63 0 3
762
763
764
0.01875 0.0325 0.001
0.015625 0.0325 0.001
0.021875 0.0325 0.001
3 1 0 3
765
766
767
0.00625 0.0025 0.0005
0.003125 0.0025 0.0005
0.009375000000000001 0.0025 0.0005
3 2 0 3
768
769
770
0.01875 0.0025 0.0005
0.015625 0.0025 0.0005
0.021875 0.0025 0.0005
3 3 0 49
771
772
773
774
775
776
777
778
779
780
781
782
783
784
785
786
787
788
789
790
791
792
793
794
795
796
797
798
799
800
801
802
803
804
805
806
807
808
809
810
811
812
813
814
815
816
817
818
819
0.007209657345676664 0.0150405857053943 0.0005
0.007120453672838334 0.01627029285269715 0.0005
0.008411266903289452 0.01567234998962668 0.0005
0.008277749835789125 0.01658031779819837 0.0005
0.004806438230451111 0.01377705713692953 0.0005
0.004746969115225558 0.01563852856846477 0.0005
0.006008047788063887 0.01440882142116192 0.0005
0.005933711394031946 0.01595441071058095 0.0005
0.002403219115225554 0.01251352856846476 0.0005
0.002373484557612778 0.01500676428423238 0.0005
0.003604828672838332 0.01314529285269715 0.0005
0.003560226836419168 0.01532264642634857 0.0005
0.001201609557612776 0.01188176428423238 0.0005
0.001186742278806389 0.01469088214211619 0.0005
0.00771771848159402 0.012717718481594 0.0005
0.007463687913635343 0.01387915209349415 0.0005
0.009004004895193048 0.014004004895193 0.0005
0.008682672687594952 0.01482149755765393 0.0005
0.005145145654396014 0.010145145654396 0.0005
0.004975791942423562 0.01196110139566276 0.0005
0.006431432067995017 0.011431432067995 0.0005
0.006219739928029454 0.01292012674457846 0.0005
0.002572572827198005 0.007572572827197997 0.0005
0.00248789597121178 0.01004305069783138 0.0005
0.00385885924079701 0.008858859240796997 0.0005
0.003731843956817671 0.01100207604674707 0.0005
0.001286286413599002 0.006286286413598999 0.0005
0.001243947985605889 0.009084025348915692 0.0005
0.01004058570539432 0.01220965734567665 0.0005
0.008879152093494169 0.01246368791363532 0.0005
0.01067234998962674 0.01341126690328942 0.0005
0.009821497557653987 0.01368267268759492 0.0005
0.008777057136929544 0.009806438230451096 0.0005
0.006961101395662779 0.009975791942423548 0.0005
0.009408821421161931 0.01100804778806387 0.0005
0.007920126744578471 0.01121973992802944 0.0005
0.00751352856846477 0.007403219115225545 0.0005
0.005043050697831388 0.007487895971211771 0.0005
0.008145292852697158 0.008604828672838322 0.0005
0.006002076046747084 0.008731843956817659 0.0005
0.006881764284232383 0.006201609557612773 0.0005
0.004084025348915693 0.006243947985605888 0.0005
0.01127029285269716 0.01212045367283832 0.0005
0.0115803177981984 0.01327774983578911 0.0005
0.01063852856846477 0.009746969115225547 0.0005
0.01095441071058097 0.01093371139403194 0.0005
0.01000676428423239 0.00737348455761277 0.0005
0.01032264642634858 0.008560226836419164 0.0005
0.009690882142116192 0.006186742278806386 0.0005
3 4 0 49
820
821
822
823
824
825
826
827
828
829
830
831
832
833
834
835
836
837
838
839
840
841
842
843
844
845
846
847
848
849
850
851
852
853
854
855
856
857
858
859
860
861
862
863
864
865
866
867
868
0.01495941429460574 0.0122096573456767 0.0005
0.01372970714730287 0.01212045367283835 0.0005
0.01432765001037336 0.01341126690328948 0.0005
0.01341968220180168 0.01327774983578914 0.0005
0.01622294286307049 0.009806438230451128 0.0005
0.01436147143153525 0.009746969115225563 0.0005
0.01559117857883812 0.01100804778806391 0.0005
0.01404558928941906 0.01093371139403196 0.0005
0.01748647143153524 0.007403219115225561 0.0005
0.01499323571576762 0.007373484557612778 0.0005
0.01685470714730287 0.008604828672838346 0.0005
0.01467735357365143 0.008560226836419171 0.0005
0.01811823571576762 0.006201609557612781 0.0005
0.01530911785788381 0.006186742278806391 0.0005
0.017282281518406 0.01271771848159406 0.0005
0.01612084790650587 0.01246368791363538 0.0005
0.015995995104807 0.01400400489519307 0.0005
0.01517850244234609 0.01368267268759498 0.0005
0.01985485434560401 0.01014514565439604 0.0005
0.01803889860433725 0.009975791942423583 0.0005
0.018568567932005 0.01143143206799505 0.0005
0.01707987325542156 0.01121973992802948 0.0005
0.02242742717280201 0.007572572827198015 0.0005
0.01995694930216863 0.007487895971211788 0.0005
0.02114114075920301 0.008858859240797027 0.0005
0.01899792395325293 0.008731843956817685 0.0005
0.02371371358640101 0.006286286413599008 0.0005
0.02091597465108432 0.006243947985605897 0.0005
0.01779034265432334 0.01504058570539434 0.0005
0.01753631208636467 0.0138791520934942 0.0005
0.01658873309671056 0.01567234998962674 0.0005
0.01631732731240507 0.01482149755765399 0.0005
0.0201935617695489 0.01377705713692956 0.0005
0.02002420805757645 0.0119611013956628 0.0005
0.01899195221193612 0.01440882142116195 0.0005
0.01878026007197056 0.0129201267445785 0.0005
0.02259678088477445 0.01251352856846478 0.0005
0.02251210402878823 0.0100430506978314 0.0005
0.02139517132716167 0.01314529285269717 0.0005
0.02126815604318234 0.0110020760467471 0.0005
0.02379839044238723 0.01188176428423239 0.0005
0.02375605201439412 0.009084025348915701 0.0005
0.01787954632716167 0.01627029285269717 0.0005
0.01672225016421089 0.01658031779819839 0.0005
0.02025303088477445 0.01563852856846478 0.0005
0.01906628860596807 0.01595441071058098 0.0005
0.02262651544238723 0.01500676428423239 0.0005
0.02143977316358084 0.01532264642634858 0.0005
0.02381325772119361 0.0146908821421162 0.0005
3 5 0 49
869
870
871
872
873
874
875
876
877
878
879
880
881
882
883
884
885
886
887
888
889
890
891
892
893
894
895
896
897
898
899
900
901
902
903
904
905
906
907
908
909
910
911
912
913
914
915
916
917
0.007209657345676685 0.0199594142946057 0.0005
0.008411266903289465 0.01932765001037332 0.0005
0.007120453672838345 0.01872970714730285 0.0005
0.008277749835789126 0.01841968220180163 0.0005
0.004806438230451125 0.02122294286307046 0.0005
0.006008047788063905 0.02059117857883808 0.0005
0.004746969115225565 0.01936147143153523 0.0005
0.005933711394031954 0.01904558928941904 0.0005
0.002403219115225562 0.02248647143153523 0.0005
0.003604828672838344 0.02185470714730284 0.0005
0.002373484557612782 0.01999323571576762 0.0005
0.003560226836419174 0.01967735357365143 0.0005
0.001201609557612782 0.02311823571576762 0.0005
0.001186742278806391 0.02030911785788381 0.0005
0.007717718481594063 0.022282281518406 0.0005
0.009004004895193072 0.020995995104807 0.0005
0.007463687913635374 0.02112084790650585 0.0005
0.008682672687594973 0.02017850244234608 0.0005
0.005145145654396045 0.024854854345604 0.0005
0.006431432067995055 0.023568567932005 0.0005
0.004975791942423585 0.02303889860433723 0.0005
0.00621973992802948 0.02207987325542154 0.0005
0.002572572827198022 0.027427427172802 0.0005
0.003858859240797033 0.026141140759203 0.0005
0.002487895971211792 0.02495694930216862 0.0005
0.003731843956817689 0.02399792395325292 0.0005
0.001286286413599011 0.028713713586401 0.0005
0.001243947985605896 0.0259159746510843 0.0005
0.01004058570539438 0.02279034265432335 0.0005
0.01067234998962677 0.02158873309671058 0.0005
0.008879152093494221 0.02253631208636467 0.0005
0.00982149755765401 0.02131732731240508 0.0005
0.008777057136929587 0.0251935617695489 0.0005
0.009408821421161983 0.02399195221193613 0.0005
0.006961101395662816 0.02502420805757645 0.0005
0.007920126744578515 0.02378026007197057 0.0005
0.007513528568464792 0.02759678088477445 0.0005
0.008145292852697189 0.02639517132716167 0.0005
0.005043050697831408 0.02751210402878822 0.0005
0.006002076046747112 0.02626815604318234 0.0005
0.006881764284232394 0.02879839044238722 0.0005
0.004084025348915703 0.02875605201439412 0.0005
0.01127029285269719 0.02287954632716167 0.0005
0.01158031779819844 0.02172225016421089 0.0005
0.01063852856846479 0.02525303088477444 0.0005
0.01095441071058099 0.02406628860596806 0.0005
0.0100067642842324 0.02762651544238723 0.0005
0.01032264642634859 0.02643977316358083 0.0005
0.009690882142116199 0.02881325772119361 0.0005
3 6 0 49
918
919
920
921
922
923
924
925
926
927
928
929
930
931
932
933
934
935
936
937
938
939
940
941
942
943
944
945
946
947
948
949
950
951
952
953
954
955
956
957
958
959
960
961
962
963
964
965
966
0.01779034265432334 0.01995941429460566 0.0005
0.01787954632716167 0.01872970714730283 0.0005
0.01658873309671056 0.01932765001037327 0.0005
0.0167222501642109 0.01841968220180161 0.0005
0.0201935617695489 0.02122294286307044 0.0005
0.02025303088477445 0.01936147143153522 0.0005
0.01899195221193612 0.02059117857883805 0.0005
0.01906628860596806 0.01904558928941902 0.0005
0.02259678088477445 0.02248647143153523 0.0005
0.02262651544238723 0.01999323571576761 0.0005
0.02139517132716167 0.02185470714730283 0.0005
0.02143977316358084 0.01967735357365142 0.0005
0.02379839044238723 0.02311823571576762 0.0005
0.02381325772119361 0.0203091178578838 0.0005
0.017282281518406 0.02228228151840594 0.0005
0.01753631208636467 0.0211208479065058 0.0005
0.015995995104807 0.02099599510480693 0.0005
0.01631732731240507 0.02017850244234601 0.0005
0.019854854345604 0.02485485434560396 0.0005
0.02002420805757645 0.0230388986043372 0.0005
0.018568567932005 0.02356856793200495 0.0005
0.01878026007197055 0.0220798732554215 0.0005
0.02242742717280201 0.02742742717280199 0.0005
0.02251210402878823 0.0249569493021686 0.0005
0.02114114075920301 0.02614114075920297 0.0005
0.02126815604318233 0.02399792395325289 0.0005
0.023713713586401 0.02871371358640099 0.0005
0.0237560520143941 0.02591597465108431 0.0005
0.01495941429460574 0.0227903426543233 0.0005
0.01612084790650587 0.02253631208636462 0.0005
0.01432765001037336 0.02158873309671052 0.0005
0.01517850244234609 0.02131732731240502 0.0005
0.01622294286307049 0.02519356176954887 0.0005
0.01803889860433725 0.02502420805757642 0.0005
0.01559117857883811 0.02399195221193608 0.0005
0.01707987325542156 0.02378026007197053 0.0005
0.01748647143153524 0.02759678088477444 0.0005
0.01995694930216863 0.02751210402878821 0.0005
0.01685470714730287 0.02639517132716165 0.0005
0.01899792395325294 0.02626815604318232 0.0005
0.01811823571576762 0.02879839044238722 0.0005
0.02091597465108432 0.02875605201439412 0.0005
0.01372970714730287 0.02287954632716165 0.0005
0.01341968220180168 0.02172225016421086 0.0005
0.01436147143153525 0.02525303088477443 0.0005
0.01404558928941906 0.02406628860596803 0.0005
0.01499323571576762 0.02762651544238722 0.0005
0.01467735357365144 0.02643977316358082 0.0005
0.01530911785788381 0.02881325772119361 0.0005
3 7 0 3
967
968
969
0.006249999999999996 0.0325 0.0005
0.003124999999999998 0.0325 0.0005
0.009374999999999998 0.0325 0.0005
3 8 0 3
970
971
972
0.01875 0.0325 0.0005
0.015625 0.0325 0.0005
0.021875 0.0325 0.0005
$EndNodes
$Elements
12 80 1 80
2 30 10 2
1 1 37 137 19 38 459 138 135 460 
2 37 2 20 137 39 136 139 459 461 
2 35 10 2
3 2 45 148 20 46 470 149 136 471 
4 45 5 23 148 47 147 150 470 472 
2 58 10 2
5 10 59 242 34 60 751 243 239 752 
6 59 11 35 242 61 241 244 751 753 
2 62 10 2
7 12 64 248 36 65 759 249 246 760 
8 64 10 34 248 66 239 250 759 761 
3 1 12 2
9 1 37 41 4 19 137 143 22 38 44 135 251 459 43 463 142 138 146 467 145 252 460 466 765 465 468 766 
10 37 2 3 41 137 20 21 143 39 251 459 40 136 42 140 463 139 467 141 144 253 461 765 462 464 469 767 
3 2 12 2
11 2 45 49 3 20 148 153 21 46 40 136 254 470 51 474 140 149 141 477 155 255 471 462 768 476 478 769 
12 45 5 6 49 148 23 24 153 47 254 470 48 147 50 151 474 150 477 152 154 256 472 768 473 475 479 770 
3 3 12 16
13 14 70 257 77 26 161 504 169 73 80 160 266 483 267 771 490 164 172 513 514 268 484 491 772 773 515 774 
14 70 71 258 257 161 162 505 504 74 266 483 269 485 270 775 771 165 513 516 517 271 486 772 776 777 518 778 
15 71 72 259 258 162 163 506 505 75 269 485 272 487 273 779 775 166 516 519 520 274 488 776 780 781 521 782 
16 72 13 67 259 163 25 157 506 76 272 487 68 156 275 480 779 167 519 158 522 276 489 780 481 783 523 784 
17 77 257 260 78 169 504 507 170 267 81 490 277 771 278 785 492 514 173 524 525 279 773 493 786 787 526 788 
18 257 258 261 260 504 505 508 507 270 277 771 280 775 281 789 785 517 524 527 528 282 777 786 790 791 529 792 
19 258 259 262 261 505 506 509 508 273 280 775 283 779 284 793 789 520 527 530 531 285 781 790 794 795 532 796 
20 259 67 4 262 506 157 22 509 275 283 779 69 480 286 142 793 522 530 159 533 287 783 794 482 797 534 798 
21 78 260 263 79 170 507 510 171 278 82 492 288 785 289 799 494 525 174 535 536 290 787 495 800 801 537 802 
22 260 261 264 263 507 508 511 510 281 288 785 291 789 292 803 799 528 535 538 539 293 791 800 804 805 540 806 
23 261 262 265 264 508 509 512 511 284 291 789 294 793 295 807 803 531 538 541 542 296 795 804 808 809 543 810 
24 262 4 41 265 509 22 143 512 286 294 793 43 142 297 463 807 533 541 145 544 298 797 808 465 811 545 812 
25 79 263 86 15 171 510 178 27 289 83 494 299 799 90 501 168 536 175 546 182 300 801 496 813 503 547 814 
26 263 264 85 86 510 511 177 178 292 299 799 301 803 89 499 501 539 546 548 181 302 805 813 815 502 549 816 
27 264 265 84 85 511 512 176 177 295 301 803 303 807 88 497 499 542 548 550 180 304 809 815 817 500 551 818 
28 265 41 3 84 512 143 21 176 297 303 807 42 463 87 140 497 544 550 144 179 305 811 817 464 498 552 819 
3 4 12 16
29 15 86 306 91 27 178 570 184 90 94 168 315 501 316 820 553 182 187 579 580 317 503 554 821 822 581 823 
30 86 85 307 306 178 177 571 570 89 315 501 318 499 319 824 820 181 579 582 583 320 502 821 825 826 584 827 
31 85 84 308 307 177 176 572 571 88 318 499 321 497 322 828 824 180 582 585 586 323 500 825 829 830 587 831 
32 84 3 49 308 176 21 153 572 87 321 497 51 140 324 474 828 179 585 155 588 325 498 829 476 832 589 833 
33 91 306 309 92 184 570 573 185 316 95 553 326 820 327 834 555 580 188 590 591 328 822 556 835 836 592 837 
34 306 307 310 309 570 571 574 573 319 326 820 329 824 330 838 834 583 590 593 594 331 826 835 839 840 595 841 
35 307 308 311 310 571 572 575 574 322 329 824 332 828 333 842 838 586 593 596 597 334 830 839 843 844 598 845 
36 308 49 6 311 572 153 24 575 324 332 828 50 474 335 151 842 588 596 154 599 336 832 843 475 846 600 847 
37 92 309 312 93 185 573 576 186 327 96 555 337 834 338 848 557 591 189 601 602 339 836 558 849 850 603 851 
38 309 310 313 312 573 574 577 576 330 337 834 340 838 341 852 848 594 601 604 605 342 840 849 853 854 606 855 
39 310 311 314 313 574 575 578 577 333 340 838 343 842 344 856 852 597 604 607 608 345 844 853 857 858 609 859 
40 311 6 105 314 575 24 199 578 335 343 842 106 151 346 567 856 599 607 200 610 347 846 857 568 860 611 861 
41 93 312 100 16 186 576 194 28 338 97 557 348 848 104 564 183 602 190 612 198 349 850 559 862 566 613 863 
42 312 313 99 100 576 577 193 194 341 348 848 350 852 103 562 564 605 612 614 197 351 854 862 864 565 615 865 
43 313 314 98 99 577 578 192 193 344 350 852 352 856 102 560 562 608 614 616 196 353 858 864 866 563 617 867 
44 314 105 17 98 578 199 29 192 346 352 856 107 567 101 191 560 610 616 201 195 354 860 866 569 561 618 868 
3 5 12 16
45 14 120 355 70 26 220 639 161 124 73 160 364 636 365 869 483 224 164 648 649 366 638 484 870 871 650 872 
46 70 355 356 71 161 639 640 162 365 74 483 367 869 368 873 485 649 165 651 652 369 871 486 874 875 653 876 
47 71 356 357 72 162 640 641 163 368 75 485 370 873 371 877 487 652 166 654 655 372 875 488 878 879 656 880 
48 72 357 108 13 163 641 203 25 371 76 487 373 877 110 619 156 655 167 657 205 374 879 489 881 621 658 882 
49 120 119 358 355 220 219 642 639 123 364 636 375 634 376 883 869 223 648 659 660 377 637 870 884 885 661 886 
50 355 358 359 356 639 642 643 640 376 367 869 378 883 379 887 873 660 651 662 663 380 885 874 888 889 664 890 
51 356 359 360 357 640 643 644 641 379 370 873 381 887 382 891 877 663 654 665 666 383 889 878 892 893 667 894 
52 357 360 8 108 641 644 30 203 382 373 877 384 891 109 202 619 666 657 668 204 385 893 881 895 620 669 896 
53 119 118 361 358 219 218 645 642 122 375 634 386 632 387 897 883 222 659 670 671 388 635 884 898 899 672 900 
54 358 361 362 359 642 645 646 643 387 378 883 389 897 390 901 887 671 662 673 674 391 899 888 902 903 675 904 
55 359 362 363 360 643 646 647 644 390 381 887 392 901 393 905 891 674 665 676 677 394 903 892 906 907 678 908 
56 360 363 52 8 644 647 207 30 393 384 891 395 905 54 622 202 677 668 679 209 396 907 895 909 624 680 910 
57 118 18 111 361 218 32 211 645 121 386 632 114 210 397 625 897 221 670 214 681 398 633 898 626 911 682 912 
58 361 111 112 362 645 211 212 646 397 389 897 115 625 399 627 901 681 673 215 683 400 911 902 628 913 684 914 
59 362 112 113 363 646 212 213 647 399 392 901 116 627 401 629 905 683 676 216 685 402 913 906 630 915 686 916 
60 363 113 7 52 647 213 31 207 401 395 905 117 629 53 206 622 685 679 217 208 403 915 909 631 623 687 917 
3 6 12 16
61 16 100 404 125 28 194 701 225 104 128 183 413 564 414 918 688 198 228 710 711 415 566 689 919 920 712 921 
62 100 99 405 404 194 193 702 701 103 413 564 416 562 417 922 918 197 710 713 714 418 565 919 923 924 715 925 
63 99 98 406 405 193 192 703 702 102 416 562 419 560 420 926 922 196 713 716 717 421 563 923 927 928 718 929 
64 98 17 132 406 192 29 236 703 101 419 560 133 191 422 698 926 195 716 237 719 423 561 927 699 930 720 931 
65 125 404 407 126 225 701 704 226 414 129 688 424 918 425 932 690 711 229 721 722 426 920 691 933 934 723 935 
66 404 405 408 407 701 702 705 704 417 424 918 427 922 428 936 932 714 721 724 725 429 924 933 937 938 726 939 
67 405 406 409 408 702 703 706 705 420 427 922 430 926 431 940 936 717 724 727 728 432 928 937 941 942 729 943 
68 406 132 9 409 703 236 33 706 422 430 926 134 698 433 232 940 719 727 238 730 434 930 941 700 944 731 945 
69 126 407 410 127 226 704 707 227 425 130 690 435 932 436 946 692 722 230 732 733 437 934 693 947 948 734 949 
70 407 408 411 410 704 705 708 707 428 435 932 438 936 439 950 946 725 732 735 736 440 938 947 951 952 737 953 
71 408 409 412 411 705 706 709 708 431 438 936 441 940 442 954 950 728 735 738 739 443 942 951 955 956 740 957 
72 409 9 55 412 706 33 233 709 433 441 940 56 232 444 695 954 730 738 234 741 445 944 955 696 958 742 959 
73 127 410 111 18 227 707 211 32 436 131 692 446 946 114 625 210 733 231 743 214 447 948 694 960 626 744 961 
74 410 411 112 111 707 708 212 211 439 446 946 448 950 115 627 625 736 743 745 215 449 952 960 962 628 746 963 
75 411 412 113 112 708 709 213 212 442 448 950 450 954 116 629 627 739 745 747 216 451 956 962 964 630 748 965 
76 412 55 7 113 709 233 31 213 444 450 954 57 695 117 206 629 741 747 235 217 452 958 964 697 631 749 966 
3 7 12 2
77 8 52 59 11 30 207 242 35 54 62 202 453 622 61 751 241 209 245 755 244 454 624 754 967 753 756 968 
78 52 7 10 59 207 31 34 242 53 453 622 58 206 60 239 751 208 755 240 243 455 623 967 750 752 757 969 
3 8 12 2
79 7 55 64 10 31 233 248 34 57 58 206 456 695 66 759 239 235 240 762 250 457 697 750 970 761 763 971 
80 55 9 12 64 233 33 36 248 56 456 695 63 232 65 246 759 234 762 247 249 458 696 970 758 760 764 972 
$EndElements
