$MeshFormat
4.1 0 8
$EndMeshFormat
$PhysicalNames
3
2 1 "bc-top"
2 2 "bc-bot"
3 3 "vol"
$EndPhysicalNames
$Entities
10 15 7 1
1 0 0 0.002 0 
2 0 0 0 0 
3 0 0.035 0.002 0 
4 0 0.035 0 0 
5 0.025 0 0 0 
6 0.025 0 0.002 0 
7 0.025 0.035 0.002 0 
8 0.015625 0.0175 0.002 0 
9 0.025 0.035 0 0 
10 0.015625 0.0175 0 0 
1 -1e-07 -1e-07 -1.000000000000566e-07 1e-07 1e-07 0.0020001 0 2 2 -1 
2 -1e-07 -9.999999999940612e-08 0.0019999 1e-07 0.03500010000000001 0.0020001 0 2 1 -3 
3 -1e-07 0.0349999 -1.000000000000566e-07 1e-07 0.03500010000000001 0.0020001 0 2 4 -3 
4 -1e-07 -9.999999999940612e-08 -1e-07 1e-07 0.03500010000000001 1e-07 0 2 2 -4 
5 -9.999999999940612e-08 -1e-07 -1e-07 0.0250001 1e-07 1e-07 0 2 2 -5 
6 0.0249999 -1e-07 -1.000000000000566e-07 0.0250001 1e-07 0.0020001 0 2 5 -6 
7 -9.999999999940612e-08 -1e-07 0.0019999 0.0250001 1e-07 0.0020001 0 2 1 -6 
8 -9.999999999940612e-08 0.0349999 0.0019999 0.0250001 0.03500010000000001 0.0020001 0 2 3 -7 
9 0.0249999 -9.999999999940612e-08 0.0019999 0.0250001 0.03500010000000001 0.0020001 0 2 6 -7 
10 0.009374900000000002 0.0143749 0.0019999 0.0156251 0.0206251 0.0020001 0 2 8 -8 
11 -9.999999999940612e-08 0.0349999 -1e-07 0.0250001 0.03500010000000001 1e-07 0 2 4 -9 
12 0.0249999 0.0349999 -1.000000000000566e-07 0.0250001 0.03500010000000001 0.0020001 0 2 9 -7 
13 0.0249999 -9.999999999940612e-08 -1e-07 0.0250001 0.03500010000000001 1e-07 0 2 5 -9 
14 0.009374900000000002 0.0143749 -1e-07 0.0156251 0.0206251 1e-07 0 2 10 -10 
15 0.0156249 0.0174999 -1.000000000000566e-07 0.0156251 0.0175001 0.0020001 0 2 10 -8 
1 -1e-07 -9.999999999940612e-08 -1.000000000000566e-07 1e-07 0.03500010000000001 0.0020001 0 4 -1 4 3 -2 
2 -9.999999999940612e-08 -1e-07 -1.000000000000566e-07 0.0250001 1e-07 0.0020001 1 2 4 -5 1 7 -6 
3 -9.999999999940612e-08 -9.999999999940612e-08 0.0019999 0.0250001 0.03500010000000001 0.0020001 0 5 -2 7 9 -8 -10 
4 -9.999999999940612e-08 0.0349999 -1.000000000000566e-07 0.0250001 0.03500010000000001 0.0020001 1 1 4 -11 3 8 -12 
5 -9.999999999940612e-08 -9.999999999940612e-08 -1e-07 0.0250001 0.03500010000000001 1e-07 0 5 -4 5 13 -11 -14 
6 0.0249999 -9.999999999940612e-08 -1.000000000000566e-07 0.0250001 0.03500010000000001 0.0020001 0 4 -6 13 12 -9 
7 0.009374900000000002 0.0143749 -1.000000000000566e-07 0.0156251 0.0206251 0.0020001 0 4 -10 -15 14 15 
1 -9.999999999940612e-08 -9.999999999940612e-08 -1.000000000000566e-07 0.0250001 0.03500010000000001 0.0020001 1 3 7 -1 -2 3 4 -5 6 -7 
$EndEntities
$Nodes
28 182 1 182
0 1 0 1
1
0 0 0.002
0 2 0 1
2
0 0 0
0 3 0 1
3
0 0.035 0.002
0 4 0 1
4
0 0.035 0
0 5 0 1
5
0.025 0 0
0 6 0 1
6
0.025 0 0.002
0 7 0 1
7
0.025 0.035 0.002
0 8 0 1
8
0.015625 0.0175 0.002
0 9 0 1
9
0.025 0.035 0
0 10 0 1
10
0.015625 0.0175 0
1 2 0 6
11
12
13
14
15
16
0 0.004999999999999988 0.002
0 0.009999999999999981 0.002
0 0.01499999999999997 0.002
0 0.01999999999999997 0.002
0 0.02499999999999998 0.002
0 0.03 0.002
1 4 0 6
17
18
19
20
21
22
0 0.004999999999999988 0
0 0.009999999999999981 0
0 0.01499999999999997 0
0 0.01999999999999997 0
0 0.02499999999999998 0
0 0.03 0
1 5 0 4
23
24
25
26
0.005000000000000006 0 0
0.01000000000000002 0 0
0.01500000000000002 0 0
0.02000000000000002 0 0
1 7 0 4
27
28
29
30
0.005000000000000006 0 0.002
0.01000000000000002 0 0.002
0.01500000000000002 0 0.002
0.02000000000000002 0 0.002
1 8 0 4
31
32
33
34
0.005000000000000006 0.035 0.002
0.01000000000000002 0.035 0.002
0.01500000000000002 0.035 0.002
0.02000000000000002 0.035 0.002
1 9 0 6
35
36
37
38
39
40
0.025 0.004999999999999988 0.002
0.025 0.009999999999999981 0.002
0.025 0.01499999999999997 0.002
0.025 0.01999999999999997 0.002
0.025 0.02499999999999998 0.002
0.025 0.03 0.002
1 10 0 6
41
42
43
44
45
46
0.01444840563080855 0.01994322338271259 0.002
0.01180462208138653 0.0205466497255682 0.002
0.00968447228780495 0.01885588668474239 0.002
0.009684472287804932 0.01614411331525765 0.002
0.01180462208138651 0.01445335027443181 0.002
0.01444840563080854 0.01505677661728741 0.002
1 11 0 4
47
48
49
50
0.005000000000000006 0.035 0
0.01000000000000002 0.035 0
0.01500000000000002 0.035 0
0.02000000000000002 0.035 0
1 13 0 6
51
52
53
54
55
56
0.025 0.004999999999999988 0
0.025 0.009999999999999981 0
0.025 0.01499999999999997 0
0.025 0.01999999999999997 0
0.025 0.02499999999999998 0
0.025 0.03 0
1 14 0 6
57
58
59
60
61
62
0.01444840563080855 0.01994322338271259 0
0.01180462208138653 0.0205466497255682 0
0.00968447228780495 0.01885588668474239 0
0.009684472287804932 0.01614411331525765 0
0.01180462208138651 0.01445335027443181 0
0.01444840563080854 0.01505677661728741 0
2 1 0 3
63
64
65
0 0.007499999999999984 0.001
0 0.002499999999999994 0.001
0 0.01249999999999998 0.001
2 2 0 2
66
67
0.02250000000000001 0 0.001
0.01750000000000002 0 0.001
2 3 0 51
68
69
70
71
72
73
74
75
76
77
78
79
80
81
82
83
84
85
86
87
88
89
90
91
92
93
94
95
96
97
98
99
100
101
102
103
104
105
106
107
108
109
110
111
112
113
114
115
116
117
118
0.01366965235433022 0.02261746813433501 0.002
0.0136696523543302 0.01238253186566499 0.002
0.01085153500481859 0.0233856916885422 0.002
0.01085153500481854 0.01161430831145781 0.002
0.01292145921466465 0.0257475124261916 0.002
0.009331469740092576 0.02663231973655236 0.002
0.01292145921466462 0.009252487573808392 0.002
0.009331469740092534 0.008367680263447624 0.002
0.01706510417988186 0.01314434699675419 0.002
0.01706510417988188 0.02185565300324578 0.002
0.006975976394781645 0.01763782521523111 0.002
0.007133158039968179 0.01453186659526371 0.002
0.006988127041738653 0.02064574065638626 0.002
0.02066987298107782 0.007499999999999985 0.002
0.0206698729810778 0.02749999999999999 0.002
0.01183187408937388 0.02955393690688847 0.002
0.01183187408937385 0.00544606309311151 0.002
0.02123455391506851 0.01749999999999998 0.002
0.004674538169556629 0.02716103890904786 0.002
0.004674538169556606 0.007838961090952121 0.002
0.00741635600614458 0.03078117358577405 0.002
0.007416356006144566 0.004218826414225938 0.002
0.02095619241748977 0.01299591981105998 0.002
0.02095619241748978 0.02200408018893997 0.002
0.01614581042553961 0.007193711115890937 0.002
0.01614581042553963 0.02780628888410905 0.002
0.003937769694218656 0.01226843199333678 0.002
0.003922655761071638 0.02320576092122115 0.002
0.003633142776157249 0.01651711524389175 0.002
0.007570602825715957 0.01139221348354216 0.002
0.00754391200381989 0.02371641987749249 0.002
0.003751952527975019 0.01966456765951892 0.002
0.01806849648129253 0.01025478518380675 0.002
0.01810628064910184 0.00350149481819257 0.002
0.01806849648129254 0.02474521481619322 0.002
0.01810628064910185 0.03149850518180742 0.002
0.01688606282627094 0.01562663377293957 0.002
0.01688606282627095 0.01937336622706043 0.002
0.01550550240247361 0.02456005200467131 0.002
0.01550550240247358 0.01043994799532867 0.002
0.009408878047938824 0.01362717039599063 0.002
0.009495146305641277 0.02126796735320513 0.002
0.003660254037844388 0.03133974596215561 0.002
0.003660254037844382 0.003660254037844376 0.002
0.01812781179939926 0.0175 0.002
0.01467141686599372 0.0315341585847356 0.002
0.0146714168659937 0.003465841415264393 0.002
0.02186818869631135 0.003100046796313251 0.002
0.02186818869631136 0.03189995320368674 0.002
0.01899562970198562 0.01964260247568169 0.002
0.0189956297019856 0.0153573975243183 0.002
2 4 0 1
119
0.02250000000000001 0.035 0.001
2 5 0 51
120
121
122
123
124
125
126
127
128
129
130
131
132
133
134
135
136
137
138
139
140
141
142
143
144
145
146
147
148
149
150
151
152
153
154
155
156
157
158
159
160
161
162
163
164
165
166
167
168
169
170
0.01366965235433022 0.02261746813433501 0
0.0136696523543302 0.01238253186566499 0
0.01085153500481859 0.0233856916885422 0
0.01085153500481854 0.01161430831145781 0
0.01292145921466465 0.0257475124261916 0
0.009331469740092576 0.02663231973655236 0
0.01292145921466462 0.009252487573808392 0
0.009331469740092534 0.008367680263447624 0
0.01706510417988186 0.01314434699675419 0
0.01706510417988188 0.02185565300324578 0
0.006975976394781645 0.01763782521523111 0
0.007133158039968179 0.01453186659526371 0
0.006988127041738653 0.02064574065638626 0
0.02066987298107782 0.007499999999999985 0
0.0206698729810778 0.02749999999999999 0
0.01183187408937388 0.02955393690688847 0
0.01183187408937385 0.00544606309311151 0
0.02123455391506851 0.01749999999999998 0
0.004674538169556629 0.02716103890904786 0
0.004674538169556606 0.007838961090952121 0
0.00741635600614458 0.03078117358577405 0
0.007416356006144566 0.004218826414225938 0
0.02095619241748977 0.01299591981105998 0
0.02095619241748978 0.02200408018893997 0
0.01614581042553961 0.007193711115890937 0
0.01614581042553963 0.02780628888410905 0
0.003937769694218656 0.01226843199333678 0
0.003922655761071638 0.02320576092122115 0
0.003633142776157249 0.01651711524389175 0
0.007570602825715957 0.01139221348354216 0
0.00754391200381989 0.02371641987749249 0
0.003751952527975019 0.01966456765951892 0
0.01806849648129253 0.01025478518380675 0
0.01810628064910184 0.00350149481819257 0
0.01806849648129254 0.02474521481619322 0
0.01810628064910185 0.03149850518180742 0
0.01688606282627094 0.01562663377293957 0
0.01688606282627095 0.01937336622706043 0
0.01550550240247361 0.02456005200467131 0
0.01550550240247358 0.01043994799532867 0
0.009408878047938824 0.01362717039599063 0
0.009495146305641277 0.02126796735320513 0
0.003660254037844388 0.03133974596215561 0
0.003660254037844382 0.003660254037844376 0
0.01812781179939926 0.0175 0
0.01467141686599372 0.0315341585847356 0
0.0146714168659937 0.003465841415264393 0
0.02186818869631135 0.003100046796313251 0
0.02186818869631136 0.03189995320368674 0
0.01899562970198562 0.01964260247568169 0
0.0189956297019856 0.0153573975243183 0
2 6 0 3
171
172
173
0.025 0.007499999999999984 0.001
0.025 0.002499999999999994 0.001
0.025 0.01249999999999998 0.001
2 7 0 7
174
175
176
177
178
179
180
0.01319537791861348 0.0144533502744318 0.001002214213990867
0.01055159436919145 0.01505677661728742 0.001002214213990867
0.01531552771219506 0.01614411331525764 0.0009977857860091334
0.01055159436919147 0.0199432233827126 0.0009977857860091338
0.009375000000000001 0.01750000000000003 0.0009977857860091329
0.01531552771219506 0.01885588668474237 0.001002214213990866
0.01319537791861349 0.0205466497255682 0.001002214213990867
3 1 0 2
181
182
0.02377912971901673 0.03206480482875364 0.001002734467261477
0.0181815829274203 0.02899977840799164 0.0009752153313311144
$EndNodes
$Elements
3 486 1 486
2 2 2 14
1 23 1 2 
2 27 1 23 
3 5 6 66 
4 26 5 66 
5 6 30 66 
6 24 27 23 
7 25 29 24 
8 27 24 28 
9 24 29 28 
10 25 26 67 
11 29 25 67 
12 30 26 66 
13 26 30 67 
14 30 29 67 
2 4 2 12
15 47 4 3 
16 31 47 3 
17 9 119 7 
18 7 119 34 
19 50 119 9 
20 32 47 31 
21 33 49 32 
22 32 48 47 
23 49 48 32 
24 33 34 50 
25 50 49 33 
26 34 119 50 
3 1 4 460
27 155 145 134 182 
28 103 82 93 182 
29 65 13 12 94 
30 25 153 67 26 
31 171 52 51 133 
32 171 81 35 36 
33 6 172 115 35 
34 51 5 172 167 
35 30 6 66 115 
36 5 66 167 26 
37 34 7 116 119 
38 63 12 11 87 
39 18 17 139 63 
40 116 7 40 181 
41 18 19 65 146 
42 56 9 168 181 
43 90 36 173 37 
44 101 29 67 30 
45 142 53 173 52 
46 163 17 2 64 
47 9 119 50 168 
48 111 1 11 64 
49 9 40 7 181 
50 56 40 9 181 
51 105 179 57 157 
52 104 46 176 156 
53 82 103 155 182 
54 179 41 105 57 
55 62 176 46 156 
56 7 116 168 181 
57 134 82 155 182 
58 176 8 104 156 
59 179 105 10 157 
60 160 61 175 108 
61 134 145 93 182 
62 45 175 61 108 
63 108 175 160 44 
64 180 58 42 120 
65 174 45 61 121 
66 178 131 60 44 
67 10 8 176 156 
68 105 10 8 179 
69 9 7 168 181 
70 103 93 145 182 
71 175 60 160 44 
72 155 103 145 182 
73 42 58 177 109 
74 174 69 45 121 
75 42 68 180 120 
76 134 93 82 182 
77 46 174 62 121 
78 180 68 41 57 
79 58 161 177 109 
80 43 59 178 78 
81 79 178 78 44 
82 178 60 131 130 
83 174 46 69 121 
84 68 180 120 57 
85 46 104 76 156 
86 129 105 57 157 
87 177 161 59 109 
88 131 178 79 44 
89 111 23 64 163 
90 59 177 109 43 
91 104 8 112 156 
92 112 157 10 105 
93 23 2 1 64 
94 23 111 64 27 
95 2 23 163 64 
96 178 60 130 59 
97 152 142 100 133 
98 154 134 102 143 
99 178 43 78 44 
100 23 1 27 64 
101 59 130 178 78 
102 1 111 27 64 
103 112 10 156 8 
104 112 10 8 105 
105 118 85 90 170 
106 117 91 85 169 
107 62 10 176 156 
108 41 105 8 179 
109 46 62 128 121 
110 57 77 68 41 
111 130 131 178 78 
112 104 46 8 176 
113 57 179 10 157 
114 116 56 168 181 
115 90 173 36 52 
116 151 147 14 99 
117 119 7 116 168 
118 14 151 99 96 
119 45 46 69 174 
120 68 41 42 180 
121 170 76 104 156 
122 157 129 105 169 
123 108 45 175 44 
124 90 36 81 52 
125 61 160 123 108 
126 62 174 61 121 
127 120 180 58 57 
128 61 60 160 175 
129 12 18 139 63 
130 123 61 45 121 
131 58 122 42 120 
132 78 131 178 79 
133 128 69 46 121 
134 57 120 68 129 
135 41 77 105 57 
136 128 62 46 156 
137 45 61 123 108 
138 146 19 65 94 
139 66 172 5 167 
140 6 172 66 115 
141 35 81 171 51 
142 107 69 76 159 
143 158 106 68 129 
144 171 81 36 52 
145 173 90 142 52 
146 157 112 10 164 
147 10 112 156 164 
148 63 139 12 87 
149 19 13 65 94 
150 135 48 140 88 
151 136 141 24 89 
152 90 142 52 133 
153 52 81 90 133 
154 120 158 68 129 
155 69 128 159 121 
156 16 21 138 15 
157 53 85 38 137 
158 16 15 138 86 
159 21 16 138 22 
160 157 105 112 169 
161 170 104 112 156 
162 42 122 58 109 
163 134 39 143 55 
164 77 57 68 129 
165 46 76 69 128 
166 92 159 74 107 
167 93 72 158 106 
168 146 12 139 94 
169 151 78 132 99 
170 78 151 132 130 
171 51 81 171 133 
172 134 39 82 143 
173 39 91 82 143 
174 116 40 56 181 
175 52 171 81 133 
176 69 123 45 121 
177 68 42 70 120 
178 160 79 108 44 
179 161 58 122 109 
180 40 134 56 55 
181 87 141 127 75 
182 125 88 86 73 
183 136 74 144 126 
184 145 72 83 124 
185 9 7 119 168 
186 23 89 24 141 
187 48 88 47 140 
188 45 71 123 69 
189 122 70 42 120 
190 131 96 94 79 
191 118 76 104 170 
192 117 105 129 169 
193 91 102 82 143 
194 142 90 100 133 
195 90 81 100 133 
196 134 82 102 143 
197 59 80 78 43 
198 78 80 132 99 
199 32 47 88 31 
200 146 65 12 94 
201 38 37 85 53 
202 153 144 92 133 
203 71 75 123 74 
204 70 122 125 124 
205 109 161 59 80 
206 139 18 12 146 
207 77 68 106 129 
208 128 69 159 76 
209 123 71 45 108 
210 57 77 105 129 
211 128 46 76 156 
212 51 115 81 167 
213 56 134 116 168 
214 90 170 76 118 
215 91 117 129 169 
216 153 81 92 101 
217 131 160 60 44 
218 147 15 14 95 
219 89 28 136 84 
220 135 48 88 83 
221 140 86 125 88 
222 141 87 89 75 
223 97 123 160 108 
224 74 123 69 121 
225 72 68 70 120 
226 153 81 115 167 
227 168 134 116 155 
228 43 109 59 80 
229 28 136 24 89 
230 32 88 48 83 
231 39 134 40 55 
232 99 147 14 95 
233 122 109 98 161 
234 117 85 112 169 
235 118 112 85 170 
236 137 112 169 164 
237 112 137 170 164 
238 96 20 151 148 
239 58 161 59 177 
240 147 151 132 99 
241 100 133 92 152 
242 134 102 93 154 
243 109 177 42 43 
244 69 71 123 74 
245 124 70 122 120 
246 134 39 40 82 
247 24 27 89 23 
248 159 69 74 107 
249 72 106 68 158 
250 29 24 114 25 
251 103 50 155 49 
252 137 90 85 170 
253 169 91 85 137 
254 53 90 85 137 
255 91 38 85 137 
256 12 139 94 87 
257 81 115 101 153 
258 103 116 82 155 
259 31 3 47 110 
260 38 54 53 137 
261 65 12 18 146 
262 96 19 13 14 
263 125 98 86 150 
264 75 149 87 97 
265 20 15 147 21 
266 15 20 147 14 
267 96 20 148 19 
268 152 92 107 159 
269 154 106 93 158 
270 74 127 123 126 
271 72 70 125 124 
272 99 80 132 95 
273 144 74 159 126 
274 72 145 158 124 
275 130 148 131 78 
276 42 70 122 109 
277 115 81 35 51 
278 162 47 4 110 
279 87 127 149 75 
280 147 14 20 151 
281 69 159 74 121 
282 158 68 72 120 
283 34 103 33 50 
284 162 16 110 4 
285 20 96 151 14 
286 105 117 112 169 
287 118 104 112 170 
288 84 74 92 144 
289 93 72 83 145 
290 87 149 94 97 
291 98 125 86 73 
292 169 112 157 164 
293 112 170 156 164 
294 84 28 136 114 
295 135 48 83 113 
296 139 141 127 87 
297 86 140 125 138 
298 32 33 113 49 
299 151 78 99 96 
300 78 148 151 130 
301 54 39 143 38 
302 39 54 143 55 
303 24 136 28 114 
304 24 136 114 166 
305 135 48 113 165 
306 83 48 32 113 
307 25 24 114 166 
308 16 86 162 110 
309 27 24 89 28 
310 47 32 88 48 
311 3 4 47 110 
312 132 130 59 78 
313 172 66 115 167 
314 96 131 78 79 
315 131 148 146 94 
316 96 20 19 14 
317 4 3 16 110 
318 91 39 38 143 
319 123 74 126 121 
320 124 72 70 120 
321 90 85 37 53 
322 109 122 98 70 
323 139 94 149 146 
324 128 142 76 152 
325 91 77 102 129 
326 81 153 92 133 
327 162 16 4 22 
328 98 122 125 70 
329 40 134 116 56 
330 152 107 76 159 
331 158 154 106 129 
332 123 75 71 97 
333 50 103 33 49 
334 100 76 142 152 
335 129 154 102 143 
336 146 148 19 94 
337 80 59 78 132 
338 138 16 162 22 
339 138 16 86 162 
340 144 152 92 133 
341 145 134 93 154 
342 133 51 81 167 
343 96 131 94 148 
344 113 48 32 49 
345 24 29 114 28 
346 49 113 48 165 
347 136 127 141 75 
348 125 83 88 73 
349 15 147 86 95 
350 76 170 142 128 
351 91 117 77 129 
352 79 97 160 108 
353 81 153 133 167 
354 134 82 116 155 
355 109 98 161 80 
356 97 71 123 108 
357 76 170 128 156 
358 117 105 77 129 
359 96 19 94 13 
360 19 96 94 148 
361 38 143 54 137 
362 159 74 121 126 
363 72 124 158 120 
364 132 59 161 80 
365 97 131 94 79 
366 137 53 90 142 
367 38 91 143 137 
368 89 136 141 75 
369 125 135 140 88 
370 127 87 149 139 
371 92 107 100 152 
372 93 102 106 154 
373 67 114 101 153 
374 75 127 123 74 
375 70 125 73 72 
376 159 92 74 144 
377 145 72 158 93 
378 147 21 15 138 
379 134 40 116 82 
380 37 173 90 53 
381 80 150 132 95 
382 170 137 90 142 
383 91 169 143 137 
384 86 125 150 138 
385 138 15 147 86 
386 136 127 74 126 
387 72 125 83 124 
388 160 131 79 44 
389 94 139 149 87 
390 98 86 150 95 
391 111 23 141 89 
392 47 88 110 140 
393 76 128 152 159 
394 77 106 102 129 
395 99 132 147 95 
396 74 136 144 84 
397 145 83 135 124 
398 47 88 31 110 
399 107 152 76 100 
400 154 102 106 129 
401 67 101 30 153 
402 133 100 92 81 
403 102 134 93 82 
404 131 97 94 149 
405 148 131 78 96 
406 110 47 140 162 
407 141 163 23 111 
408 173 90 53 142 
409 122 98 125 150 
410 80 98 150 95 
411 111 141 87 89 
412 140 110 86 88 
413 161 122 150 98 
414 67 153 25 166 
415 75 89 136 84 
416 83 125 88 135 
417 148 78 151 96 
418 75 123 149 97 
419 23 111 27 89 
420 94 131 149 146 
421 86 147 150 95 
422 159 152 92 144 
423 93 145 154 158 
424 153 30 67 26 
425 30 167 153 115 
426 137 85 112 170 
427 169 85 112 137 
428 125 73 98 70 
429 127 123 149 75 
430 163 141 87 111 
431 110 140 86 162 
432 136 75 74 127 
433 125 83 73 72 
434 132 161 150 80 
435 115 30 101 153 
436 160 149 123 97 
437 29 114 101 67 
438 153 67 114 166 
439 141 139 163 87 
440 140 162 138 86 
441 147 86 150 138 
442 116 50 168 155 
443 147 132 150 95 
444 160 131 97 79 
445 90 100 76 142 
446 129 102 91 143 
447 167 30 153 26 
448 67 29 114 25 
449 115 51 172 167 
450 93 113 103 145 
451 92 153 114 144 
452 84 92 114 144 
453 113 93 83 145 
454 103 50 116 155 
455 153 92 114 101 
456 165 155 103 145 
457 98 150 161 80 
458 49 155 103 165 
459 66 30 115 167 
460 170 90 76 142 
461 169 129 91 143 
462 50 103 116 34 
463 25 114 67 166 
464 51 115 172 35 
465 75 136 74 84 
466 125 135 83 124 
467 160 131 149 97 
468 116 50 119 168 
469 11 163 111 64 
470 66 30 167 26 
471 103 113 33 49 
472 163 11 17 64 
473 136 114 144 84 
474 113 83 135 145 
475 114 136 144 166 
476 165 113 135 145 
477 50 116 119 34 
478 144 153 114 166 
479 165 103 113 145 
480 103 113 49 165 
481 172 5 6 66 
482 163 87 11 111 
483 17 139 87 163 
484 87 139 17 63 
485 87 11 17 163 
486 17 11 87 63 
$EndElements
