$MeshFormat
4.1 0 8
$EndMeshFormat
$PhysicalNames
3
2 2 "bc-top"
2 3 "bc-bot"
3 1 "vol"
$EndPhysicalNames
$Entities
36 70 42 8
1 0 0 0 0 
2 0.0125 0 0 0 
3 0.0125 0.005000000000000001 0 0 
4 0 0.005000000000000001 0 0 
5 0.025 0 0 0 
6 0.025 0.005000000000000001 0 0 
10 0.0125 0.03 0 0 
11 0 0.03 0 0 
12 0.025 0.03 0 0 
13 0.0125 0.035 0 0 
14 0 0.035 0 0 
15 0.025 0.035 0 0 
16 0 0.0175 0 0 
17 0.009375000000000001 0.01749999999999975 0 0 
18 0.01250000000000011 0.014375 0 0 
19 0.015625 0.0175 0 0 
20 0.025 0.0175 0 0 
21 0.01250000000000011 0.020625 0 0 
22 0 0 0.001 0 
23 0.0125 0 0.001 0 
24 0.0125 0.005000000000000001 0.001 0 
25 0 0.005000000000000001 0.001 0 
26 0.025 0 0.001 0 
27 0.025 0.005000000000000001 0.001 0 
28 0 0.0175 0.001 0 
29 0.009375000000000001 0.01749999999999975 0.001 0 
30 0.01250000000000011 0.014375 0.001 0 
31 0.015625 0.0175 0.001 0 
32 0.025 0.0175 0.001 0 
33 0 0.03 0.001 0 
34 0.0125 0.03 0.001 0 
35 0.01250000000000011 0.020625 0.001 0 
36 0.025 0.03 0.001 0 
37 0.0125 0.035 0.001 0 
38 0 0.035 0.001 0 
39 0.025 0.035 0.001 0 
1 -1.000000000002735e-07 -1e-07 -1e-07 0.0125001 1e-07 1e-07 0 2 1 -2 
2 0.0124999 -9.99999999998398e-08 -1e-07 0.0125001 0.005000100000000001 1e-07 0 2 2 -3 
3 -1.000000000002735e-07 0.004999900000000001 -1e-07 0.0125001 0.005000100000000001 1e-07 0 2 3 -4 
4 -1e-07 -9.99999999998398e-08 -1e-07 1e-07 0.005000100000000001 1e-07 0 2 4 -1 
5 0.0124999 -1e-07 -1e-07 0.0250001 1e-07 1e-07 0 2 2 -5 
6 0.0249999 -9.99999999998398e-08 -1e-07 0.0250001 0.005000100000000001 1e-07 0 2 5 -6 
7 0.0124999 0.004999900000000001 -1e-07 0.0250001 0.005000100000000001 1e-07 0 2 6 -3 
14 -1.000000000002735e-07 0.0299999 -1e-07 0.0125001 0.0300001 1e-07 0 2 10 -11 
17 0.0124999 0.0299999 -1e-07 0.0250001 0.0300001 1e-07 0 2 12 -10 
18 0.0124999 0.0299999 -1e-07 0.0125001 0.03500010000000001 1e-07 0 2 10 -13 
19 -1.000000000002735e-07 0.0349999 -1e-07 0.0125001 0.03500010000000001 1e-07 0 2 13 -14 
20 -1e-07 0.0299999 -1e-07 1e-07 0.03500010000000001 1e-07 0 2 14 -11 
21 0.0249999 0.0299999 -1e-07 0.0250001 0.03500010000000001 1e-07 0 2 12 -15 
22 0.0124999 0.0349999 -1e-07 0.0250001 0.03500010000000001 1e-07 0 2 15 -13 
23 -1e-07 0.004999900000000001 -1e-07 1e-07 0.0175001 1e-07 0 2 16 -4 
24 -1.000000000002735e-07 0.0174999 -1e-07 0.009375100000000001 0.0175001 1e-07 0 2 17 -16 
25 0.009374900000000002 0.0143749 -1e-07 0.01250010000000011 0.0175001 1e-07 0 2 17 -18 
26 0.0124999 0.004999900000000001 -1e-07 0.0125001 0.0143751 1e-07 0 2 3 -18 
27 0.01249990000000011 0.0143749 -1e-07 0.0156251 0.0175001 1e-07 0 2 18 -19 
28 0.0156249 0.0174999 -1e-07 0.0250001 0.0175001 1e-07 0 2 20 -19 
29 0.0249999 0.004999900000000001 -1e-07 0.0250001 0.0175001 1e-07 0 2 6 -20 
30 -1e-07 0.0174999 -1e-07 1e-07 0.0300001 1e-07 0 2 11 -16 
31 0.0124999 0.0206249 -1e-07 0.0125001 0.0300001 1e-07 0 2 21 -10 
32 0.009374900000000002 0.0174999 -1e-07 0.01250010000000011 0.0206251 1e-07 0 2 21 -17 
33 0.01249990000000011 0.0174999 -1e-07 0.0156251 0.0206251 1e-07 0 2 19 -21 
34 0.0249999 0.0174999 -1e-07 0.0250001 0.0300001 1e-07 0 2 20 -12 
35 -1e-07 -1e-07 -9.999999999994822e-08 1e-07 1e-07 0.0010001 0 2 1 -22 
36 0.0124999 -1e-07 -9.999999999994822e-08 0.0125001 1e-07 0.0010001 0 2 2 -23 
37 -1.000000000002735e-07 -1e-07 0.0009999 0.0125001 1e-07 0.0010001 0 2 22 -23 
38 0.0124999 0.004999900000000001 -9.999999999994822e-08 0.0125001 0.005000100000000001 0.0010001 0 2 3 -24 
39 0.0124999 -9.99999999998398e-08 0.0009999 0.0125001 0.005000100000000001 0.0010001 0 2 23 -24 
40 -1e-07 0.004999900000000001 -9.999999999994822e-08 1e-07 0.005000100000000001 0.0010001 0 2 4 -25 
41 -1.000000000002735e-07 0.004999900000000001 0.0009999 0.0125001 0.005000100000000001 0.0010001 0 2 24 -25 
42 -1e-07 -9.99999999998398e-08 0.0009999 1e-07 0.005000100000000001 0.0010001 0 2 25 -22 
43 0.0249999 -1e-07 -9.999999999994822e-08 0.0250001 1e-07 0.0010001 0 2 5 -26 
44 0.0124999 -1e-07 0.0009999 0.0250001 1e-07 0.0010001 0 2 23 -26 
45 0.0249999 0.004999900000000001 -9.999999999994822e-08 0.0250001 0.005000100000000001 0.0010001 0 2 6 -27 
46 0.0249999 -9.99999999998398e-08 0.0009999 0.0250001 0.005000100000000001 0.0010001 0 2 26 -27 
47 0.0124999 0.004999900000000001 0.0009999 0.0250001 0.005000100000000001 0.0010001 0 2 27 -24 
48 -1e-07 0.0174999 -9.999999999994822e-08 1e-07 0.0175001 0.0010001 0 2 16 -28 
49 -1e-07 0.004999900000000001 0.0009999 1e-07 0.0175001 0.0010001 0 2 28 -25 
50 0.009374899999999752 0.0174998999999995 -1.000000002497484e-07 0.009375100000000251 0.0175001 0.00100010000000025 0 2 17 -29 
51 -1.000000000002735e-07 0.0174999 0.0009999 0.009375100000000001 0.0175001 0.0010001 0 2 29 -28 
52 0.0124999 0.01437489999999989 -1.000000001118379e-07 0.01250010000000022 0.01437510000000011 0.001000100000000112 0 2 18 -30 
53 0.009374900000000002 0.0143749 0.0009999 0.01250010000000011 0.0175001 0.0010001 0 2 29 -30 
54 0.0124999 0.004999900000000001 0.0009999 0.0125001 0.0143751 0.0010001 0 2 24 -30 
55 0.0156249 0.0174999 -9.999999999994822e-08 0.0156251 0.0175001 0.0010001 0 2 19 -31 
56 0.01249990000000011 0.0143749 0.0009999 0.0156251 0.0175001 0.0010001 0 2 30 -31 
57 0.0249999 0.0174999 -9.999999999994822e-08 0.0250001 0.0175001 0.0010001 0 2 20 -32 
58 0.0156249 0.0174999 0.0009999 0.0250001 0.0175001 0.0010001 0 2 32 -31 
59 0.0249999 0.004999900000000001 0.0009999 0.0250001 0.0175001 0.0010001 0 2 27 -32 
60 -1e-07 0.0299999 -9.999999999994822e-08 1e-07 0.0300001 0.0010001 0 2 11 -33 
61 -1e-07 0.0174999 0.0009999 1e-07 0.0300001 0.0010001 0 2 33 -28 
62 0.0124999 0.0299999 -9.999999999994822e-08 0.0125001 0.0300001 0.0010001 0 2 10 -34 
63 -1.000000000002735e-07 0.0299999 0.0009999 0.0125001 0.0300001 0.0010001 0 2 34 -33 
64 0.0124999 0.02062489999999989 -1.000000001109705e-07 0.01250010000000022 0.02062510000000011 0.001000100000000111 0 2 21 -35 
65 0.0124999 0.0206249 0.0009999 0.0125001 0.0300001 0.0010001 0 2 35 -34 
66 0.009374900000000002 0.0174999 0.0009999 0.01250010000000011 0.0206251 0.0010001 0 2 35 -29 
67 0.01249990000000011 0.0174999 0.0009999 0.0156251 0.0206251 0.0010001 0 2 31 -35 
68 0.0249999 0.0299999 -9.999999999994822e-08 0.0250001 0.0300001 0.0010001 0 2 12 -36 
69 0.0124999 0.0299999 0.0009999 0.0250001 0.0300001 0.0010001 0 2 36 -34 
70 0.0249999 0.0174999 0.0009999 0.0250001 0.0300001 0.0010001 0 2 32 -36 
71 0.0124999 0.0349999 -9.999999999994822e-08 0.0125001 0.03500010000000001 0.0010001 0 2 13 -37 
72 0.0124999 0.0299999 0.0009999 0.0125001 0.03500010000000001 0.0010001 0 2 34 -37 
73 -1e-07 0.0349999 -9.999999999994822e-08 1e-07 0.03500010000000001 0.0010001 0 2 14 -38 
74 -1.000000000002735e-07 0.0349999 0.0009999 0.0125001 0.03500010000000001 0.0010001 0 2 37 -38 
75 -1e-07 0.0299999 0.0009999 1e-07 0.03500010000000001 0.0010001 0 2 38 -33 
76 0.0249999 0.0349999 -9.999999999994822e-08 0.0250001 0.03500010000000001 0.0010001 0 2 15 -39 
77 0.0249999 0.0299999 0.0009999 0.0250001 0.03500010000000001 0.0010001 0 2 36 -39 
78 0.0124999 0.0349999 0.0009999 0.0250001 0.03500010000000001 0.0010001 0 2 39 -37 
1 -1.000000000002735e-07 -9.99999999998398e-08 -1e-07 0.0125001 0.005000100000000001 1e-07 0 4 1 2 3 4 
5 0.0124999 -9.99999999998398e-08 -1e-07 0.0250001 0.005000100000000001 1e-07 0 4 5 6 7 -2 
9 -1.000000000002735e-07 0.004999900000000001 -1e-07 0.01250010000000011 0.0175001 1e-07 0 5 -3 26 -25 24 23 
13 0.0124999 0.004999900000000001 -1e-07 0.0250001 0.0175001 1e-07 0 5 -7 29 28 -27 -26 
17 -1.000000000002735e-07 0.0174999 -1e-07 0.01250010000000011 0.0300001 1e-07 0 5 -24 -32 31 14 30 
21 0.0124999 0.0174999 -1e-07 0.0250001 0.0300001 1e-07 0 5 -28 34 17 -31 -33 
25 -1.000000000002735e-07 0.0299999 -1e-07 0.0125001 0.03500010000000001 1e-07 0 4 -14 18 19 20 
29 0.0124999 0.0299999 -1e-07 0.0250001 0.03500010000000001 1e-07 0 4 -17 21 22 -18 
30 -1.000000000002735e-07 -1e-07 -9.999999999994822e-08 0.0125001 1e-07 0.0010001 1 3 4 35 37 -36 -1 
31 0.0124999 -9.99999999998398e-08 -9.999999999994822e-08 0.0125001 0.005000100000000001 0.0010001 0 4 36 39 -38 -2 
32 -1.000000000002735e-07 0.004999900000000001 -9.999999999994822e-08 0.0125001 0.005000100000000001 0.0010001 0 4 38 41 -40 -3 
33 -1e-07 -9.99999999998398e-08 -9.999999999994822e-08 1e-07 0.005000100000000001 0.0010001 0 4 40 42 -35 -4 
34 -1.000000000002735e-07 -9.99999999998398e-08 0.0009999 0.0125001 0.005000100000000001 0.0010001 0 4 37 39 41 42 
35 0.0124999 -1e-07 -9.999999999994822e-08 0.0250001 1e-07 0.0010001 1 3 4 36 44 -43 -5 
36 0.0249999 -9.99999999998398e-08 -9.999999999994822e-08 0.0250001 0.005000100000000001 0.0010001 0 4 43 46 -45 -6 
37 0.0124999 0.004999900000000001 -9.999999999994822e-08 0.0250001 0.005000100000000001 0.0010001 0 4 45 47 -38 -7 
38 0.0124999 -9.99999999998398e-08 0.0009999 0.0250001 0.005000100000000001 0.0010001 0 4 44 46 47 -39 
39 -1e-07 0.004999900000000001 -9.999999999994822e-08 1e-07 0.0175001 0.0010001 0 4 48 49 -40 -23 
40 -1.000000002500737e-07 0.0174998999999995 -1.000000002497484e-07 0.009375100000000251 0.01750010000000025 0.00100010000000025 0 4 50 51 -48 -24 
41 0.009374900000000002 0.0143749 -9.999999999994822e-08 0.01250010000000011 0.0175001 0.0010001 0 4 50 53 -52 -25 
42 0.01249989999999989 0.004999899999999889 -1.000000001118379e-07 0.01250010000000022 0.01437510000000011 0.001000100000000112 0 4 38 54 -52 -26 
43 -1.000000000002735e-07 0.004999900000000001 0.0009999 0.01250010000000011 0.0175001 0.0010001 0 5 -41 54 -53 51 49 
44 0.01249990000000011 0.0143749 -9.999999999994822e-08 0.0156251 0.0175001 0.0010001 0 4 52 56 -55 -27 
45 0.0156249 0.0174999 -9.999999999994822e-08 0.0250001 0.0175001 0.0010001 0 4 57 58 -55 -28 
46 0.0249999 0.004999900000000001 -9.999999999994822e-08 0.0250001 0.0175001 0.0010001 0 4 45 59 -57 -29 
47 0.0124999 0.004999900000000001 0.0009999 0.0250001 0.0175001 0.0010001 0 5 -47 59 58 -56 -54 
48 -1e-07 0.0174999 -9.999999999994822e-08 1e-07 0.0300001 0.0010001 0 4 60 61 -48 -30 
49 -1.000000000002735e-07 0.0299999 -9.999999999994822e-08 0.0125001 0.0300001 0.0010001 0 4 62 63 -60 -14 
50 0.01249989999999989 0.02062489999999989 -1.000000001109705e-07 0.01250010000000022 0.03000010000000011 0.001000100000000111 0 4 64 65 -62 -31 
51 0.009374900000000002 0.0174999 -9.999999999994822e-08 0.01250010000000011 0.0206251 0.0010001 0 4 64 66 -50 -32 
52 -1.000000000002735e-07 0.0174999 0.0009999 0.01250010000000011 0.0300001 0.0010001 0 5 -51 -66 65 63 61 
53 0.01249990000000011 0.0174999 -9.999999999994822e-08 0.0156251 0.0206251 0.0010001 0 4 55 67 -64 -33 
54 0.0124999 0.0299999 -9.999999999994822e-08 0.0250001 0.0300001 0.0010001 0 4 68 69 -62 -17 
55 0.0249999 0.0174999 -9.999999999994822e-08 0.0250001 0.0300001 0.0010001 0 4 57 70 -68 -34 
56 0.0124999 0.0174999 0.0009999 0.0250001 0.0300001 0.0010001 0 5 -58 70 69 -65 -67 
57 0.0124999 0.0299999 -9.999999999994822e-08 0.0125001 0.03500010000000001 0.0010001 0 4 62 72 -71 -18 
58 -1.000000000002735e-07 0.0349999 -9.999999999994822e-08 0.0125001 0.03500010000000001 0.0010001 1 2 4 71 74 -73 -19 
59 -1e-07 0.0299999 -9.999999999994822e-08 1e-07 0.03500010000000001 0.0010001 0 4 73 75 -60 -20 
60 -1.000000000002735e-07 0.0299999 0.0009999 0.0125001 0.03500010000000001 0.0010001 0 4 -63 72 74 75 
61 0.0249999 0.0299999 -9.999999999994822e-08 0.0250001 0.03500010000000001 0.0010001 0 4 68 77 -76 -21 
62 0.0124999 0.0349999 -9.999999999994822e-08 0.0250001 0.03500010000000001 0.0010001 1 2 4 76 78 -71 -22 
63 0.0124999 0.0299999 0.0009999 0.0250001 0.03500010000000001 0.0010001 0 4 -69 77 78 -72 
1 -1.000000000002735e-07 -9.99999999998398e-08 -9.999999999994822e-08 0.0125001 0.005000100000000001 0.0010001 1 1 6 -30 -31 -32 -33 -1 34 
2 0.0124999 -9.99999999998398e-08 -9.999999999994822e-08 0.0250001 0.005000100000000001 0.0010001 1 1 6 -35 -36 -37 31 -5 38 
3 -1.000000002500737e-07 0.004999899999999751 -1.000000002497484e-07 0.01250010000000036 0.01750010000000025 0.00100010000000025 1 1 7 32 -39 -40 41 -42 -9 43 
4 0.01249989999999989 0.004999899999999889 -1.000000001118379e-07 0.02500010000000011 0.01750010000000011 0.001000100000000112 1 1 7 37 42 44 -45 -46 -13 47 
5 -1.000000002500737e-07 0.0174998999999995 -1.000000002497484e-07 0.01250010000000036 0.03000010000000025 0.00100010000000025 1 1 7 40 -48 -49 -50 51 -17 52 
6 0.01249989999999989 0.01749989999999989 -1.000000001109705e-07 0.02500010000000011 0.03000010000000011 0.001000100000000111 1 1 7 45 53 50 -54 -55 -21 56 
7 -1.000000000002735e-07 0.0299999 -9.999999999994822e-08 0.0125001 0.03500010000000001 0.0010001 1 1 6 49 -57 -58 -59 -25 60 
8 0.0124999 0.0299999 -9.999999999994822e-08 0.0250001 0.03500010000000001 0.0010001 1 1 6 54 -61 -62 57 -29 63 
$EndEntities
$Nodes
150 594 1 594
0 1 0 1
1
0 0 0
0 2 0 1
2
0.0125 0 0
0 3 0 1
3
0.0125 0.005000000000000001 0
0 4 0 1
4
0 0.005000000000000001 0
0 5 0 1
5
0.025 0 0
0 6 0 1
6
0.025 0.005000000000000001 0
0 10 0 1
7
0.0125 0.03 0
0 11 0 1
8
0 0.03 0
0 12 0 1
9
0.025 0.03 0
0 13 0 1
10
0.0125 0.035 0
0 14 0 1
11
0 0.035 0
0 15 0 1
12
0.025 0.035 0
0 16 0 1
13
0 0.0175 0
0 17 0 1
14
0.009375000000000001 0.01749999999999975 0
0 18 0 1
15
0.01250000000000011 0.014375 0
0 19 0 1
16
0.015625 0.0175 0
0 20 0 1
17
0.025 0.0175 0
0 21 0 1
18
0.01250000000000011 0.020625 0
0 22 0 1
19
0 0 0.001
0 23 0 1
20
0.0125 0 0.001
0 24 0 1
21
0.0125 0.005000000000000001 0.001
0 25 0 1
22
0 0.005000000000000001 0.001
0 26 0 1
23
0.025 0 0.001
0 27 0 1
24
0.025 0.005000000000000001 0.001
0 28 0 1
25
0 0.0175 0.001
0 29 0 1
26
0.009375000000000001 0.01749999999999975 0.001
0 30 0 1
27
0.01250000000000011 0.014375 0.001
0 31 0 1
28
0.015625 0.0175 0.001
0 32 0 1
29
0.025 0.0175 0.001
0 33 0 1
30
0 0.03 0.001
0 34 0 1
31
0.0125 0.03 0.001
0 35 0 1
32
0.01250000000000011 0.020625 0.001
0 36 0 1
33
0.025 0.03 0.001
0 37 0 1
34
0.0125 0.035 0.001
0 38 0 1
35
0 0.035 0.001
0 39 0 1
36
0.025 0.035 0.001
1 1 0 3
37
38
39
0.006250000000000005 0 0
0.003125000000000002 0 0
0.009375000000000003 0 0
1 2 0 1
40
0.0125 0.0025 0
1 3 0 3
41
42
43
0.006249999999999996 0.005000000000000001 0
0.009374999999999998 0.005000000000000001 0
0.003124999999999998 0.005000000000000001 0
1 4 0 1
44
0 0.0025 0
1 5 0 3
45
46
47
0.01875000000000001 0 0
0.015625 0 0
0.02187500000000001 0 0
1 6 0 1
48
0.025 0.0025 0
1 7 0 3
49
50
51
0.01875 0.005000000000000001 0
0.021875 0.005000000000000001 0
0.015625 0.005000000000000001 0
1 14 0 3
52
53
54
0.006249999999999996 0.03 0
0.009374999999999998 0.03 0
0.003124999999999998 0.03 0
1 17 0 3
55
56
57
0.01875 0.03 0
0.021875 0.03 0
0.015625 0.03 0
1 18 0 1
58
0.0125 0.0325 0
1 19 0 3
59
60
61
0.006249999999999996 0.035 0
0.009374999999999998 0.035 0
0.003124999999999998 0.035 0
1 20 0 1
62
0 0.0325 0
1 21 0 1
63
0.025 0.0325 0
1 22 0 3
64
65
66
0.01875 0.035 0
0.021875 0.035 0
0.015625 0.035 0
1 23 0 3
67
68
69
0 0.01125 0
0 0.014375 0
0 0.008124999999999999 0
1 24 0 7
70
71
72
73
74
75
76
0.007031250000000005 0.0175 0
0.004687500000000005 0.0175 0
0.002343750000000002 0.0175 0
0.008203125000000004 0.0175 0
0.005859375000000005 0.0175 0
0.003515625000000003 0.0175 0
0.001171875000000001 0.0175 0
1 25 0 7
77
78
79
80
81
82
83
0.009612876460902241 0.01630411427385907 0
0.01029029130879208 0.015290291308792 0
0.01130411427385917 0.0146128764609022 0
0.009435045998739908 0.01689034274369959 0
0.00990165746155457 0.01576384302181371 0
0.0107638430218138 0.01490165746155451 0
0.0118903427436997 0.01443504599873989 0
1 26 0 7
84
85
86
87
88
89
90
0.0125 0.007343749999999996 0
0.0125 0.009687499999999998 0
0.0125 0.01203125 0
0.0125 0.006171874999999999 0
0.0125 0.008515624999999997 0
0.0125 0.010859375 0
0.0125 0.013203125 0
1 27 0 7
91
92
93
94
95
96
97
0.01369588572614098 0.01461287646090226 0
0.014709708691208 0.01529029130879208 0
0.01538712353909778 0.01630411427385912 0
0.0131096572563005 0.01443504599873992 0
0.01423615697818632 0.01490165746155459 0
0.01509834253844548 0.01576384302181378 0
0.0155649540012601 0.01689034274369961 0
1 28 0 7
98
99
100
101
102
103
104
0.02265625000000001 0.0175 0
0.0203125 0.0175 0
0.01796875 0.0175 0
0.02382812500000001 0.0175 0
0.02148437500000001 0.0175 0
0.019140625 0.0175 0
0.016796875 0.0175 0
1 29 0 3
105
106
107
0.025 0.01125000000000001 0
0.025 0.008125000000000004 0
0.025 0.014375 0
1 30 0 3
108
109
110
0 0.02375 0
0 0.026875 0
0 0.020625 0
1 31 0 7
111
112
113
114
115
116
117
0.0125 0.02296875 0
0.0125 0.0253125 0
0.0125 0.02765625 0
0.0125 0.021796875 0
0.0125 0.024140625 0
0.0125 0.026484375 0
0.0125 0.028828125 0
1 32 0 7
118
119
120
121
122
123
124
0.01130411427385917 0.0203871235390978 0
0.01029029130879208 0.019709708691208 0
0.009612876460902239 0.01869588572614093 0
0.01189034274369969 0.02056495400126012 0
0.0107638430218138 0.02009834253844549 0
0.00990165746155457 0.01923615697818629 0
0.009435045998739908 0.01810965725630042 0
1 33 0 7
125
126
127
128
129
130
131
0.01538712353909778 0.01869588572614088 0
0.014709708691208 0.01970970869120792 0
0.01369588572614098 0.02038712353909774 0
0.0155649540012601 0.01810965725630039 0
0.01509834253844548 0.01923615697818622 0
0.01423615697818631 0.02009834253844542 0
0.0131096572563005 0.02056495400126008 0
1 34 0 3
132
133
134
0.025 0.02375000000000001 0
0.025 0.020625 0
0.025 0.026875 0
1 35 0 1
135
0 0 0.0005
1 36 0 1
136
0.0125 0 0.0005
1 37 0 3
137
138
139
0.006250000000000005 0 0.001
0.003125000000000002 0 0.001
0.009375000000000003 0 0.001
1 38 0 1
140
0.0125 0.005000000000000001 0.0005
1 39 0 1
141
0.0125 0.0025 0.001
1 40 0 1
142
0 0.005000000000000001 0.0005
1 41 0 3
143
144
145
0.006249999999999996 0.005000000000000001 0.001
0.009374999999999998 0.005000000000000001 0.001
0.003124999999999998 0.005000000000000001 0.001
1 42 0 1
146
0 0.0025 0.001
1 43 0 1
147
0.025 0 0.0005
1 44 0 3
148
149
150
0.01875000000000001 0 0.001
0.015625 0 0.001
0.02187500000000001 0 0.001
1 45 0 1
151
0.025 0.005000000000000001 0.0005
1 46 0 1
152
0.025 0.0025 0.001
1 47 0 3
153
154
155
0.01875 0.005000000000000001 0.001
0.021875 0.005000000000000001 0.001
0.015625 0.005000000000000001 0.001
1 48 0 1
156
0 0.0175 0.0005
1 49 0 3
157
158
159
0 0.01125 0.001
0 0.014375 0.001
0 0.008124999999999999 0.001
1 50 0 1
160
0.009375000000000001 0.01749999999999975 0.0005
1 51 0 7
161
162
163
164
165
166
167
0.007031250000000005 0.0175 0.001
0.004687500000000005 0.0175 0.001
0.002343750000000002 0.0175 0.001
0.008203125000000004 0.0175 0.001
0.005859375000000005 0.0175 0.001
0.003515625000000003 0.0175 0.001
0.001171875000000001 0.0175 0.001
1 52 0 1
168
0.01250000000000011 0.014375 0.0005
1 53 0 7
169
170
171
172
173
174
175
0.009612876460902241 0.01630411427385907 0.001
0.01029029130879208 0.015290291308792 0.001
0.01130411427385917 0.0146128764609022 0.001
0.009435045998739908 0.01689034274369959 0.001
0.00990165746155457 0.01576384302181371 0.001
0.0107638430218138 0.01490165746155451 0.001
0.0118903427436997 0.01443504599873989 0.001
1 54 0 7
176
177
178
179
180
181
182
0.0125 0.007343749999999996 0.001
0.0125 0.009687499999999998 0.001
0.0125 0.01203125 0.001
0.0125 0.006171874999999999 0.001
0.0125 0.008515624999999997 0.001
0.0125 0.010859375 0.001
0.0125 0.013203125 0.001
1 55 0 1
183
0.015625 0.0175 0.0005
1 56 0 7
184
185
186
187
188
189
190
0.01369588572614098 0.01461287646090226 0.001
0.014709708691208 0.01529029130879208 0.001
0.01538712353909778 0.01630411427385912 0.001
0.0131096572563005 0.01443504599873992 0.001
0.01423615697818632 0.01490165746155459 0.001
0.01509834253844548 0.01576384302181378 0.001
0.0155649540012601 0.01689034274369961 0.001
1 57 0 1
191
0.025 0.0175 0.0005
1 58 0 7
192
193
194
195
196
197
198
0.02265625000000001 0.0175 0.001
0.0203125 0.0175 0.001
0.01796875 0.0175 0.001
0.02382812500000001 0.0175 0.001
0.02148437500000001 0.0175 0.001
0.019140625 0.0175 0.001
0.016796875 0.0175 0.001
1 59 0 3
199
200
201
0.025 0.01125000000000001 0.001
0.025 0.008125000000000004 0.001
0.025 0.014375 0.001
1 60 0 1
202
0 0.03 0.0005
1 61 0 3
203
204
205
0 0.02375 0.001
0 0.026875 0.001
0 0.020625 0.001
1 62 0 1
206
0.0125 0.03 0.0005
1 63 0 3
207
208
209
0.006249999999999996 0.03 0.001
0.009374999999999998 0.03 0.001
0.003124999999999998 0.03 0.001
1 64 0 1
210
0.01250000000000011 0.020625 0.0005
1 65 0 7
211
212
213
214
215
216
217
0.0125 0.02296875 0.001
0.0125 0.0253125 0.001
0.0125 0.02765625 0.001
0.0125 0.021796875 0.001
0.0125 0.024140625 0.001
0.0125 0.026484375 0.001
0.0125 0.028828125 0.001
1 66 0 7
218
219
220
221
222
223
224
0.01130411427385917 0.0203871235390978 0.001
0.01029029130879208 0.019709708691208 0.001
0.009612876460902239 0.01869588572614093 0.001
0.01189034274369969 0.02056495400126012 0.001
0.0107638430218138 0.02009834253844549 0.001
0.00990165746155457 0.01923615697818629 0.001
0.009435045998739908 0.01810965725630042 0.001
1 67 0 7
225
226
227
228
229
230
231
0.01538712353909778 0.01869588572614088 0.001
0.014709708691208 0.01970970869120792 0.001
0.01369588572614098 0.02038712353909774 0.001
0.0155649540012601 0.01810965725630039 0.001
0.01509834253844548 0.01923615697818622 0.001
0.01423615697818631 0.02009834253844542 0.001
0.0131096572563005 0.02056495400126008 0.001
1 68 0 1
232
0.025 0.03 0.0005
1 69 0 3
233
234
235
0.01875 0.03 0.001
0.021875 0.03 0.001
0.015625 0.03 0.001
1 70 0 3
236
237
238
0.025 0.02375000000000001 0.001
0.025 0.020625 0.001
0.025 0.026875 0.001
1 71 0 1
239
0.0125 0.035 0.0005
1 72 0 1
240
0.0125 0.0325 0.001
1 73 0 1
241
0 0.035 0.0005
1 74 0 3
242
243
244
0.006249999999999996 0.035 0.001
0.009374999999999998 0.035 0.001
0.003124999999999998 0.035 0.001
1 75 0 1
245
0 0.0325 0.001
1 76 0 1
246
0.025 0.035 0.0005
1 77 0 1
247
0.025 0.0325 0.001
1 78 0 3
248
249
250
0.01875 0.035 0.001
0.021875 0.035 0.001
0.015625 0.035 0.001
2 1 0 1
251
0.00625 0.0025 0
2 5 0 1
252
0.01875 0.0025 0
2 9 0 33
253
254
255
256
257
258
259
260
261
262
263
264
265
266
267
268
269
270
271
272
273
274
275
276
277
278
279
280
281
282
283
284
285
0.007209657345676664 0.0150405857053943 0
0.004806438230451111 0.01377705713692953 0
0.002403219115225554 0.01251352856846476 0
0.00771771848159402 0.012717718481594 0
0.005145145654396014 0.010145145654396 0
0.002572572827198005 0.007572572827197997 0
0.01004058570539432 0.01220965734567665 0
0.008777057136929544 0.009806438230451096 0
0.00751352856846477 0.007403219115225545 0
0.007120453672838335 0.01627029285269715 0
0.008411266903289452 0.01567234998962668 0
0.004746969115225558 0.01563852856846477 0
0.006008047788063887 0.01440882142116192 0
0.002373484557612778 0.01500676428423238 0
0.003604828672838332 0.01314529285269715 0
0.001201609557612776 0.01188176428423238 0
0.007463687913635342 0.01387915209349415 0
0.009004004895193049 0.014004004895193 0
0.004975791942423562 0.01196110139566276 0
0.006431432067995017 0.011431432067995 0
0.00248789597121178 0.01004305069783138 0
0.00385885924079701 0.008858859240796997 0
0.001286286413599002 0.006286286413598999 0
0.008879152093494169 0.01246368791363532 0
0.01067234998962675 0.01341126690328942 0
0.006961101395662779 0.009975791942423548 0
0.009408821421161931 0.01100804778806387 0
0.005043050697831388 0.007487895971211771 0
0.008145292852697158 0.008604828672838322 0
0.006881764284232383 0.006201609557612773 0
0.01127029285269716 0.01212045367283832 0
0.01063852856846477 0.009746969115225547 0
0.01000676428423239 0.007373484557612771 0
2 13 0 33
286
287
288
289
290
291
292
293
294
295
296
297
298
299
300
301
302
303
304
305
306
307
308
309
310
311
312
313
314
315
316
317
318
0.01495941429460574 0.0122096573456767 0
0.01622294286307049 0.009806438230451128 0
0.01748647143153524 0.007403219115225561 0
0.017282281518406 0.01271771848159406 0
0.01985485434560401 0.01014514565439604 0
0.02242742717280201 0.007572572827198015 0
0.01779034265432334 0.01504058570539434 0
0.0201935617695489 0.01377705713692956 0
0.02259678088477445 0.01251352856846478 0
0.01372970714730287 0.01212045367283835 0
0.01432765001037336 0.01341126690328948 0
0.01436147143153525 0.009746969115225563 0
0.01559117857883812 0.01100804778806391 0
0.01499323571576762 0.007373484557612778 0
0.01685470714730287 0.008604828672838346 0
0.01811823571576762 0.006201609557612781 0
0.01612084790650587 0.01246368791363538 0
0.015995995104807 0.01400400489519307 0
0.01803889860433725 0.009975791942423583 0
0.018568567932005 0.01143143206799505 0
0.01995694930216863 0.007487895971211788 0
0.02114114075920301 0.008858859240797027 0
0.023713713586401 0.006286286413599008 0
0.01753631208636467 0.0138791520934942 0
0.01658873309671056 0.01567234998962673 0
0.02002420805757645 0.0119611013956628 0
0.01899195221193612 0.01440882142116195 0
0.02251210402878823 0.0100430506978314 0
0.02139517132716167 0.01314529285269717 0
0.02379839044238723 0.01188176428423239 0
0.01787954632716167 0.01627029285269717 0
0.02025303088477445 0.01563852856846478 0
0.02262651544238723 0.01500676428423239 0
2 17 0 33
319
320
321
322
323
324
325
326
327
328
329
330
331
332
333
334
335
336
337
338
339
340
341
342
343
344
345
346
347
348
349
350
351
0.007209657345676685 0.0199594142946057 0
0.004806438230451125 0.02122294286307046 0
0.002403219115225562 0.02248647143153523 0
0.007717718481594063 0.022282281518406 0
0.005145145654396045 0.024854854345604 0
0.002572572827198022 0.027427427172802 0
0.01004058570539438 0.02279034265432335 0
0.008777057136929587 0.0251935617695489 0
0.007513528568464792 0.02759678088477445 0
0.008411266903289463 0.01932765001037332 0
0.007120453672838345 0.01872970714730285 0
0.006008047788063905 0.02059117857883808 0
0.004746969115225565 0.01936147143153523 0
0.003604828672838344 0.02185470714730285 0
0.002373484557612782 0.01999323571576762 0
0.001201609557612782 0.02311823571576761 0
0.009004004895193072 0.020995995104807 0
0.007463687913635374 0.02112084790650585 0
0.006431432067995054 0.023568567932005 0
0.004975791942423585 0.02303889860433723 0
0.003858859240797033 0.026141140759203 0
0.002487895971211792 0.02495694930216862 0
0.001286286413599011 0.028713713586401 0
0.01067234998962678 0.02158873309671058 0
0.008879152093494221 0.02253631208636467 0
0.009408821421161983 0.02399195221193613 0
0.006961101395662816 0.02502420805757645 0
0.008145292852697189 0.02639517132716167 0
0.005043050697831408 0.02751210402878822 0
0.006881764284232394 0.02879839044238722 0
0.01127029285269719 0.02287954632716167 0
0.01063852856846479 0.02525303088477445 0
0.0100067642842324 0.02762651544238722 0
2 21 0 33
352
353
354
355
356
357
358
359
360
361
362
363
364
365
366
367
368
369
370
371
372
373
374
375
376
377
378
379
380
381
382
383
384
0.01779034265432334 0.01995941429460566 0
0.0201935617695489 0.02122294286307044 0
0.02259678088477445 0.02248647143153523 0
0.017282281518406 0.02228228151840594 0
0.019854854345604 0.02485485434560396 0
0.02242742717280201 0.02742742717280199 0
0.01495941429460574 0.0227903426543233 0
0.01622294286307049 0.02519356176954887 0
0.01748647143153524 0.02759678088477444 0
0.01787954632716167 0.01872970714730283 0
0.01658873309671056 0.01932765001037327 0
0.02025303088477445 0.01936147143153522 0
0.01899195221193612 0.02059117857883805 0
0.02262651544238723 0.01999323571576761 0
0.02139517132716167 0.02185470714730283 0
0.02379839044238723 0.02311823571576762 0
0.01753631208636467 0.0211208479065058 0
0.015995995104807 0.02099599510480693 0
0.02002420805757645 0.0230388986043372 0
0.018568567932005 0.02356856793200495 0
0.02251210402878823 0.02495694930216861 0
0.02114114075920301 0.02614114075920297 0
0.023713713586401 0.02871371358640099 0
0.01612084790650587 0.02253631208636462 0
0.01432765001037336 0.02158873309671052 0
0.01803889860433725 0.02502420805757642 0
0.01559117857883811 0.02399195221193608 0
0.01995694930216863 0.02751210402878821 0
0.01685470714730287 0.02639517132716165 0
0.01811823571576762 0.02879839044238722 0
0.01372970714730287 0.02287954632716165 0
0.01436147143153525 0.02525303088477443 0
0.01499323571576762 0.02762651544238722 0
2 25 0 1
385
0.006249999999999996 0.0325 0
2 29 0 1
386
0.01875 0.0325 0
2 30 0 1
387
0.006250000000000005 0 0.0005
2 32 0 1
388
0.006249999999999996 0.005000000000000001 0.0005
2 34 0 1
389
0.00625 0.0025 0.001
2 35 0 1
390
0.01875000000000001 0 0.0005
2 37 0 1
391
0.01875 0.005000000000000001 0.0005
2 38 0 1
392
0.01875 0.0025 0.001
2 39 0 1
393
0 0.01125 0.0005
2 40 0 3
394
395
396
0.007031250000000005 0.0175 0.0005
0.004687500000000005 0.0175 0.0005
0.002343750000000002 0.0175 0.0005
2 41 0 3
397
398
399
0.009612876460902241 0.01630411427385907 0.0005
0.01029029130879208 0.015290291308792 0.0005
0.01130411427385917 0.0146128764609022 0.0005
2 42 0 3
400
401
402
0.0125 0.007343749999999996 0.0005
0.0125 0.009687499999999998 0.0005
0.0125 0.01203125 0.0005
2 43 0 33
403
404
405
406
407
408
409
410
411
412
413
414
415
416
417
418
419
420
421
422
423
424
425
426
427
428
429
430
431
432
433
434
435
0.007209657345676664 0.0150405857053943 0.001
0.004806438230451111 0.01377705713692953 0.001
0.002403219115225554 0.01251352856846476 0.001
0.00771771848159402 0.012717718481594 0.001
0.005145145654396014 0.010145145654396 0.001
0.002572572827198005 0.007572572827197997 0.001
0.01004058570539432 0.01220965734567665 0.001
0.008777057136929544 0.009806438230451096 0.001
0.00751352856846477 0.007403219115225545 0.001
0.007120453672838334 0.01627029285269715 0.001
0.008411266903289452 0.01567234998962668 0.001
0.004746969115225558 0.01563852856846477 0.001
0.006008047788063887 0.01440882142116192 0.001
0.002373484557612778 0.01500676428423238 0.001
0.003604828672838332 0.01314529285269715 0.001
0.001201609557612776 0.01188176428423238 0.001
0.007463687913635342 0.01387915209349415 0.001
0.009004004895193049 0.014004004895193 0.001
0.004975791942423563 0.01196110139566277 0.001
0.006431432067995017 0.011431432067995 0.001
0.00248789597121178 0.01004305069783138 0.001
0.00385885924079701 0.008858859240796999 0.001
0.001286286413599002 0.006286286413598999 0.001
0.008879152093494169 0.01246368791363532 0.001
0.01067234998962674 0.01341126690328942 0.001
0.006961101395662779 0.009975791942423548 0.001
0.009408821421161929 0.01100804778806387 0.001
0.005043050697831388 0.007487895971211771 0.001
0.008145292852697158 0.008604828672838322 0.001
0.006881764284232383 0.006201609557612773 0.001
0.01127029285269716 0.01212045367283832 0.001
0.01063852856846477 0.009746969115225547 0.001
0.01000676428423239 0.007373484557612771 0.001
2 44 0 3
436
437
438
0.01369588572614098 0.01461287646090226 0.0005
0.014709708691208 0.01529029130879208 0.0005
0.01538712353909778 0.01630411427385912 0.0005
2 45 0 3
439
440
441
0.02265625000000001 0.0175 0.0005
0.0203125 0.0175 0.0005
0.01796875 0.0175 0.0005
2 46 0 1
442
0.025 0.01125000000000001 0.0005
2 47 0 33
443
444
445
446
447
448
449
450
451
452
453
454
455
456
457
458
459
460
461
462
463
464
465
466
467
468
469
470
471
472
473
474
475
0.01495941429460574 0.0122096573456767 0.001
0.01622294286307049 0.009806438230451128 0.001
0.01748647143153524 0.007403219115225561 0.001
0.017282281518406 0.01271771848159406 0.001
0.01985485434560401 0.01014514565439604 0.001
0.02242742717280201 0.007572572827198015 0.001
0.01779034265432334 0.01504058570539434 0.001
0.0201935617695489 0.01377705713692956 0.001
0.02259678088477445 0.01251352856846478 0.001
0.01372970714730287 0.01212045367283835 0.001
0.01432765001037336 0.01341126690328948 0.001
0.01436147143153525 0.009746969115225563 0.001
0.01559117857883812 0.01100804778806391 0.001
0.01499323571576762 0.007373484557612778 0.001
0.01685470714730287 0.008604828672838344 0.001
0.01811823571576762 0.006201609557612781 0.001
0.01612084790650587 0.01246368791363538 0.001
0.015995995104807 0.01400400489519307 0.001
0.01803889860433725 0.009975791942423581 0.001
0.018568567932005 0.01143143206799505 0.001
0.01995694930216863 0.007487895971211788 0.001
0.02114114075920301 0.008858859240797025 0.001
0.023713713586401 0.006286286413599008 0.001
0.01753631208636467 0.0138791520934942 0.001
0.01658873309671056 0.01567234998962673 0.001
0.02002420805757645 0.0119611013956628 0.001
0.01899195221193612 0.01440882142116195 0.001
0.02251210402878823 0.0100430506978314 0.001
0.02139517132716167 0.01314529285269717 0.001
0.02379839044238723 0.01188176428423239 0.001
0.01787954632716167 0.01627029285269717 0.001
0.02025303088477445 0.01563852856846478 0.001
0.02262651544238723 0.01500676428423239 0.001
2 48 0 1
476
0 0.02375 0.0005
2 49 0 1
477
0.006249999999999996 0.03 0.0005
2 50 0 3
478
479
480
0.0125 0.02296875 0.0005
0.0125 0.0253125 0.0005
0.0125 0.02765625 0.0005
2 51 0 3
481
482
483
0.01130411427385917 0.0203871235390978 0.0005
0.01029029130879208 0.019709708691208 0.0005
0.009612876460902241 0.01869588572614093 0.0005
2 52 0 33
484
485
486
487
488
489
490
491
492
493
494
495
496
497
498
499
500
501
502
503
504
505
506
507
508
509
510
511
512
513
514
515
516
0.007209657345676685 0.0199594142946057 0.001
0.004806438230451125 0.02122294286307046 0.001
0.002403219115225562 0.02248647143153523 0.001
0.007717718481594063 0.022282281518406 0.001
0.005145145654396045 0.024854854345604 0.001
0.002572572827198022 0.027427427172802 0.001
0.01004058570539438 0.02279034265432335 0.001
0.008777057136929587 0.0251935617695489 0.001
0.007513528568464792 0.02759678088477445 0.001
0.008411266903289463 0.01932765001037332 0.001
0.007120453672838345 0.01872970714730285 0.001
0.006008047788063905 0.02059117857883808 0.001
0.004746969115225565 0.01936147143153523 0.001
0.003604828672838344 0.02185470714730285 0.001
0.002373484557612782 0.01999323571576762 0.001
0.001201609557612782 0.02311823571576762 0.001
0.009004004895193072 0.020995995104807 0.001
0.007463687913635374 0.02112084790650585 0.001
0.006431432067995054 0.023568567932005 0.001
0.004975791942423585 0.02303889860433723 0.001
0.003858859240797033 0.026141140759203 0.001
0.002487895971211792 0.02495694930216862 0.001
0.001286286413599011 0.028713713586401 0.001
0.01067234998962678 0.02158873309671058 0.001
0.008879152093494221 0.02253631208636468 0.001
0.009408821421161983 0.02399195221193613 0.001
0.006961101395662816 0.02502420805757645 0.001
0.008145292852697189 0.02639517132716167 0.001
0.005043050697831408 0.02751210402878822 0.001
0.006881764284232394 0.02879839044238722 0.001
0.01127029285269719 0.02287954632716167 0.001
0.01063852856846479 0.02525303088477445 0.001
0.0100067642842324 0.02762651544238722 0.001
2 53 0 3
517
518
519
0.01538712353909778 0.01869588572614088 0.0005
0.014709708691208 0.01970970869120792 0.0005
0.01369588572614098 0.02038712353909774 0.0005
2 54 0 1
520
0.01875 0.03 0.0005
2 55 0 1
521
0.025 0.02375000000000001 0.0005
2 56 0 33
522
523
524
525
526
527
528
529
530
531
532
533
534
535
536
537
538
539
540
541
542
543
544
545
546
547
548
549
550
551
552
553
554
0.01779034265432334 0.01995941429460566 0.001
0.0201935617695489 0.02122294286307044 0.001
0.02259678088477445 0.02248647143153523 0.001
0.017282281518406 0.02228228151840594 0.001
0.019854854345604 0.02485485434560396 0.001
0.02242742717280201 0.02742742717280199 0.001
0.01495941429460574 0.0227903426543233 0.001
0.01622294286307049 0.02519356176954887 0.001
0.01748647143153524 0.02759678088477444 0.001
0.01787954632716167 0.01872970714730283 0.001
0.01658873309671056 0.01932765001037327 0.001
0.02025303088477445 0.01936147143153522 0.001
0.01899195221193612 0.02059117857883805 0.001
0.02262651544238723 0.01999323571576761 0.001
0.02139517132716167 0.02185470714730283 0.001
0.02379839044238723 0.02311823571576762 0.001
0.01753631208636467 0.0211208479065058 0.001
0.015995995104807 0.02099599510480693 0.001
0.02002420805757645 0.0230388986043372 0.001
0.018568567932005 0.02356856793200495 0.001
0.02251210402878823 0.02495694930216861 0.001
0.021141140759203 0.02614114075920297 0.001
0.023713713586401 0.02871371358640099 0.001
0.01612084790650587 0.02253631208636462 0.001
0.01432765001037336 0.02158873309671052 0.001
0.01803889860433724 0.02502420805757642 0.001
0.01559117857883811 0.02399195221193608 0.001
0.01995694930216863 0.02751210402878821 0.001
0.01685470714730287 0.02639517132716165 0.001
0.01811823571576762 0.02879839044238722 0.001
0.01372970714730287 0.02287954632716165 0.001
0.01436147143153525 0.02525303088477443 0.001
0.01499323571576762 0.02762651544238722 0.001
2 58 0 1
555
0.006249999999999996 0.035 0.0005
2 60 0 1
556
0.006249999999999996 0.0325 0.001
2 62 0 1
557
0.01875 0.035 0.0005
2 63 0 1
558
0.01875 0.0325 0.001
3 1 0 0
3 2 0 0
3 3 0 9
559
560
561
562
563
564
565
566
567
0.007209657345676664 0.0150405857053943 0.0005
0.004806438230451111 0.01377705713692953 0.0005
0.002403219115225554 0.01251352856846476 0.0005
0.00771771848159402 0.012717718481594 0.0005
0.005145145654396014 0.010145145654396 0.0005
0.002572572827198005 0.007572572827197997 0.0005
0.01004058570539432 0.01220965734567665 0.0005
0.008777057136929544 0.009806438230451096 0.0005
0.00751352856846477 0.007403219115225545 0.0005
3 4 0 9
568
569
570
571
572
573
574
575
576
0.01495941429460574 0.0122096573456767 0.0005
0.01622294286307049 0.009806438230451128 0.0005
0.01748647143153524 0.007403219115225561 0.0005
0.017282281518406 0.01271771848159406 0.0005
0.01985485434560401 0.01014514565439604 0.0005
0.02242742717280201 0.007572572827198015 0.0005
0.01779034265432334 0.01504058570539434 0.0005
0.0201935617695489 0.01377705713692956 0.0005
0.02259678088477445 0.01251352856846478 0.0005
3 5 0 9
577
578
579
580
581
582
583
584
585
0.007209657345676685 0.0199594142946057 0.0005
0.004806438230451125 0.02122294286307046 0.0005
0.002403219115225562 0.02248647143153523 0.0005
0.007717718481594063 0.022282281518406 0.0005
0.005145145654396045 0.024854854345604 0.0005
0.002572572827198022 0.027427427172802 0.0005
0.01004058570539438 0.02279034265432335 0.0005
0.008777057136929587 0.0251935617695489 0.0005
0.007513528568464792 0.02759678088477445 0.0005
3 6 0 9
586
587
588
589
590
591
592
593
594
0.01779034265432334 0.01995941429460566 0.0005
0.0201935617695489 0.02122294286307044 0.0005
0.02259678088477445 0.02248647143153523 0.0005
0.017282281518406 0.02228228151840594 0.0005
0.019854854345604 0.02485485434560396 0.0005
0.02242742717280201 0.02742742717280199 0.0005
0.01495941429460574 0.0227903426543233 0.0005
0.01622294286307049 0.02519356176954887 0.0005
0.01748647143153524 0.02759678088477444 0.0005
3 7 0 0
3 8 0 0
$EndNodes
$Elements
12 80 1 80
2 30 16 2
1 1 37 137 19 38 387 138 135 
2 37 2 20 137 39 136 139 387 
2 35 16 2
3 2 45 148 20 46 390 149 136 
4 45 5 23 148 47 147 150 390 
2 58 16 2
5 10 59 242 34 60 555 243 239 
6 59 11 35 242 61 241 244 555 
2 62 16 2
7 12 64 248 36 65 557 249 246 
8 64 10 34 248 66 239 250 557 
3 1 17 2
9 1 37 41 4 19 137 143 22 38 44 135 251 387 43 388 142 138 146 389 145 
10 37 2 3 41 137 20 21 143 39 251 387 40 136 42 140 388 139 389 141 144 
3 2 17 2
11 2 45 49 3 20 148 153 21 46 40 136 252 390 51 391 140 149 141 392 155 
12 45 5 6 49 148 23 24 153 47 252 390 48 147 50 151 391 150 392 152 154 
3 3 17 16
13 14 70 253 77 26 161 403 169 73 80 160 262 394 263 559 397 164 172 412 413 
14 70 71 254 253 161 162 404 403 74 262 394 264 395 265 560 559 165 412 414 415 
15 71 72 255 254 162 163 405 404 75 264 395 266 396 267 561 560 166 414 416 417 
16 72 13 67 255 163 25 157 405 76 266 396 68 156 268 393 561 167 416 158 418 
17 77 253 256 78 169 403 406 170 263 81 397 269 559 270 562 398 413 173 419 420 
18 253 254 257 256 403 404 407 406 265 269 559 271 560 272 563 562 415 419 421 422 
19 254 255 258 257 404 405 408 407 267 271 560 273 561 274 564 563 417 421 423 424 
20 255 67 4 258 405 157 22 408 268 273 561 69 393 275 142 564 418 423 159 425 
21 78 256 259 79 170 406 409 171 270 82 398 276 562 277 565 399 420 174 426 427 
22 256 257 260 259 406 407 410 409 272 276 562 278 563 279 566 565 422 426 428 429 
23 257 258 261 260 407 408 411 410 274 278 563 280 564 281 567 566 424 428 430 431 
24 258 4 41 261 408 22 143 411 275 280 564 43 142 282 388 567 425 430 145 432 
25 79 259 86 15 171 409 178 27 277 83 399 283 565 90 402 168 427 175 433 182 
26 259 260 85 86 409 410 177 178 279 283 565 284 566 89 401 402 429 433 434 181 
27 260 261 84 85 410 411 176 177 281 284 566 285 567 88 400 401 431 434 435 180 
28 261 41 3 84 411 143 21 176 282 285 567 42 388 87 140 400 432 435 144 179 
3 4 17 16
29 15 86 286 91 27 178 443 184 90 94 168 295 402 296 568 436 182 187 452 453 
30 86 85 287 286 178 177 444 443 89 295 402 297 401 298 569 568 181 452 454 455 
31 85 84 288 287 177 176 445 444 88 297 401 299 400 300 570 569 180 454 456 457 
32 84 3 49 288 176 21 153 445 87 299 400 51 140 301 391 570 179 456 155 458 
33 91 286 289 92 184 443 446 185 296 95 436 302 568 303 571 437 453 188 459 460 
34 286 287 290 289 443 444 447 446 298 302 568 304 569 305 572 571 455 459 461 462 
35 287 288 291 290 444 445 448 447 300 304 569 306 570 307 573 572 457 461 463 464 
36 288 49 6 291 445 153 24 448 301 306 570 50 391 308 151 573 458 463 154 465 
37 92 289 292 93 185 446 449 186 303 96 437 309 571 310 574 438 460 189 466 467 
38 289 290 293 292 446 447 450 449 305 309 571 311 572 312 575 574 462 466 468 469 
39 290 291 294 293 447 448 451 450 307 311 572 313 573 314 576 575 464 468 470 471 
40 291 6 105 294 448 24 199 451 308 313 573 106 151 315 442 576 465 470 200 472 
41 93 292 100 16 186 449 194 28 310 97 438 316 574 104 441 183 467 190 473 198 
42 292 293 99 100 449 450 193 194 312 316 574 317 575 103 440 441 469 473 474 197 
43 293 294 98 99 450 451 192 193 314 317 575 318 576 102 439 440 471 474 475 196 
44 294 105 17 98 451 199 29 192 315 318 576 107 442 101 191 439 472 475 201 195 
3 5 17 16
45 14 120 319 70 26 220 484 161 124 73 160 328 483 329 577 394 224 164 493 494 
46 70 319 320 71 161 484 485 162 329 74 394 330 577 331 578 395 494 165 495 496 
47 71 320 321 72 162 485 486 163 331 75 395 332 578 333 579 396 496 166 497 498 
48 72 321 108 13 163 486 203 25 333 76 396 334 579 110 476 156 498 167 499 205 
49 120 119 322 319 220 219 487 484 123 328 483 335 482 336 580 577 223 493 500 501 
50 319 322 323 320 484 487 488 485 336 330 577 337 580 338 581 578 501 495 502 503 
51 320 323 324 321 485 488 489 486 338 332 578 339 581 340 582 579 503 497 504 505 
52 321 324 8 108 486 489 30 203 340 334 579 341 582 109 202 476 505 499 506 204 
53 119 118 325 322 219 218 490 487 122 335 482 342 481 343 583 580 222 500 507 508 
54 322 325 326 323 487 490 491 488 343 337 580 344 583 345 584 581 508 502 509 510 
55 323 326 327 324 488 491 492 489 345 339 581 346 584 347 585 582 510 504 511 512 
56 324 327 52 8 489 492 207 30 347 341 582 348 585 54 477 202 512 506 513 209 
57 118 18 111 325 218 32 211 490 121 342 481 114 210 349 478 583 221 507 214 514 
58 325 111 112 326 490 211 212 491 349 344 583 115 478 350 479 584 514 509 215 515 
59 326 112 113 327 491 212 213 492 350 346 584 116 479 351 480 585 515 511 216 516 
60 327 113 7 52 492 213 31 207 351 348 585 117 480 53 206 477 516 513 217 208 
3 6 17 16
61 16 100 352 125 28 194 522 225 104 128 183 361 441 362 586 517 198 228 531 532 
62 100 99 353 352 194 193 523 522 103 361 441 363 440 364 587 586 197 531 533 534 
63 99 98 354 353 193 192 524 523 102 363 440 365 439 366 588 587 196 533 535 536 
64 98 17 132 354 192 29 236 524 101 365 439 133 191 367 521 588 195 535 237 537 
65 125 352 355 126 225 522 525 226 362 129 517 368 586 369 589 518 532 229 538 539 
66 352 353 356 355 522 523 526 525 364 368 586 370 587 371 590 589 534 538 540 541 
67 353 354 357 356 523 524 527 526 366 370 587 372 588 373 591 590 536 540 542 543 
68 354 132 9 357 524 236 33 527 367 372 588 134 521 374 232 591 537 542 238 544 
69 126 355 358 127 226 525 528 227 369 130 518 375 589 376 592 519 539 230 545 546 
70 355 356 359 358 525 526 529 528 371 375 589 377 590 378 593 592 541 545 547 548 
71 356 357 360 359 526 527 530 529 373 377 590 379 591 380 594 593 543 547 549 550 
72 357 9 55 360 527 33 233 530 374 379 591 56 232 381 520 594 544 549 234 551 
73 127 358 111 18 227 528 211 32 376 131 519 382 592 114 478 210 546 231 552 214 
74 358 359 112 111 528 529 212 211 378 382 592 383 593 115 479 478 548 552 553 215 
75 359 360 113 112 529 530 213 212 380 383 593 384 594 116 480 479 550 553 554 216 
76 360 55 7 113 530 233 31 213 381 384 594 57 520 117 206 480 551 554 235 217 
3 7 17 2
77 8 52 59 11 30 207 242 35 54 62 202 385 477 61 555 241 209 245 556 244 
78 52 7 10 59 207 31 34 242 53 385 477 58 206 60 239 555 208 556 240 243 
3 8 17 2
79 7 55 64 10 31 233 248 34 57 58 206 386 520 66 557 239 235 240 558 250 
80 55 9 12 64 233 33 36 248 56 386 520 63 232 65 246 557 234 558 247 249 
$EndElements
