$MeshFormat
2.2 0 8
$EndMeshFormat
$PhysicalNames
4
2 1 "bc-bot"
2 2 "bc-top"
3 3 "cube"
3 4 "cylinder"
$EndPhysicalNames
$Nodes
270
1 0 0 0.01
2 0 0 0
3 0 0.01 0.01
4 0 0.01 0
5 0.01 0 0.01
6 0.01 0 0
7 0.01 0.01 0.01
8 0.01 0.01 0
9 0.016 0.012 0.009999999999999998
10 0.016 0 0.009999999999999998
11 0 0 0.004999999999999999
12 0 0 0.0025
13 0 0 0.0075
14 0 0.004999999999999999 0.01
15 0 0.0025 0.01
16 0 0.0075 0.01
17 0 0.01 0.004999999999999999
18 0 0.01 0.0025
19 0 0.01 0.0075
20 0 0.004999999999999999 0
21 0 0.0025 0
22 0 0.0075 0
23 0.01 0 0.004999999999999999
24 0.01 0 0.0025
25 0.01 0 0.0075
26 0.01 0.004999999999999999 0.01
27 0.01 0.0025 0.01
28 0.01 0.0075 0.01
29 0.01 0.01 0.004999999999999999
30 0.01 0.01 0.0025
31 0.01 0.01 0.0075
32 0.01 0.004999999999999999 0
33 0.01 0.0025 0
34 0.01 0.0075 0
35 0.004999999999999999 0 0
36 0.0025 0 0
37 0.0075 0 0
38 0.004999999999999999 0 0.01
39 0.0025 0 0.01
40 0.0075 0 0.01
41 0.004999999999999999 0.01 0
42 0.0025 0.01 0
43 0.0075 0.01 0
44 0.004999999999999999 0.01 0.01
45 0.0025 0.01 0.01
46 0.0075 0.01 0.01
47 0.01990924239646448 0.012 0.008117342439592523
48 0.02087463956090912 0.012 0.003887395330218428
49 0.01816941869558779 0.012 0.0004951556604879045
50 0.01383058130441221 0.012 0.0004951556604879045
51 0.01112536043909088 0.012 0.003887395330218427
52 0.01209084258765985 0.012 0.008117449009293667
53 0.01816920970443989 0.012 0.009504944978372521
54 0.02087463203508375 0.012 0.006112637642062909
55 0.01990915741234015 0.012 0.001882550990706333
56 0.01600000019138103 0.012 3.469446951953614e-18
57 0.01209084258765985 0.012 0.001882550990706331
58 0.01112537139487686 0.012 0.006112652669126908
59 0.01383058130441221 0.012 0.009504844339512096
60 0.016 0.003999999999999994 0.009999999999999998
61 0.016 0.007999999999999988 0.009999999999999998
62 0.016 0.001999999999999997 0.009999999999999998
63 0.016 0.005999999502747404 0.009999999999999998
64 0.016 0.009999999999999993 0.009999999999999998
65 0.01990915741234015 0 0.008117449009293669
66 0.02087463956090912 0 0.003887395330218428
67 0.01816941869558779 0 0.0004951556604879045
68 0.01383058090860731 0 0.0004951558510975203
69 0.01112535869780297 0 0.003887402959326769
70 0.01209075562506694 0 0.008117339958531028
71 0.01816941869558779 0 0.009504844339512096
72 0.02087462856829985 0 0.006112652830452952
73 0.01990915741234015 0 0.001882550990706333
74 0.01600001578645669 0 2.492103745588281e-14
75 0.01209084268559369 0 0.001882550867901186
76 0.01112537147217058 0 0.00611265300775739
77 0.01383080748610227 0 0.009504953255878471
78 0 0.004999999999999999 0.004999999999999999
79 0 0.0025 0.004999999999999999
80 0 0.004999999999999999 0.0025
81 0 0.0075 0.004999999999999999
82 0 0.004999999999999999 0.0075
83 0.01 0.004999999999999999 0.004999999999999999
84 0.01 0.004999999999999999 0.0025
85 0.01 0.0025 0.004999999999999999
86 0.01 0.0075 0.004999999999999999
87 0.01 0.004999999999999999 0.0075
88 0.004999999999999999 0 0.004999999999999999
89 0.004999999999999999 0 0.0025
90 0.0025 0 0.004999999999999999
91 0.004999999999999999 0 0.0075
92 0.0075 0 0.004999999999999999
93 0.004999999999999999 0.01 0.004999999999999999
94 0.0025 0.01 0.004999999999999999
95 0.004999999999999999 0.01 0.0025
96 0.004999999999999999 0.01 0.0075
97 0.0075 0.01 0.004999999999999999
98 0.004999999999999999 0.004999999999999999 0
99 0.0025 0.004999999999999999 0
100 0.004999999999999999 0.0025 0
101 0.0075 0.004999999999999999 0
102 0.004999999999999999 0.0075 0
103 0.004999999999999999 0.004999999999999999 0.01
104 0.004999999999999999 0.0025 0.01
105 0.0025 0.004999999999999999 0.01
106 0.0075 0.004999999999999999 0.01
107 0.004999999999999999 0.0075 0.01
108 0.01263401722129631 0.006003404640545236 0.008697317937839561
109 0.0193657267885331 0.006003482540204078 0.008697550971244437
110 0.01990500020678201 0.003483503119074818 0.001877345138342623
111 0.01209597219665201 0.008513093789102647 0.001876129498412931
112 0.01209084258765985 0.00372477560427264 0.001882550990706331
113 0.01990623184004173 0.008509758103720958 0.001878885966222282
114 0.0110900349342757 0.008371352013655254 0.005944586181016306
115 0.01109006156756806 0.003636566810463749 0.005944724610522967
116 0.02090995549972895 0.003637480762465006 0.00594463590376475
117 0.02091001298224208 0.00837132331022033 0.005944337076585573
118 0.016 0.003724775604272621 0
119 0.01599934045703985 0.008523212726636762 4.349969169592516e-11
120 0.01318751479377388 0.009161118523125161 0.009133996488237409
121 0.01884136616723179 0.009145723012140061 0.009114199594539692
122 0.01881248520622433 0.002838881476875096 0.009133996488238625
123 0.01315937648153136 0.002853360520666978 0.009114712386828854
124 0.01383365749963892 0.006026267739932737 0.0004936755364122617
125 0.01818760666948364 0.006016885909036299 0.0005039598467506193
126 0.02080789153991367 0.005990688136161215 0.00362734602305367
127 0.01119010338411708 0.006053393451609653 0.003634388582166212
128 0.01452860311968304 0.01058055926156258 0.009778597202170686
129 0.01452860311968304 0.008580559261562575 0.009778597202170686
130 0.01748819730827552 0.00857134606716952 0.009773391747137615
131 0.01749032711420136 0.01057814800678348 0.009772727217501149
132 0.01940844924108797 0.01057632046794772 0.00865820635980624
133 0.01260096159669116 0.01058055926156258 0.00866695213124356
134 0.01747139688031592 0.001419440738437548 0.009778597202171006
135 0.01747232559082941 0.003422809891769977 0.009778311140412355
136 0.01451231084129517 0.003426680260333486 0.009773550142930534
137 0.01451231084129517 0.001426680260333489 0.009773550142930534
138 0.01939903840330805 0.001419440738437548 0.008666952131244295
139 0.01259157612324004 0.001423712677684843 0.008658229992268476
140 0.01426512309253449 0.00700019721842189 0.009689371185558134
141 0.01426447840454475 0.004998247187143615 0.009689132626798741
142 0.01773561689069104 0.004998195169476951 0.009689097355435047
143 0.01773486941284055 0.007000160852370817 0.009689373958258213
144 0.01295530168707015 0.004425711709407972 0.008966082725214156
145 0.01903101043021578 0.004418563699860341 0.008976553252745791
146 0.01296716457440855 0.007581929476450979 0.008975161541532307
147 0.01904635561737986 0.007574766980542884 0.008964809888564414
148 0.02054353051683345 0.01018221244406438 0.007087182417184271
149 0.02099929392343432 0.01018194360905885 0.004915974604358493
150 0.02018807319675175 0.00874889477612484 0.007731307909894
151 0.02050382649602803 0.01025487905186048 0.002828468997763138
152 0.01911561546849507 0.01025487905186048 0.001089381090866273
153 0.02085370295301082 0.008430212685861334 0.003799346992701852
154 0.01710857303819568 0.01026453955914955 0.0001244419992183863
155 0.0148907832842148 0.01026454008111253 0.0001245883991787232
156 0.01816700872623625 0.008516485415178861 0.000493995874345436
157 0.01288576489662113 0.01025654689455132 0.001088281743161603
158 0.01149694018087531 0.01025654689455132 0.002826879601728262
159 0.01383398724588174 0.008518153257869705 0.0004935170310987509
160 0.01100070610335064 0.01018193551856933 0.004915973010737701
161 0.01145647278214659 0.01018221229505633 0.007087189598629038
162 0.01114672124807879 0.008431784244634623 0.003797633435199548
163 0.01182129085326631 0.008756134970975877 0.007745612839969281
164 0.02099929417765802 0.001818082948295971 0.004915989731373906
165 0.02054353360487339 0.001817808293625646 0.007087175694901172
166 0.02017873171586757 0.003242134279928971 0.007745578490373654
167 0.01911484400709569 0.001741751559537409 0.001088766586937052
168 0.02050339805658692 0.001741751559537409 0.002827580624297157
169 0.02085347757769718 0.003561614686137409 0.003798436267695
170 0.01489110149727537 0.001859684189236184 0.0001245160126757605
171 0.01710903304061961 0.001859765633165812 0.000124546614435327
172 0.01816623571725174 0.003603455686138181 0.0004936242037194873
173 0.01149680412616733 0.001859594649998193 0.002827161551818355
174 0.01287958032212233 0.001859684402906512 0.001093213464506438
175 0.01383058130441221 0.003724775604272631 0.0004951556604879045
176 0.01145646336572947 0.001817810443915977 0.007087169100250772
177 0.01100070359867909 0.001818004598480553 0.004916122161807703
178 0.01114577914015073 0.003682256256455078 0.003801442598869683
179 0.01181193376080589 0.003249450138471265 0.007731318578291903
180 0.01109033527665217 0.006000071696256798 0.005946146026950308
181 0.01175207346920692 0.004844084107399714 0.007637256185694571
182 0.01175255748655678 0.007147281768558473 0.00763803565081959
183 0.02090967743625135 0.006000075957844782 0.005946080055790394
184 0.02024737822905779 0.007147849029143283 0.007638139150864852
185 0.02024799290680006 0.004843108936797152 0.007637149268391224
186 0.02041186483679137 0.00474142442096376 0.002647246578605422
187 0.02098201203948421 0.004814639036190943 0.004576259468029839
188 0.01711560167410842 0.004878936170524842 0.0001260454552051374
189 0.01912701708985971 0.004755660375239693 0.001098492071041591
190 0.01979260847817852 0.005997689627126259 0.001741761069036159
191 0.01158427641574672 0.007282207771936532 0.002654496807192665
192 0.01101790175441635 0.007200989404547683 0.004577274236233051
193 0.01488873795303934 0.007274740233284749 0.0001250541887129865
194 0.01288682455261506 0.007269302439395622 0.001087438353993697
195 0.01221269847061934 0.006032819939716787 0.001735593909215502
196 0.01101768103186853 0.004847503062686245 0.004579883706817571
197 0.01158496527526635 0.004894794225619422 0.00265320039641301
198 0.01288388566413341 0.004875521672102688 0.001089778593761382
199 0.01488905947907611 0.004875521672102679 0.0001249809068097647
200 0.02098179310070825 0.00716902641895624 0.00457369318356877
201 0.02041480295612304 0.007248835798993417 0.00265276442200462
202 0.01912367323411392 0.007263138647030465 0.00109581435809204
203 0.01712213114401817 0.00727004931783653 0.0001275445927515686
204 0.01601181029135551 0.006021576824484518 1.394831764586074e-08
205 0.016 0.012 0.005
206 0.01796008125960466 0.012 0.006563259873006648
207 0.016 0.012 0.0075
208 0.01404542129382992 0.012 0.006558724504646833
209 0.01843731978045456 0.012 0.004443697665109214
210 0.01708470934779389 0.012 0.002747577830243952
211 0.0149152906522061 0.012 0.002747577830243952
212 0.01356268021954544 0.012 0.004443697665109213
213 0.016 0 0.005
214 0.016 0 0.0075
215 0.01795457870617008 0 0.006558724504646834
216 0.01403992462433651 0 0.006563275158964209
217 0.01843731978045456 0 0.004443697665109214
218 0.01708470934779389 0 0.002747577830243952
219 0.01491213152459266 0 0.002741040346430669
220 0.01355566963603158 0 0.004442117103205767
221 0.004999999999999999 0.004999999999999999 0.004999999999999999
222 0.0025 0.004999999999999999 0.004999999999999999
223 0.004999999999999999 0.0025 0.004999999999999999
224 0.004999999999999999 0.004999999999999999 0.0025
225 0.0075 0.004999999999999999 0.004999999999999999
226 0.004999999999999999 0.0075 0.004999999999999999
227 0.004999999999999999 0.004999999999999999 0.0075
228 0.016 0.006959459459459453 0.005067567567567558
229 0.01740624260311217 0.001419440738437548 0.007066998244119313
230 0.016 0.001999999999999997 0.0075
231 0.01600000342521903 0.005479255182493458 0.007544477223347892
232 0.016 0.003479729729729726 0.005033783783783779
233 0.01741073205544284 0.00490002785427256 0.007107797337742759
234 0.01457968824076568 0.001426680260333489 0.007057356193414428
235 0.01457519612275327 0.004907288131224359 0.007098148273285637
236 0.01404542129382993 0.00186238780213632 0.003441275495353166
237 0.016 0.00186238780213631 0.0025
238 0.01404542129382993 0.005342117531866046 0.003475059279136945
239 0.016 0.005342117531866037 0.002533783783783779
240 0.01795250010339101 0.001741751559537409 0.003438672569171312
241 0.01795993894606891 0.005220064686129664 0.003465848355912429
242 0.01846469986011962 0.001822193669987329 0.005472372665490327
243 0.01847310084580111 0.005302204647364131 0.005509056726336464
244 0.01353540882161185 0.001822101135309481 0.005472501146595934
245 0.01352728827557045 0.005302042396640597 0.005508952669372897
246 0.01762775217800497 0.006478130498856935 0.006940380997788339
247 0.01437214415016943 0.006478164415791496 0.006940374143575396
248 0.01709380333474182 0.006488172684247876 0.002785763707159089
249 0.01839106811813331 0.00647449423452184 0.00428460462796287
250 0.01491682874981946 0.006492863599696095 0.00278062155198991
251 0.01360761607304776 0.006506195807151068 0.004287932620720668
252 0.01459375739688694 0.01058055926156258 0.007066998244118704
253 0.016 0.009999999999999995 0.0075
254 0.0145888863655548 0.00806132479725989 0.007106057821377629
255 0.01600001776869802 0.007481272575843006 0.007543620688255032
256 0.016 0.009479729729729727 0.005033783783783779
257 0.0174248039624497 0.01057316648480561 0.007064983505063392
258 0.01742511447629702 0.008054047167535754 0.007096428843151198
259 0.01599967022851993 0.01026160636331838 0.002500000021749846
260 0.014047986098326 0.01025654689455132 0.003438064749206465
261 0.01599967022851993 0.007741336093048107 0.002533783805533625
262 0.014047986098326 0.00773627662428105 0.003471848532990244
263 0.01795311592002086 0.01025487905186048 0.003439442983111141
264 0.01795311592002086 0.007734608781590205 0.00347322676689492
265 0.01353706883668245 0.01017527614533865 0.005472325135784484
266 0.01352972107792717 0.007659173838356058 0.005507030294624316
267 0.01846288300175852 0.01017538171140344 0.005472312223857093
268 0.01847023435134782 0.007659203557055536 0.005507039766949554
269 0.02009209304974357 0.006000515847125638 0.006197280849954229
270 0.01190608110573824 0.006032239855402631 0.006201612955457565
$EndNodes
$Elements
106
1 9 2 2 8 47 205 9 206 207 53
2 9 2 2 8 9 205 52 207 208 59
3 9 2 2 8 48 205 47 209 206 54
4 9 2 2 8 49 205 48 210 209 55
5 9 2 2 8 50 205 49 211 210 56
6 9 2 2 8 51 205 50 212 211 57
7 9 2 2 8 52 205 51 208 212 58
8 9 2 1 9 65 10 213 71 214 215
9 9 2 1 9 10 70 213 77 216 214
10 9 2 1 9 66 65 213 72 215 217
11 9 2 1 9 67 66 213 73 217 218
12 9 2 1 9 68 67 213 74 218 219
13 9 2 1 9 69 68 213 75 219 220
14 9 2 1 9 70 69 213 76 220 216
15 16 2 1 3 2 35 88 11 36 89 90 12
16 16 2 1 3 11 88 38 1 90 91 39 13
17 16 2 1 3 35 6 23 88 37 24 92 89
18 16 2 1 3 88 23 5 38 92 25 40 91
19 16 2 2 4 4 17 93 41 18 94 95 42
20 16 2 2 4 17 3 44 93 19 45 96 94
21 16 2 2 4 41 93 29 8 95 97 30 43
22 16 2 2 4 93 44 7 29 96 46 31 97
23 11 2 4 2 60 122 213 228 135 229 230 231 232 233
24 11 2 4 2 123 60 213 228 136 230 234 235 232 231
25 11 2 4 2 112 213 118 228 236 237 175 238 239 232
26 11 2 4 2 213 110 118 228 240 172 237 232 239 241
27 11 2 4 2 116 213 122 228 242 229 166 243 233 232
28 11 2 4 2 123 213 115 228 234 244 179 235 245 232
29 11 2 4 2 115 213 112 228 244 236 178 245 238 232
30 11 2 4 2 110 213 116 228 240 242 169 241 243 232
31 11 2 4 2 122 60 109 228 135 142 145 233 246 231
32 11 2 4 2 108 60 123 228 141 136 144 247 235 231
33 11 2 4 2 122 109 116 228 145 185 166 233 243 246
34 11 2 4 2 108 123 115 228 144 179 181 247 245 235
35 11 2 4 2 125 118 110 228 188 172 189 248 241 239
36 11 2 4 2 110 116 126 228 169 187 186 241 249 243
37 11 2 4 2 112 118 124 228 175 199 198 238 250 239
38 11 2 4 2 115 112 127 228 178 197 196 245 251 238
39 11 2 4 2 120 205 61 228 252 253 129 254 255 256
40 11 2 4 2 205 121 61 228 257 130 253 256 255 258
41 11 2 4 2 119 205 111 228 259 260 159 261 262 256
42 11 2 4 2 119 113 205 228 156 263 259 261 256 264
43 11 2 4 2 60 61 109 228 63 143 142 231 246 255
44 11 2 4 2 108 61 60 228 140 63 141 247 231 255
45 11 2 4 2 114 111 205 228 162 260 265 266 256 262
46 11 2 4 2 117 205 113 228 267 263 153 268 264 256
47 11 2 4 2 114 205 120 228 265 252 163 266 254 256
48 11 2 4 2 110 126 125 228 186 190 189 241 248 249
49 11 2 4 2 205 117 121 228 267 150 257 256 258 268
50 11 2 4 2 109 126 116 228 269 187 185 246 243 249
51 11 2 4 2 127 108 115 228 270 181 196 251 245 247
52 11 2 4 2 213 68 112 118 219 174 236 237 175 170
53 11 2 4 2 60 10 213 122 62 214 230 135 229 134
54 11 2 4 2 9 61 120 205 64 129 128 207 252 253
55 11 2 4 2 109 117 126 228 184 200 269 246 249 268
56 11 2 4 2 123 60 10 213 136 62 137 234 214 230
57 11 2 4 2 61 9 121 205 64 131 130 253 257 207
58 11 2 4 2 127 114 108 228 192 182 270 251 247 266
59 11 2 4 2 118 110 213 67 172 240 237 171 218 167
60 11 2 4 2 112 124 127 228 198 195 197 238 251 250
61 11 2 4 2 205 119 49 113 259 154 210 263 152 156
62 11 2 4 2 111 119 50 205 159 155 157 260 211 259
63 11 2 4 2 125 124 118 228 204 199 188 248 239 250
64 11 2 4 2 69 112 115 213 173 178 177 220 244 236
65 11 2 4 2 114 111 51 205 162 158 160 265 212 260
66 11 2 4 2 48 117 205 113 149 267 209 151 263 153
67 11 2 4 2 116 213 110 66 242 240 169 164 168 217
68 11 2 4 2 120 61 108 228 129 140 146 254 247 255
69 11 2 4 2 109 61 121 228 143 130 147 246 258 255
70 11 2 4 2 114 52 120 205 161 133 163 265 252 208
71 11 2 4 2 213 116 122 65 242 166 229 215 138 165
72 11 2 4 2 115 123 70 213 179 139 176 244 216 234
73 11 2 4 2 205 47 121 117 206 132 257 267 150 148
74 11 2 4 2 124 119 111 228 193 159 194 250 262 261
75 11 2 4 2 125 113 119 228 202 156 203 248 261 264
76 11 2 4 2 114 120 108 228 163 146 182 266 247 254
77 11 2 4 2 109 121 117 228 147 150 184 246 268 258
78 11 2 4 2 113 125 126 228 202 190 201 264 249 248
79 11 2 4 2 127 124 111 228 195 194 191 251 262 250
80 11 2 4 2 117 113 126 228 153 201 200 268 249 264
81 11 2 4 2 124 125 119 228 204 203 193 250 261 248
82 11 2 4 2 114 127 111 228 192 191 162 266 262 251
83 11 2 4 2 69 68 112 213 75 174 173 220 236 219
84 11 2 4 2 213 68 118 67 219 170 237 218 171 74
85 11 2 4 2 116 109 117 126 185 184 183 187 200 269
86 11 2 4 2 108 114 127 115 182 192 270 181 196 180
87 11 2 4 2 49 48 205 113 55 209 210 152 263 151
88 11 2 4 2 51 111 50 205 158 157 57 212 211 260
89 11 2 4 2 67 110 213 66 167 240 218 73 217 168
90 11 2 4 2 119 50 205 49 155 211 259 154 210 56
91 11 2 4 2 52 114 51 205 161 160 58 208 212 265
92 11 2 4 2 70 69 115 213 76 177 176 216 244 220
93 11 2 4 2 117 205 47 48 267 206 148 149 54 209
94 11 2 4 2 213 116 65 66 242 165 215 217 72 164
95 11 2 4 2 10 213 122 65 214 229 134 71 138 215
96 11 2 4 2 9 120 52 205 128 133 59 207 208 252
97 11 2 4 2 70 123 10 213 139 137 77 216 214 234
98 11 2 4 2 47 121 9 205 132 131 53 206 207 257
99 17 2 3 1 78 11 2 20 221 88 35 98 79 80 222 12 90 21 36 99 223 224 89 100
100 17 2 3 1 221 88 35 98 83 23 6 32 223 224 225 89 92 100 37 101 85 84 24 33
101 17 2 3 1 17 78 20 4 93 221 98 41 81 18 94 80 222 22 99 42 226 95 224 102
102 17 2 3 1 93 221 98 41 29 83 32 8 226 95 97 224 225 102 101 43 86 30 84 34
103 17 2 3 1 14 1 11 78 103 38 88 221 15 82 105 13 39 79 90 222 104 227 91 223
104 17 2 3 1 103 38 88 221 26 5 23 83 104 227 106 91 40 223 92 225 27 87 25 85
105 17 2 3 1 3 14 78 17 44 103 221 93 16 19 45 82 105 81 222 94 107 96 227 226
106 17 2 3 1 44 103 221 93 7 26 83 29 107 96 46 227 106 226 225 97 28 31 87 86
$EndElements
