$MeshFormat
2.2 0 8
$EndMeshFormat
$PhysicalNames
4
2 1 "bc-bot"
2 2 "bc-top"
3 3 "cube"
3 4 "cylinder"
$EndPhysicalNames
$Nodes
582
1 0 0 0.01
2 0 0 0
3 0 0.01 0.01
4 0 0.01 0
5 0.01 0 0.01
6 0.01 0 0
7 0.01 0.01 0.01
8 0.01 0.01 0
9 0.01425 0 0.00325
10 0.01775 0 0.00325
11 0.01775 0 0.00675
12 0.01425 0 0.00675
13 0.01246446609406726 0 0.001464466094067263
14 0.01953553390593274 0 0.001464466094067263
15 0.01953553390593274 0 0.008535533905932736
16 0.01246446609406726 0 0.008535533905932736
17 0.01425 0.012 0.00325
18 0.01775 0.012 0.00325
19 0.01775 0.012 0.00675
20 0.01425 0.012 0.00675
21 0.01953553390593274 0.012 0.001464466094067263
22 0.01246446609406726 0.012 0.001464466094067263
23 0.01953553390593274 0.012 0.008535533905932736
24 0.01246446609406726 0.012 0.008535533905932736
25 0 0 0.004999999999999986
26 0 0 0.002499999999999993
27 0 0 0.007499999999999994
28 0 0.004999999999999986 0.01
29 0 0.002499999999999993 0.01
30 0 0.007499999999999994 0.01
31 0 0.01 0.004999999999999986
32 0 0.01 0.002499999999999993
33 0 0.01 0.007499999999999994
34 0 0.004999999999999986 0
35 0 0.002499999999999993 0
36 0 0.007499999999999994 0
37 0.01 0 0.004999999999999986
38 0.01 0 0.002499999999999993
39 0.01 0 0.007499999999999994
40 0.01 0.004999999999999986 0.01
41 0.01 0.002499999999999993 0.01
42 0.01 0.007499999999999994 0.01
43 0.01 0.01 0.004999999999999986
44 0.01 0.01 0.002499999999999993
45 0.01 0.01 0.007499999999999994
46 0.01 0.004999999999999986 0
47 0.01 0.002499999999999993 0
48 0.01 0.007499999999999994 0
49 0.004999999999999986 0 0
50 0.002499999999999993 0 0
51 0.007499999999999994 0 0
52 0.004999999999999986 0 0.01
53 0.002499999999999993 0 0.01
54 0.007499999999999994 0 0.01
55 0.004999999999999986 0.01 0
56 0.002499999999999993 0.01 0
57 0.007499999999999994 0.01 0
58 0.004999999999999986 0.01 0.01
59 0.002499999999999993 0.01 0.01
60 0.007499999999999994 0.01 0.01
61 0.016 0 0.00325
62 0.015125 0 0.00325
63 0.016875 0 0.00325
64 0.01775 0 0.005
65 0.01775 0 0.004125
66 0.01775 0 0.005875
67 0.016 0 0.00675
68 0.016875 0 0.00675
69 0.015125 0 0.00675
70 0.01425 0 0.005
71 0.01425 0 0.005875
72 0.01425 0 0.004125
73 0.016 0 8.673617379884035e-19
74 0.01408658283817455 0 0.0003806023374435669
75 0.01791341716182545 0 0.0003806023374435686
76 0.021 0 0.004999999999999995
77 0.02061939766255643 0 0.003086582838174548
78 0.02061939766255644 0 0.006913417161825442
79 0.01600000000000001 0 0.01
80 0.01791341716182545 0 0.009619397662556432
81 0.01408658283817455 0 0.009619397662556435
82 0.011 0 0.005000000000000002
83 0.01138060233744357 0 0.006913417161825449
84 0.01138060233744357 0 0.003086582838174555
85 0.01335723304703363 0 0.002357233047033632
86 0.01380361652351682 0 0.002803616523516816
87 0.01291084957055045 0 0.001910849570550447
88 0.01864276695296637 0 0.002357233047033632
89 0.01819638347648319 0 0.002803616523516816
90 0.01908915042944955 0 0.001910849570550447
91 0.01864276695296637 0 0.007642766952966368
92 0.01819638347648319 0 0.007196383476483184
93 0.01908915042944955 0 0.008089150429449552
94 0.01335723304703363 0 0.007642766952966368
95 0.01380361652351682 0 0.007196383476483184
96 0.01291084957055045 0 0.008089150429449552
97 0.01425 0.004 0.00325
98 0.01425 0.008 0.00325
99 0.01425 0.002 0.00325
100 0.01425 0.006 0.00325
101 0.01425 0.01 0.00325
102 0.01775 0.004 0.00325
103 0.01775 0.008 0.00325
104 0.01775 0.002 0.00325
105 0.01775 0.006 0.00325
106 0.01775 0.01 0.00325
107 0.016 0.012 0.00325
108 0.015125 0.012 0.00325
109 0.016875 0.012 0.00325
110 0.01775 0.004 0.00675
111 0.01775 0.008 0.00675
112 0.01775 0.002 0.00675
113 0.01775 0.006 0.00675
114 0.01775 0.01 0.00675
115 0.01775 0.012 0.005
116 0.01775 0.012 0.004125
117 0.01775 0.012 0.005875
118 0.01425 0.004 0.00675
119 0.01425 0.008 0.00675
120 0.01425 0.002 0.00675
121 0.01425 0.006 0.00675
122 0.01425 0.01 0.00675
123 0.016 0.012 0.00675
124 0.016875 0.012 0.00675
125 0.015125 0.012 0.00675
126 0.01425 0.012 0.005
127 0.01425 0.012 0.005875
128 0.01425 0.012 0.004125
129 0.01953553390593274 0.004 0.001464466094067263
130 0.01953553390593274 0.008 0.001464466094067263
131 0.01953553390593274 0.002 0.001464466094067263
132 0.01953553390593274 0.006 0.001464466094067263
133 0.01953553390593274 0.01 0.001464466094067263
134 0.01864276695296637 0.012 0.002357233047033632
135 0.01819638347648319 0.012 0.002803616523516816
136 0.01908915042944955 0.012 0.001910849570550447
137 0.01246446609406726 0.004 0.001464466094067263
138 0.01246446609406726 0.008 0.001464466094067263
139 0.01246446609406726 0.002 0.001464466094067263
140 0.01246446609406726 0.006 0.001464466094067263
141 0.01246446609406726 0.01 0.001464466094067263
142 0.016 0.012 8.673617379884035e-19
143 0.01408658283817455 0.012 0.0003806023374435669
144 0.01791341716182545 0.012 0.0003806023374435686
145 0.01335723304703363 0.012 0.002357233047033632
146 0.01380361652351682 0.012 0.002803616523516816
147 0.01291084957055045 0.012 0.001910849570550447
148 0.01953553390593274 0.004 0.008535533905932736
149 0.01953553390593274 0.008 0.008535533905932736
150 0.01953553390593274 0.002 0.008535533905932736
151 0.01953553390593274 0.006 0.008535533905932736
152 0.01953553390593274 0.01 0.008535533905932736
153 0.01864276695296637 0.012 0.007642766952966368
154 0.01819638347648319 0.012 0.007196383476483184
155 0.01908915042944955 0.012 0.008089150429449552
156 0.021 0.012 0.004999999999999995
157 0.02061939766255643 0.012 0.003086582838174548
158 0.02061939766255644 0.012 0.006913417161825442
159 0.01246446609406726 0.004 0.008535533905932736
160 0.01246446609406726 0.008 0.008535533905932736
161 0.01246446609406726 0.002 0.008535533905932736
162 0.01246446609406726 0.006 0.008535533905932736
163 0.01246446609406726 0.01 0.008535533905932736
164 0.01335723304703363 0.012 0.007642766952966368
165 0.01380361652351682 0.012 0.007196383476483184
166 0.01291084957055045 0.012 0.008089150429449552
167 0.01600000000000001 0.012 0.01
168 0.01791341716182545 0.012 0.009619397662556432
169 0.01408658283817455 0.012 0.009619397662556435
170 0.011 0.012 0.005000000000000002
171 0.01138060233744357 0.012 0.006913417161825449
172 0.01138060233744357 0.012 0.003086582838174555
173 0 0.007386115160349848 0.007386115160349848
174 0 0.003749999999999991 0.006249999999999999
175 0 0.006491435860058303 0.003574769193391639
176 0 0.002812500000000004 0.002812500000000004
177 0 0.001874999999999996 0.008125
178 0 0.001874999999999996 0.005624999999999993
179 0 0.004374999999999988 0.008125
180 0 0.001406250000000002 0.003906249999999995
181 0 0.001406250000000002 0.001406250000000002
182 0 0.003906249999999995 0.001406250000000002
183 0 0.008693057580174924 0.008693057580174924
184 0 0.006193057580174917 0.008693057580174924
185 0 0.008693057580174924 0.006193057580174917
186 0 0.008245717930029152 0.001787384596695819
187 0 0.008245717930029152 0.004287384596695813
188 0 0.005745717930029145 0.001787384596695819
189 0 0.003281249999999998 0.004531250000000002
190 0 0.00556805758017492 0.006818057580174923
191 0 0.006938775510204075 0.005480442176870743
192 0 0.004651967930029154 0.003193634596695822
193 0 0.005120717930029148 0.004912384596695819
194 0.01 0.007386115160349848 0.007386115160349848
195 0.01 0.003749999999999991 0.006249999999999999
196 0.01 0.006491435860058303 0.003574769193391639
197 0.01 0.002812500000000004 0.002812500000000004
198 0.01 0.001874999999999996 0.005624999999999993
199 0.01 0.001874999999999996 0.008125
200 0.01 0.004374999999999988 0.008125
201 0.01 0.001406250000000002 0.001406250000000002
202 0.01 0.001406250000000002 0.003906249999999995
203 0.01 0.003906249999999995 0.001406250000000002
204 0.01 0.006193057580174917 0.008693057580174924
205 0.01 0.008693057580174924 0.008693057580174924
206 0.01 0.008693057580174924 0.006193057580174917
207 0.01 0.008245717930029152 0.004287384596695813
208 0.01 0.008245717930029152 0.001787384596695819
209 0.01 0.005745717930029145 0.001787384596695819
210 0.01 0.003281249999999998 0.004531250000000002
211 0.01 0.00556805758017492 0.006818057580174923
212 0.01 0.006938775510204075 0.005480442176870743
213 0.01 0.004651967930029154 0.003193634596695822
214 0.01 0.005120717930029148 0.004912384596695819
215 0.007386115160349848 0 0.007386115160349848
216 0.003749999999999991 0 0.00625
217 0.006491435860058304 0 0.003574769193391639
218 0.002812500000000005 0 0.002812500000000005
219 0.001874999999999996 0 0.005624999999999993
220 0.001874999999999996 0 0.008125
221 0.004374999999999988 0 0.008125
222 0.001406250000000002 0 0.001406250000000002
223 0.001406250000000002 0 0.003906249999999996
224 0.003906249999999996 0 0.001406250000000002
225 0.008693057580174924 0 0.008693057580174924
226 0.008693057580174924 0 0.006193057580174917
227 0.006193057580174917 0 0.008693057580174924
228 0.008245717930029152 0 0.004287384596695813
229 0.008245717930029152 0 0.001787384596695819
230 0.005745717930029145 0 0.001787384596695819
231 0.003281249999999998 0 0.004531250000000002
232 0.006938775510204076 0 0.005480442176870743
233 0.004651967930029154 0 0.003193634596695822
234 0.00556805758017492 0 0.006818057580174924
235 0.005120717930029148 0 0.00491238459669582
236 0.007386115160349848 0.01 0.007386115160349848
237 0.003749999999999991 0.01 0.00625
238 0.006491435860058304 0.01 0.003574769193391639
239 0.002812500000000005 0.01 0.002812500000000005
240 0.001874999999999996 0.01 0.008125
241 0.001874999999999996 0.01 0.005624999999999993
242 0.004374999999999988 0.01 0.008125
243 0.001406250000000002 0.01 0.003906249999999996
244 0.001406250000000002 0.01 0.001406250000000002
245 0.003906249999999996 0.01 0.001406250000000002
246 0.008693057580174924 0.01 0.006193057580174917
247 0.008693057580174924 0.01 0.008693057580174924
248 0.006193057580174917 0.01 0.008693057580174924
249 0.008245717930029152 0.01 0.001787384596695819
250 0.008245717930029152 0.01 0.004287384596695813
251 0.005745717930029145 0.01 0.001787384596695819
252 0.003281249999999998 0.01 0.004531250000000002
253 0.006938775510204076 0.01 0.005480442176870743
254 0.004651967930029154 0.01 0.003193634596695822
255 0.00556805758017492 0.01 0.006818057580174924
256 0.005120717930029148 0.01 0.00491238459669582
257 0.007386115160349848 0.007386115160349848 0
258 0.003749999999999991 0.006249999999999999 0
259 0.006491435860058303 0.003574769193391639 0
260 0.002812500000000004 0.002812500000000004 0
261 0.001406250000000002 0.003906249999999995 0
262 0.001406250000000002 0.001406250000000002 0
263 0.003906249999999995 0.001406250000000002 0
264 0.001874999999999996 0.008125 0
265 0.001874999999999996 0.005624999999999993 0
266 0.004374999999999988 0.008125 0
267 0.008245717930029152 0.001787384596695819 0
268 0.008245717930029152 0.004287384596695813 0
269 0.005745717930029145 0.001787384596695819 0
270 0.008693057580174924 0.006193057580174917 0
271 0.008693057580174924 0.008693057580174924 0
272 0.006193057580174917 0.008693057580174924 0
273 0.003281249999999998 0.004531250000000002 0
274 0.006938775510204075 0.005480442176870743 0
275 0.004651967930029154 0.003193634596695822 0
276 0.00556805758017492 0.006818057580174923 0
277 0.005120717930029148 0.004912384596695819 0
278 0.007386115160349848 0.007386115160349848 0.01
279 0.003749999999999991 0.006249999999999999 0.01
280 0.006491435860058303 0.003574769193391639 0.01
281 0.002812500000000004 0.002812500000000004 0.01
282 0.001406250000000002 0.001406250000000002 0.01
283 0.001406250000000002 0.003906249999999995 0.01
284 0.003906249999999995 0.001406250000000002 0.01
285 0.001874999999999996 0.005624999999999993 0.01
286 0.001874999999999996 0.008125 0.01
287 0.004374999999999988 0.008125 0.01
288 0.008245717930029152 0.004287384596695813 0.01
289 0.008245717930029152 0.001787384596695819 0.01
290 0.005745717930029145 0.001787384596695819 0.01
291 0.008693057580174924 0.008693057580174924 0.01
292 0.008693057580174924 0.006193057580174917 0.01
293 0.006193057580174917 0.008693057580174924 0.01
294 0.003281249999999998 0.004531250000000002 0.01
295 0.006938775510204075 0.005480442176870743 0.01
296 0.004651967930029154 0.003193634596695822 0.01
297 0.00556805758017492 0.006818057580174923 0.01
298 0.005120717930029148 0.004912384596695819 0.01
299 0.016 0 0.005
300 0.016 0 0.004125
301 0.015125 0 0.005
302 0.016 0 0.005875
303 0.016875 0 0.005
304 0.016 0 0.001625
305 0.016 0 0.0024375
306 0.01467861652351682 0 0.001991116523516816
307 0.016 0 0.0008125000000000007
308 0.01732138347648319 0 0.001991116523516816
309 0.019375 0 0.004999999999999998
310 0.0185625 0 0.004999999999999999
311 0.01900888347648319 0 0.003678616523516815
312 0.0201875 0 0.004999999999999997
313 0.01900888347648319 0 0.006321383476483184
314 0.016 0 0.008375
315 0.016 0 0.0075625
316 0.01732138347648319 0 0.008008883476483184
317 0.016 0 0.009187499999999999
318 0.01467861652351682 0 0.008008883476483184
319 0.012625 0 0.004999999999999999
320 0.0134375 0 0.005
321 0.01299111652351682 0 0.006321383476483184
322 0.0118125 0 0.005000000000000001
323 0.01299111652351682 0 0.003678616523516816
324 0.016 0.004 0.00325
325 0.016 0.008 0.00325
326 0.015125 0.004 0.00325
327 0.016 0.002 0.00325
328 0.015125 0.008 0.00325
329 0.016 0.006 0.00325
330 0.016 0.01 0.00325
331 0.016875 0.004 0.00325
332 0.016875 0.008 0.00325
333 0.01775 0.004 0.005
334 0.01775 0.008 0.005
335 0.01775 0.004 0.004125
336 0.01775 0.002 0.005
337 0.01775 0.008 0.004125
338 0.01775 0.006 0.005
339 0.01775 0.01 0.005
340 0.01775 0.004 0.005875
341 0.01775 0.008 0.005875
342 0.016 0.004 0.00675
343 0.016 0.008 0.00675
344 0.016875 0.004 0.00675
345 0.016 0.002 0.00675
346 0.016875 0.008 0.00675
347 0.016 0.006 0.00675
348 0.016 0.01 0.00675
349 0.015125 0.004 0.00675
350 0.015125 0.008 0.00675
351 0.01425 0.004 0.005
352 0.01425 0.008 0.005
353 0.01425 0.004 0.005875
354 0.01425 0.002 0.005
355 0.01425 0.008 0.005875
356 0.01425 0.006 0.005
357 0.01425 0.01 0.005
358 0.01425 0.004 0.004125
359 0.01425 0.008 0.004125
360 0.016 0.012 0.005
361 0.015125 0.012 0.005
362 0.016 0.012 0.004125
363 0.016 0.012 0.005875
364 0.016875 0.012 0.005
365 0.01864276695296637 0.004 0.002357233047033632
366 0.01864276695296637 0.008 0.002357233047033632
367 0.01864276695296637 0.002 0.002357233047033632
368 0.01819638347648319 0.004 0.002803616523516816
369 0.01864276695296637 0.006 0.002357233047033632
370 0.01819638347648319 0.008 0.002803616523516816
371 0.01864276695296637 0.01 0.002357233047033632
372 0.01908915042944955 0.004 0.001910849570550447
373 0.01908915042944955 0.008 0.001910849570550447
374 0.016 0.004 8.673617379884035e-19
375 0.016 0.008 8.673617379884035e-19
376 0.01408658283817455 0.004 0.0003806023374435669
377 0.016 0.002 8.673617379884035e-19
378 0.01408658283817455 0.008 0.0003806023374435669
379 0.016 0.006 8.673617379884035e-19
380 0.016 0.01 8.673617379884035e-19
381 0.01791341716182545 0.004 0.0003806023374435677
382 0.01791341716182545 0.008 0.0003806023374435677
383 0.01335723304703363 0.004 0.002357233047033632
384 0.01335723304703363 0.008 0.002357233047033632
385 0.01380361652351682 0.004 0.002803616523516816
386 0.01335723304703363 0.002 0.002357233047033632
387 0.01380361652351682 0.008 0.002803616523516816
388 0.01335723304703363 0.006 0.002357233047033632
389 0.01335723304703363 0.01 0.002357233047033632
390 0.01291084957055045 0.004 0.001910849570550447
391 0.01291084957055045 0.008 0.001910849570550447
392 0.016 0.012 0.001625
393 0.016 0.012 0.0024375
394 0.01467861652351682 0.012 0.001991116523516816
395 0.016 0.012 0.0008125000000000007
396 0.01732138347648319 0.012 0.001991116523516816
397 0.01864276695296637 0.004 0.007642766952966368
398 0.01864276695296637 0.008 0.007642766952966368
399 0.01864276695296637 0.002 0.007642766952966369
400 0.01819638347648319 0.004 0.007196383476483184
401 0.01864276695296637 0.006 0.007642766952966369
402 0.01819638347648319 0.008 0.007196383476483184
403 0.01864276695296637 0.01 0.007642766952966369
404 0.01908915042944955 0.004 0.008089150429449552
405 0.01908915042944955 0.008 0.008089150429449552
406 0.021 0.004 0.004999999999999995
407 0.021 0.008 0.004999999999999995
408 0.02061939766255643 0.004 0.003086582838174548
409 0.021 0.002 0.004999999999999995
410 0.02061939766255643 0.008 0.003086582838174548
411 0.021 0.006 0.004999999999999995
412 0.021 0.01 0.004999999999999995
413 0.02061939766255644 0.004 0.006913417161825442
414 0.02061939766255644 0.008 0.006913417161825442
415 0.019375 0.012 0.004999999999999998
416 0.0185625 0.012 0.004999999999999999
417 0.01900888347648319 0.012 0.003678616523516815
418 0.0201875 0.012 0.004999999999999997
419 0.01900888347648319 0.012 0.006321383476483184
420 0.01335723304703363 0.004 0.007642766952966368
421 0.01335723304703363 0.008 0.007642766952966368
422 0.01335723304703363 0.002 0.007642766952966368
423 0.01380361652351682 0.004 0.007196383476483183
424 0.01335723304703363 0.006 0.007642766952966368
425 0.01380361652351682 0.008 0.007196383476483183
426 0.01335723304703363 0.01 0.007642766952966368
427 0.01291084957055045 0.004 0.008089150429449552
428 0.01291084957055045 0.008 0.008089150429449552
429 0.01600000000000001 0.004 0.01
430 0.01600000000000001 0.008 0.01
431 0.01791341716182545 0.004 0.009619397662556432
432 0.01600000000000001 0.002 0.01
433 0.01791341716182545 0.008 0.009619397662556432
434 0.01600000000000001 0.006 0.01
435 0.01600000000000001 0.01 0.01
436 0.01408658283817455 0.004 0.009619397662556435
437 0.01408658283817455 0.008 0.009619397662556435
438 0.016 0.012 0.008375
439 0.016 0.012 0.0075625
440 0.01732138347648319 0.012 0.008008883476483184
441 0.016 0.012 0.009187500000000001
442 0.01467861652351682 0.012 0.008008883476483184
443 0.011 0.004 0.005000000000000002
444 0.011 0.008 0.005000000000000002
445 0.01138060233744357 0.004 0.006913417161825449
446 0.011 0.002 0.005000000000000002
447 0.01138060233744357 0.008 0.006913417161825449
448 0.011 0.006 0.005000000000000002
449 0.011 0.01 0.005000000000000002
450 0.01138060233744357 0.004 0.003086582838174552
451 0.01138060233744357 0.008 0.003086582838174552
452 0.012625 0.012 0.004999999999999999
453 0.0134375 0.012 0.004999999999999999
454 0.01299111652351682 0.012 0.006321383476483184
455 0.0118125 0.012 0.005
456 0.01299111652351682 0.012 0.003678616523516815
457 0.004263392857142861 0.004263392857142862 0.004263392857142861
458 0.008693057580174924 0.008693057580174924 0.007386115160349848
459 0.008693057580174924 0.007386115160349848 0.008693057580174924
460 0.007386115160349848 0.008693057580174924 0.008693057580174924
461 0.005824754008746354 0.007131696428571432 0.005824754008746354
462 0.005824754008746354 0.005824754008746355 0.007131696428571431
463 0.007131696428571431 0.005824754008746355 0.005824754008746354
464 0.008693057580174924 0.008245717930029152 0.005480442176870743
465 0.007131696428571431 0.005377414358600583 0.00391908102526725
466 0.00556805758017492 0.008693057580174924 0.008125
467 0.004006696428571426 0.007131696428571432 0.005256696428571431
468 0.008245717930029152 0.008245717930029152 0.003574769193391639
469 0.005377414358600583 0.007131696428571432 0.00391908102526725
470 0.003749999999999991 0.008125 0.008125
471 0.004006696428571426 0.005256696428571431 0.007131696428571431
472 0.007131696428571431 0.004006696428571427 0.00525669642857143
473 0.005377414358600582 0.003919081025267251 0.007131696428571431
474 0.006938775510204076 0.008693057580174924 0.001787384596695819
475 0.008693057580174924 0.006938775510204075 0.001787384596695819
476 0.005824754008746354 0.005824754008746355 0.002131696428571431
477 0.008245717930029152 0.003662384596695815 0.008125
478 0.008693057580174924 0.001874999999999996 0.006818057580174923
479 0.006938775510204075 0.001787384596695819 0.008693057580174924
480 0.005824754008746354 0.002131696428571431 0.005824754008746354
481 0.001874999999999996 0.008693057580174924 0.006818057580174924
482 0.001874999999999996 0.006818057580174923 0.008693057580174924
483 0.002131696428571431 0.005824754008746355 0.005824754008746354
484 0.008245717930029152 0.005033102526724971 0.001787384596695819
485 0.005377414358600582 0.003919081025267251 0.002131696428571431
486 0.008245717930029152 0.005480442176870743 0.008693057580174924
487 0.008245717930029152 0.003193634596695822 0.001406250000000002
488 0.007131696428571431 0.003537946428571433 0.003537946428571433
489 0.001874999999999996 0.008245717930029152 0.00491238459669582
490 0.002131696428571431 0.005377414358600583 0.00391908102526725
491 0.008245717930029152 0.001874999999999996 0.004912384596695819
492 0.005377414358600583 0.002131696428571431 0.00391908102526725
493 0.005120717930029148 0.008125 0.001787384596695819
494 0.004006696428571426 0.005256696428571431 0.002131696428571431
495 0.005120717930029148 0.001787384596695819 0.008125
496 0.004006696428571426 0.002131696428571431 0.005256696428571431
497 0.003281249999999998 0.001406250000000002 0.008125
498 0.003537946428571433 0.003537946428571433 0.007131696428571431
499 0.003281249999999998 0.008125 0.001406250000000002
500 0.003537946428571433 0.007131696428571432 0.003537946428571433
501 0.001874999999999996 0.004999999999999996 0.008125
502 0.002131696428571431 0.004006696428571427 0.00525669642857143
503 0.001406250000000002 0.008245717930029152 0.003193634596695822
504 0.008245717930029152 0.001406250000000002 0.003193634596695822
505 0.002812500000000004 0.001406250000000002 0.001406250000000002
506 0.003537946428571433 0.002131696428571431 0.003537946428571433
507 0.003537946428571433 0.003537946428571433 0.002131696428571431
508 0.004631696428571424 0.002131696428571431 0.002131696428571431
509 0.001406250000000002 0.002812500000000004 0.001406250000000002
510 0.001874999999999996 0.004531250000000002 0.001406250000000002
511 0.001406250000000002 0.001406250000000002 0.002812500000000004
512 0.001406250000000002 0.001874999999999996 0.004531250000000002
513 0.001406250000000002 0.003281249999999998 0.008125
514 0.002131696428571431 0.003537946428571433 0.003537946428571433
515 0.006491435860058304 0.001787384596695819 0.001787384596695819
516 0.001874999999999996 0.006370717930029151 0.001787384596695819
517 0.001874999999999996 0.001874999999999996 0.00625
518 0.016 0.004 0.005
519 0.016 0.008 0.005
520 0.016 0.002 0.005
521 0.016 0.004 0.004125
522 0.015125 0.004 0.005
523 0.016 0.006 0.005
524 0.016 0.008 0.004125
525 0.015125 0.008 0.005
526 0.016 0.01 0.005
527 0.016 0.004 0.005875
528 0.016 0.008 0.005875
529 0.016875 0.004 0.005
530 0.016875 0.008 0.005
531 0.016 0.004 0.001625
532 0.016 0.008 0.001625
533 0.016 0.002 0.001625
534 0.016 0.004 0.0024375
535 0.01467861652351682 0.004 0.001991116523516816
536 0.016 0.006 0.001625
537 0.016 0.008 0.0024375
538 0.01467861652351682 0.008 0.001991116523516816
539 0.016 0.01 0.001625
540 0.016 0.004 0.0008125000000000003
541 0.016 0.008 0.0008125000000000003
542 0.01732138347648319 0.004 0.001991116523516816
543 0.01732138347648319 0.008 0.001991116523516816
544 0.019375 0.004 0.004999999999999998
545 0.019375 0.008 0.004999999999999998
546 0.019375 0.002 0.004999999999999998
547 0.0185625 0.004 0.004999999999999999
548 0.01900888347648318 0.004 0.003678616523516815
549 0.019375 0.006 0.004999999999999998
550 0.0185625 0.008 0.004999999999999999
551 0.01900888347648318 0.008 0.003678616523516815
552 0.019375 0.01 0.004999999999999998
553 0.0201875 0.004 0.004999999999999997
554 0.0201875 0.008 0.004999999999999997
555 0.01900888347648318 0.004 0.006321383476483183
556 0.01900888347648318 0.008 0.006321383476483183
557 0.016 0.004 0.008375
558 0.016 0.008 0.008375
559 0.016 0.002 0.008375
560 0.016 0.004 0.0075625
561 0.01732138347648319 0.004 0.008008883476483184
562 0.016 0.006 0.008375
563 0.016 0.008 0.0075625
564 0.01732138347648319 0.008 0.008008883476483184
565 0.016 0.01 0.008375
566 0.01600000000000001 0.004 0.009187500000000001
567 0.01600000000000001 0.008 0.009187500000000001
568 0.01467861652351682 0.004 0.008008883476483184
569 0.01467861652351682 0.008 0.008008883476483184
570 0.012625 0.004 0.004999999999999999
571 0.012625 0.008 0.004999999999999999
572 0.012625 0.002 0.004999999999999999
573 0.0134375 0.004 0.004999999999999999
574 0.01299111652351682 0.004 0.006321383476483184
575 0.012625 0.006 0.004999999999999999
576 0.0134375 0.008 0.004999999999999999
577 0.01299111652351682 0.008 0.006321383476483184
578 0.012625 0.01 0.004999999999999999
579 0.0118125 0.004 0.005000000000000001
580 0.0118125 0.008 0.005000000000000001
581 0.01299111652351682 0.004 0.003678616523516815
582 0.01299111652351682 0.008 0.003678616523516815
$EndNodes
$Elements
228
1 9 2 1 3 1 25 216 27 219 220
2 9 2 1 3 52 1 216 53 220 221
3 9 2 1 3 25 2 218 26 222 223
4 9 2 1 3 2 49 218 50 224 222
5 9 2 1 3 37 5 215 39 225 226
6 9 2 1 3 5 52 215 54 227 225
7 9 2 1 3 6 37 217 38 228 229
8 9 2 1 3 49 6 217 51 229 230
9 9 2 1 3 216 25 218 219 223 231
10 9 2 1 3 37 215 217 226 232 228
11 9 2 1 3 49 217 218 230 233 224
12 9 2 1 3 215 52 216 227 221 234
13 9 2 1 3 215 216 217 234 235 232
14 9 2 1 3 217 216 218 235 231 233
15 9 2 2 4 3 237 31 240 241 33
16 9 2 2 4 58 237 3 242 240 59
17 9 2 2 4 31 239 4 243 244 32
18 9 2 2 4 4 239 55 244 245 56
19 9 2 2 4 43 236 7 246 247 45
20 9 2 2 4 7 236 58 247 248 60
21 9 2 2 4 8 238 43 249 250 44
22 9 2 2 4 55 238 8 251 249 57
23 9 2 2 4 237 239 31 252 243 241
24 9 2 2 4 43 238 236 250 253 246
25 9 2 2 4 55 239 238 245 254 251
26 9 2 2 4 236 237 58 255 242 248
27 9 2 2 4 236 238 237 253 256 255
28 9 2 2 4 238 239 237 254 252 256
29 16 2 1 26 9 61 299 70 62 300 301 72
30 16 2 1 26 70 299 67 12 301 302 69 71
31 16 2 1 26 61 10 64 299 63 65 303 300
32 16 2 1 26 299 64 11 67 303 66 68 302
33 16 2 1 28 9 61 304 85 62 305 306 86
34 16 2 1 28 85 304 73 13 306 307 74 87
35 16 2 1 28 61 10 88 304 63 89 308 305
36 16 2 1 28 304 88 14 73 308 90 75 307
37 16 2 1 30 10 64 309 88 65 310 311 89
38 16 2 1 30 88 309 76 14 311 312 77 90
39 16 2 1 30 64 11 91 309 66 92 313 310
40 16 2 1 30 309 91 15 76 313 93 78 312
41 16 2 1 32 11 67 314 91 68 315 316 92
42 16 2 1 32 91 314 79 15 316 317 80 93
43 16 2 1 32 67 12 94 314 69 95 318 315
44 16 2 1 32 314 94 16 79 318 96 81 317
45 16 2 1 34 12 70 319 94 71 320 321 95
46 16 2 1 34 94 319 82 16 321 322 83 96
47 16 2 1 34 70 9 85 319 72 86 323 320
48 16 2 1 34 319 85 13 82 323 87 84 322
49 16 2 2 39 17 126 360 107 128 361 362 108
50 16 2 2 39 126 20 123 360 127 125 363 361
51 16 2 2 39 107 360 115 18 362 364 116 109
52 16 2 2 39 360 123 19 115 363 124 117 364
53 16 2 2 43 17 107 392 145 108 393 394 146
54 16 2 2 43 145 392 142 22 394 395 143 147
55 16 2 2 43 107 18 134 392 109 135 396 393
56 16 2 2 43 392 134 21 142 396 136 144 395
57 16 2 2 46 18 115 415 134 116 416 417 135
58 16 2 2 46 134 415 156 21 417 418 157 136
59 16 2 2 46 115 19 153 415 117 154 419 416
60 16 2 2 46 415 153 23 156 419 155 158 418
61 16 2 2 49 19 123 438 153 124 439 440 154
62 16 2 2 49 153 438 167 23 440 441 168 155
63 16 2 2 49 123 20 164 438 125 165 442 439
64 16 2 2 49 438 164 24 167 442 166 169 441
65 16 2 2 51 20 126 452 164 127 453 454 165
66 16 2 2 51 164 452 170 24 454 455 171 166
67 16 2 2 51 126 17 145 452 128 146 456 453
68 16 2 2 51 452 145 22 170 456 147 172 455
69 11 2 3 1 236 194 278 457 458 459 460 461 462 463
70 11 2 3 1 236 196 194 457 464 212 458 461 463 465
71 11 2 3 1 236 278 237 457 460 466 255 461 467 462
72 11 2 3 1 236 238 196 457 253 468 464 461 465 469
73 11 2 3 1 237 278 279 457 466 297 470 467 471 462
74 11 2 3 1 237 238 236 457 256 253 255 467 461 469
75 11 2 3 1 194 196 195 457 212 214 211 463 472 465
76 11 2 3 1 279 278 280 457 297 295 298 471 473 462
77 11 2 3 1 238 257 196 457 474 475 468 469 465 476
78 11 2 3 1 280 195 215 457 477 478 479 473 480 472
79 11 2 3 1 173 237 279 457 481 470 482 483 471 467
80 11 2 3 1 257 259 196 457 274 484 475 476 465 485
81 11 2 3 1 236 196 43 194 464 207 246 458 206 212
82 11 2 3 1 278 40 280 194 292 288 295 459 486 204
83 11 2 3 1 196 259 197 457 484 487 213 465 488 485
84 11 2 3 1 237 173 175 457 481 191 489 467 490 483
85 11 2 3 1 195 217 215 457 491 232 478 472 480 492
86 11 2 3 1 238 258 257 457 493 276 474 469 476 494
87 11 2 3 1 216 280 215 457 495 479 234 496 480 473
88 11 2 3 1 237 58 278 236 242 293 466 255 460 248
89 11 2 3 1 281 280 216 457 296 495 497 498 496 473
90 11 2 3 1 258 238 239 457 493 254 499 494 500 469
91 11 2 3 1 173 279 174 457 482 501 190 483 502 471
92 11 2 3 1 239 237 175 457 252 489 503 500 490 467
93 11 2 3 1 197 217 195 457 504 491 210 488 472 492
94 11 2 3 1 195 196 197 457 214 213 210 472 488 465
95 11 2 3 1 239 238 237 457 254 256 252 500 467 469
96 11 2 3 1 281 279 280 457 294 298 296 498 473 471
97 11 2 3 1 218 49 260 457 224 263 505 506 507 508
98 11 2 3 1 34 176 260 258 182 509 261 265 273 510
99 11 2 3 1 25 218 176 174 223 511 180 178 189 512
100 11 2 3 1 279 281 174 457 294 513 501 471 502 498
101 11 2 3 1 258 176 260 457 510 509 273 494 507 514
102 11 2 3 1 218 176 174 457 511 189 512 506 502 514
103 11 2 3 1 259 217 197 457 515 504 487 485 488 492
104 11 2 3 1 196 236 43 238 464 246 207 468 250 253
105 11 2 3 1 258 239 175 457 499 503 516 494 490 500
106 11 2 3 1 40 195 280 194 200 477 288 204 486 211
107 11 2 3 1 174 281 216 457 513 497 517 502 496 498
108 11 2 3 1 49 259 260 457 269 275 263 508 507 485
109 11 2 3 1 218 217 49 457 233 230 224 506 508 492
110 11 2 3 1 237 58 279 278 242 287 470 466 297 293
111 11 2 3 1 215 217 216 457 232 235 234 480 496 492
112 11 2 3 1 173 174 175 457 190 193 191 483 490 502
113 11 2 3 1 257 258 259 457 276 277 274 476 485 494
114 11 2 3 1 258 34 176 175 265 182 510 516 192 188
115 11 2 3 1 218 260 176 457 505 509 511 506 514 507
116 11 2 3 1 196 257 46 259 475 270 209 484 268 274
117 11 2 3 1 176 258 175 457 510 516 192 514 490 494
118 11 2 3 1 216 174 1 281 517 177 220 497 282 513
119 11 2 3 1 197 196 46 259 213 209 203 487 268 484
120 11 2 3 1 173 237 3 279 481 240 183 482 286 470
121 11 2 3 1 25 218 174 216 223 512 178 219 517 231
122 11 2 3 1 281 52 216 280 284 221 497 296 495 290
123 11 2 3 1 258 239 238 55 499 254 493 266 251 245
124 11 2 3 1 217 259 197 6 515 487 504 229 201 267
125 11 2 3 1 55 238 258 257 251 493 266 272 276 474
126 11 2 3 1 280 52 216 215 290 221 495 479 234 227
127 11 2 3 1 175 173 237 31 191 481 489 187 241 185
128 11 2 3 1 195 215 217 37 478 232 491 198 228 226
129 11 2 3 1 239 4 258 175 244 264 499 503 516 186
130 11 2 3 1 196 238 8 257 468 249 208 475 271 474
131 11 2 3 1 280 215 195 5 479 478 477 289 199 225
132 11 2 3 1 218 174 216 457 512 517 231 506 496 502
133 11 2 3 1 173 279 28 174 482 285 184 190 179 501
134 11 2 3 1 237 239 175 31 252 503 489 241 187 243
135 11 2 3 1 217 197 195 37 504 210 491 228 198 202
136 11 2 3 1 174 279 28 281 501 285 179 513 283 294
137 11 2 3 1 49 217 259 457 230 515 269 508 485 492
138 11 2 3 1 58 3 237 279 59 240 242 287 470 286
139 11 2 3 1 174 1 25 216 177 27 178 517 219 220
140 11 2 3 1 49 259 217 6 269 515 230 51 229 267
141 11 2 3 1 34 258 4 175 265 264 36 188 186 516
142 11 2 3 1 5 195 280 40 199 477 289 41 288 200
143 11 2 3 1 196 238 43 8 468 250 207 208 44 249
144 11 2 3 1 260 2 218 176 262 222 505 509 511 181
145 11 2 3 1 52 216 1 281 221 220 53 284 282 497
146 11 2 3 1 258 4 239 55 264 244 499 266 245 56
147 11 2 3 1 28 1 174 281 29 177 179 283 513 282
148 11 2 3 1 55 8 238 257 57 249 251 272 474 271
149 11 2 3 1 257 8 196 46 271 208 475 270 209 48
150 11 2 3 1 279 3 173 28 286 183 482 285 184 30
151 11 2 3 1 173 237 31 3 481 241 185 183 33 240
152 11 2 3 1 215 195 5 37 478 199 225 226 39 198
153 11 2 3 1 46 197 259 6 203 487 268 47 267 201
154 11 2 3 1 37 217 197 6 228 504 202 38 201 229
155 11 2 3 1 2 25 218 176 26 223 222 181 511 180
156 11 2 3 1 176 260 2 34 509 262 181 182 35 261
157 11 2 3 1 2 218 49 260 222 224 50 262 263 505
158 11 2 3 1 215 280 52 5 479 290 227 225 54 289
159 11 2 3 1 175 239 4 31 503 244 186 187 32 243
160 11 2 3 1 7 278 58 236 291 293 60 247 248 460
161 11 2 3 1 40 278 7 194 292 291 42 204 205 459
162 11 2 3 1 194 236 7 43 458 247 205 206 45 246
163 11 2 3 1 176 175 174 457 192 193 189 514 502 490
164 11 2 3 1 260 259 258 457 275 277 273 507 494 485
165 11 2 3 1 216 217 218 457 235 233 231 496 506 492
166 11 2 3 1 236 7 278 194 247 291 460 458 459 205
167 11 2 3 1 280 194 457 278 486 463 473 295 462 459
168 11 2 3 1 457 194 280 195 463 486 473 472 477 211
169 17 2 4 2 299 61 9 70 518 324 97 351 300 301 520 62 327 72 99 354 521 522 326 358
170 17 2 4 2 518 324 97 351 519 325 98 352 521 522 523 326 329 358 100 356 524 525 328 359
171 17 2 4 2 519 325 98 352 360 107 17 126 524 525 526 328 330 359 101 357 362 361 108 128
172 17 2 4 2 67 299 70 12 342 518 351 118 302 69 345 301 520 71 354 120 527 349 522 353
173 17 2 4 2 342 518 351 118 343 519 352 119 527 349 347 522 523 353 356 121 528 350 525 355
174 17 2 4 2 343 519 352 119 123 360 126 20 528 350 348 525 526 355 357 122 363 125 361 127
175 17 2 4 2 64 10 61 299 333 102 324 518 65 303 336 63 104 300 327 520 335 529 331 521
176 17 2 4 2 333 102 324 518 334 103 325 519 335 529 338 331 105 521 329 523 337 530 332 524
177 17 2 4 2 334 103 325 519 115 18 107 360 337 530 339 332 106 524 330 526 116 364 109 362
178 17 2 4 2 11 64 299 67 110 333 518 342 66 68 112 303 336 302 520 345 340 344 529 527
179 17 2 4 2 110 333 518 342 111 334 519 343 340 344 113 529 338 527 523 347 341 346 530 528
180 17 2 4 2 111 334 519 343 19 115 360 123 341 346 114 530 339 528 526 348 117 124 364 363
181 17 2 4 3 9 61 304 85 97 324 531 383 62 86 99 305 327 306 533 386 326 385 534 535
182 17 2 4 3 97 324 531 383 98 325 532 384 326 385 100 534 329 535 536 388 328 387 537 538
183 17 2 4 3 98 325 532 384 17 107 392 145 328 387 101 537 330 538 539 389 108 146 393 394
184 17 2 4 3 85 304 73 13 383 531 374 137 306 87 386 307 533 74 377 139 535 390 540 376
185 17 2 4 3 383 531 374 137 384 532 375 138 535 390 388 540 536 376 379 140 538 391 541 378
186 17 2 4 3 384 532 375 138 145 392 142 22 538 391 389 541 539 378 380 141 394 147 395 143
187 17 2 4 3 61 10 88 304 324 102 365 531 63 305 327 89 104 308 367 533 331 534 368 542
188 17 2 4 3 324 102 365 531 325 103 366 532 331 534 329 368 105 542 369 536 332 537 370 543
189 17 2 4 3 325 103 366 532 107 18 134 392 332 537 330 370 106 543 371 539 109 393 135 396
190 17 2 4 3 304 88 14 73 531 365 129 374 308 307 533 90 367 75 131 377 542 540 372 381
191 17 2 4 3 531 365 129 374 532 366 130 375 542 540 536 372 369 381 132 379 543 541 373 382
192 17 2 4 3 532 366 130 375 392 134 21 142 543 541 539 373 371 382 133 380 396 395 136 144
193 17 2 4 4 10 64 309 88 102 333 544 365 65 89 104 310 336 311 546 367 335 368 547 548
194 17 2 4 4 102 333 544 365 103 334 545 366 335 368 105 547 338 548 549 369 337 370 550 551
195 17 2 4 4 103 334 545 366 18 115 415 134 337 370 106 550 339 551 552 371 116 135 416 417
196 17 2 4 4 88 309 76 14 365 544 406 129 311 90 367 312 546 77 409 131 548 372 553 408
197 17 2 4 4 365 544 406 129 366 545 407 130 548 372 369 553 549 408 411 132 551 373 554 410
198 17 2 4 4 366 545 407 130 134 415 156 21 551 373 371 554 552 410 412 133 417 136 418 157
199 17 2 4 4 64 11 91 309 333 110 397 544 66 310 336 92 112 313 399 546 340 547 400 555
200 17 2 4 4 333 110 397 544 334 111 398 545 340 547 338 400 113 555 401 549 341 550 402 556
201 17 2 4 4 334 111 398 545 115 19 153 415 341 550 339 402 114 556 403 552 117 416 154 419
202 17 2 4 4 309 91 15 76 544 397 148 406 313 312 546 93 399 78 150 409 555 553 404 413
203 17 2 4 4 544 397 148 406 545 398 149 407 555 553 549 404 401 413 151 411 556 554 405 414
204 17 2 4 4 545 398 149 407 415 153 23 156 556 554 552 405 403 414 152 412 419 418 155 158
205 17 2 4 5 11 67 314 91 110 342 557 397 68 92 112 315 345 316 559 399 344 400 560 561
206 17 2 4 5 110 342 557 397 111 343 558 398 344 400 113 560 347 561 562 401 346 402 563 564
207 17 2 4 5 111 343 558 398 19 123 438 153 346 402 114 563 348 564 565 403 124 154 439 440
208 17 2 4 5 91 314 79 15 397 557 429 148 316 93 399 317 559 80 432 150 561 404 566 431
209 17 2 4 5 397 557 429 148 398 558 430 149 561 404 401 566 562 431 434 151 564 405 567 433
210 17 2 4 5 398 558 430 149 153 438 167 23 564 405 403 567 565 433 435 152 440 155 441 168
211 17 2 4 5 67 12 94 314 342 118 420 557 69 315 345 95 120 318 422 559 349 560 423 568
212 17 2 4 5 342 118 420 557 343 119 421 558 349 560 347 423 121 568 424 562 350 563 425 569
213 17 2 4 5 343 119 421 558 123 20 164 438 350 563 348 425 122 569 426 565 125 439 165 442
214 17 2 4 5 314 94 16 79 557 420 159 429 318 317 559 96 422 81 161 432 568 566 427 436
215 17 2 4 5 557 420 159 429 558 421 160 430 568 566 562 427 424 436 162 434 569 567 428 437
216 17 2 4 5 558 421 160 430 438 164 24 167 569 567 565 428 426 437 163 435 442 441 166 169
217 17 2 4 6 12 70 319 94 118 351 570 420 71 95 120 320 354 321 572 422 353 423 573 574
218 17 2 4 6 118 351 570 420 119 352 571 421 353 423 121 573 356 574 575 424 355 425 576 577
219 17 2 4 6 119 352 571 421 20 126 452 164 355 425 122 576 357 577 578 426 127 165 453 454
220 17 2 4 6 94 319 82 16 420 570 443 159 321 96 422 322 572 83 446 161 574 427 579 445
221 17 2 4 6 420 570 443 159 421 571 444 160 574 427 424 579 575 445 448 162 577 428 580 447
222 17 2 4 6 421 571 444 160 164 452 170 24 577 428 426 580 578 447 449 163 454 166 455 171
223 17 2 4 6 70 9 85 319 351 97 383 570 72 320 354 86 99 323 386 572 358 573 385 581
224 17 2 4 6 351 97 383 570 352 98 384 571 358 573 356 385 100 581 388 575 359 576 387 582
225 17 2 4 6 352 98 384 571 126 17 145 452 359 576 357 387 101 582 389 578 128 453 146 456
226 17 2 4 6 319 85 13 82 570 383 137 443 323 322 572 87 386 84 139 446 581 579 390 450
227 17 2 4 6 570 383 137 443 571 384 138 444 581 579 575 390 388 450 140 448 582 580 391 451
228 17 2 4 6 571 384 138 444 452 145 22 170 582 580 578 391 389 451 141 449 456 455 147 172
$EndElements
