$MeshFormat
2.2 0 8
$EndMeshFormat
$PhysicalNames
4
2 1 "bc-bot"
2 2 "bc-top"
3 3 "cube"
3 4 "cylinder"
$EndPhysicalNames
$Nodes
145
1 0 0 0.01
2 0 0 0
3 0 0.01 0.01
4 0 0.01 0
5 0.01 0 0.01
6 0.01 0 0
7 0.01 0.01 0.01
8 0.01 0.01 0
9 0.01425 0 0.00325
10 0.01775 0 0.00325
11 0.01775 0 0.00675
12 0.01425 0 0.00675
13 0.01246446609406726 0 0.001464466094067263
14 0.01953553390593274 0 0.001464466094067263
15 0.01953553390593274 0 0.008535533905932736
16 0.01246446609406726 0 0.008535533905932736
17 0.01425 0.012 0.00325
18 0.01775 0.012 0.00325
19 0.01775 0.012 0.00675
20 0.01425 0.012 0.00675
21 0.01953553390593274 0.012 0.001464466094067263
22 0.01246446609406726 0.012 0.001464466094067263
23 0.01953553390593274 0.012 0.008535533905932736
24 0.01246446609406726 0.012 0.008535533905932736
25 0 0 0.004999999999999986
26 0 0.004999999999999986 0.01
27 0 0.01 0.004999999999999986
28 0 0.004999999999999986 0
29 0.01 0 0.004999999999999986
30 0.01 0.004999999999999986 0.01
31 0.01 0.01 0.004999999999999986
32 0.01 0.004999999999999986 0
33 0.004999999999999986 0 0
34 0.004999999999999986 0 0.01
35 0.004999999999999986 0.01 0
36 0.004999999999999986 0.01 0.01
37 0.016 0 0.00325
38 0.01775 0 0.005
39 0.016 0 0.00675
40 0.01425 0 0.005
41 0.016 0 8.673617379884035e-19
42 0.021 0 0.004999999999999995
43 0.01600000000000001 0 0.01
44 0.011 0 0.005000000000000002
45 0.01335723304703363 0 0.002357233047033632
46 0.01864276695296637 0 0.002357233047033632
47 0.01864276695296637 0 0.007642766952966368
48 0.01335723304703363 0 0.007642766952966368
49 0.01425 0.004 0.00325
50 0.01425 0.008 0.00325
51 0.01775 0.004 0.00325
52 0.01775 0.008 0.00325
53 0.016 0.012 0.00325
54 0.01775 0.004 0.00675
55 0.01775 0.008 0.00675
56 0.01775 0.012 0.005
57 0.01425 0.004 0.00675
58 0.01425 0.008 0.00675
59 0.016 0.012 0.00675
60 0.01425 0.012 0.005
61 0.01953553390593274 0.004 0.001464466094067263
62 0.01953553390593274 0.008 0.001464466094067263
63 0.01864276695296637 0.012 0.002357233047033632
64 0.01246446609406726 0.004 0.001464466094067263
65 0.01246446609406726 0.008 0.001464466094067263
66 0.016 0.012 8.673617379884035e-19
67 0.01335723304703363 0.012 0.002357233047033632
68 0.01953553390593274 0.004 0.008535533905932736
69 0.01953553390593274 0.008 0.008535533905932736
70 0.01864276695296637 0.012 0.007642766952966368
71 0.021 0.012 0.004999999999999995
72 0.01246446609406726 0.004 0.008535533905932736
73 0.01246446609406726 0.008 0.008535533905932736
74 0.01335723304703363 0.012 0.007642766952966368
75 0.01600000000000001 0.012 0.01
76 0.011 0.012 0.005000000000000002
77 0 0.007386115160349848 0.007386115160349848
78 0 0.003749999999999991 0.006249999999999999
79 0 0.006491435860058303 0.003574769193391639
80 0 0.002812500000000004 0.002812500000000004
81 0.01 0.007386115160349848 0.007386115160349848
82 0.01 0.003749999999999991 0.006249999999999999
83 0.01 0.006491435860058303 0.003574769193391639
84 0.01 0.002812500000000004 0.002812500000000004
85 0.007386115160349848 0 0.007386115160349848
86 0.003749999999999991 0 0.00625
87 0.006491435860058304 0 0.003574769193391639
88 0.002812500000000005 0 0.002812500000000005
89 0.007386115160349848 0.01 0.007386115160349848
90 0.003749999999999991 0.01 0.00625
91 0.006491435860058304 0.01 0.003574769193391639
92 0.002812500000000005 0.01 0.002812500000000005
93 0.007386115160349848 0.007386115160349848 0
94 0.003749999999999991 0.006249999999999999 0
95 0.006491435860058303 0.003574769193391639 0
96 0.002812500000000004 0.002812500000000004 0
97 0.007386115160349848 0.007386115160349848 0.01
98 0.003749999999999991 0.006249999999999999 0.01
99 0.006491435860058303 0.003574769193391639 0.01
100 0.002812500000000004 0.002812500000000004 0.01
101 0.016 0 0.005
102 0.016 0 0.001625
103 0.019375 0 0.004999999999999998
104 0.016 0 0.008375
105 0.012625 0 0.004999999999999999
106 0.016 0.004 0.00325
107 0.016 0.008 0.00325
108 0.01775 0.004 0.005
109 0.01775 0.008 0.005
110 0.016 0.004 0.00675
111 0.016 0.008 0.00675
112 0.01425 0.004 0.005
113 0.01425 0.008 0.005
114 0.016 0.012 0.005
115 0.01864276695296637 0.004 0.002357233047033632
116 0.01864276695296637 0.008 0.002357233047033632
117 0.016 0.004 8.673617379884035e-19
118 0.016 0.008 8.673617379884035e-19
119 0.01335723304703363 0.004 0.002357233047033632
120 0.01335723304703363 0.008 0.002357233047033632
121 0.016 0.012 0.001625
122 0.01864276695296637 0.004 0.007642766952966368
123 0.01864276695296637 0.008 0.007642766952966368
124 0.021 0.004 0.004999999999999995
125 0.021 0.008 0.004999999999999995
126 0.019375 0.012 0.004999999999999998
127 0.01335723304703363 0.004 0.007642766952966368
128 0.01335723304703363 0.008 0.007642766952966368
129 0.01600000000000001 0.004 0.01
130 0.01600000000000001 0.008 0.01
131 0.016 0.012 0.008375
132 0.011 0.004 0.005000000000000002
133 0.011 0.008 0.005000000000000002
134 0.012625 0.012 0.004999999999999999
135 0.004263392857142861 0.004263392857142862 0.004263392857142861
136 0.016 0.004 0.005
137 0.016 0.008 0.005
138 0.016 0.004 0.001625
139 0.016 0.008 0.001625
140 0.019375 0.004 0.004999999999999998
141 0.019375 0.008 0.004999999999999998
142 0.016 0.004 0.008375
143 0.016 0.008 0.008375
144 0.012625 0.004 0.004999999999999999
145 0.012625 0.008 0.004999999999999999
$EndNodes
$Elements
228
1 2 2 1 3 1 25 86
2 2 2 1 3 34 1 86
3 2 2 1 3 25 2 88
4 2 2 1 3 2 33 88
5 2 2 1 3 29 5 85
6 2 2 1 3 5 34 85
7 2 2 1 3 6 29 87
8 2 2 1 3 33 6 87
9 2 2 1 3 86 25 88
10 2 2 1 3 29 85 87
11 2 2 1 3 33 87 88
12 2 2 1 3 85 34 86
13 2 2 1 3 85 86 87
14 2 2 1 3 87 86 88
15 2 2 2 4 3 90 27
16 2 2 2 4 36 90 3
17 2 2 2 4 27 92 4
18 2 2 2 4 4 92 35
19 2 2 2 4 31 89 7
20 2 2 2 4 7 89 36
21 2 2 2 4 8 91 31
22 2 2 2 4 35 91 8
23 2 2 2 4 90 92 27
24 2 2 2 4 31 91 89
25 2 2 2 4 35 92 91
26 2 2 2 4 89 90 36
27 2 2 2 4 89 91 90
28 2 2 2 4 91 92 90
29 3 2 1 26 9 37 101 40
30 3 2 1 26 40 101 39 12
31 3 2 1 26 37 10 38 101
32 3 2 1 26 101 38 11 39
33 3 2 1 28 9 37 102 45
34 3 2 1 28 45 102 41 13
35 3 2 1 28 37 10 46 102
36 3 2 1 28 102 46 14 41
37 3 2 1 30 10 38 103 46
38 3 2 1 30 46 103 42 14
39 3 2 1 30 38 11 47 103
40 3 2 1 30 103 47 15 42
41 3 2 1 32 11 39 104 47
42 3 2 1 32 47 104 43 15
43 3 2 1 32 39 12 48 104
44 3 2 1 32 104 48 16 43
45 3 2 1 34 12 40 105 48
46 3 2 1 34 48 105 44 16
47 3 2 1 34 40 9 45 105
48 3 2 1 34 105 45 13 44
49 3 2 2 39 17 60 114 53
50 3 2 2 39 60 20 59 114
51 3 2 2 39 53 114 56 18
52 3 2 2 39 114 59 19 56
53 3 2 2 43 17 53 121 67
54 3 2 2 43 67 121 66 22
55 3 2 2 43 53 18 63 121
56 3 2 2 43 121 63 21 66
57 3 2 2 46 18 56 126 63
58 3 2 2 46 63 126 71 21
59 3 2 2 46 56 19 70 126
60 3 2 2 46 126 70 23 71
61 3 2 2 49 19 59 131 70
62 3 2 2 49 70 131 75 23
63 3 2 2 49 59 20 74 131
64 3 2 2 49 131 74 24 75
65 3 2 2 51 20 60 134 74
66 3 2 2 51 74 134 76 24
67 3 2 2 51 60 17 67 134
68 3 2 2 51 134 67 22 76
69 4 2 3 1 89 81 97 135
70 4 2 3 1 89 83 81 135
71 4 2 3 1 89 97 90 135
72 4 2 3 1 89 91 83 135
73 4 2 3 1 90 97 98 135
74 4 2 3 1 90 91 89 135
75 4 2 3 1 81 83 82 135
76 4 2 3 1 98 97 99 135
77 4 2 3 1 91 93 83 135
78 4 2 3 1 99 82 85 135
79 4 2 3 1 77 90 98 135
80 4 2 3 1 93 95 83 135
81 4 2 3 1 89 83 31 81
82 4 2 3 1 97 30 99 81
83 4 2 3 1 83 95 84 135
84 4 2 3 1 90 77 79 135
85 4 2 3 1 82 87 85 135
86 4 2 3 1 91 94 93 135
87 4 2 3 1 86 99 85 135
88 4 2 3 1 90 36 97 89
89 4 2 3 1 100 99 86 135
90 4 2 3 1 94 91 92 135
91 4 2 3 1 77 98 78 135
92 4 2 3 1 92 90 79 135
93 4 2 3 1 84 87 82 135
94 4 2 3 1 82 83 84 135
95 4 2 3 1 92 91 90 135
96 4 2 3 1 100 98 99 135
97 4 2 3 1 88 33 96 135
98 4 2 3 1 28 80 96 94
99 4 2 3 1 25 88 80 78
100 4 2 3 1 98 100 78 135
101 4 2 3 1 94 80 96 135
102 4 2 3 1 88 80 78 135
103 4 2 3 1 95 87 84 135
104 4 2 3 1 83 89 31 91
105 4 2 3 1 94 92 79 135
106 4 2 3 1 30 82 99 81
107 4 2 3 1 78 100 86 135
108 4 2 3 1 33 95 96 135
109 4 2 3 1 88 87 33 135
110 4 2 3 1 90 36 98 97
111 4 2 3 1 85 87 86 135
112 4 2 3 1 77 78 79 135
113 4 2 3 1 93 94 95 135
114 4 2 3 1 94 28 80 79
115 4 2 3 1 88 96 80 135
116 4 2 3 1 83 93 32 95
117 4 2 3 1 80 94 79 135
118 4 2 3 1 86 78 1 100
119 4 2 3 1 84 83 32 95
120 4 2 3 1 77 90 3 98
121 4 2 3 1 25 88 78 86
122 4 2 3 1 100 34 86 99
123 4 2 3 1 94 92 91 35
124 4 2 3 1 87 95 84 6
125 4 2 3 1 35 91 94 93
126 4 2 3 1 99 34 86 85
127 4 2 3 1 79 77 90 27
128 4 2 3 1 82 85 87 29
129 4 2 3 1 92 4 94 79
130 4 2 3 1 83 91 8 93
131 4 2 3 1 99 85 82 5
132 4 2 3 1 88 78 86 135
133 4 2 3 1 77 98 26 78
134 4 2 3 1 90 92 79 27
135 4 2 3 1 87 84 82 29
136 4 2 3 1 78 98 26 100
137 4 2 3 1 33 87 95 135
138 4 2 3 1 36 3 90 98
139 4 2 3 1 78 1 25 86
140 4 2 3 1 33 95 87 6
141 4 2 3 1 28 94 4 79
142 4 2 3 1 5 82 99 30
143 4 2 3 1 83 91 31 8
144 4 2 3 1 96 2 88 80
145 4 2 3 1 34 86 1 100
146 4 2 3 1 94 4 92 35
147 4 2 3 1 26 1 78 100
148 4 2 3 1 35 8 91 93
149 4 2 3 1 93 8 83 32
150 4 2 3 1 98 3 77 26
151 4 2 3 1 77 90 27 3
152 4 2 3 1 85 82 5 29
153 4 2 3 1 32 84 95 6
154 4 2 3 1 29 87 84 6
155 4 2 3 1 2 25 88 80
156 4 2 3 1 80 96 2 28
157 4 2 3 1 2 88 33 96
158 4 2 3 1 85 99 34 5
159 4 2 3 1 79 92 4 27
160 4 2 3 1 7 97 36 89
161 4 2 3 1 30 97 7 81
162 4 2 3 1 81 89 7 31
163 4 2 3 1 80 79 78 135
164 4 2 3 1 96 95 94 135
165 4 2 3 1 86 87 88 135
166 4 2 3 1 89 7 97 81
167 4 2 3 1 99 81 135 97
168 4 2 3 1 135 81 99 82
169 5 2 4 2 101 37 9 40 136 106 49 112
170 5 2 4 2 136 106 49 112 137 107 50 113
171 5 2 4 2 137 107 50 113 114 53 17 60
172 5 2 4 2 39 101 40 12 110 136 112 57
173 5 2 4 2 110 136 112 57 111 137 113 58
174 5 2 4 2 111 137 113 58 59 114 60 20
175 5 2 4 2 38 10 37 101 108 51 106 136
176 5 2 4 2 108 51 106 136 109 52 107 137
177 5 2 4 2 109 52 107 137 56 18 53 114
178 5 2 4 2 11 38 101 39 54 108 136 110
179 5 2 4 2 54 108 136 110 55 109 137 111
180 5 2 4 2 55 109 137 111 19 56 114 59
181 5 2 4 3 9 37 102 45 49 106 138 119
182 5 2 4 3 49 106 138 119 50 107 139 120
183 5 2 4 3 50 107 139 120 17 53 121 67
184 5 2 4 3 45 102 41 13 119 138 117 64
185 5 2 4 3 119 138 117 64 120 139 118 65
186 5 2 4 3 120 139 118 65 67 121 66 22
187 5 2 4 3 37 10 46 102 106 51 115 138
188 5 2 4 3 106 51 115 138 107 52 116 139
189 5 2 4 3 107 52 116 139 53 18 63 121
190 5 2 4 3 102 46 14 41 138 115 61 117
191 5 2 4 3 138 115 61 117 139 116 62 118
192 5 2 4 3 139 116 62 118 121 63 21 66
193 5 2 4 4 10 38 103 46 51 108 140 115
194 5 2 4 4 51 108 140 115 52 109 141 116
195 5 2 4 4 52 109 141 116 18 56 126 63
196 5 2 4 4 46 103 42 14 115 140 124 61
197 5 2 4 4 115 140 124 61 116 141 125 62
198 5 2 4 4 116 141 125 62 63 126 71 21
199 5 2 4 4 38 11 47 103 108 54 122 140
200 5 2 4 4 108 54 122 140 109 55 123 141
201 5 2 4 4 109 55 123 141 56 19 70 126
202 5 2 4 4 103 47 15 42 140 122 68 124
203 5 2 4 4 140 122 68 124 141 123 69 125
204 5 2 4 4 141 123 69 125 126 70 23 71
205 5 2 4 5 11 39 104 47 54 110 142 122
206 5 2 4 5 54 110 142 122 55 111 143 123
207 5 2 4 5 55 111 143 123 19 59 131 70
208 5 2 4 5 47 104 43 15 122 142 129 68
209 5 2 4 5 122 142 129 68 123 143 130 69
210 5 2 4 5 123 143 130 69 70 131 75 23
211 5 2 4 5 39 12 48 104 110 57 127 142
212 5 2 4 5 110 57 127 142 111 58 128 143
213 5 2 4 5 111 58 128 143 59 20 74 131
214 5 2 4 5 104 48 16 43 142 127 72 129
215 5 2 4 5 142 127 72 129 143 128 73 130
216 5 2 4 5 143 128 73 130 131 74 24 75
217 5 2 4 6 12 40 105 48 57 112 144 127
218 5 2 4 6 57 112 144 127 58 113 145 128
219 5 2 4 6 58 113 145 128 20 60 134 74
220 5 2 4 6 48 105 44 16 127 144 132 72
221 5 2 4 6 127 144 132 72 128 145 133 73
222 5 2 4 6 128 145 133 73 74 134 76 24
223 5 2 4 6 40 9 45 105 112 49 119 144
224 5 2 4 6 112 49 119 144 113 50 120 145
225 5 2 4 6 113 50 120 145 60 17 67 134
226 5 2 4 6 105 45 13 44 144 119 64 132
227 5 2 4 6 144 119 64 132 145 120 65 133
228 5 2 4 6 145 120 65 133 134 67 22 76
$EndElements
