$MeshFormat
2.2 0 8
$EndMeshFormat
$PhysicalNames
4
2 1 "bc-bot"
2 2 "bc-top"
3 3 "cube"
3 4 "cylinder"
$EndPhysicalNames
$Nodes
854
1 0 0 0.01
2 0 0 0
3 0 0.01 0.01
4 0 0.01 0
5 0.01 0 0.01
6 0.01 0 0
7 0.01 0.01 0.01
8 0.01 0.01 0
9 0.01425 0 0.00325
10 0.01775 0 0.00325
11 0.01775 0 0.00675
12 0.01425 0 0.00675
13 0.01246446609406726 0 0.001464466094067263
14 0.01953553390593274 0 0.001464466094067263
15 0.01953553390593274 0 0.008535533905932736
16 0.01246446609406726 0 0.008535533905932736
17 0.01425 0.012 0.00325
18 0.01775 0.012 0.00325
19 0.01775 0.012 0.00675
20 0.01425 0.012 0.00675
21 0.01953553390593274 0.012 0.001464466094067263
22 0.01246446609406726 0.012 0.001464466094067263
23 0.01953553390593274 0.012 0.008535533905932736
24 0.01246446609406726 0.012 0.008535533905932736
25 0 0 0.004999999999999986
26 0 0 0.002499999999999993
27 0 0 0.007499999999999994
28 0 0.004999999999999986 0.01
29 0 0.002499999999999993 0.01
30 0 0.007499999999999994 0.01
31 0 0.01 0.004999999999999986
32 0 0.01 0.002499999999999993
33 0 0.01 0.007499999999999994
34 0 0.004999999999999986 0
35 0 0.002499999999999993 0
36 0 0.007499999999999994 0
37 0.01 0 0.004999999999999986
38 0.01 0 0.002499999999999993
39 0.01 0 0.007499999999999994
40 0.01 0.004999999999999986 0.01
41 0.01 0.002499999999999993 0.01
42 0.01 0.007499999999999994 0.01
43 0.01 0.01 0.004999999999999986
44 0.01 0.01 0.002499999999999993
45 0.01 0.01 0.007499999999999994
46 0.01 0.004999999999999986 0
47 0.01 0.002499999999999993 0
48 0.01 0.007499999999999994 0
49 0.004999999999999986 0 0
50 0.002499999999999993 0 0
51 0.007499999999999994 0 0
52 0.004999999999999986 0 0.01
53 0.002499999999999993 0 0.01
54 0.007499999999999994 0 0.01
55 0.004999999999999986 0.01 0
56 0.002499999999999993 0.01 0
57 0.007499999999999994 0.01 0
58 0.004999999999999986 0.01 0.01
59 0.002499999999999993 0.01 0.01
60 0.007499999999999994 0.01 0.01
61 0.016 0 0.00325
62 0.015125 0 0.00325
63 0.016875 0 0.00325
64 0.01775 0 0.005
65 0.01775 0 0.004125
66 0.01775 0 0.005875
67 0.016 0 0.00675
68 0.016875 0 0.00675
69 0.015125 0 0.00675
70 0.01425 0 0.005
71 0.01425 0 0.005875
72 0.01425 0 0.004125
73 0.016 0 8.673617379884035e-19
74 0.01408658283817455 0 0.0003806023374435669
75 0.01791341716182545 0 0.0003806023374435686
76 0.021 0 0.004999999999999995
77 0.02061939766255643 0 0.003086582838174548
78 0.02061939766255644 0 0.006913417161825442
79 0.01600000000000001 0 0.01
80 0.01791341716182545 0 0.009619397662556432
81 0.01408658283817455 0 0.009619397662556435
82 0.011 0 0.005000000000000002
83 0.01138060233744357 0 0.006913417161825449
84 0.01138060233744357 0 0.003086582838174555
85 0.01335723304703363 0 0.002357233047033632
86 0.01380361652351682 0 0.002803616523516816
87 0.01291084957055045 0 0.001910849570550447
88 0.01864276695296637 0 0.002357233047033632
89 0.01819638347648319 0 0.002803616523516816
90 0.01908915042944955 0 0.001910849570550447
91 0.01864276695296637 0 0.007642766952966368
92 0.01819638347648319 0 0.007196383476483184
93 0.01908915042944955 0 0.008089150429449552
94 0.01335723304703363 0 0.007642766952966368
95 0.01380361652351682 0 0.007196383476483184
96 0.01291084957055045 0 0.008089150429449552
97 0.01425 0.004 0.00325
98 0.01425 0.008 0.00325
99 0.01425 0.002 0.00325
100 0.01425 0.006 0.00325
101 0.01425 0.01 0.00325
102 0.01775 0.004 0.00325
103 0.01775 0.008 0.00325
104 0.01775 0.002 0.00325
105 0.01775 0.006 0.00325
106 0.01775 0.01 0.00325
107 0.016 0.012 0.00325
108 0.015125 0.012 0.00325
109 0.016875 0.012 0.00325
110 0.01775 0.004 0.00675
111 0.01775 0.008 0.00675
112 0.01775 0.002 0.00675
113 0.01775 0.006 0.00675
114 0.01775 0.01 0.00675
115 0.01775 0.012 0.005
116 0.01775 0.012 0.004125
117 0.01775 0.012 0.005875
118 0.01425 0.004 0.00675
119 0.01425 0.008 0.00675
120 0.01425 0.002 0.00675
121 0.01425 0.006 0.00675
122 0.01425 0.01 0.00675
123 0.016 0.012 0.00675
124 0.016875 0.012 0.00675
125 0.015125 0.012 0.00675
126 0.01425 0.012 0.005
127 0.01425 0.012 0.005875
128 0.01425 0.012 0.004125
129 0.01953553390593274 0.004 0.001464466094067263
130 0.01953553390593274 0.008 0.001464466094067263
131 0.01953553390593274 0.002 0.001464466094067263
132 0.01953553390593274 0.006 0.001464466094067263
133 0.01953553390593274 0.01 0.001464466094067263
134 0.01864276695296637 0.012 0.002357233047033632
135 0.01819638347648319 0.012 0.002803616523516816
136 0.01908915042944955 0.012 0.001910849570550447
137 0.01246446609406726 0.004 0.001464466094067263
138 0.01246446609406726 0.008 0.001464466094067263
139 0.01246446609406726 0.002 0.001464466094067263
140 0.01246446609406726 0.006 0.001464466094067263
141 0.01246446609406726 0.01 0.001464466094067263
142 0.016 0.012 8.673617379884035e-19
143 0.01408658283817455 0.012 0.0003806023374435669
144 0.01791341716182545 0.012 0.0003806023374435686
145 0.01335723304703363 0.012 0.002357233047033632
146 0.01380361652351682 0.012 0.002803616523516816
147 0.01291084957055045 0.012 0.001910849570550447
148 0.01953553390593274 0.004 0.008535533905932736
149 0.01953553390593274 0.008 0.008535533905932736
150 0.01953553390593274 0.002 0.008535533905932736
151 0.01953553390593274 0.006 0.008535533905932736
152 0.01953553390593274 0.01 0.008535533905932736
153 0.01864276695296637 0.012 0.007642766952966368
154 0.01819638347648319 0.012 0.007196383476483184
155 0.01908915042944955 0.012 0.008089150429449552
156 0.021 0.012 0.004999999999999995
157 0.02061939766255643 0.012 0.003086582838174548
158 0.02061939766255644 0.012 0.006913417161825442
159 0.01246446609406726 0.004 0.008535533905932736
160 0.01246446609406726 0.008 0.008535533905932736
161 0.01246446609406726 0.002 0.008535533905932736
162 0.01246446609406726 0.006 0.008535533905932736
163 0.01246446609406726 0.01 0.008535533905932736
164 0.01335723304703363 0.012 0.007642766952966368
165 0.01380361652351682 0.012 0.007196383476483184
166 0.01291084957055045 0.012 0.008089150429449552
167 0.01600000000000001 0.012 0.01
168 0.01791341716182545 0.012 0.009619397662556432
169 0.01408658283817455 0.012 0.009619397662556435
170 0.011 0.012 0.005000000000000002
171 0.01138060233744357 0.012 0.006913417161825449
172 0.01138060233744357 0.012 0.003086582838174555
173 0 0.007386115160349848 0.007386115160349848
174 0 0.003749999999999991 0.006249999999999999
175 0 0.006491435860058303 0.003574769193391639
176 0 0.002812500000000004 0.002812500000000004
177 0 0.001874999999999996 0.008125
178 0 0.001874999999999996 0.005624999999999993
179 0 0.004374999999999988 0.008125
180 0 0.001406250000000002 0.003906249999999995
181 0 0.001406250000000002 0.001406250000000002
182 0 0.003906249999999995 0.001406250000000002
183 0 0.008693057580174924 0.008693057580174924
184 0 0.006193057580174917 0.008693057580174924
185 0 0.008693057580174924 0.006193057580174917
186 0 0.008245717930029152 0.001787384596695819
187 0 0.008245717930029152 0.004287384596695813
188 0 0.005745717930029145 0.001787384596695819
189 0 0.003281249999999998 0.004531250000000002
190 0 0.00556805758017492 0.006818057580174923
191 0 0.006938775510204075 0.005480442176870743
192 0 0.004651967930029154 0.003193634596695822
193 0 0.005120717930029148 0.004912384596695819
194 0.01 0.007386115160349848 0.007386115160349848
195 0.01 0.003749999999999991 0.006249999999999999
196 0.01 0.006491435860058303 0.003574769193391639
197 0.01 0.002812500000000004 0.002812500000000004
198 0.01 0.001874999999999996 0.005624999999999993
199 0.01 0.001874999999999996 0.008125
200 0.01 0.004374999999999988 0.008125
201 0.01 0.001406250000000002 0.001406250000000002
202 0.01 0.001406250000000002 0.003906249999999995
203 0.01 0.003906249999999995 0.001406250000000002
204 0.01 0.006193057580174917 0.008693057580174924
205 0.01 0.008693057580174924 0.008693057580174924
206 0.01 0.008693057580174924 0.006193057580174917
207 0.01 0.008245717930029152 0.004287384596695813
208 0.01 0.008245717930029152 0.001787384596695819
209 0.01 0.005745717930029145 0.001787384596695819
210 0.01 0.003281249999999998 0.004531250000000002
211 0.01 0.00556805758017492 0.006818057580174923
212 0.01 0.006938775510204075 0.005480442176870743
213 0.01 0.004651967930029154 0.003193634596695822
214 0.01 0.005120717930029148 0.004912384596695819
215 0.007386115160349848 0 0.007386115160349848
216 0.003749999999999991 0 0.00625
217 0.006491435860058304 0 0.003574769193391639
218 0.002812500000000005 0 0.002812500000000005
219 0.001874999999999996 0 0.005624999999999993
220 0.001874999999999996 0 0.008125
221 0.004374999999999988 0 0.008125
222 0.001406250000000002 0 0.001406250000000002
223 0.001406250000000002 0 0.003906249999999996
224 0.003906249999999996 0 0.001406250000000002
225 0.008693057580174924 0 0.008693057580174924
226 0.008693057580174924 0 0.006193057580174917
227 0.006193057580174917 0 0.008693057580174924
228 0.008245717930029152 0 0.004287384596695813
229 0.008245717930029152 0 0.001787384596695819
230 0.005745717930029145 0 0.001787384596695819
231 0.003281249999999998 0 0.004531250000000002
232 0.006938775510204076 0 0.005480442176870743
233 0.004651967930029154 0 0.003193634596695822
234 0.00556805758017492 0 0.006818057580174924
235 0.005120717930029148 0 0.00491238459669582
236 0.007386115160349848 0.01 0.007386115160349848
237 0.003749999999999991 0.01 0.00625
238 0.006491435860058304 0.01 0.003574769193391639
239 0.002812500000000005 0.01 0.002812500000000005
240 0.001874999999999996 0.01 0.008125
241 0.001874999999999996 0.01 0.005624999999999993
242 0.004374999999999988 0.01 0.008125
243 0.001406250000000002 0.01 0.003906249999999996
244 0.001406250000000002 0.01 0.001406250000000002
245 0.003906249999999996 0.01 0.001406250000000002
246 0.008693057580174924 0.01 0.006193057580174917
247 0.008693057580174924 0.01 0.008693057580174924
248 0.006193057580174917 0.01 0.008693057580174924
249 0.008245717930029152 0.01 0.001787384596695819
250 0.008245717930029152 0.01 0.004287384596695813
251 0.005745717930029145 0.01 0.001787384596695819
252 0.003281249999999998 0.01 0.004531250000000002
253 0.006938775510204076 0.01 0.005480442176870743
254 0.004651967930029154 0.01 0.003193634596695822
255 0.00556805758017492 0.01 0.006818057580174924
256 0.005120717930029148 0.01 0.00491238459669582
257 0.007386115160349848 0.007386115160349848 0
258 0.003749999999999991 0.006249999999999999 0
259 0.006491435860058303 0.003574769193391639 0
260 0.002812500000000004 0.002812500000000004 0
261 0.001406250000000002 0.003906249999999995 0
262 0.001406250000000002 0.001406250000000002 0
263 0.003906249999999995 0.001406250000000002 0
264 0.001874999999999996 0.008125 0
265 0.001874999999999996 0.005624999999999993 0
266 0.004374999999999988 0.008125 0
267 0.008245717930029152 0.001787384596695819 0
268 0.008245717930029152 0.004287384596695813 0
269 0.005745717930029145 0.001787384596695819 0
270 0.008693057580174924 0.006193057580174917 0
271 0.008693057580174924 0.008693057580174924 0
272 0.006193057580174917 0.008693057580174924 0
273 0.003281249999999998 0.004531250000000002 0
274 0.006938775510204075 0.005480442176870743 0
275 0.004651967930029154 0.003193634596695822 0
276 0.00556805758017492 0.006818057580174923 0
277 0.005120717930029148 0.004912384596695819 0
278 0.007386115160349848 0.007386115160349848 0.01
279 0.003749999999999991 0.006249999999999999 0.01
280 0.006491435860058303 0.003574769193391639 0.01
281 0.002812500000000004 0.002812500000000004 0.01
282 0.001406250000000002 0.001406250000000002 0.01
283 0.001406250000000002 0.003906249999999995 0.01
284 0.003906249999999995 0.001406250000000002 0.01
285 0.001874999999999996 0.005624999999999993 0.01
286 0.001874999999999996 0.008125 0.01
287 0.004374999999999988 0.008125 0.01
288 0.008245717930029152 0.004287384596695813 0.01
289 0.008245717930029152 0.001787384596695819 0.01
290 0.005745717930029145 0.001787384596695819 0.01
291 0.008693057580174924 0.008693057580174924 0.01
292 0.008693057580174924 0.006193057580174917 0.01
293 0.006193057580174917 0.008693057580174924 0.01
294 0.003281249999999998 0.004531250000000002 0.01
295 0.006938775510204075 0.005480442176870743 0.01
296 0.004651967930029154 0.003193634596695822 0.01
297 0.00556805758017492 0.006818057580174923 0.01
298 0.005120717930029148 0.004912384596695819 0.01
299 0.016 0 0.005
300 0.016 0 0.004125
301 0.015125 0 0.005
302 0.015125 0 0.004125
303 0.016 0 0.005875
304 0.015125 0 0.005875
305 0.016875 0 0.005
306 0.016875 0 0.004125
307 0.016875 0 0.005875
308 0.016 0 0.001625
309 0.016 0 0.0024375
310 0.01467861652351682 0 0.001991116523516816
311 0.01490180826175841 0 0.002620558261758408
312 0.016 0 0.0008125000000000007
313 0.01438259968084568 0 0.001185859430480191
314 0.01732138347648319 0 0.001991116523516816
315 0.0170981917382416 0 0.002620558261758408
316 0.01761740031915432 0 0.001185859430480191
317 0.019375 0 0.004999999999999998
318 0.0185625 0 0.004999999999999999
319 0.01900888347648319 0 0.003678616523516815
320 0.01837944173824159 0 0.003901808261758408
321 0.0201875 0 0.004999999999999997
322 0.01981414056951981 0 0.003382599680845682
323 0.01900888347648319 0 0.006321383476483184
324 0.01837944173824159 0 0.006098191738241592
325 0.01981414056951981 0 0.006617400319154313
326 0.016 0 0.008375
327 0.016 0 0.0075625
328 0.01732138347648319 0 0.008008883476483184
329 0.0170981917382416 0 0.007379441738241592
330 0.016 0 0.009187499999999999
331 0.01761740031915432 0 0.00881414056951981
332 0.01467861652351682 0 0.008008883476483184
333 0.01490180826175841 0 0.007379441738241592
334 0.01438259968084568 0 0.00881414056951981
335 0.012625 0 0.004999999999999999
336 0.0134375 0 0.005
337 0.01299111652351682 0 0.006321383476483184
338 0.01362055826175841 0 0.006098191738241592
339 0.0118125 0 0.005000000000000001
340 0.01218585943048019 0 0.006617400319154317
341 0.01299111652351682 0 0.003678616523516816
342 0.01362055826175841 0 0.003901808261758408
343 0.01218585943048019 0 0.003382599680845685
344 0.016 0.004 0.00325
345 0.016 0.008 0.00325
346 0.015125 0.004 0.00325
347 0.016 0.002 0.00325
348 0.015125 0.002 0.00325
349 0.015125 0.008 0.00325
350 0.016 0.006 0.00325
351 0.015125 0.006 0.00325
352 0.016 0.01 0.00325
353 0.015125 0.01 0.00325
354 0.016875 0.004 0.00325
355 0.016875 0.002 0.00325
356 0.016875 0.008 0.00325
357 0.016875 0.006 0.00325
358 0.016875 0.01 0.00325
359 0.01775 0.004 0.005
360 0.01775 0.008 0.005
361 0.01775 0.004 0.004125
362 0.01775 0.002 0.005
363 0.01775 0.002 0.004125
364 0.01775 0.008 0.004125
365 0.01775 0.006 0.005
366 0.01775 0.006 0.004125
367 0.01775 0.01 0.005
368 0.01775 0.01 0.004125
369 0.01775 0.004 0.005875
370 0.01775 0.002 0.005875
371 0.01775 0.008 0.005875
372 0.01775 0.006 0.005875
373 0.01775 0.01 0.005875
374 0.016 0.004 0.00675
375 0.016 0.008 0.00675
376 0.016875 0.004 0.00675
377 0.016 0.002 0.00675
378 0.016875 0.002 0.00675
379 0.016875 0.008 0.00675
380 0.016 0.006 0.00675
381 0.016875 0.006 0.00675
382 0.016 0.01 0.00675
383 0.016875 0.01 0.00675
384 0.015125 0.004 0.00675
385 0.015125 0.002 0.00675
386 0.015125 0.008 0.00675
387 0.015125 0.006 0.00675
388 0.015125 0.01 0.00675
389 0.01425 0.004 0.005
390 0.01425 0.008 0.005
391 0.01425 0.004 0.005875
392 0.01425 0.002 0.005
393 0.01425 0.002 0.005875
394 0.01425 0.008 0.005875
395 0.01425 0.006 0.005
396 0.01425 0.006 0.005875
397 0.01425 0.01 0.005
398 0.01425 0.01 0.005875
399 0.01425 0.004 0.004125
400 0.01425 0.002 0.004125
401 0.01425 0.008 0.004125
402 0.01425 0.006 0.004125
403 0.01425 0.01 0.004125
404 0.016 0.012 0.005
405 0.015125 0.012 0.005
406 0.016 0.012 0.004125
407 0.015125 0.012 0.004125
408 0.016 0.012 0.005875
409 0.015125 0.012 0.005875
410 0.016875 0.012 0.005
411 0.016875 0.012 0.004125
412 0.016875 0.012 0.005875
413 0.01864276695296637 0.004 0.002357233047033632
414 0.01864276695296637 0.008 0.002357233047033632
415 0.01864276695296637 0.002 0.002357233047033632
416 0.01819638347648319 0.004 0.002803616523516816
417 0.01819638347648319 0.002 0.002803616523516816
418 0.01864276695296637 0.006 0.002357233047033632
419 0.01819638347648319 0.008 0.002803616523516816
420 0.01819638347648319 0.006 0.002803616523516816
421 0.01864276695296637 0.01 0.002357233047033632
422 0.01819638347648319 0.01 0.002803616523516816
423 0.01908915042944955 0.004 0.001910849570550447
424 0.01908915042944955 0.002 0.001910849570550447
425 0.01908915042944955 0.008 0.001910849570550447
426 0.01908915042944955 0.006 0.001910849570550447
427 0.01908915042944955 0.01 0.001910849570550447
428 0.016 0.004 8.673617379884035e-19
429 0.016 0.008 8.673617379884035e-19
430 0.01408658283817455 0.004 0.0003806023374435669
431 0.016 0.002 8.673617379884035e-19
432 0.01408658283817455 0.002 0.0003806023374435669
433 0.01408658283817455 0.008 0.0003806023374435669
434 0.016 0.006 8.673617379884035e-19
435 0.01408658283817455 0.006 0.0003806023374435669
436 0.016 0.01 8.673617379884035e-19
437 0.01408658283817455 0.01 0.0003806023374435669
438 0.01791341716182545 0.004 0.0003806023374435677
439 0.01791341716182545 0.002 0.0003806023374435682
440 0.01791341716182545 0.008 0.0003806023374435677
441 0.01791341716182545 0.006 0.0003806023374435677
442 0.01791341716182545 0.01 0.0003806023374435682
443 0.01335723304703363 0.004 0.002357233047033632
444 0.01335723304703363 0.008 0.002357233047033632
445 0.01380361652351682 0.004 0.002803616523516816
446 0.01335723304703363 0.002 0.002357233047033632
447 0.01380361652351682 0.002 0.002803616523516816
448 0.01380361652351682 0.008 0.002803616523516816
449 0.01335723304703363 0.006 0.002357233047033632
450 0.01380361652351682 0.006 0.002803616523516816
451 0.01335723304703363 0.01 0.002357233047033632
452 0.01380361652351682 0.01 0.002803616523516816
453 0.01291084957055045 0.004 0.001910849570550447
454 0.01291084957055045 0.002 0.001910849570550447
455 0.01291084957055045 0.008 0.001910849570550447
456 0.01291084957055045 0.006 0.001910849570550447
457 0.01291084957055045 0.01 0.001910849570550447
458 0.016 0.012 0.001625
459 0.016 0.012 0.0024375
460 0.01467861652351682 0.012 0.001991116523516816
461 0.01490180826175841 0.012 0.002620558261758408
462 0.016 0.012 0.0008125000000000007
463 0.01438259968084568 0.012 0.001185859430480191
464 0.01732138347648319 0.012 0.001991116523516816
465 0.0170981917382416 0.012 0.002620558261758408
466 0.01761740031915432 0.012 0.001185859430480192
467 0.01864276695296637 0.004 0.007642766952966368
468 0.01864276695296637 0.008 0.007642766952966368
469 0.01864276695296637 0.002 0.007642766952966369
470 0.01819638347648319 0.004 0.007196383476483184
471 0.01819638347648319 0.002 0.007196383476483185
472 0.01864276695296637 0.006 0.007642766952966369
473 0.01819638347648319 0.008 0.007196383476483184
474 0.01819638347648319 0.006 0.007196383476483185
475 0.01864276695296637 0.01 0.007642766952966369
476 0.01819638347648319 0.01 0.007196383476483185
477 0.01908915042944955 0.004 0.008089150429449552
478 0.01908915042944955 0.002 0.008089150429449552
479 0.01908915042944955 0.008 0.008089150429449552
480 0.01908915042944955 0.006 0.008089150429449552
481 0.01908915042944955 0.01 0.008089150429449552
482 0.021 0.004 0.004999999999999995
483 0.021 0.008 0.004999999999999995
484 0.02061939766255643 0.004 0.003086582838174548
485 0.021 0.002 0.004999999999999995
486 0.02061939766255643 0.002 0.003086582838174548
487 0.02061939766255643 0.008 0.003086582838174548
488 0.021 0.006 0.004999999999999995
489 0.02061939766255643 0.006 0.003086582838174548
490 0.021 0.01 0.004999999999999995
491 0.02061939766255643 0.01 0.003086582838174548
492 0.02061939766255644 0.004 0.006913417161825442
493 0.02061939766255644 0.002 0.006913417161825442
494 0.02061939766255644 0.008 0.006913417161825442
495 0.02061939766255644 0.006 0.006913417161825442
496 0.02061939766255644 0.01 0.006913417161825442
497 0.019375 0.012 0.004999999999999998
498 0.0185625 0.012 0.004999999999999999
499 0.01900888347648319 0.012 0.003678616523516815
500 0.01837944173824159 0.012 0.003901808261758408
501 0.0201875 0.012 0.004999999999999997
502 0.01981414056951981 0.012 0.003382599680845682
503 0.01900888347648319 0.012 0.006321383476483184
504 0.01837944173824159 0.012 0.006098191738241592
505 0.01981414056951981 0.012 0.006617400319154313
506 0.01335723304703363 0.004 0.007642766952966368
507 0.01335723304703363 0.008 0.007642766952966368
508 0.01335723304703363 0.002 0.007642766952966368
509 0.01380361652351682 0.004 0.007196383476483183
510 0.01380361652351682 0.002 0.007196383476483184
511 0.01335723304703363 0.006 0.007642766952966368
512 0.01380361652351682 0.008 0.007196383476483183
513 0.01380361652351682 0.006 0.007196383476483183
514 0.01335723304703363 0.01 0.007642766952966368
515 0.01380361652351682 0.01 0.007196383476483184
516 0.01291084957055045 0.004 0.008089150429449552
517 0.01291084957055045 0.002 0.008089150429449552
518 0.01291084957055045 0.008 0.008089150429449552
519 0.01291084957055045 0.006 0.008089150429449552
520 0.01291084957055045 0.01 0.008089150429449552
521 0.01600000000000001 0.004 0.01
522 0.01600000000000001 0.008 0.01
523 0.01791341716182545 0.004 0.009619397662556432
524 0.01600000000000001 0.002 0.01
525 0.01791341716182546 0.002 0.009619397662556432
526 0.01791341716182545 0.008 0.009619397662556432
527 0.01600000000000001 0.006 0.01
528 0.01791341716182546 0.006 0.009619397662556432
529 0.01600000000000001 0.01 0.01
530 0.01791341716182546 0.01 0.009619397662556432
531 0.01408658283817455 0.004 0.009619397662556435
532 0.01408658283817456 0.002 0.009619397662556435
533 0.01408658283817455 0.008 0.009619397662556435
534 0.01408658283817456 0.006 0.009619397662556435
535 0.01408658283817456 0.01 0.009619397662556435
536 0.016 0.012 0.008375
537 0.016 0.012 0.0075625
538 0.01732138347648319 0.012 0.008008883476483184
539 0.0170981917382416 0.012 0.007379441738241592
540 0.016 0.012 0.009187500000000001
541 0.01761740031915432 0.012 0.008814140569519808
542 0.01467861652351682 0.012 0.008008883476483184
543 0.01490180826175841 0.012 0.007379441738241592
544 0.01438259968084569 0.012 0.00881414056951981
545 0.011 0.004 0.005000000000000002
546 0.011 0.008 0.005000000000000002
547 0.01138060233744357 0.004 0.006913417161825449
548 0.011 0.002 0.005000000000000002
549 0.01138060233744357 0.002 0.006913417161825449
550 0.01138060233744357 0.008 0.006913417161825449
551 0.011 0.006 0.005000000000000002
552 0.01138060233744357 0.006 0.006913417161825449
553 0.011 0.01 0.005000000000000002
554 0.01138060233744357 0.01 0.006913417161825449
555 0.01138060233744357 0.004 0.003086582838174552
556 0.01138060233744357 0.002 0.003086582838174554
557 0.01138060233744357 0.008 0.003086582838174552
558 0.01138060233744357 0.006 0.003086582838174552
559 0.01138060233744357 0.01 0.003086582838174554
560 0.012625 0.012 0.004999999999999999
561 0.0134375 0.012 0.004999999999999999
562 0.01299111652351682 0.012 0.006321383476483184
563 0.01362055826175841 0.012 0.006098191738241592
564 0.0118125 0.012 0.005
565 0.01218585943048019 0.012 0.006617400319154317
566 0.01299111652351682 0.012 0.003678616523516815
567 0.01362055826175841 0.012 0.003901808261758408
568 0.01218585943048019 0.012 0.003382599680845685
569 0.004263392857142861 0.004263392857142862 0.004263392857142861
570 0.008693057580174924 0.008693057580174924 0.007386115160349848
571 0.008693057580174924 0.007386115160349848 0.008693057580174924
572 0.007386115160349848 0.008693057580174924 0.008693057580174924
573 0.005824754008746354 0.007131696428571432 0.005824754008746354
574 0.005824754008746354 0.005824754008746355 0.007131696428571431
575 0.007131696428571431 0.005824754008746355 0.005824754008746354
576 0.008693057580174924 0.008245717930029152 0.005480442176870743
577 0.007131696428571431 0.005377414358600583 0.00391908102526725
578 0.00556805758017492 0.008693057580174924 0.008125
579 0.004006696428571426 0.007131696428571432 0.005256696428571431
580 0.008245717930029152 0.008245717930029152 0.003574769193391639
581 0.005377414358600583 0.007131696428571432 0.00391908102526725
582 0.003749999999999991 0.008125 0.008125
583 0.004006696428571426 0.005256696428571431 0.007131696428571431
584 0.007131696428571431 0.004006696428571427 0.00525669642857143
585 0.005377414358600582 0.003919081025267251 0.007131696428571431
586 0.006938775510204076 0.008693057580174924 0.001787384596695819
587 0.008693057580174924 0.006938775510204075 0.001787384596695819
588 0.005824754008746354 0.005824754008746355 0.002131696428571431
589 0.008245717930029152 0.003662384596695815 0.008125
590 0.008693057580174924 0.001874999999999996 0.006818057580174923
591 0.006938775510204075 0.001787384596695819 0.008693057580174924
592 0.005824754008746354 0.002131696428571431 0.005824754008746354
593 0.001874999999999996 0.008693057580174924 0.006818057580174924
594 0.001874999999999996 0.006818057580174923 0.008693057580174924
595 0.002131696428571431 0.005824754008746355 0.005824754008746354
596 0.008245717930029152 0.005033102526724971 0.001787384596695819
597 0.005377414358600582 0.003919081025267251 0.002131696428571431
598 0.008245717930029152 0.005480442176870743 0.008693057580174924
599 0.008245717930029152 0.003193634596695822 0.001406250000000002
600 0.007131696428571431 0.003537946428571433 0.003537946428571433
601 0.001874999999999996 0.008245717930029152 0.00491238459669582
602 0.002131696428571431 0.005377414358600583 0.00391908102526725
603 0.008245717930029152 0.001874999999999996 0.004912384596695819
604 0.005377414358600583 0.002131696428571431 0.00391908102526725
605 0.005120717930029148 0.008125 0.001787384596695819
606 0.004006696428571426 0.005256696428571431 0.002131696428571431
607 0.005120717930029148 0.001787384596695819 0.008125
608 0.004006696428571426 0.002131696428571431 0.005256696428571431
609 0.003281249999999998 0.001406250000000002 0.008125
610 0.003537946428571433 0.003537946428571433 0.007131696428571431
611 0.003281249999999998 0.008125 0.001406250000000002
612 0.003537946428571433 0.007131696428571432 0.003537946428571433
613 0.001874999999999996 0.004999999999999996 0.008125
614 0.002131696428571431 0.004006696428571427 0.00525669642857143
615 0.001406250000000002 0.008245717930029152 0.003193634596695822
616 0.008245717930029152 0.001406250000000002 0.003193634596695822
617 0.002812500000000004 0.001406250000000002 0.001406250000000002
618 0.003537946428571433 0.002131696428571431 0.003537946428571433
619 0.003537946428571433 0.003537946428571433 0.002131696428571431
620 0.004631696428571424 0.002131696428571431 0.002131696428571431
621 0.001406250000000002 0.002812500000000004 0.001406250000000002
622 0.001874999999999996 0.004531250000000002 0.001406250000000002
623 0.001406250000000002 0.001406250000000002 0.002812500000000004
624 0.001406250000000002 0.001874999999999996 0.004531250000000002
625 0.001406250000000002 0.003281249999999998 0.008125
626 0.002131696428571431 0.003537946428571433 0.003537946428571433
627 0.006491435860058304 0.001787384596695819 0.001787384596695819
628 0.001874999999999996 0.006370717930029151 0.001787384596695819
629 0.001874999999999996 0.001874999999999996 0.00625
630 0.016 0.004 0.005
631 0.016 0.008 0.005
632 0.016 0.002 0.005
633 0.016 0.004 0.004125
634 0.015125 0.004 0.005
635 0.016 0.002 0.004125
636 0.015125 0.002 0.005
637 0.015125 0.004 0.004125
638 0.015125 0.002 0.004125
639 0.016 0.006 0.005
640 0.016 0.008 0.004125
641 0.015125 0.008 0.005
642 0.016 0.006 0.004125
643 0.015125 0.006 0.005
644 0.015125 0.008 0.004125
645 0.015125 0.006 0.004125
646 0.016 0.01 0.005
647 0.016 0.01 0.004125
648 0.015125 0.01 0.005
649 0.015125 0.01 0.004125
650 0.016 0.004 0.005875
651 0.016 0.002 0.005875
652 0.015125 0.004 0.005875
653 0.015125 0.002 0.005874999999999999
654 0.016 0.008 0.005875
655 0.016 0.006 0.005875
656 0.015125 0.008 0.005875
657 0.015125 0.006 0.005874999999999999
658 0.016 0.01 0.005875
659 0.015125 0.01 0.005874999999999999
660 0.016875 0.004 0.005
661 0.016875 0.002 0.005
662 0.016875 0.004 0.004125
663 0.016875 0.002 0.004125
664 0.016875 0.008 0.005
665 0.016875 0.006 0.005
666 0.016875 0.008 0.004125
667 0.016875 0.006 0.004125
668 0.016875 0.01 0.005
669 0.016875 0.01 0.004125
670 0.016875 0.004 0.005875
671 0.016875 0.002 0.005874999999999999
672 0.016875 0.008 0.005875
673 0.016875 0.006 0.005874999999999999
674 0.016875 0.01 0.005874999999999999
675 0.016 0.004 0.001625
676 0.016 0.008 0.001625
677 0.016 0.002 0.001625
678 0.016 0.004 0.0024375
679 0.01467861652351682 0.004 0.001991116523516816
680 0.016 0.002 0.0024375
681 0.01467861652351682 0.002 0.001991116523516816
682 0.01490180826175841 0.004 0.002620558261758408
683 0.01490180826175841 0.002 0.002620558261758409
684 0.016 0.006 0.001625
685 0.016 0.008 0.0024375
686 0.01467861652351682 0.008 0.001991116523516816
687 0.016 0.006 0.0024375
688 0.01467861652351682 0.006 0.001991116523516816
689 0.01490180826175841 0.008 0.002620558261758408
690 0.01490180826175841 0.006 0.002620558261758409
691 0.016 0.01 0.001625
692 0.016 0.01 0.0024375
693 0.01467861652351682 0.01 0.001991116523516816
694 0.01490180826175841 0.01 0.002620558261758409
695 0.016 0.004 0.0008125000000000003
696 0.016 0.002 0.0008125000000000005
697 0.01438259968084569 0.004 0.001185859430480191
698 0.01438259968084569 0.002 0.001185859430480191
699 0.016 0.008 0.0008125000000000003
700 0.016 0.006 0.0008125000000000003
701 0.01438259968084569 0.008 0.001185859430480191
702 0.01438259968084569 0.006 0.001185859430480191
703 0.016 0.01 0.0008125000000000005
704 0.01438259968084569 0.01 0.001185859430480191
705 0.01732138347648319 0.004 0.001991116523516816
706 0.01732138347648319 0.002 0.001991116523516816
707 0.01709819173824159 0.004 0.002620558261758408
708 0.0170981917382416 0.002 0.002620558261758409
709 0.01732138347648319 0.008 0.001991116523516816
710 0.01732138347648319 0.006 0.001991116523516816
711 0.01709819173824159 0.008 0.002620558261758408
712 0.01709819173824159 0.006 0.002620558261758409
713 0.01732138347648319 0.01 0.001991116523516816
714 0.01709819173824159 0.01 0.002620558261758409
715 0.01761740031915432 0.004 0.001185859430480192
716 0.01761740031915433 0.002 0.001185859430480191
717 0.01761740031915432 0.008 0.001185859430480192
718 0.01761740031915432 0.006 0.001185859430480191
719 0.01761740031915432 0.01 0.001185859430480191
720 0.019375 0.004 0.004999999999999998
721 0.019375 0.008 0.004999999999999998
722 0.019375 0.002 0.004999999999999998
723 0.0185625 0.004 0.004999999999999999
724 0.01900888347648318 0.004 0.003678616523516815
725 0.0185625 0.002 0.004999999999999999
726 0.01900888347648319 0.002 0.003678616523516815
727 0.01837944173824159 0.004 0.003901808261758408
728 0.01837944173824159 0.002 0.003901808261758409
729 0.019375 0.006 0.004999999999999998
730 0.0185625 0.008 0.004999999999999999
731 0.01900888347648318 0.008 0.003678616523516815
732 0.0185625 0.006 0.004999999999999999
733 0.01900888347648318 0.006 0.003678616523516815
734 0.01837944173824159 0.008 0.003901808261758408
735 0.01837944173824159 0.006 0.003901808261758409
736 0.019375 0.01 0.004999999999999998
737 0.0185625 0.01 0.004999999999999999
738 0.01900888347648319 0.01 0.003678616523516815
739 0.0183794417382416 0.01 0.003901808261758409
740 0.0201875 0.004 0.004999999999999997
741 0.0201875 0.002 0.004999999999999997
742 0.01981414056951981 0.004 0.003382599680845682
743 0.01981414056951981 0.002 0.003382599680845682
744 0.0201875 0.008 0.004999999999999997
745 0.0201875 0.006 0.004999999999999997
746 0.01981414056951981 0.008 0.003382599680845682
747 0.01981414056951981 0.006 0.003382599680845682
748 0.0201875 0.01 0.004999999999999997
749 0.0198141405695198 0.01 0.003382599680845682
750 0.01900888347648318 0.004 0.006321383476483183
751 0.01900888347648319 0.002 0.006321383476483184
752 0.0183794417382416 0.004 0.006098191738241592
753 0.01837944173824159 0.002 0.006098191738241592
754 0.01900888347648318 0.008 0.006321383476483183
755 0.01900888347648318 0.006 0.006321383476483184
756 0.0183794417382416 0.008 0.006098191738241592
757 0.01837944173824159 0.006 0.006098191738241592
758 0.01900888347648319 0.01 0.006321383476483184
759 0.01837944173824159 0.01 0.006098191738241592
760 0.01981414056951981 0.004 0.006617400319154313
761 0.01981414056951981 0.002 0.006617400319154312
762 0.01981414056951981 0.008 0.006617400319154313
763 0.01981414056951981 0.006 0.006617400319154312
764 0.01981414056951981 0.01 0.006617400319154312
765 0.016 0.004 0.008375
766 0.016 0.008 0.008375
767 0.016 0.002 0.008375
768 0.016 0.004 0.0075625
769 0.01732138347648319 0.004 0.008008883476483184
770 0.016 0.002 0.0075625
771 0.01732138347648319 0.002 0.008008883476483184
772 0.0170981917382416 0.004 0.007379441738241592
773 0.0170981917382416 0.002 0.007379441738241593
774 0.016 0.006 0.008375
775 0.016 0.008 0.0075625
776 0.01732138347648319 0.008 0.008008883476483184
777 0.016 0.006 0.0075625
778 0.01732138347648319 0.006 0.008008883476483184
779 0.0170981917382416 0.008 0.007379441738241592
780 0.0170981917382416 0.006 0.007379441738241593
781 0.016 0.01 0.008375
782 0.016 0.01 0.0075625
783 0.01732138347648319 0.01 0.008008883476483184
784 0.0170981917382416 0.01 0.007379441738241593
785 0.01600000000000001 0.004 0.009187500000000001
786 0.01600000000000001 0.002 0.009187499999999999
787 0.01761740031915432 0.004 0.008814140569519808
788 0.01761740031915432 0.002 0.008814140569519811
789 0.01600000000000001 0.008 0.009187500000000001
790 0.01600000000000001 0.006 0.009187500000000001
791 0.01761740031915432 0.008 0.008814140569519808
792 0.01761740031915432 0.006 0.00881414056951981
793 0.01600000000000001 0.01 0.009187500000000001
794 0.01761740031915433 0.01 0.00881414056951981
795 0.01467861652351682 0.004 0.008008883476483184
796 0.01467861652351682 0.002 0.008008883476483184
797 0.01490180826175841 0.004 0.007379441738241592
798 0.01490180826175841 0.002 0.007379441738241593
799 0.01467861652351682 0.008 0.008008883476483184
800 0.01467861652351682 0.006 0.008008883476483184
801 0.01490180826175841 0.008 0.007379441738241592
802 0.01490180826175841 0.006 0.007379441738241592
803 0.01467861652351682 0.01 0.008008883476483184
804 0.01490180826175841 0.01 0.007379441738241593
805 0.01438259968084569 0.004 0.00881414056951981
806 0.01438259968084569 0.002 0.00881414056951981
807 0.01438259968084569 0.008 0.00881414056951981
808 0.01438259968084569 0.006 0.008814140569519811
809 0.01438259968084569 0.01 0.008814140569519811
810 0.012625 0.004 0.004999999999999999
811 0.012625 0.008 0.004999999999999999
812 0.012625 0.002 0.004999999999999999
813 0.0134375 0.004 0.004999999999999999
814 0.01299111652351682 0.004 0.006321383476483184
815 0.0134375 0.002 0.005
816 0.01299111652351682 0.002 0.006321383476483184
817 0.01362055826175841 0.004 0.00609819173824159
818 0.0136205582617584 0.002 0.006098191738241593
819 0.012625 0.006 0.004999999999999999
820 0.0134375 0.008 0.004999999999999999
821 0.01299111652351682 0.008 0.006321383476483184
822 0.0134375 0.006 0.004999999999999999
823 0.01299111652351682 0.006 0.006321383476483184
824 0.01362055826175841 0.008 0.00609819173824159
825 0.0136205582617584 0.006 0.006098191738241592
826 0.012625 0.01 0.004999999999999999
827 0.0134375 0.01 0.004999999999999999
828 0.01299111652351682 0.01 0.006321383476483184
829 0.01362055826175841 0.01 0.00609819173824159
830 0.0118125 0.004 0.005000000000000001
831 0.0118125 0.002 0.005000000000000001
832 0.01218585943048019 0.004 0.006617400319154317
833 0.01218585943048019 0.002 0.006617400319154317
834 0.0118125 0.008 0.005000000000000001
835 0.0118125 0.006 0.005000000000000001
836 0.01218585943048019 0.008 0.006617400319154317
837 0.01218585943048019 0.006 0.006617400319154317
838 0.0118125 0.01 0.005
839 0.01218585943048019 0.01 0.006617400319154318
840 0.01299111652351682 0.004 0.003678616523516815
841 0.01299111652351682 0.002 0.003678616523516816
842 0.01362055826175841 0.004 0.003901808261758408
843 0.01362055826175841 0.002 0.003901808261758408
844 0.01299111652351682 0.008 0.003678616523516815
845 0.01299111652351682 0.006 0.003678616523516816
846 0.01362055826175841 0.008 0.003901808261758408
847 0.01362055826175841 0.006 0.003901808261758408
848 0.01299111652351682 0.01 0.003678616523516816
849 0.01362055826175841 0.01 0.003901808261758408
850 0.01218585943048019 0.004 0.003382599680845685
851 0.0121858594304802 0.002 0.003382599680845685
852 0.01218585943048019 0.008 0.003382599680845685
853 0.0121858594304802 0.006 0.003382599680845684
854 0.0121858594304802 0.01 0.003382599680845685
$EndNodes
$Elements
228
1 9 2 1 3 1 25 216 27 219 220
2 9 2 1 3 52 1 216 53 220 221
3 9 2 1 3 25 2 218 26 222 223
4 9 2 1 3 2 49 218 50 224 222
5 9 2 1 3 37 5 215 39 225 226
6 9 2 1 3 5 52 215 54 227 225
7 9 2 1 3 6 37 217 38 228 229
8 9 2 1 3 49 6 217 51 229 230
9 9 2 1 3 216 25 218 219 223 231
10 9 2 1 3 37 215 217 226 232 228
11 9 2 1 3 49 217 218 230 233 224
12 9 2 1 3 215 52 216 227 221 234
13 9 2 1 3 215 216 217 234 235 232
14 9 2 1 3 217 216 218 235 231 233
15 9 2 2 4 3 237 31 240 241 33
16 9 2 2 4 58 237 3 242 240 59
17 9 2 2 4 31 239 4 243 244 32
18 9 2 2 4 4 239 55 244 245 56
19 9 2 2 4 43 236 7 246 247 45
20 9 2 2 4 7 236 58 247 248 60
21 9 2 2 4 8 238 43 249 250 44
22 9 2 2 4 55 238 8 251 249 57
23 9 2 2 4 237 239 31 252 243 241
24 9 2 2 4 43 238 236 250 253 246
25 9 2 2 4 55 239 238 245 254 251
26 9 2 2 4 236 237 58 255 242 248
27 9 2 2 4 236 238 237 253 256 255
28 9 2 2 4 238 239 237 254 252 256
29 10 2 1 26 9 61 299 70 62 300 301 72 302
30 10 2 1 26 70 299 67 12 301 303 69 71 304
31 10 2 1 26 61 10 64 299 63 65 305 300 306
32 10 2 1 26 299 64 11 67 305 66 68 303 307
33 10 2 1 28 9 61 308 85 62 309 310 86 311
34 10 2 1 28 85 308 73 13 310 312 74 87 313
35 10 2 1 28 61 10 88 308 63 89 314 309 315
36 10 2 1 28 308 88 14 73 314 90 75 312 316
37 10 2 1 30 10 64 317 88 65 318 319 89 320
38 10 2 1 30 88 317 76 14 319 321 77 90 322
39 10 2 1 30 64 11 91 317 66 92 323 318 324
40 10 2 1 30 317 91 15 76 323 93 78 321 325
41 10 2 1 32 11 67 326 91 68 327 328 92 329
42 10 2 1 32 91 326 79 15 328 330 80 93 331
43 10 2 1 32 67 12 94 326 69 95 332 327 333
44 10 2 1 32 326 94 16 79 332 96 81 330 334
45 10 2 1 34 12 70 335 94 71 336 337 95 338
46 10 2 1 34 94 335 82 16 337 339 83 96 340
47 10 2 1 34 70 9 85 335 72 86 341 336 342
48 10 2 1 34 335 85 13 82 341 87 84 339 343
49 10 2 2 39 17 126 404 107 128 405 406 108 407
50 10 2 2 39 126 20 123 404 127 125 408 405 409
51 10 2 2 39 107 404 115 18 406 410 116 109 411
52 10 2 2 39 404 123 19 115 408 124 117 410 412
53 10 2 2 43 17 107 458 145 108 459 460 146 461
54 10 2 2 43 145 458 142 22 460 462 143 147 463
55 10 2 2 43 107 18 134 458 109 135 464 459 465
56 10 2 2 43 458 134 21 142 464 136 144 462 466
57 10 2 2 46 18 115 497 134 116 498 499 135 500
58 10 2 2 46 134 497 156 21 499 501 157 136 502
59 10 2 2 46 115 19 153 497 117 154 503 498 504
60 10 2 2 46 497 153 23 156 503 155 158 501 505
61 10 2 2 49 19 123 536 153 124 537 538 154 539
62 10 2 2 49 153 536 167 23 538 540 168 155 541
63 10 2 2 49 123 20 164 536 125 165 542 537 543
64 10 2 2 49 536 164 24 167 542 166 169 540 544
65 10 2 2 51 20 126 560 164 127 561 562 165 563
66 10 2 2 51 164 560 170 24 562 564 171 166 565
67 10 2 2 51 126 17 145 560 128 146 566 561 567
68 10 2 2 51 560 145 22 170 566 147 172 564 568
69 11 2 3 1 236 194 278 569 570 571 572 573 574 575
70 11 2 3 1 236 196 194 569 576 212 570 573 575 577
71 11 2 3 1 236 278 237 569 572 578 255 573 579 574
72 11 2 3 1 236 238 196 569 253 580 576 573 577 581
73 11 2 3 1 237 278 279 569 578 297 582 579 583 574
74 11 2 3 1 237 238 236 569 256 253 255 579 573 581
75 11 2 3 1 194 196 195 569 212 214 211 575 584 577
76 11 2 3 1 279 278 280 569 297 295 298 583 585 574
77 11 2 3 1 238 257 196 569 586 587 580 581 577 588
78 11 2 3 1 280 195 215 569 589 590 591 585 592 584
79 11 2 3 1 173 237 279 569 593 582 594 595 583 579
80 11 2 3 1 257 259 196 569 274 596 587 588 577 597
81 11 2 3 1 236 196 43 194 576 207 246 570 206 212
82 11 2 3 1 278 40 280 194 292 288 295 571 598 204
83 11 2 3 1 196 259 197 569 596 599 213 577 600 597
84 11 2 3 1 237 173 175 569 593 191 601 579 602 595
85 11 2 3 1 195 217 215 569 603 232 590 584 592 604
86 11 2 3 1 238 258 257 569 605 276 586 581 588 606
87 11 2 3 1 216 280 215 569 607 591 234 608 592 585
88 11 2 3 1 237 58 278 236 242 293 578 255 572 248
89 11 2 3 1 281 280 216 569 296 607 609 610 608 585
90 11 2 3 1 258 238 239 569 605 254 611 606 612 581
91 11 2 3 1 173 279 174 569 594 613 190 595 614 583
92 11 2 3 1 239 237 175 569 252 601 615 612 602 579
93 11 2 3 1 197 217 195 569 616 603 210 600 584 604
94 11 2 3 1 195 196 197 569 214 213 210 584 600 577
95 11 2 3 1 239 238 237 569 254 256 252 612 579 581
96 11 2 3 1 281 279 280 569 294 298 296 610 585 583
97 11 2 3 1 218 49 260 569 224 263 617 618 619 620
98 11 2 3 1 34 176 260 258 182 621 261 265 273 622
99 11 2 3 1 25 218 176 174 223 623 180 178 189 624
100 11 2 3 1 279 281 174 569 294 625 613 583 614 610
101 11 2 3 1 258 176 260 569 622 621 273 606 619 626
102 11 2 3 1 218 176 174 569 623 189 624 618 614 626
103 11 2 3 1 259 217 197 569 627 616 599 597 600 604
104 11 2 3 1 196 236 43 238 576 246 207 580 250 253
105 11 2 3 1 258 239 175 569 611 615 628 606 602 612
106 11 2 3 1 40 195 280 194 200 589 288 204 598 211
107 11 2 3 1 174 281 216 569 625 609 629 614 608 610
108 11 2 3 1 49 259 260 569 269 275 263 620 619 597
109 11 2 3 1 218 217 49 569 233 230 224 618 620 604
110 11 2 3 1 237 58 279 278 242 287 582 578 297 293
111 11 2 3 1 215 217 216 569 232 235 234 592 608 604
112 11 2 3 1 173 174 175 569 190 193 191 595 602 614
113 11 2 3 1 257 258 259 569 276 277 274 588 597 606
114 11 2 3 1 258 34 176 175 265 182 622 628 192 188
115 11 2 3 1 218 260 176 569 617 621 623 618 626 619
116 11 2 3 1 196 257 46 259 587 270 209 596 268 274
117 11 2 3 1 176 258 175 569 622 628 192 626 602 606
118 11 2 3 1 216 174 1 281 629 177 220 609 282 625
119 11 2 3 1 197 196 46 259 213 209 203 599 268 596
120 11 2 3 1 173 237 3 279 593 240 183 594 286 582
121 11 2 3 1 25 218 174 216 223 624 178 219 629 231
122 11 2 3 1 281 52 216 280 284 221 609 296 607 290
123 11 2 3 1 258 239 238 55 611 254 605 266 251 245
124 11 2 3 1 217 259 197 6 627 599 616 229 201 267
125 11 2 3 1 55 238 258 257 251 605 266 272 276 586
126 11 2 3 1 280 52 216 215 290 221 607 591 234 227
127 11 2 3 1 175 173 237 31 191 593 601 187 241 185
128 11 2 3 1 195 215 217 37 590 232 603 198 228 226
129 11 2 3 1 239 4 258 175 244 264 611 615 628 186
130 11 2 3 1 196 238 8 257 580 249 208 587 271 586
131 11 2 3 1 280 215 195 5 591 590 589 289 199 225
132 11 2 3 1 218 174 216 569 624 629 231 618 608 614
133 11 2 3 1 173 279 28 174 594 285 184 190 179 613
134 11 2 3 1 237 239 175 31 252 615 601 241 187 243
135 11 2 3 1 217 197 195 37 616 210 603 228 198 202
136 11 2 3 1 174 279 28 281 613 285 179 625 283 294
137 11 2 3 1 49 217 259 569 230 627 269 620 597 604
138 11 2 3 1 58 3 237 279 59 240 242 287 582 286
139 11 2 3 1 174 1 25 216 177 27 178 629 219 220
140 11 2 3 1 49 259 217 6 269 627 230 51 229 267
141 11 2 3 1 34 258 4 175 265 264 36 188 186 628
142 11 2 3 1 5 195 280 40 199 589 289 41 288 200
143 11 2 3 1 196 238 43 8 580 250 207 208 44 249
144 11 2 3 1 260 2 218 176 262 222 617 621 623 181
145 11 2 3 1 52 216 1 281 221 220 53 284 282 609
146 11 2 3 1 258 4 239 55 264 244 611 266 245 56
147 11 2 3 1 28 1 174 281 29 177 179 283 625 282
148 11 2 3 1 55 8 238 257 57 249 251 272 586 271
149 11 2 3 1 257 8 196 46 271 208 587 270 209 48
150 11 2 3 1 279 3 173 28 286 183 594 285 184 30
151 11 2 3 1 173 237 31 3 593 241 185 183 33 240
152 11 2 3 1 215 195 5 37 590 199 225 226 39 198
153 11 2 3 1 46 197 259 6 203 599 268 47 267 201
154 11 2 3 1 37 217 197 6 228 616 202 38 201 229
155 11 2 3 1 2 25 218 176 26 223 222 181 623 180
156 11 2 3 1 176 260 2 34 621 262 181 182 35 261
157 11 2 3 1 2 218 49 260 222 224 50 262 263 617
158 11 2 3 1 215 280 52 5 591 290 227 225 54 289
159 11 2 3 1 175 239 4 31 615 244 186 187 32 243
160 11 2 3 1 7 278 58 236 291 293 60 247 248 572
161 11 2 3 1 40 278 7 194 292 291 42 204 205 571
162 11 2 3 1 194 236 7 43 570 247 205 206 45 246
163 11 2 3 1 176 175 174 569 192 193 189 626 614 602
164 11 2 3 1 260 259 258 569 275 277 273 619 606 597
165 11 2 3 1 216 217 218 569 235 233 231 608 618 604
166 11 2 3 1 236 7 278 194 247 291 572 570 571 205
167 11 2 3 1 280 194 569 278 598 575 585 295 574 571
168 11 2 3 1 569 194 280 195 575 598 585 584 589 211
169 12 2 4 2 299 61 9 70 630 344 97 389 300 301 632 62 347 72 99 392 633 634 346 399 302 635 636 348 400 637 638
170 12 2 4 2 630 344 97 389 631 345 98 390 633 634 639 346 350 399 100 395 640 641 349 401 637 642 643 351 402 644 645
171 12 2 4 2 631 345 98 390 404 107 17 126 640 641 646 349 352 401 101 397 406 405 108 128 644 647 648 353 403 407 649
172 12 2 4 2 67 299 70 12 374 630 389 118 303 69 377 301 632 71 392 120 650 384 634 391 304 651 385 636 393 652 653
173 12 2 4 2 374 630 389 118 375 631 390 119 650 384 380 634 639 391 395 121 654 386 641 394 652 655 387 643 396 656 657
174 12 2 4 2 375 631 390 119 123 404 126 20 654 386 382 641 646 394 397 122 408 125 405 127 656 658 388 648 398 409 659
175 12 2 4 2 64 10 61 299 359 102 344 630 65 305 362 63 104 300 347 632 361 660 354 633 306 363 661 355 635 662 663
176 12 2 4 2 359 102 344 630 360 103 345 631 361 660 365 354 105 633 350 639 364 664 356 640 662 366 665 357 642 666 667
177 12 2 4 2 360 103 345 631 115 18 107 404 364 664 367 356 106 640 352 646 116 410 109 406 666 368 668 358 647 411 669
178 12 2 4 2 11 64 299 67 110 359 630 374 66 68 112 305 362 303 632 377 369 376 660 650 307 370 378 661 651 670 671
179 12 2 4 2 110 359 630 374 111 360 631 375 369 376 113 660 365 650 639 380 371 379 664 654 670 372 381 665 655 672 673
180 12 2 4 2 111 360 631 375 19 115 404 123 371 379 114 664 367 654 646 382 117 124 410 408 672 373 383 668 658 412 674
181 12 2 4 3 9 61 308 85 97 344 675 443 62 86 99 309 347 310 677 446 346 445 678 679 311 348 447 680 681 682 683
182 12 2 4 3 97 344 675 443 98 345 676 444 346 445 100 678 350 679 684 449 349 448 685 686 682 351 450 687 688 689 690
183 12 2 4 3 98 345 676 444 17 107 458 145 349 448 101 685 352 686 691 451 108 146 459 460 689 353 452 692 693 461 694
184 12 2 4 3 85 308 73 13 443 675 428 137 310 87 446 312 677 74 431 139 679 453 695 430 313 681 454 696 432 697 698
185 12 2 4 3 443 675 428 137 444 676 429 138 679 453 449 695 684 430 434 140 686 455 699 433 697 688 456 700 435 701 702
186 12 2 4 3 444 676 429 138 145 458 142 22 686 455 451 699 691 433 436 141 460 147 462 143 701 693 457 703 437 463 704
187 12 2 4 3 61 10 88 308 344 102 413 675 63 309 347 89 104 314 415 677 354 678 416 705 315 355 680 417 706 707 708
188 12 2 4 3 344 102 413 675 345 103 414 676 354 678 350 416 105 705 418 684 356 685 419 709 707 357 687 420 710 711 712
189 12 2 4 3 345 103 414 676 107 18 134 458 356 685 352 419 106 709 421 691 109 459 135 464 711 358 692 422 713 465 714
190 12 2 4 3 308 88 14 73 675 413 129 428 314 312 677 90 415 75 131 431 705 695 423 438 316 706 696 424 439 715 716
191 12 2 4 3 675 413 129 428 676 414 130 429 705 695 684 423 418 438 132 434 709 699 425 440 715 710 700 426 441 717 718
192 12 2 4 3 676 414 130 429 458 134 21 142 709 699 691 425 421 440 133 436 464 462 136 144 717 713 703 427 442 466 719
193 12 2 4 4 10 64 317 88 102 359 720 413 65 89 104 318 362 319 722 415 361 416 723 724 320 363 417 725 726 727 728
194 12 2 4 4 102 359 720 413 103 360 721 414 361 416 105 723 365 724 729 418 364 419 730 731 727 366 420 732 733 734 735
195 12 2 4 4 103 360 721 414 18 115 497 134 364 419 106 730 367 731 736 421 116 135 498 499 734 368 422 737 738 500 739
196 12 2 4 4 88 317 76 14 413 720 482 129 319 90 415 321 722 77 485 131 724 423 740 484 322 726 424 741 486 742 743
197 12 2 4 4 413 720 482 129 414 721 483 130 724 423 418 740 729 484 488 132 731 425 744 487 742 733 426 745 489 746 747
198 12 2 4 4 414 721 483 130 134 497 156 21 731 425 421 744 736 487 490 133 499 136 501 157 746 738 427 748 491 502 749
199 12 2 4 4 64 11 91 317 359 110 467 720 66 318 362 92 112 323 469 722 369 723 470 750 324 370 725 471 751 752 753
200 12 2 4 4 359 110 467 720 360 111 468 721 369 723 365 470 113 750 472 729 371 730 473 754 752 372 732 474 755 756 757
201 12 2 4 4 360 111 468 721 115 19 153 497 371 730 367 473 114 754 475 736 117 498 154 503 756 373 737 476 758 504 759
202 12 2 4 4 317 91 15 76 720 467 148 482 323 321 722 93 469 78 150 485 750 740 477 492 325 751 741 478 493 760 761
203 12 2 4 4 720 467 148 482 721 468 149 483 750 740 729 477 472 492 151 488 754 744 479 494 760 755 745 480 495 762 763
204 12 2 4 4 721 468 149 483 497 153 23 156 754 744 736 479 475 494 152 490 503 501 155 158 762 758 748 481 496 505 764
205 12 2 4 5 11 67 326 91 110 374 765 467 68 92 112 327 377 328 767 469 376 470 768 769 329 378 471 770 771 772 773
206 12 2 4 5 110 374 765 467 111 375 766 468 376 470 113 768 380 769 774 472 379 473 775 776 772 381 474 777 778 779 780
207 12 2 4 5 111 375 766 468 19 123 536 153 379 473 114 775 382 776 781 475 124 154 537 538 779 383 476 782 783 539 784
208 12 2 4 5 91 326 79 15 467 765 521 148 328 93 469 330 767 80 524 150 769 477 785 523 331 771 478 786 525 787 788
209 12 2 4 5 467 765 521 148 468 766 522 149 769 477 472 785 774 523 527 151 776 479 789 526 787 778 480 790 528 791 792
210 12 2 4 5 468 766 522 149 153 536 167 23 776 479 475 789 781 526 529 152 538 155 540 168 791 783 481 793 530 541 794
211 12 2 4 5 67 12 94 326 374 118 506 765 69 327 377 95 120 332 508 767 384 768 509 795 333 385 770 510 796 797 798
212 12 2 4 5 374 118 506 765 375 119 507 766 384 768 380 509 121 795 511 774 386 775 512 799 797 387 777 513 800 801 802
213 12 2 4 5 375 119 507 766 123 20 164 536 386 775 382 512 122 799 514 781 125 537 165 542 801 388 782 515 803 543 804
214 12 2 4 5 326 94 16 79 765 506 159 521 332 330 767 96 508 81 161 524 795 785 516 531 334 796 786 517 532 805 806
215 12 2 4 5 765 506 159 521 766 507 160 522 795 785 774 516 511 531 162 527 799 789 518 533 805 800 790 519 534 807 808
216 12 2 4 5 766 507 160 522 536 164 24 167 799 789 781 518 514 533 163 529 542 540 166 169 807 803 793 520 535 544 809
217 12 2 4 6 12 70 335 94 118 389 810 506 71 95 120 336 392 337 812 508 391 509 813 814 338 393 510 815 816 817 818
218 12 2 4 6 118 389 810 506 119 390 811 507 391 509 121 813 395 814 819 511 394 512 820 821 817 396 513 822 823 824 825
219 12 2 4 6 119 390 811 507 20 126 560 164 394 512 122 820 397 821 826 514 127 165 561 562 824 398 515 827 828 563 829
220 12 2 4 6 94 335 82 16 506 810 545 159 337 96 508 339 812 83 548 161 814 516 830 547 340 816 517 831 549 832 833
221 12 2 4 6 506 810 545 159 507 811 546 160 814 516 511 830 819 547 551 162 821 518 834 550 832 823 519 835 552 836 837
222 12 2 4 6 507 811 546 160 164 560 170 24 821 518 514 834 826 550 553 163 562 166 564 171 836 828 520 838 554 565 839
223 12 2 4 6 70 9 85 335 389 97 443 810 72 336 392 86 99 341 446 812 399 813 445 840 342 400 815 447 841 842 843
224 12 2 4 6 389 97 443 810 390 98 444 811 399 813 395 445 100 840 449 819 401 820 448 844 842 402 822 450 845 846 847
225 12 2 4 6 390 98 444 811 126 17 145 560 401 820 397 448 101 844 451 826 128 561 146 566 846 403 827 452 848 567 849
226 12 2 4 6 335 85 13 82 810 443 137 545 341 339 812 87 446 84 139 548 840 830 453 555 343 841 831 454 556 850 851
227 12 2 4 6 810 443 137 545 811 444 138 546 840 830 819 453 449 555 140 551 844 834 455 557 850 845 835 456 558 852 853
228 12 2 4 6 811 444 138 546 560 145 22 170 844 834 826 455 451 557 141 553 566 564 147 172 852 848 838 457 559 568 854
$EndElements
