$MeshFormat
2.2 0 8
$EndMeshFormat
$PhysicalNames
4
2 1 "bc-bot"
2 2 "bc-top"
3 3 "cube"
3 4 "cylinder"
$EndPhysicalNames
$Nodes
66
1 0 0 0.01
2 0 0 0
3 0 0.01 0.01
4 0 0.01 0
5 0.01 0 0.01
6 0.01 0 0
7 0.01 0.01 0.01
8 0.01 0.01 0
9 0.016 0.012 0.009999999999999998
10 0.016 0 0.009999999999999998
11 0 0 0.004999999999999999
12 0 0.004999999999999999 0.01
13 0 0.01 0.004999999999999999
14 0 0.004999999999999999 0
15 0.01 0 0.004999999999999999
16 0.01 0.004999999999999999 0.01
17 0.01 0.01 0.004999999999999999
18 0.01 0.004999999999999999 0
19 0.004999999999999999 0 0
20 0.004999999999999999 0 0.01
21 0.004999999999999999 0.01 0
22 0.004999999999999999 0.01 0.01
23 0.01990915741234015 0.012 0.008117449009293669
24 0.02087463956090912 0.012 0.003887395330218428
25 0.01816941869558779 0.012 0.0004951556604879045
26 0.01383058130441221 0.012 0.0004951556604879045
27 0.01112536043909088 0.012 0.003887395330218427
28 0.01209084258765985 0.012 0.008117449009293667
29 0.016 0.003999999999999994 0.009999999999999998
30 0.016 0.007999999999999988 0.009999999999999998
31 0.01990915741234015 0 0.008117449009293669
32 0.02087463956090912 0 0.003887395330218428
33 0.01816941869558779 0 0.0004951556604879045
34 0.01383058130441221 0 0.0004951556604879045
35 0.01112536043909088 0 0.003887395330218427
36 0.01209084258765985 0 0.008117449009293667
37 0 0.004999999999999999 0.004999999999999999
38 0.01 0.004999999999999999 0.004999999999999999
39 0.004999999999999999 0 0.004999999999999999
40 0.004999999999999999 0.01 0.004999999999999999
41 0.004999999999999999 0.004999999999999999 0
42 0.004999999999999999 0.004999999999999999 0.01
43 0.01275038463814567 0.005999999999999991 0.008800000000000047
44 0.01924961536185438 0.005999999999999991 0.008800000000000006
45 0.01990500020678201 0.003483503119074818 0.001877345138342623
46 0.01209597219665201 0.008513093789102647 0.001876129498412931
47 0.01209084258765985 0.00372477560427264 0.001882550990706331
48 0.01990623184004173 0.008509758103720958 0.001878885966222282
49 0.01108935151258061 0.008358241732516224 0.005941026797177242
50 0.01108935151258061 0.003641758267483772 0.005941026797177242
51 0.02091064848740918 0.003641758267464982 0.005941026797230549
52 0.02091064848740917 0.008358241732535018 0.005941026797230558
53 0.016 0.003724775604272621 0
54 0.01599934045703985 0.008523212726636762 4.349969169592516e-11
55 0.01318751479377388 0.009161118523125161 0.009133996488237409
56 0.01884062351846867 0.009146639479333012 0.009114712386828839
57 0.01881248520622433 0.002838881476875096 0.009133996488238625
58 0.01315937648153136 0.002853360520666978 0.009114712386828854
59 0.01383365749963892 0.006026267739932737 0.0004936755364122617
60 0.01818760666948364 0.006016885909036299 0.0005039598467506193
61 0.02077317550890808 0.005989028062605293 0.003511109285017832
62 0.01122460942082301 0.006052549142218089 0.003518229162013358
63 0.016 0.012 0.005
64 0.016 0 0.005
65 0.004999999999999999 0.004999999999999999 0.004999999999999999
66 0.016 0.006959459459459453 0.005067567567567558
$EndNodes
$Elements
106
1 2 2 2 8 23 63 9
2 2 2 2 8 9 63 28
3 2 2 2 8 24 63 23
4 2 2 2 8 25 63 24
5 2 2 2 8 26 63 25
6 2 2 2 8 27 63 26
7 2 2 2 8 28 63 27
8 2 2 1 9 31 10 64
9 2 2 1 9 10 36 64
10 2 2 1 9 32 31 64
11 2 2 1 9 33 32 64
12 2 2 1 9 34 33 64
13 2 2 1 9 35 34 64
14 2 2 1 9 36 35 64
15 3 2 1 3 2 19 39 11
16 3 2 1 3 11 39 20 1
17 3 2 1 3 19 6 15 39
18 3 2 1 3 39 15 5 20
19 3 2 2 4 4 13 40 21
20 3 2 2 4 13 3 22 40
21 3 2 2 4 21 40 17 8
22 3 2 2 4 40 22 7 17
23 4 2 4 2 29 57 64 66
24 4 2 4 2 58 29 64 66
25 4 2 4 2 47 64 53 66
26 4 2 4 2 64 45 53 66
27 4 2 4 2 51 64 57 66
28 4 2 4 2 58 64 50 66
29 4 2 4 2 50 64 47 66
30 4 2 4 2 45 64 51 66
31 4 2 4 2 57 29 44 66
32 4 2 4 2 43 29 58 66
33 4 2 4 2 57 44 51 66
34 4 2 4 2 43 58 50 66
35 4 2 4 2 60 53 45 66
36 4 2 4 2 45 51 61 66
37 4 2 4 2 47 53 59 66
38 4 2 4 2 50 47 62 66
39 4 2 4 2 55 63 30 66
40 4 2 4 2 63 56 30 66
41 4 2 4 2 54 63 46 66
42 4 2 4 2 54 48 63 66
43 4 2 4 2 29 30 44 66
44 4 2 4 2 43 30 29 66
45 4 2 4 2 49 46 63 66
46 4 2 4 2 52 63 48 66
47 4 2 4 2 49 63 55 66
48 4 2 4 2 45 61 60 66
49 4 2 4 2 63 52 56 66
50 4 2 4 2 44 61 51 66
51 4 2 4 2 62 43 50 66
52 4 2 4 2 64 34 47 53
53 4 2 4 2 29 10 64 57
54 4 2 4 2 9 30 55 63
55 4 2 4 2 44 52 61 66
56 4 2 4 2 58 29 10 64
57 4 2 4 2 30 9 56 63
58 4 2 4 2 62 49 43 66
59 4 2 4 2 53 45 64 33
60 4 2 4 2 47 59 62 66
61 4 2 4 2 63 54 25 48
62 4 2 4 2 46 54 26 63
63 4 2 4 2 60 59 53 66
64 4 2 4 2 35 47 50 64
65 4 2 4 2 49 46 27 63
66 4 2 4 2 24 52 63 48
67 4 2 4 2 51 64 45 32
68 4 2 4 2 55 30 43 66
69 4 2 4 2 44 30 56 66
70 4 2 4 2 49 28 55 63
71 4 2 4 2 64 51 57 31
72 4 2 4 2 50 58 36 64
73 4 2 4 2 63 23 56 52
74 4 2 4 2 59 54 46 66
75 4 2 4 2 60 48 54 66
76 4 2 4 2 49 55 43 66
77 4 2 4 2 44 56 52 66
78 4 2 4 2 48 60 61 66
79 4 2 4 2 62 59 46 66
80 4 2 4 2 52 48 61 66
81 4 2 4 2 59 60 54 66
82 4 2 4 2 49 62 46 66
83 4 2 4 2 35 34 47 64
84 4 2 4 2 64 34 53 33
85 4 2 4 2 51 44 52 61
86 4 2 4 2 43 49 62 50
87 4 2 4 2 25 24 63 48
88 4 2 4 2 27 46 26 63
89 4 2 4 2 33 45 64 32
90 4 2 4 2 54 26 63 25
91 4 2 4 2 28 49 27 63
92 4 2 4 2 36 35 50 64
93 4 2 4 2 52 63 23 24
94 4 2 4 2 64 51 31 32
95 4 2 4 2 10 64 57 31
96 4 2 4 2 9 55 28 63
97 4 2 4 2 36 58 10 64
98 4 2 4 2 23 56 9 63
99 5 2 3 1 37 11 2 14 65 39 19 41
100 5 2 3 1 65 39 19 41 38 15 6 18
101 5 2 3 1 13 37 14 4 40 65 41 21
102 5 2 3 1 40 65 41 21 17 38 18 8
103 5 2 3 1 12 1 11 37 42 20 39 65
104 5 2 3 1 42 20 39 65 16 5 15 38
105 5 2 3 1 3 12 37 13 22 42 65 40
106 5 2 3 1 22 42 65 40 7 16 38 17
$EndElements
