$MeshFormat
2.2 0 8
$EndMeshFormat
$PhysicalNames
4
2 1 "bc-bot"
2 2 "bc-top"
3 3 "cube"
3 4 "cylinder"
$EndPhysicalNames
$Nodes
314
1 0 0 0.01
2 0 0 0
3 0 0.01 0.01
4 0 0.01 0
5 0.01 0 0.01
6 0.01 0 0
7 0.01 0.01 0.01
8 0.01 0.01 0
9 0.016 0.012 0.009999999999999998
10 0.016 0 0.009999999999999998
11 0 0 0.004999999999999999
12 0 0 0.0025
13 0 0 0.0075
14 0 0.004999999999999999 0.01
15 0 0.0025 0.01
16 0 0.0075 0.01
17 0 0.01 0.004999999999999999
18 0 0.01 0.0025
19 0 0.01 0.0075
20 0 0.004999999999999999 0
21 0 0.0025 0
22 0 0.0075 0
23 0.01 0 0.004999999999999999
24 0.01 0 0.0025
25 0.01 0 0.0075
26 0.01 0.004999999999999999 0.01
27 0.01 0.0025 0.01
28 0.01 0.0075 0.01
29 0.01 0.01 0.004999999999999999
30 0.01 0.01 0.0025
31 0.01 0.01 0.0075
32 0.01 0.004999999999999999 0
33 0.01 0.0025 0
34 0.01 0.0075 0
35 0.004999999999999999 0 0
36 0.0025 0 0
37 0.0075 0 0
38 0.004999999999999999 0 0.01
39 0.0025 0 0.01
40 0.0075 0 0.01
41 0.004999999999999999 0.01 0
42 0.0025 0.01 0
43 0.0075 0.01 0
44 0.004999999999999999 0.01 0.01
45 0.0025 0.01 0.01
46 0.0075 0.01 0.01
47 0.01990924239646448 0.012 0.008117342439592523
48 0.02087463956090912 0.012 0.003887395330218428
49 0.01816941869558779 0.012 0.0004951556604879045
50 0.01383058130441221 0.012 0.0004951556604879045
51 0.01112536043909088 0.012 0.003887395330218427
52 0.01209084258765985 0.012 0.008117449009293667
53 0.01816920970443989 0.012 0.009504944978372521
54 0.02087463203508375 0.012 0.006112637642062909
55 0.01990915741234015 0.012 0.001882550990706333
56 0.01600000019138103 0.012 3.469446951953614e-18
57 0.01209084258765985 0.012 0.001882550990706331
58 0.01112537139487686 0.012 0.006112652669126908
59 0.01383058130441221 0.012 0.009504844339512096
60 0.016 0.003999999999999994 0.009999999999999998
61 0.016 0.007999999999999988 0.009999999999999998
62 0.016 0.001999999999999997 0.009999999999999998
63 0.016 0.005999999502747404 0.009999999999999998
64 0.016 0.009999999999999993 0.009999999999999998
65 0.01990915741234015 0 0.008117449009293669
66 0.02087463956090912 0 0.003887395330218428
67 0.01816941869558779 0 0.0004951556604879045
68 0.01383058090860731 0 0.0004951558510975203
69 0.01112535869780297 0 0.003887402959326769
70 0.01209075562506694 0 0.008117339958531028
71 0.01816941869558779 0 0.009504844339512096
72 0.02087462856829985 0 0.006112652830452952
73 0.01990915741234015 0 0.001882550990706333
74 0.01600001578645669 0 2.492103745588281e-14
75 0.01209084268559369 0 0.001882550867901186
76 0.01112537147217058 0 0.00611265300775739
77 0.01383080748610227 0 0.009504953255878471
78 0 0.004999999999999999 0.004999999999999999
79 0 0.0025 0.004999999999999999
80 0 0.004999999999999999 0.0025
81 0 0.0025 0.0025
82 0 0.0075 0.004999999999999999
83 0 0.0075 0.0025
84 0 0.004999999999999999 0.0075
85 0 0.0025 0.0075
86 0 0.0075 0.0075
87 0.01 0.004999999999999999 0.004999999999999999
88 0.01 0.004999999999999999 0.0025
89 0.01 0.0025 0.004999999999999999
90 0.01 0.0025 0.0025
91 0.01 0.0075 0.004999999999999999
92 0.01 0.0075 0.0025
93 0.01 0.004999999999999999 0.0075
94 0.01 0.0025 0.0075
95 0.01 0.0075 0.0075
96 0.004999999999999999 0 0.004999999999999999
97 0.004999999999999999 0 0.0025
98 0.0025 0 0.004999999999999999
99 0.0025 0 0.0025
100 0.004999999999999999 0 0.0075
101 0.0025 0 0.0075
102 0.0075 0 0.004999999999999999
103 0.0075 0 0.0025
104 0.0075 0 0.0075
105 0.004999999999999999 0.01 0.004999999999999999
106 0.0025 0.01 0.004999999999999999
107 0.004999999999999999 0.01 0.0025
108 0.0025 0.01 0.0025
109 0.004999999999999999 0.01 0.0075
110 0.0025 0.01 0.0075
111 0.0075 0.01 0.004999999999999999
112 0.0075 0.01 0.0025
113 0.0075 0.01 0.0075
114 0.004999999999999999 0.004999999999999999 0
115 0.0025 0.004999999999999999 0
116 0.004999999999999999 0.0025 0
117 0.0025 0.0025 0
118 0.0075 0.004999999999999999 0
119 0.0075 0.0025 0
120 0.004999999999999999 0.0075 0
121 0.0025 0.0075 0
122 0.0075 0.0075 0
123 0.004999999999999999 0.004999999999999999 0.01
124 0.004999999999999999 0.0025 0.01
125 0.0025 0.004999999999999999 0.01
126 0.0025 0.0025 0.01
127 0.0075 0.004999999999999999 0.01
128 0.0075 0.0025 0.01
129 0.004999999999999999 0.0075 0.01
130 0.0025 0.0075 0.01
131 0.0075 0.0075 0.01
132 0.01263401722129631 0.006003404640545236 0.008697317937839561
133 0.0193657267885331 0.006003482540204078 0.008697550971244437
134 0.01990500020678201 0.003483503119074818 0.001877345138342623
135 0.01209597219665201 0.008513093789102647 0.001876129498412931
136 0.01209084258765985 0.00372477560427264 0.001882550990706331
137 0.01990623184004173 0.008509758103720958 0.001878885966222282
138 0.0110900349342757 0.008371352013655254 0.005944586181016306
139 0.01109006156756806 0.003636566810463749 0.005944724610522967
140 0.02090995549972895 0.003637480762465006 0.00594463590376475
141 0.02091001298224208 0.00837132331022033 0.005944337076585573
142 0.016 0.003724775604272621 0
143 0.01599934045703985 0.008523212726636762 4.349969169592516e-11
144 0.01318751479377388 0.009161118523125161 0.009133996488237409
145 0.01884136616723179 0.009145723012140061 0.009114199594539692
146 0.01881248520622433 0.002838881476875096 0.009133996488238625
147 0.01315937648153136 0.002853360520666978 0.009114712386828854
148 0.01383365749963892 0.006026267739932737 0.0004936755364122617
149 0.01818760666948364 0.006016885909036299 0.0005039598467506193
150 0.02080789153991367 0.005990688136161215 0.00362734602305367
151 0.01119010338411708 0.006053393451609653 0.003634388582166212
152 0.01452860311968304 0.01058055926156258 0.009778597202170686
153 0.01452860311968304 0.008580559261562575 0.009778597202170686
154 0.01748819730827552 0.00857134606716952 0.009773391747137615
155 0.01749032711420136 0.01057814800678348 0.009772727217501149
156 0.01940844924108797 0.01057632046794772 0.00865820635980624
157 0.01260096159669116 0.01058055926156258 0.00866695213124356
158 0.01747139688031592 0.001419440738437548 0.009778597202171006
159 0.01747232559082941 0.003422809891769977 0.009778311140412355
160 0.01451231084129517 0.003426680260333486 0.009773550142930534
161 0.01451231084129517 0.001426680260333489 0.009773550142930534
162 0.01939903840330805 0.001419440738437548 0.008666952131244295
163 0.01259157612324004 0.001423712677684843 0.008658229992268476
164 0.01426512309253449 0.00700019721842189 0.009689371185558134
165 0.01426447840454475 0.004998247187143615 0.009689132626798741
166 0.01773561689069104 0.004998195169476951 0.009689097355435047
167 0.01773486941284055 0.007000160852370817 0.009689373958258213
168 0.01295530168707015 0.004425711709407972 0.008966082725214156
169 0.01903101043021578 0.004418563699860341 0.008976553252745791
170 0.01296716457440855 0.007581929476450979 0.008975161541532307
171 0.01904635561737986 0.007574766980542884 0.008964809888564414
172 0.02054353051683345 0.01018221244406438 0.007087182417184271
173 0.02099929392343432 0.01018194360905885 0.004915974604358493
174 0.02018807319675175 0.00874889477612484 0.007731307909894
175 0.02050382649602803 0.01025487905186048 0.002828468997763138
176 0.01911561546849507 0.01025487905186048 0.001089381090866273
177 0.02085370295301082 0.008430212685861334 0.003799346992701852
178 0.01710857303819568 0.01026453955914955 0.0001244419992183863
179 0.0148907832842148 0.01026454008111253 0.0001245883991787232
180 0.01816700872623625 0.008516485415178861 0.000493995874345436
181 0.01288576489662113 0.01025654689455132 0.001088281743161603
182 0.01149694018087531 0.01025654689455132 0.002826879601728262
183 0.01383398724588174 0.008518153257869705 0.0004935170310987509
184 0.01100070610335064 0.01018193551856933 0.004915973010737701
185 0.01145647278214659 0.01018221229505633 0.007087189598629038
186 0.01114672124807879 0.008431784244634623 0.003797633435199548
187 0.01182129085326631 0.008756134970975877 0.007745612839969281
188 0.02099929417765802 0.001818082948295971 0.004915989731373906
189 0.02054353360487339 0.001817808293625646 0.007087175694901172
190 0.02017873171586757 0.003242134279928971 0.007745578490373654
191 0.01911484400709569 0.001741751559537409 0.001088766586937052
192 0.02050339805658692 0.001741751559537409 0.002827580624297157
193 0.02085347757769718 0.003561614686137409 0.003798436267695
194 0.01489110149727537 0.001859684189236184 0.0001245160126757605
195 0.01710903304061961 0.001859765633165812 0.000124546614435327
196 0.01816623571725174 0.003603455686138181 0.0004936242037194873
197 0.01149680412616733 0.001859594649998193 0.002827161551818355
198 0.01287958032212233 0.001859684402906512 0.001093213464506438
199 0.01383058130441221 0.003724775604272631 0.0004951556604879045
200 0.01145646336572947 0.001817810443915977 0.007087169100250772
201 0.01100070359867909 0.001818004598480553 0.004916122161807703
202 0.01114577914015073 0.003682256256455078 0.003801442598869683
203 0.01181193376080589 0.003249450138471265 0.007731318578291903
204 0.01109033527665217 0.006000071696256798 0.005946146026950308
205 0.01175207346920692 0.004844084107399714 0.007637256185694571
206 0.01175255748655678 0.007147281768558473 0.00763803565081959
207 0.02090967743625135 0.006000075957844782 0.005946080055790394
208 0.02024737822905779 0.007147849029143283 0.007638139150864852
209 0.02024799290680006 0.004843108936797152 0.007637149268391224
210 0.02041186483679137 0.00474142442096376 0.002647246578605422
211 0.02098201203948421 0.004814639036190943 0.004576259468029839
212 0.01711560167410842 0.004878936170524842 0.0001260454552051374
213 0.01912701708985971 0.004755660375239693 0.001098492071041591
214 0.01979260847817852 0.005997689627126259 0.001741761069036159
215 0.01158427641574672 0.007282207771936532 0.002654496807192665
216 0.01101790175441635 0.007200989404547683 0.004577274236233051
217 0.01488873795303934 0.007274740233284749 0.0001250541887129865
218 0.01288682455261506 0.007269302439395622 0.001087438353993697
219 0.01221269847061934 0.006032819939716787 0.001735593909215502
220 0.01101768103186853 0.004847503062686245 0.004579883706817571
221 0.01158496527526635 0.004894794225619422 0.00265320039641301
222 0.01288388566413341 0.004875521672102688 0.001089778593761382
223 0.01488905947907611 0.004875521672102679 0.0001249809068097647
224 0.02098179310070825 0.00716902641895624 0.00457369318356877
225 0.02041480295612304 0.007248835798993417 0.00265276442200462
226 0.01912367323411392 0.007263138647030465 0.00109581435809204
227 0.01712213114401817 0.00727004931783653 0.0001275445927515686
228 0.01601181029135551 0.006021576824484518 1.394831764586074e-08
229 0.016 0.012 0.005
230 0.01796008125960466 0.012 0.006563259873006648
231 0.016 0.012 0.0075
232 0.01404542129382992 0.012 0.006558724504646833
233 0.01843731978045456 0.012 0.004443697665109214
234 0.01708470934779389 0.012 0.002747577830243952
235 0.0149152906522061 0.012 0.002747577830243952
236 0.01356268021954544 0.012 0.004443697665109213
237 0.016 0 0.005
238 0.016 0 0.0075
239 0.01795457870617008 0 0.006558724504646834
240 0.01403992462433651 0 0.006563275158964209
241 0.01843731978045456 0 0.004443697665109214
242 0.01708470934779389 0 0.002747577830243952
243 0.01491213152459266 0 0.002741040346430669
244 0.01355566963603158 0 0.004442117103205767
245 0.004999999999999999 0.004999999999999999 0.004999999999999999
246 0.0025 0.004999999999999999 0.004999999999999999
247 0.004999999999999999 0.0025 0.004999999999999999
248 0.004999999999999999 0.004999999999999999 0.0025
249 0.0025 0.0025 0.004999999999999999
250 0.0025 0.004999999999999999 0.0025
251 0.004999999999999999 0.0025 0.0025
252 0.0025 0.0025 0.0025
253 0.0075 0.004999999999999999 0.004999999999999999
254 0.0075 0.0025 0.004999999999999999
255 0.0075 0.004999999999999999 0.0025
256 0.007499999999999999 0.0025 0.0025
257 0.004999999999999999 0.0075 0.004999999999999999
258 0.0025 0.0075 0.004999999999999999
259 0.004999999999999999 0.0075 0.0025
260 0.0025 0.0075 0.0025
261 0.0075 0.0075 0.004999999999999999
262 0.007499999999999999 0.0075 0.0025
263 0.004999999999999999 0.004999999999999999 0.0075
264 0.0025 0.004999999999999999 0.0075
265 0.004999999999999999 0.0025 0.0075
266 0.0025 0.0025 0.0075
267 0.0075 0.004999999999999999 0.0075
268 0.007499999999999999 0.0025 0.0075
269 0.004999999999999999 0.0075 0.0075
270 0.0025 0.0075 0.0075
271 0.007499999999999999 0.0075 0.0075
272 0.016 0.006959459459459453 0.005067567567567558
273 0.01740624260311217 0.001419440738437548 0.007066998244119313
274 0.016 0.001999999999999997 0.0075
275 0.01600000342521903 0.005479255182493458 0.007544477223347892
276 0.016 0.003479729729729726 0.005033783783783779
277 0.01741073205544284 0.00490002785427256 0.007107797337742759
278 0.01457968824076568 0.001426680260333489 0.007057356193414428
279 0.01457519612275327 0.004907288131224359 0.007098148273285637
280 0.01404542129382993 0.00186238780213632 0.003441275495353166
281 0.016 0.00186238780213631 0.0025
282 0.01404542129382993 0.005342117531866046 0.003475059279136945
283 0.016 0.005342117531866037 0.002533783783783779
284 0.01795250010339101 0.001741751559537409 0.003438672569171312
285 0.01795993894606891 0.005220064686129664 0.003465848355912429
286 0.01846469986011962 0.001822193669987329 0.005472372665490327
287 0.01847310084580111 0.005302204647364131 0.005509056726336464
288 0.01353540882161185 0.001822101135309481 0.005472501146595934
289 0.01352728827557045 0.005302042396640597 0.005508952669372897
290 0.01762775217800497 0.006478130498856935 0.006940380997788339
291 0.01437214415016943 0.006478164415791496 0.006940374143575396
292 0.01709380333474182 0.006488172684247876 0.002785763707159089
293 0.01839106811813331 0.00647449423452184 0.00428460462796287
294 0.01491682874981946 0.006492863599696095 0.00278062155198991
295 0.01360761607304776 0.006506195807151068 0.004287932620720668
296 0.01459375739688694 0.01058055926156258 0.007066998244118704
297 0.016 0.009999999999999995 0.0075
298 0.0145888863655548 0.00806132479725989 0.007106057821377629
299 0.01600001776869802 0.007481272575843006 0.007543620688255032
300 0.016 0.009479729729729727 0.005033783783783779
301 0.0174248039624497 0.01057316648480561 0.007064983505063392
302 0.01742511447629702 0.008054047167535754 0.007096428843151198
303 0.01599967022851993 0.01026160636331838 0.002500000021749846
304 0.014047986098326 0.01025654689455132 0.003438064749206465
305 0.01599967022851993 0.007741336093048107 0.002533783805533625
306 0.014047986098326 0.00773627662428105 0.003471848532990244
307 0.01795311592002086 0.01025487905186048 0.003439442983111141
308 0.01795311592002086 0.007734608781590205 0.00347322676689492
309 0.01353706883668245 0.01017527614533865 0.005472325135784484
310 0.01352972107792717 0.007659173838356058 0.005507030294624316
311 0.01846288300175852 0.01017538171140344 0.005472312223857093
312 0.01847023435134782 0.007659203557055536 0.005507039766949554
313 0.02009209304974357 0.006000515847125638 0.006197280849954229
314 0.01190608110573824 0.006032239855402631 0.006201612955457565
$EndNodes
$Elements
106
1 9 2 2 8 47 229 9 230 231 53
2 9 2 2 8 9 229 52 231 232 59
3 9 2 2 8 48 229 47 233 230 54
4 9 2 2 8 49 229 48 234 233 55
5 9 2 2 8 50 229 49 235 234 56
6 9 2 2 8 51 229 50 236 235 57
7 9 2 2 8 52 229 51 232 236 58
8 9 2 1 9 65 10 237 71 238 239
9 9 2 1 9 10 70 237 77 240 238
10 9 2 1 9 66 65 237 72 239 241
11 9 2 1 9 67 66 237 73 241 242
12 9 2 1 9 68 67 237 74 242 243
13 9 2 1 9 69 68 237 75 243 244
14 9 2 1 9 70 69 237 76 244 240
15 10 2 1 3 2 35 96 11 36 97 98 12 99
16 10 2 1 3 11 96 38 1 98 100 39 13 101
17 10 2 1 3 35 6 23 96 37 24 102 97 103
18 10 2 1 3 96 23 5 38 102 25 40 100 104
19 10 2 2 4 4 17 105 41 18 106 107 42 108
20 10 2 2 4 17 3 44 105 19 45 109 106 110
21 10 2 2 4 41 105 29 8 107 111 30 43 112
22 10 2 2 4 105 44 7 29 109 46 31 111 113
23 11 2 4 2 60 146 237 272 159 273 274 275 276 277
24 11 2 4 2 147 60 237 272 160 274 278 279 276 275
25 11 2 4 2 136 237 142 272 280 281 199 282 283 276
26 11 2 4 2 237 134 142 272 284 196 281 276 283 285
27 11 2 4 2 140 237 146 272 286 273 190 287 277 276
28 11 2 4 2 147 237 139 272 278 288 203 279 289 276
29 11 2 4 2 139 237 136 272 288 280 202 289 282 276
30 11 2 4 2 134 237 140 272 284 286 193 285 287 276
31 11 2 4 2 146 60 133 272 159 166 169 277 290 275
32 11 2 4 2 132 60 147 272 165 160 168 291 279 275
33 11 2 4 2 146 133 140 272 169 209 190 277 287 290
34 11 2 4 2 132 147 139 272 168 203 205 291 289 279
35 11 2 4 2 149 142 134 272 212 196 213 292 285 283
36 11 2 4 2 134 140 150 272 193 211 210 285 293 287
37 11 2 4 2 136 142 148 272 199 223 222 282 294 283
38 11 2 4 2 139 136 151 272 202 221 220 289 295 282
39 11 2 4 2 144 229 61 272 296 297 153 298 299 300
40 11 2 4 2 229 145 61 272 301 154 297 300 299 302
41 11 2 4 2 143 229 135 272 303 304 183 305 306 300
42 11 2 4 2 143 137 229 272 180 307 303 305 300 308
43 11 2 4 2 60 61 133 272 63 167 166 275 290 299
44 11 2 4 2 132 61 60 272 164 63 165 291 275 299
45 11 2 4 2 138 135 229 272 186 304 309 310 300 306
46 11 2 4 2 141 229 137 272 311 307 177 312 308 300
47 11 2 4 2 138 229 144 272 309 296 187 310 298 300
48 11 2 4 2 134 150 149 272 210 214 213 285 292 293
49 11 2 4 2 229 141 145 272 311 174 301 300 302 312
50 11 2 4 2 133 150 140 272 313 211 209 290 287 293
51 11 2 4 2 151 132 139 272 314 205 220 295 289 291
52 11 2 4 2 237 68 136 142 243 198 280 281 199 194
53 11 2 4 2 60 10 237 146 62 238 274 159 273 158
54 11 2 4 2 9 61 144 229 64 153 152 231 296 297
55 11 2 4 2 133 141 150 272 208 224 313 290 293 312
56 11 2 4 2 147 60 10 237 160 62 161 278 238 274
57 11 2 4 2 61 9 145 229 64 155 154 297 301 231
58 11 2 4 2 151 138 132 272 216 206 314 295 291 310
59 11 2 4 2 142 134 237 67 196 284 281 195 242 191
60 11 2 4 2 136 148 151 272 222 219 221 282 295 294
61 11 2 4 2 229 143 49 137 303 178 234 307 176 180
62 11 2 4 2 135 143 50 229 183 179 181 304 235 303
63 11 2 4 2 149 148 142 272 228 223 212 292 283 294
64 11 2 4 2 69 136 139 237 197 202 201 244 288 280
65 11 2 4 2 138 135 51 229 186 182 184 309 236 304
66 11 2 4 2 48 141 229 137 173 311 233 175 307 177
67 11 2 4 2 140 237 134 66 286 284 193 188 192 241
68 11 2 4 2 144 61 132 272 153 164 170 298 291 299
69 11 2 4 2 133 61 145 272 167 154 171 290 302 299
70 11 2 4 2 138 52 144 229 185 157 187 309 296 232
71 11 2 4 2 237 140 146 65 286 190 273 239 162 189
72 11 2 4 2 139 147 70 237 203 163 200 288 240 278
73 11 2 4 2 229 47 145 141 230 156 301 311 174 172
74 11 2 4 2 148 143 135 272 217 183 218 294 306 305
75 11 2 4 2 149 137 143 272 226 180 227 292 305 308
76 11 2 4 2 138 144 132 272 187 170 206 310 291 298
77 11 2 4 2 133 145 141 272 171 174 208 290 312 302
78 11 2 4 2 137 149 150 272 226 214 225 308 293 292
79 11 2 4 2 151 148 135 272 219 218 215 295 306 294
80 11 2 4 2 141 137 150 272 177 225 224 312 293 308
81 11 2 4 2 148 149 143 272 228 227 217 294 305 292
82 11 2 4 2 138 151 135 272 216 215 186 310 306 295
83 11 2 4 2 69 68 136 237 75 198 197 244 280 243
84 11 2 4 2 237 68 142 67 243 194 281 242 195 74
85 11 2 4 2 140 133 141 150 209 208 207 211 224 313
86 11 2 4 2 132 138 151 139 206 216 314 205 220 204
87 11 2 4 2 49 48 229 137 55 233 234 176 307 175
88 11 2 4 2 51 135 50 229 182 181 57 236 235 304
89 11 2 4 2 67 134 237 66 191 284 242 73 241 192
90 11 2 4 2 143 50 229 49 179 235 303 178 234 56
91 11 2 4 2 52 138 51 229 185 184 58 232 236 309
92 11 2 4 2 70 69 139 237 76 201 200 240 288 244
93 11 2 4 2 141 229 47 48 311 230 172 173 54 233
94 11 2 4 2 237 140 65 66 286 189 239 241 72 188
95 11 2 4 2 10 237 146 65 238 273 158 71 162 239
96 11 2 4 2 9 144 52 229 152 157 59 231 232 296
97 11 2 4 2 70 147 10 237 163 161 77 240 238 278
98 11 2 4 2 47 145 9 229 156 155 53 230 231 301
99 12 2 3 1 78 11 2 20 245 96 35 114 79 80 246 12 98 21 36 115 247 248 97 116 81 249 250 99 117 251 252
100 12 2 3 1 245 96 35 114 87 23 6 32 247 248 253 97 102 116 37 118 89 88 24 33 251 254 255 103 119 90 256
101 12 2 3 1 17 78 20 4 105 245 114 41 82 18 106 80 246 22 115 42 257 107 248 120 83 258 108 250 121 259 260
102 12 2 3 1 105 245 114 41 29 87 32 8 257 107 111 248 253 120 118 43 91 30 88 34 259 261 112 255 122 92 262
103 12 2 3 1 14 1 11 78 123 38 96 245 15 84 125 13 39 79 98 246 124 263 100 247 85 126 264 101 249 265 266
104 12 2 3 1 123 38 96 245 26 5 23 87 124 263 127 100 40 247 102 253 27 93 25 89 265 128 267 104 254 94 268
105 12 2 3 1 3 14 78 17 44 123 245 105 16 19 45 84 125 82 246 106 129 109 263 257 86 130 110 264 258 269 270
106 12 2 3 1 44 123 245 105 7 26 87 29 129 109 46 263 127 257 253 111 28 31 93 91 269 131 113 267 261 95 271
$EndElements
