$MeshFormat
4.1 0 8
$EndMeshFormat
$PhysicalNames
3
2 1 "bc-bot"
2 2 "bc-top"
3 3 "vol"
$EndPhysicalNames
$Entities
8 12 6 1
1 0 0 0.01 0 
2 0 0 0 0 
3 0 0.01 0.01 0 
4 0 0.01 0 0 
5 0.01 0 0.01 0 
6 0.01 0 0 0 
7 0.01 0.01 0.01 0 
8 0.01 0.01 0 0 
1 -1e-07 -1e-07 -1.000000000002735e-07 1e-07 1e-07 0.0100001 0 2 2 -1 
2 -1e-07 -1.000000000002735e-07 0.009999900000000001 1e-07 0.0100001 0.0100001 0 2 1 -3 
3 -1e-07 0.009999900000000001 -1.000000000002735e-07 1e-07 0.0100001 0.0100001 0 2 4 -3 
4 -1e-07 -1.000000000002735e-07 -1e-07 1e-07 0.0100001 1e-07 0 2 2 -4 
5 0.009999900000000001 -1e-07 -1.000000000002735e-07 0.0100001 1e-07 0.0100001 0 2 6 -5 
6 0.009999900000000001 -1.000000000002735e-07 0.009999900000000001 0.0100001 0.0100001 0.0100001 0 2 5 -7 
7 0.009999900000000001 0.009999900000000001 -1.000000000002735e-07 0.0100001 0.0100001 0.0100001 0 2 8 -7 
8 0.009999900000000001 -1.000000000002735e-07 -1e-07 0.0100001 0.0100001 1e-07 0 2 6 -8 
9 -1.000000000002735e-07 -1e-07 -1e-07 0.0100001 1e-07 1e-07 0 2 2 -6 
10 -1.000000000002735e-07 -1e-07 0.009999900000000001 0.0100001 1e-07 0.0100001 0 2 1 -5 
11 -1.000000000002735e-07 0.009999900000000001 -1e-07 0.0100001 0.0100001 1e-07 0 2 4 -8 
12 -1.000000000002735e-07 0.009999900000000001 0.009999900000000001 0.0100001 0.0100001 0.0100001 0 2 3 -7 
1 -1e-07 -1.000000000002735e-07 -1.000000000002735e-07 1e-07 0.0100001 0.0100001 0 4 -1 4 3 -2 
2 0.009999900000000001 -1.000000000002735e-07 -1.000000000002735e-07 0.0100001 0.0100001 0.0100001 0 4 -5 8 7 -6 
3 -1.000000000002735e-07 -1e-07 -1.000000000002735e-07 0.0100001 1e-07 0.0100001 1 1 4 -9 1 10 -5 
4 -1.000000000002735e-07 0.009999900000000001 -1.000000000002735e-07 0.0100001 0.0100001 0.0100001 1 2 4 -11 3 12 -7 
5 -1.000000000002735e-07 -1.000000000002735e-07 -1e-07 0.0100001 0.0100001 1e-07 0 4 -4 9 8 -11 
6 -1.000000000002735e-07 -1.000000000002735e-07 0.009999900000000001 0.0100001 0.0100001 0.0100001 0 4 -2 10 6 -12 
1 -1.000000000002735e-07 -1.000000000002735e-07 -1.000000000002735e-07 0.0100001 0.0100001 0.0100001 1 3 6 -1 2 -3 4 -5 6 
$EndEntities
$Nodes
27 125 1 125
0 1 0 1
1
0 0 0.01
0 2 0 1
2
0 0 0
0 3 0 1
3
0 0.01 0.01
0 4 0 1
4
0 0.01 0
0 5 0 1
5
0.01 0 0.01
0 6 0 1
6
0.01 0 0
0 7 0 1
7
0.01 0.01 0.01
0 8 0 1
8
0.01 0.01 0
1 1 0 3
9
10
11
0 0 0.004999999999999999
0 0 0.0025
0 0 0.0075
1 2 0 3
12
13
14
0 0.004999999999999999 0.01
0 0.0025 0.01
0 0.0075 0.01
1 3 0 3
15
16
17
0 0.01 0.004999999999999999
0 0.01 0.0025
0 0.01 0.0075
1 4 0 3
18
19
20
0 0.004999999999999999 0
0 0.0025 0
0 0.0075 0
1 5 0 3
21
22
23
0.01 0 0.004999999999999999
0.01 0 0.0025
0.01 0 0.0075
1 6 0 3
24
25
26
0.01 0.004999999999999999 0.01
0.01 0.0025 0.01
0.01 0.0075 0.01
1 7 0 3
27
28
29
0.01 0.01 0.004999999999999999
0.01 0.01 0.0025
0.01 0.01 0.0075
1 8 0 3
30
31
32
0.01 0.004999999999999999 0
0.01 0.0025 0
0.01 0.0075 0
1 9 0 3
33
34
35
0.004999999999999999 0 0
0.0025 0 0
0.0075 0 0
1 10 0 3
36
37
38
0.004999999999999999 0 0.01
0.0025 0 0.01
0.0075 0 0.01
1 11 0 3
39
40
41
0.004999999999999999 0.01 0
0.0025 0.01 0
0.0075 0.01 0
1 12 0 3
42
43
44
0.004999999999999999 0.01 0.01
0.0025 0.01 0.01
0.0075 0.01 0.01
2 1 0 9
45
46
47
48
49
50
51
52
53
0 0.004999999999999999 0.004999999999999999
0 0.0025 0.004999999999999999
0 0.004999999999999999 0.0025
0 0.0025 0.0025
0 0.0075 0.004999999999999999
0 0.0075 0.0025
0 0.004999999999999999 0.0075
0 0.0025 0.0075
0 0.0075 0.0075
2 2 0 9
54
55
56
57
58
59
60
61
62
0.01 0.004999999999999999 0.004999999999999999
0.01 0.004999999999999999 0.0025
0.01 0.0025 0.004999999999999999
0.01 0.0025 0.0025
0.01 0.0075 0.004999999999999999
0.01 0.0075 0.0025
0.01 0.004999999999999999 0.0075
0.01 0.0025 0.0075
0.01 0.0075 0.0075
2 3 0 9
63
64
65
66
67
68
69
70
71
0.004999999999999999 0 0.004999999999999999
0.004999999999999999 0 0.0025
0.0025 0 0.004999999999999999
0.0025 0 0.0025
0.004999999999999999 0 0.0075
0.0025 0 0.0075
0.0075 0 0.004999999999999999
0.0075 0 0.0025
0.0075 0 0.0075
2 4 0 9
72
73
74
75
76
77
78
79
80
0.004999999999999999 0.01 0.004999999999999999
0.0025 0.01 0.004999999999999999
0.004999999999999999 0.01 0.0025
0.0025 0.01 0.0025
0.004999999999999999 0.01 0.0075
0.0025 0.01 0.0075
0.0075 0.01 0.004999999999999999
0.0075 0.01 0.0025
0.0075 0.01 0.0075
2 5 0 9
81
82
83
84
85
86
87
88
89
0.004999999999999999 0.004999999999999999 0
0.0025 0.004999999999999999 0
0.004999999999999999 0.0025 0
0.0025 0.0025 0
0.0075 0.004999999999999999 0
0.0075 0.0025 0
0.004999999999999999 0.0075 0
0.0025 0.0075 0
0.0075 0.0075 0
2 6 0 9
90
91
92
93
94
95
96
97
98
0.004999999999999999 0.004999999999999999 0.01
0.004999999999999999 0.0025 0.01
0.0025 0.004999999999999999 0.01
0.0025 0.0025 0.01
0.0075 0.004999999999999999 0.01
0.0075 0.0025 0.01
0.004999999999999999 0.0075 0.01
0.0025 0.0075 0.01
0.0075 0.0075 0.01
3 1 0 27
99
100
101
102
103
104
105
106
107
108
109
110
111
112
113
114
115
116
117
118
119
120
121
122
123
124
125
0.004999999999999999 0.004999999999999999 0.004999999999999999
0.0025 0.004999999999999999 0.004999999999999999
0.004999999999999999 0.0025 0.004999999999999999
0.004999999999999999 0.004999999999999999 0.0025
0.0025 0.0025 0.004999999999999999
0.0025 0.004999999999999999 0.0025
0.004999999999999999 0.0025 0.0025
0.0025 0.0025 0.0025
0.0075 0.004999999999999999 0.004999999999999999
0.0075 0.0025 0.004999999999999999
0.0075 0.004999999999999999 0.0025
0.007499999999999999 0.0025 0.0025
0.004999999999999999 0.0075 0.004999999999999999
0.0025 0.0075 0.004999999999999999
0.004999999999999999 0.0075 0.0025
0.0025 0.0075 0.0025
0.0075 0.0075 0.004999999999999999
0.007499999999999999 0.0075 0.0025
0.004999999999999999 0.004999999999999999 0.0075
0.0025 0.004999999999999999 0.0075
0.004999999999999999 0.0025 0.0075
0.0025 0.0025 0.0075
0.0075 0.004999999999999999 0.0075
0.007499999999999999 0.0025 0.0075
0.004999999999999999 0.0075 0.0075
0.0025 0.0075 0.0075
0.007499999999999999 0.0075 0.0075
$EndNodes
$Elements
3 16 1 16
2 3 10 4
1 2 33 63 9 34 64 65 10 66 
2 9 63 36 1 65 67 37 11 68 
3 33 6 21 63 35 22 69 64 70 
4 63 21 5 36 69 23 38 67 71 
2 4 10 4
5 4 15 72 39 16 73 74 40 75 
6 15 3 42 72 17 43 76 73 77 
7 39 72 27 8 74 78 28 41 79 
8 72 42 7 27 76 44 29 78 80 
3 1 12 8
9 45 9 2 18 99 63 33 81 46 47 100 10 65 19 34 82 101 102 64 83 48 103 104 66 84 105 106 
10 99 63 33 81 54 21 6 30 101 102 107 64 69 83 35 85 56 55 22 31 105 108 109 70 86 57 110 
11 15 45 18 4 72 99 81 39 49 16 73 47 100 20 82 40 111 74 102 87 50 112 75 104 88 113 114 
12 72 99 81 39 27 54 30 8 111 74 78 102 107 87 85 41 58 28 55 32 113 115 79 109 89 59 116 
13 12 1 9 45 90 36 63 99 13 51 92 11 37 46 65 100 91 117 67 101 52 93 118 68 103 119 120 
14 90 36 63 99 24 5 21 54 91 117 94 67 38 101 69 107 25 60 23 56 119 95 121 71 108 61 122 
15 3 12 45 15 42 90 99 72 14 17 43 51 92 49 100 73 96 76 117 111 53 97 77 118 112 123 124 
16 42 90 99 72 7 24 54 27 96 76 44 117 94 111 107 78 26 29 60 58 123 98 80 121 115 62 125 
$EndElements
