$MeshFormat
4.1 0 8
$EndMeshFormat
$PhysicalNames
3
1 1 "bc-top"
1 2 "bc-bot"
2 3 "vol"
$EndPhysicalNames
$Entities
5 5 1 0
5 0.015625 0.0175 0 0 
6 0 0 0 0 
7 0.025 0 0 0 
8 0 0.035 0 0 
9 0.025 0.035 0 0 
5 0.009374900000000002 0.0143749 -1e-07 0.0156251 0.0206251 1e-07 0 2 5 -5 
6 -9.999999999940612e-08 -1e-07 -1e-07 0.0250001 1e-07 1e-07 1 2 2 6 -7 
7 -1e-07 -9.999999999940612e-08 -1e-07 1e-07 0.03500010000000001 1e-07 0 2 8 -6 
8 0.0249999 -9.999999999940612e-08 -1e-07 0.0250001 0.03500010000000001 1e-07 0 2 7 -9 
9 -9.999999999940612e-08 0.0349999 -1e-07 0.0250001 0.03500010000000001 1e-07 1 1 2 9 -8 
1 -9.999999999940612e-08 -9.999999999940612e-08 -1e-07 0.0250001 0.03500010000000001 1e-07 1 3 5 6 8 9 7 -5 
$EndEntities
$Nodes
11 489 1 489
0 5 0 1
1
0.015625 0.0175 0
0 6 0 1
2
0 0 0
0 7 0 1
3
0.025 0 0
0 8 0 1
4
0 0.035 0
0 9 0 1
5
0.025 0.035 0
1 5 0 13
6
7
8
9
10
11
12
13
14
15
16
17
18
0.01444840563080854 0.0199432233827126 0
0.01180462208138651 0.0205466497255682 0
0.009684472287804934 0.01885588668474236 0
0.00968447228780495 0.01614411331525762 0
0.01180462208138653 0.0144533502744318 0
0.01444840563080855 0.01505677661728741 0
0.01531552771219506 0.01885588668474237 0
0.01319537791861348 0.0205466497255682 0
0.01055159436919145 0.01994322338271259 0
0.009375000000000001 0.01749999999999998 0
0.01055159436919147 0.0150567766172874 0
0.01319537791861349 0.01445335027443181 0
0.01531552771219506 0.01614411331525763 0
1 6 0 15
19
20
21
22
23
24
25
26
27
28
29
30
31
32
33
0.003124999999999997 0 0
0.006249999999999998 0 0
0.009374999999999996 0 0
0.0125 0 0
0.015625 0 0
0.01875 0 0
0.021875 0 0
0.001562499999999999 0 0
0.004687499999999997 0 0
0.007812499999999997 0 0
0.0109375 0 0
0.0140625 0 0
0.01718749999999999 0 0
0.0203125 0 0
0.0234375 0 0
1 7 0 19
34
35
36
37
38
39
40
41
42
43
44
45
46
47
48
49
50
51
52
0 0.03150000000000001 0
0 0.02800000000000001 0
0 0.02450000000000002 0
0 0.02100000000000003 0
0 0.01750000000000003 0
0 0.01400000000000002 0
0 0.01050000000000001 0
0 0.007000000000000003 0
0 0.003500000000000003 0
0 0.03325000000000001 0
0 0.02975000000000001 0
0 0.02625000000000002 0
0 0.02275000000000003 0
0 0.01925000000000003 0
0 0.01575000000000002 0
0 0.01225000000000002 0
0 0.008750000000000008 0
0 0.005250000000000005 0
0 0.001750000000000002 0
1 8 0 19
53
54
55
56
57
58
59
60
61
62
63
64
65
66
67
68
69
70
71
0.025 0.003499999999999996 0
0.025 0.006999999999999992 0
0.025 0.01049999999999998 0
0.025 0.01399999999999997 0
0.025 0.01749999999999997 0
0.025 0.02099999999999998 0
0.025 0.02449999999999999 0
0.025 0.028 0
0.025 0.0315 0
0.025 0.001749999999999998 0
0.025 0.005249999999999994 0
0.025 0.008749999999999987 0
0.025 0.01224999999999998 0
0.025 0.01574999999999997 0
0.025 0.01924999999999998 0
0.025 0.02274999999999999 0
0.025 0.02625 0
0.025 0.02975 0
0.025 0.03325 0
1 9 0 15
72
73
74
75
76
77
78
79
80
81
82
83
84
85
86
0.02187500000000001 0.035 0
0.01875 0.035 0
0.01562500000000001 0.035 0
0.0125 0.035 0
0.009375000000000005 0.035 0
0.006250000000000006 0.035 0
0.003125000000000003 0.035 0
0.0234375 0.035 0
0.0203125 0.035 0
0.0171875 0.035 0
0.0140625 0.035 0
0.0109375 0.035 0
0.007812500000000007 0.035 0
0.004687500000000004 0.035 0
0.001562500000000001 0.035 0
2 1 0 403
87
88
89
90
91
92
93
94
95
96
97
98
99
100
101
102
103
104
105
106
107
108
109
110
111
112
113
114
115
116
117
118
119
120
121
122
123
124
125
126
127
128
129
130
131
132
133
134
135
136
137
138
139
140
141
142
143
144
145
146
147
148
149
150
151
152
153
154
155
156
157
158
159
160
161
162
163
164
165
166
167
168
169
170
171
172
173
174
175
176
177
178
179
180
181
182
183
184
185
186
187
188
189
190
191
192
193
194
195
196
197
198
199
200
201
202
203
204
205
206
207
208
209
210
211
212
213
214
215
216
217
218
219
220
221
222
223
224
225
226
227
228
229
230
231
232
233
234
235
236
237
238
239
240
241
242
243
244
245
246
247
248
249
250
251
252
253
254
255
256
257
258
259
260
261
262
263
264
265
266
267
268
269
270
271
272
273
274
275
276
277
278
279
280
281
282
283
284
285
286
287
288
289
290
291
292
293
294
295
296
297
298
299
300
301
302
303
304
305
306
307
308
309
310
311
312
313
314
315
316
317
318
319
320
321
322
323
324
325
326
327
328
329
330
331
332
333
334
335
336
337
338
339
340
341
342
343
344
345
346
347
348
349
350
351
352
353
354
355
356
357
358
359
360
361
362
363
364
365
366
367
368
369
370
371
372
373
374
375
376
377
378
379
380
381
382
383
384
385
386
387
388
389
390
391
392
393
394
395
396
397
398
399
400
401
402
403
404
405
406
407
408
409
410
411
412
413
414
415
416
417
418
419
420
421
422
423
424
425
426
427
428
429
430
431
432
433
434
435
436
437
438
439
440
441
442
443
444
445
446
447
448
449
450
451
452
453
454
455
456
457
458
459
460
461
462
463
464
465
466
467
468
469
470
471
472
473
474
475
476
477
478
479
480
481
482
483
484
485
486
487
488
489
0.01364909639832324 0.01246547972995275 0
0.01364909639832321 0.02253452027004727 0
0.00826405976122435 0.002970157577489052 0
0.00826405976122432 0.03202984242251097 0
0.01103031114710096 0.01181465503146232 0
0.01103031114710091 0.02318534496853768 0
0.01700756657469792 0.03213424316925061 0
0.0170104866748145 0.00286738591314321 0
0.01287516355481217 0.02521023387694839 0
0.01559488580868997 0.02458902902031167 0
0.01287516355481223 0.009789766123051635 0
0.01559488580869001 0.01041097097968836 0
0.002690832927060311 0.008745665396807288 0
0.002713286219794083 0.02608641716045352 0
0.01711026324830803 0.01526609510199586 0
0.01711026324830803 0.01973390489800415 0
0.0100674725588131 0.009135792071881119 0
0.01006747255881302 0.02586420792811888 0
0.01205518930799801 0.007057210093050305 0
0.01205518930799793 0.02794278990694972 0
0.007340867174125557 0.01747082231247194 0
0.007214919513008702 0.01993006657549723 0
0.007294623913902861 0.01471654787875805 0
0.02198318568719352 0.008871833685458779 0
0.02198318568719351 0.0261281663145412 0
0.02204578901657631 0.0157099495797408 0
0.005035674242864482 0.01593797662492634 0
0.005229987086334458 0.01312579088196808 0
0.009115407693922307 0.006233687869109909 0
0.01142443969356753 0.004218425215228907 0
0.006113563473634419 0.005504827485903155 0
0.009115407693922219 0.02876631213089011 0
0.01142443969356748 0.03078157478477112 0
0.006113563473634348 0.02949517251409691 0
0.008258377640905847 0.02388960793437225 0
0.008040710618218027 0.01155206892988837 0
0.01411198139826042 0.03004567387734113 0
0.01411198139826052 0.004954326122658925 0
0.002687426340644526 0.0196287690120119 0
0.002718050824366361 0.02270783751260357 0
0.02208726017990571 0.01218458088391972 0
0.01874590842779833 0.01052782840759499 0
0.01919874084252661 0.007348523220325455 0
0.0218969551317731 0.005224949391043973 0
0.02201146984632195 0.01926869631238669 0
0.02208154031819665 0.02281186009810151 0
0.01874509130469701 0.02447166316126519 0
0.01919856094360327 0.02765132444241819 0
0.02189053157371481 0.02977524731358422 0
0.007311534161882832 0.02662067723042487 0
0.00721657349775179 0.008438933190692395 0
0.004824359684112269 0.00269278808306489 0
0.00482435968411225 0.03230721191693515 0
0.02023486618317075 0.03241557007371533 0
0.02024603585705704 0.002587557771103297 0
0.002966734444468272 0.0296594793139487 0
0.002963526831220612 0.005316532479945735 0
0.01914934244032478 0.01749844357814339 0
0.01472826347877714 0.02723651216760955 0
0.0147282634787772 0.007763487832390496 0
0.01937182550343483 0.01344174256219021 0
0.01937182550343483 0.02155825743780978 0
0.005407968586777747 0.02415351577204667 0
0.01678197535954942 0.02906528935013006 0
0.01678226126681803 0.005934801734286583 0
0.01382733059240158 0.002275081325715902 0
0.01382708228456852 0.03272505720169856 0
0.0164865946490436 0.02213843302835844 0
0.01648673083622717 0.01286148223311826 0
0.009096451827284663 0.02145674365229816 0
0.009570948009682665 0.01373614708595963 0
0.005273261024804833 0.01029668367460421 0
0.002627060037819488 0.01189065244584114 0
0.002568279188717333 0.01467577472166723 0
0.004898797912125831 0.02105032181594499 0
0.0109375 0.001864150824375584 0
0.0109375 0.03313584917562443 0
0.0170110955777814 0.008442187114721444 0
0.01902689595459786 0.004792643605980503 0
0.01701091230216804 0.02655773150185294 0
0.01902270012694723 0.03020833486981968 0
0.02279173097795518 0.03271434114318574 0
0.002209516716493417 0.03267230650313088 0
0.002209516716493387 0.002327693496869104 0
0.02280359819776603 0.002262501432429455 0
0.005024337675849695 0.01849396323126018 0
0.004905426460410107 0.0274635679316296 0
0.004886421042626729 0.007523388300989862 0
0.006975303096020558 0.02209605115003186 0
0.003063143489615207 0.01724729671797313 0
0.00984424972739594 0.00359429139635898 0
0.01026992369374492 0.005226056542169408 0
0.00868973372757333 0.004601922723299481 0
0.01026992369374485 0.02977394345783061 0
0.009844249727395902 0.03140570860364104 0
0.008689733727573271 0.03039807727670054 0
0.006635348852276242 0.01233892990592822 0
0.007667667266060444 0.01313430840432321 0
0.006262305500118659 0.01392116938036306 0
0.007614485583778363 0.005869257677506533 0
0.007188811617429384 0.004237492531696103 0
0.007188811617429335 0.03076250746830394 0
0.007614485583778283 0.02913074232249351 0
0.01926058397187981 0.01952835050797658 0
0.01824104437587143 0.02064608116790696 0
0.01812980284431641 0.01861617423807377 0
0.01824104437587143 0.01435391883209303 0
0.01926058397187981 0.0154700930701668 0
0.01812980284431641 0.01638226934006962 0
0.02069164767487839 0.02041347687509823 0
0.02058040614332337 0.01838356994526504 0
0.02070880726000557 0.0145758460709655 0
0.02059756572845055 0.0166041965789421 0
0.01738717122016239 0.0174992217890717 0
0.01636763162415401 0.01861695244900207 0
0.01636763162415402 0.01638304755099793 0
0.005251624055569646 0.01171123727828615 0
0.00665698582151143 0.01092437630224629 0
0.01761631963201275 0.01169465532035663 0
0.01604080832245859 0.01163622660640331 0
0.01717039711824417 0.01046939969364168 0
0.01604074022886678 0.02336373102433505 0
0.01761584297687031 0.02330504809481182 0
0.01716998855669349 0.02453034609078843 0
0.017929278169831 0.01315161239765424 0
0.01905886696561658 0.0119847854848926 0
0.01792921007623922 0.02184834523308411 0
0.01905845840406592 0.02301496029953749 0
0.01541732442963322 0.03242965018547458 0
0.01396953184141447 0.03138536553951984 0
0.01555977398647917 0.03108995852329587 0
0.01396965599533105 0.003614703724187414 0
0.01541890863360804 0.002571233619429555 0
0.01556123403653751 0.003910856017901067 0
0.01544697837890492 0.0295554816137356 0
0.01689477096712367 0.03059976625969034 0
0.01689637397081627 0.004401093823714897 0
0.01544712133253927 0.005444563928472753 0
0.009600779880612174 0.002417154200932317 0
0.01118096984678376 0.003041288019802246 0
0.01118096984678374 0.03195871198019778 0
0.009600779880612163 0.0325828457990677 0
0.008805829313950346 0.012644108007924 0
0.008432785961792763 0.01422634748235884 0
0.02344526578685741 0.03063762365679211 0
0.02344526578685741 0.02888762365679211 0
0.02344847756588655 0.006112474695521983 0
0.02344847756588655 0.004362474695521985 0
0.02036413849594526 0.0252999147379032 0
0.02041331581144683 0.02364176162968335 0
0.02203236300269508 0.02447001320632135 0
0.02041658430385202 0.01135620464575735 0
0.02036454705749592 0.009699831046526886 0
0.02203522293354961 0.01052820728468925 0
0.00135902541218318 0.02360391875630179 0
0.002715668522080222 0.02439712733652854 0
0.001356643109897041 0.02529320858022677 0
0.02350573492316098 0.01838434815619333 0
0.02202862943144913 0.01748932294606375 0
0.02352289450828816 0.01660497478987039 0
0.02354363008995285 0.01134229044195985 0
0.02349159284359676 0.009685916842729382 0
0.02354077015909832 0.02365593004905075 0
0.02349159284359675 0.02531408315727059 0
0.008213470927902526 0.02769349468065749 0
0.008689503360347926 0.02624244257927187 0
0.009591440126367619 0.02731526002950449 0
0.008642023028282445 0.008787362631286757 0
0.008165990595837048 0.007336310529901153 0
0.009591440126367704 0.007684739970495513 0
0.007784955901394339 0.02525514258239856 0
0.009162925099859434 0.02487690793124556 0
0.007628642057984908 0.009995501060290382 0
0.009054091588515563 0.01034393050088474 0
0.012625760989068 0.03175331599323485 0
0.01276821054591395 0.03041362433105612 0
0.01262588514298455 0.003246753270472405 0
0.01276821054591402 0.004586375668943916 0
0.00671254881775859 0.02805792487226089 0
0.01897232463516247 0.008938175813960222 0
0.02059096326486006 0.008110178452892117 0
0.02059087331539839 0.0268897453784797 0
0.01897182612415014 0.02606149380184169 0
0.006665068485693104 0.006971880338297775 0
0.002702738582505443 0.02116830326230773 0
0.00135902541218318 0.0218539187563018 0
0.001343713170322263 0.02031438450600597 0
0.02206652459824101 0.01394726523183026 0
0.02354363008995285 0.01309229044195984 0
0.02352289450828816 0.01485497478987039 0
0.02354077015909832 0.02190593004905075 0
0.0220465050822593 0.0210402782052441 0
0.02350573492316098 0.02013434815619334 0
0.005468961578873344 0.004098807784484022 0
0.006544209722668309 0.00283147283027697 0
0.006544209722668285 0.03216852716972306 0
0.005468961578873299 0.03090119221551603 0
0.02193685863045416 0.02795170681406271 0
0.02349159284359675 0.0270640831572706 0
0.02194007040948331 0.007048391538251375 0
0.02349159284359676 0.007935916842729386 0
0.001343713170322263 0.01856438450600597 0
0.01238229114228426 0.03293045318866149 0
0.01238241529620079 0.002069616075045744 0
0.002840010332131177 0.0278729482372011 0
0.001483367222234137 0.02882973965697435 0
0.001356643109897041 0.02704320858022676 0
0.001481763415610307 0.006158266239972869 0
0.002827179879140461 0.007031098938376511 0
0.001345416463530156 0.007872832698403645 0
0.001345416463530156 0.00962283269840365 0
0.02072954284167027 0.01281316172305496 0
0.02072668291081574 0.02218505876795565 0
0.001481763415610307 0.004408266239972869 0
0.001483367222234137 0.03057973965697435 0
0.005537179842056133 0.001346394041532445 0
0.007257029880612173 0.001485078788744525 0
0.005537179842056128 0.03365360595846757 0
0.007257029880612163 0.03351492121125549 0
0.01788024333740725 0.001433692956571607 0
0.01631774333740725 0.001433692956571607 0
0.01631628328734896 0.0335671215846253 0
0.01787878328734896 0.0335671215846253 0
0.008819529880612163 0.03351492121125549 0
0.008819529880612173 0.001485078788744525 0
0.01787800180343253 0.02551469733155906 0
0.016302899055429 0.0255733802610823 0
0.0163029906932357 0.009426579047204904 0
0.01787850200278986 0.009485007761158216 0
0.01949801792852852 0.001293778885551648 0
0.01862826126593577 0.002727471842123253 0
0.003974679842056133 0.001346394041532445 0
0.003974679842056126 0.03365360595846757 0
0.004063009705572055 0.02343067664232511 0
0.004060627403285916 0.02511996646625009 0
0.02054454625865904 0.0287132858780012 0
0.02054784798714985 0.006286736305684715 0
0.02235027666476956 0.003743725411736714 0
0.02390179909888301 0.002881250716214725 0
0.01862121637893433 0.03227490662148297 0
0.01949243309158537 0.03370778503685767 0
0.02389586548897759 0.03210717057159287 0
0.02234113127583499 0.03124479422838498 0
0.02106051792852852 0.001293778885551648 0
0.001284139594358667 0.01433788736083362 0
0.001284139594358667 0.01608788736083363 0
0.02105493309158538 0.03370778503685767 0
0.01404875101456587 0.02123887182637993 0
0.01272685923985486 0.02154058499780773 0
0.01272685923985489 0.01345941500219227 0
0.0140487510145659 0.01376112817362008 0
0.01308358535312917 0.02899423189214542 0
0.01173981450078271 0.02936218234586042 0
0.01308358535312926 0.006005768107854616 0
0.01173981450078277 0.005637817654139607 0
0.0167984970422676 0.01406378866755706 0
0.01679842894867582 0.0209361689631813 0
0.01141746661424375 0.01313400265294706 0
0.0123397037727121 0.01214006738070753 0
0.01233970377271206 0.02285993261929247 0
0.01141746661424371 0.02186599734705294 0
0.01054889185295703 0.01047522355167172 0
0.01147131805681266 0.009462779097466376 0
0.01195273735095659 0.01080221057725698 0
0.0114713180568126 0.02553722090253363 0
0.01054889185295697 0.02452477644832828 0
0.01195273735095654 0.02419778942274303 0
0.01058529850096008 0.02835455101891991 0
0.01106133093340548 0.0269034989175343 0
0.01058529850096016 0.006645448981080108 0
0.01106133093340556 0.008096501082465712 0
0.01326212997656773 0.01112762292650219 0
0.01326212997656769 0.02387237707349783 0
0.00281571133916627 0.01596153571982018 0
0.001531571744807603 0.01737364835898658 0
0.01246517643140505 0.02657651189194905 0
0.01246517643140512 0.008423488108050971 0
0.004538545152427517 0.005410679982924445 0
0.003893943257666441 0.004004660281505312 0
0.00389554706429026 0.03098334561544192 0
0.00454014895905131 0.0295773259140228 0
0.009644344394003381 0.02353747645145497 0
0.009535510882659493 0.01168336198067534 0
0.01472616529620079 0.001137540662857952 0
0.01472604114228426 0.03386252860084928 0
0.01577933443955829 0.01516143585964164 0
0.01577933443955828 0.01983856414035837 0
0.008512669730965245 0.01816335449860715 0
0.008512669730965254 0.01680746781386478 0
0.01462199110350659 0.02356177464517947 0
0.01423502468175107 0.02489963144863003 0
0.01423502468175112 0.01010036855137 0
0.01462199110350662 0.01143822535482056 0
0.01339172639338754 0.02758965103727963 0
0.01442012243851878 0.02864109302247534 0
0.01442012243851886 0.006358906977524711 0
0.01339172639338761 0.007410348962720401 0
0.001313530018909744 0.01119532622292058 0
0.001313530018909744 0.01294532622292058 0
0.01015625 0.03406792458781221 0
0.01015625 0.0009320754121877918 0
0.01380171351679466 0.02622337302227897 0
0.01380171351679471 0.008776626977721066 0
0.007317745544014209 0.016093685095615 0
0.008489548100853905 0.01543033059700783 0
0.008449695900406819 0.0193929766301198 0
0.007277893343567129 0.01870044444398459 0
0.00513283066459947 0.01453188375344721 0
0.006165149078383671 0.01532726225184219 0
0.00259766961326841 0.01328321358375419 0
0.006359751374330289 0.02538709650123577 0
0.006833173113841797 0.02402156185320946 0
0.003788626984843519 0.008134526848898576 0
0.005079841033715781 0.008910035987797039 0
0.003982046975932572 0.009521174535705751 0
0.006108480311146469 0.02704212258102724 0
0.005156697523593927 0.02580854185183813 0
0.00395016053131216 0.01109366806022268 0
0.002658946482439899 0.01031815892132422 0
0.01516157464373356 0.02591277059396061 0
0.01516157464373361 0.00908722940603943 0
0.003809356340102096 0.02677499254604156 0
0.02389586548897759 0.03385717057159288 0
0.006188270708495019 0.01670439946869914 0
0.001104758358246707 0.03208615325156544 0
0.001104758358246707 0.03383615325156544 0
0.001104758358246694 0.001163846748434554 0
0.001104758358246694 0.002913846748434553 0
0.02390179909888301 0.001131250716214727 0
0.01546750013992607 0.02104082820553552 0
0.01506784552368341 0.02233647664920285 0
0.0150679136172752 0.01266348098153551 0
0.01546756823351786 0.01395912942520284 0
0.007616840368463202 0.02299282954220205 0
0.008035877461652611 0.02177639740116501 0
0.008677414734095255 0.02267317579333521 0
0.01006338148719279 0.02232104431041792 0
0.01030062957839181 0.01277540105871097 0
0.02233336548897759 0.03385717057159288 0
0.002667258358246709 0.03383615325156544 0
0.002667258358246691 0.001163846748434554 0
0.02233929909888301 0.001131250716214727 0
0.01810473662288566 0.02710452797213556 0
0.018104918210154 0.00789535516752345 0
0.02151329858056296 0.03256495560845053 0
0.02106269887844278 0.03109540869364977 0
0.02152481702741153 0.002425029601766375 0
0.02107149549441507 0.003906253581073636 0
0.006051497270189259 0.007981160745841129 0
0.006244917261278311 0.009367808432648304 0
0.002586521773857001 0.003822112988407419 0
0.002588125580480844 0.03116589290853979 0
0.01575511941916328 0.02815090075886981 0
0.01575526237279761 0.00684914478333854 0
0.01316366529620079 0.001137540662857952 0
0.01316354114228426 0.03386252860084928 0
0.01790233774324832 0.02963681210997487 0
0.01801513335082257 0.03117128901953515 0
0.01801869131470618 0.003830014759561857 0
0.01790457861070794 0.005363722670133544 0
0.00709511130451463 0.02101305886276454 0
0.008155685670146682 0.02069340511389769 0
0.009627710148743807 0.01494013020060862 0
0.0106877850455346 0.01409474868019571 0
0.01045053695433559 0.02100169668893318 0
0.009390462057544798 0.02015631516852026 0
0.003793112126385178 0.02033954541397844 0
0.003808424368246096 0.02187907966427427 0
0.002875284915129867 0.01843803286499252 0
0.01171875 0.0009320754121877918 0
0.01171875 0.03406792458781221 0
0.003516938200302827 0.002510240789966997 0
0.003516938200302834 0.03248975921003301 0
0.005153383249451789 0.02260191879399583 0
0.01963646590582745 0.003690100688541899 0
0.02045661585033102 0.02999179109170195 0
0.01911063053527525 0.02892982965611894 0
0.01911281839856223 0.006070583413152978 0
0.02046192554318547 0.005008796498512238 0
0.003936080452439188 0.02856152362278915 0
0.003924973936923671 0.006419960390467799 0
0.01962878315505899 0.0313119524717675 0
0.003928523562076973 0.01250822166390461 0
0.005937050504073195 0.02157318648298842 0
0.006191635841399153 0.02312478346103927 0
0.003899133137525896 0.01390078280181765 0
0.005509494967022227 0.02847937022286325 0
0.005499992258130574 0.006514107893446509 0
0.003801976715790908 0.01530687567329678 0
0.01586958789047259 0.02689712183473124 0
0.01689644383085873 0.0278115104259915 0
0.01689667842229971 0.007188494424504014 0
0.0158696795282793 0.00810283747355597 0
0.006182602424987626 0.01798239277186606 0
0.005030005959357088 0.01721596992809326 0
0.006119628594429199 0.01921201490337871 0
0.01799026815157634 0.02835830689627413 0
0.01799050105467232 0.006641662477306019 0
0.004043740582732451 0.01787062997461666 0
0.004049408866239845 0.01659263667144974 0
0.004961567793987763 0.01977214252360258 0
0.006056858712567267 0.02049019419572111 0
0.003855882008247111 0.01906136612163604 0
$EndNodes
$Elements
3 239 1 239
1 6 8 8
1 2 19 26 
2 19 20 27 
3 20 21 28 
4 21 22 29 
5 22 23 30 
6 23 24 31 
7 24 25 32 
8 25 3 33 
1 9 8 8
9 5 72 79 
10 72 73 80 
11 73 74 81 
12 74 75 82 
13 75 76 83 
14 76 77 84 
15 77 78 85 
16 78 4 86 
2 1 9 223
17 89 116 115 177 178 179 
18 118 119 90 180 181 182 
19 114 122 109 183 184 185 
20 115 117 89 186 187 179 
21 90 120 118 188 189 182 
22 144 148 102 190 191 192 
23 101 147 144 193 194 195 
24 131 148 144 196 190 197 
25 144 147 112 194 198 199 
26 1 144 102 200 192 201 
27 101 144 1 195 200 202 
28 114 158 122 203 204 183 
29 128 155 98 205 206 207 
30 96 154 133 208 209 210 
31 147 155 128 211 205 212 
32 133 154 148 209 213 214 
33 93 153 123 215 216 217 
34 124 152 94 218 219 220 
35 123 150 93 221 222 217 
36 94 151 124 223 224 220 
37 89 162 116 225 226 177 
38 119 163 90 227 228 181 
39 122 157 109 229 230 184 
40 61 135 60 231 232 70 
41 54 130 53 233 234 63 
42 111 133 132 235 236 237 
43 127 128 110 238 239 240 
44 36 126 100 241 242 243 
45 57 131 112 244 245 246 
46 55 127 110 247 240 248 
47 111 132 59 237 249 250 
48 118 136 104 251 252 253 
49 103 137 115 254 255 256 
50 104 136 121 252 257 258 
51 122 137 103 259 254 260 
52 123 153 119 216 261 262 
53 116 152 124 263 218 264 
54 120 136 118 265 251 189 
55 128 129 110 266 267 239 
56 111 134 133 268 269 235 
57 115 137 117 255 270 186 
58 125 126 37 271 272 273 
59 112 127 56 274 275 276 
60 58 132 131 277 278 279 
61 117 138 89 280 281 187 
62 90 139 120 282 283 188 
63 131 144 112 197 199 245 
64 60 135 111 232 284 285 
65 110 130 54 286 233 287 
66 57 112 56 246 276 66 
67 58 131 57 279 244 67 
68 38 125 37 288 273 47 
69 153 163 119 289 227 261 
70 116 162 152 226 290 263 
71 100 142 35 291 292 293 
72 41 143 99 294 295 296 
73 41 99 40 296 297 50 
74 36 100 35 243 293 45 
75 112 147 127 198 298 274 
76 132 148 131 299 196 278 
77 60 111 59 285 250 69 
78 55 110 54 248 287 64 
79 42 143 41 300 294 51 
80 35 142 34 292 301 44 
81 37 126 36 272 241 46 
82 56 127 55 275 247 65 
83 59 132 58 249 277 68 
84 89 138 20 281 302 303 
85 77 139 90 304 282 305 
86 24 94 23 306 307 31 
87 74 93 73 308 309 81 
88 77 90 76 305 310 84 
89 21 89 20 311 303 28 
90 133 166 96 312 313 210 
91 98 164 128 314 315 207 
92 24 141 94 316 317 306 
93 20 138 19 302 318 27 
94 78 139 77 319 304 85 
95 126 149 100 320 321 242 
96 111 135 134 284 322 268 
97 129 130 110 323 286 267 
98 130 171 53 324 325 234 
99 93 140 73 326 327 309 
100 61 168 135 328 329 231 
101 25 141 24 330 316 32 
102 39 160 38 331 332 48 
103 73 140 72 327 333 80 
104 6 88 7 334 335 13 
105 10 87 11 336 337 17 
106 106 123 119 338 262 339 
107 116 124 105 264 340 341 
108 101 155 147 342 211 193 
109 148 154 102 213 343 191 
110 10 91 87 344 345 336 
111 88 92 7 346 347 335 
112 91 103 97 348 349 350 
113 95 104 92 351 352 353 
114 106 118 104 354 253 355 
115 103 115 105 256 356 357 
116 91 97 87 350 358 345 
117 88 95 92 359 353 346 
118 160 176 38 360 361 332 
119 95 106 104 362 355 351 
120 103 105 97 357 363 349 
121 115 116 105 178 341 356 
122 106 119 118 339 180 354 
123 117 143 138 364 365 280 
124 139 142 120 366 367 283 
125 104 121 92 258 368 352 
126 91 122 103 369 260 348 
127 94 152 23 219 370 307 
128 74 153 93 371 215 308 
129 11 101 1 372 202 18 
130 1 102 6 201 373 12 
131 8 107 9 374 375 15 
132 88 96 95 376 377 359 
133 97 98 87 378 379 358 
134 106 145 123 380 381 338 
135 124 146 105 382 383 340 
136 40 159 39 384 385 49 
137 90 163 76 228 386 310 
138 21 162 89 387 225 311 
139 95 145 106 388 380 362 
140 105 146 97 383 389 363 
141 107 109 9 390 391 375 
142 8 108 107 392 393 374 
143 127 147 128 298 212 238 
144 133 148 132 214 299 236 
145 113 114 109 394 185 395 
146 159 160 39 396 331 385 
147 136 149 121 397 398 257 
148 99 174 158 399 400 401 
149 136 173 149 402 403 397 
150 158 159 99 404 405 401 
151 96 145 95 406 388 377 
152 97 146 98 389 407 378 
153 149 173 100 403 408 321 
154 5 168 61 409 328 71 
155 107 113 109 410 395 390 
156 34 169 4 411 412 43 
157 2 170 42 413 414 52 
158 53 171 3 325 415 62 
159 6 154 88 416 417 334 
160 87 155 11 418 419 337 
161 121 175 156 420 421 422 
162 121 156 92 422 423 368 
163 91 157 122 424 229 369 
164 72 168 5 425 409 79 
165 4 169 78 412 426 86 
166 19 170 2 427 413 26 
167 3 171 25 415 428 33 
168 134 166 133 429 312 269 
169 128 164 129 315 430 266 
170 135 168 140 329 431 432 
171 11 155 101 419 342 372 
172 102 154 6 343 416 373 
173 141 171 130 433 324 434 
174 158 174 137 400 435 436 
175 42 170 143 414 437 300 
176 142 169 34 438 411 301 
177 145 150 123 439 221 381 
178 124 151 146 224 440 382 
179 23 152 22 370 441 30 
180 75 153 74 442 371 82 
181 150 167 93 443 444 222 
182 94 165 151 445 446 223 
183 156 175 108 421 447 448 
184 9 157 10 449 450 16 
185 7 156 8 451 452 14 
186 125 161 126 453 454 271 
187 38 176 125 361 455 288 
188 122 158 137 204 436 259 
189 99 159 40 405 384 297 
190 152 162 22 290 456 441 
191 75 163 153 457 289 442 
192 92 156 7 423 451 347 
193 10 157 91 450 424 344 
194 88 154 96 417 208 376 
195 98 155 87 206 418 379 
196 143 170 138 437 458 365 
197 139 169 142 459 438 366 
198 126 161 149 454 460 320 
199 141 165 94 461 445 317 
200 135 167 134 462 463 322 
201 129 165 130 464 465 323 
202 100 173 142 408 466 291 
203 143 174 99 467 399 295 
204 93 167 140 444 468 326 
205 114 159 158 469 404 203 
206 8 156 108 452 448 392 
207 109 157 9 230 449 391 
208 161 175 149 470 471 460 
209 140 167 135 468 462 432 
210 114 160 159 472 396 469 
211 130 165 141 465 461 434 
212 22 162 21 456 387 29 
213 76 163 75 386 457 83 
214 142 173 120 466 473 367 
215 117 174 143 474 467 364 
216 138 170 19 458 427 318 
217 78 169 139 426 459 319 
218 113 160 114 475 472 394 
219 145 166 150 476 477 439 
220 151 164 146 478 479 440 
221 140 168 72 431 425 333 
222 107 172 113 480 481 410 
223 25 171 141 428 433 330 
224 108 172 107 482 480 393 
225 120 173 136 473 402 265 
226 137 174 117 435 474 270 
227 150 166 134 477 429 483 
228 129 164 151 430 478 484 
229 96 166 145 313 476 406 
230 146 164 98 479 314 407 
231 151 165 129 446 464 484 
232 134 167 150 463 443 483 
233 149 175 121 471 420 398 
234 172 176 113 485 486 481 
235 161 172 108 487 482 488 
236 125 176 172 455 485 489 
237 125 172 161 489 487 453 
238 108 175 161 447 470 488 
239 113 176 160 486 360 475 
$EndElements
