$MeshFormat
4.1 0 8
$EndMeshFormat
$PhysicalNames
3
1 1 "bc-top"
1 2 "bc-bot"
2 3 "vol"
$EndPhysicalNames
$Entities
5 5 1 0
5 0.015625 0.0175 0 0 
6 0 0 0 0 
7 0.025 0 0 0 
8 0 0.035 0 0 
9 0.025 0.035 0 0 
5 0.009374900000000002 0.0143749 -1e-07 0.0156251 0.0206251 1e-07 0 2 5 -5 
6 -9.999999999940612e-08 -1e-07 -1e-07 0.0250001 1e-07 1e-07 1 2 2 6 -7 
7 -1e-07 -9.999999999940612e-08 -1e-07 1e-07 0.03500010000000001 1e-07 0 2 8 -6 
8 0.0249999 -9.999999999940612e-08 -1e-07 0.0250001 0.03500010000000001 1e-07 0 2 7 -9 
9 -9.999999999940612e-08 0.0349999 -1e-07 0.0250001 0.03500010000000001 1e-07 1 1 2 9 -8 
1 -9.999999999940612e-08 -9.999999999940612e-08 -1e-07 0.0250001 0.03500010000000001 1e-07 1 3 5 6 8 9 7 -5 
$EndEntities
$Nodes
11 133 1 133
0 5 0 1
1
0.015625 0.0175 0
0 6 0 1
2
0 0 0
0 7 0 1
3
0.025 0 0
0 8 0 1
4
0 0.035 0
0 9 0 1
5
0.025 0.035 0
1 5 0 6
6
7
8
9
10
11
0.01444840563080854 0.0199432233827126 0
0.01180462208138651 0.0205466497255682 0
0.009684472287804934 0.01885588668474236 0
0.00968447228780495 0.01614411331525762 0
0.01180462208138653 0.0144533502744318 0
0.01444840563080855 0.01505677661728741 0
1 6 0 7
12
13
14
15
16
17
18
0.003124999999999997 0 0
0.006249999999999998 0 0
0.009374999999999996 0 0
0.0125 0 0
0.015625 0 0
0.01875 0 0
0.021875 0 0
1 7 0 9
19
20
21
22
23
24
25
26
27
0 0.03150000000000001 0
0 0.02800000000000001 0
0 0.02450000000000002 0
0 0.02100000000000003 0
0 0.01750000000000003 0
0 0.01400000000000002 0
0 0.01050000000000001 0
0 0.007000000000000003 0
0 0.003500000000000003 0
1 8 0 9
28
29
30
31
32
33
34
35
36
0.025 0.003499999999999996 0
0.025 0.006999999999999992 0
0.025 0.01049999999999998 0
0.025 0.01399999999999997 0
0.025 0.01749999999999997 0
0.025 0.02099999999999998 0
0.025 0.02449999999999999 0
0.025 0.028 0
0.025 0.0315 0
1 9 0 7
37
38
39
40
41
42
43
0.02187500000000001 0.035 0
0.01875 0.035 0
0.01562500000000001 0.035 0
0.0125 0.035 0
0.009375000000000005 0.035 0
0.006250000000000006 0.035 0
0.003125000000000003 0.035 0
2 1 0 90
44
45
46
47
48
49
50
51
52
53
54
55
56
57
58
59
60
61
62
63
64
65
66
67
68
69
70
71
72
73
74
75
76
77
78
79
80
81
82
83
84
85
86
87
88
89
90
91
92
93
94
95
96
97
98
99
100
101
102
103
104
105
106
107
108
109
110
111
112
113
114
115
116
117
118
119
120
121
122
123
124
125
126
127
128
129
130
131
132
133
0.01364909639832324 0.01246547972995275 0
0.01364909639832321 0.02253452027004727 0
0.00826405976122435 0.002970157577489052 0
0.00826405976122432 0.03202984242251097 0
0.01103031114710096 0.01181465503146232 0
0.01103031114710091 0.02318534496853768 0
0.01700756657469792 0.03213424316925061 0
0.0170104866748145 0.00286738591314321 0
0.01287516355481217 0.02521023387694839 0
0.01559488580868997 0.02458902902031167 0
0.01287516355481223 0.009789766123051635 0
0.01559488580869001 0.01041097097968836 0
0.002690832927060311 0.008745665396807288 0
0.002713286219794083 0.02608641716045352 0
0.01711026324830803 0.01526609510199586 0
0.01711026324830803 0.01973390489800415 0
0.0100674725588131 0.009135792071881119 0
0.01006747255881302 0.02586420792811888 0
0.01205518930799801 0.007057210093050305 0
0.01205518930799793 0.02794278990694972 0
0.007340867174125557 0.01747082231247194 0
0.007214919513008702 0.01993006657549723 0
0.007294623913902861 0.01471654787875805 0
0.02198318568719352 0.008871833685458779 0
0.02198318568719351 0.0261281663145412 0
0.02204578901657631 0.0157099495797408 0
0.005035674242864482 0.01593797662492634 0
0.005229987086334458 0.01312579088196808 0
0.009115407693922307 0.006233687869109909 0
0.01142443969356753 0.004218425215228907 0
0.006113563473634419 0.005504827485903155 0
0.009115407693922219 0.02876631213089011 0
0.01142443969356748 0.03078157478477112 0
0.006113563473634348 0.02949517251409691 0
0.008258377640905847 0.02388960793437225 0
0.008040710618218027 0.01155206892988837 0
0.01411198139826042 0.03004567387734113 0
0.01411198139826052 0.004954326122658925 0
0.002687426340644526 0.0196287690120119 0
0.002718050824366361 0.02270783751260357 0
0.02208726017990571 0.01218458088391972 0
0.01874590842779833 0.01052782840759499 0
0.01919874084252661 0.007348523220325455 0
0.0218969551317731 0.005224949391043973 0
0.02201146984632195 0.01926869631238669 0
0.02208154031819665 0.02281186009810151 0
0.01874509130469701 0.02447166316126519 0
0.01919856094360327 0.02765132444241819 0
0.02189053157371481 0.02977524731358422 0
0.007311534161882832 0.02662067723042487 0
0.00721657349775179 0.008438933190692395 0
0.004824359684112269 0.00269278808306489 0
0.00482435968411225 0.03230721191693515 0
0.02023486618317075 0.03241557007371533 0
0.02024603585705704 0.002587557771103297 0
0.002966734444468272 0.0296594793139487 0
0.002963526831220612 0.005316532479945735 0
0.01914934244032478 0.01749844357814339 0
0.01472826347877714 0.02723651216760955 0
0.0147282634787772 0.007763487832390496 0
0.01937182550343483 0.01344174256219021 0
0.01937182550343483 0.02155825743780978 0
0.005407968586777747 0.02415351577204667 0
0.01678197535954942 0.02906528935013006 0
0.01678226126681803 0.005934801734286583 0
0.01382733059240158 0.002275081325715902 0
0.01382708228456852 0.03272505720169856 0
0.0164865946490436 0.02213843302835844 0
0.01648673083622717 0.01286148223311826 0
0.009096451827284663 0.02145674365229816 0
0.009570948009682665 0.01373614708595963 0
0.005273261024804833 0.01029668367460421 0
0.002627060037819488 0.01189065244584114 0
0.002568279188717333 0.01467577472166723 0
0.004898797912125831 0.02105032181594499 0
0.0109375 0.001864150824375584 0
0.0109375 0.03313584917562443 0
0.0170110955777814 0.008442187114721444 0
0.01902689595459786 0.004792643605980503 0
0.01701091230216804 0.02655773150185294 0
0.01902270012694723 0.03020833486981968 0
0.02279173097795518 0.03271434114318574 0
0.002209516716493417 0.03267230650313088 0
0.002209516716493387 0.002327693496869104 0
0.02280359819776603 0.002262501432429455 0
0.005024337675849695 0.01849396323126018 0
0.004905426460410107 0.0274635679316296 0
0.004886421042626729 0.007523388300989862 0
0.006975303096020558 0.02209605115003186 0
0.003063143489615207 0.01724729671797313 0
$EndNodes
$Elements
3 239 1 239
1 6 1 8
1 2 12 
2 12 13 
3 13 14 
4 14 15 
5 15 16 
6 16 17 
7 17 18 
8 18 3 
1 9 1 8
9 5 37 
10 37 38 
11 38 39 
12 39 40 
13 40 41 
14 41 42 
15 42 43 
16 43 4 
2 1 2 223
17 46 73 72 
18 75 76 47 
19 71 79 66 
20 72 74 46 
21 47 77 75 
22 101 105 59 
23 58 104 101 
24 88 105 101 
25 101 104 69 
26 1 101 59 
27 58 101 1 
28 71 115 79 
29 85 112 55 
30 53 111 90 
31 104 112 85 
32 90 111 105 
33 50 110 80 
34 81 109 51 
35 80 107 50 
36 51 108 81 
37 46 119 73 
38 76 120 47 
39 79 114 66 
40 36 92 35 
41 29 87 28 
42 68 90 89 
43 84 85 67 
44 21 83 57 
45 32 88 69 
46 30 84 67 
47 68 89 34 
48 75 93 61 
49 60 94 72 
50 61 93 78 
51 79 94 60 
52 80 110 76 
53 73 109 81 
54 77 93 75 
55 85 86 67 
56 68 91 90 
57 72 94 74 
58 82 83 22 
59 69 84 31 
60 33 89 88 
61 74 95 46 
62 47 96 77 
63 88 101 69 
64 35 92 68 
65 67 87 29 
66 32 69 31 
67 33 88 32 
68 23 82 22 
69 110 120 76 
70 73 119 109 
71 57 99 20 
72 26 100 56 
73 26 56 25 
74 21 57 20 
75 69 104 84 
76 89 105 88 
77 35 68 34 
78 30 67 29 
79 27 100 26 
80 20 99 19 
81 22 83 21 
82 31 84 30 
83 34 89 33 
84 46 95 13 
85 42 96 47 
86 17 51 16 
87 39 50 38 
88 42 47 41 
89 14 46 13 
90 90 123 53 
91 55 121 85 
92 17 98 51 
93 13 95 12 
94 43 96 42 
95 83 106 57 
96 68 92 91 
97 86 87 67 
98 87 128 28 
99 50 97 38 
100 36 125 92 
101 18 98 17 
102 24 117 23 
103 38 97 37 
104 6 45 7 
105 10 44 11 
106 63 80 76 
107 73 81 62 
108 58 112 104 
109 105 111 59 
110 10 48 44 
111 45 49 7 
112 48 60 54 
113 52 61 49 
114 63 75 61 
115 60 72 62 
116 48 54 44 
117 45 52 49 
118 117 133 23 
119 52 63 61 
120 60 62 54 
121 72 73 62 
122 63 76 75 
123 74 100 95 
124 96 99 77 
125 61 78 49 
126 48 79 60 
127 51 109 16 
128 39 110 50 
129 11 58 1 
130 1 59 6 
131 8 64 9 
132 45 53 52 
133 54 55 44 
134 63 102 80 
135 81 103 62 
136 25 116 24 
137 47 120 41 
138 14 119 46 
139 52 102 63 
140 62 103 54 
141 64 66 9 
142 8 65 64 
143 84 104 85 
144 90 105 89 
145 70 71 66 
146 116 117 24 
147 93 106 78 
148 56 131 115 
149 93 130 106 
150 115 116 56 
151 53 102 52 
152 54 103 55 
153 106 130 57 
154 5 125 36 
155 64 70 66 
156 19 126 4 
157 2 127 27 
158 28 128 3 
159 6 111 45 
160 44 112 11 
161 78 132 113 
162 78 113 49 
163 48 114 79 
164 37 125 5 
165 4 126 43 
166 12 127 2 
167 3 128 18 
168 91 123 90 
169 85 121 86 
170 92 125 97 
171 11 112 58 
172 59 111 6 
173 98 128 87 
174 115 131 94 
175 27 127 100 
176 99 126 19 
177 102 107 80 
178 81 108 103 
179 16 109 15 
180 40 110 39 
181 107 124 50 
182 51 122 108 
183 113 132 65 
184 9 114 10 
185 7 113 8 
186 82 118 83 
187 23 133 82 
188 79 115 94 
189 56 116 25 
190 109 119 15 
191 40 120 110 
192 49 113 7 
193 10 114 48 
194 45 111 53 
195 55 112 44 
196 100 127 95 
197 96 126 99 
198 83 118 106 
199 98 122 51 
200 92 124 91 
201 86 122 87 
202 57 130 99 
203 100 131 56 
204 50 124 97 
205 71 116 115 
206 8 113 65 
207 66 114 9 
208 118 132 106 
209 97 124 92 
210 71 117 116 
211 87 122 98 
212 15 119 14 
213 41 120 40 
214 99 130 77 
215 74 131 100 
216 95 127 12 
217 43 126 96 
218 70 117 71 
219 102 123 107 
220 108 121 103 
221 97 125 37 
222 64 129 70 
223 18 128 98 
224 65 129 64 
225 77 130 93 
226 94 131 74 
227 107 123 91 
228 86 121 108 
229 53 123 102 
230 103 121 55 
231 108 122 86 
232 91 124 107 
233 106 132 78 
234 129 133 70 
235 118 129 65 
236 82 133 129 
237 82 129 118 
238 65 132 118 
239 70 133 117 
$EndElements
