$MeshFormat
4.1 0 8
$EndMeshFormat
$PhysicalNames
3
1 2 "bc-top"
1 3 "bc-bot"
2 1 "vol"
$EndPhysicalNames
$Entities
18 26 8 0
1 0 0 0 0 
2 0.0125 0 0 0 
3 0.0125 0.005000000000000001 0 0 
4 0 0.005000000000000001 0 0 
5 0.025 0 0 0 
6 0.025 0.005000000000000001 0 0 
10 0.0125 0.03 0 0 
11 0 0.03 0 0 
12 0.025 0.03 0 0 
13 0.0125 0.035 0 0 
14 0 0.035 0 0 
15 0.025 0.035 0 0 
16 0 0.0175 0 0 
17 0.009375000000000001 0.01749999999999975 0 0 
18 0.01250000000000011 0.014375 0 0 
19 0.015625 0.0175 0 0 
20 0.025 0.0175 0 0 
21 0.01250000000000011 0.020625 0 0 
1 -1.000000000002735e-07 -1e-07 -1e-07 0.0125001 1e-07 1e-07 1 3 2 1 -2 
2 0.0124999 -9.99999999998398e-08 -1e-07 0.0125001 0.005000100000000001 1e-07 0 2 2 -3 
3 -1.000000000002735e-07 0.004999900000000001 -1e-07 0.0125001 0.005000100000000001 1e-07 0 2 3 -4 
4 -1e-07 -9.99999999998398e-08 -1e-07 1e-07 0.005000100000000001 1e-07 0 2 4 -1 
5 0.0124999 -1e-07 -1e-07 0.0250001 1e-07 1e-07 1 3 2 2 -5 
6 0.0249999 -9.99999999998398e-08 -1e-07 0.0250001 0.005000100000000001 1e-07 0 2 5 -6 
7 0.0124999 0.004999900000000001 -1e-07 0.0250001 0.005000100000000001 1e-07 0 2 6 -3 
14 -1.000000000002735e-07 0.0299999 -1e-07 0.0125001 0.0300001 1e-07 0 2 10 -11 
17 0.0124999 0.0299999 -1e-07 0.0250001 0.0300001 1e-07 0 2 12 -10 
18 0.0124999 0.0299999 -1e-07 0.0125001 0.03500010000000001 1e-07 0 2 10 -13 
19 -1.000000000002735e-07 0.0349999 -1e-07 0.0125001 0.03500010000000001 1e-07 1 2 2 13 -14 
20 -1e-07 0.0299999 -1e-07 1e-07 0.03500010000000001 1e-07 0 2 14 -11 
21 0.0249999 0.0299999 -1e-07 0.0250001 0.03500010000000001 1e-07 0 2 12 -15 
22 0.0124999 0.0349999 -1e-07 0.0250001 0.03500010000000001 1e-07 1 2 2 15 -13 
23 -1e-07 0.004999900000000001 -1e-07 1e-07 0.0175001 1e-07 0 2 16 -4 
24 -1.000000000002735e-07 0.0174999 -1e-07 0.009375100000000001 0.0175001 1e-07 0 2 17 -16 
25 0.009374900000000002 0.0143749 -1e-07 0.01250010000000011 0.0175001 1e-07 0 2 17 -18 
26 0.0124999 0.004999900000000001 -1e-07 0.0125001 0.0143751 1e-07 0 2 3 -18 
27 0.01249990000000011 0.0143749 -1e-07 0.0156251 0.0175001 1e-07 0 2 18 -19 
28 0.0156249 0.0174999 -1e-07 0.0250001 0.0175001 1e-07 0 2 20 -19 
29 0.0249999 0.004999900000000001 -1e-07 0.0250001 0.0175001 1e-07 0 2 6 -20 
30 -1e-07 0.0174999 -1e-07 1e-07 0.0300001 1e-07 0 2 11 -16 
31 0.0124999 0.0206249 -1e-07 0.0125001 0.0300001 1e-07 0 2 21 -10 
32 0.009374900000000002 0.0174999 -1e-07 0.01250010000000011 0.0206251 1e-07 0 2 21 -17 
33 0.01249990000000011 0.0174999 -1e-07 0.0156251 0.0206251 1e-07 0 2 19 -21 
34 0.0249999 0.0174999 -1e-07 0.0250001 0.0300001 1e-07 0 2 20 -12 
1 -1.000000000002735e-07 -9.99999999998398e-08 -1e-07 0.0125001 0.005000100000000001 1e-07 1 1 4 1 2 3 4 
5 0.0124999 -9.99999999998398e-08 -1e-07 0.0250001 0.005000100000000001 1e-07 1 1 4 5 6 7 -2 
9 -1.000000000002735e-07 0.004999900000000001 -1e-07 0.01250010000000011 0.0175001 1e-07 1 1 5 -3 26 -25 24 23 
13 0.0124999 0.004999900000000001 -1e-07 0.0250001 0.0175001 1e-07 1 1 5 -7 29 28 -27 -26 
17 -1.000000000002735e-07 0.0174999 -1e-07 0.01250010000000011 0.0300001 1e-07 1 1 5 -24 -32 31 14 30 
21 0.0124999 0.0174999 -1e-07 0.0250001 0.0300001 1e-07 1 1 5 -28 34 17 -31 -33 
25 -1.000000000002735e-07 0.0299999 -1e-07 0.0125001 0.03500010000000001 1e-07 1 1 4 -14 18 19 20 
29 0.0124999 0.0299999 -1e-07 0.0250001 0.03500010000000001 1e-07 1 1 4 -17 21 22 -18 
$EndEntities
$Nodes
46 90 1 90
0 1 0 1
1
0 0 0
0 2 0 1
2
0.0125 0 0
0 3 0 1
3
0.0125 0.005000000000000001 0
0 4 0 1
4
0 0.005000000000000001 0
0 5 0 1
5
0.025 0 0
0 6 0 1
6
0.025 0.005000000000000001 0
0 10 0 1
7
0.0125 0.03 0
0 11 0 1
8
0 0.03 0
0 12 0 1
9
0.025 0.03 0
0 13 0 1
10
0.0125 0.035 0
0 14 0 1
11
0 0.035 0
0 15 0 1
12
0.025 0.035 0
0 16 0 1
13
0 0.0175 0
0 17 0 1
14
0.009375000000000001 0.01749999999999975 0
0 18 0 1
15
0.01250000000000011 0.014375 0
0 19 0 1
16
0.015625 0.0175 0
0 20 0 1
17
0.025 0.0175 0
0 21 0 1
18
0.01250000000000011 0.020625 0
1 1 0 1
19
0.006250000000000005 0 0
1 3 0 1
20
0.006249999999999996 0.005000000000000001 0
1 5 0 1
21
0.01875000000000001 0 0
1 7 0 1
22
0.01875 0.005000000000000001 0
1 14 0 1
23
0.006249999999999996 0.03 0
1 17 0 1
24
0.01875 0.03 0
1 19 0 1
25
0.006249999999999996 0.035 0
1 22 0 1
26
0.01875 0.035 0
1 23 0 1
27
0 0.01125 0
1 24 0 3
28
29
30
0.007031250000000005 0.0175 0
0.004687500000000005 0.0175 0
0.002343750000000002 0.0175 0
1 25 0 3
31
32
33
0.009612876460902241 0.01630411427385907 0
0.01029029130879208 0.015290291308792 0
0.01130411427385917 0.0146128764609022 0
1 26 0 3
34
35
36
0.0125 0.007343749999999996 0
0.0125 0.009687499999999998 0
0.0125 0.01203125 0
1 27 0 3
37
38
39
0.01369588572614098 0.01461287646090226 0
0.014709708691208 0.01529029130879208 0
0.01538712353909778 0.01630411427385912 0
1 28 0 3
40
41
42
0.02265625000000001 0.0175 0
0.0203125 0.0175 0
0.01796875 0.0175 0
1 29 0 1
43
0.025 0.01125000000000001 0
1 30 0 1
44
0 0.02375 0
1 31 0 3
45
46
47
0.0125 0.02296875 0
0.0125 0.0253125 0
0.0125 0.02765625 0
1 32 0 3
48
49
50
0.01130411427385917 0.0203871235390978 0
0.01029029130879208 0.019709708691208 0
0.009612876460902239 0.01869588572614093 0
1 33 0 3
51
52
53
0.01538712353909778 0.01869588572614088 0
0.014709708691208 0.01970970869120792 0
0.01369588572614098 0.02038712353909774 0
1 34 0 1
54
0.025 0.02375000000000001 0
2 1 0 0
2 5 0 0
2 9 0 9
55
56
57
58
59
60
61
62
63
0.007209657345676664 0.0150405857053943 0
0.004806438230451111 0.01377705713692953 0
0.002403219115225554 0.01251352856846476 0
0.00771771848159402 0.012717718481594 0
0.005145145654396014 0.010145145654396 0
0.002572572827198005 0.007572572827197997 0
0.01004058570539432 0.01220965734567665 0
0.008777057136929544 0.009806438230451096 0
0.00751352856846477 0.007403219115225545 0
2 13 0 9
64
65
66
67
68
69
70
71
72
0.01495941429460574 0.0122096573456767 0
0.01622294286307049 0.009806438230451128 0
0.01748647143153524 0.007403219115225561 0
0.017282281518406 0.01271771848159406 0
0.01985485434560401 0.01014514565439604 0
0.02242742717280201 0.007572572827198015 0
0.01779034265432334 0.01504058570539434 0
0.0201935617695489 0.01377705713692956 0
0.02259678088477445 0.01251352856846478 0
2 17 0 9
73
74
75
76
77
78
79
80
81
0.007209657345676685 0.0199594142946057 0
0.004806438230451125 0.02122294286307046 0
0.002403219115225562 0.02248647143153523 0
0.007717718481594063 0.022282281518406 0
0.005145145654396045 0.024854854345604 0
0.002572572827198022 0.027427427172802 0
0.01004058570539438 0.02279034265432335 0
0.008777057136929587 0.0251935617695489 0
0.007513528568464792 0.02759678088477445 0
2 21 0 9
82
83
84
85
86
87
88
89
90
0.01779034265432334 0.01995941429460566 0
0.0201935617695489 0.02122294286307044 0
0.02259678088477445 0.02248647143153523 0
0.017282281518406 0.02228228151840594 0
0.019854854345604 0.02485485434560396 0
0.02242742717280201 0.02742742717280199 0
0.01495941429460574 0.0227903426543233 0
0.01622294286307049 0.02519356176954887 0
0.01748647143153524 0.02759678088477444 0
2 25 0 0
2 29 0 0
$EndNodes
$Elements
12 80 1 80
1 1 1 2
1 1 19 
2 19 2 
1 5 1 2
3 2 21 
4 21 5 
1 19 1 2
5 10 25 
6 25 11 
1 22 1 2
7 12 26 
8 26 10 
2 1 3 2
9 1 19 20 4 
10 19 2 3 20 
2 5 3 2
11 2 21 22 3 
12 21 5 6 22 
2 9 3 16
13 14 28 55 31 
14 28 29 56 55 
15 29 30 57 56 
16 30 13 27 57 
17 31 55 58 32 
18 55 56 59 58 
19 56 57 60 59 
20 57 27 4 60 
21 32 58 61 33 
22 58 59 62 61 
23 59 60 63 62 
24 60 4 20 63 
25 33 61 36 15 
26 61 62 35 36 
27 62 63 34 35 
28 63 20 3 34 
2 13 3 16
29 15 36 64 37 
30 36 35 65 64 
31 35 34 66 65 
32 34 3 22 66 
33 37 64 67 38 
34 64 65 68 67 
35 65 66 69 68 
36 66 22 6 69 
37 38 67 70 39 
38 67 68 71 70 
39 68 69 72 71 
40 69 6 43 72 
41 39 70 42 16 
42 70 71 41 42 
43 71 72 40 41 
44 72 43 17 40 
2 17 3 16
45 14 50 73 28 
46 28 73 74 29 
47 29 74 75 30 
48 30 75 44 13 
49 50 49 76 73 
50 73 76 77 74 
51 74 77 78 75 
52 75 78 8 44 
53 49 48 79 76 
54 76 79 80 77 
55 77 80 81 78 
56 78 81 23 8 
57 48 18 45 79 
58 79 45 46 80 
59 80 46 47 81 
60 81 47 7 23 
2 21 3 16
61 16 42 82 51 
62 42 41 83 82 
63 41 40 84 83 
64 40 17 54 84 
65 51 82 85 52 
66 82 83 86 85 
67 83 84 87 86 
68 84 54 9 87 
69 52 85 88 53 
70 85 86 89 88 
71 86 87 90 89 
72 87 9 24 90 
73 53 88 45 18 
74 88 89 46 45 
75 89 90 47 46 
76 90 24 7 47 
2 25 3 2
77 8 23 25 11 
78 23 7 10 25 
2 29 3 2
79 7 24 26 10 
80 24 9 12 26 
$EndElements
