$MeshFormat
4.1 0 8
$EndMeshFormat
$PhysicalNames
3
2 1 "bc-bot"
2 2 "bc-top"
3 3 "vol"
$EndPhysicalNames
$Entities
8 12 6 1
1 0 0 0.01 0 
2 0 0 0 0 
3 0 0.01 0.01 0 
4 0 0.01 0 0 
5 0.01 0 0.01 0 
6 0.01 0 0 0 
7 0.01 0.01 0.01 0 
8 0.01 0.01 0 0 
1 -1e-07 -1e-07 -1.000000000002735e-07 1e-07 1e-07 0.0100001 0 2 2 -1 
2 -1e-07 -1.000000000002735e-07 0.009999900000000001 1e-07 0.0100001 0.0100001 0 2 1 -3 
3 -1e-07 0.009999900000000001 -1.000000000002735e-07 1e-07 0.0100001 0.0100001 0 2 4 -3 
4 -1e-07 -1.000000000002735e-07 -1e-07 1e-07 0.0100001 1e-07 0 2 2 -4 
5 0.009999900000000001 -1e-07 -1.000000000002735e-07 0.0100001 1e-07 0.0100001 0 2 6 -5 
6 0.009999900000000001 -1.000000000002735e-07 0.009999900000000001 0.0100001 0.0100001 0.0100001 0 2 5 -7 
7 0.009999900000000001 0.009999900000000001 -1.000000000002735e-07 0.0100001 0.0100001 0.0100001 0 2 8 -7 
8 0.009999900000000001 -1.000000000002735e-07 -1e-07 0.0100001 0.0100001 1e-07 0 2 6 -8 
9 -1.000000000002735e-07 -1e-07 -1e-07 0.0100001 1e-07 1e-07 0 2 2 -6 
10 -1.000000000002735e-07 -1e-07 0.009999900000000001 0.0100001 1e-07 0.0100001 0 2 1 -5 
11 -1.000000000002735e-07 0.009999900000000001 -1e-07 0.0100001 0.0100001 1e-07 0 2 4 -8 
12 -1.000000000002735e-07 0.009999900000000001 0.009999900000000001 0.0100001 0.0100001 0.0100001 0 2 3 -7 
1 -1e-07 -1.000000000002735e-07 -1.000000000002735e-07 1e-07 0.0100001 0.0100001 0 4 -1 4 3 -2 
2 0.009999900000000001 -1.000000000002735e-07 -1.000000000002735e-07 0.0100001 0.0100001 0.0100001 0 4 -5 8 7 -6 
3 -1.000000000002735e-07 -1e-07 -1.000000000002735e-07 0.0100001 1e-07 0.0100001 1 1 4 -9 1 10 -5 
4 -1.000000000002735e-07 0.009999900000000001 -1.000000000002735e-07 0.0100001 0.0100001 0.0100001 1 2 4 -11 3 12 -7 
5 -1.000000000002735e-07 -1.000000000002735e-07 -1e-07 0.0100001 0.0100001 1e-07 0 4 -4 9 8 -11 
6 -1.000000000002735e-07 -1.000000000002735e-07 0.009999900000000001 0.0100001 0.0100001 0.0100001 0 4 -2 10 6 -12 
1 -1.000000000002735e-07 -1.000000000002735e-07 -1.000000000002735e-07 0.0100001 0.0100001 0.0100001 1 3 6 -1 2 -3 4 -5 6 
$EndEntities
$Nodes
27 81 1 81
0 1 0 1
1
0 0 0.01
0 2 0 1
2
0 0 0
0 3 0 1
3
0 0.01 0.01
0 4 0 1
4
0 0.01 0
0 5 0 1
5
0.01 0 0.01
0 6 0 1
6
0.01 0 0
0 7 0 1
7
0.01 0.01 0.01
0 8 0 1
8
0.01 0.01 0
1 1 0 3
9
10
11
0 0 0.004999999999999999
0 0 0.0025
0 0 0.0075
1 2 0 3
12
13
14
0 0.004999999999999999 0.01
0 0.0025 0.01
0 0.0075 0.01
1 3 0 3
15
16
17
0 0.01 0.004999999999999999
0 0.01 0.0025
0 0.01 0.0075
1 4 0 3
18
19
20
0 0.004999999999999999 0
0 0.0025 0
0 0.0075 0
1 5 0 3
21
22
23
0.01 0 0.004999999999999999
0.01 0 0.0025
0.01 0 0.0075
1 6 0 3
24
25
26
0.01 0.004999999999999999 0.01
0.01 0.0025 0.01
0.01 0.0075 0.01
1 7 0 3
27
28
29
0.01 0.01 0.004999999999999999
0.01 0.01 0.0025
0.01 0.01 0.0075
1 8 0 3
30
31
32
0.01 0.004999999999999999 0
0.01 0.0025 0
0.01 0.0075 0
1 9 0 3
33
34
35
0.004999999999999999 0 0
0.0025 0 0
0.0075 0 0
1 10 0 3
36
37
38
0.004999999999999999 0 0.01
0.0025 0 0.01
0.0075 0 0.01
1 11 0 3
39
40
41
0.004999999999999999 0.01 0
0.0025 0.01 0
0.0075 0.01 0
1 12 0 3
42
43
44
0.004999999999999999 0.01 0.01
0.0025 0.01 0.01
0.0075 0.01 0.01
2 1 0 5
45
46
47
48
49
0 0.004999999999999999 0.004999999999999999
0 0.0025 0.004999999999999999
0 0.004999999999999999 0.0025
0 0.0075 0.004999999999999999
0 0.004999999999999999 0.0075
2 2 0 5
50
51
52
53
54
0.01 0.004999999999999999 0.004999999999999999
0.01 0.004999999999999999 0.0025
0.01 0.0025 0.004999999999999999
0.01 0.0075 0.004999999999999999
0.01 0.004999999999999999 0.0075
2 3 0 5
55
56
57
58
59
0.004999999999999999 0 0.004999999999999999
0.004999999999999999 0 0.0025
0.0025 0 0.004999999999999999
0.004999999999999999 0 0.0075
0.0075 0 0.004999999999999999
2 4 0 5
60
61
62
63
64
0.004999999999999999 0.01 0.004999999999999999
0.0025 0.01 0.004999999999999999
0.004999999999999999 0.01 0.0025
0.004999999999999999 0.01 0.0075
0.0075 0.01 0.004999999999999999
2 5 0 5
65
66
67
68
69
0.004999999999999999 0.004999999999999999 0
0.0025 0.004999999999999999 0
0.004999999999999999 0.0025 0
0.0075 0.004999999999999999 0
0.004999999999999999 0.0075 0
2 6 0 5
70
71
72
73
74
0.004999999999999999 0.004999999999999999 0.01
0.004999999999999999 0.0025 0.01
0.0025 0.004999999999999999 0.01
0.0075 0.004999999999999999 0.01
0.004999999999999999 0.0075 0.01
3 1 0 7
75
76
77
78
79
80
81
0.004999999999999999 0.004999999999999999 0.004999999999999999
0.0025 0.004999999999999999 0.004999999999999999
0.004999999999999999 0.0025 0.004999999999999999
0.004999999999999999 0.004999999999999999 0.0025
0.0075 0.004999999999999999 0.004999999999999999
0.004999999999999999 0.0075 0.004999999999999999
0.004999999999999999 0.004999999999999999 0.0075
$EndNodes
$Elements
3 16 1 16
2 3 16 4
1 2 33 55 9 34 56 57 10 
2 9 55 36 1 57 58 37 11 
3 33 6 21 55 35 22 59 56 
4 55 21 5 36 59 23 38 58 
2 4 16 4
5 4 15 60 39 16 61 62 40 
6 15 3 42 60 17 43 63 61 
7 39 60 27 8 62 64 28 41 
8 60 42 7 27 63 44 29 64 
3 1 17 8
9 45 9 2 18 75 55 33 65 46 47 76 10 57 19 34 66 77 78 56 67 
10 75 55 33 65 50 21 6 30 77 78 79 56 59 67 35 68 52 51 22 31 
11 15 45 18 4 60 75 65 39 48 16 61 47 76 20 66 40 80 62 78 69 
12 60 75 65 39 27 50 30 8 80 62 64 78 79 69 68 41 53 28 51 32 
13 12 1 9 45 70 36 55 75 13 49 72 11 37 46 57 76 71 81 58 77 
14 70 36 55 75 24 5 21 50 71 81 73 58 38 77 59 79 25 54 23 52 
15 3 12 45 15 42 70 75 60 14 17 43 49 72 48 76 61 74 63 81 80 
16 42 70 75 60 7 24 50 27 74 63 44 81 73 80 79 64 26 29 54 53 
$EndElements
