$MeshFormat
4.1 0 8
$EndMeshFormat
$PhysicalNames
3
2 1 "bc-bot"
2 2 "bc-top"
3 3 "vol"
$EndPhysicalNames
$Entities
8 12 6 1
1 0 0 0.01 0 
2 0 0 0 0 
3 0 0.01 0.01 0 
4 0 0.01 0 0 
5 0.01 0 0.01 0 
6 0.01 0 0 0 
7 0.01 0.01 0.01 0 
8 0.01 0.01 0 0 
1 -1e-07 -1e-07 -1.000000000002735e-07 1e-07 1e-07 0.0100001 0 2 2 -1 
2 -1e-07 -1.000000000002735e-07 0.009999900000000001 1e-07 0.0100001 0.0100001 0 2 1 -3 
3 -1e-07 0.009999900000000001 -1.000000000002735e-07 1e-07 0.0100001 0.0100001 0 2 4 -3 
4 -1e-07 -1.000000000002735e-07 -1e-07 1e-07 0.0100001 1e-07 0 2 2 -4 
5 0.009999900000000001 -1e-07 -1.000000000002735e-07 0.0100001 1e-07 0.0100001 0 2 6 -5 
6 0.009999900000000001 -1.000000000002735e-07 0.009999900000000001 0.0100001 0.0100001 0.0100001 0 2 5 -7 
7 0.009999900000000001 0.009999900000000001 -1.000000000002735e-07 0.0100001 0.0100001 0.0100001 0 2 8 -7 
8 0.009999900000000001 -1.000000000002735e-07 -1e-07 0.0100001 0.0100001 1e-07 0 2 6 -8 
9 -1.000000000002735e-07 -1e-07 -1e-07 0.0100001 1e-07 1e-07 0 2 2 -6 
10 -1.000000000002735e-07 -1e-07 0.009999900000000001 0.0100001 1e-07 0.0100001 0 2 1 -5 
11 -1.000000000002735e-07 0.009999900000000001 -1e-07 0.0100001 0.0100001 1e-07 0 2 4 -8 
12 -1.000000000002735e-07 0.009999900000000001 0.009999900000000001 0.0100001 0.0100001 0.0100001 0 2 3 -7 
1 -1e-07 -1.000000000002735e-07 -1.000000000002735e-07 1e-07 0.0100001 0.0100001 0 4 -1 4 3 -2 
2 0.009999900000000001 -1.000000000002735e-07 -1.000000000002735e-07 0.0100001 0.0100001 0.0100001 0 4 -5 8 7 -6 
3 -1.000000000002735e-07 -1e-07 -1.000000000002735e-07 0.0100001 1e-07 0.0100001 1 1 4 -9 1 10 -5 
4 -1.000000000002735e-07 0.009999900000000001 -1.000000000002735e-07 0.0100001 0.0100001 0.0100001 1 2 4 -11 3 12 -7 
5 -1.000000000002735e-07 -1.000000000002735e-07 -1e-07 0.0100001 0.0100001 1e-07 0 4 -4 9 8 -11 
6 -1.000000000002735e-07 -1.000000000002735e-07 0.009999900000000001 0.0100001 0.0100001 0.0100001 0 4 -2 10 6 -12 
1 -1.000000000002735e-07 -1.000000000002735e-07 -1.000000000002735e-07 0.0100001 0.0100001 0.0100001 1 3 6 -1 2 -3 4 -5 6 
$EndEntities
$Nodes
27 27 1 27
0 1 0 1
1
0 0 0.01
0 2 0 1
2
0 0 0
0 3 0 1
3
0 0.01 0.01
0 4 0 1
4
0 0.01 0
0 5 0 1
5
0.01 0 0.01
0 6 0 1
6
0.01 0 0
0 7 0 1
7
0.01 0.01 0.01
0 8 0 1
8
0.01 0.01 0
1 1 0 1
9
0 0 0.004999999999999999
1 2 0 1
10
0 0.004999999999999999 0.01
1 3 0 1
11
0 0.01 0.004999999999999999
1 4 0 1
12
0 0.004999999999999999 0
1 5 0 1
13
0.01 0 0.004999999999999999
1 6 0 1
14
0.01 0.004999999999999999 0.01
1 7 0 1
15
0.01 0.01 0.004999999999999999
1 8 0 1
16
0.01 0.004999999999999999 0
1 9 0 1
17
0.004999999999999999 0 0
1 10 0 1
18
0.004999999999999999 0 0.01
1 11 0 1
19
0.004999999999999999 0.01 0
1 12 0 1
20
0.004999999999999999 0.01 0.01
2 1 0 1
21
0 0.004999999999999999 0.004999999999999999
2 2 0 1
22
0.01 0.004999999999999999 0.004999999999999999
2 3 0 1
23
0.004999999999999999 0 0.004999999999999999
2 4 0 1
24
0.004999999999999999 0.01 0.004999999999999999
2 5 0 1
25
0.004999999999999999 0.004999999999999999 0
2 6 0 1
26
0.004999999999999999 0.004999999999999999 0.01
3 1 0 1
27
0.004999999999999999 0.004999999999999999 0.004999999999999999
$EndNodes
$Elements
3 16 1 16
2 3 3 4
1 2 17 23 9 
2 9 23 18 1 
3 17 6 13 23 
4 23 13 5 18 
2 4 3 4
5 4 11 24 19 
6 11 3 20 24 
7 19 24 15 8 
8 24 20 7 15 
3 1 5 8
9 21 9 2 12 27 23 17 25 
10 27 23 17 25 22 13 6 16 
11 11 21 12 4 24 27 25 19 
12 24 27 25 19 15 22 16 8 
13 10 1 9 21 26 18 23 27 
14 26 18 23 27 14 5 13 22 
15 3 10 21 11 20 26 27 24 
16 20 26 27 24 7 14 22 15 
$EndElements
