$MeshFormat
4.1 0 8
$EndMeshFormat
$PhysicalNames
3
2 1 "bc-bot"
2 2 "bc-top"
3 3 "vol"
$EndPhysicalNames
$Entities
8 12 6 1
1 0 0 0.01 0 
2 0 0 0 0 
3 0 0.01 0.01 0 
4 0 0.01 0 0 
5 0.01 0 0.01 0 
6 0.01 0 0 0 
7 0.01 0.01 0.01 0 
8 0.01 0.01 0 0 
1 -1e-07 -1e-07 -1.000000000002735e-07 1e-07 1e-07 0.0100001 0 2 2 -1 
2 -1e-07 -1.000000000002735e-07 0.009999900000000001 1e-07 0.0100001 0.0100001 0 2 1 -3 
3 -1e-07 0.009999900000000001 -1.000000000002735e-07 1e-07 0.0100001 0.0100001 0 2 4 -3 
4 -1e-07 -1.000000000002735e-07 -1e-07 1e-07 0.0100001 1e-07 0 2 2 -4 
5 0.009999900000000001 -1e-07 -1.000000000002735e-07 0.0100001 1e-07 0.0100001 0 2 6 -5 
6 0.009999900000000001 -1.000000000002735e-07 0.009999900000000001 0.0100001 0.0100001 0.0100001 0 2 5 -7 
7 0.009999900000000001 0.009999900000000001 -1.000000000002735e-07 0.0100001 0.0100001 0.0100001 0 2 8 -7 
8 0.009999900000000001 -1.000000000002735e-07 -1e-07 0.0100001 0.0100001 1e-07 0 2 6 -8 
9 -1.000000000002735e-07 -1e-07 -1e-07 0.0100001 1e-07 1e-07 0 2 2 -6 
10 -1.000000000002735e-07 -1e-07 0.009999900000000001 0.0100001 1e-07 0.0100001 0 2 1 -5 
11 -1.000000000002735e-07 0.009999900000000001 -1e-07 0.0100001 0.0100001 1e-07 0 2 4 -8 
12 -1.000000000002735e-07 0.009999900000000001 0.009999900000000001 0.0100001 0.0100001 0.0100001 0 2 3 -7 
1 -1e-07 -1.000000000002735e-07 -1.000000000002735e-07 1e-07 0.0100001 0.0100001 0 4 -1 4 3 -2 
2 0.009999900000000001 -1.000000000002735e-07 -1.000000000002735e-07 0.0100001 0.0100001 0.0100001 0 4 -5 8 7 -6 
3 -1.000000000002735e-07 -1e-07 -1.000000000002735e-07 0.0100001 1e-07 0.0100001 1 1 4 -9 1 10 -5 
4 -1.000000000002735e-07 0.009999900000000001 -1.000000000002735e-07 0.0100001 0.0100001 0.0100001 1 2 4 -11 3 12 -7 
5 -1.000000000002735e-07 -1.000000000002735e-07 -1e-07 0.0100001 0.0100001 1e-07 0 4 -4 9 8 -11 
6 -1.000000000002735e-07 -1.000000000002735e-07 0.009999900000000001 0.0100001 0.0100001 0.0100001 0 4 -2 10 6 -12 
1 -1.000000000002735e-07 -1.000000000002735e-07 -1.000000000002735e-07 0.0100001 0.0100001 0.0100001 1 3 6 -1 2 -3 4 -5 6 
$EndEntities
$Nodes
27 231 1 231
0 1 0 1
1
0 0 0.01
0 2 0 1
2
0 0 0
0 3 0 1
3
0 0.01 0.01
0 4 0 1
4
0 0.01 0
0 5 0 1
5
0.01 0 0.01
0 6 0 1
6
0.01 0 0
0 7 0 1
7
0.01 0.01 0.01
0 8 0 1
8
0.01 0.01 0
1 1 0 3
9
10
11
0 0 0.004999999999999986
0 0 0.002499999999999993
0 0 0.007499999999999994
1 2 0 3
12
13
14
0 0.004999999999999986 0.01
0 0.002499999999999993 0.01
0 0.007499999999999994 0.01
1 3 0 3
15
16
17
0 0.01 0.004999999999999986
0 0.01 0.002499999999999993
0 0.01 0.007499999999999994
1 4 0 3
18
19
20
0 0.004999999999999986 0
0 0.002499999999999993 0
0 0.007499999999999994 0
1 5 0 3
21
22
23
0.01 0 0.004999999999999986
0.01 0 0.002499999999999993
0.01 0 0.007499999999999994
1 6 0 3
24
25
26
0.01 0.004999999999999986 0.01
0.01 0.002499999999999993 0.01
0.01 0.007499999999999994 0.01
1 7 0 3
27
28
29
0.01 0.01 0.004999999999999986
0.01 0.01 0.002499999999999993
0.01 0.01 0.007499999999999994
1 8 0 3
30
31
32
0.01 0.004999999999999986 0
0.01 0.002499999999999993 0
0.01 0.007499999999999994 0
1 9 0 3
33
34
35
0.004999999999999986 0 0
0.002499999999999993 0 0
0.007499999999999994 0 0
1 10 0 3
36
37
38
0.004999999999999986 0 0.01
0.002499999999999993 0 0.01
0.007499999999999994 0 0.01
1 11 0 3
39
40
41
0.004999999999999986 0.01 0
0.002499999999999993 0.01 0
0.007499999999999994 0.01 0
1 12 0 3
42
43
44
0.004999999999999986 0.01 0.01
0.002499999999999993 0.01 0.01
0.007499999999999994 0.01 0.01
2 1 0 21
45
46
47
48
49
50
51
52
53
54
55
56
57
58
59
60
61
62
63
64
65
0 0.007386115160349848 0.007386115160349848
0 0.00625 0.003749999999999991
0 0.003574769193391639 0.006491435860058304
0 0.002812500000000005 0.002812500000000005
0 0.001787384596695819 0.008245717930029152
0 0.001787384596695819 0.005745717930029145
0 0.004287384596695813 0.008245717930029152
0 0.001406250000000002 0.003906249999999996
0 0.001406250000000002 0.001406250000000002
0 0.003906249999999996 0.001406250000000002
0 0.008693057580174924 0.008693057580174924
0 0.006193057580174917 0.008693057580174924
0 0.008693057580174924 0.006193057580174917
0 0.008125 0.001874999999999996
0 0.008125 0.004374999999999988
0 0.005624999999999993 0.001874999999999996
0 0.003193634596695822 0.004651967930029154
0 0.005480442176870743 0.006938775510204076
0 0.006818057580174924 0.00556805758017492
0 0.004531250000000002 0.003281249999999998
0 0.00491238459669582 0.005120717930029148
2 2 0 21
66
67
68
69
70
71
72
73
74
75
76
77
78
79
80
81
82
83
84
85
86
0.01 0.007386115160349848 0.007386115160349848
0.01 0.003749999999999991 0.006249999999999999
0.01 0.006491435860058303 0.003574769193391639
0.01 0.002812500000000004 0.002812500000000004
0.01 0.001874999999999996 0.005624999999999993
0.01 0.001874999999999996 0.008125
0.01 0.004374999999999988 0.008125
0.01 0.001406250000000002 0.001406250000000002
0.01 0.001406250000000002 0.003906249999999995
0.01 0.003906249999999995 0.001406250000000002
0.01 0.006193057580174917 0.008693057580174924
0.01 0.008693057580174924 0.008693057580174924
0.01 0.008693057580174924 0.006193057580174917
0.01 0.008245717930029152 0.004287384596695813
0.01 0.008245717930029152 0.001787384596695819
0.01 0.005745717930029145 0.001787384596695819
0.01 0.003281249999999998 0.004531250000000002
0.01 0.00556805758017492 0.006818057580174923
0.01 0.006938775510204075 0.005480442176870743
0.01 0.004651967930029154 0.003193634596695822
0.01 0.005120717930029148 0.004912384596695819
2 3 0 21
87
88
89
90
91
92
93
94
95
96
97
98
99
100
101
102
103
104
105
106
107
0.007386115160349848 0 0.007386115160349848
0.003749999999999991 0 0.00625
0.006491435860058304 0 0.003574769193391639
0.002812500000000005 0 0.002812500000000005
0.001874999999999996 0 0.005624999999999993
0.001874999999999996 0 0.008125
0.004374999999999988 0 0.008125
0.001406250000000002 0 0.001406250000000002
0.001406250000000002 0 0.003906249999999996
0.003906249999999996 0 0.001406250000000002
0.008693057580174924 0 0.008693057580174924
0.008693057580174924 0 0.006193057580174917
0.006193057580174917 0 0.008693057580174924
0.008245717930029152 0 0.004287384596695813
0.008245717930029152 0 0.001787384596695819
0.005745717930029145 0 0.001787384596695819
0.003281249999999998 0 0.004531250000000002
0.006938775510204076 0 0.005480442176870743
0.004651967930029154 0 0.003193634596695822
0.00556805758017492 0 0.006818057580174924
0.005120717930029148 0 0.00491238459669582
2 4 0 21
108
109
110
111
112
113
114
115
116
117
118
119
120
121
122
123
124
125
126
127
128
0.007386115160349848 0.01 0.007386115160349848
0.003749999999999991 0.01 0.00625
0.006491435860058304 0.01 0.003574769193391639
0.002812500000000005 0.01 0.002812500000000005
0.001874999999999996 0.01 0.008125
0.001874999999999996 0.01 0.005624999999999993
0.004374999999999988 0.01 0.008125
0.001406250000000002 0.01 0.003906249999999996
0.001406250000000002 0.01 0.001406250000000002
0.003906249999999996 0.01 0.001406250000000002
0.008693057580174924 0.01 0.006193057580174917
0.008693057580174924 0.01 0.008693057580174924
0.006193057580174917 0.01 0.008693057580174924
0.008245717930029152 0.01 0.001787384596695819
0.008245717930029152 0.01 0.004287384596695813
0.005745717930029145 0.01 0.001787384596695819
0.003281249999999998 0.01 0.004531250000000002
0.006938775510204076 0.01 0.005480442176870743
0.004651967930029154 0.01 0.003193634596695822
0.00556805758017492 0.01 0.006818057580174924
0.005120717930029148 0.01 0.00491238459669582
2 5 0 21
129
130
131
132
133
134
135
136
137
138
139
140
141
142
143
144
145
146
147
148
149
0.007386115160349848 0.007386115160349848 0
0.003749999999999991 0.006249999999999999 0
0.006491435860058303 0.003574769193391639 0
0.002812500000000004 0.002812500000000004 0
0.001406250000000002 0.003906249999999995 0
0.001406250000000002 0.001406250000000002 0
0.003906249999999995 0.001406250000000002 0
0.001874999999999996 0.008125 0
0.001874999999999996 0.005624999999999993 0
0.004374999999999988 0.008125 0
0.008245717930029152 0.001787384596695819 0
0.008245717930029152 0.004287384596695813 0
0.005745717930029145 0.001787384596695819 0
0.008693057580174924 0.006193057580174917 0
0.008693057580174924 0.008693057580174924 0
0.006193057580174917 0.008693057580174924 0
0.003281249999999998 0.004531250000000002 0
0.006938775510204075 0.005480442176870743 0
0.004651967930029154 0.003193634596695822 0
0.00556805758017492 0.006818057580174923 0
0.005120717930029148 0.004912384596695819 0
2 6 0 21
150
151
152
153
154
155
156
157
158
159
160
161
162
163
164
165
166
167
168
169
170
0.007386115160349848 0.007386115160349848 0.01
0.00625 0.003749999999999991 0.01
0.003574769193391639 0.006491435860058304 0.01
0.002812500000000005 0.002812500000000005 0.01
0.001406250000000002 0.001406250000000002 0.01
0.001406250000000002 0.003906249999999996 0.01
0.003906249999999996 0.001406250000000002 0.01
0.001787384596695819 0.005745717930029145 0.01
0.001787384596695819 0.008245717930029152 0.01
0.004287384596695813 0.008245717930029152 0.01
0.008125 0.004374999999999988 0.01
0.008125 0.001874999999999996 0.01
0.005624999999999993 0.001874999999999996 0.01
0.008693057580174924 0.008693057580174924 0.01
0.008693057580174924 0.006193057580174917 0.01
0.006193057580174917 0.008693057580174924 0.01
0.003193634596695822 0.004651967930029154 0.01
0.006818057580174924 0.00556805758017492 0.01
0.004531250000000002 0.003281249999999998 0.01
0.005480442176870743 0.006938775510204076 0.01
0.00491238459669582 0.005120717930029148 0.01
3 1 0 61
171
172
173
174
175
176
177
178
179
180
181
182
183
184
185
186
187
188
189
190
191
192
193
194
195
196
197
198
199
200
201
202
203
204
205
206
207
208
209
210
211
212
213
214
215
216
217
218
219
220
221
222
223
224
225
226
227
228
229
230
231
0.004263392857142861 0.004263392857142863 0.004263392857142861
0.008693057580174924 0.008693057580174924 0.007386115160349848
0.008693057580174924 0.007386115160349848 0.008693057580174924
0.007386115160349848 0.008693057580174924 0.008693057580174924
0.005824754008746354 0.007131696428571432 0.005824754008746354
0.005824754008746354 0.005824754008746356 0.007131696428571431
0.007131696428571431 0.005824754008746356 0.005824754008746354
0.008693057580174924 0.008245717930029152 0.005480442176870743
0.007131696428571431 0.005377414358600584 0.00391908102526725
0.008693057580174924 0.00556805758017492 0.008125
0.007131696428571431 0.004006696428571427 0.00525669642857143
0.008245717930029152 0.008245717930029152 0.003574769193391639
0.005377414358600583 0.007131696428571432 0.00391908102526725
0.008125 0.003749999999999991 0.008125
0.005256696428571431 0.004006696428571427 0.007131696428571431
0.00391908102526725 0.005377414358600584 0.007131696428571431
0.004006696428571426 0.007131696428571432 0.005256696428571431
0.006938775510204076 0.008693057580174924 0.001787384596695819
0.008693057580174924 0.006938775510204075 0.001787384596695819
0.005824754008746354 0.005824754008746356 0.002131696428571431
0.003662384596695815 0.008245717930029152 0.008125
0.001787384596695819 0.006938775510204076 0.008693057580174924
0.001874999999999996 0.008693057580174924 0.006818057580174924
0.002131696428571431 0.005824754008746356 0.005824754008746354
0.008693057580174924 0.001874999999999996 0.006818057580174923
0.006818057580174924 0.001874999999999996 0.008693057580174924
0.005824754008746354 0.002131696428571432 0.005824754008746354
0.001787384596695819 0.005033102526724972 0.008245717930029152
0.002131696428571431 0.003919081025267251 0.005377414358600583
0.008245717930029152 0.005033102526724971 0.001787384596695819
0.005377414358600582 0.003919081025267251 0.002131696428571431
0.005480442176870743 0.008245717930029152 0.008693057580174924
0.001406250000000002 0.003193634596695822 0.008245717930029152
0.003537946428571433 0.003537946428571434 0.007131696428571431
0.008245717930029152 0.003193634596695822 0.001406250000000002
0.007131696428571431 0.003537946428571434 0.003537946428571433
0.008245717930029152 0.001874999999999996 0.004912384596695819
0.005377414358600583 0.002131696428571432 0.00391908102526725
0.005120717930029148 0.008125 0.001787384596695819
0.004006696428571426 0.005256696428571432 0.002131696428571431
0.003281249999999998 0.008125 0.001406250000000002
0.003537946428571433 0.007131696428571432 0.003537946428571433
0.004999999999999996 0.001874999999999996 0.008125
0.004006696428571426 0.002131696428571432 0.005256696428571431
0.001874999999999996 0.008125 0.004999999999999996
0.002131696428571431 0.005256696428571432 0.004006696428571426
0.008245717930029152 0.001406250000000002 0.003193634596695822
0.002812500000000004 0.001406250000000002 0.001406250000000002
0.003537946428571433 0.002131696428571432 0.003537946428571433
0.003537946428571433 0.003537946428571434 0.002131696428571431
0.004631696428571424 0.002131696428571432 0.002131696428571431
0.001406250000000002 0.001406250000000002 0.002812500000000005
0.001874999999999996 0.001406250000000002 0.004531250000000002
0.001406250000000002 0.002812500000000004 0.001406250000000002
0.001406250000000002 0.004531250000000002 0.001874999999999996
0.003281249999999998 0.001406250000000002 0.008125
0.001406250000000002 0.008125 0.003281249999999998
0.002131696428571431 0.003537946428571434 0.003537946428571433
0.006491435860058304 0.001787384596695819 0.001787384596695819
0.001874999999999996 0.001787384596695819 0.006370717930029152
0.001874999999999996 0.00625 0.001874999999999996
$EndNodes
$Elements
3 128 1 128
2 3 9 14
1 1 9 88 11 91 92 
2 36 1 88 37 92 93 
3 9 2 90 10 94 95 
4 2 33 90 34 96 94 
5 21 5 87 23 97 98 
6 5 36 87 38 99 97 
7 6 21 89 22 100 101 
8 33 6 89 35 101 102 
9 88 9 90 91 95 103 
10 21 87 89 98 104 100 
11 33 89 90 102 105 96 
12 87 36 88 99 93 106 
13 87 88 89 106 107 104 
14 89 88 90 107 103 105 
2 4 9 14
15 3 109 15 112 113 17 
16 42 109 3 114 112 43 
17 15 111 4 115 116 16 
18 4 111 39 116 117 40 
19 27 108 7 118 119 29 
20 7 108 42 119 120 44 
21 8 110 27 121 122 28 
22 39 110 8 123 121 41 
23 109 111 15 124 115 113 
24 27 110 108 122 125 118 
25 39 111 110 117 126 123 
26 108 109 42 127 114 120 
27 108 110 109 125 128 127 
28 110 111 109 126 124 128 
3 1 11 100
29 108 66 150 171 172 173 174 175 176 177 
30 108 68 66 171 178 84 172 175 177 179 
31 150 66 67 171 173 83 180 176 181 177 
32 108 110 68 171 125 182 178 175 179 183 
33 67 151 150 171 184 167 180 181 176 185 
34 151 152 150 171 170 169 167 185 176 186 
35 109 110 108 171 128 125 127 187 175 183 
36 66 68 67 171 84 86 83 177 181 179 
37 110 129 68 171 188 189 182 183 179 190 
38 109 152 45 171 191 192 193 187 194 186 
39 151 67 87 171 184 195 196 185 197 181 
40 152 47 45 171 198 62 192 186 194 199 
41 129 131 68 171 146 200 189 190 179 201 
42 108 68 27 66 178 79 118 172 78 84 
43 150 152 42 108 169 159 165 174 120 202 
44 47 152 153 171 198 166 203 199 204 186 
45 68 131 69 171 200 205 85 179 206 201 
46 67 89 87 171 207 104 195 181 197 208 
47 110 130 129 171 209 148 188 183 190 210 
48 150 24 67 66 164 72 180 173 83 76 
49 130 110 111 171 209 126 211 210 212 183 
50 88 151 87 171 213 196 106 214 197 185 
51 109 45 46 171 193 63 215 187 216 194 
52 69 89 67 171 217 207 82 206 181 208 
53 67 68 69 171 86 85 82 181 206 179 
54 152 151 153 171 170 168 166 186 204 185 
55 111 110 109 171 126 128 124 212 187 183 
56 90 33 132 171 96 135 218 219 220 221 
57 9 90 48 88 95 222 52 91 223 103 
58 18 48 132 46 54 224 133 60 225 64 
59 153 151 88 171 168 213 226 204 214 185 
60 111 109 46 171 124 215 227 212 216 187 
61 132 46 48 171 225 64 224 220 228 216 
62 48 88 90 171 223 103 222 228 219 214 
63 131 89 69 171 229 217 205 201 206 208 
64 68 108 27 110 178 118 79 182 122 125 
65 153 88 47 171 226 230 203 204 199 214 
66 109 42 152 108 114 159 191 127 202 120 
67 130 111 46 171 211 227 231 210 216 212 
68 33 131 132 171 141 147 135 221 220 201 
69 90 89 33 171 105 102 96 219 221 208 
70 24 67 151 150 72 184 160 164 167 180 
71 87 89 88 171 104 107 106 197 214 208 
72 45 47 46 171 62 65 63 194 216 199 
73 129 130 131 171 148 149 146 190 201 210 
74 47 9 48 88 50 52 61 230 223 91 
75 90 132 48 171 218 224 222 219 228 220 
76 45 152 12 47 192 157 56 62 51 198 
77 68 129 30 131 189 142 81 200 140 146 
78 48 47 88 171 61 230 223 228 214 199 
79 111 4 130 46 116 136 211 227 231 58 
80 47 152 12 153 198 157 51 203 155 166 
81 69 68 30 131 85 81 75 205 140 200 
82 151 87 67 5 196 195 184 161 71 97 
83 130 18 132 46 137 133 145 231 225 60 
84 130 111 110 39 211 126 209 138 123 117 
85 89 131 69 6 229 205 217 101 73 139 
86 39 110 130 129 123 209 138 144 148 188 
87 67 87 89 21 195 104 207 70 100 98 
88 88 47 1 153 230 49 92 226 154 203 
89 68 110 8 129 182 121 80 189 143 188 
90 45 109 3 152 193 112 55 192 158 191 
91 46 132 130 171 225 145 231 216 210 220 
92 151 36 88 87 162 93 213 196 106 99 
93 46 45 109 15 63 193 215 59 113 57 
94 89 69 67 21 217 82 207 100 70 74 
95 153 36 88 151 156 93 226 168 213 162 
96 109 111 46 15 124 227 215 113 59 115 
97 33 89 131 171 102 229 141 221 201 208 
98 5 67 151 24 71 184 161 25 160 72 
99 18 130 4 46 137 136 20 60 58 231 
100 33 131 89 6 141 229 102 35 101 139 
101 47 1 9 88 49 11 50 230 91 92 
102 42 3 109 152 43 112 114 159 191 158 
103 68 110 27 8 182 122 79 80 28 121 
104 132 2 90 48 134 94 218 224 222 53 
105 36 88 1 153 93 92 37 156 154 226 
106 130 4 111 39 136 116 211 138 117 40 
107 46 111 4 15 227 116 58 59 16 115 
108 39 8 110 129 41 121 123 144 188 143 
109 129 8 68 30 143 80 189 142 81 32 
110 45 109 15 3 193 113 57 55 17 112 
111 87 67 5 21 195 71 97 98 23 70 
112 87 151 36 5 196 162 99 97 38 161 
113 30 69 131 6 75 205 140 31 139 73 
114 21 89 69 6 100 217 74 22 73 101 
115 2 9 90 48 10 95 94 53 222 52 
116 48 132 2 18 224 134 53 54 19 133 
117 2 90 33 132 94 96 34 134 135 218 
118 152 3 45 12 158 55 192 157 56 14 
119 12 1 47 153 13 49 51 155 203 154 
120 7 150 42 108 163 165 44 119 120 174 
121 24 150 7 66 164 163 26 76 77 173 
122 66 108 7 27 172 119 77 78 29 118 
123 88 89 90 171 107 105 103 214 219 208 
124 48 46 47 171 64 65 61 228 199 216 
125 132 131 130 171 147 149 145 220 210 201 
126 108 7 150 66 119 163 174 172 173 77 
127 108 152 171 150 202 186 175 174 176 169 
128 108 171 152 109 175 186 202 127 191 187 
$EndElements
