$MeshFormat
4.1 0 8
$EndMeshFormat
$PhysicalNames
3
2 1 "bc-bot"
2 2 "bc-top"
3 3 "vol"
$EndPhysicalNames
$Entities
8 12 6 1
1 0 0 0.01 0 
2 0 0 0 0 
3 0 0.01 0.01 0 
4 0 0.01 0 0 
5 0.01 0 0.01 0 
6 0.01 0 0 0 
7 0.01 0.01 0.01 0 
8 0.01 0.01 0 0 
1 -1e-07 -1e-07 -1.000000000002735e-07 1e-07 1e-07 0.0100001 0 2 2 -1 
2 -1e-07 -1.000000000002735e-07 0.009999900000000001 1e-07 0.0100001 0.0100001 0 2 1 -3 
3 -1e-07 0.009999900000000001 -1.000000000002735e-07 1e-07 0.0100001 0.0100001 0 2 4 -3 
4 -1e-07 -1.000000000002735e-07 -1e-07 1e-07 0.0100001 1e-07 0 2 2 -4 
5 0.009999900000000001 -1e-07 -1.000000000002735e-07 0.0100001 1e-07 0.0100001 0 2 6 -5 
6 0.009999900000000001 -1.000000000002735e-07 0.009999900000000001 0.0100001 0.0100001 0.0100001 0 2 5 -7 
7 0.009999900000000001 0.009999900000000001 -1.000000000002735e-07 0.0100001 0.0100001 0.0100001 0 2 8 -7 
8 0.009999900000000001 -1.000000000002735e-07 -1e-07 0.0100001 0.0100001 1e-07 0 2 6 -8 
9 -1.000000000002735e-07 -1e-07 -1e-07 0.0100001 1e-07 1e-07 0 2 2 -6 
10 -1.000000000002735e-07 -1e-07 0.009999900000000001 0.0100001 1e-07 0.0100001 0 2 1 -5 
11 -1.000000000002735e-07 0.009999900000000001 -1e-07 0.0100001 0.0100001 1e-07 0 2 4 -8 
12 -1.000000000002735e-07 0.009999900000000001 0.009999900000000001 0.0100001 0.0100001 0.0100001 0 2 3 -7 
1 -1e-07 -1.000000000002735e-07 -1.000000000002735e-07 1e-07 0.0100001 0.0100001 0 4 -1 4 3 -2 
2 0.009999900000000001 -1.000000000002735e-07 -1.000000000002735e-07 0.0100001 0.0100001 0.0100001 0 4 -5 8 7 -6 
3 -1.000000000002735e-07 -1e-07 -1.000000000002735e-07 0.0100001 1e-07 0.0100001 1 1 4 -9 1 10 -5 
4 -1.000000000002735e-07 0.009999900000000001 -1.000000000002735e-07 0.0100001 0.0100001 0.0100001 1 2 4 -11 3 12 -7 
5 -1.000000000002735e-07 -1.000000000002735e-07 -1e-07 0.0100001 0.0100001 1e-07 0 4 -4 9 8 -11 
6 -1.000000000002735e-07 -1.000000000002735e-07 0.009999900000000001 0.0100001 0.0100001 0.0100001 0 4 -2 10 6 -12 
1 -1.000000000002735e-07 -1.000000000002735e-07 -1.000000000002735e-07 0.0100001 0.0100001 0.0100001 1 3 6 -1 2 -3 4 -5 6 
$EndEntities
$Nodes
27 45 1 45
0 1 0 1
1
0 0 0.01
0 2 0 1
2
0 0 0
0 3 0 1
3
0 0.01 0.01
0 4 0 1
4
0 0.01 0
0 5 0 1
5
0.01 0 0.01
0 6 0 1
6
0.01 0 0
0 7 0 1
7
0.01 0.01 0.01
0 8 0 1
8
0.01 0.01 0
1 1 0 1
9
0 0 0.004999999999999986
1 2 0 1
10
0 0.004999999999999986 0.01
1 3 0 1
11
0 0.01 0.004999999999999986
1 4 0 1
12
0 0.004999999999999986 0
1 5 0 1
13
0.01 0 0.004999999999999986
1 6 0 1
14
0.01 0.004999999999999986 0.01
1 7 0 1
15
0.01 0.01 0.004999999999999986
1 8 0 1
16
0.01 0.004999999999999986 0
1 9 0 1
17
0.004999999999999986 0 0
1 10 0 1
18
0.004999999999999986 0 0.01
1 11 0 1
19
0.004999999999999986 0.01 0
1 12 0 1
20
0.004999999999999986 0.01 0.01
2 1 0 4
21
22
23
24
0 0.007386115160349848 0.007386115160349848
0 0.00625 0.003749999999999991
0 0.003574769193391639 0.006491435860058304
0 0.002812500000000005 0.002812500000000005
2 2 0 4
25
26
27
28
0.01 0.007386115160349848 0.007386115160349848
0.01 0.003749999999999991 0.006249999999999999
0.01 0.006491435860058303 0.003574769193391639
0.01 0.002812500000000004 0.002812500000000004
2 3 0 4
29
30
31
32
0.007386115160349848 0 0.007386115160349848
0.003749999999999991 0 0.00625
0.006491435860058304 0 0.003574769193391639
0.002812500000000005 0 0.002812500000000005
2 4 0 4
33
34
35
36
0.007386115160349848 0.01 0.007386115160349848
0.003749999999999991 0.01 0.00625
0.006491435860058304 0.01 0.003574769193391639
0.002812500000000005 0.01 0.002812500000000005
2 5 0 4
37
38
39
40
0.007386115160349848 0.007386115160349848 0
0.003749999999999991 0.006249999999999999 0
0.006491435860058303 0.003574769193391639 0
0.002812500000000004 0.002812500000000004 0
2 6 0 4
41
42
43
44
0.007386115160349848 0.007386115160349848 0.01
0.00625 0.003749999999999991 0.01
0.003574769193391639 0.006491435860058304 0.01
0.002812500000000005 0.002812500000000005 0.01
3 1 0 1
45
0.004263392857142861 0.004263392857142863 0.004263392857142861
$EndNodes
$Elements
3 128 1 128
2 3 2 14
1 1 9 30 
2 18 1 30 
3 9 2 32 
4 2 17 32 
5 13 5 29 
6 5 18 29 
7 6 13 31 
8 17 6 31 
9 30 9 32 
10 13 29 31 
11 17 31 32 
12 29 18 30 
13 29 30 31 
14 31 30 32 
2 4 2 14
15 3 34 11 
16 20 34 3 
17 11 36 4 
18 4 36 19 
19 15 33 7 
20 7 33 20 
21 8 35 15 
22 19 35 8 
23 34 36 11 
24 15 35 33 
25 19 36 35 
26 33 34 20 
27 33 35 34 
28 35 36 34 
3 1 4 100
29 33 25 41 45 
30 33 27 25 45 
31 41 25 26 45 
32 33 35 27 45 
33 26 42 41 45 
34 42 43 41 45 
35 34 35 33 45 
36 25 27 26 45 
37 35 37 27 45 
38 34 43 21 45 
39 42 26 29 45 
40 43 23 21 45 
41 37 39 27 45 
42 33 27 15 25 
43 41 43 20 33 
44 23 43 44 45 
45 27 39 28 45 
46 26 31 29 45 
47 35 38 37 45 
48 41 14 26 25 
49 38 35 36 45 
50 30 42 29 45 
51 34 21 22 45 
52 28 31 26 45 
53 26 27 28 45 
54 43 42 44 45 
55 36 35 34 45 
56 32 17 40 45 
57 9 32 24 30 
58 12 24 40 22 
59 44 42 30 45 
60 36 34 22 45 
61 40 22 24 45 
62 24 30 32 45 
63 39 31 28 45 
64 27 33 15 35 
65 44 30 23 45 
66 34 20 43 33 
67 38 36 22 45 
68 17 39 40 45 
69 32 31 17 45 
70 14 26 42 41 
71 29 31 30 45 
72 21 23 22 45 
73 37 38 39 45 
74 23 9 24 30 
75 32 40 24 45 
76 21 43 10 23 
77 27 37 16 39 
78 24 23 30 45 
79 36 4 38 22 
80 23 43 10 44 
81 28 27 16 39 
82 42 29 26 5 
83 38 12 40 22 
84 38 36 35 19 
85 31 39 28 6 
86 19 35 38 37 
87 26 29 31 13 
88 30 23 1 44 
89 27 35 8 37 
90 21 34 3 43 
91 22 40 38 45 
92 42 18 30 29 
93 22 21 34 11 
94 31 28 26 13 
95 44 18 30 42 
96 34 36 22 11 
97 17 31 39 45 
98 5 26 42 14 
99 12 38 4 22 
100 17 39 31 6 
101 23 1 9 30 
102 20 3 34 43 
103 27 35 15 8 
104 40 2 32 24 
105 18 30 1 44 
106 38 4 36 19 
107 22 36 4 11 
108 19 8 35 37 
109 37 8 27 16 
110 21 34 11 3 
111 29 26 5 13 
112 29 42 18 5 
113 16 28 39 6 
114 13 31 28 6 
115 2 9 32 24 
116 24 40 2 12 
117 2 32 17 40 
118 43 3 21 10 
119 10 1 23 44 
120 7 41 20 33 
121 14 41 7 25 
122 25 33 7 15 
123 30 31 32 45 
124 24 22 23 45 
125 40 39 38 45 
126 33 7 41 25 
127 33 43 45 41 
128 33 45 43 34 
$EndElements
