$MeshFormat
4.1 0 8
$EndMeshFormat
$PhysicalNames
3
2 1 "bc-bot"
2 2 "bc-top"
3 3 "vol"
$EndPhysicalNames
$Entities
17 32 22 5
1 0 0 0 0 
2 -0.00175 0 -0.00175 0 
3 0.00175 0 -0.00175 0 
4 0.00175 0 0.00175 0 
5 -0.00175 0 0.00175 0 
6 -0.003535533905932737 0 -0.003535533905932737 0 
7 0.003535533905932737 0 -0.003535533905932737 0 
8 0.003535533905932737 0 0.003535533905932737 0 
9 -0.003535533905932737 0 0.003535533905932737 0 
10 -0.00175 0.012 -0.00175 0 
11 0.00175 0.012 -0.00175 0 
12 0.00175 0.012 0.00175 0 
13 -0.00175 0.012 0.00175 0 
14 0.003535533905932737 0.012 -0.003535533905932737 0 
15 -0.003535533905932737 0.012 -0.003535533905932737 0 
16 0.003535533905932737 0.012 0.003535533905932737 0 
17 -0.003535533905932737 0.012 0.003535533905932737 0 
1 -0.0017501 -1e-07 -0.0017501 0.0017501 1e-07 -0.0017499 0 2 2 -3 
2 0.0017499 -1e-07 -0.0017501 0.0017501 1e-07 0.0017501 0 2 3 -4 
3 -0.0017501 -1e-07 0.0017499 0.0017501 1e-07 0.0017501 0 2 4 -5 
4 -0.0017501 -1e-07 -0.0017501 -0.0017499 1e-07 0.0017501 0 2 5 -2 
5 -0.003535633905932738 -1e-07 -0.0050001 0.003535633905932739 1e-07 -0.003535433905932735 0 2 6 -7 
6 0.003535433905932737 -1e-07 -0.003535633905932738 0.0050001 1e-07 0.003535633905932736 0 2 7 -8 
7 -0.003535633905932736 -1e-07 0.003535433905932737 0.003535633905932738 1e-07 0.0050001 0 2 8 -9 
8 -0.0050001 -1e-07 -0.003535633905932733 -0.003535433905932737 1e-07 0.003535633905932737 0 2 9 -6 
9 -0.003535633905932737 -1e-07 -0.003535633905932737 -0.0017499 1e-07 -0.0017499 0 2 2 -6 
10 0.0017499 -1e-07 -0.003535633905932737 0.003535633905932737 1e-07 -0.0017499 0 2 3 -7 
11 0.0017499 -1e-07 0.0017499 0.003535633905932737 1e-07 0.003535633905932737 0 2 4 -8 
12 -0.003535633905932737 -1e-07 0.0017499 -0.0017499 1e-07 0.003535633905932737 0 2 5 -9 
13 -0.0017501 -1.000000000002735e-07 -0.0017501 -0.0017499 0.0120001 -0.0017499 0 2 2 -10 
14 0.0017499 -1.000000000002735e-07 -0.0017501 0.0017501 0.0120001 -0.0017499 0 2 3 -11 
15 -0.0017501 0.0119999 -0.0017501 0.0017501 0.0120001 -0.0017499 0 2 10 -11 
16 0.0017499 -1.000000000002735e-07 0.0017499 0.0017501 0.0120001 0.0017501 0 2 4 -12 
17 0.0017499 0.0119999 -0.0017501 0.0017501 0.0120001 0.0017501 0 2 11 -12 
18 -0.0017501 -1.000000000002735e-07 0.0017499 -0.0017499 0.0120001 0.0017501 0 2 5 -13 
19 -0.0017501 0.0119999 0.0017499 0.0017501 0.0120001 0.0017501 0 2 12 -13 
20 -0.0017501 0.0119999 -0.0017501 -0.0017499 0.0120001 0.0017501 0 2 13 -10 
21 0.003535433905932737 -1.000000000002735e-07 -0.003535633905932737 0.003535633905932737 0.0120001 -0.003535433905932737 0 2 7 -14 
22 0.0017499 0.0119999 -0.003535633905932737 0.003535633905932737 0.0120001 -0.0017499 0 2 11 -14 
23 -0.003535633905932737 -1.000000000002735e-07 -0.003535633905932737 -0.003535433905932737 0.0120001 -0.003535433905932737 0 2 6 -15 
24 -0.003535633905932738 0.0119999 -0.0050001 0.003535633905932739 0.0120001 -0.003535433905932735 0 2 15 -14 
25 -0.003535633905932737 0.0119999 -0.003535633905932737 -0.0017499 0.0120001 -0.0017499 0 2 10 -15 
26 0.003535433905932737 -1.000000000002735e-07 0.003535433905932737 0.003535633905932737 0.0120001 0.003535633905932737 0 2 8 -16 
27 0.0017499 0.0119999 0.0017499 0.003535633905932737 0.0120001 0.003535633905932737 0 2 12 -16 
28 0.003535433905932737 0.0119999 -0.003535633905932738 0.0050001 0.0120001 0.003535633905932736 0 2 14 -16 
29 -0.003535633905932737 -1.000000000002735e-07 0.003535433905932737 -0.003535433905932737 0.0120001 0.003535633905932737 0 2 9 -17 
30 -0.003535633905932737 0.0119999 0.0017499 -0.0017499 0.0120001 0.003535633905932737 0 2 13 -17 
31 -0.003535633905932736 0.0119999 0.003535433905932737 0.003535633905932738 0.0120001 0.0050001 0 2 16 -17 
32 -0.0050001 0.0119999 -0.003535633905932733 -0.003535433905932737 0.0120001 0.003535633905932737 0 2 17 -15 
14 -0.0017501 -1e-07 -0.0017501 0.0017501 1e-07 0.0017501 1 1 4 1 2 3 4 
16 -0.003535633905932738 -1e-07 -0.0050001 0.003535633905932739 1e-07 -0.0017499 1 1 4 1 10 -5 -9 
18 0.0017499 -1e-07 -0.003535633905932738 0.0050001 1e-07 0.003535633905932738 1 1 4 2 11 -6 -10 
20 -0.003535633905932738 -1e-07 0.0017499 0.003535633905932738 1e-07 0.0050001 1 1 4 3 12 -7 -11 
22 -0.0050001 -1e-07 -0.003535633905932737 -0.0017499 1e-07 0.003535633905932737 1 1 4 4 9 -8 -12 
23 -0.0017501 -1.000000000002735e-07 -0.0017501 0.0017501 0.0120001 -0.0017499 0 4 13 15 -14 -1 
24 0.0017499 -1.000000000002735e-07 -0.0017501 0.0017501 0.0120001 0.0017501 0 4 14 17 -16 -2 
25 -0.0017501 -1.000000000002735e-07 0.0017499 0.0017501 0.0120001 0.0017501 0 4 16 19 -18 -3 
26 -0.0017501 -1.000000000002735e-07 -0.0017501 -0.0017499 0.0120001 0.0017501 0 4 18 20 -13 -4 
27 -0.0017501 0.0119999 -0.0017501 0.0017501 0.0120001 0.0017501 1 2 4 15 17 19 20 
28 0.0017499 -1.000000000002735e-07 -0.003535633905932737 0.003535633905932737 0.0120001 -0.0017499 0 4 14 22 -21 -10 
29 -0.003535633905932738 -1.000000000002735e-07 -0.0050001 0.003535633905932739 0.0120001 -0.003535433905932735 0 4 23 24 -21 -5 
30 -0.003535633905932737 -1.000000000002735e-07 -0.003535633905932737 -0.0017499 0.0120001 -0.0017499 0 4 13 25 -23 -9 
31 -0.003535633905932738 0.0119999 -0.0050001 0.003535633905932739 0.0120001 -0.0017499 1 2 4 15 22 -24 -25 
32 0.0017499 -1.000000000002735e-07 0.0017499 0.003535633905932737 0.0120001 0.003535633905932737 0 4 16 27 -26 -11 
33 0.003535433905932737 -1.000000000002735e-07 -0.003535633905932738 0.0050001 0.0120001 0.003535633905932736 0 4 21 28 -26 -6 
34 0.0017499 0.0119999 -0.003535633905932738 0.0050001 0.0120001 0.003535633905932738 1 2 4 17 27 -28 -22 
35 -0.003535633905932737 -1.000000000002735e-07 0.0017499 -0.0017499 0.0120001 0.003535633905932737 0 4 18 30 -29 -12 
36 -0.003535633905932736 -1.000000000002735e-07 0.003535433905932737 0.003535633905932738 0.0120001 0.0050001 0 4 26 31 -29 -7 
37 -0.003535633905932738 0.0119999 0.0017499 0.003535633905932738 0.0120001 0.0050001 1 2 4 19 30 -31 -27 
38 -0.0050001 -1.000000000002735e-07 -0.003535633905932733 -0.003535433905932737 0.0120001 0.003535633905932737 0 4 29 32 -23 -8 
39 -0.0050001 0.0119999 -0.003535633905932737 -0.0017499 0.0120001 0.003535633905932737 1 2 4 20 25 -32 -30 
1 -0.0017501 -1.000000000002735e-07 -0.0017501 0.0017501 0.0120001 0.0017501 1 3 6 23 24 25 26 14 -27 
2 -0.003535633905932738 -1.000000000002735e-07 -0.0050001 0.003535633905932739 0.0120001 -0.0017499 1 3 6 -23 -28 29 30 -16 31 
3 0.0017499 -1.000000000002735e-07 -0.003535633905932738 0.0050001 0.0120001 0.003535633905932738 1 3 6 -24 -32 33 28 -18 34 
4 -0.003535633905932738 -1.000000000002735e-07 0.0017499 0.003535633905932738 0.0120001 0.0050001 1 3 6 -25 -35 36 32 -20 37 
5 -0.0050001 -1.000000000002735e-07 -0.003535633905932737 -0.0017499 0.0120001 0.003535633905932737 1 3 6 -26 -30 38 35 -22 39 
$EndEntities
$Nodes
75 100 1 100
0 2 0 1
1
-0.00175 0 -0.00175
0 3 0 1
2
0.00175 0 -0.00175
0 4 0 1
3
0.00175 0 0.00175
0 5 0 1
4
-0.00175 0 0.00175
0 6 0 1
5
-0.003535533905932737 0 -0.003535533905932737
0 7 0 1
6
0.003535533905932737 0 -0.003535533905932737
0 8 0 1
7
0.003535533905932737 0 0.003535533905932737
0 9 0 1
8
-0.003535533905932737 0 0.003535533905932737
0 10 0 1
9
-0.00175 0.012 -0.00175
0 11 0 1
10
0.00175 0.012 -0.00175
0 12 0 1
11
0.00175 0.012 0.00175
0 13 0 1
12
-0.00175 0.012 0.00175
0 14 0 1
13
0.003535533905932737 0.012 -0.003535533905932737
0 15 0 1
14
-0.003535533905932737 0.012 -0.003535533905932737
0 16 0 1
15
0.003535533905932737 0.012 0.003535533905932737
0 17 0 1
16
-0.003535533905932737 0.012 0.003535533905932737
1 1 0 1
17
0 0 -0.00175
1 2 0 1
18
0.00175 0 0
1 3 0 1
19
0 0 0.00175
1 4 0 1
20
-0.00175 0 0
1 5 0 1
21
3.828568698926949e-18 0 -0.004999999999999999
1 6 0 1
22
0.004999999999999999 0 -9.184850993605148e-19
1 7 0 1
23
1.224646799147353e-18 0 0.004999999999999999
1 8 0 1
24
-0.004999999999999999 0 2.526607749037151e-18
1 9 0 1
25
-0.002642766952966369 0 -0.002642766952966369
1 10 0 1
26
0.002642766952966369 0 -0.002642766952966369
1 11 0 1
27
0.002642766952966369 0 0.002642766952966369
1 12 0 1
28
-0.002642766952966369 0 0.002642766952966369
1 13 0 2
29
30
-0.00175 0.004 -0.00175
-0.00175 0.008 -0.00175
1 14 0 2
31
32
0.00175 0.004 -0.00175
0.00175 0.008 -0.00175
1 15 0 1
33
0 0.012 -0.00175
1 16 0 2
34
35
0.00175 0.004 0.00175
0.00175 0.008 0.00175
1 17 0 1
36
0.00175 0.012 0
1 18 0 2
37
38
-0.00175 0.004 0.00175
-0.00175 0.008 0.00175
1 19 0 1
39
0 0.012 0.00175
1 20 0 1
40
-0.00175 0.012 0
1 21 0 2
41
42
0.003535533905932737 0.004 -0.003535533905932737
0.003535533905932737 0.008 -0.003535533905932737
1 22 0 1
43
0.002642766952966369 0.012 -0.002642766952966369
1 23 0 2
44
45
-0.003535533905932737 0.004 -0.003535533905932737
-0.003535533905932737 0.008 -0.003535533905932737
1 24 0 1
46
3.828568698926949e-18 0.012 -0.004999999999999999
1 25 0 1
47
-0.002642766952966369 0.012 -0.002642766952966369
1 26 0 2
48
49
0.003535533905932737 0.004 0.003535533905932737
0.003535533905932737 0.008 0.003535533905932737
1 27 0 1
50
0.002642766952966369 0.012 0.002642766952966369
1 28 0 1
51
0.004999999999999999 0.012 -9.184850993605148e-19
1 29 0 2
52
53
-0.003535533905932737 0.004 0.003535533905932737
-0.003535533905932737 0.008 0.003535533905932737
1 30 0 1
54
-0.002642766952966369 0.012 0.002642766952966369
1 31 0 1
55
1.224646799147353e-18 0.012 0.004999999999999999
1 32 0 1
56
-0.004999999999999999 0.012 2.526607749037151e-18
2 14 0 1
57
-6.050235337530717e-20 0 6.050235337530717e-20
2 16 0 1
58
1.358430582349959e-18 0 -0.003375
2 18 0 1
59
0.003375 0 -2.897358833720503e-19
2 20 0 1
60
4.428167332654694e-19 0 0.003375
2 22 0 1
61
-0.003374999999999999 0 3.165187796428317e-19
2 23 0 2
62
63
0 0.004 -0.00175
0 0.008 -0.00175
2 24 0 2
64
65
0.00175 0.004 0
0.00175 0.008 0
2 25 0 2
66
67
0 0.004 0.00175
0 0.008 0.00175
2 26 0 2
68
69
-0.00175 0.004 0
-0.00175 0.008 0
2 27 0 1
70
-6.050235337530717e-20 0.012 6.050235337530717e-20
2 28 0 2
71
72
0.002642766952966369 0.004 -0.002642766952966369
0.002642766952966369 0.008 -0.002642766952966369
2 29 0 2
73
74
3.828568698926949e-18 0.004 -0.004999999999999999
3.828568698926949e-18 0.008 -0.004999999999999999
2 30 0 2
75
76
-0.002642766952966369 0.004 -0.002642766952966369
-0.002642766952966369 0.008 -0.002642766952966369
2 31 0 1
77
1.358430582349959e-18 0.012 -0.003375
2 32 0 2
78
79
0.002642766952966369 0.004 0.002642766952966369
0.002642766952966369 0.008 0.002642766952966369
2 33 0 2
80
81
0.004999999999999999 0.004 -9.184850993605148e-19
0.004999999999999999 0.008 -9.184850993605148e-19
2 34 0 1
82
0.003375 0.012 -2.897358833720503e-19
2 35 0 2
83
84
-0.002642766952966369 0.004 0.002642766952966369
-0.002642766952966369 0.008 0.002642766952966369
2 36 0 2
85
86
1.224646799147353e-18 0.004 0.004999999999999999
1.224646799147353e-18 0.008 0.004999999999999999
2 37 0 1
87
4.428167332654694e-19 0.012 0.003375
2 38 0 2
88
89
-0.004999999999999999 0.004 2.526607749037151e-18
-0.004999999999999999 0.008 2.526607749037151e-18
2 39 0 1
90
-0.003374999999999999 0.012 3.165187796428317e-19
3 1 0 2
91
92
-6.050235337530717e-20 0.004 6.050235337530717e-20
-6.050235337530717e-20 0.008 6.050235337530717e-20
3 2 0 2
93
94
1.358430582349959e-18 0.004 -0.003375
1.358430582349959e-18 0.008 -0.003375
3 3 0 2
95
96
0.003375 0.004 -2.897358833720503e-19
0.003375 0.008 -2.897358833720503e-19
3 4 0 2
97
98
4.428167332654694e-19 0.004 0.003375
4.428167332654694e-19 0.008 0.003375
3 5 0 2
99
100
-0.003374999999999999 0.004 3.165187796428317e-19
-0.003374999999999999 0.008 3.165187796428317e-19
$EndNodes
$Elements
15 100 1 100
2 14 3 4
1 1 17 57 20 
2 20 57 19 4 
3 17 2 18 57 
4 57 18 3 19 
2 16 3 4
5 1 17 58 25 
6 25 58 21 5 
7 17 2 26 58 
8 58 26 6 21 
2 18 3 4
9 2 18 59 26 
10 26 59 22 6 
11 18 3 27 59 
12 59 27 7 22 
2 20 3 4
13 3 19 60 27 
14 27 60 23 7 
15 19 4 28 60 
16 60 28 8 23 
2 22 3 4
17 4 20 61 28 
18 28 61 24 8 
19 20 1 25 61 
20 61 25 5 24 
2 27 3 4
21 9 40 70 33 
22 40 12 39 70 
23 33 70 36 10 
24 70 39 11 36 
2 31 3 4
25 9 33 77 47 
26 47 77 46 14 
27 33 10 43 77 
28 77 43 13 46 
2 34 3 4
29 10 36 82 43 
30 43 82 51 13 
31 36 11 50 82 
32 82 50 15 51 
2 37 3 4
33 11 39 87 50 
34 50 87 55 15 
35 39 12 54 87 
36 87 54 16 55 
2 39 3 4
37 12 40 90 54 
38 54 90 56 16 
39 40 9 47 90 
40 90 47 14 56 
3 1 5 12
41 57 17 1 20 91 62 29 68 
42 91 62 29 68 92 63 30 69 
43 92 63 30 69 70 33 9 40 
44 19 57 20 4 66 91 68 37 
45 66 91 68 37 67 92 69 38 
46 67 92 69 38 39 70 40 12 
47 18 2 17 57 64 31 62 91 
48 64 31 62 91 65 32 63 92 
49 65 32 63 92 36 10 33 70 
50 3 18 57 19 34 64 91 66 
51 34 64 91 66 35 65 92 67 
52 35 65 92 67 11 36 70 39 
3 2 5 12
53 1 17 58 25 29 62 93 75 
54 29 62 93 75 30 63 94 76 
55 30 63 94 76 9 33 77 47 
56 25 58 21 5 75 93 73 44 
57 75 93 73 44 76 94 74 45 
58 76 94 74 45 47 77 46 14 
59 17 2 26 58 62 31 71 93 
60 62 31 71 93 63 32 72 94 
61 63 32 72 94 33 10 43 77 
62 58 26 6 21 93 71 41 73 
63 93 71 41 73 94 72 42 74 
64 94 72 42 74 77 43 13 46 
3 3 5 12
65 2 18 59 26 31 64 95 71 
66 31 64 95 71 32 65 96 72 
67 32 65 96 72 10 36 82 43 
68 26 59 22 6 71 95 80 41 
69 71 95 80 41 72 96 81 42 
70 72 96 81 42 43 82 51 13 
71 18 3 27 59 64 34 78 95 
72 64 34 78 95 65 35 79 96 
73 65 35 79 96 36 11 50 82 
74 59 27 7 22 95 78 48 80 
75 95 78 48 80 96 79 49 81 
76 96 79 49 81 82 50 15 51 
3 4 5 12
77 3 19 60 27 34 66 97 78 
78 34 66 97 78 35 67 98 79 
79 35 67 98 79 11 39 87 50 
80 27 60 23 7 78 97 85 48 
81 78 97 85 48 79 98 86 49 
82 79 98 86 49 50 87 55 15 
83 19 4 28 60 66 37 83 97 
84 66 37 83 97 67 38 84 98 
85 67 38 84 98 39 12 54 87 
86 60 28 8 23 97 83 52 85 
87 97 83 52 85 98 84 53 86 
88 98 84 53 86 87 54 16 55 
3 5 5 12
89 4 20 61 28 37 68 99 83 
90 37 68 99 83 38 69 100 84 
91 38 69 100 84 12 40 90 54 
92 28 61 24 8 83 99 88 52 
93 83 99 88 52 84 100 89 53 
94 84 100 89 53 54 90 56 16 
95 20 1 25 61 68 29 75 99 
96 68 29 75 99 69 30 76 100 
97 69 30 76 100 40 9 47 90 
98 61 25 5 24 99 75 44 88 
99 99 75 44 88 100 76 45 89 
100 100 76 45 89 90 47 14 56 
$EndElements
