$MeshFormat
4.1 0 8
$EndMeshFormat
$PhysicalNames
3
2 1 "bc-bot"
2 2 "bc-top"
3 3 "vol"
$EndPhysicalNames
$Entities
17 32 22 5
1 0 0 0 0 
2 -0.00175 0 -0.00175 0 
3 0.00175 0 -0.00175 0 
4 0.00175 0 0.00175 0 
5 -0.00175 0 0.00175 0 
6 -0.003535533905932737 0 -0.003535533905932737 0 
7 0.003535533905932737 0 -0.003535533905932737 0 
8 0.003535533905932737 0 0.003535533905932737 0 
9 -0.003535533905932737 0 0.003535533905932737 0 
10 -0.00175 0.012 -0.00175 0 
11 0.00175 0.012 -0.00175 0 
12 0.00175 0.012 0.00175 0 
13 -0.00175 0.012 0.00175 0 
14 0.003535533905932737 0.012 -0.003535533905932737 0 
15 -0.003535533905932737 0.012 -0.003535533905932737 0 
16 0.003535533905932737 0.012 0.003535533905932737 0 
17 -0.003535533905932737 0.012 0.003535533905932737 0 
1 -0.0017501 -1e-07 -0.0017501 0.0017501 1e-07 -0.0017499 0 2 2 -3 
2 0.0017499 -1e-07 -0.0017501 0.0017501 1e-07 0.0017501 0 2 3 -4 
3 -0.0017501 -1e-07 0.0017499 0.0017501 1e-07 0.0017501 0 2 4 -5 
4 -0.0017501 -1e-07 -0.0017501 -0.0017499 1e-07 0.0017501 0 2 5 -2 
5 -0.003535633905932738 -1e-07 -0.0050001 0.003535633905932739 1e-07 -0.003535433905932735 0 2 6 -7 
6 0.003535433905932737 -1e-07 -0.003535633905932738 0.0050001 1e-07 0.003535633905932736 0 2 7 -8 
7 -0.003535633905932736 -1e-07 0.003535433905932737 0.003535633905932738 1e-07 0.0050001 0 2 8 -9 
8 -0.0050001 -1e-07 -0.003535633905932733 -0.003535433905932737 1e-07 0.003535633905932737 0 2 9 -6 
9 -0.003535633905932737 -1e-07 -0.003535633905932737 -0.0017499 1e-07 -0.0017499 0 2 2 -6 
10 0.0017499 -1e-07 -0.003535633905932737 0.003535633905932737 1e-07 -0.0017499 0 2 3 -7 
11 0.0017499 -1e-07 0.0017499 0.003535633905932737 1e-07 0.003535633905932737 0 2 4 -8 
12 -0.003535633905932737 -1e-07 0.0017499 -0.0017499 1e-07 0.003535633905932737 0 2 5 -9 
13 -0.0017501 -1.000000000002735e-07 -0.0017501 -0.0017499 0.0120001 -0.0017499 0 2 2 -10 
14 0.0017499 -1.000000000002735e-07 -0.0017501 0.0017501 0.0120001 -0.0017499 0 2 3 -11 
15 -0.0017501 0.0119999 -0.0017501 0.0017501 0.0120001 -0.0017499 0 2 10 -11 
16 0.0017499 -1.000000000002735e-07 0.0017499 0.0017501 0.0120001 0.0017501 0 2 4 -12 
17 0.0017499 0.0119999 -0.0017501 0.0017501 0.0120001 0.0017501 0 2 11 -12 
18 -0.0017501 -1.000000000002735e-07 0.0017499 -0.0017499 0.0120001 0.0017501 0 2 5 -13 
19 -0.0017501 0.0119999 0.0017499 0.0017501 0.0120001 0.0017501 0 2 12 -13 
20 -0.0017501 0.0119999 -0.0017501 -0.0017499 0.0120001 0.0017501 0 2 13 -10 
21 0.003535433905932737 -1.000000000002735e-07 -0.003535633905932737 0.003535633905932737 0.0120001 -0.003535433905932737 0 2 7 -14 
22 0.0017499 0.0119999 -0.003535633905932737 0.003535633905932737 0.0120001 -0.0017499 0 2 11 -14 
23 -0.003535633905932737 -1.000000000002735e-07 -0.003535633905932737 -0.003535433905932737 0.0120001 -0.003535433905932737 0 2 6 -15 
24 -0.003535633905932738 0.0119999 -0.0050001 0.003535633905932739 0.0120001 -0.003535433905932735 0 2 15 -14 
25 -0.003535633905932737 0.0119999 -0.003535633905932737 -0.0017499 0.0120001 -0.0017499 0 2 10 -15 
26 0.003535433905932737 -1.000000000002735e-07 0.003535433905932737 0.003535633905932737 0.0120001 0.003535633905932737 0 2 8 -16 
27 0.0017499 0.0119999 0.0017499 0.003535633905932737 0.0120001 0.003535633905932737 0 2 12 -16 
28 0.003535433905932737 0.0119999 -0.003535633905932738 0.0050001 0.0120001 0.003535633905932736 0 2 14 -16 
29 -0.003535633905932737 -1.000000000002735e-07 0.003535433905932737 -0.003535433905932737 0.0120001 0.003535633905932737 0 2 9 -17 
30 -0.003535633905932737 0.0119999 0.0017499 -0.0017499 0.0120001 0.003535633905932737 0 2 13 -17 
31 -0.003535633905932736 0.0119999 0.003535433905932737 0.003535633905932738 0.0120001 0.0050001 0 2 16 -17 
32 -0.0050001 0.0119999 -0.003535633905932733 -0.003535433905932737 0.0120001 0.003535633905932737 0 2 17 -15 
14 -0.0017501 -1e-07 -0.0017501 0.0017501 1e-07 0.0017501 1 1 4 1 2 3 4 
16 -0.003535633905932738 -1e-07 -0.0050001 0.003535633905932739 1e-07 -0.0017499 1 1 4 1 10 -5 -9 
18 0.0017499 -1e-07 -0.003535633905932738 0.0050001 1e-07 0.003535633905932738 1 1 4 2 11 -6 -10 
20 -0.003535633905932738 -1e-07 0.0017499 0.003535633905932738 1e-07 0.0050001 1 1 4 3 12 -7 -11 
22 -0.0050001 -1e-07 -0.003535633905932737 -0.0017499 1e-07 0.003535633905932737 1 1 4 4 9 -8 -12 
23 -0.0017501 -1.000000000002735e-07 -0.0017501 0.0017501 0.0120001 -0.0017499 0 4 13 15 -14 -1 
24 0.0017499 -1.000000000002735e-07 -0.0017501 0.0017501 0.0120001 0.0017501 0 4 14 17 -16 -2 
25 -0.0017501 -1.000000000002735e-07 0.0017499 0.0017501 0.0120001 0.0017501 0 4 16 19 -18 -3 
26 -0.0017501 -1.000000000002735e-07 -0.0017501 -0.0017499 0.0120001 0.0017501 0 4 18 20 -13 -4 
27 -0.0017501 0.0119999 -0.0017501 0.0017501 0.0120001 0.0017501 1 2 4 15 17 19 20 
28 0.0017499 -1.000000000002735e-07 -0.003535633905932737 0.003535633905932737 0.0120001 -0.0017499 0 4 14 22 -21 -10 
29 -0.003535633905932738 -1.000000000002735e-07 -0.0050001 0.003535633905932739 0.0120001 -0.003535433905932735 0 4 23 24 -21 -5 
30 -0.003535633905932737 -1.000000000002735e-07 -0.003535633905932737 -0.0017499 0.0120001 -0.0017499 0 4 13 25 -23 -9 
31 -0.003535633905932738 0.0119999 -0.0050001 0.003535633905932739 0.0120001 -0.0017499 1 2 4 15 22 -24 -25 
32 0.0017499 -1.000000000002735e-07 0.0017499 0.003535633905932737 0.0120001 0.003535633905932737 0 4 16 27 -26 -11 
33 0.003535433905932737 -1.000000000002735e-07 -0.003535633905932738 0.0050001 0.0120001 0.003535633905932736 0 4 21 28 -26 -6 
34 0.0017499 0.0119999 -0.003535633905932738 0.0050001 0.0120001 0.003535633905932738 1 2 4 17 27 -28 -22 
35 -0.003535633905932737 -1.000000000002735e-07 0.0017499 -0.0017499 0.0120001 0.003535633905932737 0 4 18 30 -29 -12 
36 -0.003535633905932736 -1.000000000002735e-07 0.003535433905932737 0.003535633905932738 0.0120001 0.0050001 0 4 26 31 -29 -7 
37 -0.003535633905932738 0.0119999 0.0017499 0.003535633905932738 0.0120001 0.0050001 1 2 4 19 30 -31 -27 
38 -0.0050001 -1.000000000002735e-07 -0.003535633905932733 -0.003535433905932737 0.0120001 0.003535633905932737 0 4 29 32 -23 -8 
39 -0.0050001 0.0119999 -0.003535633905932737 -0.0017499 0.0120001 0.003535633905932737 1 2 4 20 25 -32 -30 
1 -0.0017501 -1.000000000002735e-07 -0.0017501 0.0017501 0.0120001 0.0017501 1 3 6 23 24 25 26 14 -27 
2 -0.003535633905932738 -1.000000000002735e-07 -0.0050001 0.003535633905932739 0.0120001 -0.0017499 1 3 6 -23 -28 29 30 -16 31 
3 0.0017499 -1.000000000002735e-07 -0.003535633905932738 0.0050001 0.0120001 0.003535633905932738 1 3 6 -24 -32 33 28 -18 34 
4 -0.003535633905932738 -1.000000000002735e-07 0.0017499 0.003535633905932738 0.0120001 0.0050001 1 3 6 -25 -35 36 32 -20 37 
5 -0.0050001 -1.000000000002735e-07 -0.003535633905932737 -0.0017499 0.0120001 0.003535633905932737 1 3 6 -26 -30 38 35 -22 39 
$EndEntities
$Nodes
75 623 1 623
0 2 0 1
1
-0.00175 0 -0.00175
0 3 0 1
2
0.00175 0 -0.00175
0 4 0 1
3
0.00175 0 0.00175
0 5 0 1
4
-0.00175 0 0.00175
0 6 0 1
5
-0.003535533905932737 0 -0.003535533905932737
0 7 0 1
6
0.003535533905932737 0 -0.003535533905932737
0 8 0 1
7
0.003535533905932737 0 0.003535533905932737
0 9 0 1
8
-0.003535533905932737 0 0.003535533905932737
0 10 0 1
9
-0.00175 0.012 -0.00175
0 11 0 1
10
0.00175 0.012 -0.00175
0 12 0 1
11
0.00175 0.012 0.00175
0 13 0 1
12
-0.00175 0.012 0.00175
0 14 0 1
13
0.003535533905932737 0.012 -0.003535533905932737
0 15 0 1
14
-0.003535533905932737 0.012 -0.003535533905932737
0 16 0 1
15
0.003535533905932737 0.012 0.003535533905932737
0 17 0 1
16
-0.003535533905932737 0.012 0.003535533905932737
1 1 0 3
17
18
19
0 0 -0.00175
-0.0008749999999999999 0 -0.00175
0.0008749999999999999 0 -0.00175
1 2 0 3
20
21
22
0.00175 0 0
0.00175 0 -0.0008749999999999999
0.00175 0 0.0008749999999999999
1 3 0 3
23
24
25
0 0 0.00175
0.0008749999999999999 0 0.00175
-0.0008749999999999999 0 0.00175
1 4 0 3
26
27
28
-0.00175 0 0
-0.00175 0 0.0008749999999999999
-0.00175 0 -0.0008749999999999999
1 5 0 3
29
30
31
3.828568698926949e-18 0 -0.004999999999999999
-0.001913417161825447 0 -0.004619397662556433
0.001913417161825452 0 -0.004619397662556432
1 6 0 3
32
33
34
0.004999999999999999 0 -9.184850993605148e-19
0.004619397662556432 0 -0.001913417161825451
0.004619397662556432 0 0.00191341716182545
1 7 0 3
35
36
37
1.224646799147353e-18 0 0.004999999999999999
0.001913417161825452 0 0.004619397662556432
-0.001913417161825449 0 0.004619397662556433
1 8 0 3
38
39
40
-0.004999999999999999 0 2.526607749037151e-18
-0.004619397662556432 0 0.00191341716182545
-0.004619397662556435 0 -0.001913417161825445
1 9 0 3
41
42
43
-0.002642766952966369 0 -0.002642766952966369
-0.002196383476483184 0 -0.002196383476483184
-0.003089150429449553 0 -0.003089150429449553
1 10 0 3
44
45
46
0.002642766952966369 0 -0.002642766952966369
0.002196383476483184 0 -0.002196383476483184
0.003089150429449553 0 -0.003089150429449553
1 11 0 3
47
48
49
0.002642766952966369 0 0.002642766952966369
0.002196383476483184 0 0.002196383476483184
0.003089150429449553 0 0.003089150429449553
1 12 0 3
50
51
52
-0.002642766952966369 0 0.002642766952966369
-0.002196383476483184 0 0.002196383476483184
-0.003089150429449553 0 0.003089150429449553
1 13 0 5
53
54
55
56
57
-0.00175 0.004 -0.00175
-0.00175 0.008 -0.00175
-0.00175 0.002 -0.00175
-0.00175 0.006 -0.00175
-0.00175 0.01 -0.00175
1 14 0 5
58
59
60
61
62
0.00175 0.004 -0.00175
0.00175 0.008 -0.00175
0.00175 0.002 -0.00175
0.00175 0.006 -0.00175
0.00175 0.01 -0.00175
1 15 0 3
63
64
65
0 0.012 -0.00175
-0.0008749999999999999 0.012 -0.00175
0.0008749999999999999 0.012 -0.00175
1 16 0 5
66
67
68
69
70
0.00175 0.004 0.00175
0.00175 0.008 0.00175
0.00175 0.002 0.00175
0.00175 0.006 0.00175
0.00175 0.01 0.00175
1 17 0 3
71
72
73
0.00175 0.012 0
0.00175 0.012 -0.0008749999999999999
0.00175 0.012 0.0008749999999999999
1 18 0 5
74
75
76
77
78
-0.00175 0.004 0.00175
-0.00175 0.008 0.00175
-0.00175 0.002 0.00175
-0.00175 0.006 0.00175
-0.00175 0.01 0.00175
1 19 0 3
79
80
81
0 0.012 0.00175
0.0008749999999999999 0.012 0.00175
-0.0008749999999999999 0.012 0.00175
1 20 0 3
82
83
84
-0.00175 0.012 0
-0.00175 0.012 0.0008749999999999999
-0.00175 0.012 -0.0008749999999999999
1 21 0 5
85
86
87
88
89
0.003535533905932737 0.004 -0.003535533905932737
0.003535533905932737 0.008 -0.003535533905932737
0.003535533905932737 0.002 -0.003535533905932737
0.003535533905932737 0.006 -0.003535533905932737
0.003535533905932737 0.01 -0.003535533905932737
1 22 0 3
90
91
92
0.002642766952966369 0.012 -0.002642766952966369
0.002196383476483184 0.012 -0.002196383476483184
0.003089150429449553 0.012 -0.003089150429449553
1 23 0 5
93
94
95
96
97
-0.003535533905932737 0.004 -0.003535533905932737
-0.003535533905932737 0.008 -0.003535533905932737
-0.003535533905932737 0.002 -0.003535533905932737
-0.003535533905932737 0.006 -0.003535533905932737
-0.003535533905932737 0.01 -0.003535533905932737
1 24 0 3
98
99
100
3.828568698926949e-18 0.012 -0.004999999999999999
-0.001913417161825447 0.012 -0.004619397662556433
0.001913417161825452 0.012 -0.004619397662556432
1 25 0 3
101
102
103
-0.002642766952966369 0.012 -0.002642766952966369
-0.002196383476483184 0.012 -0.002196383476483184
-0.003089150429449553 0.012 -0.003089150429449553
1 26 0 5
104
105
106
107
108
0.003535533905932737 0.004 0.003535533905932737
0.003535533905932737 0.008 0.003535533905932737
0.003535533905932737 0.002 0.003535533905932737
0.003535533905932737 0.006 0.003535533905932737
0.003535533905932737 0.01 0.003535533905932737
1 27 0 3
109
110
111
0.002642766952966369 0.012 0.002642766952966369
0.002196383476483184 0.012 0.002196383476483184
0.003089150429449553 0.012 0.003089150429449553
1 28 0 3
112
113
114
0.004999999999999999 0.012 -9.184850993605148e-19
0.004619397662556432 0.012 -0.001913417161825451
0.004619397662556432 0.012 0.00191341716182545
1 29 0 5
115
116
117
118
119
-0.003535533905932737 0.004 0.003535533905932737
-0.003535533905932737 0.008 0.003535533905932737
-0.003535533905932737 0.002 0.003535533905932737
-0.003535533905932737 0.006 0.003535533905932737
-0.003535533905932737 0.01 0.003535533905932737
1 30 0 3
120
121
122
-0.002642766952966369 0.012 0.002642766952966369
-0.002196383476483184 0.012 0.002196383476483184
-0.003089150429449553 0.012 0.003089150429449553
1 31 0 3
123
124
125
1.224646799147353e-18 0.012 0.004999999999999999
0.001913417161825452 0.012 0.004619397662556432
-0.001913417161825449 0.012 0.004619397662556433
1 32 0 3
126
127
128
-0.004999999999999999 0.012 2.526607749037151e-18
-0.004619397662556432 0.012 0.00191341716182545
-0.004619397662556435 0.012 -0.001913417161825445
2 14 0 9
129
130
131
132
133
134
135
136
137
-6.050235337530717e-20 0 6.050235337530717e-20
-6.050235337530717e-20 0 -0.0008749999999999998
-0.000875 0 6.050235337530717e-20
-0.000875 0 -0.0008749999999999998
-6.050235337530717e-20 0 0.000875
-0.000875 0 0.000875
0.0008749999999999998 0 6.050235337530717e-20
0.0008749999999999998 0 -0.0008749999999999998
0.0008749999999999998 0 0.000875
2 16 0 9
138
139
140
141
142
143
144
145
146
1.358430582349959e-18 0 -0.003375
6.654626103042168e-19 0 -0.0025625
-0.001321383476483184 0 -0.003008883476483184
-0.001098191738241592 0 -0.002379441738241592
2.593499640638454e-18 0 -0.0041875
-0.001617400319154315 0 -0.003814140569519809
0.001321383476483185 0 -0.003008883476483184
0.001098191738241593 0 -0.002379441738241592
0.001617400319154318 0 -0.003814140569519809
2 18 0 9
147
148
149
150
151
152
153
154
155
0.003375 0 -2.897358833720503e-19
0.0025625 0 -1.922017098749189e-19
0.003008883476483184 0 -0.001321383476483184
0.002379441738241592 0 -0.001098191738241592
0.004187499999999999 0 -6.041104913662826e-19
0.003814140569519808 0 -0.001617400319154318
0.003008883476483184 0 0.001321383476483184
0.002379441738241592 0 0.001098191738241592
0.003814140569519808 0 0.001617400319154317
2 20 0 9
156
157
158
159
160
161
162
163
164
4.428167332654694e-19 0 0.003375
2.687421348216285e-19 0 0.0025625
0.001321383476483185 0 0.003008883476483184
0.001098191738241592 0 0.002379441738241592
8.337317662064112e-19 0 0.004187499999999999
0.001617400319154318 0 0.003814140569519808
-0.001321383476483184 0 0.003008883476483184
-0.001098191738241592 0 0.002379441738241592
-0.001617400319154317 0 0.003814140569519809
2 22 0 9
165
166
167
168
169
170
171
172
173
-0.003374999999999999 0 3.165187796428317e-19
-0.0025625 0 1.872562501826261e-19
-0.003008883476483184 0 0.001321383476483184
-0.002379441738241591 0 0.001098191738241592
-0.004187499999999999 0 1.421563264339991e-18
-0.003814140569519808 0 0.001617400319154317
-0.003008883476483184 0 -0.001321383476483184
-0.002379441738241592 0 -0.001098191738241592
-0.003814140569519809 0 -0.001617400319154316
2 23 0 15
174
175
176
177
178
179
180
181
182
183
184
185
186
187
188
0 0.004 -0.00175
0 0.008 -0.00175
-0.0008749999999999999 0.004 -0.00175
0 0.002 -0.00175
-0.0008749999999999999 0.002 -0.00175
-0.0008749999999999999 0.008 -0.00175
0 0.006 -0.00175
-0.0008749999999999999 0.006 -0.00175
0 0.01 -0.00175
-0.0008749999999999999 0.01 -0.00175
0.0008749999999999999 0.004 -0.00175
0.0008749999999999999 0.002 -0.00175
0.0008749999999999999 0.008 -0.00175
0.0008749999999999999 0.006 -0.00175
0.0008749999999999999 0.01 -0.00175
2 24 0 15
189
190
191
192
193
194
195
196
197
198
199
200
201
202
203
0.00175 0.004 0
0.00175 0.008 0
0.00175 0.004 -0.0008749999999999999
0.00175 0.002 0
0.00175 0.002 -0.0008749999999999999
0.00175 0.008 -0.0008749999999999999
0.00175 0.006 0
0.00175 0.006 -0.0008749999999999999
0.00175 0.01 0
0.00175 0.01 -0.0008749999999999999
0.00175 0.004 0.0008749999999999999
0.00175 0.002 0.0008749999999999999
0.00175 0.008 0.0008749999999999999
0.00175 0.006 0.0008749999999999999
0.00175 0.01 0.0008749999999999999
2 25 0 15
204
205
206
207
208
209
210
211
212
213
214
215
216
217
218
0 0.004 0.00175
0 0.008 0.00175
0.0008749999999999999 0.004 0.00175
0 0.002 0.00175
0.0008749999999999999 0.002 0.00175
0.0008749999999999999 0.008 0.00175
0 0.006 0.00175
0.0008749999999999999 0.006 0.00175
0 0.01 0.00175
0.0008749999999999999 0.01 0.00175
-0.0008749999999999999 0.004 0.00175
-0.0008749999999999999 0.002 0.00175
-0.0008749999999999999 0.008 0.00175
-0.0008749999999999999 0.006 0.00175
-0.0008749999999999999 0.01 0.00175
2 26 0 15
219
220
221
222
223
224
225
226
227
228
229
230
231
232
233
-0.00175 0.004 0
-0.00175 0.008 0
-0.00175 0.004 0.0008749999999999999
-0.00175 0.002 0
-0.00175 0.002 0.0008749999999999999
-0.00175 0.008 0.0008749999999999999
-0.00175 0.006 0
-0.00175 0.006 0.0008749999999999999
-0.00175 0.01 0
-0.00175 0.01 0.0008749999999999999
-0.00175 0.004 -0.0008749999999999999
-0.00175 0.002 -0.0008749999999999999
-0.00175 0.008 -0.0008749999999999999
-0.00175 0.006 -0.0008749999999999999
-0.00175 0.01 -0.0008749999999999999
2 27 0 9
234
235
236
237
238
239
240
241
242
-6.050235337530717e-20 0.012 6.050235337530717e-20
-0.000875 0.012 6.050235337530717e-20
-6.050235337530717e-20 0.012 -0.0008749999999999998
-0.000875 0.012 -0.0008749999999999998
-6.050235337530717e-20 0.012 0.000875
-0.000875 0.012 0.000875
0.0008749999999999998 0.012 6.050235337530717e-20
0.0008749999999999998 0.012 -0.0008749999999999998
0.0008749999999999998 0.012 0.000875
2 28 0 15
243
244
245
246
247
248
249
250
251
252
253
254
255
256
257
0.002642766952966369 0.004 -0.002642766952966369
0.002642766952966369 0.008 -0.002642766952966369
0.002642766952966369 0.002 -0.002642766952966369
0.002196383476483184 0.004 -0.002196383476483184
0.002196383476483184 0.002 -0.002196383476483184
0.002642766952966369 0.006 -0.002642766952966369
0.002196383476483184 0.008 -0.002196383476483184
0.002196383476483184 0.006 -0.002196383476483184
0.002642766952966369 0.01 -0.002642766952966369
0.002196383476483184 0.01 -0.002196383476483184
0.003089150429449553 0.004 -0.003089150429449553
0.003089150429449553 0.002 -0.003089150429449553
0.003089150429449553 0.008 -0.003089150429449553
0.003089150429449553 0.006 -0.003089150429449553
0.003089150429449553 0.01 -0.003089150429449553
2 29 0 15
258
259
260
261
262
263
264
265
266
267
268
269
270
271
272
3.828568698926949e-18 0.004 -0.004999999999999999
3.828568698926949e-18 0.008 -0.004999999999999999
-0.001913417161825447 0.004 -0.004619397662556433
3.828568698926949e-18 0.002 -0.004999999999999999
-0.001913417161825447 0.002 -0.004619397662556433
-0.001913417161825447 0.008 -0.004619397662556433
3.828568698926949e-18 0.006 -0.004999999999999999
-0.001913417161825447 0.006 -0.004619397662556433
3.828568698926949e-18 0.01 -0.004999999999999999
-0.001913417161825447 0.01 -0.004619397662556433
0.00191341716182545 0.004 -0.004619397662556432
0.001913417161825451 0.002 -0.004619397662556432
0.00191341716182545 0.008 -0.004619397662556432
0.00191341716182545 0.006 -0.004619397662556432
0.001913417161825451 0.01 -0.004619397662556432
2 30 0 15
273
274
275
276
277
278
279
280
281
282
283
284
285
286
287
-0.002642766952966369 0.004 -0.002642766952966369
-0.002642766952966369 0.008 -0.002642766952966369
-0.002196383476483184 0.004 -0.002196383476483184
-0.002642766952966369 0.002 -0.002642766952966369
-0.002196383476483184 0.002 -0.002196383476483184
-0.002196383476483184 0.008 -0.002196383476483184
-0.002642766952966369 0.006 -0.002642766952966369
-0.002196383476483184 0.006 -0.002196383476483184
-0.002642766952966369 0.01 -0.002642766952966369
-0.002196383476483184 0.01 -0.002196383476483184
-0.003089150429449553 0.004 -0.003089150429449553
-0.003089150429449553 0.002 -0.003089150429449553
-0.003089150429449553 0.008 -0.003089150429449553
-0.003089150429449553 0.006 -0.003089150429449553
-0.003089150429449553 0.01 -0.003089150429449553
2 31 0 9
288
289
290
291
292
293
294
295
296
1.358430582349959e-18 0.012 -0.003375
6.654626103042168e-19 0.012 -0.0025625
-0.001321383476483184 0.012 -0.003008883476483184
-0.001098191738241592 0.012 -0.002379441738241592
2.593499640638454e-18 0.012 -0.0041875
-0.001617400319154315 0.012 -0.003814140569519809
0.001321383476483185 0.012 -0.003008883476483184
0.001098191738241593 0.012 -0.002379441738241592
0.001617400319154319 0.012 -0.003814140569519808
2 32 0 15
297
298
299
300
301
302
303
304
305
306
307
308
309
310
311
0.002642766952966369 0.004 0.002642766952966369
0.002642766952966369 0.008 0.002642766952966369
0.002642766952966369 0.002 0.002642766952966369
0.002196383476483184 0.004 0.002196383476483184
0.002196383476483184 0.002 0.002196383476483184
0.002642766952966369 0.006 0.002642766952966369
0.002196383476483184 0.008 0.002196383476483184
0.002196383476483184 0.006 0.002196383476483184
0.002642766952966369 0.01 0.002642766952966369
0.002196383476483184 0.01 0.002196383476483184
0.003089150429449553 0.004 0.003089150429449553
0.003089150429449553 0.002 0.003089150429449553
0.003089150429449553 0.008 0.003089150429449553
0.003089150429449553 0.006 0.003089150429449553
0.003089150429449553 0.01 0.003089150429449553
2 33 0 15
312
313
314
315
316
317
318
319
320
321
322
323
324
325
326
0.004999999999999999 0.004 -9.184850993605148e-19
0.004999999999999999 0.008 -9.184850993605148e-19
0.004619397662556432 0.004 -0.001913417161825451
0.004999999999999999 0.002 -9.184850993605148e-19
0.004619397662556432 0.002 -0.001913417161825451
0.004619397662556432 0.008 -0.001913417161825451
0.004999999999999999 0.006 -9.184850993605148e-19
0.004619397662556432 0.006 -0.001913417161825451
0.004999999999999999 0.01 -9.184850993605148e-19
0.004619397662556432 0.01 -0.001913417161825451
0.004619397662556434 0.004 0.001913417161825446
0.004619397662556433 0.002 0.001913417161825448
0.004619397662556434 0.008 0.001913417161825446
0.004619397662556434 0.006 0.001913417161825446
0.004619397662556433 0.01 0.001913417161825448
2 34 0 9
327
328
329
330
331
332
333
334
335
0.003375 0.012 -2.897358833720503e-19
0.0025625 0.012 -1.922017098749189e-19
0.003008883476483184 0.012 -0.001321383476483184
0.002379441738241592 0.012 -0.001098191738241592
0.004187499999999999 0.012 -6.041104913662826e-19
0.003814140569519808 0.012 -0.001617400319154318
0.003008883476483184 0.012 0.001321383476483184
0.002379441738241592 0.012 0.001098191738241592
0.003814140569519808 0.012 0.001617400319154317
2 35 0 15
336
337
338
339
340
341
342
343
344
345
346
347
348
349
350
-0.002642766952966369 0.004 0.002642766952966369
-0.002642766952966369 0.008 0.002642766952966369
-0.002642766952966369 0.002 0.002642766952966369
-0.002196383476483184 0.004 0.002196383476483184
-0.002196383476483184 0.002 0.002196383476483184
-0.002642766952966369 0.006 0.002642766952966369
-0.002196383476483184 0.008 0.002196383476483184
-0.002196383476483184 0.006 0.002196383476483184
-0.002642766952966369 0.01 0.002642766952966369
-0.002196383476483184 0.01 0.002196383476483184
-0.003089150429449553 0.004 0.003089150429449553
-0.003089150429449553 0.002 0.003089150429449553
-0.003089150429449553 0.008 0.003089150429449553
-0.003089150429449553 0.006 0.003089150429449553
-0.003089150429449553 0.01 0.003089150429449553
2 36 0 15
351
352
353
354
355
356
357
358
359
360
361
362
363
364
365
1.224646799147353e-18 0.004 0.004999999999999999
1.224646799147353e-18 0.008 0.004999999999999999
0.001913417161825452 0.004 0.004619397662556432
5.665538897647979e-18 0.002 0.004999999999999999
0.001913417161825454 0.002 0.004619397662556432
0.001913417161825452 0.008 0.004619397662556432
5.665538897647979e-18 0.006 0.004999999999999999
0.001913417161825454 0.006 0.004619397662556432
5.665538897647979e-18 0.01 0.004999999999999999
0.001913417161825454 0.01 0.004619397662556432
-0.001913417161825441 0.004 0.004619397662556437
-0.001913417161825443 0.002 0.004619397662556435
-0.001913417161825441 0.008 0.004619397662556437
-0.001913417161825439 0.006 0.004619397662556437
-0.001913417161825443 0.01 0.004619397662556435
2 37 0 9
366
367
368
369
370
371
372
373
374
4.428167332654694e-19 0.012 0.003375
2.687421348216285e-19 0.012 0.0025625
0.001321383476483185 0.012 0.003008883476483184
0.001098191738241592 0.012 0.002379441738241592
8.337317662064112e-19 0.012 0.004187499999999999
0.001617400319154318 0.012 0.003814140569519808
-0.001321383476483184 0.012 0.003008883476483184
-0.001098191738241592 0.012 0.002379441738241592
-0.001617400319154317 0.012 0.003814140569519809
2 38 0 15
375
376
377
378
379
380
381
382
383
384
385
386
387
388
389
-0.004999999999999999 0.004 2.526607749037151e-18
-0.004999999999999999 0.008 2.526607749037151e-18
-0.004619397662556432 0.004 0.00191341716182545
-0.004999999999999999 0.002 2.526607749037151e-18
-0.004619397662556432 0.002 0.00191341716182545
-0.004619397662556432 0.008 0.00191341716182545
-0.004999999999999999 0.006 2.526607749037151e-18
-0.004619397662556432 0.006 0.00191341716182545
-0.004999999999999999 0.01 2.526607749037151e-18
-0.004619397662556432 0.01 0.00191341716182545
-0.004619397662556433 0.004 -0.001913417161825447
-0.004619397662556434 0.002 -0.001913417161825446
-0.004619397662556433 0.008 -0.001913417161825447
-0.004619397662556433 0.006 -0.001913417161825447
-0.004619397662556434 0.01 -0.001913417161825446
2 39 0 9
390
391
392
393
394
395
396
397
398
-0.003374999999999999 0.012 3.165187796428317e-19
-0.0025625 0.012 1.872562501826261e-19
-0.003008883476483184 0.012 0.001321383476483184
-0.002379441738241591 0.012 0.001098191738241592
-0.004187499999999999 0.012 1.421563264339991e-18
-0.003814140569519808 0.012 0.001617400319154317
-0.003008883476483184 0.012 -0.001321383476483184
-0.002379441738241592 0.012 -0.001098191738241592
-0.00381414056951981 0.012 -0.001617400319154315
3 1 0 45
399
400
401
402
403
404
405
406
407
408
409
410
411
412
413
414
415
416
417
418
419
420
421
422
423
424
425
426
427
428
429
430
431
432
433
434
435
436
437
438
439
440
441
442
443
-6.050235337530717e-20 0.004 6.050235337530717e-20
-6.050235337530717e-20 0.008 6.050235337530717e-20
-6.050235337530717e-20 0.002 6.050235337530717e-20
-3.025117668765358e-20 0.004 -0.0008749999999999999
-0.0008749999999999999 0.004 3.025117668765358e-20
-4.537676503148037e-20 0.002 -0.0008749999999999999
-0.0008749999999999999 0.002 4.537676503148037e-20
-0.0008749999999999999 0.004 -0.0008749999999999999
-0.0008749999999999999 0.002 -0.0008749999999999999
-6.050235337530717e-20 0.006 6.050235337530717e-20
-3.025117668765358e-20 0.008 -0.0008749999999999999
-0.0008749999999999999 0.008 3.025117668765358e-20
-3.025117668765358e-20 0.006 -0.0008749999999999999
-0.0008749999999999999 0.006 3.025117668765358e-20
-0.0008749999999999999 0.008 -0.0008749999999999999
-0.0008749999999999999 0.006 -0.0008749999999999999
-6.050235337530717e-20 0.01 6.050235337530717e-20
-4.537676503148037e-20 0.01 -0.0008749999999999999
-0.0008749999999999999 0.01 4.537676503148037e-20
-0.0008749999999999999 0.01 -0.0008749999999999999
-3.025117668765358e-20 0.004 0.0008749999999999999
-4.537676503148037e-20 0.002 0.000875
-0.0008749999999999999 0.004 0.0008749999999999999
-0.0008749999999999999 0.002 0.0008749999999999999
-3.025117668765358e-20 0.008 0.0008749999999999999
-3.025117668765358e-20 0.006 0.0008749999999999999
-0.0008749999999999999 0.008 0.0008749999999999999
-0.0008749999999999999 0.006 0.0008749999999999999
-4.537676503148037e-20 0.01 0.000875
-0.0008749999999999999 0.01 0.0008749999999999999
0.0008749999999999999 0.004 3.025117668765358e-20
0.0008749999999999998 0.002 4.537676503148037e-20
0.0008749999999999999 0.004 -0.0008749999999999999
0.0008749999999999999 0.002 -0.0008749999999999999
0.0008749999999999999 0.008 3.025117668765358e-20
0.0008749999999999999 0.006 3.025117668765358e-20
0.0008749999999999999 0.008 -0.0008749999999999999
0.0008749999999999999 0.006 -0.0008749999999999999
0.0008749999999999998 0.01 4.537676503148037e-20
0.0008749999999999998 0.01 -0.0008749999999999999
0.0008749999999999999 0.004 0.0008749999999999999
0.0008749999999999999 0.002 0.0008749999999999999
0.0008749999999999999 0.008 0.0008749999999999999
0.0008749999999999999 0.006 0.0008749999999999999
0.0008749999999999998 0.01 0.000875
3 2 0 45
444
445
446
447
448
449
450
451
452
453
454
455
456
457
458
459
460
461
462
463
464
465
466
467
468
469
470
471
472
473
474
475
476
477
478
479
480
481
482
483
484
485
486
487
488
1.358430582349959e-18 0.004 -0.003375
1.358430582349959e-18 0.008 -0.003375
1.358430582349959e-18 0.002 -0.003375
6.792152911749796e-19 0.004 -0.0025625
-0.001321383476483184 0.004 -0.003008883476483184
6.723389507395982e-19 0.002 -0.0025625
-0.001321383476483184 0.002 -0.003008883476483185
-0.001098191738241592 0.004 -0.002379441738241592
-0.001098191738241592 0.002 -0.002379441738241593
1.358430582349959e-18 0.006 -0.003375
6.792152911749796e-19 0.008 -0.0025625
-0.001321383476483184 0.008 -0.003008883476483184
6.792152911749796e-19 0.006 -0.0025625
-0.001321383476483184 0.006 -0.003008883476483185
-0.001098191738241592 0.008 -0.002379441738241592
-0.001098191738241592 0.006 -0.002379441738241593
1.358430582349959e-18 0.01 -0.003375
6.723389507395982e-19 0.01 -0.0025625
-0.001321383476483184 0.01 -0.003008883476483185
-0.001098191738241592 0.01 -0.002379441738241593
2.593499640638454e-18 0.004 -0.0041875
2.593499640638454e-18 0.002 -0.0041875
-0.001617400319154315 0.004 -0.003814140569519809
-0.001617400319154316 0.002 -0.003814140569519809
2.593499640638454e-18 0.008 -0.0041875
2.593499640638454e-18 0.006 -0.0041875
-0.001617400319154315 0.008 -0.003814140569519809
-0.001617400319154316 0.006 -0.003814140569519809
2.593499640638454e-18 0.01 -0.0041875
-0.001617400319154316 0.01 -0.003814140569519809
0.001321383476483185 0.004 -0.003008883476483184
0.001321383476483185 0.002 -0.003008883476483184
0.001098191738241593 0.004 -0.002379441738241592
0.001098191738241593 0.002 -0.002379441738241591
0.001321383476483185 0.008 -0.003008883476483184
0.001321383476483185 0.006 -0.003008883476483184
0.001098191738241593 0.008 -0.002379441738241592
0.001098191738241593 0.006 -0.002379441738241591
0.001321383476483185 0.01 -0.003008883476483184
0.001098191738241593 0.01 -0.002379441738241592
0.001617400319154317 0.004 -0.003814140569519809
0.001617400319154318 0.002 -0.00381414056951981
0.001617400319154317 0.008 -0.003814140569519809
0.001617400319154317 0.006 -0.00381414056951981
0.001617400319154318 0.01 -0.00381414056951981
3 3 0 45
489
490
491
492
493
494
495
496
497
498
499
500
501
502
503
504
505
506
507
508
509
510
511
512
513
514
515
516
517
518
519
520
521
522
523
524
525
526
527
528
529
530
531
532
533
0.003375 0.004 -2.897358833720503e-19
0.003375 0.008 -2.897358833720503e-19
0.003375 0.002 -2.897358833720503e-19
0.0025625 0.004 -1.448679416860252e-19
0.003008883476483184 0.004 -0.001321383476483184
0.0025625 0.002 -1.68534825780472e-19
0.003008883476483184 0.002 -0.001321383476483185
0.002379441738241592 0.004 -0.001098191738241592
0.002379441738241593 0.002 -0.001098191738241592
0.003375 0.006 -2.897358833720503e-19
0.0025625 0.008 -1.448679416860252e-19
0.003008883476483184 0.008 -0.001321383476483184
0.0025625 0.006 -1.448679416860252e-19
0.003008883476483184 0.006 -0.001321383476483185
0.002379441738241592 0.008 -0.001098191738241592
0.002379441738241593 0.006 -0.001098191738241592
0.003375 0.01 -2.897358833720503e-19
0.0025625 0.01 -1.68534825780472e-19
0.003008883476483184 0.01 -0.001321383476483185
0.002379441738241593 0.01 -0.001098191738241592
0.004187499999999999 0.004 -6.041104913662826e-19
0.004187499999999999 0.002 -6.041104913662826e-19
0.003814140569519808 0.004 -0.001617400319154318
0.003814140569519808 0.002 -0.001617400319154319
0.004187499999999999 0.008 -6.041104913662826e-19
0.004187499999999999 0.006 -6.041104913662826e-19
0.003814140569519808 0.008 -0.001617400319154318
0.003814140569519808 0.006 -0.001617400319154319
0.004187499999999999 0.01 -6.041104913662826e-19
0.003814140569519808 0.01 -0.001617400319154319
0.003008883476483184 0.004 0.001321383476483184
0.003008883476483184 0.002 0.001321383476483184
0.002379441738241592 0.004 0.001098191738241592
0.002379441738241593 0.002 0.001098191738241592
0.003008883476483184 0.008 0.001321383476483184
0.003008883476483184 0.006 0.001321383476483184
0.002379441738241592 0.008 0.001098191738241592
0.002379441738241593 0.006 0.001098191738241592
0.003008883476483184 0.01 0.001321383476483184
0.002379441738241593 0.01 0.001098191738241592
0.003814140569519809 0.004 0.001617400319154315
0.003814140569519808 0.002 0.001617400319154316
0.003814140569519809 0.008 0.001617400319154315
0.003814140569519809 0.006 0.001617400319154315
0.00381414056951981 0.01 0.001617400319154316
3 4 0 45
534
535
536
537
538
539
540
541
542
543
544
545
546
547
548
549
550
551
552
553
554
555
556
557
558
559
560
561
562
563
564
565
566
567
568
569
570
571
572
573
574
575
576
577
578
4.428167332654694e-19 0.004 0.003375
4.428167332654694e-19 0.008 0.003375
4.428167332654694e-19 0.002 0.003375
2.214083666327347e-19 0.004 0.0025625
0.001321383476483184 0.004 0.003008883476483184
2.450752507271816e-19 0.002 0.0025625
0.001321383476483184 0.002 0.003008883476483184
0.001098191738241592 0.004 0.002379441738241592
0.001098191738241592 0.002 0.002379441738241593
4.428167332654694e-19 0.006 0.003375
2.214083666327347e-19 0.008 0.0025625
0.001321383476483184 0.008 0.003008883476483184
2.214083666327347e-19 0.006 0.0025625
0.001321383476483184 0.006 0.003008883476483184
0.001098191738241592 0.008 0.002379441738241592
0.001098191738241592 0.006 0.002379441738241593
4.428167332654694e-19 0.01 0.003375
2.450752507271816e-19 0.01 0.0025625
0.001321383476483184 0.01 0.003008883476483184
0.001098191738241592 0.01 0.002379441738241593
8.337317662064112e-19 0.004 0.004187499999999999
3.054177815456724e-18 0.002 0.004187499999999999
0.001617400319154318 0.004 0.003814140569519808
0.001617400319154319 0.002 0.003814140569519809
8.337317662064112e-19 0.008 0.004187499999999999
3.054177815456724e-18 0.006 0.004187499999999999
0.001617400319154318 0.008 0.003814140569519808
0.001617400319154319 0.006 0.003814140569519808
3.054177815456724e-18 0.01 0.004187499999999999
0.001617400319154319 0.01 0.003814140569519809
-0.001321383476483184 0.004 0.003008883476483184
-0.001321383476483184 0.002 0.003008883476483184
-0.001098191738241592 0.004 0.002379441738241592
-0.001098191738241592 0.002 0.002379441738241593
-0.001321383476483184 0.008 0.003008883476483184
-0.001321383476483184 0.006 0.003008883476483184
-0.001098191738241592 0.008 0.002379441738241592
-0.001098191738241592 0.006 0.002379441738241593
-0.001321383476483184 0.01 0.003008883476483184
-0.001098191738241592 0.01 0.002379441738241593
-0.001617400319154313 0.004 0.00381414056951981
-0.001617400319154314 0.002 0.00381414056951981
-0.001617400319154313 0.008 0.00381414056951981
-0.001617400319154312 0.006 0.00381414056951981
-0.001617400319154314 0.01 0.00381414056951981
3 5 0 45
579
580
581
582
583
584
585
586
587
588
589
590
591
592
593
594
595
596
597
598
599
600
601
602
603
604
605
606
607
608
609
610
611
612
613
614
615
616
617
618
619
620
621
622
623
-0.003374999999999999 0.004 3.165187796428317e-19
-0.003374999999999999 0.008 3.165187796428317e-19
-0.003374999999999999 0.002 3.165187796428317e-19
-0.0025625 0.004 1.582593898214159e-19
-0.003008883476483184 0.004 0.001321383476483184
-0.0025625 0.002 1.72757820002021e-19
-0.003008883476483184 0.002 0.001321383476483185
-0.002379441738241592 0.004 0.001098191738241592
-0.002379441738241591 0.002 0.001098191738241592
-0.003374999999999999 0.006 3.165187796428317e-19
-0.0025625 0.008 1.582593898214159e-19
-0.003008883476483184 0.008 0.001321383476483184
-0.0025625 0.006 1.582593898214159e-19
-0.003008883476483184 0.006 0.001321383476483185
-0.002379441738241592 0.008 0.001098191738241592
-0.002379441738241592 0.006 0.001098191738241592
-0.003374999999999999 0.01 3.165187796428317e-19
-0.0025625 0.01 1.72757820002021e-19
-0.003008883476483184 0.01 0.001321383476483185
-0.002379441738241592 0.01 0.001098191738241592
-0.004187499999999999 0.004 1.421563264339991e-18
-0.004187499999999999 0.002 1.421563264339991e-18
-0.003814140569519808 0.004 0.001617400319154317
-0.003814140569519809 0.002 0.001617400319154317
-0.004187499999999999 0.008 1.421563264339991e-18
-0.004187499999999999 0.006 1.421563264339991e-18
-0.003814140569519808 0.008 0.001617400319154317
-0.003814140569519809 0.006 0.001617400319154317
-0.004187499999999999 0.01 1.421563264339991e-18
-0.003814140569519809 0.01 0.001617400319154317
-0.003008883476483184 0.004 -0.001321383476483184
-0.003008883476483184 0.002 -0.001321383476483184
-0.002379441738241592 0.004 -0.001098191738241592
-0.002379441738241593 0.002 -0.001098191738241592
-0.003008883476483184 0.008 -0.001321383476483184
-0.003008883476483184 0.006 -0.001321383476483184
-0.002379441738241592 0.008 -0.001098191738241592
-0.002379441738241593 0.006 -0.001098191738241592
-0.003008883476483184 0.01 -0.001321383476483184
-0.002379441738241593 0.01 -0.001098191738241592
-0.003814140569519809 0.004 -0.001617400319154316
-0.003814140569519808 0.002 -0.001617400319154316
-0.003814140569519809 0.008 -0.001617400319154316
-0.003814140569519808 0.006 -0.001617400319154316
-0.003814140569519809 0.01 -0.001617400319154316
$EndNodes
$Elements
15 100 1 100
2 14 10 4
1 1 17 129 26 18 130 131 28 132 
2 26 129 23 4 131 133 25 27 134 
3 17 2 20 129 19 21 135 130 136 
4 129 20 3 23 135 22 24 133 137 
2 16 10 4
5 1 17 138 41 18 139 140 42 141 
6 41 138 29 5 140 142 30 43 143 
7 17 2 44 138 19 45 144 139 145 
8 138 44 6 29 144 46 31 142 146 
2 18 10 4
9 2 20 147 44 21 148 149 45 150 
10 44 147 32 6 149 151 33 46 152 
11 20 3 47 147 22 48 153 148 154 
12 147 47 7 32 153 49 34 151 155 
2 20 10 4
13 3 23 156 47 24 157 158 48 159 
14 47 156 35 7 158 160 36 49 161 
15 23 4 50 156 25 51 162 157 163 
16 156 50 8 35 162 52 37 160 164 
2 22 10 4
17 4 26 165 50 27 166 167 51 168 
18 50 165 38 8 167 169 39 52 170 
19 26 1 41 165 28 42 171 166 172 
20 165 41 5 38 171 43 40 169 173 
2 27 10 4
21 9 82 234 63 84 235 236 64 237 
22 82 12 79 234 83 81 238 235 239 
23 63 234 71 10 236 240 72 65 241 
24 234 79 11 71 238 80 73 240 242 
2 31 10 4
25 9 63 288 101 64 289 290 102 291 
26 101 288 98 14 290 292 99 103 293 
27 63 10 90 288 65 91 294 289 295 
28 288 90 13 98 294 92 100 292 296 
2 34 10 4
29 10 71 327 90 72 328 329 91 330 
30 90 327 112 13 329 331 113 92 332 
31 71 11 109 327 73 110 333 328 334 
32 327 109 15 112 333 111 114 331 335 
2 37 10 4
33 11 79 366 109 80 367 368 110 369 
34 109 366 123 15 368 370 124 111 371 
35 79 12 120 366 81 121 372 367 373 
36 366 120 16 123 372 122 125 370 374 
2 39 10 4
37 12 82 390 120 83 391 392 121 393 
38 120 390 126 16 392 394 127 122 395 
39 82 9 101 390 84 102 396 391 397 
40 390 101 14 126 396 103 128 394 398 
3 1 12 12
41 129 17 1 26 399 174 53 219 130 131 401 18 177 28 55 222 402 403 176 229 132 404 405 178 230 406 407 
42 399 174 53 219 400 175 54 220 402 403 408 176 180 229 56 225 409 410 179 231 406 411 412 181 232 413 414 
43 400 175 54 220 234 63 9 82 409 410 415 179 182 231 57 227 236 235 64 84 413 416 417 183 233 237 418 
44 23 129 26 4 204 399 219 74 133 25 207 131 401 27 222 76 419 214 403 221 134 420 215 405 223 421 422 
45 204 399 219 74 205 400 220 75 419 214 210 403 408 221 225 77 423 216 410 224 421 424 217 412 226 425 426 
46 205 400 220 75 79 234 82 12 423 216 212 410 415 224 227 78 238 81 235 83 425 427 218 417 228 239 428 
47 20 2 17 129 189 58 174 399 21 135 192 19 60 130 177 401 191 429 184 402 136 193 430 185 404 431 432 
48 189 58 174 399 190 59 175 400 191 429 195 184 61 402 180 408 194 433 186 409 431 196 434 187 411 435 436 
49 190 59 175 400 71 10 63 234 194 433 197 186 62 409 182 415 72 240 65 236 435 198 437 188 416 241 438 
50 3 20 129 23 66 189 399 204 22 24 68 135 192 133 401 207 199 206 429 419 137 200 208 430 420 439 440 
51 66 189 399 204 67 190 400 205 199 206 69 429 195 419 408 210 201 209 433 423 439 202 211 434 424 441 442 
52 67 190 400 205 11 71 234 79 201 209 70 433 197 423 415 212 73 80 240 238 441 203 213 437 427 242 443 
3 2 12 12
53 1 17 138 41 53 174 444 273 18 42 55 139 177 140 446 276 176 275 447 448 141 178 277 449 450 451 452 
54 53 174 444 273 54 175 445 274 176 275 56 447 180 448 453 279 179 278 454 455 451 181 280 456 457 458 459 
55 54 175 445 274 9 63 288 101 179 278 57 454 182 455 460 281 64 102 289 290 458 183 282 461 462 291 463 
56 41 138 29 5 273 444 258 93 140 43 276 142 446 30 261 95 448 283 464 260 143 450 284 465 262 466 467 
57 273 444 258 93 274 445 259 94 448 283 279 464 453 260 264 96 455 285 468 263 466 457 286 469 265 470 471 
58 274 445 259 94 101 288 98 14 455 285 281 468 460 263 266 97 290 103 292 99 470 462 287 472 267 293 473 
59 17 2 44 138 174 58 243 444 19 139 177 45 60 144 245 446 184 447 246 474 145 185 449 247 475 476 477 
60 174 58 243 444 175 59 244 445 184 447 180 246 61 474 248 453 186 454 249 478 476 187 456 250 479 480 481 
61 175 59 244 445 63 10 90 288 186 454 182 249 62 478 251 460 65 289 91 294 480 188 461 252 482 295 483 
62 138 44 6 29 444 243 85 258 144 142 446 46 245 31 87 261 474 464 253 268 146 475 465 254 269 484 485 
63 444 243 85 258 445 244 86 259 474 464 453 253 248 268 88 264 478 468 255 270 484 479 469 256 271 486 487 
64 445 244 86 259 288 90 13 98 478 468 460 255 251 270 89 266 294 292 92 100 486 482 472 257 272 296 488 
3 3 12 12
65 2 20 147 44 58 189 489 243 21 45 60 148 192 149 491 245 191 246 492 493 150 193 247 494 495 496 497 
66 58 189 489 243 59 190 490 244 191 246 61 492 195 493 498 248 194 249 499 500 496 196 250 501 502 503 504 
67 59 190 490 244 10 71 327 90 194 249 62 499 197 500 505 251 72 91 328 329 503 198 252 506 507 330 508 
68 44 147 32 6 243 489 312 85 149 46 245 151 491 33 315 87 493 253 509 314 152 495 254 510 316 511 512 
69 243 489 312 85 244 490 313 86 493 253 248 509 498 314 318 88 500 255 513 317 511 502 256 514 319 515 516 
70 244 490 313 86 90 327 112 13 500 255 251 513 505 317 320 89 329 92 331 113 515 507 257 517 321 332 518 
71 20 3 47 147 189 66 297 489 22 148 192 48 68 153 299 491 199 492 300 519 154 200 494 301 520 521 522 
72 189 66 297 489 190 67 298 490 199 492 195 300 69 519 302 498 201 499 303 523 521 202 501 304 524 525 526 
73 190 67 298 490 71 11 109 327 201 499 197 303 70 523 305 505 73 328 110 333 525 203 506 306 527 334 528 
74 147 47 7 32 489 297 104 312 153 151 491 49 299 34 106 315 519 509 307 322 155 520 510 308 323 529 530 
75 489 297 104 312 490 298 105 313 519 509 498 307 302 322 107 318 523 513 309 324 529 524 514 310 325 531 532 
76 490 298 105 313 327 109 15 112 523 513 505 309 305 324 108 320 333 331 111 114 531 527 517 311 326 335 533 
3 4 12 12
77 3 23 156 47 66 204 534 297 24 48 68 157 207 158 536 299 206 300 537 538 159 208 301 539 540 541 542 
78 66 204 534 297 67 205 535 298 206 300 69 537 210 538 543 302 209 303 544 545 541 211 304 546 547 548 549 
79 67 205 535 298 11 79 366 109 209 303 70 544 212 545 550 305 80 110 367 368 548 213 306 551 552 369 553 
80 47 156 35 7 297 534 351 104 158 49 299 160 536 36 354 106 538 307 554 353 161 540 308 555 355 556 557 
81 297 534 351 104 298 535 352 105 538 307 302 554 543 353 357 107 545 309 558 356 556 547 310 559 358 560 561 
82 298 535 352 105 109 366 123 15 545 309 305 558 550 356 359 108 368 111 370 124 560 552 311 562 360 371 563 
83 23 4 50 156 204 74 336 534 25 157 207 51 76 162 338 536 214 537 339 564 163 215 539 340 565 566 567 
84 204 74 336 534 205 75 337 535 214 537 210 339 77 564 341 543 216 544 342 568 566 217 546 343 569 570 571 
85 205 75 337 535 79 12 120 366 216 544 212 342 78 568 344 550 81 367 121 372 570 218 551 345 572 373 573 
86 156 50 8 35 534 336 115 351 162 160 536 52 338 37 117 354 564 554 346 361 164 565 555 347 362 574 575 
87 534 336 115 351 535 337 116 352 564 554 543 346 341 361 118 357 568 558 348 363 574 569 559 349 364 576 577 
88 535 337 116 352 366 120 16 123 568 558 550 348 344 363 119 359 372 370 122 125 576 572 562 350 365 374 578 
3 5 12 12
89 4 26 165 50 74 219 579 336 27 51 76 166 222 167 581 338 221 339 582 583 168 223 340 584 585 586 587 
90 74 219 579 336 75 220 580 337 221 339 77 582 225 583 588 341 224 342 589 590 586 226 343 591 592 593 594 
91 75 220 580 337 12 82 390 120 224 342 78 589 227 590 595 344 83 121 391 392 593 228 345 596 597 393 598 
92 50 165 38 8 336 579 375 115 167 52 338 169 581 39 378 117 583 346 599 377 170 585 347 600 379 601 602 
93 336 579 375 115 337 580 376 116 583 346 341 599 588 377 381 118 590 348 603 380 601 592 349 604 382 605 606 
94 337 580 376 116 120 390 126 16 590 348 344 603 595 380 383 119 392 122 394 127 605 597 350 607 384 395 608 
95 26 1 41 165 219 53 273 579 28 166 222 42 55 171 276 581 229 582 275 609 172 230 584 277 610 611 612 
96 219 53 273 579 220 54 274 580 229 582 225 275 56 609 279 588 231 589 278 613 611 232 591 280 614 615 616 
97 220 54 274 580 82 9 101 390 231 589 227 278 57 613 281 595 84 391 102 396 615 233 596 282 617 397 618 
98 165 41 5 38 579 273 93 375 171 169 581 43 276 40 95 378 609 599 283 385 173 610 600 284 386 619 620 
99 579 273 93 375 580 274 94 376 609 599 588 283 279 385 96 381 613 603 285 387 619 614 604 286 388 621 622 
100 580 274 94 376 390 101 14 126 613 603 595 285 281 387 97 383 396 394 103 128 621 617 607 287 389 398 623 
$EndElements
