$MeshFormat
4.1 0 8
$EndMeshFormat
$PhysicalNames
3
2 1 "bc-bot"
2 2 "bc-top"
3 3 "vol"
$EndPhysicalNames
$Entities
2 3 3 1
1 -1.224646799147353e-18 0.012 0.005 0 
2 -1.224646799147353e-18 0 0.005 0 
1 -0.0050001 0.0119999 -0.0050001 0.0050001 0.0120001 0.0050001 0 2 1 -1 
2 -1.000000000012246e-07 -1.000000000002735e-07 0.0049999 9.999999999877534e-08 0.0120001 0.0050001 0 2 2 -1 
3 -0.0050001 -1e-07 -0.0050001 0.0050001 1e-07 0.0050001 0 2 2 -2 
1 -0.0050001 -1.000000000002735e-07 -0.0050001 0.0050001 0.0120001 0.0050001 0 4 -1 -2 3 2 
2 -0.0050001 0.0119999 -0.0050001 0.0050001 0.0120001 0.0050001 1 2 1 1 
3 -0.0050001 -1e-07 -0.0050001 0.0050001 1e-07 0.0050001 1 1 1 3 
1 -0.0050001 -1.000000000002735e-07 -0.0050001 0.0050001 0.0120001 0.0050001 1 3 3 1 2 -3 
$EndEntities
$Nodes
9 50 1 50
0 1 0 1
1
-1.224646799147353e-18 0.012 0.005
0 2 0 1
2
-1.224646799147353e-18 0 0.005
1 1 0 7
3
4
5
6
7
8
9
0.003535533905932731 0.012 0.003535533905932744
0.005 0.012 1.695950706916419e-17
0.003535533905932758 0.012 -0.003535533905932717
3.613946018757869e-17 0.012 -0.005
-0.003535533905932715 0.012 -0.00353553390593276
-0.005 0.012 -2.312294559186364e-17
-0.003535533905932745 0.012 0.003535533905932731
1 2 0 2
10
11
-1.224646799147353e-18 0.003999999999999999 0.005
-1.224646799147353e-18 0.008 0.005
1 3 0 7
12
13
14
15
16
17
18
0.003535533905932731 0 0.003535533905932744
0.005 0 1.695950706916419e-17
0.003535533905932758 0 -0.003535533905932717
3.613946018757869e-17 0 -0.005
-0.003535533905932715 0 -0.00353553390593276
-0.005 0 -2.312294559186364e-17
-0.003535533905932745 0 0.003535533905932731
2 1 0 23
19
20
21
22
23
24
25
26
27
28
29
30
31
32
33
34
35
36
37
38
39
40
41
0.004619397662556443 0.008707791384763507 -0.001913417161825428
-0.001913417161825418 0.008707791384763498 -0.004619397662556447
-0.00309810242829699 0.006001704408014228 0.003924507783630999
0.00462588948824922 0.003103369945436849 0.001897668686179274
0.001913417161825478 0.003292208615240111 -0.004619397662556422
-0.00462071309707748 0.003179795332889162 -0.001910238329239741
-0.004625080970351365 0.008969543000597342 0.00189963839129811
-0.004623822516987261 0.003057062955080576 0.001902699485310699
-0.001912423479888114 0.003187635750514442 -0.004619809133889909
0.004627564616795317 0.008981360121484597 0.001893580132284878
0.00191341716182555 0.008707791384763559 -0.004619397662556392
-0.004619694654927348 0.008822220287846565 -0.001912700001368664
0.00461926450531908 0.003189984050217168 -0.001913738600201
0.003055265912775121 0.006 0.003957947726061374
-0.004998006382919371 0.0060095473764178 0.000141181430426324
0.003535533905932758 0.006026881829384243 -0.003535533905932717
-2.504654636078966e-06 0.006007436367996544 -0.004999999372670476
-0.003554881735100609 0.005983671559736731 -0.003516079613639044
0.005 0.00602688182938428 6.580932015267108e-17
0.002662969952330022 0.009145507765372696 0.004231854325586768
0.002662969952330303 0.002854492234627615 0.004231854325586592
-0.002651857795939281 0.009157696774970348 0.004238826515689934
-0.002651857795939285 0.00284230322502965 0.004238826515689931
2 2 0 4
42
43
44
45
0.001343829086984198 0.012 -0.0005566322333403006
-0.001816388471011781 0.012 0.0007523727392312017
0.0009101975963013189 0.012 0.002255399362993149
-0.0009512012912918988 0.012 -0.002238415076420639
2 3 0 4
46
47
48
49
0.001343829086984198 0 -0.0005566322333403006
-0.001816388471011781 0 0.0007523727392312017
0.0009101975963013189 0 0.002255399362993149
-0.0009512012912918988 0 -0.002238415076420639
3 1 0 1
50
1.513729241800705e-05 0.00489573807827311 -2.168011185430018e-05
$EndNodes
$Elements
3 132 1 132
2 2 2 14
1 3 44 1 
2 1 44 9 
3 4 44 3 
4 5 42 4 
5 42 44 4 
6 6 45 5 
7 5 45 42 
8 7 45 6 
9 8 45 7 
10 9 43 8 
11 43 45 8 
12 9 44 43 
13 43 44 42 
14 42 45 43 
2 3 2 14
15 12 2 48 
16 2 18 48 
17 13 12 48 
18 14 13 46 
19 46 13 48 
20 15 14 49 
21 14 46 49 
22 16 15 49 
23 17 16 49 
24 18 17 47 
25 47 17 49 
26 18 47 48 
27 47 46 48 
28 46 47 49 
3 1 4 104
29 30 43 25 50 
30 40 25 43 50 
31 19 42 29 50 
32 44 43 42 50 
33 45 42 43 50 
34 19 28 42 50 
35 45 43 30 50 
36 45 29 42 50 
37 44 42 28 50 
38 20 45 30 50 
39 20 29 45 50 
40 38 44 28 50 
41 44 38 11 50 
42 19 29 34 50 
43 35 29 20 50 
44 30 36 20 50 
45 30 25 33 50 
46 25 40 21 50 
47 19 37 28 50 
48 32 38 28 50 
49 40 11 21 50 
50 32 11 38 50 
51 29 35 34 50 
52 36 35 20 50 
53 26 47 24 50 
54 36 30 33 50 
55 23 46 31 50 
56 25 21 33 50 
57 22 31 46 50 
58 19 34 37 50 
59 47 26 41 50 
60 37 32 28 50 
61 49 24 47 50 
62 41 48 47 50 
63 49 46 23 50 
64 22 46 48 50 
65 27 49 23 50 
66 21 11 10 50 
67 49 27 24 50 
68 10 48 41 50 
69 10 11 32 50 
70 23 31 34 50 
71 23 35 27 50 
72 36 24 27 50 
73 39 22 48 50 
74 23 34 35 50 
75 35 36 27 50 
76 26 24 33 50 
77 39 48 10 50 
78 47 48 46 50 
79 49 47 46 50 
80 21 41 26 50 
81 22 37 31 50 
82 24 36 33 50 
83 33 21 26 50 
84 37 34 31 50 
85 39 32 22 50 
86 21 10 41 50 
87 22 32 37 50 
88 39 10 32 50 
89 19 42 5 29 
90 23 31 46 14 
91 46 31 22 13 
92 19 28 4 42 
93 26 17 24 47 
94 30 25 43 8 
95 5 42 45 29 
96 46 49 23 14 
97 45 20 6 29 
98 17 49 24 47 
99 45 30 43 8 
100 49 27 23 15 
101 41 10 2 48 
102 1 11 40 44 
103 45 7 20 30 
104 6 5 45 29 
105 15 23 49 14 
106 27 16 49 24 
107 22 48 46 13 
108 16 17 49 24 
109 30 45 7 8 
110 28 44 4 42 
111 9 40 43 44 
112 41 18 47 48 
113 48 22 12 13 
114 44 4 3 28 
115 41 18 26 47 
116 43 25 40 9 
117 12 22 48 39 
118 11 1 38 44 
119 10 2 48 39 
120 18 41 2 48 
121 40 9 1 44 
122 4 19 42 5 
123 44 3 38 28 
124 13 46 31 14 
125 20 7 45 6 
126 26 18 17 47 
127 27 49 16 15 
128 25 43 8 9 
129 12 48 2 39 
130 1 3 38 44 
131 44 40 50 11 
132 44 50 40 43 
$EndElements
